<?xml version="1.0" encoding="UTF-8"?>
<svg id="Capa_2" data-name="Capa 2" xmlns="http://www.w3.org/2000/svg" viewBox="0 0 720.68 264.92">
  <defs>
    <style>
      .cls-1 {
        fill: #fff;
      }
    </style>
  </defs>
  <g id="Sponsor">
    <g>
      <path class="cls-1" d="m699.42,72.48c-1.51-12.62-6.16-23.9-18.67-29.02-16.66-6.81-32.93-5.74-47.51,5.96-3.17,2.54-6.03,5.46-9.18,8.34-7.4-14.07-19.5-18.35-34.39-18.21-14.85.14-26.42,6.44-36.63,18.26v-15.63h-39.13v109.8h41.99v-4.78c0-16.6-.21-33.21.12-49.81.11-5.38.89-11.02,2.73-16.03,2.76-7.5,11.61-10.82,18.63-7.78,6.4,2.77,8.17,8.36,8.19,14.71.06,19.85.03,39.7.03,59.55,0,1.33,0,2.65,0,4.11h42.36c0-1.62,0-3.09,0-4.56,0-16.98-.11-33.96.08-50.94.05-4.44.47-9.03,1.71-13.26,2.48-8.5,11.77-12.98,19.29-9.63,5.85,2.61,8.51,7.51,8.53,13.77.07,20.1.04,40.2.06,60.3,0,1.43,0,2.86,0,4.14h42.28c.11-.57.19-.81.19-1.05.02-20.6.07-41.2,0-61.8-.02-5.48-.04-11.01-.69-16.44Z"/>
      <path class="cls-1" d="m135.64,152.11c-1.47-4.93-3.28-9.36-4.02-13.96-.77-4.77-.62-9.7-.65-14.56-.08-15.23.67-30.5-.25-45.68-1.34-22.02-12.13-33.66-32.18-36.33-12.67-1.68-25.64-1.88-38.44-1.52-7.97.23-16.18,1.86-23.74,4.45-13.49,4.61-20.99,14.81-23.26,29.27,12.97,1.38,25.7,2.79,38.45,3.98.85.08,2.27-1.28,2.7-2.28,2.28-5.38,6.08-8.9,11.92-9.58,4.67-.54,9.42-.61,14.13-.63,1.41,0,2.9.74,4.22,1.41,3.24,1.63,5.92,6.57,4.82,10.53-.44,1.57-3.28,3.01-5.28,3.52-13.61,3.45-27.32,6.56-40.94,9.95-5.3,1.32-10.65,2.7-15.69,4.76-11.92,4.85-17.66,14.24-17.84,26.89-.18,12.86,5.91,22.39,17.37,27.8,13.59,6.41,27.89,5.32,42.13,2.13,8.75-1.96,15.89-6.9,22.41-12.87,1.38,3.74,2.52,7.27,4.04,10.63.43.95,1.96,2,2.99,2.01,12.35.14,24.7.09,37.11.09Zm-46.48-40.08c-1.94,13.16-16.12,22.04-28.97,18.34-4.48-1.29-7.42-4.07-8.07-8.75-.67-4.84,1.24-8.9,5.63-10.76,6.25-2.65,12.81-4.59,19.27-6.71,3.99-1.31,8.06-2.39,12.73-3.75-.19,4.21-.06,7.97-.6,11.63Z"/>
      <path class="cls-1" d="m393.6,150.96c19.96,5.96,40.5,5.47,60.45-1.06,13.1-4.29,21.62-14.1,28.63-25.93-.92-.19-1.36-.32-1.81-.36-10.3-1.01-20.65-1.66-30.88-3.14-5.58-.81-9.42,0-13.8,4.19-6.55,6.26-15.18,6.83-23.41,3.02-8.05-3.73-11.1-10.92-11.69-19.94h84.65c-.74-8.22-.89-15.99-2.23-23.55-3.37-19.04-13.57-33-32.09-39.93-13.62-5.09-27.82-5.35-42.09-4.04-12.06,1.11-23.17,4.99-32.41,13.04-17.45,15.22-21.84,34.89-17.83,56.73,3.67,19.97,14.65,35.05,34.5,40.97Zm26.81-86.26c12.73-.56,21.35,8.16,21.3,22.7h-40.1c-1-11.15,7.41-22.2,18.79-22.7Z"/>
      <path class="cls-1" d="m221.86,124.4c-5.84.42-8.58-1.82-8.72-7.63-.34-14.22-.26-28.44-.34-42.67,0-.2.26-.41.7-1.03h22.16v-31.27h-23.03V.34c-1.45.63-2.48,1-3.44,1.49-11.75,6.03-23.44,12.17-35.26,18.05-2.71,1.35-3.84,2.86-3.68,5.95.27,5.3.08,10.62.08,16.32h-15.29v31.09h15.29c0,1.97-.02,3.45,0,4.92.3,16.46.28,32.94,1.01,49.38.64,14.4,9.12,24.04,23.29,25.87,8.82,1.14,17.9.7,26.84.37,5.26-.19,10.48-1.56,15.96-2.44-1.06-10.04-2.07-19.53-3.07-29.02-4.47.77-8.46,1.78-12.5,2.07Z"/>
      <path class="cls-1" d="m270.9,124.35c-3.66-.34-7.25-1.33-11.26-2.09-1.05,9.63-2.08,19.13-3.14,28.9,15.22,3.33,30.13,4.83,45.19,1.95,10.13-1.94,16.7-8.2,19.39-18.08,1.29-4.77,2.09-9.8,2.2-14.73.32-14.23.18-28.47.22-42.7,0-1.34,0-2.68,0-4.46h15.39v-31.28h-15.39c0-5.85-.14-11.32.06-16.77.09-2.49-.75-3.8-2.96-4.9-9.04-4.48-17.99-9.13-26.97-13.73-3.95-2.02-7.89-4.07-12.52-6.46v42.13h-22.77v31.13h22.95c0,8.18,0,15.78,0,23.38-.01,6.24.2,12.5-.13,18.72-.39,7.32-3.11,9.64-10.27,8.98Z"/>
      <path class="cls-1" d="m293.62,246.28c-4.21-3.63-4.85-10.44-11.22-13.14v31.16c.42.15.85.31,1.27.46.52-1.04,1.48-2.07,1.5-3.12.14-6.92.07-13.84.07-20.75,2.57,2.66,4.43,5.55,6.26,8.44,1.39,2.19,2.71,2.37,4.15.03,1.73-2.81,3.55-5.57,5.34-8.35.25.06.49.13.74.19v22.92l1.09.69c.8-.77,2.27-1.53,2.29-2.32.16-9.46.1-18.92.1-29.47-6.85,2.64-7.5,9.54-11.6,13.27Z"/>
      <path class="cls-1" d="m233.76,172.79c-.34.29-.68.58-1.02.87v9.32c-6.19-2.73-10.37-1.99-12.82,2.06-2.89,4.79-1.87,14.61,1.98,17.41,1.25.91,2.97,1.68,4.45,1.65,3.2-.07,6.38-.7,9.9-1.15,0-9.08.06-18.43-.11-27.77-.01-.81-1.55-1.59-2.38-2.39Zm-1.61,24.65c-.71,2.57-2.45,4.07-5.19,3.84-2.65-.22-4.45-1.82-4.76-4.44-.3-2.55-.4-5.2-.04-7.73.41-2.95,2.11-5.02,5.5-4.91,3.32.11,4.31,2.52,4.93,5.15.25,1.06.04,2.22.04,3.34.1.01.21.02.31.03-.25,1.58-.37,3.19-.79,4.72Z"/>
      <path class="cls-1" d="m433.94,175.01c-.01-.76-1.51-1.5-2.32-2.25-.32.24-.63.48-.95.72v9.86c-4.13-2.53-7.79-3.08-11.06-.36-4.64,3.87-3.61,9.28-2.96,14.29.47,3.59,2.72,6.1,6.56,6.73.49.08,1,.29,1.47.22,2.97-.38,5.93-.82,9.36-1.31,0-8.97.06-18.44-.11-27.91Zm-3.42,17.78c.02,5.67-1.91,8.66-5.49,8.55-3.61-.11-5.63-3.23-5.57-8.66.01-.86.1-1.74.24-2.59.67-4.1,2.66-6.08,5.85-5.89,2.86.16,4.71,2.53,4.95,6.36.05.74,0,1.49,0,2.23Z"/>
      <path class="cls-1" d="m549.12,173.09c-.55.77-1.51,1.5-1.58,2.31-.21,2.46-.08,4.95-.08,7.45-.53-.03-.81.03-1.01-.07-5.66-2.78-10.45-1.43-12.49,3.52-2.82,6.87-.41,15.66,4.79,17.39.82.27,1.73.59,2.56.5,3.08-.33,6.15-.82,9.62-1.3,0-8.94.04-18.29-.08-27.63,0-.73-1.13-1.45-1.74-2.17Zm-2.29,24.35c-.71,2.57-2.46,4.06-5.19,3.83-2.65-.22-4.45-1.83-4.75-4.45-.3-2.55-.39-5.2-.04-7.73.42-2.95,2.11-5.01,5.5-4.9,3.32.11,4.31,2.53,4.92,5.16.25,1.06.04,2.22.04,3.34.1.01.21.02.31.03-.26,1.58-.37,3.19-.8,4.72Z"/>
      <path class="cls-1" d="m11.83,173.2c-.93.13-2.18,1.05-2.49,1.91-1.93,5.37-3.63,10.82-5.4,16.25-1.29,3.97-2.57,7.94-3.94,12.16,5.2.89,3.46-3.84,5.95-5.75,2.74,0,5.86.19,8.95-.06,2.73-.22,4.16.68,4.62,3.4.36,2.16,1.46,3.42,4.12,2.15-3.11-9.5-6.19-19.04-9.42-28.53-.25-.74-1.65-1.64-2.38-1.53Zm-5.64,21.65c1.84-5.82,3.58-11.31,5.65-17.87,2.07,6.6,3.8,12.08,5.62,17.87H6.19Z"/>
      <path class="cls-1" d="m341.66,182.95c0-2.62.13-5.07-.07-7.49-.07-.83-.99-1.58-1.52-2.37-.57.74-1.62,1.47-1.63,2.21-.11,9.32-.07,18.64-.07,27.53,3.33.52,6.07.98,8.81,1.37.59.08,1.23-.07,1.84-.19,4.99-.93,7.26-4.68,7.17-11.81-.11-9.5-5.39-13.05-14.53-9.26Zm10.98,12.24c-.32,3.91-2.45,6.24-5.61,6.15-2.89-.08-4.84-2.4-5.07-6.24-.11-1.73-.13-3.48.03-5.21.28-3.09,1.38-5.63,5.06-5.7,3.62-.07,4.88,2.44,5.51,5.42.23,1.08.13,2.22.18,3.34-.03,0-.07,0-.1,0,0,.74.05,1.49,0,2.23Z"/>
      <path class="cls-1" d="m332.15,188.02c-.24-4.52-3.44-6.8-8.64-6.73-4.77.06-7.15,1.85-7.61,6.53,1.45-.74,2.45-1.47,3.56-1.79,2.25-.64,4.7-1.75,6.79-1.32,1.31.27,2.13,2.97,3.61,5.26-4.13.45-6.87.53-9.52,1.08-3.84.8-6.03,3.71-5.78,7.15.26,3.51,2.87,6.04,6.89,5.96,3.49-.07,6.97-.78,10.76-1.24,0-4.7.21-9.81-.06-14.9Zm-11.14,13.01c-1.22-.44-2.7-2.04-2.8-3.21-.1-1.21,1.08-3.31,2.15-3.67,2.47-.84,5.22-.86,8.15-1.25.63,6.5-2.71,9.85-7.49,8.13Z"/>
      <path class="cls-1" d="m118.12,181.65c-3.61-1.21-8.45-.17-10.38,2.33-.6.78-.84,1.84-1.24,2.77.28.29.55.57.82.86,1.04-.55,2.01-1.31,3.12-1.62,2.25-.63,4.71-1.71,6.8-1.27,1.31.28,2.11,2.99,3.53,5.24-4.12.45-6.87.53-9.51,1.09-3.82.8-6.01,3.75-5.74,7.18.28,3.51,2.91,6.02,6.93,5.93,3.49-.08,6.96-.8,10.76-1.28,0-4.34.02-9.07,0-13.79-.02-3.61-1.54-6.25-5.09-7.44Zm-5.93,19.46c-1.26-.4-2.95-1.96-3-3.04-.06-1.34,1.12-3.55,2.27-3.95,2.44-.87,5.21-.81,8.08-1.16.46,6.46-2.66,9.66-7.35,8.16Z"/>
      <path class="cls-1" d="m410.85,188.22c-.18-4.22-3.03-6.69-7.35-6.91-5.47-.28-8.15,1.36-9.21,6.65,1.83-1.07,2.91-2.06,4.16-2.34,2.28-.52,4.84-1.24,6.92-.64,1.2.34,1.7,3.11,2.84,5.46-2.62,0-3.98-.08-5.33.02-1.36.1-2.74.25-4.05.59-3.89.99-6.11,4.14-5.54,7.69.55,3.39,3.45,5.71,7.37,5.46,3.27-.21,6.51-.84,10.23-1.35,0-4.67.16-9.66-.05-14.63Zm-10.35,13.01c-1.44-.33-3.41-2.04-3.56-3.31-.15-1.26,1.4-3.53,2.69-3.99,2.31-.83,4.98-.62,7.47-.85.8,5.95-1.91,9.22-6.6,8.15Z"/>
      <path class="cls-1" d="m489.31,181.29c-5.53-.05-9.03,3.22-9.23,8.97-.09,2.46.05,5.01.64,7.38,1.61,6.53,9.95,8.87,14.78,4.17.77-.75.86-2.22,1.26-3.35-.97.36-2.11.51-2.87,1.13-2.38,1.95-4.93,2.42-7.61.99-2.49-1.33-3.2-3.6-2.49-6.66h14.15c0-1.57.04-2.55,0-3.53-.27-5.83-3.34-9.05-8.63-9.1Zm-5.6,9.63c-.06-4.65,1.34-6.53,4.82-6.73,4.02-.23,5.85,1.71,6.18,6.73h-11Z"/>
      <path class="cls-1" d="m371.26,181.31c-5.49-.41-8.33,1.24-9.78,6.64,1.89-1.01,3.01-1.92,4.28-2.22,2.28-.55,4.82-1.41,6.9-.84,1.3.35,1.97,3.07,3.15,5.13-3.89.41-6.76.48-9.52,1.07-4.14.89-6.06,3.95-5.44,8.02.49,3.21,3.69,5.51,7.6,5.06,2.16-.25,4.24-1.16,5.78-1.61,1.34.55,2.38.98,3.89,1.59,0-6.09.15-11.2-.05-16.29-.15-3.86-2.84-6.24-6.81-6.53Zm-4.31,19.67c-1.19-.44-2.74-1.91-2.77-2.95-.04-1.3,1.05-3.47,2.12-3.8,2.71-.85,5.68-.9,8.6-1.27.33,6.55-3.15,9.81-7.94,8.02Z"/>
      <path class="cls-1" d="m656.58,181.29c-5.19-.11-7.71,1.56-8.68,6.61,1.67-.88,2.74-1.69,3.93-2.01,2.27-.61,4.78-1.63,6.86-1.12,1.36.33,2.15,3.04,3.59,5.29-6.39.84-12.45-.85-14.96,5.5-.97,2.45-.69,5.34,1.87,7.08,3.9,2.63,7.79,1.76,10.92-.13,1.58.58,2.7.99,4.18,1.53,0-6.02.2-11.37-.07-16.71-.19-3.82-3.21-5.95-7.64-6.04Zm-2.63,19.91c-1.41-.36-3.46-1.99-3.49-3.09-.04-1.41,1.37-3.64,2.67-4.13,2.33-.87,5.06-.7,7.9-.99.46,6.18-2.43,9.39-7.08,8.21Z"/>
      <path class="cls-1" d="m250.69,181.3c-4.98.2-8.12,3.67-8.23,9.15-.04,1.86-.14,3.76.12,5.59.5,3.51,2.04,6.47,5.67,7.63,3.7,1.19,7.2.64,9.94-2.27.63-.67.54-2.01.79-3.04-.88.33-1.96.45-2.61,1.04-2.29,2.07-4.82,2.6-7.56,1.29-2.7-1.29-3.29-3.7-3.03-6.86h14.55c0-1.59.1-2.81-.02-4.01-.54-5.78-3.93-8.76-9.63-8.53Zm-4.82,9.65c.23-5.06,1.72-6.82,5.59-6.76,3.73.06,5.19,1.8,5.42,6.76h-11.01Z"/>
      <path class="cls-1" d="m420.28,254.59c-.41-2.75-.47-4.87-1.07-6.84-1.33-4.41-4.49-6.2-9.57-5.74-3.83.35-7.01,3.18-7.45,7.16-.3,2.7-.31,5.51.11,8.18.55,3.49,2.38,6.23,6.15,7.17,3.69.92,6.94.21,9.52-2.61.57-.62.48-1.84.7-2.79-.89.28-2.01.32-2.62.89-2.26,2.1-4.77,2.68-7.54,1.42-2.75-1.25-3.36-3.68-3.18-6.85h14.95Zm-9.41-9.71c3.92-.02,5.54,1.93,5.48,6.76h-10.73c-.17-4.78,1.38-6.74,5.25-6.76Z"/>
      <path class="cls-1" d="m565.43,181.29c-4.99.18-8.18,3.64-8.29,9.09-.04,1.99-.15,4.02.17,5.96.58,3.49,2.22,6.34,5.93,7.4,3.63,1.04,6.96.45,9.6-2.31.65-.67.6-2.01.87-3.04-.89.31-1.98.38-2.62.96-2.28,2.09-4.79,2.64-7.55,1.36-2.73-1.27-3.34-3.69-3.1-6.85h14.55c0-1.7.13-3.05-.02-4.36-.66-5.6-3.98-8.42-9.55-8.22Zm-4.83,9.66c.11-4.86,1.49-6.65,5.11-6.77,3.95-.13,5.57,1.63,5.87,6.77h-10.98Z"/>
      <path class="cls-1" d="m634.89,181.33c-6.07-.66-10.07,2.5-10.4,8.37-.13,2.35-.13,4.75.17,7.08.55,4.19,3.49,6.85,7.72,7.39,4.12.52,7.39-1.38,9.53-6.35-1.63.61-2.72.72-3.33,1.31-2.2,2.13-4.62,2.86-7.49,1.71-2.86-1.15-3.61-3.51-3.48-6.92,4.24,0,8.21.11,12.17-.08.9-.04,2.37-.99,2.52-1.74,1.03-4.97-2.73-10.26-7.41-10.76Zm-7.18,9.59c.25-4.94,1.91-6.82,5.75-6.73,3.73.09,5.33,2.08,5.24,6.73h-10.99Z"/>
      <path class="cls-1" d="m719.59,186.73c-1.33-3.66-4.15-5.41-8.07-5.44-4.18-.03-7.87,1.69-8.48,5.27-.68,4.03-.62,8.39.21,12.37.39,1.89,3.09,3.98,5.18,4.7,7.03,2.42,12-2.34,12.25-11.08-.34-1.95-.43-3.99-1.09-5.82Zm-8.24,14.61c-4.06.08-5.95-2.63-5.96-8.51,0-6.32,1.72-8.77,6.09-8.64,4.07.13,5.76,2.73,5.67,8.75-.08,5.54-2.01,8.33-5.8,8.4Z"/>
      <path class="cls-1" d="m364.15,241.97c-3.85-.17-7.01,1.11-8.58,4.69-2,4.53-2.03,9.34.27,13.71.92,1.76,3.09,3.36,5.03,3.99,6.96,2.25,11.89-2.37,12.19-10.85-.36-2.07-.43-4.24-1.14-6.18-1.27-3.49-4-5.19-7.76-5.36Zm5.34,12.08c-.19,5.32-2.11,7.94-5.83,7.98-4.04.04-5.91-2.65-5.91-8.56,0-6.36,1.97-8.96,6.51-8.57,3.86.33,5.45,3.11,5.24,9.15Z"/>
      <path class="cls-1" d="m173.15,181.34c-.12-.02-.25-.02-.37-.03-6.93-.65-10.5,3.12-10.52,11.47-.23,4.24.54,8.5,5.27,10.6,3.55,1.57,7.25,1.29,10.07-1.56,4.1-4.13,3.5-9.4,2.4-14.43-.74-3.41-3.31-5.46-6.85-6.06Zm3.12,16.92c-1.3,1.47-3.7,2.95-5.45,2.77-1.73-.18-3.99-2.13-4.68-3.84-.87-2.16-.67-4.89-.44-7.33.39-4.09,2.36-5.78,5.94-5.67,3.37.1,5.36,2.27,5.61,6.13.05.87,0,1.74,0,2.61.11.02.21.04.32.07-.39,1.8-.24,4.07-1.31,5.27Z"/>
      <path class="cls-1" d="m451.18,181.35c-.12-.02-.25-.02-.37-.03-6.92-.69-10.56,3.1-10.58,11.42-.23,4.22.49,8.49,5.22,10.62,3.55,1.6,7.24,1.32,10.08-1.49,4.15-4.11,3.53-9.38,2.46-14.41-.73-3.42-3.28-5.47-6.81-6.11Zm2.61,17.61c-1.19,1.32-3.75,2.33-5.43,2.02-1.66-.31-3.69-2.2-4.28-3.85-.79-2.22-.63-4.91-.39-7.35.4-4.05,2.42-5.73,6.01-5.58,3.34.14,5.3,2.32,5.52,6.22.05.87,0,1.74,0,2.61.15.04.3.08.45.13-.58,1.98-.64,4.43-1.89,5.81Z"/>
      <path class="cls-1" d="m386.11,242.14c-1.63.4-3.25,2.56-4.92.05-.75.57-2.14,1.13-2.15,1.72-.15,6.71-.1,13.42-.1,20.08,3.33.38,3.4.38,3.45-2.17.07-3.62,0-7.23.03-10.85.04-4.14,1.53-5.96,4.9-6.07,3.51-.11,5.29,1.78,5.43,6.06.12,3.74-.06,7.49.12,11.22.04.77,1.04,1.5,1.6,2.24.51-.78,1.44-1.55,1.46-2.35.15-4.11.14-8.23.05-12.35-.12-5.67-4.42-8.92-9.87-7.59Z"/>
      <path class="cls-1" d="m60.21,181.38c-5.1-.93-10.05,1.61-10.82,6.21-1.37,8.13-.43,13.59,5.14,15.99.23.1.48.11.72.18,7.02,2.01,11.9-2.4,11.99-10.82.07-6.87-2.26-10.7-7.02-11.57Zm3.85,12.5c-.23,4.7-2.19,7.27-5.68,7.46-4.13.22-6.28-2.77-6.27-8.71.01-6.28,2.45-9.14,7.16-8.38,3.55.57,5.09,3.66,4.79,9.63Z"/>
      <path class="cls-1" d="m191.15,182.78c-1.73-.65-2.73-1.03-4.03-1.52v22.19c.33.21.66.41.99.62.64-.84,1.77-1.66,1.82-2.53.21-3.6.06-7.22.1-10.84.05-4.47,1.78-6.53,5.39-6.49,3.46.04,5.05,1.98,5.08,6.33.03,4.33,0,8.66,0,13,.45.21.9.42,1.35.62.67-.97,1.85-1.9,1.92-2.91.24-3.47.13-6.97.09-10.46-.11-8.76-5.76-11.96-12.73-8Z"/>
      <path class="cls-1" d="m333.98,252.77c-2.19-.86-4.52-1.4-6.64-2.4-.81-.38-1.67-1.68-1.63-2.52.03-.88.94-2.03,1.78-2.51,2.47-1.42,6.12-.29,7.89,1.99.57.74,1.63,1.09,2.86,1.86-.18-5.57-4.8-8.35-10.37-6.95-2.78.7-5.1,2.04-5.43,5.36-.34,3.38,1.74,5.01,4.42,6.12,2.18.9,4.53,1.39,6.65,2.41,2.55,1.22,2.58,3.71.26,5.22-2.53,1.65-6.33.86-8.07-1.45-.65-.87-1.84-1.33-2.79-1.98.13,1.31-.21,2.97.47,3.86,2.3,3.03,5.72,3.13,9.18,2.74,3.33-.38,5.7-2.05,6.18-5.47.48-3.47-1.92-5.17-4.75-6.29Z"/>
      <path class="cls-1" d="m438.5,253.74c-1.36-1.23-3.67-1.36-5.48-2.15-2.02-.88-5.42-1.01-4.46-4.31.95-3.26,4.19-2.61,6.72-2.19,1.03.17,1.85,1.44,2.81,2.14.87.63,1.8,1.17,3.34,2.16-1.01-6.74-7.91-9.36-13.27-6.16-4.01,2.39-4.1,7.38-.01,9.66,2.03,1.14,4.53,1.45,6.55,2.6,1.39.79,2.31,2.39,3.44,3.63-1.51,1.03-3.03,2.88-4.53,2.87-1.77-.02-3.56-1.6-5.27-2.63-.83-.5-1.5-1.27-2.24-1.92-.67,4.95,1.64,6.97,6.57,7.23,4.91.26,8.86-1.92,8.78-5.49-.04-1.88-1.47-4.12-2.94-5.45Z"/>
      <path class="cls-1" d="m517.17,193.34c-1.87-1.14-4.15-1.59-6.19-2.48-1.93-.84-4.97-.99-4.29-4.13.67-3.11,3.56-2.78,5.84-2.43,1.29.2,2.44,1.38,3.62,2.16.91.6,1.77,1.25,2.66,1.88-.47-5.73-4.78-8.1-10.03-6.8-2.82.7-5.13,2.16-5.51,5.36-.4,3.34,1.84,4.99,4.49,6.11,2.17.92,4.54,1.39,6.65,2.4,2.45,1.17,2.63,3.49.64,5.05-2.39,1.88-6.73,1.31-8.31-1.28-.8-1.32-1.39-3.07-3.07-1.63-.5.43.07,2.88.84,3.85,2.71,3.43,10.64,3.47,13.63.29,2.41-2.56,2.09-6.51-.98-8.37Z"/>
      <path class="cls-1" d="m39.64,192.23c-2.2-.84-4.55-1.35-6.65-2.39-.9-.44-1.89-1.86-1.82-2.77.07-.94,1.23-2.37,2.13-2.57,2.79-.61,5.7-.99,7.55,2.25.41.73,1.66.98,2.91,1.66-.51-5.83-5.69-8.45-11.36-6.62-2.77.89-5.03,2.71-4.6,5.53.3,1.95,2.16,4,3.87,5.29,1.6,1.21,4.05,1.24,5.85,2.26,1.33.75,2.22,2.28,3.3,3.46-1.39,1.06-2.81,3-4.17,2.96-1.91-.05-3.8-1.56-5.67-2.48-.95-.47-1.84-1.04-2.76-1.57,0,1.1-.43,2.47.06,3.25,2.37,3.72,6.15,3.81,9.97,3.28,2.93-.41,5.16-1.82,5.69-5.03.57-3.49-1.36-5.38-4.31-6.51Z"/>
      <path class="cls-1" d="m285.69,201.11c-.08-3.49-.02-6.98-.02-10.47,0-4.8,0-9.61,0-14.67,2.78,0,5.02.13,7.22-.08.67-.06,1.25-1.06,1.87-1.62-.64-.4-1.28-1.14-1.93-1.15-5.73-.09-11.46-.1-17.19,0-.74.01-1.47.84-2.2,1.29.8.52,1.56,1.4,2.41,1.5,1.94.23,3.93.07,6.44.07v27.31c2.56,1.03,3.45.2,3.4-2.18Z"/>
      <path class="cls-1" d="m136.53,201c-2.64.05-4.11-2.13-4.29-4.79-.15-2.11-.11-4.23-.07-6.34.05-2.77,1.2-4.93,4.05-5.53,2.73-.57,5.13.02,6.78,2.68.58.93,1.84,1.44,2.79,2.14-.13-5.06-2.7-7.45-6.57-7.83-4.63-.45-8.9,1.41-9.61,5.24-.73,3.92-.7,8.16-.02,12.09.64,3.7,4.77,5.83,8.73,5.58,4.5-.29,7.22-2.56,7.72-7.23-1.25.35-2.2,1.21-3.32,1.72-2.02.92-4.11,2.24-6.2,2.28Z"/>
      <path class="cls-1" d="m87.1,198.44c-1.99.99-3.99,2.49-6.07,2.64-2.62.19-4.32-1.93-4.59-4.53-.26-2.57-.59-5.35.13-7.73.54-1.78,2.46-3.72,4.22-4.42,2.41-.95,4.78.15,6.4,2.56.64.95,1.95,1.44,2.96,2.13-.53-5.76-3.52-7.99-8.79-7.8-4.51.16-7.78,3.05-8.22,7.57-.24,2.46-.24,4.98-.02,7.45.41,4.5,3.51,7.42,8.04,7.89,4.56.47,8.1-1.96,9.47-6.49-.22-.37-.45-.74-.67-1.11-.96.62-1.86,1.34-2.88,1.84Z"/>
      <path class="cls-1" d="m600.25,173.13c-.61.01-1.21.82-1.81,1.26.66.53,1.29,1.44,2,1.51,2.09.2,4.22.07,6.9.07,0,8.78-.04,17.11.07,25.44.01.78.97,1.54,1.49,2.32.54-.76,1.52-1.52,1.54-2.29.13-6.23.08-12.47.08-18.71,0-2.18,0-4.36,0-6.75,2.86,0,5.11.13,7.33-.08.69-.06,1.3-1.03,1.94-1.59-.64-.41-1.28-1.18-1.93-1.19-5.86-.09-11.72-.09-17.58,0Z"/>
      <path class="cls-1" d="m678.53,184.21c.77-.21,1.43-.84,2.15-1.28-.68-.5-1.3-1.21-2.07-1.44-.99-.3-2.1-.22-2.06-.22-1.27-2.31-2.1-3.82-2.93-5.33-.83,1.51-1.66,3.03-2.49,4.54.16.05.32.1.47.16-.93.77-1.85,1.54-2.78,2.31.96.72,1.92,1.43,3.12,2.32,0,4.06-.12,8.41.03,12.76.14,4.01,1.92,5.73,5.8,5.66.96-.02,1.91-.84,2.87-1.29-.8-.52-1.7-.95-2.38-1.59-1.04-.98-2.67-2.05-2.76-3.19-.33-4.3-.13-8.64-.13-13.35,1.44,0,2.36.17,3.17-.05Z"/>
      <path class="cls-1" d="m380.66,210.12c-.56.09-.92,1.32-1.69,2.49,6.62.17,8.73-1.69,8.77-6.99.06-6.98.08-13.97-.05-20.95-.02-1.08-.93-2.14-1.43-3.2-.56,1.14-1.56,2.26-1.59,3.41-.16,6.23-.07,12.47-.08,18.7,0,2.95.03,5.87-3.94,6.53Z"/>
      <path class="cls-1" d="m696.56,181.46c-1.99.27-3.93.95-5.76,1.44-1.08-.51-1.99-1.08-2.97-1.29-.21-.04-1,1.28-1.01,1.98-.08,6.09-.09,12.18.03,18.27.01.63,1.02,1.25,1.57,1.87.55-.64,1.53-1.25,1.56-1.92.18-3.1.07-6.21.1-9.32.05-5.83.72-6.53,6.55-7.65.72-.14,1.27-1.15,1.9-1.76-.66-.58-1.4-1.71-1.97-1.63Z"/>
      <path class="cls-1" d="m467.92,182.84c-.2-.16-1.15-.95-2.1-1.73-.3.22-.61.44-.91.66,0,6.71-.07,13.41.1,20.11.02.72,1.42,1.4,2.18,2.1.81-4.16.81-7.51.81-10.87.01-6.66,1.19-7.91,8.32-8.43-.16-1.01-.39-2.85-.47-2.84-2.53.2-5.05.59-7.93.99Z"/>
      <path class="cls-1" d="m303.58,183.21c-.68-.54-1.65-1.31-2.62-2.08-.88,7.38-.94,14.09-.79,20.79.02.74,1.25,1.46,1.92,2.19l1.08-.96c0-3.73-.03-7.46,0-11.19.06-5.12,1.29-6.35,6.45-7.13.76-.11,1.36-1.25,2.03-1.91-.7-.53-1.51-1.59-2.09-1.48-2.1.39-4.13,1.18-5.99,1.76Z"/>
      <path class="cls-1" d="m582.83,173.1c-.57.86-1.59,1.69-1.63,2.57-.17,4.22-.08,8.45-.08,12.67,0,4.35-.08,8.7.07,13.04.03.8.96,1.57,1.47,2.35.58-.73,1.67-1.45,1.68-2.19.12-8.7.12-17.39,0-26.09-.01-.79-.99-1.57-1.53-2.36Z"/>
      <path class="cls-1" d="m346.53,242.17c-.62.72-1.75,1.43-1.77,2.16-.15,5.96-.17,11.94,0,17.9.03.89,1.29,1.75,1.97,2.62.43-.29.85-.57,1.28-.86,0-6.57.05-13.15-.07-19.72-.01-.71-.93-1.4-1.43-2.11Z"/>
      <path class="cls-1" d="m98.24,181.47c-.53.82-1.49,1.62-1.51,2.45-.13,5.84-.16,11.69.03,17.53.03.91,1.36,1.77,2.1,2.66.39-.24.77-.48,1.16-.72,0-6.57.06-13.14-.08-19.71-.02-.75-1.11-1.47-1.7-2.21Z"/>
      <path class="cls-1" d="m154.2,181.48c-.55.77-1.52,1.52-1.58,2.33-.19,2.86-.08,5.74-.08,8.61,0,3.12-.09,6.25.07,9.36.04.68.97,1.3,1.49,1.96.56-.63,1.59-1.24,1.6-1.88.12-6.12.13-12.24,0-18.35-.01-.68-.99-1.35-1.52-2.02Z"/>
      <path class="cls-1" d="m314.45,242.17c-.52.68-1.49,1.35-1.5,2.03-.11,6.59-.07,13.19-.07,19.78.32.25.65.5.97.74.76-.76,2.15-1.49,2.17-2.27.18-6.11.15-12.23.02-18.35-.01-.66-1.04-1.29-1.6-1.94Z"/>
      <path class="cls-1" d="m98.01,173.27c-.61-.06-1.95,1.41-1.89,2.1.08.9,1.23,1.7,2.44,3.18,1.01-1.61,2.19-2.7,2-3.41-.23-.84-1.6-1.79-2.55-1.88Z"/>
      <path class="cls-1" d="m343.98,236.15c.74.69,1.46,1.91,2.23,1.94.92.03,1.88-.95,3.63-1.95-1.69-1.14-2.67-2.3-3.49-2.2-.87.11-1.58,1.42-2.37,2.21Z"/>
      <path class="cls-1" d="m386.36,172.08c-1.15,1.58-2.22,2.42-2.28,3.35-.05.68,1.29,2.12,1.86,2.05.93-.13,2.28-1.1,2.43-1.91.15-.79-.98-1.82-2.01-3.48Z"/>
      <path class="cls-1" d="m151.82,175.47c.72.69,1.42,1.9,2.16,1.93.9.04,1.84-.93,3.59-1.95-1.69-1.14-2.66-2.29-3.45-2.19-.85.12-1.54,1.42-2.3,2.21Z"/>
      <path class="cls-1" d="m175.31,172.51c-4.37-.39-4.17,3.12-6.24,5.72,4.54-.15,4.7-3.22,6.24-5.72Z"/>
      <path class="cls-1" d="m314.69,233.95c-.93.16-2.21,1.17-2.38,2.01-.15.73,1.04,1.73,2.15,3.35,1.1-1.61,2.16-2.48,2.16-3.36,0-.72-1.37-2.1-1.93-2Z"/>
    </g>
  </g>
</svg>