<?xml version="1.0" encoding="UTF-8"?><svg xmlns="http://www.w3.org/2000/svg" viewBox="0 0 38.9 59.69"><defs><style>.d{fill:#fff;}</style></defs><g id="a"/><g id="b"><g id="c"><g><path class="d" d="M19.88,39.77c3.18,0,6.34-.77,9.15-2.22,2.71-1.41,5.1-3.46,6.91-5.93l.22-.29-1.09-.8c2.17-3.03,3.45-6.73,3.45-10.74,0-5.94-2.81-11.22-7.17-14.6l.75-1-.29-.22c-3.46-2.6-7.58-3.97-11.92-3.97C8.92,0,0,8.92,0,19.88s8.92,19.88,19.88,19.88Zm.43-15.69s-.09-.02-.13-.02c-.5,0-.99,0-1.49,0-.22,0-.45-.07-.67-.09-.22-.03-.44-.08-.65-.14-.67-.19-1.31-.44-1.91-.79-.36-.21-.7-.46-1.02-.71-.23-.19-.44-.41-.65-.63-.37-.39-.69-.82-.97-1.28-.22-.37-.41-.76-.59-1.14-.17-.35-.28-.72-.38-1.09-.12-.47-.21-.95-.27-1.43-.06-.49-.03-.98-.04-1.46,0-.27,.06-.53,.09-.8,.03-.27,.1-.53,.14-.8,.04-.24,.12-.47,.19-.7,.19-.65,.49-1.26,.82-1.85,.45-.8,1.04-1.49,1.73-2.1,.42-.37,.88-.67,1.36-.96,.54-.31,1.11-.53,1.7-.73,.32-.11,.67-.15,1-.22,.67-.14,1.35-.1,2.03-.1,.27,0,.54,.06,.82,.1,.32,.04,.63,.12,.94,.19,.44,.11,.87,.26,1.3,.42,.39,.15,.75,.33,1.11,.53,.83,.46,1.53,1.09,2.16,1.79,.3,.33,.53,.72,.77,1.11,.32,.53,.54,1.11,.73,1.7,.1,.3,.15,.61,.23,.91,.13,.54,.11,1.1,.11,1.65,0,.22,0,.44,0,.66,0,.44-.08,.86-.16,1.29-.08,.41-.17,.82-.32,1.22-.22,.6-.47,1.19-.79,1.75-.33,.58-.67,1.14-1.04,1.69-.19,.29-.4,.57-.6,.85-.34,.49-.7,.96-1.06,1.43-.24,.31-.48,.62-.72,.93-.28,.37-.57,.74-.85,1.11-.24,.31-.48,.62-.72,.93-.37,.49-.75,.98-1.12,1.46-.37,.47-.74,.94-1.11,1.42-.23,.3-.45,.6-.69,.9-.24,.31-.48,.62-.73,.92-.14,.16-.23,.16-.43,.07-.5-.22-1-.44-1.49-.66-.45-.2-.89-.38-1.34-.58-.28-.13-.34-.37-.15-.61,.31-.39,.62-.76,.93-1.15,.28-.35,.54-.71,.83-1.05,.21-.24,.4-.49,.61-.74,.21-.25,.39-.52,.6-.76,.2-.23,.39-.48,.59-.72,.21-.27,.42-.53,.63-.79,.21-.26,.42-.51,.63-.76,.03-.04,.09-.08,.07-.13Zm-.43-23.35c4.06,0,7.92,1.25,11.19,3.61l-.31,.42-1.87,2.5c-2.64-1.88-5.74-2.88-9-2.88-8.55,0-15.51,6.96-15.51,15.51s6.96,15.51,15.51,15.51c4.81,0,9.38-2.26,12.31-6.07l2.44,1.78,.51,.37c-1.71,2.25-3.93,4.12-6.44,5.42-2.7,1.4-5.75,2.14-8.81,2.14C9.32,39.04,.73,30.45,.73,19.88S9.32,.73,19.88,.73Z"/><path class="d" d="M22.31,20.13c.54-.26,.98-.67,1.38-1.12,.1-.12,.2-.24,.28-.37,.19-.32,.36-.64,.5-.99,.2-.52,.34-1.05,.36-1.62,0-.21,0-.43,0-.64,0-.13,0-.26,0-.39,.01-.33-.02-.64-.1-.96-.06-.23-.14-.45-.23-.67-.17-.44-.39-.84-.7-1.19-.44-.49-.93-.91-1.54-1.18-.63-.28-1.28-.46-1.97-.46-.22,0-.44,0-.66,0-.04,0-.09,0-.13,0-.33,.09-.67,.14-.99,.26-.52,.2-1.01,.45-1.4,.85-.13,.13-.26,.26-.39,.39-.25,.24-.42,.53-.58,.82-.22,.4-.38,.83-.49,1.28-.11,.44-.21,.88-.19,1.34,.01,.27,0,.54,0,.82,0,.04,0,.08,0,.12,.12,.46,.19,.93,.38,1.38,.21,.51,.5,.97,.87,1.38,.24,.26,.52,.48,.81,.68,.49,.33,1.03,.52,1.6,.66,.14,.03,.28,.07,.43,.07,.5-.02,.99,.03,1.49-.05,.45-.07,.87-.23,1.27-.42Z"/><path class="d" d="M6.81,48.64c0-1.44,0-2.88,0-4.33,0-.12-.03-.15-.15-.15-.27,0-.54,.01-.82,0-.13,0-.16,.04-.16,.17,0,1.3,0,2.6,0,3.9v1.12h-.03s-.06-.07-.08-.11c-1.05-1.65-2.1-3.29-3.14-4.94-.07-.1-.13-.14-.26-.14-.24,.01-.48,0-.71,0-.13,0-.18,.03-.18,.18,0,1.86,0,3.73,0,5.59,0,.48,0,.95,0,1.43,0,.13,.04,.16,.16,.16,.26,0,.52-.01,.79,0,.14,0,.17-.04,.17-.17,0-1.63,0-3.25,0-4.88,0-.05-.02-.1,.02-.15,.05,.03,.07,.08,.1,.13,1.05,1.64,2.1,3.29,3.14,4.94,.06,.1,.12,.14,.24,.14,.25-.01,.5,0,.76,0,.11,0,.15-.03,.15-.15,0-.91,0-1.83,0-2.74Z"/><path class="d" d="M22.98,51.52c.33,0,.67,0,1,0q.19,0,.1-.16c-.52-.99-1.04-1.99-1.56-2.98-.04-.08-.06-.12,.05-.17,.88-.38,1.35-1.14,1.31-2.1-.04-1.05-.95-1.93-2-1.93-.99,0-1.97,0-2.96,0-.11,0-.14,.03-.14,.14,0,1.17,0,2.35,0,3.52s0,2.35,0,3.52c0,.11,.01,.16,.14,.15,.27-.01,.53-.01,.8,0,.14,0,.18-.03,.18-.17,0-.94,0-1.87,0-2.81,0-.12,.02-.17,.16-.16,.37,.01,.75,0,1.12,0,.12,0,.17,.04,.22,.14,.46,.96,.93,1.92,1.39,2.88,.04,.09,.09,.13,.2,.13Zm-1.27-4.14c-.57,.02-1.13,0-1.7,0-.09,0-.1-.04-.1-.11,0-.33,0-.67,0-1,0-.32,0-.65,0-.97,0-.1,.02-.14,.13-.14,.56,0,1.12,0,1.67,0,.14,0,.28,.01,.42,.05,.61,.18,.89,.85,.62,1.49-.19,.45-.57,.66-1.04,.67Z"/><path class="d" d="M15.39,49.24c.03-.47,.02-.93,.02-1.4,0-.37,.01-.74,0-1.11-.01-.4-.04-.79-.22-1.16-.57-1.15-1.85-1.71-3.1-1.38-.9,.24-1.82,1.09-1.87,2.25-.03,.86-.04,1.73-.01,2.59,.01,.37,.05,.74,.23,1.09,.66,1.3,2.24,1.84,3.55,1.18,.84-.42,1.35-1.1,1.41-2.07Zm-1.15,.05c-.13,.69-.72,1.17-1.43,1.18-.7,0-1.32-.46-1.42-1.15-.15-.99-.15-1.99,0-2.97,.11-.7,.76-1.15,1.51-1.11,.68,.03,1.25,.55,1.35,1.23,.07,.46,.06,.92,.06,1.38,0,.48,.02,.97-.07,1.45Z"/><path class="d" d="M38.9,50.62c0-.13-.04-.16-.16-.16-1.09,0-2.18,0-3.26,0-.12,0-.17-.02-.16-.16,0-.61,0-1.21,0-1.82,0-.15,.04-.18,.18-.18,.91,0,1.82,0,2.72,0,.12,0,.16-.02,.16-.15-.01-.23-.01-.46,0-.68,0-.13-.03-.16-.16-.16-.9,0-1.81,0-2.71,0-.22,0-.19,.02-.19-.18,0-.58,0-1.16,0-1.73,0-.15,.04-.18,.18-.18,1.08,0,2.16,0,3.23,0,.12,0,.18-.02,.17-.16-.01-.25-.01-.5,0-.74,0-.12-.03-.16-.15-.16-.58,0-1.16,0-1.73,0-.87,0-1.75,0-2.62,0-.14,0-.2,.03-.2,.19,0,1.16,0,2.32,0,3.48,0,.95,0,1.89,0,2.84,0,.24,0,.49,0,.73,0,.09,.03,.12,.12,.11,.16,0,.32,0,.48,0,1.31,0,2.62,0,3.93,0,.12,0,.17-.02,.17-.16-.01-.25-.01-.5,0-.74Z"/><path class="d" d="M5,54.19s0-.1,0-.15c0-.1-.03-.14-.13-.13-.18,0-.37,0-.55,0-.1,0-.13,.03-.16,.12-.13,.38-.26,.75-.39,1.13-.21,.59-.41,1.18-.62,1.77-.05-.05-.06-.11-.08-.16-.32-.91-.64-1.82-.96-2.73-.03-.09-.07-.13-.17-.13-.17,.01-.34,.01-.51,0-.13,0-.17,.03-.17,.17,0,1.79,0,3.58,0,5.38,0,.01,0,.03,0,.04-.02,.11,.03,.14,.14,.14,.18,0,.37,0,.55,0,.12,0,.14-.04,.14-.15,0-1.03,0-2.07,0-3.1v-.16h.03s.03,.07,.04,.11c.22,.68,.44,1.35,.67,2.03,.1,.3,.02,.23,.34,.25,.12,0,.17-.03,.2-.14,.23-.72,.48-1.44,.72-2.17,.01-.04,.02-.08,.06-.12v.17c0,1.04,0,2.08,0,3.12,0,.13,.04,.16,.16,.16,.17-.01,.34-.01,.51,0,.13,0,.17-.04,.17-.17,0-1.76,0-3.52,0-5.27Z"/><path class="d" d="M31.35,44.36q0-.19-.19-.19c-1.56,0-3.12,0-4.67,0-.06,0-.12,0-.17,0-.09,0-.12,.04-.11,.12,0,.23,0,.47,0,.7,0,.13,.03,.17,.17,.17,.56,0,1.13,0,1.69,0,.13,0,.16,.03,.16,.16,0,1.11,0,2.22,0,3.33,0,.91,0,1.82,0,2.72,0,.11,.03,.15,.15,.15,.27,0,.53-.01,.8,0,.14,0,.18-.03,.18-.17,0-1,0-2,0-3s0-2.02,0-3.03c0-.12,.02-.17,.16-.16,.56,0,1.13,0,1.69,0,.13,0,.18-.02,.17-.16-.01-.21,0-.43,0-.64Z"/><path class="d" d="M25.09,57.9c0-1.27,0-2.54,0-3.82,0-.15-.04-.18-.18-.17-.17,.01-.34,.01-.51,0-.12,0-.14,.04-.14,.15,0,1.03,0,2.07,0,3.1v.17c-.06-.05-.07-.1-.08-.15-.38-1.04-.76-2.09-1.13-3.13-.04-.11-.09-.15-.21-.14-.16,.01-.32,.01-.48,0-.14-.01-.16,.04-.16,.17,0,1.73,0,3.46,0,5.19,0,.09,0,.18,0,.28,0,.07,.03,.09,.09,.09,.19,0,.39,0,.58,0,.12,0,.15-.03,.15-.15,0-1.02,0-2.05,0-3.07v-.15h.04s.03,.08,.05,.12c.39,1.05,.77,2.09,1.16,3.14,.03,.09,.07,.13,.17,.13,.17,0,.35,0,.52,0,.1,0,.13-.03,.13-.13,0-.53,0-1.07,0-1.6Z"/><path class="d" d="M33.52,57.16c-.03-.09-.04-.15,.06-.21,.28-.17,.45-.42,.53-.74,.11-.41,.1-.82,.01-1.23-.14-.65-.49-.98-1.15-1.06-.47-.06-.95,0-1.43-.02-.13,0-.16,.03-.16,.16,0,.9,0,1.8,0,2.69,0,.4,0,.81,0,1.21,0,.5,0,1.01,0,1.51,0,.11,.03,.15,.15,.15,.18-.01,.36,0,.54,0,.12,0,.15-.03,.14-.15,0-.65,0-1.3,0-1.95,0-.35,0-.34,.35-.35,.11,0,.16,.04,.19,.14,.22,.73,.46,1.45,.68,2.18,.03,.08,.06,.13,.16,.12,.2,0,.41,0,.61,0,.12,0,.14-.03,.1-.15-.27-.77-.53-1.55-.8-2.32Zm-.19-1.17c-.05,.29-.19,.42-.48,.46-.18,.03-.36,0-.54,.02-.09,0-.09-.05-.09-.11,0-.26,0-.51,0-.77s0-.52,0-.79c0-.09,.03-.12,.12-.12,.16,0,.32,0,.48,.01,.29,.02,.46,.18,.51,.47,.05,.27,.05,.55,0,.83Z"/><path class="d" d="M38.84,55.01c-.1-.68-.68-1.16-1.39-1.14-.74,.02-1.3,.52-1.36,1.22-.04,.56,0,1.13-.02,1.7,.02,.56-.03,1.14,.02,1.71,.03,.37,.2,.68,.5,.9,.47,.34,.99,.39,1.51,.14,.52-.25,.75-.69,.75-1.25,0-1.01,0-2.01,0-3.02,0-.09-.01-.17-.02-.26Zm-.81,3.29c0,.41-.32,.64-.72,.54-.24-.06-.39-.25-.39-.53,0-.5,0-.99,0-1.49,0-.52,0-1.05,0-1.57,0-.37,.25-.58,.61-.56,.3,.02,.49,.21,.5,.52,0,.52,0,1.05,0,1.57h0c0,.5,0,1.01,0,1.51Z"/><path class="d" d="M19.85,54.28c-.45-.43-.97-.52-1.55-.31-.53,.19-.84,.65-.85,1.24,0,.52,0,1.05,0,1.57h0c0,.54-.01,1.08,0,1.62,.02,.74,.62,1.28,1.38,1.28,.76,0,1.37-.55,1.38-1.29,.01-1.08,0-2.16,0-3.23,0-.34-.12-.64-.37-.88Zm-1.18,4.56c-.25-.07-.39-.26-.39-.58,0-.5,0-1,0-1.5,0-.5,0-.99,0-1.49,0-.41,.27-.64,.68-.58,.22,.03,.38,.19,.43,.4,.01,.07,.02,.13,.02,.2,0,.98,0,1.96,0,2.94,0,.46-.31,.71-.73,.59Z"/><path class="d" d="M11.96,55.57c.12,0,.23,0,.35,0q.36,0,.36-.36c0-.64-.45-1.18-1.09-1.31-.68-.14-1.3,.17-1.57,.77-.11,.25-.15,.52-.15,.8,0,.83,.25,1.18,1.02,1.49,.19,.08,.37,.16,.57,.23,.26,.1,.38,.29,.38,.56,0,.18,0,.36,0,.54-.02,.46-.29,.66-.74,.57-.24-.05-.39-.21-.43-.46-.02-.12,.06-.29-.05-.35-.09-.06-.24-.01-.37-.01h0c-.11,0-.22,0-.33,0-.06,0-.08,.01-.09,.08-.08,.81,.41,1.47,1.22,1.57,.77,.09,1.42-.2,1.58-1.12,.06-.32,.05-.64,.03-.96-.04-.57-.3-.96-.85-1.15-.26-.09-.51-.2-.77-.31-.19-.08-.31-.23-.33-.44-.02-.19-.02-.39,.02-.58,.05-.2,.16-.36,.37-.41,.39-.09,.69,.13,.73,.52,0,.07,.01,.14,0,.2,0,.1,.02,.14,.13,.13Z"/><path class="d" d="M28.08,54.69c.45,0,.89,0,1.34,0,.12,0,.17-.02,.16-.15-.01-.16-.01-.33,0-.49,0-.11-.04-.14-.14-.13-.72,0-1.45,0-2.17,0-.14,0-.16,.04-.16,.16,0,.9,0,1.8,0,2.69,0,.55,0,1.11,0,1.66,0,.36,0,.73,0,1.09,0,.08,.02,.11,.11,.11,.75,0,1.5,0,2.24,0,.1,0,.12-.04,.12-.13,0-.18,0-.37,0-.55,0-.11-.03-.14-.14-.14-.46,0-.91,0-1.37,0-.11,0-.14-.03-.14-.14,0-.47,0-.93,0-1.4,0-.12,.04-.14,.15-.14,.38,0,.76,0,1.14,0,.11,0,.16-.02,.15-.14-.01-.17,0-.34,0-.51,0-.1-.03-.13-.13-.13-.39,0-.79,0-1.18,0-.09,0-.12-.02-.12-.12,0-.47,0-.94,0-1.41,0-.12,.03-.15,.15-.15Z"/><path class="d" d="M7.9,54.24c0-.08,0-.16,0-.23,0-.08-.03-.1-.1-.1-.19,0-.38,.01-.57,0-.14-.01-.16,.04-.16,.16,0,.89,0,1.79,0,2.68h0c0,.91,0,1.83,0,2.74,0,.12,.03,.15,.15,.14,.17,0,.34-.01,.51,0,.14,0,.18-.04,.18-.18,0-1.74,0-3.48,0-5.21Z"/><path class="d" d="M15.41,56.77h0c0-.91,0-1.82,0-2.72,0-.11-.02-.14-.14-.14-.17,.01-.35,.01-.52,0-.15-.01-.17,.04-.17,.18,0,1.75,0,3.5,0,5.24,0,.07,0,.14,0,.2,0,.08,.03,.1,.1,.1,.19,0,.39-.01,.58,0,.12,0,.14-.04,.14-.15,0-.9,0-1.81,0-2.71Z"/></g></g></g></svg>