<?xml version="1.0" encoding="UTF-8"?><svg xmlns="http://www.w3.org/2000/svg" viewBox="0 0 66.99 42.88"><defs><style>.d{fill:#fff;}</style></defs><g id="a"/><g id="b"><g id="c"><g><path class="d" d="M33.49,31.88c18.43,0,33.37-7.14,33.37-15.94S51.92,0,33.49,0,.13,7.14,.13,15.94s14.94,15.94,33.37,15.94Zm14.23-15.83l-1.25,4.31c-.02,.08-.09,.13-.17,.13h-4.95c-.06,0-.68-.14-1.07-.74-.31-.48-.38-1.11-.21-1.88,.4-1.78,1.31-5.09,1.56-5.98h-.36l-12.36,8.85v.27h7.73s.61,0,1,.47c.31,.37,.4,.9,.28,1.59-.32,1.83-1.06,4.7-1.07,4.73-.02,.08-.09,.13-.17,.13h-3.84c-.05,0-.1-.02-.13-.06s-.05-.09-.04-.14l.21-1.98-7.02-.18s-.02,0-.04,0c-.52-.12-1.46-.63-1.34-1.63,.14-1.1,.83-5.05,.83-5.09,0-.01,0-.03,.01-.04,.03-.06,.26-.62,.63-.83,.3-.18,9.4-7.06,14.17-10.67,.03-.02,.06-.03,.1-.04l5.41-.18s.06,0,.09,.02c.01,0,1.42,.74,.93,2.44-.4,1.36-1.38,5.3-1.62,6.28h2.51c.06,0,.11,.03,.14,.07,.03,.04,.04,.1,.03,.16ZM33.21,1.95c10.66,0,20.01,2.69,25.23,6.73-5.03-2.43-12-3.93-19.72-3.93-15.32,0-27.73,5.93-27.73,13.25,0,5.26,6.42,9.8,15.71,11.94-13.25-1.42-23.15-7.06-23.15-13.82C3.56,8.29,16.84,1.95,33.21,1.95Z"/><path class="d" d="M4.25,36.96c.2-.08,.42-.13,.67-.13,.43,0,.72,.15,.85,.23,.24,.16,.35,.34,.42,.45,.03,.05,.08,.07,.13,.07h.02l1.28-.16s.09-.03,.12-.08,.03-.09,.01-.14c-.03-.07-.06-.13-.09-.2h0v-.02c-.11-.18-.34-.52-.76-.8-.69-.47-1.54-.54-1.98-.54-1.07,0-1.73,.36-1.96,.52-.09,.06-.18,.12-.35,.28-.13,.13-.23,.23-.32,.38-.26,.39-.4,.91-.4,1.46,0,.9,.33,1.62,.95,2.08,.36,.27,1,.58,2.02,.58,.96,0,1.7-.24,2.26-.74,.31-.27,.45-.51,.52-.66,.06-.13,.11-.22,.18-.47,.01-.05,0-.1-.03-.14-.03-.04-.08-.06-.12-.06h-1.24c-.06,.01-.11,.05-.14,.1-.11,.2-.15,.27-.22,.34-.25,.3-.64,.45-1.12,.45-.39,0-.74-.12-1.02-.34-.14-.11-.23-.22-.26-.26-.17-.24-.27-.56-.27-.87,0-.63,.31-1.13,.84-1.35Z"/><path class="d" d="M15.82,35.8h-1.27c-.06,0-.12,.03-.14,.09l-2.26,4.69s-.02,.11,0,.15c.03,.05,.08,.07,.13,.07h1.28c.06,0,.12-.04,.14-.09l.36-.79h2.2l.36,.79c.03,.06,.08,.09,.14,.09h1.31c.05,0,.1-.03,.13-.07,.03-.05,.03-.1,0-.15l-2.26-4.69c-.03-.05-.08-.09-.14-.09Zm-1.23,2.97l.58-1.29,.58,1.29h-1.16Z"/><path class="d" d="M27.33,35.8c-.09,0-.16,.07-.16,.16v2.85l-2.6-2.96s-.07-.05-.12-.05h-1.17c-.09,0-.16,.07-.16,.16v4.69c0,.09,.07,.16,.16,.16h1.12c.09,0,.16-.07,.16-.16v-2.87l2.62,2.97s.07,.05,.12,.05h1.15c.09,0,.16-.07,.16-.16v-4.69c0-.09-.07-.16-.16-.16h-1.11Z"/><path class="d" d="M37.19,35.8h-1.27c-.06,0-.12,.03-.14,.09l-2.26,4.69s-.02,.11,0,.15c.03,.05,.08,.07,.13,.07h1.28c.06,0,.12-.04,.14-.09l.36-.79h2.2l.36,.79c.03,.06,.08,.09,.14,.09h1.31c.05,0,.1-.03,.13-.07,.03-.05,.03-.1,0-.15l-2.26-4.69c-.03-.05-.08-.09-.14-.09Zm-1.23,2.97l.58-1.29,.58,1.29h-1.16Z"/><path class="d" d="M45.82,35.8h-1.17c-.09,0-.16,.07-.16,.16v3.35c0,.78,.62,1.49,1.19,1.49h2.74c.09,0,.16-.07,.16-.16v-.86c0-.09-.07-.16-.16-.16h-1.5c-.82,0-.94-.39-.94-1.32v-2.34c0-.09-.07-.16-.16-.16Z"/><path class="d" d="M63.15,40.8h1.08c.09,0,.16-.07,.16-.16v-.73h.56c.09,0,.16-.07,.16-.16v-.77c0-.09-.07-.16-.16-.16h-.56v-2.5c0-.09-.07-.16-.16-.16h-1.15s-.09,.02-.12,.05l-2.46,2.65s-.04,.07-.04,.11v.77c0,.09,.07,.16,.16,.16h2.36v.73c0,.09,.07,.16,.16,.16Zm0-.16h0v-.89h0v.89Zm0-1.66h0v0Zm-1.12-.16l.96-1.06h0v1.06h-.97Z"/><path class="d" d="M66.5,41.9H.49c-.27,0-.49,.22-.49,.49s.22,.49,.49,.49H66.5c.27,0,.49-.22,.49-.49s-.22-.49-.49-.49Z"/></g></g></g></svg>