<?xml version="1.0" encoding="UTF-8"?><svg xmlns="http://www.w3.org/2000/svg" viewBox="0 0 73.44 33.24"><defs><style>.d{fill:#fff;}</style></defs><g id="a"/><g id="b"><g id="c"><g><path class="d" d="M73.44,4.05c-1.16,.5-2.31,.99-3.45,1.49-1.26,.55-2.51,1.12-3.77,1.66-.6,.26-1.19,.56-1.81,.77-.15,.05-.28,.13-.42,.21-.23,.12-.43,.1-.66,.02-.5-.17-1.03-.27-1.53-.44-.35-.12-.72-.14-1.07-.27-.28-.1-.57-.14-.86-.2-.92-.21-1.84-.39-2.77-.54-1.31-.21-2.61-.42-3.93-.56-1.57-.17-3.15-.26-4.72-.38-2.18-.17-4.35-.12-6.52-.08-1.18,.02-2.36,.09-3.54,.21-1.05,.1-2.1,.19-3.15,.33-1.1,.15-2.2,.32-3.29,.51-.84,.15-1.67,.32-2.5,.51-1,.23-2,.5-2.99,.78-.82,.23-1.6,.54-2.41,.79-.5,.16-.98,.41-1.47,.6-.79,.32-1.55,.68-2.29,1.1-1.07,.6-2.11,1.26-3,2.13-.52,.51-1,1.05-1.35,1.68-.59,1.05-.79,2.16-.48,3.35,.35,1.35,1.21,2.35,2.23,3.25,.7,.61,1.47,1.11,2.27,1.58,.98,.58,2,1.06,3.05,1.49,.7,.28,1.42,.53,2.14,.77,.65,.22,1.31,.43,1.98,.61,.6,.16,1.21,.34,1.82,.47,.65,.13,1.29,.31,1.95,.44,.99,.2,1.98,.4,2.98,.52,1.1,.13,2.2,.29,3.31,.39,1.15,.1,2.3,.15,3.44,.27,.28,.03,.56,.04,.83,.04,1.38,.02,2.76,.07,4.13,.04,.93-.02,1.86,.02,2.79-.06,1.29-.11,2.57-.16,3.86-.3,1.12-.12,2.24-.26,3.36-.41,.65-.09,1.3-.19,1.95-.31,.87-.16,1.74-.33,2.6-.54,.78-.19,1.57-.36,2.33-.62,.37-.12,.74-.22,1.11-.32,.19-.05,.34,.07,.5,.14,.86,.36,1.7,.75,2.56,1.12,.84,.37,1.67,.72,2.51,1.09,.76,.33,1.51,.68,2.27,1.01,.58,.26,1.17,.5,1.75,.75,.1,.04,.21,.08,.2,.2,0,.13-.15,.08-.23,.1-.52,.16-1.03,.34-1.56,.47-.53,.12-1.05,.29-1.57,.43-.61,.15-1.22,.27-1.83,.44-.63,.18-1.28,.27-1.92,.4-.89,.18-1.77,.37-2.67,.52-.85,.15-1.7,.25-2.55,.4-.86,.15-1.73,.22-2.59,.35-1.33,.19-2.67,.32-4.01,.42-1.11,.08-2.22,.19-3.34,.22-1.34,.03-2.67,.16-4.01,.17-.87,0-1.73,0-2.6,0-1.37,0-2.74,.03-4.11-.05-1.17-.07-2.34-.1-3.5-.2-.67-.06-1.34-.04-2-.13-.87-.12-1.74-.17-2.6-.26-1.21-.12-2.41-.32-3.61-.46-.72-.08-1.43-.2-2.14-.32-.87-.15-1.74-.33-2.62-.48-.82-.14-1.63-.32-2.44-.51-.91-.21-1.81-.42-2.71-.67-.69-.19-1.39-.37-2.07-.58-.83-.25-1.66-.49-2.47-.8-.7-.27-1.41-.5-2.11-.77-.49-.18-.96-.42-1.44-.62-.52-.22-1.03-.46-1.53-.7-.71-.34-1.41-.7-2.09-1.1-1.62-.94-3.14-2.02-4.46-3.38-.67-.69-1.27-1.45-1.72-2.31C.23,18.69-.12,17.38,.04,15.99c.1-.89,.37-1.75,.81-2.55,.47-.85,1.01-1.63,1.69-2.33,1.12-1.15,2.39-2.13,3.76-2.98,.98-.61,1.99-1.17,3.04-1.66,1-.47,2-.92,3.03-1.3,.71-.26,1.41-.55,2.12-.8,.62-.21,1.25-.37,1.87-.58,.7-.24,1.41-.43,2.12-.62,.57-.16,1.13-.33,1.72-.43,.28-.05,.56-.13,.83-.19,1.1-.27,2.22-.5,3.34-.7,.75-.13,1.51-.28,2.26-.42,.6-.11,1.21-.18,1.81-.26,.67-.09,1.34-.19,2.01-.27,.62-.08,1.24-.19,1.88-.23,.97-.06,1.94-.2,2.91-.29,.47-.04,.95-.05,1.42-.08,1.16-.07,2.32-.13,3.48-.19,.37-.02,.74-.02,1.11-.03,1.84-.08,3.69-.11,5.53-.05,1.79,.06,3.58,.08,5.37,.25,.65,.06,1.3,.06,1.95,.13,1.34,.14,2.68,.22,4.01,.41,.73,.11,1.47,.16,2.21,.26,.77,.1,1.54,.24,2.31,.35,.8,.12,1.6,.31,2.39,.46,.92,.18,1.86,.32,2.77,.55,.98,.24,1.96,.45,2.93,.72,.78,.22,1.55,.48,2.33,.68,.13,.03,.26,.09,.38,.22Z"/><g><path class="d" d="M29.41,13.98l.93,.63c-.06,.58-.16,1.07-.29,1.46-.13,.39-.3,.69-.5,.89s-.45,.3-.76,.3c-.37,0-.68-.12-.91-.36-.24-.24-.44-.67-.61-1.28-.17-.61-.26-1.39-.26-2.35,0-1.27,.15-2.25,.45-2.93s.73-1.02,1.28-1.02c.43,0,.77,.2,1.02,.59s.43,.99,.55,1.8l-.93,.47c-.03-.23-.07-.41-.1-.51-.06-.18-.13-.32-.22-.42s-.18-.15-.29-.15c-.24,0-.42,.22-.55,.65-.1,.32-.14,.83-.14,1.51,0,.85,.06,1.44,.17,1.75,.12,.32,.28,.47,.49,.47s.36-.13,.46-.38c.1-.26,.18-.63,.23-1.11Z"/><path class="d" d="M30.89,13.77h1.06v3.42h-1.06v-3.42Z"/><path class="d" d="M32.72,17.2v-3.42h1.76c.33,0,.58,.03,.75,.08s.31,.16,.42,.31,.16,.34,.16,.55c0,.19-.04,.35-.12,.49-.08,.14-.19,.25-.33,.34-.09,.05-.21,.1-.37,.14,.13,.04,.22,.08,.28,.13,.04,.03,.1,.09,.17,.18s.12,.16,.15,.21l.51,.99h-1.2l-.57-1.05c-.07-.14-.14-.22-.19-.26-.08-.05-.16-.08-.26-.08h-.09v1.39h-1.06Zm1.06-2.04h.45s.14-.02,.28-.05c.07-.01,.13-.05,.17-.11,.04-.06,.07-.12,.07-.2,0-.11-.04-.2-.11-.25-.07-.06-.2-.09-.39-.09h-.46v.7Z"/><path class="d" d="M38.63,15.8l.93,.28c-.06,.26-.16,.48-.29,.65-.13,.17-.3,.31-.5,.39s-.45,.13-.76,.13c-.37,0-.68-.05-.91-.16-.24-.11-.44-.3-.61-.57-.17-.27-.26-.62-.26-1.05,0-.57,.15-1,.45-1.31s.73-.46,1.28-.46c.43,0,.77,.09,1.02,.26s.43,.44,.55,.8l-.93,.21c-.03-.1-.07-.18-.1-.23-.06-.08-.13-.14-.22-.19s-.18-.07-.29-.07c-.24,0-.42,.1-.55,.29-.1,.14-.14,.37-.14,.67,0,.38,.06,.64,.17,.78,.12,.14,.28,.21,.49,.21s.36-.06,.46-.17c.1-.11,.18-.28,.23-.5Z"/><path class="d" d="M42.3,13.77h1.06v2.04c0,.2-.03,.39-.09,.57-.06,.18-.16,.34-.3,.47-.13,.13-.28,.23-.42,.28-.21,.08-.45,.11-.74,.11-.17,0-.35-.01-.55-.04-.2-.02-.36-.07-.49-.14s-.25-.17-.36-.3-.19-.26-.23-.39c-.07-.22-.1-.41-.1-.58v-2.04h1.06v2.09c0,.19,.05,.33,.16,.44s.25,.16,.43,.16,.33-.05,.43-.16c.1-.1,.16-.25,.16-.44v-2.09Z"/><path class="d" d="M44.05,13.77h1.06v2.58h1.65v.84h-2.71v-3.42Z"/><path class="d" d="M47.03,15.49c0-.56,.16-.99,.47-1.31,.31-.31,.75-.47,1.3-.47s1.01,.15,1.32,.46,.46,.73,.46,1.29c0,.4-.07,.73-.2,.98-.13,.26-.33,.46-.58,.6s-.57,.21-.95,.21-.71-.06-.96-.18c-.25-.12-.46-.32-.62-.58-.16-.27-.24-.6-.24-1Zm1.06,0c0,.35,.06,.59,.19,.75s.3,.23,.52,.23,.4-.07,.53-.22,.19-.41,.19-.8c0-.32-.07-.56-.2-.71-.13-.15-.31-.22-.53-.22s-.38,.08-.51,.23c-.13,.15-.19,.4-.19,.75Z"/><path class="d" d="M52.73,13.77h1.39l.54,2.08,.53-2.08h1.39v3.42h-.87v-2.61l-.67,2.61h-.78l-.67-2.61v2.61h-.87v-3.42Z"/><path class="d" d="M57.26,13.77h2.84v.73h-1.78v.54h1.65v.7h-1.65v.68h1.83v.78h-2.89v-3.42Z"/><path class="d" d="M60.73,13.77h1.57c.31,0,.56,.04,.75,.13,.19,.08,.35,.2,.47,.36s.21,.34,.27,.55c.06,.21,.08,.43,.08,.66,0,.37-.04,.65-.12,.85-.08,.2-.2,.37-.35,.51s-.31,.23-.48,.27c-.23,.06-.44,.09-.63,.09h-1.57v-3.42Zm1.06,.78v1.87h.26c.22,0,.38-.02,.47-.07s.17-.13,.22-.26c.05-.12,.08-.32,.08-.59,0-.36-.06-.61-.18-.75-.12-.13-.31-.2-.59-.2h-.26Z"/><path class="d" d="M64.48,13.77h1.06v3.42h-1.06v-3.42Z"/><path class="d" d="M68.58,15.8l.93,.28c-.06,.26-.16,.48-.29,.65-.13,.17-.3,.31-.5,.39s-.45,.13-.76,.13c-.37,0-.68-.05-.91-.16-.24-.11-.44-.3-.61-.57-.17-.27-.26-.62-.26-1.05,0-.57,.15-1,.45-1.31s.73-.46,1.28-.46c.43,0,.77,.09,1.02,.26s.43,.44,.55,.8l-.93,.21c-.03-.1-.07-.18-.1-.23-.06-.08-.13-.14-.22-.19s-.18-.07-.29-.07c-.24,0-.42,.1-.55,.29-.1,.14-.14,.37-.14,.67,0,.38,.06,.64,.17,.78,.12,.14,.28,.21,.49,.21s.36-.06,.46-.17c.1-.11,.18-.28,.23-.5Z"/><path class="d" d="M69.89,15.49c0-.56,.16-.99,.47-1.31,.31-.31,.75-.47,1.3-.47s1.01,.15,1.32,.46,.46,.73,.46,1.29c0,.4-.07,.73-.2,.98-.13,.26-.33,.46-.58,.6s-.57,.21-.95,.21-.71-.06-.96-.18c-.25-.12-.46-.32-.62-.58-.16-.27-.24-.6-.24-1Zm1.06,0c0,.35,.06,.59,.19,.75s.3,.23,.52,.23,.4-.07,.53-.22,.19-.41,.19-.8c0-.32-.07-.56-.2-.71-.13-.15-.31-.22-.53-.22s-.38,.08-.51,.23c-.13,.15-.19,.4-.19,.75Z"/><path class="d" d="M29.23,22.37h-1.2l-.17,.57h-1.08l1.29-3.42h1.15l1.29,3.42h-1.11l-.17-.57Zm-.22-.74l-.38-1.23-.37,1.23h.75Z"/><path class="d" d="M30.85,19.51h1.06v2.58h1.65v.84h-2.71v-3.42Z"/><path class="d" d="M33.56,19.51h3.22v.85h-1.08v2.58h-1.06v-2.58h-1.08v-.85Z"/><path class="d" d="M36.95,21.23c0-.56,.16-.99,.47-1.31,.31-.31,.75-.47,1.3-.47s1.01,.15,1.32,.46,.46,.73,.46,1.29c0,.4-.07,.73-.2,.98-.13,.26-.33,.46-.58,.6s-.57,.21-.95,.21-.71-.06-.96-.18c-.25-.12-.46-.32-.62-.58-.16-.27-.24-.6-.24-1Zm1.06,0c0,.35,.06,.59,.19,.75s.3,.23,.52,.23,.4-.07,.53-.22,.19-.41,.19-.8c0-.32-.07-.56-.2-.71-.13-.15-.31-.22-.53-.22s-.38,.08-.51,.23c-.13,.15-.19,.4-.19,.75Z"/><path class="d" d="M42.66,19.51h1.76c.38,0,.67,.09,.86,.27s.29,.44,.29,.78-.1,.62-.31,.81c-.21,.19-.53,.29-.95,.29h-.58v1.27h-1.06v-3.42Zm1.06,1.46h.26c.2,0,.35-.04,.43-.11s.12-.16,.12-.27-.04-.2-.11-.27c-.07-.07-.21-.11-.4-.11h-.3v.76Z"/><path class="d" d="M47.82,22.37h-1.2l-.17,.57h-1.08l1.29-3.42h1.15l1.29,3.42h-1.11l-.17-.57Zm-.22-.74l-.38-1.23-.37,1.23h.75Z"/><path class="d" d="M49.45,22.94v-3.42h1.76c.33,0,.58,.03,.75,.08s.31,.16,.42,.31,.16,.34,.16,.55c0,.19-.04,.35-.12,.49-.08,.14-.19,.25-.33,.34-.09,.05-.21,.1-.37,.14,.13,.04,.22,.08,.28,.13,.04,.03,.1,.09,.17,.18s.12,.16,.15,.21l.51,.99h-1.2l-.57-1.05c-.07-.14-.14-.22-.19-.26-.08-.05-.16-.08-.26-.08h-.09v1.39h-1.06Zm1.06-2.04h.45s.14-.02,.28-.05c.07-.01,.13-.05,.17-.11,.04-.06,.07-.12,.07-.2,0-.11-.04-.2-.11-.25-.07-.06-.2-.09-.39-.09h-.46v.7Z"/><path class="d" d="M55.27,22.37h-1.2l-.17,.57h-1.08l1.29-3.42h1.15l1.29,3.42h-1.11l-.17-.57Zm-.22-.74l-.38-1.23-.37,1.23h.75Z"/><path class="d" d="M56.89,19.51h.99l1.29,1.89v-1.89h1v3.42h-1l-1.28-1.88v1.88h-1v-3.42Z"/><path class="d" d="M62.93,22.37h-1.2l-.17,.57h-1.08l1.29-3.42h1.15l1.29,3.42h-1.11l-.17-.57Zm-.22-.74l-.38-1.23-.37,1.23h.75Z"/></g></g></g></g></svg>