<?xml version="1.0" encoding="UTF-8"?><svg xmlns="http://www.w3.org/2000/svg" viewBox="0 0 121.33 54.22"><defs><style>.d{fill:#fff;}</style></defs><g id="a"/><g id="b"><g id="c"><g><path class="d" d="M20.12,.26c-.41-.35-1.02-.35-1.43,0L7.14,10.07,1.82,5.57c-.33-.28-.79-.34-1.18-.16-.39,.18-.64,.57-.64,1V27.06c0,.19,.05,.37,.14,.53v10.25c0,.32,.14,.63,.39,.84l8.97,7.61v4.16c0,.43,.25,.82,.64,1,.15,.07,.31,.1,.47,.1,.26,0,.51-.09,.71-.26l2.04-1.73,5.17,4.38c.2,.17,.45,.26,.72,.26h.29c.26,0,.52-.09,.72-.26l18.01-15.27c.25-.21,.39-.52,.39-.84V16.52c0-.32-.14-.63-.39-.84L20.12,.26ZM5.43,11.52l-3.22,2.73v-5.45l3.22,2.72Zm22.23,5.35v17.75l-7.3,6.16V23.03l7.3-6.16Zm-15.94,28.4v-7.8l6.28,5.3-4.63,3.9-1.66-1.4Zm6.43-5.27l-6.43-5.43v-4.25l6.43-5.43v15.11Zm-8.25-11.04c-.25,.21-.39,.52-.39,.85v2.9l-7.15-6.04v-9.64l4.79-4.07,10.86,9.16-8.1,6.84Zm-7.55,8.37v-7.76l7.15,6.04v7.79l-7.15-6.07Zm34.09,0l-17.05,14.46-4.32-3.66,14.39-12.15c.25-.21,.39-.52,.39-.85V14.49c0-.43-.25-.82-.64-1-.39-.18-.85-.12-1.18,.16l-8.34,7.04L8.86,11.51,19.4,2.56l17.05,14.48v20.3Z"/><path class="d" d="M48.09,45c-.64,0-1.12,.49-1.12,1.14s.48,1.14,1.12,1.14c.5,0,.91-.3,1.07-.77h-.61c-.09,.15-.25,.25-.46,.25-.28,0-.48-.16-.53-.45h1.63c0-.06,.01-.11,.01-.17,0-.62-.45-1.13-1.11-1.13Zm-.51,.9c.07-.25,.25-.41,.51-.41s.45,.14,.53,.41h-1.04Z"/><path class="d" d="M50.49,45.88c-.22-.04-.41-.07-.41-.22,0-.12,.11-.21,.29-.21,.2,0,.32,.08,.32,.26h.55c0-.43-.34-.72-.86-.72s-.87,.28-.87,.69c0,.51,.44,.6,.78,.66,.23,.04,.41,.08,.41,.23s-.14,.22-.31,.22c-.21,0-.36-.1-.36-.29h-.57c0,.46,.36,.77,.9,.77s.9-.29,.9-.72c0-.52-.45-.6-.8-.66Z"/><path class="d" d="M52.41,46.36v-.84h.58v-.47h-.59v-.56h-.11l-.85,.9v.13h.39v.92c0,.48,.29,.77,.76,.77h.41v-.52h-.26c-.21,0-.33-.12-.33-.33Z"/><path class="d" d="M54.81,46.23c0,.3-.16,.49-.43,.49s-.43-.18-.43-.49v-1.18h-.58v1.24c0,.58,.4,.97,1.01,.97s1.01-.39,1.01-.97v-1.24h-.58v1.18Z"/><path class="d" d="M57.5,45.17c-.17-.11-.37-.18-.59-.18-.65,0-1.13,.48-1.13,1.14s.48,1.14,1.13,1.14c.26,0,.49-.09,.67-.24l.07,.18h.43v-2.93h-.58v.89Zm-.54,1.55c-.34,0-.59-.25-.59-.59s.25-.59,.59-.59,.59,.25,.59,.59-.25,.59-.59,.59Z"/><rect class="d" x="58.64" y="44.23" width=".58" height=".54"/><rect class="d" x="58.64" y="45.06" width=".58" height="2.15"/><path class="d" d="M60.8,45c-.67,0-1.16,.48-1.16,1.14s.5,1.14,1.16,1.14,1.16-.49,1.16-1.14-.5-1.14-1.16-1.14Zm0,1.73c-.34,0-.57-.24-.57-.59s.24-.59,.57-.59,.57,.24,.57,.59-.24,.59-.57,.59Z"/><path class="d" d="M64.91,45.17c-.17-.11-.37-.18-.59-.18-.65,0-1.13,.48-1.13,1.14s.48,1.14,1.13,1.14c.26,0,.49-.09,.67-.24l.07,.18h.43v-2.93h-.58v.89Zm-.54,1.55c-.34,0-.59-.25-.59-.59s.25-.59,.59-.59,.59,.25,.59,.59-.25,.59-.59,.59Z"/><path class="d" d="M67.03,45c-.64,0-1.12,.49-1.12,1.14s.48,1.14,1.12,1.14c.5,0,.91-.3,1.07-.77h-.61c-.09,.15-.25,.25-.46,.25-.28,0-.48-.16-.53-.45h1.63c0-.06,.01-.11,.01-.17,0-.62-.45-1.13-1.11-1.13Zm-.51,.9c.07-.25,.25-.41,.51-.41s.45,.14,.53,.41h-1.04Z"/><path class="d" d="M71.2,45.26c-.19-.17-.43-.26-.71-.26-.65,0-1.13,.48-1.13,1.13s.48,1.14,1.13,1.14c.27,0,.51-.1,.7-.26l.05,.19h.46v-2.15h-.43l-.06,.21Zm-.66,1.46c-.34,0-.59-.25-.59-.59s.25-.59,.59-.59,.59,.25,.59,.59-.25,.59-.59,.59Z"/><path class="d" d="M72.73,45.32l-.1-.26h-.37v2.15h.58v-1.12c0-.35,.13-.5,.46-.5h.25v-.55h-.19c-.28,0-.47,.09-.62,.28Z"/><path class="d" d="M75.5,45.25c-.18-.16-.42-.26-.69-.26-.65,0-1.13,.48-1.13,1.14s.48,1.14,1.13,1.14c.22,0,.42-.07,.59-.18v.89h.58v-2.93h-.38l-.1,.2Zm-.64,1.47c-.34,0-.59-.25-.59-.59s.25-.59,.59-.59,.59,.25,.59,.59-.25,.59-.59,.59Z"/><path class="d" d="M77.95,46.23c0,.3-.16,.49-.43,.49s-.43-.18-.43-.49v-1.18h-.58v1.24c0,.58,.4,.97,1.01,.97s1.01-.39,1.01-.97v-1.24h-.58v1.18Z"/><rect class="d" x="79.06" y="45.06" width=".58" height="2.15"/><rect class="d" x="79.06" y="44.23" width=".58" height=".54"/><path class="d" d="M80.92,46.36v-.84h.58v-.47h-.59v-.56h-.11l-.85,.9v.13h.39v.92c0,.48,.29,.77,.76,.77h.41v-.52h-.26c-.21,0-.33-.12-.33-.33Z"/><path class="d" d="M82.87,45c-.64,0-1.12,.49-1.12,1.14s.48,1.14,1.12,1.14c.5,0,.91-.3,1.07-.77h-.61c-.09,.15-.25,.25-.46,.25-.28,0-.48-.16-.53-.45h1.63c0-.06,.01-.11,.01-.17,0-.62-.45-1.13-1.11-1.13Zm-.51,.9c.07-.25,.25-.41,.51-.41s.45,.14,.53,.41h-1.04Z"/><path class="d" d="M85.4,46.72c-.31,0-.55-.26-.55-.59s.24-.59,.55-.59c.23,0,.43,.12,.52,.34h.58c-.1-.53-.54-.88-1.09-.88-.65,0-1.15,.49-1.15,1.13s.5,1.14,1.14,1.14c.56,0,1-.37,1.1-.91h-.59c-.1,.23-.28,.36-.52,.36Z"/><path class="d" d="M87.59,46.36v-.84h.58v-.47h-.59v-.56h-.11l-.85,.9v.13h.39v.92c0,.48,.29,.77,.76,.77h.41v-.52h-.26c-.21,0-.33-.12-.33-.33Z"/><path class="d" d="M89.99,46.23c0,.3-.16,.49-.43,.49s-.43-.18-.43-.49v-1.18h-.58v1.24c0,.58,.4,.97,1.01,.97s1.01-.39,1.01-.97v-1.24h-.58v1.18Z"/><path class="d" d="M91.58,45.32l-.1-.26h-.37v2.15h.58v-1.12c0-.35,.13-.5,.46-.5h.25v-.55h-.19c-.28,0-.47,.09-.62,.28Z"/><path class="d" d="M94.37,45.26c-.19-.17-.43-.26-.71-.26-.65,0-1.13,.48-1.13,1.13s.48,1.14,1.13,1.14c.27,0,.51-.1,.7-.26l.05,.19h.46v-2.15h-.43l-.06,.21Zm-.66,1.46c-.34,0-.59-.25-.59-.59s.25-.59,.59-.59,.59,.25,.59,.59-.25,.59-.59,.59Z"/><rect class="d" x="95.38" y="46.59" width=".62" height=".62"/><path class="d" d="M51.53,23.74c2.32,0,4.06-1.53,4.31-3.77h-2.77c-.17,.78-.78,1.31-1.53,1.31-.95,0-1.6-.73-1.6-1.79s.64-1.81,1.6-1.81c.7,0,1.31,.48,1.54,1.2h2.74c-.29-2.17-2-3.65-4.29-3.65-2.58,0-4.44,1.79-4.44,4.26s1.86,4.26,4.44,4.26Z"/><path class="d" d="M62.01,21.32h.55l1.04,2.19h2.98l-1.4-2.82c.71-.5,1.11-1.25,1.11-2.18,0-1.83-1.31-3.05-3.19-3.05h-3.76v8.05h2.67v-2.19Zm0-3.58h.66c.54,0,.85,.32,.85,.76s-.31,.77-.85,.77h-.66v-1.53Z"/><path class="d" d="M74.14,23.74c2.76,0,4.6-1.7,4.6-4.26s-1.84-4.26-4.6-4.26-4.6,1.7-4.6,4.26,1.84,4.26,4.6,4.26Zm0-6.05c1.05,0,1.75,.71,1.75,1.79s-.7,1.79-1.75,1.79-1.75-.71-1.75-1.79,.7-1.79,1.75-1.79Z"/><path class="d" d="M89.73,22.68c.88-.75,1.39-1.85,1.39-3.2,0-2.55-1.84-4.26-4.6-4.26s-4.6,1.7-4.6,4.26,1.84,4.26,4.6,4.26c.34,0,.67-.03,.98-.08l.98,1.27h3.01l-1.77-2.26Zm-3.21-1.4c-1.05,0-1.75-.71-1.75-1.79s.7-1.79,1.75-1.79,1.75,.71,1.75,1.79-.7,1.79-1.75,1.79Z"/><path class="d" d="M99.24,20.3c0,.58-.37,.98-.94,.98s-.94-.4-.94-.98v-4.84h-2.78v4.83c0,2.09,1.5,3.45,3.73,3.45s3.73-1.36,3.73-3.45v-4.83h-2.78v4.84Z"/><rect class="d" x="105.84" y="15.45" width="2.74" height="8.05"/><path class="d" d="M116.72,15.22c-2.76,0-4.6,1.7-4.6,4.26s1.84,4.26,4.6,4.26,4.6-1.7,4.6-4.26-1.84-4.26-4.6-4.26Zm0,6.05c-1.05,0-1.75-.71-1.75-1.79s.7-1.79,1.75-1.79,1.75,.71,1.75,1.79-.7,1.79-1.75,1.79Z"/><path class="d" d="M49.97,36.55h2.56l.34,1.12h2.98l-3.23-8.05h-2.69l-3.21,8.05h2.89l.36-1.12Zm1.28-4.09l.79,2.22h-1.57l.78-2.22Z"/><path class="d" d="M66.26,37.66l-1.4-2.82c.71-.5,1.11-1.25,1.11-2.18,0-1.83-1.31-3.05-3.19-3.05h-3.76v8.05h2.67v-2.19h.55l1.04,2.19h2.98Zm-3.91-4.23h-.66v-1.53h.66c.54,0,.85,.32,.85,.76s-.31,.77-.85,.77Z"/><path class="d" d="M78.42,33.64c0-2.55-1.84-4.26-4.6-4.26s-4.6,1.7-4.6,4.26,1.84,4.26,4.6,4.26c.34,0,.67-.03,.98-.08l.98,1.27h3.01l-1.77-2.26c.88-.75,1.39-1.85,1.39-3.2Zm-4.6,1.79c-1.05,0-1.75-.71-1.75-1.79s.7-1.79,1.75-1.79,1.75,.71,1.75,1.79-.7,1.79-1.75,1.79Z"/><rect class="d" x="81.55" y="35.57" width="2.3" height="2.09"/></g></g></g></svg>