<?xml version="1.0" encoding="UTF-8"?><svg xmlns="http://www.w3.org/2000/svg" viewBox="0 0 99.25 26.99"><defs><style>.d{fill:#fff;}</style></defs><g id="a"/><g id="b"><g id="c"><g><path class="d" d="M29.87,2.86c-.08,.45-.31,.84-.57,1.22-.05,.2-.09,.41-.12,.63,.4-.73,.74-1.48,.99-2.27-.11,.14-.21,.28-.31,.42Z"/><path class="d" d="M12.11,18.78c-1.4,.03-2.8,.02-4.21,0-.42,0-.76,.12-.93,.48-.39,.86-.73,1.73-1.09,2.6-.17,.41-.04,.58,.41,.56,.71-.02,1.43,0,2.15,0,.63,0,1.26-.03,1.89,0,.66,.04,1.08-.19,1.32-.82,.27-.72,.59-1.43,.91-2.13,.23-.51,.15-.73-.46-.71Z"/><path class="d" d="M29.3,4.09c.12-.44,.31-.84,.57-1.22,.04-.23,.04-.47-.02-.74h0c-.02,.89-.6,1.59-.84,2.41,.1-.15,.2-.3,.3-.45Z"/><path class="d" d="M42.75,7.82c.2-.62,.43-1.22,.75-1.78,.1-.34,.2-.69,.28-1.04-.6,1.12-1.03,2.32-1.49,3.5,.17-.22,.32-.45,.46-.68Z"/><path class="d" d="M85.32,9.24c.86-.02,1.72,0,2.58,0,.86,0,1.72-.02,2.58,0,.54,.01,.85-.22,1.05-.7,.37-.93,.74-1.86,1.16-2.77,.25-.53,.25-.76-.44-.75-1.66,.04-3.33,.03-4.99,0-.57,0-.92,.26-1.14,.74-.41,.95-.8,1.9-1.21,2.85-.19,.43-.12,.64,.4,.62Z"/><path class="d" d="M24.71,18.46c-.48-.04-.97-.01-1.46-.01v.02c-.69,0-1.37-.01-2.06,0-.55,.01-.66,.48-.82,.87-.08,.2,.03,.33,.25,.33,1.4,0,2.8,.03,4.2-.04,.46-.02,.72-.55,.67-.97-.05-.43-.51-.18-.79-.2Z"/><path class="d" d="M62.18,6.23c1.26,.04,2.51-.01,3.77,.02,.67,.02,.98-.35,1.22-.87,.18-.4,.08-.58-.38-.56-.71,.02-1.43,0-2.14,0-.8,0-1.6-.02-2.4,0-.46,.02-1.15,.79-1.02,1.18,.16,.51,.63,.21,.95,.22Z"/><path class="d" d="M42.75,7.82c-.11,.33-.21,.67-.32,1.01h0c.51-1.15,1.02-2.3,1.53-3.46-.17,.21-.32,.44-.46,.67-.19,.62-.43,1.22-.75,1.78Z"/><path class="d" d="M97.07,14.15c-1.45-.03-2.9,0-4.35,0,0-.11,0-.15,.01-.16,.1-.06,.19-.12,.3-.16,1.86-.71,3.16-2.04,4.03-3.8,.66-1.34,1.24-2.71,1.79-4.09,1.24-3.12-.58-5.8-3.92-5.82-2.12-.01-4.25-.02-6.37-.03-2.08,0-4.15,.39-6.26,.1-1.55-.21-3.15-.07-4.73-.05-1.46,.02-2.94-.08-4.32,.53-.14,.06-.27,.09-.4-.02-.74-.67-1.67-.54-2.54-.55-2.5-.02-5,0-7.5,.02-1,0-2.01,0-2.97,.35-.18,.06-.33,.1-.49,0-.53-.37-1.15-.35-1.74-.36-2.96-.01-5.92-.02-8.87,.03-1.3,.02-2.56,.34-3.92,.02-1.25-.29-2.63-.07-3.95-.04-.85,.02-1.47,.45-1.81,1.23-.63,1.47-1.25,2.95-1.85,4.43-.62,1.53-.6,1.52-2.25,1.5-.49,0-.68-.03-.41-.6,.58-1.24,1.1-2.52,1.61-3.8,.52-1.32-.18-2.53-1.57-2.74-.34-.05-.69-.06-1.03-.06-2.93,0-5.86,0-8.79,.04-1.63,.02-3.28-.14-4.84,.53-.19,.08-.32,.06-.46-.07-.62-.53-1.39-.49-2.13-.49-2.84-.01-5.69-.01-8.53,.02-2.81,.03-4.97,1.23-6.32,3.73-.87,1.61-1.62,3.29-2.22,5.02-.98,2.82,.93,5.46,3.93,5.53,.46,.01,.93,0,1.58,0-2.73,1.55-3.26,2.15-4.46,4.92-.34,.79-.71,1.56-1.01,2.37-1.01,2.74,.74,5.25,3.66,5.26,2.07,0,4.14-.02,6.2,.02,1.32,.03,2.57-.21,3.72-.86,.31-.18,.53-.19,.84,.05,.77,.6,1.67,.81,2.66,.8,2.35-.03,4.71-.02,7.07-.01,.71,0,1.38-.1,1.96-.51,.27-.19,.48-.22,.78-.04,.73,.44,1.55,.58,2.4,.57,1.98-.02,3.96-.05,5.94-.05,4.13,0,8.27,.03,12.4,.05,1.29-.72,2.58-.09,3.87-.03,1.58,.08,3.16,.03,4.74,.02,1.03,0,2.07,.08,3.09-.15,.83-.18,1.67-.64,2.48,.1,.13,.12,.44,.07,.67,.07,1.03,0,2.07-.02,3.1,0,1.05,.02,1.73-.48,2.14-1.41,.42-.97,.84-1.94,1.25-2.92q.87-2.05,3.04-1.99s.06,0,.09,0c.46-.06,.56,.13,.36,.53-.08,.15-.14,.31-.2,.47-1.17,2.87,.38,5.24,3.48,5.31,.14,0,.29,.02,.43,0,2.21-.19,4.48,.44,6.64-.46,.1-.04,.27,.04,.4,.1,.67,.33,1.37,.36,2.1,.36,2.36-.01,4.71,0,7.07-.01,1.45,0,2.45-.65,3.01-1.99,1.1-2.61,2.22-5.21,3.31-7.82,.7-1.66-.14-2.94-1.94-2.98Zm-9.99-12.04c1.29,0,2.59,0,3.88,0,1.38,0,2.76-.02,4.14,0,1.7,.02,2.57,1.24,2,2.85-.56,1.56-1.2,3.1-2.01,4.55-1.03,1.85-2.68,2.81-4.79,2.86-2.56,.06-5.11,.05-7.67,.02-1.62-.02-2.65-1.47-2.07-2.98,.6-1.58,1.28-3.13,2.05-4.63,.92-1.78,2.45-2.67,4.48-2.68Zm-11.04,0c1.03,0,2.07,0,3.1,0,1.18,0,2.36,.03,3.53-.01,.64-.02,.67,.22,.44,.69-.03,.05-.06,.1-.07,.16-.39,1.74-1.49,2.34-3.22,2.11-.93-.12-1.89,.02-2.84-.03-.93-.05-1.43,.41-1.76,1.21-.76,1.82-1.56,3.63-2.31,5.46-.21,.53-.49,.76-1.08,.73-.92-.05-1.84-.02-2.76,0-.41,0-.51-.15-.36-.52,.96-2.36,1.85-4.75,2.89-7.07,.83-1.85,2.41-2.7,4.43-2.71Zm-14.1,0c2.93-.03,5.86,0,8.78-.03,.75-.01,.69,.25,.46,.77-.65,1.46-1.29,2.94-1.9,4.42-.33,.81-.87,1.19-1.78,1.18-2.24-.03-4.48,.02-6.72,0-.62,0-.99,.15-1.05,.94,2.59,0,5.14,0,7.7,0,.97,0,.98,.02,.61,.93-.02,.05-.05,.1-.07,.16-.38,1.52-1.33,2.04-2.91,1.95-2.46-.13-4.93-.02-7.4-.03-1.9,0-2.82-1.38-2.12-3.14,.6-1.51,1.2-3.03,1.99-4.47,.95-1.73,2.41-2.66,4.38-2.68Zm-39.32,0c2.41,0,4.82,0,7.22,0h0c.23-.02,.16,.28,.33,.32,.06-.27,.25-.35,.51-.35,1.17,0,2.35,0,3.64,0-.87,2.06-1.7,4.02-2.53,5.99-.54,1.29-.55,1.12,.79,1.14,1.46,.02,2.93-.03,4.39,.01,.68,.02,1.05-.26,1.3-.87,.77-1.88,1.58-3.75,2.34-5.63,.2-.5,.48-.69,1.02-.66,1.06,.05,2.12,.01,3.28,.01-.3,1.06-.91,1.91-1.13,2.9l.18,.37c.95-2.2,2.64-3.26,5.02-3.27,2.81,0,5.63,.02,8.44-.01,.65,0,.8,.13,.52,.75-1.18,2.54-.73,2.18-3.31,2.2-1.81,.01-3.62,.03-5.42-.01-.78-.02-1.23,.3-1.5,1-.33,.85-.68,1.7-1.06,2.54-.26,.57-.13,.74,.5,.73,2.38-.03,4.76-.01,7.15-.01,.25,0,.51,.02,.9,.04-.39,.88-.71,1.7-1.1,2.49-.22,.46-.69,.57-1.17,.58-2.9,0-5.8,.04-8.7,0-1.7-.02-2.58-1.48-1.94-3.08,.06-.16,.1-.32,.16-.49l-.14-.33c-1.19,2.79-3.33,4-6.32,3.91-2.15-.06-4.3,0-6.45-.03-2-.02-2.92-1.37-2.2-3.24,.58-1.49,1.24-2.96,1.87-4.43h0l-.18-.18c-.34,.41-.79,.51-1.31,.51-1.32-.02-2.64,.03-3.96-.02-.89-.03-1.46,.29-1.8,1.13-.76,1.85-1.6,3.67-2.35,5.53-.22,.53-.47,.77-1.06,.74-.89-.05-1.78-.03-2.67,0-.52,.02-.61-.2-.43-.62,.94-2.33,1.82-4.7,2.86-6.98,.82-1.79,2.34-2.69,4.34-2.7ZM4.38,12.4c-1.86-.01-2.78-1.3-2.17-3.05,.57-1.62,1.26-3.2,2.09-4.7,.91-1.63,2.34-2.51,4.21-2.54,3.01-.04,6.03-.02,9.04-.02,.16,0,.33,.02,.58,.04-.34,.79-.65,1.52-.98,2.24-.25,.55-.73,.65-1.29,.65-2.24-.01-4.48,.02-6.72-.02-.74-.01-1.19,.25-1.46,.93-.32,.8-.68,1.58-1.01,2.37-.38,.91-.35,.96,.61,.96,2.33,0,4.65,.03,6.98-.02,.81-.01,.75,.2,.56,.87-.5,1.78-1.51,2.44-3.39,2.31-2.34-.17-4.71-.03-7.06-.04Zm5.76,12.6c-.95,0-1.89,0-2.84,0h0c-1.06,0-2.12,0-3.19,0-1.66,0-2.5-1.15-1.91-2.68,.46-1.17,.95-2.34,1.51-3.46,.91-1.84,2.45-2.74,4.5-2.77,1.69-.02,3.39-.03,5.08,0,.49,0,.79-.12,.99-.59,1.08-2.56,.72-2.19,3.45-2.2,.95,0,.96,.03,.59,.86-1.11,2.55-2.21,5.1-3.31,7.65-.98,2.27-2.41,3.2-4.88,3.19Zm15.67-3.43c-1.92-.03-3.84,0-5.76,0-.17,0-.35-.02-.51,.01-.36,.07-.44,.4-.42,.66,.03,.34,.37,.17,.56,.17,2.04,.01,4.07,.02,6.11,0,.56,0,.75,.11,.47,.66-.18,.36-.32,.73-.48,1.1-.24,.57-.67,.82-1.28,.82-2.44,0-4.88,.03-7.31,0-1.46-.02-2.29-1.28-1.74-2.64,.51-1.27,1.06-2.53,1.66-3.77,.82-1.69,2.24-2.47,4.08-2.51,1.18-.02,2.35,0,3.53,0,1.26,0,2.52,.01,3.79,0,.47,0,.71,.03,.45,.6-.6,1.33-1.16,2.68-1.72,4.03-.27,.64-.73,.88-1.42,.87Zm8.61,3.42c-.83-.04-1.66,0-2.5,0h0c-.86,0-1.72,.04-2.58-.01-1.67-.11-2.27-1.06-1.62-2.57,1.24-2.86,2.51-5.71,3.76-8.57,.17-.4,.42-.57,.85-.55,.66,.03,1.32,0,1.98,0,.63,0,.82,.2,.53,.84-1.1,2.42-2.17,4.86-3.24,7.3-.42,.94-.38,1,.66,1,1.21,0,2.41,.02,3.62,0,.48,0,.64,.12,.42,.58-.17,.36-.31,.74-.47,1.11-.27,.61-.71,.92-1.42,.89Zm13.92-.57c-.18,.45-.42,.61-.9,.58-.74-.04-1.49-.03-2.24,0-.52,.02-.57-.16-.39-.6,.6-1.52,1.16-3.05,1.75-4.57,.39-1.01,.27-1.2-.82-1.2-.72,0-1.44,.06-2.15,0-.97-.09-1.47,.36-1.81,1.22-.61,1.54-1.32,3.05-1.94,4.59-.18,.45-.43,.6-.9,.57-.63-.04-1.26,0-1.89,0-.95,0-.97-.02-.62-.87,.67-1.61,1.35-3.22,2.02-4.84,.36-.87,.73-1.74,1.06-2.63,.17-.45,.43-.6,.9-.59,1.41,.03,2.81,0,4.22,0,1.38,0,2.76-.03,4.13,0,1.9,.05,2.51,.92,1.84,2.68-.72,1.9-1.53,3.76-2.27,5.66Zm9.71,.55c-1,.03-2.01,0-3.01,0h0c-1.03,0-2.06,.02-3.1,0-1.61-.02-2.48-1.34-1.86-2.83,.47-1.11,.94-2.21,1.44-3.3,.85-1.85,2.29-2.79,4.34-2.78,2.12,0,4.24,0,6.36,0,1.8,0,2.56,1.1,1.9,2.78-.42,1.06-.9,2.11-1.37,3.15-.92,2.02-2.56,2.92-4.72,2.98Zm12.01-6.36c-.92-.05-1.43,.34-1.76,1.17-.63,1.57-1.34,3.1-1.98,4.67-.17,.41-.38,.57-.82,.55-.92-.03-1.83,0-2.77,0,.01-.67,.35-1.19,.56-1.74,.57-1.47,1.16-2.93,1.75-4.38,.74-1.81,2.11-2.74,4.05-2.79,1.86-.04,3.73,0,5.6-.02,.61,0,.7,.19,.44,.69-.17,.33-.3,.68-.44,1.03-.23,.57-.65,.84-1.27,.84-1.12,0-2.24,.05-3.36-.01Zm12.35,.16h-.26c-2.93,0-3.13,.15-4.01,2.97-.16,.52-.01,.67,.5,.67,1.29-.02,2.58,.02,3.88-.01,.61-.02,.71,.17,.44,.68-.17,.33-.32,.68-.46,1.02-.24,.61-.68,.89-1.33,.88-.83-.01-1.67,0-2.5,0h0c-.75,.01-1.49,.02-2.24,.01-2.1-.02-2.73-1.01-1.87-2.94,.39-.89,.79-1.78,1.19-2.67,.14-.32,.27-.63-.3-.59-.61,.05-.49-.27-.33-.63,.2-.44,.43-.88,.59-1.34,.17-.52,.42-.87,1.03-.76,.38,.07,.59-.14,.68-.49,.02-.08,.06-.16,.09-.24,1.03-2.27,1.05-2.28,3.57-2.06,.52,.04,.68,.26,.49,.72-.19,.48-.41,.94-.63,1.41-.23,.49-.19,.71,.44,.69,1.2-.04,2.41,0,3.62-.02,.54-.01,.69,.15,.43,.63-.01,.03-.02,.05-.04,.08q-.81,2-2.99,2Zm12.78,2.15c-.23,.52-.69,.63-1.21,.63-1.92,0-3.85,0-5.77,0-.2,0-.41-.03-.6,.01-.33,.08-.41,.4-.41,.67,0,.3,.31,.16,.48,.17,2.07,0,4.13,.02,6.2,0,.59,0,.72,.16,.46,.68-.17,.33-.3,.68-.44,1.03-.25,.6-.69,.88-1.34,.88-2.41,0-4.82,.02-7.23,0-1.5-.01-2.31-1.18-1.81-2.57,.53-1.45,1.13-2.87,1.9-4.22,.78-1.38,2.03-2.05,3.54-2.1,2.72-.08,5.45-.02,8.32-.02-.73,1.71-1.4,3.29-2.09,4.85Z"/><path class="d" d="M60.02,18.62c-1.41,.02-2.81,.01-4.22,0-.49,0-.82,.23-1,.67-.34,.79-.67,1.58-1,2.38-.17,.41-.12,.63,.41,.6,.72-.04,1.44,0,2.15,0s1.44-.02,2.15,0c.47,.02,.77-.16,.94-.58,.33-.79,.67-1.58,1.01-2.38,.18-.44,.14-.7-.44-.69Z"/><path class="d" d="M90.7,18.45c-.49,0-.97-.02-1.45,.02-.58,.05-.77,.58-.76,.99,0,.41,.51,.17,.78,.19,.48,.05,.97,.01,1.46,.01h0c.66,0,1.31,0,1.97,0,.62,0,.89-.49,.89-.96,0-.52-.54-.23-.82-.25-.68-.04-1.37-.01-2.06,0Z"/></g></g></g></svg>