<?xml version="1.0" encoding="UTF-8"?><svg xmlns="http://www.w3.org/2000/svg" viewBox="0 0 223.49 25.73"><defs><style>.d{fill:#fff;}</style></defs><g id="a"/><g id="b"><g id="c"><g><g><path class="d" d="M88.11,.37c-7.01-.02-12.51,5.44-12.53,12.44-.03,7.04,5.39,12.55,12.38,12.6,7.08,.04,12.6-5.44,12.61-12.51,0-7.02-5.45-12.5-12.46-12.52Zm-.07,21.93c-5.3-.01-9.36-4.13-9.35-9.47,.01-5.34,4.06-9.35,9.43-9.32,5.31,.02,9.33,4.13,9.28,9.49-.05,5.25-4.14,9.32-9.36,9.3Z"/><path class="d" d="M118.16,18.77c-.53-.72-.81-1.08-1.08-1.46-3.49-5.05-7.28-11.41-10.77-16.47h-3.07V24.9h3.04V7.46l.32-.08c.25,.34,.52,.67,.76,1.02,3.49,5.06,7.46,11.36,10.83,16.51h3.04V.84h-3.07V18.77Z"/><path class="d" d="M128.23,14.28h10.07v-3.06h-10.06V3.8h10.9V.87h-14.01V24.9h14.16v-3.05h-11.05v-7.57Z"/><path class="d" d="M63.99,13.34c-1.22-.72-2.59-1.19-3.91-1.71-1.32-.52-2.71-.89-4.01-1.47-1.95-.86-2.63-2.07-2.3-3.78,.31-1.63,1.7-2.68,3.64-2.86,2.91-.27,4.97,.96,6.26,3.62l2.5-1.44c-1.46-3.96-5.86-6.13-10.11-5.12-1.94,.46-3.54,1.39-4.59,3.12-2.03,3.3-.95,7.21,2.65,8.9,2.31,1.09,4.82,1.74,7.19,2.72,1.97,.82,2.72,2.07,2.5,3.71-.22,1.63-1.48,2.81-3.44,3.11-3.65,.56-6.62-.36-8.22-4.18l-2.59,1.49c2.26,7.2,12.4,7.25,15.75,3.5,2.66-2.97,2.11-7.6-1.31-9.62Z"/><path class="d" d="M154.53,13.28c-1.26-.73-2.69-1.19-4.05-1.74-1.45-.59-2.95-1.06-4.38-1.72-.56-.23-1.02-.64-1.33-1.16-.31-.52-.45-1.12-.4-1.72,.07-1.42,.79-2.42,2.06-3.01,2.44-1.14,5.59-.29,7.16,1.92,.27,.38,.52,.77,.83,1.24,.86-.53,1.64-1.01,2.41-1.48-2.17-4.89-8.05-6.78-12.45-4.11-2.19,1.32-3.19,3.32-3.16,5.86,.03,2.46,1.28,4.15,3.43,5.16,1.37,.64,2.84,1.08,4.25,1.64,1.41,.56,2.91,.99,4.18,1.79,2.13,1.33,1.95,4.26-.22,5.56-3.14,1.88-7.85,.58-9.56-2.62-.15-.28-.33-.55-.53-.88l-2.54,1.45c.1,.33,.15,.56,.24,.77,2.34,5.36,10.87,7.08,15.14,3.05,3.03-2.86,2.53-7.91-1.08-10Z"/><path class="d" d="M69.63,24.9h2.92V.83h-2.92V24.9Z"/><path class="d" d="M43.54,.75V24.91h2.94V.85c-.44-.04-.81-.09-1.18-.1-.56-.01-1.12,0-1.76,0Z"/><path class="d" d="M177.79,1.91c0,.1-.01,.2-.02,.31-.53-.47-1.12-.49-1.54-.07-.2,.21-.33,.48-.34,.77-.01,.29,.08,.57,.27,.8,.17,.2,.41,.34,.67,.37,.18,.03,.35,0,.52-.06,.16-.07,.31-.18,.41-.32,.01,.13,.02,.23,.03,.32h.34V1.91h-.34Zm-.77,1.83c-.15,0-.3-.04-.43-.13-.13-.08-.23-.2-.29-.34-.06-.14-.08-.3-.05-.45,.03-.15,.1-.29,.21-.4,.11-.11,.24-.18,.39-.21,.15-.03,.31-.01,.45,.04,.14,.06,.26,.16,.34,.29,.09,.13,.13,.28,.13,.43,0,.1-.02,.2-.06,.29-.04,.09-.09,.18-.17,.25-.07,.07-.16,.13-.25,.17-.09,.04-.19,.06-.29,.06Z"/><path class="d" d="M165.67,1.85c-.29,0-.56,.13-.77,.34-.2,.21-.32,.49-.32,.78,0,.29,.11,.57,.31,.78,.2,.21,.47,.34,.76,.35,.15,0,.3-.02,.45-.07,.14-.05,.27-.13,.38-.24,.11-.1,.2-.23,.26-.37,.06-.14,.09-.29,.09-.44,0-.15-.03-.3-.09-.44-.06-.14-.15-.27-.25-.37-.11-.11-.24-.19-.38-.24-.14-.05-.29-.08-.44-.07Zm-.02,1.89c-.15,0-.3-.05-.42-.13s-.22-.21-.28-.35c-.06-.14-.07-.29-.04-.44,.03-.15,.11-.28,.21-.39,.11-.11,.25-.18,.4-.21,.15-.03,.3-.01,.44,.05,.14,.06,.26,.16,.34,.29,.08,.13,.13,.28,.12,.43,0,.1-.02,.2-.06,.29-.04,.09-.1,.18-.17,.25-.07,.07-.16,.13-.25,.16-.09,.04-.19,.06-.29,.05Z"/><path class="d" d="M172.19,2.63c-.04-.54-.4-.84-.92-.77-.21,.05-.41,.13-.6,.24,0-.04,0-.12-.01-.18h-.34v2.12h.35v-1.08c0-.14,.02-.27,.07-.4,.05-.13,.15-.23,.28-.29,.12-.06,.27-.08,.4-.04,.12,.02,.23,.09,.3,.19,.07,.1,.11,.22,.1,.34v1.29h.37v-.4c.01-.34,.03-.67,0-1Z"/><path class="d" d="M173.19,3.51c-.07-.07-.13-.16-.17-.25-.04-.09-.06-.19-.06-.3s.02-.2,.06-.3c.04-.09,.1-.18,.17-.25,.34-.33,.8-.27,1.18,.16l.28-.16c-.11-.22-.3-.39-.52-.49-.23-.1-.48-.11-.72-.04-.24,.07-.45,.22-.6,.43-.15,.21-.22,.45-.21,.71,.01,.25,.11,.49,.27,.68,.17,.19,.39,.32,.64,.37,.52,.07,1.01-.17,1.14-.55l-.27-.15c-.41,.43-.85,.48-1.19,.15Z"/><path class="d" d="M168.54,2.2l-.47,1.23c-.02,.06-.05,.12-.09,.21-.2-.51-.38-.98-.56-1.44q-.12-.32-.51-.28c.27,.67,.54,1.31,.78,1.97,.07,.18,.18,.15,.3,.16,.03,0,.06,0,.09,0,.03,0,.06-.01,.08-.03,.03-.01,.05-.03,.06-.06,.02-.02,.03-.05,.04-.08,.23-.6,.48-1.21,.72-1.81,.02-.05,.03-.1,.05-.16q-.37-.04-.5,.29Z"/><path class="d" d="M163.75,2.21c0-.12-.01-.2-.02-.3h-.34v2.12h.35v-1.14c0-.15,.04-.31,.14-.43,.1-.12,.24-.19,.4-.21l.12-.02v-.37c-.13,0-.25,.03-.37,.09-.11,.06-.21,.15-.28,.26Z"/><path class="d" d="M175.08,4.03h.34V1.91h-.34v2.12Z"/><path class="d" d="M169.39,4.03h.34V1.92h-.34v2.11Z"/><path class="d" d="M175.24,1.01c-.07,0-.13,.03-.18,.08-.05,.05-.07,.11-.07,.18s.03,.13,.07,.17c.05,.05,.11,.07,.17,.07s.13-.03,.17-.07c.05-.05,.07-.11,.07-.17,0-.07-.02-.13-.07-.18-.05-.05-.11-.08-.17-.08Z"/><path class="d" d="M169.55,1.01c-.07,0-.13,.03-.17,.08-.05,.05-.07,.11-.07,.18,0,.03,0,.06,.02,.09,.01,.03,.03,.06,.05,.08,.02,.02,.05,.04,.08,.05,.03,.01,.06,.02,.09,.02,.03,0,.07,0,.1-.02,.03-.01,.06-.03,.08-.05,.02-.02,.04-.05,.05-.08,.01-.03,.02-.06,.02-.1,0-.07-.03-.13-.08-.17-.05-.05-.11-.07-.18-.07Z"/><path class="d" d="M161.45,1.58c-.1-.08-.21-.14-.33-.18-.14-.04-.28-.06-.43-.06h-1.05v2.8h.31v-.99h.68c.14,0,.29-.02,.42-.06,.13-.04,.24-.09,.35-.17,.1-.08,.18-.18,.24-.29,.06-.12,.09-.26,.09-.4,0-.13-.02-.26-.07-.37-.05-.11-.12-.2-.21-.27Zm-.09,.92c-.04,.08-.09,.15-.16,.2-.07,.06-.16,.1-.24,.13-.1,.03-.21,.05-.31,.04h-.69V1.64h.71c.19,0,.39,.04,.55,.15,.07,.05,.12,.12,.16,.2,.04,.08,.05,.17,.04,.25,0,.09-.01,.17-.05,.25Z"/><path class="d" d="M160.43,.24c-.49,0-.96,.14-1.37,.42-.41,.27-.72,.66-.91,1.11-.19,.45-.23,.95-.14,1.42s.33,.92,.67,1.26c.34,.34,.78,.58,1.26,.67,.48,.09,.97,.05,1.42-.14,.45-.19,.84-.5,1.11-.91,.27-.41,.41-.88,.41-1.37,0-.65-.26-1.28-.72-1.74-.46-.46-1.09-.72-1.74-.72Zm0,4.62c-.43,0-.85-.13-1.2-.36s-.63-.58-.8-.97c-.17-.4-.21-.83-.12-1.25,.08-.42,.29-.8,.59-1.11,.3-.3,.69-.51,1.11-.59,.42-.08,.85-.04,1.25,.12,.4,.16,.73,.44,.97,.8,.24,.36,.36,.77,.36,1.2,0,.57-.23,1.12-.63,1.53-.41,.41-.95,.63-1.53,.63Z"/><path class="d" d="M17.85,19.33c1.09-2,2.2-4,3.26-6.01,1.02-1.92,1.97-3.88,2.61-5.97,.27-.79,.41-1.62,.43-2.45-.02-1.06-.53-1.43-1.52-1.03-1.23,.5-2.21,1.37-3.15,2.28-2.88,2.79-5.36,5.95-7.93,9.02-2.14,2.56-4.2,5.18-6.62,7.5-.82,.8-1.67,1.55-2.7,2.09-.32,.17-.67,.27-1.03,.31-.6,.07-1.03-.35-1.15-.99-.14-.76,.02-1.48,.22-2.19,.51-1.8,1.27-3.5,2.08-5.19,1.01-2.11,2.11-4.18,3.27-6.2,.86-1.49,2.96-4.81,2.96-4.81,0,0,2.78-.07,3.64-.07-.75,.97-1.43,1.84-2.08,2.72-2.34,3.15-5.05,5.84-6.8,9.38-.53,1.07-1.01,2.17-1.07,3.4-.05,1.03,.14,1.42,1.05,.92,.93-.51,1.78-1.16,2.52-1.93,2.04-2.12,3.56-4.03,5.43-6.29,2.83-3.42,5.58-6.91,8.75-10.02,1.17-1.14,2.36-2.27,3.92-2.88,1.24-.48,2.21,.03,2.29,1.19,.04,.71-.02,1.42-.19,2.11-.61,2.54-1.67,4.9-2.84,7.21-.97,1.92-1.97,3.83-2.95,5.75,.05,.3-.17,.51-.26,.77-.09,.25-.32,.44-.37,.71-.02,.1-.05,.19-.1,.28-.64,.99-1.15,2.05-1.53,3.17-.04,.11-.13,.26,.02,.34s.24-.04,.34-.11c.45-.33,.86-.72,1.22-1.16,.87-.95,1.68-1.94,2.45-2.97,.8-.95,1.57-1.93,2.27-2.96,.28-.24,.47-.57,.76-.81,1.41-1.64,2.71-3.36,4.03-5.07,.08-.28,.31-.46,.46-.7,1.42-1.64,2.78-3.34,4.36-4.83,1.01-.96,2.03-1.9,3.26-2.6,.42-.24,.88-.42,1.36-.53,1.01-.21,1.55,.07,1.99,1.03,.24,1.54-.18,2.98-.7,4.4-1.08,2.95-2.47,5.76-3.82,8.58-.82,1.71-1.7,3.4-2.43,5.16-.31,.7-.63,1.39-.76,2.15-.02,.14-.12,.3,.02,.4,.14,.1,.32,.02,.46-.06,.66-.39,1.24-.89,1.72-1.48,1.51-1.76,4.43-6.74,4.43-6.74l2.89-.05s-2.92,3.74-3.54,4.56c-1.52,1.79-3.04,3.56-4.77,5.14-.57,.53-1.18,1.03-1.93,1.31-.7,.26-1.27-.04-1.45-.76-.07-.3-.07-.62,0-.92,.31-1.29,.76-2.54,1.33-3.74,1.32-2.87,2.81-5.65,4.16-8.5,.82-1.74,1.64-3.48,1.99-5.39,.06-.32,.08-.65,.07-.97-.02-.8-.47-1.11-1.24-.84-.53,.19-1.03,.47-1.47,.82-1.76,1.43-3.37,3.03-4.83,4.77-2.87,3.34-5.55,6.85-8.31,10.28-1.24,1.54-2.5,3.06-3.94,4.42-.33,.31-.7,.58-1.1,.79-.35,.18-.68,.25-1.02,0-.16-.12-.29-.28-.36-.47-.07-.19-.08-.4-.03-.59,.09-.59,.25-1.17,.49-1.72,.32-.69,.56-1.42,.93-2.08,.23-.27,.29-.63,.57-.85Z"/></g><path class="d" d="M185.09,25.73c-.16,0-.3-.13-.3-.3V.3c0-.16,.13-.3,.3-.3s.3,.13,.3,.3V25.44c0,.16-.13,.3-.3,.3Z"/><g><path class="d" d="M193.91,9.37c-.32-.22-.57-.53-.74-.94-.17-.41-.26-.9-.26-1.47s.08-1.07,.25-1.49c.17-.41,.41-.73,.72-.95s.68-.33,1.11-.33,.81,.1,1.12,.29,.55,.46,.73,.81l-.46,.27c-.16-.3-.36-.52-.58-.65-.22-.13-.49-.2-.81-.2-.46,0-.82,.2-1.08,.59-.26,.39-.39,.94-.39,1.64,0,.46,.06,.85,.18,1.19,.12,.33,.29,.59,.51,.77,.22,.18,.48,.27,.77,.27,.37,0,.65-.08,.85-.24s.39-.42,.57-.76l.49,.29c-.19,.4-.43,.71-.74,.92-.31,.21-.67,.32-1.09,.32-.44,0-.82-.11-1.15-.33Z"/><path class="d" d="M201.01,5.96v3.61h-.52v-.6c-.12,.23-.29,.41-.49,.54-.2,.13-.44,.19-.71,.19-.25,0-.49-.05-.7-.15-.21-.1-.38-.25-.51-.46-.13-.2-.19-.44-.19-.71v-2.42h.52v2.18c0,.72,.32,1.07,.96,1.07,.37,0,.65-.13,.83-.39,.19-.26,.28-.61,.28-1.06v-1.81h.52Z"/><path class="d" d="M202.21,9.57V3.97h.52v5.6h-.52Z"/><path class="d" d="M204.12,9.57v-3.13h-.62v-.48h.62v-1.2h.52v1.2h.83v.48h-.83v3.13h-.52Z"/><path class="d" d="M209.42,5.96v3.61h-.52v-.6c-.12,.23-.29,.41-.49,.54-.2,.13-.44,.19-.71,.19-.25,0-.49-.05-.7-.15-.21-.1-.38-.25-.51-.46-.13-.2-.19-.44-.19-.71v-2.42h.52v2.18c0,.72,.32,1.07,.96,1.07,.37,0,.65-.13,.83-.39,.19-.26,.28-.61,.28-1.06v-1.81h.52Z"/><path class="d" d="M212.71,5.89v.48c-.11-.05-.23-.08-.35-.08-.22,0-.43,.06-.62,.19-.19,.12-.34,.3-.46,.54-.12,.23-.17,.51-.17,.83v1.73h-.52v-3.61h.52v.73c.14-.27,.32-.48,.53-.63,.21-.15,.45-.22,.72-.22,.12,0,.24,.02,.35,.05Z"/><path class="d" d="M216.75,5.96v3.61h-.52v-.53c-.15,.21-.33,.37-.55,.48-.22,.12-.45,.17-.71,.17-.34,0-.65-.08-.93-.25-.27-.16-.49-.39-.64-.69-.15-.29-.23-.63-.23-1s.08-.7,.23-.99c.15-.29,.36-.52,.63-.68,.27-.16,.58-.25,.92-.25,.26,0,.5,.06,.72,.17,.22,.12,.4,.28,.55,.49v-.54h.52Zm-1.14,3.07c.19-.12,.34-.3,.45-.52,.11-.22,.16-.47,.16-.75s-.05-.53-.16-.75c-.11-.22-.26-.39-.45-.52-.19-.12-.41-.19-.66-.19s-.46,.06-.65,.19c-.19,.12-.34,.29-.45,.51-.11,.22-.16,.47-.16,.74s.05,.54,.16,.76c.11,.22,.26,.39,.45,.52,.19,.12,.41,.19,.65,.19s.47-.06,.66-.19Z"/><path class="d" d="M197.59,13.57h.65v5.26h-.57v-4.21l-1.76,4.21h-.54l-1.68-4.19v4.19h-.58v-5.26h.71l1.84,4.62,1.93-4.62Z"/><path class="d" d="M199.78,14.39c-.08-.08-.12-.18-.12-.3s.04-.21,.12-.29,.18-.12,.3-.12,.21,.04,.29,.12c.08,.08,.12,.18,.12,.3s-.04,.21-.12,.29-.18,.12-.29,.12-.22-.04-.3-.12Zm.03,4.44v-3.61h.52v3.61h-.52Z"/><path class="d" d="M202.15,18.73c-.27-.15-.47-.36-.61-.63l.47-.23c.19,.41,.56,.61,1.12,.61,.27,0,.49-.05,.66-.15,.17-.1,.26-.25,.26-.46s-.07-.37-.21-.47c-.14-.1-.39-.17-.74-.2-.49-.04-.85-.15-1.06-.33s-.32-.42-.32-.72c0-.33,.12-.59,.36-.78,.24-.19,.57-.28,1-.28,.72,0,1.2,.28,1.46,.85l-.47,.23c-.09-.21-.21-.36-.38-.46-.17-.1-.38-.15-.64-.15s-.47,.05-.61,.15-.21,.24-.21,.42c0,.17,.08,.31,.23,.41,.15,.11,.41,.17,.78,.2,.46,.04,.8,.15,1.02,.34s.34,.42,.34,.72c0,.24-.07,.45-.21,.62s-.32,.3-.56,.39-.48,.13-.75,.13c-.35,0-.66-.07-.92-.22Z"/><path class="d" d="M205.82,14.39c-.08-.08-.12-.18-.12-.3s.04-.21,.12-.29,.18-.12,.3-.12,.21,.04,.29,.12c.08,.08,.12,.18,.12,.3s-.04,.21-.12,.29-.18,.12-.29,.12-.22-.04-.3-.12Zm.03,4.44v-3.61h.52v3.61h-.52Z"/><path class="d" d="M208.48,18.71c-.27-.16-.49-.39-.64-.69-.15-.3-.23-.63-.23-1s.08-.7,.23-.99c.15-.29,.36-.52,.63-.68,.27-.16,.58-.25,.92-.25s.65,.08,.93,.25c.27,.16,.49,.39,.64,.69,.15,.29,.23,.63,.23,1s-.08,.7-.23,1c-.15,.29-.36,.52-.63,.69-.27,.16-.58,.25-.92,.25s-.65-.08-.93-.25Zm1.57-.42c.19-.12,.34-.3,.45-.52,.11-.22,.16-.47,.16-.75s-.05-.53-.16-.75c-.11-.22-.26-.39-.45-.52-.19-.12-.41-.19-.66-.19s-.46,.06-.65,.19c-.19,.12-.34,.29-.45,.51-.11,.22-.16,.47-.16,.74s.05,.54,.16,.76c.11,.22,.26,.39,.45,.52,.19,.12,.41,.19,.65,.19s.47-.06,.66-.19Z"/><path class="d" d="M214.54,15.25c.21,.1,.38,.25,.51,.46,.13,.2,.19,.44,.19,.71v2.42h-.52v-2.18c0-.72-.32-1.07-.96-1.07-.37,0-.65,.13-.83,.39-.19,.26-.28,.61-.28,1.06v1.81h-.52v-3.61h.52v.6c.12-.23,.29-.41,.49-.54,.2-.13,.44-.19,.71-.19,.25,0,.48,.05,.7,.15Z"/><path class="d" d="M218.9,15.34c.26,.16,.47,.38,.62,.65s.22,.58,.22,.92c0,.1,0,.17,0,.22h-2.97c.02,.37,.14,.69,.36,.95,.22,.26,.52,.39,.9,.39,.31,0,.56-.06,.77-.17,.2-.12,.37-.28,.49-.48l.42,.28c-.17,.27-.39,.48-.67,.63s-.61,.23-.99,.23c-.35,0-.66-.08-.93-.25-.27-.16-.49-.39-.64-.69-.15-.29-.23-.63-.23-1s.08-.7,.23-1c.15-.29,.36-.52,.63-.69,.27-.16,.58-.25,.92-.25,.32,0,.62,.08,.88,.24Zm.32,1.37c-.05-.38-.18-.66-.38-.85-.2-.19-.47-.28-.82-.28s-.61,.11-.82,.32-.35,.48-.41,.81h2.42Z"/><path class="d" d="M221.05,18.73c-.27-.15-.47-.36-.61-.63l.47-.23c.19,.41,.56,.61,1.12,.61,.27,0,.49-.05,.66-.15,.17-.1,.26-.25,.26-.46s-.07-.37-.21-.47c-.14-.1-.39-.17-.74-.2-.49-.04-.85-.15-1.06-.33s-.32-.42-.32-.72c0-.33,.12-.59,.36-.78,.24-.19,.57-.28,1-.28,.72,0,1.2,.28,1.46,.85l-.47,.23c-.09-.21-.21-.36-.38-.46-.17-.1-.38-.15-.64-.15s-.47,.05-.61,.15-.21,.24-.21,.42c0,.17,.08,.31,.23,.41,.15,.11,.41,.17,.78,.2,.46,.04,.8,.15,1.02,.34s.34,.42,.34,.72c0,.24-.07,.45-.21,.62s-.32,.3-.56,.39-.48,.13-.75,.13c-.35,0-.66-.07-.92-.22Z"/></g></g></g></g></svg>