<?xml version="1.0" encoding="UTF-8"?>
<svg id="Capa_2" data-name="Capa 2" xmlns="http://www.w3.org/2000/svg" viewBox="0 0 630.04 336.27">
  <defs>
    <style>
      .cls-1 {
        fill: #fff;
      }
    </style>
  </defs>
  <g id="Capa_2-2" data-name="Capa 2">
    <g id="Capa_1-2" data-name="Capa 1-2">
      <g>
        <path class="cls-1" d="m303.65,0h-63.28c-8.65,0-15.67,7.01-15.67,15.67v46.72c23.73-22.61,35.49-26.51,53.64-29.91,48.59-9.1,92.69,34.96,69.81,78.32-6.86,12.99-21.17,23.95-36.13,25.9-56.1,8.15-60.53-38.64-49.81-51.47,8.65-11.83,22.61-8.86,22.61-1.25-13.2,9.1-7.01,27.89,7.68,30.26,25.16,2.93,36.5-25.46,24-46.28-20.49-30.78-62.75-21.67-91.8,15.54v59.49c0,14.08,11.41,25.49,25.48,25.49h52.36c51.3,0,90.62-30.3,90.62-84.33S354.92.28,303.65,0"/>
        <path class="cls-1" d="m48.31,231.11H9.67c-5.34,0-9.67,4.33-9.67,9.66v77.93c0,8.55,6.93,15.48,15.48,15.48h32.15c31.39,0,55.45-18.54,55.45-51.6s-23.4-51.31-54.77-51.48m-1.55,80.94h-15.76c-3.09,0-5.6-2.51-5.6-5.6v-49.18c0-1.98,1.6-3.58,3.58-3.58h18.42c18.15,0,30.52,10.38,30.52,29.33s-13.01,29.03-31.15,29.03"/>
        <path class="cls-1" d="m463.11,229.59c-15.19,0-27.03,5-35.18,12.98-8.12-8.16-20.1-12.98-35.52-12.98-31.35,0-48.39,21.3-48.39,46.11v54.52c0,2.5,2.03,4.52,4.53,4.52h16.51c2.5,0,4.52-2.03,4.52-4.52v-52.85c0-14.61,7.61-24.04,22.83-24.04,14.12,0,21.68,8.35,22.32,22.12v54.77c0,2.5,2.03,4.52,4.52,4.52h16.56c2.5,0,4.53-2.03,4.53-4.52v-54.74c.64-13.52,8.23-22.15,22.78-22.15s22.37,9.13,22.37,24.04v52.85c0,2.5,2.03,4.52,4.53,4.52h16.51c2.5,0,4.52-2.03,4.52-4.52v-54.52c0-26.79-17.04-46.11-47.94-46.11"/>
        <path class="cls-1" d="m141.48,288.48c0,14.91,7.61,24.04,22.37,24.04s22.83-9.43,22.83-24.04v-52.84c0-2.5,2.03-4.53,4.52-4.53h16.51c2.5,0,4.53,2.03,4.53,4.53v54.52c0,24.8-17.04,46.11-48.39,46.11s-47.94-19.33-47.94-46.11v-54.52c0-2.5,2.03-4.53,4.53-4.53h16.51c2.5,0,4.52,2.03,4.52,4.53v52.84h.01Z"/>
        <path class="cls-1" d="m277.81,229.59c30.59,0,53.42,22.83,53.42,53.41s-22.83,53.11-53.42,53.11-53.11-22.83-53.11-53.11,22.83-53.41,53.11-53.41m.15,82.48c16.74,0,28.15-12.63,28.15-29.07s-11.41-29.22-28.15-29.22-28.15,12.48-28.15,29.22,11.87,29.07,28.15,29.07"/>
        <path class="cls-1" d="m576.62,229.59c30.59,0,53.42,22.83,53.42,53.41s-22.83,53.11-53.42,53.11-53.11-22.83-53.11-53.11,22.83-53.41,53.11-53.41m.15,82.48c16.74,0,28.15-12.63,28.15-29.07s-11.41-29.22-28.15-29.22-28.15,12.48-28.15,29.22,11.87,29.07,28.15,29.07"/>
      </g>
    </g>
  </g>
</svg>