<?xml version="1.0" encoding="UTF-8"?><svg xmlns="http://www.w3.org/2000/svg" viewBox="0 0 81.08 49.19"><defs><style>.d{fill:#b7b7b7;}.e{fill:#fff;}</style></defs><g id="a"/><g id="b"><g id="c"><g><g><path class="d" d="M47.39,47.51c-.12,0-.11,.07-.11,.16,0,.21,.03,.43-.04,.63-.09,.26-.3,.36-.55,.26-.33-.13-.66-.27-.98-.41-1.09-.46-2.13-.33-3.11,.32-.28,.19-.55,.41-.72,.71h.93c.12-.53,.55-.91,1.11-1.01,1.1-.19,1.96,.25,2.7,1.01h1.09c-.06-.51-.12-1.02-.18-1.54,0-.08-.03-.14-.14-.14Z"/><path class="d" d="M39,48.64c-.15,.02-.31,.04-.46,.05-.95,.11-1.89,.22-2.84,.34-.32,.04-.66,.03-.97,.15h4.47c.05-.13-.01-.25,0-.38,0-.13-.06-.18-.19-.16Z"/><path class="d" d="M37.05,47.51c-.1-.82-.2-1.64-.3-2.46-.06-.47-.11-.95-.16-1.42-.02-.14-.12-.21-.22-.14-.06,.04-.06,.11-.07,.17-.31,1.23-.85,2.35-1.62,3.37-.3,.4-.64,.76-1.17,.87-.71,.16-1.44,.24-2.16,.35-.1,.02-.14-.03-.15-.12-.06-.56-.13-1.13-.2-1.69-.1-.84-.19-1.68-.3-2.52-.05-.37-.06-.37,.31-.41h.02c.68-.09,1.2,.16,1.58,.72,.27,.39,.42,.82,.5,1.29,.01,.07,0,.19,.15,.16,.14-.03,.14-.07,.12-.19-.09-.69-.17-1.38-.25-2.08-.1-.88-.21-1.77-.31-2.65-.01-.09-.05-.12-.14-.11-.09,0-.15,.01-.14,.13,0,.19,.02,.39,0,.58-.05,.56-.2,1.08-.63,1.48-.3,.27-.67,.35-1.05,.41-.24,.04-.24,.04-.26-.19,0-.1-.02-.21-.04-.31-.09-.77-.18-1.54-.26-2.31-.06-.51-.11-1.01-.17-1.52-.01-.11,0-.16,.13-.17,.44-.05,.89-.06,1.33-.11,.65-.07,1.2,.16,1.72,.52,1,.71,1.8,1.61,2.44,2.65,.06,.1,.13,.17,.25,.13,.13-.04,.06-.15,.05-.23-.05-.48-.12-.96-.18-1.44-.09-.77-.18-1.54-.27-2.31,0-.09-.04-.11-.12-.1-.13,.01-.26,.03-.39,.04-.83,.1-1.66,.19-2.48,.29-.83,.1-1.65,.2-2.48,.3-.72,.09-1.45,.18-2.17,.26-.44,.05-.87,.09-1.31,.14-.09,.17-.17,.35-.22,.54,.16,.29,.25,.6,.31,.93,.09,.46,.07,.93,.21,1.37,.33,.45,.65,.9,.98,1.34,.08,.1,.08,.18,.03,.29-.22,.51-.44,1.02-.66,1.53,.03,.66,.14,1.31,.22,1.96,.03,.27,.02,.56,.11,.82,.3,.41,.6,.82,.9,1.23,.06-.01,.11-.02,.17-.03,1.27-.15,2.54-.29,3.81-.44,1.4-.16,2.81-.33,4.21-.5,.33-.04,.34-.06,.3-.39Z"/><path class="d" d="M46.11,45.91c.65-.69,.86-1.51,.69-2.44-.24-1.29-1.02-2.12-2.2-2.59-.88-.35-1.8-.55-2.71-.78-.54-.14-1.08-.27-1.54-.6-.62-.45-.8-1.31-.04-1.85,.63-.45,1.33-.49,2.02-.31,1.17,.3,1.98,1.1,2.62,2.08,.14,.22,.25,.47,.36,.71,.06,.13,.16,.09,.25,.08,.08,0,.05-.07,.05-.12-.14-1.13-.27-2.27-.41-3.4,0-.07,.02-.17-.12-.14-.11,.02-.17,.04-.16,.18,.02,.23,.03,.47-.03,.69-.09,.32-.34,.45-.65,.33-.42-.17-.85-.34-1.27-.52-.41-.17-.84-.25-1.29-.25-1.43,.06-2.54,.69-3.26,1.93-.54,.93-.43,1.9-.06,2.86,.19,.49,.52,.88,1.01,1.11,.26,.12,.53,.24,.8,.35,1.05,.43,2.16,.66,3.25,.96,.34,.09,.67,.21,.97,.39,.57,.34,.85,1.35,.24,1.93-.47,.45-1.06,.52-1.66,.5-1.04-.03-1.91-.49-2.64-1.2-.69-.67-1.2-1.47-1.57-2.36-.07-.17-.14-.33-.21-.5-.05-.12-.15-.09-.23-.08-.11,.02-.05,.1-.04,.16,.07,.62,.14,1.23,.21,1.85,.11,.93,.22,1.86,.34,2.79,0,.07-.04,.17,.1,.16,.11,0,.18-.04,.17-.18-.01-.31,0-.62,.04-.93,.05-.37,.37-.59,.72-.47,.41,.14,.8,.33,1.19,.53,.56,.28,1.15,.48,1.77,.52,1.32,.08,2.41-.41,3.31-1.37Z"/><path class="d" d="M23.34,11.25c.04,.2,.06,.39,.13,.58,.35,.48,.7,.97,1.06,1.45,.08,.11,.09,.19,.03,.31-.23,.54-.46,1.08-.68,1.62-.03,.09-.03,.19-.02,.29,.07,.61,.14,1.23,.21,1.84,.02,.15,0,.31,.08,.45,.29,.4,.58,.79,.87,1.19,.93-.11,1.86-.21,2.79-.32,1.46-.17,2.91-.35,4.37-.53,.24-.03,.23-.03,.2-.27-.05-.38-.1-.76-.14-1.13-.09-.78-.18-1.56-.27-2.35,0-.06-.02-.1-.09-.1-.06,0-.12,0-.14,.07-.01,.04-.02,.09-.04,.13-.26,1.06-.74,2.01-1.38,2.88-.24,.33-.51,.64-.93,.75-.65,.17-1.31,.23-1.97,.33-.13,.02-.15-.04-.16-.15-.02-.27-.06-.54-.09-.81-.11-.95-.23-1.9-.34-2.85-.03-.31-.02-.32,.28-.35,.54-.05,.99,.11,1.32,.56,.27,.37,.43,.78,.49,1.23,.01,.09,.05,.11,.14,.11,.09,0,.12-.03,.1-.13-.05-.42-.09-.83-.14-1.25-.08-.72-.17-1.44-.26-2.15-.03-.25-.06-.5-.08-.75-.01-.11-.07-.12-.16-.11-.11,0-.1,.07-.08,.15,.04,.22,0,.44-.03,.66-.09,.65-.41,1.3-1.25,1.43-.42,.06-.41,.08-.45-.34-.12-1.12-.25-2.23-.38-3.35-.02-.16,.04-.2,.19-.21,.28-.02,.55-.04,.83-.07,.66-.08,1.26,.06,1.81,.47,.85,.63,1.54,1.4,2.1,2.29,.05,.08,.09,.15,.21,.12,.14-.04,.06-.14,.06-.21-.03-.27-.07-.54-.1-.81-.09-.81-.19-1.62-.28-2.42-.01-.1-.05-.15-.16-.13-.7,.09-1.41,.17-2.12,.26-.8,.1-1.6,.19-2.4,.28-.72,.08-1.44,.17-2.15,.26-.52,.06-1.04,.12-1.56,.17-.05,.08-.09,.17-.11,.27,.03,.04,.09,.06,.14,.06,.37,.04,.5,.29,.56,.61Z"/><path class="d" d="M31.53,3.68c1.04,.45,2.12,.75,3.2,1.03,.5,.13,1.01,.24,1.47,.48,.5,.27,.72,.69,.7,1.24-.01,.5-.31,.83-.73,1.04-.56,.28-1.16,.27-1.76,.17-1.11-.2-1.94-.83-2.63-1.69-.55-.68-.95-1.44-1.26-2.26-.04-.11-.1-.18-.23-.14-.13,.04-.07,.14-.06,.21,.05,.46,.1,.92,.16,1.39,.13,1.06,.25,2.13,.38,3.19,0,.08,0,.18,.13,.17,.12,0,.15-.07,.14-.18-.02-.29,.02-.58,.04-.87,.04-.46,.37-.67,.8-.51,.48,.18,.93,.43,1.39,.63,1.43,.62,2.81,.54,4.1-.36,1.24-.87,1.69-2.01,1.3-3.39-.34-1.22-1.2-1.94-2.36-2.34-.73-.25-1.48-.44-2.24-.63-.54-.14-1.12-.2-1.56-.54-.37-.28-.74-.34-1.17-.31-.06,0-.13,0-.19,0-.27,0-.54,0-.82,0-.14,0-.19,.05-.23,.17-.18,.67-.12,1.33,.08,1.99,.21,.71,.64,1.21,1.34,1.51Z"/><path class="d" d="M37.73,8.88c-.42-.18-.85-.31-1.31-.29-.3-.01-.6,.04-.88,.12-1.6,.43-2.54,1.92-2.2,3.51,.14,.66,.43,1.23,1.09,1.53,.81,.38,1.66,.64,2.52,.87,.57,.15,1.15,.25,1.68,.52,.48,.24,.68,.64,.64,1.16-.04,.47-.35,.75-.77,.91-.42,.17-.87,.17-1.3,.1-1.03-.15-1.8-.73-2.43-1.53-.47-.59-.8-1.25-1.08-1.94-.03-.08-.07-.13-.17-.12-.11,.02-.08,.1-.08,.17,.04,.39,.08,.77,.13,1.15,.11,.96,.23,1.91,.34,2.87,0,.07-.01,.15,.1,.14,.09,0,.13-.04,.13-.15,0-.25,.02-.5,.04-.75,.03-.41,.32-.6,.7-.45,.33,.12,.64,.27,.95,.43,1.21,.61,2.42,.67,3.61-.04,.63-.37,1.15-.87,1.39-1.59,.35-1.04-.09-2.31-1.01-3.03-.52-.41-1.13-.59-1.74-.77-.72-.21-1.45-.39-2.17-.59-.32-.09-.61-.26-.85-.49-.31-.31-.41-.91-.04-1.28,.47-.48,1.05-.56,1.68-.5,.73,.07,1.28,.48,1.8,.95,.48,.43,.82,.94,1.07,1.53,.04,.1,.1,.12,.2,.09,.1-.03,.07-.1,.06-.17-.05-.39-.09-.78-.14-1.17-.07-.57-.13-1.14-.2-1.71-.01-.08-.02-.16-.15-.15-.14,.01-.11,.1-.1,.18,.02,.21,.02,.41-.04,.61-.08,.25-.3,.36-.54,.26-.31-.13-.62-.25-.93-.38Z"/><path class="d" d="M39.7,7.31c.54-.07,1.08-.13,1.62-.19,1.06-.13,2.12-.25,3.17-.38,.56-.07,1.12-.13,1.67-.2,.08,0,.15-.02,.14-.14,0-.12-.09-.1-.17-.1-.23,.01-.46,.04-.7,.04-.59,0-.83-.2-.92-.77-.17-1.02-.25-2.05-.39-3.07-.02-.14,.02-.2,.16-.22,.64-.08,1.28-.16,1.92-.24,.58-.07,1.15-.14,1.7-.36,.7-.29,1.22-.75,1.44-1.49,.04-.13,.03-.17-.12-.17-1.01,0-2.02,0-3.03,0-.12,0-.17,.03-.17,.16,0,.35-.04,.7-.15,1.03-.1,.3-.29,.49-.6,.58-.34,.1-.68,.16-1.02,.22-.15,.03-.2,0-.21-.14-.06-.56-.14-1.13-.19-1.69-.01-.12-.05-.16-.17-.16-.52,0-1.04,0-1.55,0-.5,0-1,0-1.5,0-.27,0-.26,0-.23,.27,.1,.82,.2,1.64,.3,2.46,.09,.72,.18,1.43,.26,2.15,.05,.43,.11,.86,.09,1.29-.01,.4-.18,.6-.56,.7-.27,.07-.55,.15-.83,.17-.09,0-.13,.04-.11,.14,.01,.1,.06,.11,.15,.1Z"/><path class="d" d="M48.56,6.14c0,.11,.09,.1,.15,.09,.26-.03,.53-.06,.79-.09,.94-.11,1.88-.23,2.83-.34,.08,0,.16,0,.15-.12,0-.13-.08-.12-.17-.12-.28,0-.57,.01-.85,0-.3,0-.51-.16-.56-.39-.04-.17-.07-.34-.04-.52,.09-.57,.19-1.13,.27-1.7,.02-.17,.09-.23,.25-.23,.14,0,.28-.03,.42-.05,.58-.07,1.17-.14,1.75-.21,.15-.02,.23,.03,.29,.17,.15,.35,.33,.69,.49,1.03,.15,.31,.31,.63,.37,.97,.05,.29-.02,.44-.3,.54-.29,.11-.59,.2-.9,.24-.08,0-.17,.02-.15,.15,.02,.12,.09,.1,.17,.09,.89-.11,1.78-.21,2.67-.32,1.2-.14,2.4-.28,3.6-.43,.06,0,.16,.03,.14-.1-.01-.09-.04-.15-.16-.14-.15,.01-.31,0-.47,0-.27,0-.5-.09-.69-.29-.15-.16-.27-.33-.37-.52-.67-1.22-1.28-2.46-1.91-3.7-.06-.12-.13-.15-.25-.15-1.12,0-2.24,0-3.36,0-.06,0-.11-.02-.18,.02,.05,.11,.1,.22,.15,.33,.27,.54,.54,1.09,.81,1.63,.07,.14,.03,.17-.11,.19-.19,.02-.39,.04-.58,.06-.48,.06-.96,.11-1.44,.17-.14,.02-.17-.02-.14-.15,.07-.27,.12-.54,.18-.81,.09-.42,.19-.84,.28-1.27,.01-.05,.07-.13-.01-.17-.11-.06-.26,.02-.29,.14-.13,.62-.25,1.24-.39,1.86-.22,1-.38,2-.69,2.98-.14,.46-.44,.73-.9,.84-.26,.06-.52,.11-.78,.15-.1,.02-.13,.05-.12,.15Z"/><path class="d" d="M23.17,8.5c0-.19-.02-.37-.05-.56-.07-.44-.05-.89-.21-1.31-.42-.58-.84-1.16-1.26-1.73-.08-.11-.1-.19-.04-.33,.29-.65,.56-1.31,.83-1.97,.06-.23,0-.45-.03-.67-.06-.42-.06-.85-.18-1.26-.15-.22-.3-.43-.46-.65-.77,0-1.55,0-2.32,0,.4,.54,.79,1.09,1.19,1.63,.09,.12,.1,.21,.04,.35-.41,.95-.81,1.9-1.22,2.85-.04,.1-.04,.17,.03,.26,.62,.84,1.24,1.69,1.86,2.53,.07,.1,.08,.17,.03,.28-.24,.54-.46,1.09-.69,1.64,.22-.03,.43-.06,.65-.08,.49-.05,.98-.11,1.47-.16,.12-.27,.24-.54,.35-.81Z"/><path class="d" d="M80.73,43.71c-.05,0-.1,0-.15,.01-.37,.05-.74,.1-1.11,.14-1.38,.16-2.76,.32-4.14,.48-.08,0-.16,.02-.15,.13,0,.13,.1,.1,.17,.09,.17,0,.35-.03,.52-.03,.42,0,.6,.14,.7,.55,.05,.23,.09,.46,.12,.69,.13,1.07,.26,2.14,.38,3.21,.02,.16,.08,.18,.22,.18,.43,0,.87,0,1.3,0,.42,0,.84,0,1.26,0q.25,0,.23-.25c0-.06,0-.12-.01-.17-.16-1.31-.35-2.62-.45-3.94-.04-.54,.11-.67,.56-.77,.19-.04,.38-.07,.57-.11,.06-.01,.1-.03,.09-.1,0-.06-.03-.11-.11-.11Z"/><path class="d" d="M74.36,44.57c0-.08,.01-.17-.13-.16-.14,0-.15,.08-.15,.19,0,.18-.01,.35-.07,.52-.08,.27-.34,.39-.59,.28-.16-.07-.32-.13-.48-.2-.67-.31-1.35-.52-2.11-.45-1.05,.1-2.03,.39-2.86,1.07-.98,.81-1.52,1.86-1.59,3.14,0,.16,.03,.21,.2,.21,.49-.01,.98,0,1.48,0h1.32c.39,0,.38,0,.34-.4-.07-.87,0-1.73,.31-2.56,.37-.98,1.13-1.24,2.02-1.07,.71,.14,1.19,.63,1.55,1.23,.33,.56,.6,1.14,.9,1.72,.05,.09,.07,.18,.21,.14,.13-.04,.07-.14,.06-.21-.13-1.15-.28-2.29-.41-3.44Z"/><path class="d" d="M55.74,46.74c-1.08-.01-2.14,.18-3.2,.3-.81,.09-1.62,.19-2.42,.29-.46,.05-.91,.11-1.37,.16-.07,0-.16,0-.16,.13,0,.13,.09,.1,.16,.1,.21,0,.41-.03,.62-.03,.44,0,.64,.15,.73,.59,.05,.24,.08,.48,.12,.73,.01,.09,.02,.18,.15,.18,.92,0,1.84,0,2.76,0,.09,0,.13-.04,.12-.13,0-.06-.02-.13-.02-.19-.06-.49-.11-.99-.17-1.48-.01-.11,.02-.18,.14-.18,.25,0,.49-.05,.74-.05,.39,0,.7,.14,.88,.52,.21,.43,.34,.88,.41,1.35,.02,.12,.06,.17,.2,.17,.45,0,.89,0,1.34,0,.46,0,.92,0,1.38,0,.07,0,.17,.03,.16-.1-.04-.58-.21-1.12-.63-1.55-.53-.54-1.18-.77-1.92-.77Z"/><path class="d" d="M62.22,45.97c-.05-.09-.11-.09-.19-.08-.33,.04-.67,.09-1,.11-.16,0-.21,.07-.23,.21-.2,.98-.4,1.96-.61,2.93h0v.05h3.64v-.04c-.54-1.06-1.08-2.12-1.61-3.18Zm-1.7,3.03s-.01,0-.02,0c0,0,0-.02,0-.03v.03Z"/><path class="d" d="M25.33,8.64c-.66,.12-1.32,.21-1.99,.3l-.14,.31c.1-.01,.19-.02,.29-.03,.72-.08,1.44-.17,2.15-.25,.7-.08,1.41-.17,2.11-.25,.37-.04,.74-.08,1.12-.13,.12-.01,.2-.04,.16-.2-.05-.21-.06-.43-.08-.65-.08-.7-.16-1.41-.24-2.12-.05-.44-.1-.87-.16-1.31,0-.07-.01-.14-.12-.14-.09,0-.15,.03-.15,.13,0,.04-.02,.07-.03,.11-.33,1.27-.9,2.42-1.71,3.45-.31,.4-.69,.68-1.21,.78Z"/><path class="d" d="M21.97,4.78c.28,.37,.56,.74,.83,1.12,0-.12,0-.23-.02-.35-.05-.38-.09-.77-.14-1.15-.02-.13,.02-.19,.16-.18,.14,0,.27,0,.41-.01,.58-.03,1.01,.24,1.34,.7,.29,.4,.44,.86,.52,1.34,.02,.14,.08,.15,.19,.12,.14-.03,.09-.14,.08-.22-.11-.94-.22-1.88-.34-2.83-.07-.62-.15-1.24-.22-1.86-.01-.12-.06-.13-.16-.13-.13,0-.12,.08-.11,.17,.05,.5-.02,.99-.22,1.46-.3,.68-.87,.91-1.55,.98-.13,.01-.16-.04-.17-.14-.02-.17-.04-.33-.06-.5-.19,.43-.38,.86-.56,1.29-.03,.07-.03,.12,.02,.18Z"/><path class="d" d="M21.04,7.73c-.58-.78-1.15-1.56-1.72-2.34,.08,.71,.17,1.42,.25,2.13,.05,.41,.1,.82,.09,1.23,0,.33-.17,.57-.46,.65-.29,.08-.58,.16-.89,.18l-.1,.26c.08,0,.15,0,.23-.02,.62-.07,1.25-.14,1.87-.21,.25-.57,.5-1.15,.75-1.72,.03-.06,.02-.1-.02-.16Z"/><path class="d" d="M18.71,.66c.15,.79,.21,1.59,.32,2.38,.07,.51,.1,1.03,.2,1.54,.01-.02,.03-.04,.04-.06,.36-.85,.72-1.7,1.09-2.54,.05-.1,.01-.17-.04-.24-.42-.57-.83-1.14-1.24-1.71h-.79c.28,.16,.38,.39,.43,.64Z"/><path class="d" d="M25.65,.12c.85,.67,1.53,1.48,2.1,2.39,.05,.09,.09,.16,.22,.12,.13-.05,.07-.14,.07-.21-.07-.66-.15-1.32-.23-1.98q-.05-.42-.48-.42h-1.74c0,.07,.04,.08,.06,.1Z"/><path class="d" d="M37.25,.82c.05,.14,.14,.1,.23,.09,.13-.02,.07-.11,.06-.18,0-.06-.02-.11-.02-.17q-.04-.58-.66-.53c.07,.14,.14,.27,.2,.39,.07,.13,.14,.26,.19,.4Z"/><path class="d" d="M27.12,48.73c-.27,.06-.54,.13-.81,.17-.08,.01-.12,.04-.1,.14,.02,.09,.05,.12,.14,.1,.61-.08,1.21-.15,1.82-.23-.15-.24-.32-.47-.5-.69-.07,.29-.26,.45-.54,.51Z"/><path class="d" d="M24.22,13.4c-.21-.28-.42-.56-.63-.85,.06,.65,.13,1.3,.23,1.95,.14-.32,.28-.63,.42-.95,.02-.06,.03-.11-.02-.16Z"/><path class="d" d="M23.7,18.86c-.23,.05-.47,.11-.7,.15-.1,.02-.09,.07-.09,.14,0,.08,.06,.07,.11,.06,.14-.01,.28-.02,.42-.04,.4-.06,.8-.07,1.19-.16l-.45-.63c-.04,.28-.22,.43-.48,.48Z"/><path class="d" d="M27.65,43.31c.02-.06,.03-.1,0-.16-.19-.24-.37-.49-.56-.74l.2,1.73c.12-.28,.24-.55,.36-.83Z"/><path class="d" d="M25.12,39.06c-.07,0-.15,.01-.13,.12,.02,.1,.05,.14,.16,.13,.33-.05,.65-.04,.98-.03l.15-.35c-.39,.04-.78,.08-1.17,.13Z"/><path class="d" d="M21.85,10.5c.01,.06,.02,.13,.11,.12,.1,0,.19,0,.29,0l.11-.25-.42,.06s-.11,0-.1,.08Z"/><path class="d" d="M52.8,46c.47-.06,.95-.11,1.42-.17,.07,0,.14-.03,.12-.13-.02-.09-.06-.13-.16-.12-.2,.02-.4,.06-.6,.05-.59,0-.89-.02-1.03-.78-.18-1.02-.26-2.06-.4-3.09-.02-.14,.03-.17,.14-.18,.42-.05,.83-.11,1.25-.17,.67-.09,1.35-.12,2.01-.31,.76-.22,1.39-.6,1.72-1.35,.22-.49,.26-1.02,.22-1.56-.08-1.13-.73-1.96-1.84-2.38-.44-.16-.9-.16-1.36-.14-.22,0-.44-.02-.66,0-1.04,.12-2.08,.24-3.12,.37-1.33,.16-2.65,.32-3.98,.47-.08,0-.13,.02-.13,.12,0,.1,.05,.12,.13,.12,.15-.01,.31-.02,.46-.03,.68-.05,1.04,.03,1.17,.83,.1,.58,.16,1.16,.23,1.75,.1,.83,.2,1.65,.3,2.48,.09,.73,.17,1.46,.26,2.19,.06,.49,.13,.97,.13,1.47,0,.44-.18,.64-.6,.75-.26,.07-.52,.15-.79,.17-.08,0-.13,.04-.11,.14,.01,.1,.07,.1,.15,.09,.26-.03,.51-.06,.77-.09,.72-.09,1.45-.17,2.17-.26,.71-.08,1.41-.16,2.12-.25Zm-1.09-9.84c.33-.02,.66-.06,1-.04,.32,.02,.55,.16,.72,.42,.32,.51,.47,1.09,.56,1.68,.06,.34,.09,.69,.08,1.03,0,.39-.02,.76-.12,1.13-.09,.36-.29,.62-.68,.72-.34,.09-.69,.15-1.04,.22-.11,.02-.13-.02-.15-.11-.13-1.13-.26-2.27-.39-3.4-.06-.47-.11-.94-.18-1.4-.02-.16,0-.22,.19-.23Z"/><path class="d" d="M67.99,44.08c0-.1-.06-.11-.14-.11-.11,0-.22,0-.33,0-.45,.03-.79-.16-1.03-.53-.07-.11-.15-.23-.21-.35-.7-1.26-1.33-2.56-1.99-3.84-.77-1.49-1.52-2.98-2.28-4.47-.05-.11-.11-.13-.22-.11-.38,.06-.76,.11-1.13,.13-.19,.01-.25,.08-.29,.25-.13,.67-.27,1.34-.41,2.01-.25,1.22-.49,2.44-.76,3.66-.26,1.18-.44,2.37-.8,3.53-.15,.49-.45,.77-.93,.89-.23,.06-.47,.09-.7,.14-.09,.02-.2,0-.18,.16,.03,.16,.14,.09,.21,.08,.51-.06,1.01-.12,1.52-.18,.69-.08,1.37-.16,2.06-.24,.06,0,.14,0,.13-.11,0-.09-.05-.14-.15-.13-.14,0-.27,0-.41,0h0c-.08,.01-.17,.01-.25,.01-.69,0-.85-.25-.8-.91,.04-.6,.19-1.18,.28-1.78,.02-.1,.05-.15,.17-.16,.77-.08,1.54-.17,2.31-.27,.11-.01,.16,.02,.2,.12,.15,.32,.3,.64,.46,.96,.18,.36,.36,.72,.44,1.11,.05,.26-.02,.41-.26,.51-.29,.13-.6,.2-.91,.25-.09,.01-.18,0-.17,.14,.01,.17,.13,.1,.2,.09,.96-.11,1.91-.23,2.87-.34,1.13-.13,2.26-.26,3.39-.39,.09-.01,.12-.04,.12-.13Zm-8-2.43c-.19,.02-.38,.05-.58,.07-.09,.01-.15,.01-.12-.12,.24-1.09,.48-2.19,.72-3.29,0,0,.01-.02,.04-.05,.53,1.06,1.05,2.11,1.58,3.18-.57,.07-1.11,.13-1.65,.2Z"/><path class="d" d="M81.04,4.17c-.07-.04-.13-.08-.2-.11-1.45-.64-2.91-.61-4.36-.01-1.21,.5-2.09,1.36-2.58,2.59-.28,.72-.3,1.47-.2,2.23,.12,.92,.47,1.74,1.12,2.42,.81,.84,1.8,1.33,2.97,1.44,1.15,.11,2.24-.07,3.26-.63-.07-.07-.06-.17-.06-.26,0-2.47,0-4.94,0-7.41,0-.09,0-.18,.06-.26v7.92h.04V4.17s-.03,0-.04,0Zm-.98,7.47c-.27,.71-.97,1.03-1.67,.77-.22-.08-.39-.23-.5-.43-.36-.66-.58-1.36-.72-2.1-.22-1.22-.36-2.45-.36-3.7,0-.43,.03-.87,.16-1.28,.17-.55,.49-.95,1.11-1.02,.51-.05,.87,.18,1.15,.58,.33,.48,.49,1.04,.61,1.6,.21,.98,.34,1.97,.4,2.97,.02,.31,.04,.62,.03,.93,0,.57,0,1.14-.21,1.68Z"/><path class="d" d="M45.84,12.6c.78-.1,1.56-.19,2.34-.31,.56-.09,1.07-.29,1.49-.7,.39-.38,.54-.87,.58-1.4,.06-.88-.16-1.64-.89-2.22-.56-.45-1.21-.55-1.9-.53-.97,.02-1.93,.18-2.89,.29-.81,.09-1.62,.19-2.42,.29-.5,.06-1,.13-1.5,.19-.07,0-.1,.03-.1,.11,0,.08,.04,.1,.11,.09,.14-.01,.27-.02,.41-.03,.68-.05,.92,.07,1.04,.76,.05,.3,.09,.6,.13,.9,.09,.81,.2,1.63,.29,2.44,.09,.75,.18,1.5,.27,2.25,.05,.45,.12,.9,.09,1.35-.02,.3-.16,.48-.45,.56-.24,.06-.47,.13-.72,.16-.07,0-.14,0-.13,.12,.01,.12,.09,.09,.16,.08,.17-.01,.35-.03,.52-.05,.92-.11,1.83-.22,2.75-.33,.78-.09,1.56-.18,2.35-.27,.08,0,.11-.04,.11-.12,0-.09-.06-.1-.13-.1-.19,.01-.39,.02-.58,.04-.49,.05-.72-.11-.82-.59-.18-.88-.24-1.78-.35-2.67-.03-.26-.02-.26,.24-.29Zm-.31-.31c-.12-1.01-.23-2.02-.35-3.04-.04-.37-.09-.73-.14-1.09-.03-.24-.02-.26,.22-.29,.3-.03,.6-.05,.91-.01,.27,.03,.44,.18,.56,.4,.26,.46,.39,.96,.47,1.48,.04,.27,.06,.55,.05,.83,0,.32,0,.63-.08,.94-.08,.35-.26,.59-.63,.68-.3,.07-.59,.13-.89,.18-.1,.02-.11-.02-.12-.09Z"/><path class="d" d="M58.76,8.03c-.46,.96-.51,1.98-.29,3.01,.37,1.71,1.43,2.82,3.08,3.35,.9,.29,1.81,.25,2.72,.06,.79-.17,1.51-.49,2.03-1.15,.55-.71,.82-1.52,.83-2.41,0-.08,0-.16-.11-.16-.1,0-.11,.06-.12,.14,0,.05,0,.09,0,.14-.07,.75-.28,1.46-.74,2.07-.6,.8-2,1.18-2.89,.45-.5-.41-.79-.96-1.04-1.55-.34-.83-.5-1.69-.55-2.58-.05-.84,.02-1.67,.31-2.46,.35-.93,1.05-1.28,2.02-1.09,.75,.15,1.23,.67,1.59,1.3,.32,.55,.59,1.12,.88,1.68,.04,.07,.06,.14,.17,.11,.11-.03,.09-.11,.08-.18-.05-.44-.1-.88-.16-1.33-.09-.72-.17-1.45-.26-2.17-.01-.09-.02-.16-.14-.15-.12,.01-.13,.08-.13,.17,0,.17,0,.35-.05,.52-.08,.29-.34,.41-.62,.3-.22-.09-.44-.18-.66-.28-.51-.23-1.02-.42-1.52-.37-.52,0-.97,.05-1.41,.17-1.37,.35-2.42,1.13-3.04,2.42Z"/><path class="d" d="M54.6,15.14c-.26,.11-.53,.18-.8,.22-.09,.01-.12,.04-.12,.13,0,.11,.08,.07,.14,.07,.64-.07,1.27-.14,1.91-.22,.83-.1,1.67-.2,2.5-.3,.36-.04,.72-.09,1.08-.14,.06,0,.13,0,.11-.11-.02-.08-.05-.11-.13-.1-.08,0-.17,0-.25,0-.43,.04-.74-.14-.95-.5-.21-.36-.41-.72-.6-1.08-1.08-2.12-2.16-4.23-3.23-6.36-.09-.17-.19-.19-.35-.17-.3,.04-.6,.08-.9,.11-.14,.01-.2,.07-.23,.2-.15,.73-.3,1.47-.45,2.2-.21,1.04-.42,2.09-.65,3.13-.2,.93-.35,1.86-.64,2.77-.12,.37-.35,.6-.71,.7-.23,.07-.48,.1-.72,.15-.08,.02-.16,.01-.14,.13,.02,.11,.1,.08,.17,.07,.35-.04,.71-.08,1.06-.12,.68-.08,1.36-.16,2.04-.24,.07,0,.16,0,.16-.12,0-.13-.09-.1-.16-.1-.2,0-.4,.04-.6,.03-.5-.04-.64-.19-.64-.79,.03-.42,.15-.93,.23-1.46,.03-.2,.11-.25,.29-.27,.61-.06,1.22-.13,1.83-.22,.13-.02,.2,.01,.26,.13,.17,.38,.36,.76,.54,1.14,.1,.2,.18,.42,.22,.64,.05,.24-.02,.37-.24,.46Zm-.92-2.61c-.58,.05-1.16,.13-1.73,.2-.1,.01-.15,0-.12-.11,.21-.96,.42-1.91,.63-2.87,.07,0,.07,.06,.09,.1,.41,.83,.82,1.66,1.24,2.48,.07,.13,.07,.18-.11,.2Z"/><path class="d" d="M67.26,5.26c.17,0,.34-.02,.5-.02,.51,0,.66,.13,.77,.53,.02,.06,.03,.13,.04,.19,.18,1.12,.29,2.24,.42,3.36,.14,1.13,.29,2.27,.38,3.41,.03,.41-.13,.69-.52,.79-.19,.05-.38,.08-.57,.13-.06,.02-.18-.04-.17,.1,.01,.14,.12,.11,.2,.1,.49-.05,.99-.11,1.48-.17,.83-.1,1.65-.2,2.48-.3,.47-.06,.94-.11,1.41-.16,.08,0,.13-.04,.12-.14,0-.1-.07-.09-.14-.09-.15,.01-.31,.03-.46,.04-.55,0-.7-.12-.81-.65-.06-.29-.1-.59-.14-.88-.13-1.05-.24-2.1-.37-3.16-.11-.94-.24-1.88-.32-2.83-.04-.53,.1-.71,.63-.81,.15-.03,.29-.05,.44-.08,.07-.01,.16,0,.15-.13-.01-.13-.1-.1-.17-.09-.69,.08-1.38,.17-2.08,.25-.71,.08-1.41,.17-2.12,.25-.4,.05-.8,.09-1.19,.14-.07,0-.12,.04-.11,.12,.01,.08,.06,.09,.12,.09Z"/></g><g><path class="e" d="M28.48,48.7c-.26-.37-.54-.73-.8-1.1-.27-.36-.52-.72-.79-1.07-.12-.15-.12-.28-.05-.44,.18-.4,.35-.8,.52-1.21,.23-.51,.44-1.02,.67-1.53,.06-.14,.05-.25-.05-.37-.33-.44-.65-.89-.98-1.33-.27-.37-.54-.75-.82-1.12-.08-.11-.09-.22-.03-.34,.12-.26,.23-.53,.34-.8,.06-.18,.19-.34,.19-.54,.2-.48,.39-.96,.6-1.42,.08-.17,.05-.28-.05-.41-.61-.81-1.2-1.64-1.81-2.45-.07-.09-.08-.17-.03-.28,.41-.94,.8-1.88,1.21-2.81,.07-.15,.07-.25-.04-.4-.61-.81-1.2-1.64-1.81-2.45-.08-.11-.09-.19-.04-.31,.41-.95,.81-1.9,1.22-2.84,.05-.12,.04-.19-.03-.29-.62-.84-1.23-1.68-1.85-2.52-.07-.1-.08-.17-.03-.28,.36-.84,.7-1.69,1.09-2.52,.16-.35,.21-.63-.09-.9,.01-.1-.06-.15-.1-.22-.25-.33-.49-.67-.74-1.01-.25-.34-.5-.69-.76-1.03-.07-.1-.07-.18-.03-.29,.18-.41,.35-.82,.53-1.23,.23-.53,.46-1.07,.69-1.6,.05-.13,.04-.23-.04-.34-.36-.48-.71-.97-1.07-1.45-.24-.34-.49-.66-.73-1-.05-.07-.11-.13-.09-.22,.02-.09,.09-.18,.07-.28l.45-1.06c.11-.07,.13-.19,.14-.31,.15-.44,.36-.87,.54-1.3,.05-.12,.04-.21-.04-.31-.35-.48-.7-.96-1.04-1.44-.04-.1-.09-.18-.15-.27-.18-.25-.36-.5-.55-.75-.11-.15-.11-.26-.04-.42,.16-.38,.37-.74,.45-1.15,.23-.54,.45-1.08,.68-1.62,.05-.11,.05-.19-.03-.29-.27-.36-.55-.72-.8-1.1-.15-.23-.32-.33-.59-.27-.04,.08,.02,.13,.06,.18,.12,.17,.25,.33,.37,.5,.17,.25,.36,.48,.53,.73,.06,.09,.09,.17,.04,.27-.13,.29-.23,.59-.38,.87-.27,.66-.56,1.32-.84,1.98-.06,.14-.05,.25,.04,.37,.42,.57,.84,1.14,1.26,1.71,.18,.24,.35,.49,.54,.73,.09,.11,.1,.21,.04,.34-.11,.25-.22,.5-.32,.76-.03,.07-.07,.14-.09,.21-.07,.21-.22,.4-.22,.64-.15,.35-.3,.7-.45,1.05-.06,.08-.14,.14-.11,.25-.03,.14,.09,.22,.16,.31,.39,.54,.78,1.08,1.17,1.62,.11,.28,.33,.49,.5,.74,.1,.14,.12,.25,.05,.41-.12,.26-.26,.52-.31,.81-.28,.66-.55,1.33-.84,1.99-.05,.11-.04,.18,.03,.27,.4,.53,.78,1.07,1.18,1.61,.09,.25,.26,.45,.45,.63,.05,.06,.1,.14,.16,.19,.16,.15,.14,.29,.06,.48-.4,.91-.78,1.83-1.18,2.74-.06,.13-.04,.22,.04,.33,.61,.83,1.22,1.66,1.83,2.48,.07,.1,.09,.17,.04,.29-.41,.95-.81,1.9-1.22,2.84-.06,.13-.04,.22,.04,.33,.61,.83,1.22,1.66,1.83,2.48,.07,.1,.09,.18,.04,.3-.41,.95-.81,1.9-1.22,2.85-.05,.12-.05,.2,.03,.31,.62,.84,1.23,1.68,1.85,2.52,.04,.06,.1,.11,.06,.2-.23,.52-.46,1.05-.69,1.58-.1,.09-.15,.21-.15,.35-.12,.28-.22,.58-.36,.85-.12,.23-.09,.38,.07,.58,.43,.56,.83,1.13,1.24,1.7,.09,.25,.28,.43,.43,.64,.1,.14,.1,.25,.04,.39-.1,.23-.23,.45-.26,.7-.29,.69-.58,1.38-.87,2.06-.06,.13-.05,.22,.04,.34,.41,.55,.81,1.11,1.22,1.67,.12,.27,.29,.49,.5,.69l.23,.28h.31c.03-.14-.11-.2-.15-.31,.01-.07-.04-.12-.08-.17Z"/><path class="e" d="M24.29,46.77c-.07-.09-.09-.16-.04-.28,.41-.95,.82-1.91,1.23-2.86,.05-.12,.04-.21-.04-.31-.61-.82-1.21-1.65-1.82-2.47-.09-.12-.1-.21-.04-.35,.41-.94,.81-1.89,1.22-2.83,.05-.12,.05-.19-.03-.29-.62-.84-1.23-1.68-1.85-2.52-.07-.1-.08-.17-.03-.28,.41-.95,.81-1.9,1.22-2.84,.06-.13,.04-.22-.04-.33-.61-.82-1.21-1.65-1.82-2.47-.08-.11-.1-.2-.04-.33,.41-.95,.81-1.9,1.22-2.85,.05-.12,.04-.19-.04-.29-.61-.83-1.22-1.66-1.83-2.48-.08-.11-.1-.2-.04-.33,.41-.95,.82-1.9,1.23-2.84,.05-.11,.04-.18-.03-.28-.62-.84-1.23-1.68-1.85-2.52-.08-.1-.08-.18-.03-.29,.41-.94,.81-1.89,1.22-2.83,.06-.13,.05-.23-.04-.35-.61-.82-1.21-1.64-1.82-2.47-.05-.07-.12-.13-.07-.24,.19-.43,.38-.86,.57-1.29,.06-.05,.09-.12,.12-.19,.19-.44,.37-.89,.58-1.33,.09-.19,.07-.33-.06-.49-.59-.8-1.17-1.59-1.76-2.39-.09-.12-.1-.21-.04-.35,.39-.9,.77-1.79,1.16-2.69,.09-.2,.09-.36-.05-.53-.27-.35-.53-.72-.8-1.08-.12-.16-.21-.36-.4-.47h-.39c0,.14,.09,.22,.16,.32,.33,.45,.65,.9,.99,1.34,.09,.12,.11,.23,.05,.37-.19,.44-.39,.89-.57,1.34-.16,.39-.37,.77-.47,1.18-.16,.29-.18,.57,.08,.82,.04,.12,.11,.22,.18,.32,.46,.63,.92,1.26,1.39,1.89,.12,.15,.13,.28,.05,.46-.2,.46-.4,.91-.58,1.37-.02,.06-.07,.11-.04,.18-.17,.4-.33,.81-.51,1.21-.05,.11-.04,.19,.03,.29,.62,.83,1.22,1.67,1.84,2.5,.07,.1,.09,.18,.04,.3-.41,.95-.81,1.9-1.22,2.85-.05,.12-.05,.2,.03,.31,.62,.83,1.22,1.67,1.84,2.5,.07,.1,.09,.18,.04,.29-.41,.94-.81,1.89-1.22,2.83-.06,.13-.05,.23,.04,.35,.61,.82,1.21,1.65,1.82,2.47,.08,.11,.09,.2,.04,.33-.41,.94-.81,1.89-1.22,2.83-.05,.12-.05,.2,.03,.31,.61,.83,1.21,1.66,1.83,2.48,.09,.12,.09,.2,.03,.33-.41,.94-.81,1.89-1.22,2.83-.05,.12-.04,.21,.04,.31,.62,.83,1.22,1.67,1.84,2.5,.07,.09,.08,.17,.04,.28-.41,.94-.81,1.89-1.22,2.83-.06,.14-.06,.24,.04,.36,.61,.82,1.21,1.65,1.82,2.47,.08,.11,.09,.19,.04,.31-.41,.95-.81,1.9-1.23,2.84-.05,.12-.04,.19,.03,.29,.58,.79,1.16,1.58,1.74,2.38h.35c0-.08-.05-.13-.09-.18-.55-.75-1.09-1.49-1.64-2.24Z"/><path class="e" d="M16.12,41.68c-.08-.1-.08-.18-.03-.3,.4-.94,.8-1.88,1.21-2.81,.07-.15,.05-.25-.04-.38-.6-.81-1.19-1.63-1.79-2.44-.08-.11-.11-.2-.04-.34,.41-.95,.81-1.9,1.22-2.84,.05-.11,.04-.18-.03-.28-.62-.83-1.22-1.67-1.84-2.5-.08-.11-.1-.19-.04-.31,.41-.95,.81-1.9,1.23-2.84,.06-.13,.04-.21-.04-.31-.62-.83-1.22-1.67-1.84-2.5-.07-.09-.08-.17-.03-.28,.41-.94,.8-1.87,1.21-2.81,.07-.16,.06-.26-.04-.4-.61-.82-1.21-1.65-1.82-2.47-.07-.1-.08-.17-.03-.28,.41-.95,.81-1.9,1.22-2.85,.06-.13,.05-.21-.03-.33-.62-.83-1.22-1.67-1.84-2.5-.07-.1-.08-.17-.03-.28,.41-.95,.81-1.9,1.23-2.84,.06-.13,.05-.22-.04-.33-.61-.83-1.22-1.66-1.83-2.48-.08-.11-.09-.19-.03-.31,.41-.95,.81-1.9,1.22-2.85,.05-.11,.05-.19-.03-.29-.57-.77-1.13-1.54-1.7-2.31-.18-.25-.19-.25-.51-.18,.03,.05,.07,.1,.1,.14,.57,.78,1.14,1.56,1.71,2.33,.1,.14,.13,.24,.05,.41-.41,.93-.8,1.87-1.21,2.81-.05,.11-.04,.18,.03,.28,.62,.84,1.23,1.68,1.85,2.52,.08,.1,.08,.18,.03,.3-.41,.95-.81,1.9-1.22,2.84-.05,.12-.04,.21,.04,.31,.61,.82,1.21,1.65,1.82,2.47,.09,.12,.1,.21,.04,.35-.41,.94-.81,1.89-1.22,2.83-.05,.12-.04,.2,.04,.31,.61,.82,1.21,1.65,1.82,2.47,.09,.12,.11,.21,.04,.35-.41,.93-.8,1.87-1.21,2.81-.06,.13-.05,.21,.03,.33,.62,.83,1.23,1.67,1.84,2.5,.07,.09,.08,.16,.03,.28-.4,.92-.79,1.85-1.19,2.77-.09,.19-.06,.32,.06,.48,.6,.8,1.18,1.6,1.77,2.4,.08,.11,.09,.19,.04,.32-.41,.95-.81,1.9-1.22,2.84-.05,.12-.04,.19,.03,.29,.62,.84,1.23,1.68,1.85,2.52,.07,.1,.08,.17,.03,.28-.41,.95-.82,1.91-1.23,2.86-.05,.11-.04,.19,.03,.3,.62,.83,1.22,1.67,1.84,2.5,.07,.1,.09,.18,.04,.29-.41,.95-.82,1.91-1.23,2.86-.05,.12-.04,.19,.04,.29,.37,.5,.74,1.01,1.11,1.51h.35c.01-.08-.05-.13-.09-.18-.34-.47-.68-.93-1.02-1.39-.07-.09-.07-.16-.03-.26,.41-.96,.82-1.92,1.23-2.88,.05-.11,.04-.18-.03-.28-.62-.84-1.23-1.68-1.85-2.51Z"/><path class="e" d="M19.32,47.36c-.08-.11-.1-.2-.04-.33,.41-.94,.81-1.89,1.22-2.83,.06-.13,.04-.22-.04-.33-.61-.82-1.21-1.65-1.82-2.47-.08-.11-.1-.2-.04-.33,.41-.94,.81-1.89,1.22-2.83,.05-.12,.05-.21-.04-.31-.61-.83-1.22-1.66-1.83-2.48-.09-.11-.09-.2-.04-.33,.41-.94,.81-1.89,1.22-2.83,.05-.12,.04-.2-.04-.31-.61-.83-1.22-1.66-1.83-2.48-.08-.1-.1-.18-.04-.31,.41-.94,.81-1.89,1.22-2.83,.06-.14,.04-.23-.04-.35-.61-.82-1.21-1.65-1.82-2.47-.08-.11-.09-.19-.04-.31,.41-.95,.81-1.9,1.22-2.85,.05-.11,.05-.19-.03-.29-.61-.83-1.22-1.66-1.83-2.48-.09-.12-.1-.21-.04-.35,.41-.94,.81-1.89,1.22-2.83,.05-.12,.04-.19-.03-.3-.62-.83-1.22-1.67-1.84-2.5-.08-.11-.08-.19-.03-.31,.41-.95,.81-1.9,1.22-2.85,.05-.11,.05-.19-.03-.29-.62-.83-1.22-1.67-1.84-2.5-.08-.11-.09-.19-.04-.31,.41-.95,.81-1.9,1.22-2.84,.05-.11,.05-.19-.03-.29-.5-.67-1-1.35-1.49-2.03-.17-.23-.22-.25-.51-.17,.55,.75,1.1,1.5,1.65,2.25,.07,.09,.08,.17,.03,.28-.41,.93-.8,1.87-1.21,2.81-.07,.15-.07,.26,.04,.4,.61,.81,1.2,1.64,1.81,2.45,.08,.11,.09,.19,.04,.31-.41,.95-.81,1.9-1.22,2.84-.05,.12-.04,.19,.03,.3,.62,.84,1.23,1.68,1.85,2.52,.07,.1,.07,.17,.03,.28-.41,.95-.82,1.91-1.23,2.86-.05,.12-.04,.19,.04,.3,.62,.83,1.22,1.67,1.84,2.5,.08,.1,.08,.18,.03,.29-.41,.94-.8,1.89-1.21,2.83-.06,.15-.04,.24,.05,.36,.61,.81,1.2,1.64,1.81,2.45,.08,.11,.09,.2,.04,.33-.41,.94-.81,1.89-1.21,2.83-.05,.12-.05,.21,.03,.31,.61,.83,1.22,1.66,1.83,2.48,.09,.12,.09,.2,.03,.33-.41,.95-.81,1.9-1.22,2.85-.05,.11-.04,.18,.03,.28,.62,.84,1.23,1.68,1.85,2.52,.07,.09,.09,.17,.04,.28-.41,.94-.81,1.89-1.22,2.83-.06,.14-.06,.24,.04,.36,.61,.82,1.21,1.65,1.82,2.47,.08,.11,.09,.19,.04,.31-.41,.95-.82,1.91-1.23,2.86-.03,.08-.07,.14,0,.23,.46,.61,.91,1.24,1.37,1.85h.35c0-.07-.06-.13-.1-.18-.4-.55-.8-1.1-1.21-1.64Z"/><path class="e" d="M21.8,47.06c-.08-.11-.09-.19-.04-.31,.41-.95,.81-1.9,1.22-2.85,.05-.11,.04-.19-.04-.3-.62-.83-1.22-1.67-1.84-2.5-.07-.1-.09-.18-.04-.29,.41-.93,.8-1.87,1.21-2.81,.06-.14,.06-.25-.04-.38-.61-.82-1.21-1.65-1.82-2.47-.08-.1-.09-.18-.03-.3,.41-.94,.8-1.89,1.22-2.83,.06-.14,.05-.23-.04-.35-.62-.83-1.22-1.67-1.84-2.5-.07-.09-.07-.16-.03-.26,.41-.96,.82-1.92,1.24-2.88,.05-.11,.04-.18-.03-.28-.61-.83-1.22-1.66-1.83-2.48-.09-.13-.1-.23-.04-.37,.41-.93,.8-1.87,1.21-2.81,.05-.13,.04-.21-.04-.31-.62-.83-1.22-1.67-1.84-2.5-.07-.09-.08-.17-.04-.28,.41-.95,.81-1.9,1.22-2.85,.06-.13,.05-.22-.03-.33-.62-.83-1.23-1.67-1.84-2.5-.04-.06-.1-.11-.06-.2,.19-.43,.38-.87,.58-1.31,.08-.07,.12-.15,.1-.26,.19-.46,.38-.92,.58-1.37,.05-.12,.04-.19-.03-.29-.62-.83-1.22-1.67-1.84-2.5-.08-.11-.09-.19-.04-.31,.41-.94,.81-1.88,1.22-2.83,.06-.13,.05-.22-.03-.33-.43-.57-.86-1.14-1.26-1.72-.14-.21-.3-.23-.53-.19,.03,.04,.05,.08,.07,.11,.45,.62,.9,1.23,1.35,1.84,.08,.11,.1,.19,.04,.33-.41,.94-.81,1.89-1.22,2.83-.06,.13-.04,.22,.04,.33,.62,.83,1.22,1.67,1.84,2.5,.07,.1,.07,.17,.03,.28-.41,.95-.82,1.91-1.23,2.86-.05,.12-.04,.19,.03,.29,.62,.83,1.22,1.67,1.84,2.5,.08,.11,.08,.19,.03,.31-.41,.94-.81,1.89-1.22,2.83-.06,.13-.04,.22,.04,.33,.61,.83,1.22,1.66,1.83,2.48,.07,.1,.09,.17,.04,.29-.41,.95-.82,1.91-1.23,2.86-.05,.12-.04,.19,.03,.29,.62,.83,1.22,1.67,1.84,2.5,.07,.1,.09,.18,.04,.3-.41,.94-.81,1.89-1.22,2.83-.06,.13-.06,.22,.03,.35,.61,.82,1.21,1.65,1.82,2.47,.08,.11,.1,.19,.04,.33-.41,.95-.81,1.9-1.22,2.84-.05,.12-.04,.19,.04,.29,.6,.82,1.2,1.64,1.81,2.45,.1,.14,.12,.24,.05,.4-.41,.93-.8,1.86-1.2,2.79-.05,.12-.05,.2,.03,.31,.62,.83,1.22,1.67,1.84,2.5,.08,.1,.08,.18,.03,.3-.37,.84-.7,1.69-1.09,2.52-.17,.36-.15,.61,.1,.92,.46,.58,.9,1.18,1.31,1.79h.35c.03-.09-.04-.13-.08-.18-.47-.65-.94-1.3-1.42-1.94Z"/><path class="e" d="M13.64,41.99c-.09-.12-.1-.21-.04-.35,.41-.94,.81-1.89,1.22-2.83,.05-.12,.04-.19-.03-.29-.62-.83-1.22-1.67-1.84-2.5-.08-.11-.08-.19-.03-.31,.41-.94,.8-1.88,1.21-2.81,.06-.13,.06-.23-.03-.35-.61-.82-1.22-1.66-1.83-2.48-.08-.1-.08-.18-.03-.29,.41-.95,.81-1.9,1.22-2.85,.05-.12,.05-.2-.03-.31-.62-.83-1.22-1.67-1.84-2.5-.08-.1-.09-.18-.04-.3,.41-.95,.82-1.91,1.23-2.86,.05-.11,.04-.18-.03-.28-.62-.84-1.23-1.68-1.85-2.52-.08-.1-.08-.18-.03-.29,.41-.95,.81-1.9,1.22-2.85,.05-.12,.05-.2-.03-.31-.6-.8-1.19-1.62-1.78-2.42-.11-.15-.14-.27-.06-.45,.41-.91,.79-1.84,1.19-2.75,.06-.13,.05-.21-.03-.33-.61-.83-1.21-1.66-1.83-2.48-.09-.12-.09-.2-.03-.33,.41-.93,.8-1.87,1.21-2.81,.06-.14,.04-.23-.04-.35-.61-.82-1.21-1.65-1.82-2.47-.07-.09-.12-.18-.03-.31-.14,.05-.28-.07-.37,.08-.11,.16,.04,.25,.11,.35,.59,.81,1.17,1.61,1.77,2.41,.08,.11,.09,.2,.04,.33-.41,.94-.8,1.88-1.21,2.81-.06,.14-.05,.23,.04,.35,.61,.83,1.22,1.66,1.83,2.48,.08,.1,.08,.18,.03,.29-.41,.95-.82,1.91-1.23,2.86-.05,.11-.04,.18,.03,.28,.62,.83,1.22,1.67,1.84,2.5,.09,.11,.09,.21,.04,.33-.41,.94-.81,1.89-1.22,2.83-.05,.12-.04,.2,.04,.31,.61,.83,1.22,1.66,1.83,2.48,.08,.1,.09,.18,.04,.31-.41,.95-.81,1.9-1.22,2.84-.05,.13-.04,.21,.04,.31,.61,.82,1.21,1.65,1.82,2.47,.09,.12,.09,.22,.04,.35-.41,.95-.81,1.9-1.22,2.85-.04,.1-.04,.17,.03,.26,.62,.84,1.23,1.68,1.85,2.52,.08,.11,.08,.19,.03,.31-.41,.94-.8,1.88-1.21,2.81-.06,.15-.04,.24,.05,.36,.61,.82,1.21,1.65,1.82,2.47,.07,.1,.09,.17,.03,.29-.41,.94-.81,1.89-1.22,2.83-.06,.14-.04,.24,.05,.36,.61,.81,1.2,1.64,1.81,2.45,.08,.11,.1,.2,.04,.33-.41,.95-.82,1.9-1.23,2.84-.05,.11-.04,.18,.03,.28,.3,.41,.62,.81,.89,1.24h.35c.03-.08-.03-.12-.07-.17-.27-.37-.54-.74-.82-1.11-.07-.09-.08-.17-.03-.28,.41-.95,.81-1.9,1.22-2.85,.06-.14,.04-.23-.05-.34-.61-.81-1.2-1.64-1.81-2.45Z"/><path class="e" d="M11.13,42.25c-.07-.1-.09-.17-.03-.29,.41-.93,.8-1.88,1.21-2.81,.06-.15,.06-.25-.04-.38-.61-.82-1.21-1.65-1.82-2.47-.08-.1-.08-.18-.03-.3,.41-.95,.81-1.9,1.22-2.84,.05-.12,.04-.21-.04-.31-.62-.83-1.22-1.67-1.84-2.5-.08-.11-.07-.18-.03-.29,.41-.95,.81-1.91,1.23-2.86,.05-.11,.04-.18-.03-.28-.61-.83-1.21-1.66-1.83-2.48-.09-.12-.1-.21-.04-.35,.41-.94,.8-1.88,1.21-2.81,.06-.15,.03-.23-.05-.34-.61-.83-1.22-1.66-1.83-2.48-.07-.09-.08-.17-.03-.28,.41-.95,.81-1.9,1.22-2.84,.05-.13,.05-.22-.04-.33-.62-.83-1.22-1.67-1.84-2.5-.07-.1-.08-.17-.03-.28,.41-.95,.82-1.91,1.23-2.86,.05-.12,.04-.19-.03-.29-.62-.83-1.22-1.67-1.84-2.5-.08-.11-.09-.19-.03-.31,.41-.94,.81-1.89,1.22-2.83,.06-.13,.04-.22-.04-.33-.57-.77-1.12-1.55-1.7-2.31-.17-.22-.26-.42-.08-.66,.02-.02,.02-.06,.02-.09-.31-.03-.3-.02-.43,.24-.08,.16-.07,.28,.04,.43,.61,.81,1.2,1.64,1.81,2.45,.08,.11,.08,.18,.03,.29-.41,.94-.8,1.88-1.21,2.81-.06,.14-.06,.24,.04,.37,.61,.82,1.22,1.66,1.83,2.49,.07,.09,.08,.16,.04,.28-.41,.95-.81,1.91-1.23,2.86-.05,.13-.04,.2,.04,.31,.61,.83,1.22,1.66,1.83,2.48,.08,.11,.09,.19,.04,.31-.41,.94-.81,1.89-1.22,2.83-.06,.13-.05,.22,.04,.33,.62,.83,1.22,1.67,1.84,2.5,.07,.1,.08,.17,.03,.28-.41,.95-.82,1.91-1.23,2.86-.05,.11-.04,.19,.03,.29,.62,.83,1.22,1.67,1.84,2.5,.07,.1,.09,.18,.04,.3-.4,.93-.79,1.86-1.2,2.79-.08,.17-.05,.28,.05,.43,.6,.8,1.19,1.62,1.78,2.42,.08,.11,.1,.19,.04,.33-.41,.94-.81,1.89-1.22,2.83-.05,.12-.05,.2,.03,.31,.61,.82,1.22,1.66,1.83,2.48,.08,.11,.09,.2,.04,.33-.41,.95-.81,1.9-1.22,2.85-.05,.11-.04,.18,.03,.28,.61,.83,1.22,1.66,1.83,2.48,.09,.12,.11,.2,.05,.34-.41,.94-.81,1.88-1.21,2.83-.04,.09-.07,.17,0,.27,.25,.32,.49,.65,.73,.98h.35s-.02-.06-.03-.09c-.22-.3-.43-.6-.65-.89-.08-.11-.09-.19-.03-.31,.41-.94,.8-1.87,1.21-2.81,.06-.14,.05-.24-.04-.36-.61-.82-1.21-1.65-1.82-2.47Z"/><path class="e" d="M6.15,42.84c-.08-.1-.1-.18-.04-.31,.41-.95,.81-1.9,1.23-2.84,.05-.12,.04-.21-.04-.31-.61-.83-1.22-1.66-1.83-2.48-.08-.1-.09-.18-.04-.31,.41-.95,.81-1.9,1.22-2.85,.05-.12,.04-.2-.04-.31-.61-.83-1.22-1.66-1.83-2.48-.08-.11-.09-.19-.04-.31,.41-.95,.81-1.9,1.22-2.84,.05-.12,.05-.19-.03-.3-.62-.84-1.23-1.68-1.85-2.52-.07-.1-.08-.17-.03-.28,.41-.95,.81-1.9,1.22-2.85,.06-.13,.04-.22-.04-.33-.61-.82-1.21-1.65-1.82-2.47-.08-.11-.1-.2-.04-.33,.41-.94,.81-1.89,1.22-2.83,.06-.13,.04-.21-.04-.33-.61-.83-1.22-1.66-1.83-2.48-.07-.1-.09-.18-.04-.3,.41-.94,.8-1.88,1.21-2.81,.07-.16,.05-.27-.05-.4-.6-.82-1.2-1.64-1.8-2.45-.07-.1-.09-.18-.03-.29,.41-.93,.8-1.87,1.21-2.81,.06-.14,.06-.25-.04-.38-.6-.81-1.19-1.63-1.79-2.44-.09-.12-.12-.22-.05-.36,.13-.26,.23-.54,.35-.82q-.33-.02-.44,.25c-.09,.21-.17,.43-.28,.64-.06,.12-.04,.21,.04,.31,.6,.82,1.2,1.64,1.81,2.45,.1,.13,.11,.23,.05,.38-.4,.92-.79,1.85-1.2,2.77-.07,.15-.05,.25,.05,.38,.61,.81,1.2,1.64,1.81,2.45,.09,.11,.09,.2,.03,.33-.41,.94-.81,1.89-1.22,2.83-.05,.13-.04,.21,.04,.31,.62,.83,1.22,1.67,1.84,2.5,.07,.09,.08,.16,.03,.28-.41,.95-.81,1.91-1.23,2.86-.05,.13-.04,.21,.04,.31,.61,.82,1.21,1.65,1.82,2.47,.09,.12,.1,.21,.04,.35-.41,.94-.81,1.88-1.22,2.83-.05,.11-.05,.19,.03,.3,.62,.84,1.23,1.68,1.85,2.52,.07,.09,.08,.17,.03,.28-.41,.95-.81,1.9-1.22,2.85-.06,.13-.05,.22,.04,.33,.61,.82,1.21,1.65,1.82,2.47,.08,.11,.1,.2,.04,.33-.41,.94-.8,1.88-1.21,2.81-.06,.14-.06,.22,.03,.34,.61,.82,1.21,1.65,1.82,2.47,.08,.11,.1,.2,.04,.33-.41,.94-.81,1.89-1.22,2.83-.05,.12-.05,.21,.03,.31,.61,.81,1.2,1.64,1.81,2.45,.1,.14,.11,.24,.04,.4-.41,.93-.8,1.88-1.21,2.81-.05,.11-.04,.18,.03,.28,.09,.12,.2,.23,.26,.38h.39c-.07-.15-.18-.28-.29-.41-.08-.1-.08-.18-.03-.29,.41-.95,.82-1.91,1.23-2.86,.05-.11,.04-.18-.03-.28-.62-.83-1.22-1.67-1.84-2.5Z"/><path class="e" d="M8.64,42.55c-.08-.1-.09-.18-.04-.31,.41-.95,.81-1.9,1.22-2.84,.05-.12,.04-.2-.04-.31-.61-.81-1.2-1.64-1.81-2.45-.1-.13-.11-.23-.05-.38,.4-.92,.79-1.84,1.19-2.75,.07-.16,.05-.27-.05-.41-.6-.81-1.19-1.63-1.79-2.44-.08-.1-.09-.19-.04-.31,.41-.94,.81-1.89,1.22-2.83,.06-.13,.05-.22-.04-.33-.62-.83-1.22-1.67-1.84-2.5-.07-.1-.08-.17-.03-.28,.42-.96,.82-1.92,1.24-2.88,.04-.1,.04-.17-.03-.26-.62-.84-1.23-1.68-1.85-2.51-.08-.11-.09-.19-.03-.31,.41-.94,.81-1.89,1.22-2.83,.06-.13,.04-.22-.04-.33-.61-.83-1.22-1.66-1.83-2.48-.07-.1-.09-.17-.04-.29,.41-.95,.82-1.91,1.23-2.86,.05-.12,.04-.19-.04-.29-.61-.83-1.22-1.66-1.83-2.48-.08-.11-.1-.2-.04-.33,.41-.95,.81-1.9,1.22-2.84,.05-.12,.03-.2-.04-.29-.62-.84-1.23-1.68-1.85-2.52-.07-.1-.08-.17-.03-.28,.09-.19,.16-.38,.26-.6-.17,.05-.34-.07-.41,.16-.05,.16-.12,.31-.2,.46-.06,.12-.04,.21,.04,.31,.62,.83,1.22,1.67,1.84,2.5,.08,.1,.08,.18,.03,.29-.41,.95-.81,1.9-1.22,2.85-.05,.12-.05,.2,.03,.31,.61,.83,1.22,1.66,1.83,2.48,.08,.11,.09,.2,.04,.33-.41,.94-.81,1.89-1.22,2.83-.05,.12-.04,.21,.04,.31,.62,.83,1.22,1.67,1.84,2.5,.08,.1,.08,.18,.03,.29-.41,.95-.81,1.9-1.22,2.85-.05,.12-.04,.2,.04,.31,.61,.83,1.22,1.66,1.83,2.48,.08,.11,.09,.19,.04,.31-.41,.95-.81,1.9-1.22,2.84-.05,.13-.04,.21,.04,.31,.61,.82,1.21,1.65,1.82,2.47,.09,.12,.11,.2,.04,.35-.41,.93-.8,1.87-1.21,2.81-.05,.13-.05,.22,.03,.33,.61,.83,1.22,1.66,1.83,2.48,.08,.11,.08,.19,.03,.31-.41,.93-.8,1.87-1.21,2.81-.06,.14-.05,.24,.04,.36,.61,.82,1.21,1.65,1.82,2.47,.08,.11,.09,.19,.03,.31-.41,.94-.81,1.89-1.22,2.83-.06,.13-.04,.22,.04,.33,.61,.83,1.22,1.66,1.83,2.48,.07,.1,.09,.17,.04,.29-.41,.95-.82,1.91-1.23,2.86-.05,.12-.04,.19,.04,.29,.17,.21,.32,.44,.48,.66h.35c.01-.07-.04-.12-.08-.17-.13-.18-.25-.36-.39-.53-.08-.1-.08-.18-.03-.3,.41-.94,.8-1.89,1.22-2.83,.06-.14,.04-.23-.04-.34-.61-.82-1.21-1.65-1.82-2.47Z"/><path class="e" d="M3.66,43.13c-.08-.11-.1-.2-.04-.33,.41-.94,.81-1.89,1.22-2.83,.05-.12,.05-.2-.03-.31-.62-.83-1.22-1.67-1.84-2.5-.08-.1-.09-.18-.04-.29,.41-.94,.81-1.89,1.22-2.83,.06-.13,.05-.23-.04-.35-.6-.81-1.19-1.63-1.8-2.43-.1-.14-.11-.24-.04-.4,.41-.93,.8-1.86,1.2-2.79,.05-.12,.04-.2-.03-.31-.62-.83-1.22-1.67-1.84-2.5-.08-.1-.08-.18-.03-.3,.41-.94,.81-1.89,1.22-2.83,.06-.13,.05-.22-.03-.33-.62-.83-1.22-1.67-1.84-2.5-.07-.1-.08-.17-.03-.28,.41-.95,.81-1.9,1.22-2.84,.05-.13,.05-.21-.03-.33-.61-.82-1.21-1.65-1.82-2.47-.09-.12-.1-.21-.04-.35,.41-.94,.81-1.89,1.22-2.83,.05-.11,.04-.19-.03-.29-.42-.56-.83-1.12-1.24-1.69-.03-.04-.05-.1-.12-.12-.02,.26-.02,.5,.17,.72,.3,.36,.55,.75,.83,1.12,.08,.11,.08,.19,.03,.31-.26,.6-.5,1.21-.77,1.79-.2,.43-.31,.85-.27,1.33,.01,.15,.04,.27,.13,.39,.52,.71,1.04,1.42,1.56,2.12,.08,.11,.09,.19,.04,.31-.41,.95-.82,1.91-1.23,2.86-.04,.1-.04,.17,.03,.26,.62,.84,1.23,1.68,1.85,2.52,.08,.11,.09,.19,.04,.31-.41,.93-.8,1.87-1.21,2.81-.06,.14-.04,.24,.05,.36,.6,.81,1.19,1.63,1.79,2.44,.09,.12,.11,.22,.04,.36-.41,.94-.81,1.89-1.22,2.83-.05,.12-.03,.19,.04,.29,.61,.83,1.21,1.66,1.83,2.48,.08,.11,.1,.2,.04,.33-.41,.94-.8,1.88-1.21,2.81-.07,.15-.04,.24,.05,.36,.61,.83,1.22,1.66,1.83,2.48,.07,.09,.07,.16,.03,.26-.41,.95-.81,1.9-1.22,2.85-.06,.13-.05,.23,.04,.35,.61,.82,1.22,1.66,1.83,2.48,.07,.09,.09,.17,.04,.28-.4,.92-.79,1.85-1.2,2.77-.09,.19-.09,.33,.07,.47h.35s-.01-.07-.03-.09c-.15-.13-.09-.26-.03-.41,.4-.92,.79-1.84,1.18-2.76,.06-.13,.05-.21-.03-.33-.61-.82-1.21-1.65-1.82-2.47Z"/><path class="e" d="M1.15,43.4c-.07-.1-.09-.17-.04-.29,.41-.95,.81-1.9,1.22-2.84,.06-.13,.04-.22-.04-.33-.6-.82-1.2-1.64-1.8-2.45-.09-.12-.11-.22-.05-.36,.41-.95,.81-1.9,1.22-2.84,.05-.1,.03-.17-.03-.26-.34-.45-.67-.91-1-1.36-.19-.26-.39-.52-.61-.82-.02,.3-.02,.53,.15,.75,.38,.48,.73,.99,1.1,1.48,.07,.09,.07,.16,.03,.26-.41,.95-.82,1.91-1.23,2.86-.05,.12-.05,.21,.04,.31,.61,.83,1.22,1.66,1.83,2.48,.08,.11,.09,.19,.04,.31-.41,.95-.81,1.9-1.22,2.85-.05,.12-.04,.2,.04,.31,.61,.83,1.22,1.66,1.83,2.48,.08,.11,.09,.19,.04,.31-.37,.85-.73,1.69-1.09,2.54-.05,.13-.14,.25-.14,.4h.31c.43-1,.85-1.99,1.28-2.99,.05-.11,.04-.19-.03-.3-.62-.83-1.22-1.67-1.84-2.5Z"/><path class="e" d="M26.75,19.81c.13-.02,.27-.02,.41-.03,.51-.01,.7,.12,.77,.59,.08,.5,.14,1.01,.2,1.52,.11,.94,.23,1.87,.33,2.81,.06,.51,.15,1.02,.13,1.54,0,.28-.13,.43-.4,.5-.18,.05-.37,.08-.55,.12-.07,.01-.15,0-.13,.11,.02,.12,.1,.07,.16,.06,1.02-.12,2.04-.24,3.06-.36,1.53-.18,3.06-.37,4.58-.54,.2-.02,.19-.1,.18-.24-.07-.53-.13-1.07-.19-1.6-.05-.43-.1-.86-.15-1.29,0-.05,0-.12-.08-.13-.08,0-.12,.04-.13,.11,0,.03,0,.05-.02,.08-.24,.92-.65,1.75-1.23,2.5-.23,.3-.51,.52-.9,.59-.48,.1-.97,.14-1.46,.23-.13,.02-.13-.04-.14-.14-.07-.61-.15-1.22-.22-1.83-.05-.44-.11-.89-.16-1.33,0-.08-.03-.16,.1-.18,.57-.11,1.04,.09,1.35,.58,.18,.28,.28,.58,.33,.9,.01,.08,.04,.11,.13,.1,.09,0,.09-.06,.08-.12-.02-.15-.03-.3-.05-.44-.12-1.01-.24-2.02-.36-3.02,0-.06,0-.13-.11-.12-.09,.01-.12,.05-.11,.14,.03,.17,0,.35,0,.52-.08,.75-.52,1.19-1.26,1.26-.09,0-.14,0-.15-.11-.04-.37-.09-.74-.13-1.12-.07-.64-.14-1.27-.21-1.91-.01-.12,.01-.17,.14-.18,.18,0,.36-.03,.54-.05,.7-.1,1.32,.04,1.86,.52,.05,.04,.1,.08,.15,.12,.57,.47,1.04,1.03,1.43,1.65,.04,.07,.07,.16,.19,.12,.13-.04,.04-.14,.04-.2-.1-.9-.21-1.8-.31-2.7-.01-.11-.05-.13-.15-.11-.19,.03-.37,.04-.56,.06-1.25,.15-2.49,.3-3.74,.45-1.09,.13-2.18,.26-3.27,.39-.06,0-.12,0-.11,.09,0,.09,.05,.1,.13,.09Z"/><path class="e" d="M37.39,22.54c.62,.25,1.25,.46,1.89,.63,.5,.13,1.01,.22,1.48,.46,.34,.17,.5,.45,.53,.82,.04,.46-.32,.87-.85,.97-.78,.15-1.49-.02-2.13-.48-.69-.49-1.14-1.17-1.5-1.92-.08-.17-.15-.34-.22-.52-.03-.08-.08-.09-.15-.08-.1,.01-.06,.08-.06,.13,.02,.17,.04,.35,.06,.52,.11,.95,.23,1.9,.34,2.85,0,.06-.02,.16,.1,.15,.1,0,.1-.08,.1-.16,0-.21,0-.41,.03-.62,.05-.35,.26-.49,.59-.37,.29,.12,.58,.25,.87,.39,.46,.22,.94,.36,1.44,.37,.88,0,1.6-.35,2.2-.96,.33-.34,.55-.75,.58-1.24,.07-1.19-.61-2.16-1.76-2.56-.78-.27-1.59-.44-2.39-.67-.3-.09-.58-.22-.8-.45-.3-.31-.3-.79,0-1.08,.19-.18,.41-.32,.67-.37,.66-.13,1.26,0,1.8,.4,.58,.43,1.06,.95,1.33,1.63,.03,.09,.09,.12,.18,.1,.11-.02,.05-.1,.05-.16-.09-.81-.19-1.62-.28-2.43,0-.07-.01-.13-.11-.12-.1,0-.11,.06-.11,.14,0,.18,.02,.36-.04,.54-.08,.21-.24,.29-.44,.21-.22-.09-.43-.17-.64-.27-.5-.22-1.02-.35-1.58-.29-1.24,.14-2.68,1.36-2.28,3.02,.16,.65,.46,1.15,1.11,1.41Z"/><path class="e" d="M.22,29.3c-.2,.38-.24,.78-.19,1.25,.34-.79,.65-1.53,.97-2.27,.04-.09-.01-.14-.06-.21-.27-.38-.55-.75-.83-1.12-.03-.03-.03-.1-.08-.09-.1,.33,.02,.58,.23,.82,.12,.14,.22,.3,.34,.45,.06,.08,.06,.14,.02,.23-.14,.31-.25,.64-.41,.94Z"/><path class="e" d="M.03,5.84s.03,0,.03-.01c.23-.54,.47-1.09,.7-1.64,.02-.06,.03-.1-.01-.16-.23-.31-.47-.63-.7-.95-.03,.25-.1,.49,.1,.67,.29,.26,.29,.53,.09,.85C.02,4.99-.04,5.4,.03,5.84Z"/><path class="e" d="M.05,45.59c-.02,.23-.11,.46,.09,.65,.09,.09,.1,.18,.03,.29-.21,.33-.14,.7-.13,1.06,.19-.39,.36-.79,.53-1.19,.02-.04,.02-.07,0-.11-.17-.23-.34-.46-.51-.69Z"/><path class="e" d="M.32,22.31s.02-.08-.01-.12c-.09-.12-.18-.24-.3-.4v1.15H.05c.09-.2,.18-.41,.27-.62Z"/><path class="e" d="M35.45,32.11c-.4-.1-.81-.11-1.21-.07-.18,.02-.36,.03-.54,.05v-.06c.1-.02,.2-.04,.3-.05,.6-.09,1.13-.3,1.56-.74,.12-.13,.22-.28,.25-.45,.2-.91-.23-1.96-1.39-2.18-.64-.12-1.29-.02-1.93,.05-1.03,.12-2.07,.25-3.1,.37-.49,.06-.99,.12-1.48,.18-.06,0-.14,0-.13,.1,.01,.12,.09,.08,.16,.08,.18,0,.36-.02,.54-.02,.32,0,.46,.1,.55,.4,.09,.3,.12,.62,.15,.94,.14,1.15,.28,2.3,.41,3.45,.06,.54,.16,1.08,.15,1.62,0,.32-.12,.46-.42,.54-.19,.05-.38,.08-.57,.12-.06,.01-.12,0-.11,.09,0,.11,.07,.08,.14,.08,.07,0,.14-.01,.21-.02,1.19-.14,2.38-.27,3.56-.41,.83-.1,1.67-.17,2.49-.35,1.17-.25,1.85-1.09,1.64-2.31-.13-.71-.58-1.24-1.23-1.4Zm-3.56-.01c-.11-1-.23-2-.36-3-.01-.1,0-.14,.12-.14,.12,0,.25-.01,.37-.02,.5-.08,.81,.15,1.01,.59,.29,.62,.36,1.26,.25,1.93-.05,.3-.23,.51-.53,.6-.24,.07-.47,.13-.72,.15-.1,.01-.13-.02-.14-.12Zm2.07,3.12c-.06,.29-.21,.48-.51,.57-.32,.1-.64,.13-.97,.18-.1,.02-.14-.01-.15-.12-.13-1.1-.26-2.19-.39-3.29-.01-.11,0-.16,.13-.17,.29-.03,.58-.06,.87-.07,.22,0,.38,.08,.52,.25,.37,.44,.57,1.07,.57,1.85,0,.27-.02,.53-.08,.79Z"/><path class="e" d="M59.75,29.79s0-.11-.08-.11c-.08,0-.12,.02-.13,.1-.02,.12-.06,.24-.1,.35-.29,.91-.71,1.76-1.38,2.47-.15,.16-.34,.26-.56,.32-.5,.13-1.02,.17-1.53,.26-.13,.02-.18-.02-.19-.16-.04-.39-.09-.78-.14-1.17-.08-.67-.16-1.33-.24-2,0-.05-.03-.11,.07-.13,.5-.07,.95-.03,1.31,.46,.22,.29,.34,.62,.4,.98,.01,.07,0,.16,.13,.14,.13-.02,.09-.09,.08-.17-.06-.49-.12-.99-.17-1.48-.08-.65-.16-1.3-.23-1.94,0-.08-.03-.12-.12-.11-.09,0-.11,.04-.1,.12,.01,.06,0,.12,.01,.13,0,.09,0,.14,0,.18-.06,.85-.4,1.41-1.29,1.48-.1,0-.13,0-.14-.11-.01-.19-.04-.37-.06-.56-.09-.83-.18-1.66-.28-2.48-.01-.11,.01-.16,.14-.17,.25-.01,.5-.04,.75-.07,.51-.06,.99,.04,1.41,.35,.36,.26,.7,.55,1.01,.88,.32,.34,.59,.72,.84,1.11,.04,.07,.09,.11,.17,.08,.08-.03,.05-.09,.04-.15-.11-.9-.22-1.81-.32-2.71-.02-.15-.07-.16-.19-.15-.58,.07-1.17,.14-1.75,.21-1.14,.14-2.29,.27-3.43,.41-.78,.09-1.57,.18-2.35,.28-.06,0-.12,.01-.11,.1,0,.08,.05,.09,.12,.09,.17-.02,.34-.03,.5-.03,.41,0,.6,.14,.67,.54,.07,.38,.11,.77,.16,1.15,.13,1.04,.25,2.08,.37,3.12,.06,.54,.16,1.08,.15,1.62,0,.31-.11,.45-.41,.52-.17,.05-.35,.07-.53,.12-.06,.01-.16,0-.14,.11,.02,.12,.1,.08,.17,.07,.47-.05,.94-.11,1.41-.16,1.15-.14,2.3-.27,3.45-.41,.94-.11,1.87-.23,2.81-.33,.13-.02,.17-.06,.15-.19-.12-.98-.24-1.96-.35-2.94Z"/><path class="e" d="M49.72,29.57c-.69-.22-1.39-.39-2.09-.58-.35-.09-.68-.21-.96-.44-.33-.27-.4-.76-.17-1.06,.2-.25,.45-.41,.76-.47,.63-.12,1.22,0,1.75,.38,.6,.43,1.08,.96,1.37,1.65,.03,.08,.07,.13,.17,.11,.12-.03,.07-.11,.06-.17-.09-.8-.19-1.6-.28-2.41,0-.07-.02-.14-.13-.12-.11,.02-.09,.08-.09,.15,.01,.17,.02,.34-.03,.5-.07,.23-.24,.31-.47,.22-.29-.12-.59-.24-.88-.36-.32-.13-.65-.21-1.01-.2-.16,0-.34,.01-.51,.04-1.1,.19-2.49,1.33-2.09,3,.16,.65,.47,1.13,1.12,1.4,.79,.33,1.6,.55,2.42,.76,.33,.09,.66,.17,.97,.33,.36,.19,.51,.51,.5,.9,0,.36-.22,.59-.52,.76-.17,.09-.35,.13-.54,.15-.99,.11-1.78-.27-2.45-.96-.54-.56-.9-1.22-1.18-1.94-.03-.09-.07-.16-.18-.12-.11,.03-.05,.12-.04,.18,.04,.39,.09,.78,.14,1.17,.09,.72,.17,1.44,.26,2.16,0,.07,0,.15,.11,.14,.11-.01,.09-.09,.09-.16,0-.21,0-.41,.03-.62,.06-.35,.27-.48,.59-.36,.28,.11,.55,.23,.81,.36,1.26,.61,2.44,.52,3.52-.41,.45-.39,.75-.88,.76-1.49,.02-1.19-.67-2.12-1.83-2.5Z"/><path class="e" d="M45.01,34.51c-.1,0-.19,0-.29,0-.28,.02-.5-.1-.66-.33-.07-.1-.14-.2-.2-.31-1.06-1.99-2.06-4.02-3.09-6.03-.07-.14-.15-.18-.3-.15-.25,.04-.51,.08-.77,.09-.13,0-.16,.06-.18,.17-.31,1.52-.62,3.04-.94,4.55-.16,.74-.29,1.48-.5,2.21-.1,.34-.3,.57-.65,.65-.18,.04-.35,.08-.53,.11-.07,.01-.18-.02-.16,.11,.02,.14,.13,.08,.2,.07,.29-.03,.58-.07,.87-.1,.57-.07,1.14-.13,1.71-.2,.06,0,.12,0,.11-.1,0-.08-.05-.09-.12-.09-.1,0-.19,0-.3,.01-.02,0-.05,0-.08,0-.6,0-.74-.15-.67-.75,.05-.37,.13-.74,.17-1.11,.02-.19,.12-.24,.28-.25,.51-.05,1.01-.11,1.52-.18,.11-.02,.16,.02,.21,.12,.16,.35,.33,.69,.49,1.03,.07,.15,.13,.31,.15,.48,.03,.19-.04,.31-.22,.38-.2,.07-.39,.13-.6,.16-.06,.01-.18-.01-.16,.11,.02,.13,.12,.06,.18,.07,.02,0,.05,0,.08,0,.74-.09,1.48-.17,2.21-.26,.75-.09,1.5-.18,2.25-.27,.06,0,.12,0,.11-.09-.01-.07-.04-.1-.12-.1Zm-6.18-1.65c-.16,.02-.1-.08-.09-.14,.14-.66,.29-1.32,.43-1.98,.03-.12,.03-.25,.11-.4,.39,.79,.77,1.55,1.16,2.33-.56,.07-1.09,.12-1.62,.19Z"/><path class="e" d="M78.52,17.55c-.06-1-.4-1.88-1.15-2.56-1.45-1.31-3.49-1.4-5.05-.57-1.31,.69-2.07,1.78-2.09,3.17,.02,1.65,.65,2.81,1.99,3.54,.97,.53,2,.59,3.07,.37,1.7-.35,3.36-1.95,3.23-3.95Zm-2.84,2.98c-.19,.65-.73,.98-1.35,.82-.26-.07-.44-.23-.57-.46-.36-.69-.53-1.44-.65-2.2-.13-.81-.21-1.63-.22-2.45,0-.44,0-.89,.15-1.32,.22-.65,.8-.95,1.38-.72,.28,.11,.46,.33,.59,.59,.25,.47,.38,.97,.47,1.49,.07,.37,.13,.75,.18,1.13,.08,.6,.13,1.21,.13,1.82,0,.44,0,.88-.13,1.31Z"/><path class="e" d="M42.53,17.94c.15,0,.3-.02,.45-.03,.45,0,.61,.13,.7,.58,.11,.61,.17,1.23,.24,1.84,.15,1.29,.32,2.58,.45,3.87,.03,.33-.08,.56-.34,.64-.2,.06-.41,.13-.62,.14-.07,0-.17,0-.15,.12,.02,.12,.11,.06,.17,.05,.94-.11,1.89-.22,2.83-.33,.62-.07,1.23-.15,1.85-.22,.06,0,.14,0,.12-.1-.01-.1-.08-.08-.15-.08-.15,0-.3,.02-.45,.02-.47,.02-.64-.11-.72-.56-.13-.73-.18-1.47-.28-2.21-.02-.15,.03-.19,.17-.2,.65-.08,1.3-.15,1.94-.26,1.22-.19,1.83-.87,1.83-2,.03-1.23-.86-1.95-1.74-2.06-.57-.07-1.14-.02-1.7,.05-1.02,.12-2.04,.24-3.06,.37-.51,.06-1.03,.13-1.54,.19-.06,0-.13,0-.13,.1,0,.12,.09,.09,.15,.08Zm3.77-.45c.25,0,.5-.05,.75-.02,.24,.03,.41,.15,.52,.36,.23,.42,.35,.87,.4,1.34,.02,.2,.06,.41,.04,.58,0,.3-.03,.56-.08,.81-.07,.3-.23,.51-.55,.58-.21,.04-.42,.08-.62,.13-.18,.04-.2-.03-.22-.17-.04-.42-.1-.85-.15-1.27-.08-.72-.16-1.44-.25-2.15-.02-.15,.03-.18,.16-.18Z"/><path class="e" d="M64.66,19.88c-.14-.01-.09,.1-.1,.16-.07,.65-.22,1.26-.62,1.79-.51,.68-1.49,.93-2.2,.57-.42-.22-.67-.58-.89-.97-.4-.72-.59-1.5-.67-2.31-.08-.8-.05-1.6,.22-2.37,.35-.99,1.42-1.33,2.29-.72,.38,.27,.66,.61,.87,1.02,.21,.42,.43,.83,.64,1.24,.04,.09,.1,.12,.18,.09,.09-.03,.04-.1,.03-.15-.03-.26-.06-.53-.09-.79-.08-.71-.17-1.42-.26-2.14,0-.07,0-.16-.12-.15-.12,.01-.11,.09-.11,.17,0,.14-.01,.28-.05,.42-.07,.24-.28,.34-.52,.24-.22-.09-.44-.18-.66-.28-.39-.18-.8-.29-1.2-.28-.31,0-.57,.03-.83,.08-.92,.17-1.73,.56-2.35,1.28-.71,.82-.96,1.78-.86,2.85,.15,1.48,.87,2.55,2.22,3.17,.85,.39,1.75,.4,2.66,.23,1.81-.34,2.43-1.67,2.5-2.99,0-.07,.03-.16-.09-.17Z"/><path class="e" d="M49.86,24.31c.02,.11,.09,.08,.16,.08,.4-.05,.8-.09,1.19-.14,.46-.05,.91-.1,1.37-.17,.06,0,.18,.03,.17-.1,0-.13-.11-.08-.18-.08-.08,0-.16,0-.23,0h0s-.06,0-.1,0c-.59,0-.75-.17-.66-.76,.06-.4,.13-.79,.19-1.19,.02-.11,.06-.15,.17-.16,.53-.06,1.07-.12,1.6-.19,.11-.01,.18,.02,.23,.12,.15,.34,.31,.67,.47,1,.07,.15,.14,.31,.16,.48,.03,.25-.01,.33-.24,.41-.19,.07-.39,.13-.6,.16-.07,.01-.15,0-.13,.12,.02,.12,.11,.07,.17,.06,1.17-.14,2.34-.28,3.5-.41,.34-.04,.68-.08,1.02-.12,.06,0,.16,.01,.14-.11-.01-.1-.08-.08-.14-.08-.03,0-.05,0-.08,0-.49,.06-.8-.17-1.01-.59-.23-.44-.47-.88-.69-1.32-.82-1.6-1.63-3.2-2.44-4.8-.05-.1-.11-.14-.22-.13-.28,.04-.56,.08-.85,.1-.12,0-.15,.07-.17,.17-.3,1.46-.59,2.92-.9,4.38-.17,.82-.31,1.65-.57,2.45-.09,.28-.27,.46-.55,.56-.21,.07-.43,.09-.64,.14-.06,.01-.14,0-.12,.1Zm2.01-2.83c.17-.8,.35-1.6,.54-2.45,.39,.78,.76,1.51,1.12,2.25,.05,.09,.03,.12-.07,.13-.49,.05-.98,.11-1.46,.17-.07,0-.15,.02-.13-.1Z"/><path class="e" d="M70.23,21.81c-.12,0-.23,.01-.35,.02-.42,.04-.61-.1-.7-.52-.09-.48-.14-.96-.19-1.44-.12-1.04-.25-2.08-.37-3.12-.05-.42-.1-.83-.13-1.25-.03-.44,.09-.59,.53-.68,.13-.03,.27-.04,.4-.07,.05,0,.11-.01,.09-.09-.01-.08-.06-.09-.12-.08-.08,.01-.15,.02-.23,.03-1.15,.14-2.3,.27-3.45,.41-.28,.03-.55,.06-.83,.1-.06,0-.15,0-.13,.11,.01,.11,.09,.07,.14,.07,.08,0,.16,0,.23,0,.6-.02,.74,.07,.82,.59,.08,.52,.14,1.04,.2,1.56,.11,.94,.23,1.89,.34,2.83,.05,.48,.14,.96,.13,1.45,0,.3-.12,.44-.4,.52-.17,.05-.34,.08-.51,.12-.07,.01-.15,0-.14,.11,.02,.12,.1,.07,.16,.06,1.05-.12,2.11-.25,3.16-.37,.45-.05,.9-.1,1.35-.16,.06,0,.14,0,.12-.1-.01-.1-.08-.09-.14-.08Z"/></g></g></g></g></svg>