<?xml version="1.0" encoding="UTF-8"?><svg xmlns="http://www.w3.org/2000/svg" viewBox="0 0 84.33 65.66"><defs><style>.d{fill:#fff;}</style></defs><g id="a"/><g id="b"><g id="c"><g><path class="d" d="M50.68,.78c2.16,3.2,4.33,6.39,6.48,9.6,1.15,1.71,2.29,3.44,3.45,5.16,1.24,1.84,2.5,3.66,3.74,5.5,1.67,2.47,3.32,4.96,4.98,7.43,1.43,2.13,2.86,4.25,4.29,6.37,.37,.54,.7,1.12,1.35,1.39,2.4,1.01,4.8,2.03,7.19,3.04,.44,.18,.52,.16,.66-.27,1.19-3.75,1.74-7.57,1.42-11.51-.31-3.89-1.26-7.58-3.01-11.07-1.04-2.08-2.29-4.02-3.79-5.8-1.77-2.09-3.78-3.92-6.05-5.47-2.75-1.88-5.72-3.28-8.94-4.14C59.89,.33,57.29-.01,54.64,.01c-.62,0-1.24-.03-1.85,0-.68,.04-1.36,.14-2.04,.21-.35,.03-.35,.18-.17,.42,.03,.04,.06,.09,.09,.14Z"/><path class="d" d="M7.13,52.09c1.62,.07,3.23,0,4.85-.06,2.3-.09,4.61-.09,6.91-.15,3.51-.1,7.03,.06,10.51-.51,1.36-.22,2.69-.56,3.82-1.4,.69-.51,1.14-1.16,1.22-2.05,.18-2,.29-4.02,.54-6.01,.29-2.31,.64-4.61,1.05-6.9,.76-4.21,1.73-8.37,2.92-12.48,.13-.46,.11-.49-.37-.47-5,.12-10,.34-14.98,.85-2.71,.28-5.41,.65-8.06,1.33-1.37,.35-2.72,.76-3.94,1.51-.73,.46-1.42,.97-1.85,1.91,.48-.17,.85-.31,1.22-.42,3.57-1.03,7.22-1.69,10.91-2.18,2.42-.32,4.84-.57,7.29-.64,1.8-.05,3.59-.03,5.36,.39,.43,.1,.84,.26,1.13,.62,.08,.11,.21,.2,.14,.36-.07,.14-.22,.08-.33,.08-1.08,0-2.17,0-3.25,0-1,0-1.84,.36-2.55,1.06-.82,.81-1.36,1.78-1.75,2.85-.63,1.68-.94,3.43-1.23,5.19-.1,.63,.14,1.17,.68,1.51,.83,.53,2.37,.48,3.18-.08,.25-.17,.39-.4,.36-.7-.08-.93-.03-1.86,.03-2.79,.08-1.17,.23-2.32,.66-3.42,.76-1.89,1.92-2.61,3.8-2.4,.34,.04,.38,.17,.3,.45-.14,.53-.27,1.06-.38,1.6-.77,3.76-1.5,7.52-2,11.32-.25,1.9-.6,3.79-.71,5.7-.03,.54-.28,.99-.66,1.38-.59,.6-1.3,1-2.09,1.28-2.34,.84-4.78,1.24-7.25,1.34-4.21,.17-8.42-.1-12.63-.06-.95,0-1.89-.12-2.76-.53-1.12-.52-1.73-1.62-1.55-2.85,.04-.31,.1-.62,.11-.94,.16-3.01,.32-6.02,.45-9.04,.03-.71,.17-1.42,.05-2.14-.08,.23-.12,.47-.17,.7-.62,2.94-1.25,5.87-1.85,8.81-.27,1.33-.64,2.64-.73,4-.06,.94,.08,1.86,.7,2.64,.75,.92,1.77,1.29,2.9,1.34Z"/><path class="d" d="M26.11,21.76c.49-.02,.99,0,1.48,0v-.17c1,0,2,.03,3,0,1.81-.06,3.61-.17,5.42-.22,1.11-.03,2.22-.22,3.32-.02,.9,.16,1.8,.34,2.71,.5,.88,.15,.89,.14,.93-.76,.09-2.31,.17-4.63,.26-6.94,.06-1.7,.13-3.4,.19-5.1,.08-2.16,.15-4.33,.21-6.49,.01-.48-.02-.5-.44-.3-1.81,.84-3.51,1.84-5.14,2.99-2.5,1.77-4.7,3.85-6.61,6.24-1.62,2.03-2.98,4.23-4.13,6.56-.54,1.09-1.02,2.21-1.47,3.35-.12,.29-.05,.38,.27,.37Z"/><path class="d" d="M34.56,61.42c-1,.64-2.06,1.1-3.27,1.09-3.48-.03-6.96,.11-10.45,.16-2.96,.04-5.92,.12-8.88,.13-1.46,0-2.9-.25-4.25-.83-.89-.38-1.59-.97-1.81-1.98-.07-.33,.03-.36,.3-.26,2.24,.84,4.59,1.12,6.94,1.15,5.35,.07,10.7,.02,16.05-.01,1.28,0,2.53-.26,3.51-1.16,.64-.59,1.24-1.25,1.3-2.17,.12-1.72,.06-3.45,.04-5.18,0-.25-.09-.28-.3-.18-.43,.22-.82,.5-1.17,.83-.73,.69-1.36,1.47-2,2.23-1.89,2.27-4.29,3.36-7.24,3.34-3.94-.02-7.87,0-11.81,0-1.32,0-2.59-.28-3.79-.81-1.27-.57-2.13-1.52-2.55-2.85-.18-.57-.2-1.16-.16-1.75,.03-.59-.13-.86-.6-1.04-.42-.15-.44-.14-.45,.3-.01,1.44-.03,2.88-.09,4.32-.07,1.53,.03,3.05,.54,4.5,.27,.75,.63,1.46,1.26,1.99,.07,.15,.21,.24,.34,.35,1.75,1.44,3.85,2.02,6.04,2.04,6.06,.07,12.12,.03,18.17,.03,.9,0,1.67-.35,2.36-.91h0c1.25-.87,1.96-2.11,2.43-3.55-.08,0-.11,0-.13,.01-.12,.07-.24,.14-.35,.21Z"/><path class="d" d="M52.52,33.77c.1,.11,.25,.1,.38,.13,1.31,.31,2.61,.63,3.92,.93,4.44,1.01,8.89,2.02,13.34,3.02,.3,.07,.58,.2,.91,.15-.17-.11-.36-.19-.54-.26-1.55-.56-3.1-1.14-4.66-1.68-.93-.32-1.83-.73-2.79-.96h0c-.52-.2-1.04-.41-1.57-.6-3.76-1.36-7.52-2.71-11.29-4.07-1.2-.43-2.37-.93-3.65-1.08-2.29-.27-3.99,.63-4.47,3.1-.2,.99-.45,1.98-.68,2.96-.75,3.19-1.5,6.37-2.25,9.56-.06,.26-.09,.53-.13,.8,.8-1.47,1.38-3.02,2.05-4.54,.87-1.97,1.69-3.95,2.55-5.92,.38-.87,.92-1.62,1.77-2.09,1.04-.58,2.13-.55,3.24-.32,1.3,.27,2.59,.58,3.89,.87Zm16.04,3.53h0Z"/><path class="d" d="M12.06,48.28c1.81,.48,3.66,.48,5.51,.43,1.7-.05,3.39-.25,5.08-.44,.63-.07,1.26-.15,1.89-.23-.27-.18-.55-.19-.83-.22-2.03-.2-4.06-.39-6.05-.87-1.41-.34-2.75-.86-3.76-1.92-1.3-1.37-2.23-3.01-3.05-4.7-.57-1.17-.62-2.46-.71-3.73-.14-2.03-.11-4.06-.16-6.08,0-.21,.03-.44-.1-.74-.07,.23-.11,.37-.15,.52-.59,2.15-1.18,4.3-1.63,6.49-.44,2.13-.73,4.27-.44,6.45,.34,2.59,1.89,4.38,4.4,5.05Z"/><path class="d" d="M49.15,48.09s.07-.04,.11-.06c1.67-.86,3.26-1.86,4.81-2.92,.27-.19,.56-.28,.88-.28,4.02,0,8.04,0,12.05,0v.03c.8,0,1.59,0,2.39,0,3.21,0,6.42,0,9.63,0,.16,0,.42,.11,.44-.21,.02-.32-.25-.26-.44-.3-.05-.01-.11,0-.16-.01-2.57-.15-5.14-.3-7.72-.45-.34-.02-.54-.14-.6-.52-.19-1.27-.43-2.54-.64-3.81-.02-.12,0-.27-.19-.25-.14,.01-.27,.08-.29,.25-.01,.09,0,.19,0,.29,0,1.12-.02,2.25,0,3.37,0,.38-.15,.44-.47,.4-.51-.07-1.03-.14-1.55-.19-1.81-.17-3.63-.33-5.44-.48-1.99-.17-3.99-.34-5.98-.5-.37-.03-.81,.14-1.09-.06-.3-.22-.13-.69-.17-1.05-.14-1.38-.26-2.75-.39-4.13-.08-.89-.17-1.77-.25-2.66-.02-.23-.16-.25-.34-.26-.23,0-.17,.16-.18,.28-.05,.81-.1,1.61-.14,2.42-.07,1.53-.1,3.07-.22,4.6-.07,.87-.28,1.67-.99,2.35-1.22,1.18-2.39,2.42-3.37,3.81-.1,.14-.32,.27-.18,.45,.14,.18,.31-.03,.47-.09Z"/><path class="d" d="M49.95,12.71c.9,3.06,1.79,6.13,2.69,9.19,.47,1.59,.94,3.18,1.41,4.77,.05,.18,.11,.33,.31,.4,.31,.11,.62,.23,.93,.34,.2,.07,.29,.02,.23-.21-.11-.38-.21-.77-.32-1.15-.91-3.15-1.83-6.29-2.74-9.44-.83-2.83-1.66-5.65-2.48-8.48-.69-2.38-1.38-4.76-2.06-7.15-.08-.28-.24-.42-.52-.39-.65,0-.89,.32-.72,.91,1.1,3.73,2.2,7.47,3.29,11.2Z"/><path class="d" d="M6.41,32.04c.14-.02,.27-.06,.4-.07,.22-.03,.25-.18,.26-.35,0-.22-.15-.22-.31-.23-.53-.04-1.07-.04-1.6,0-1.21,.08-2.25,.48-3.04,1.48-1.33,1.69-1.94,3.63-2.12,5.76,.02,.18,.04,.39,.07,.59,.13,.74,.62,1.13,1.32,1.06,.77-.08,1.06-.43,1.06-1.26,0-1.34,.11-2.66,.53-3.93,.55-1.68,1.62-2.77,3.42-3.03Z"/><path class="d" d="M82.66,40.62l.04-.11c-.98-.42-1.92-.95-2.92-1.33-.06-.03-.12-.07-.18-.1-2.67-1.22-5.34-2.42-8-3.65-5.09-2.35-10.22-4.59-15.36-6.82-4.34-1.88-8.72-3.64-13.09-5.45-.34-.14-.7-.24-1.06-.31-.98-.16-1.96,.5-2.15,1.47-.1,.47-.17,.94-.28,1.41-.45,2.03-.91,4.06-1.27,6.11-.41,2.32-.81,4.64-1.09,6.97-.27,2.22-.47,4.44-.61,6.67-.07,1.07-.01,2.14-.01,3.25,.15-.14,.14-.28,.17-.41,.19-.94,.37-1.88,.55-2.82,.61-3.05,1.21-6.1,1.95-9.12,.66-2.66,1.54-5.26,2.46-7.84,.31-.86,.79-1.54,1.77-1.69,.54-.08,1.06-.02,1.59,.13,2.6,.73,5.11,1.74,7.65,2.64,3.46,1.24,6.89,2.53,10.34,3.8,3.64,1.34,7.28,2.68,10.92,4.01,1.9,.7,3.81,1.39,5.71,2.08,.96,.36,1.92,.73,2.89,1.09Z"/><path class="d" d="M35.86,60.3c.64,0,1.29,0,1.93,0,.07,0,.19,.02,.2-.09,.01-.14-.11-.14-.2-.13-.38,.02-.51-.19-.5-.54,0-.59,0-1.18,0-1.77,0-.24,.1-.3,.32-.3,.84,0,1.67,.01,2.51,0,.25,0,.3,.1,.29,.32-.01,.48,0,.96,0,1.44q0,.71-.7,.85c-.07,.01-.14,.02-.15,.11-.01,.1,.07,.11,.14,.11,.67,0,1.34,0,2.02,0,.07,0,.15-.03,.13-.11,0-.04-.07-.1-.11-.1-.53,0-.51-.4-.52-.76,0-1.34,0-2.69,0-4.03,0-.57,.08-.64,.66-.7,.09,0,.22,.03,.23-.11,0-.14-.12-.12-.21-.12-.64,0-1.29,0-1.93,0-.09,0-.21-.02-.22,.12,0,.11,.11,.11,.19,.11,.38,0,.49,.23,.48,.57,0,.58,0,1.15,0,1.73,0,.13,.03,.28-.15,.34h0c-.95,0-1.89,0-2.84,0-.12-.12-.13-.26-.13-.42,0-.45,0-.91,0-1.36q0-.72,.7-.85c.09-.02,.18-.02,.16-.13,0-.08-.08-.1-.16-.09-.67,0-1.34,0-2.02,0-.08,0-.18,0-.17,.12,0,.09,.08,.1,.15,.1,.48-.02,.51,.29,.51,.66,0,1.37,0,2.74,0,4.11,0,.6-.01,.62-.63,.72-.08,.01-.19,0-.18,.11,0,.15,.13,.11,.22,.11Z"/><path class="d" d="M54.46,60.09c-.41-.02-.62-.31-.84-.59-.44-.58-.87-1.16-1.33-1.72-.22-.27-.27-.4,.12-.57,.63-.27,.89-.84,.8-1.56-.09-.7-.43-1.05-1.14-1.21-.53-.12-1.07-.03-1.55-.06-.48,0-.92,0-1.36,0-.08,0-.18,0-.19,.1,0,.11,.09,.13,.17,.12,.49-.03,.55,.29,.55,.67,0,1.4,0,2.79,0,4.19,0,.51-.08,.59-.59,.63-.1,0-.26-.06-.26,.1,0,.17,.15,.12,.25,.12,.63,0,1.26,0,1.89,0,.1,0,.26,.06,.27-.09,.02-.17-.15-.12-.24-.12-.41,.02-.52-.22-.51-.57,0-.51,0-1.01,0-1.52,0-.45,.18-.58,.6-.45,.15,.05,.21,.17,.29,.27,.45,.62,.9,1.24,1.35,1.86,.42,.57,1.05,.8,1.73,.61,.05-.01,.11-.01,.12-.08,.02-.1-.05-.12-.12-.12Zm-3.42-2.84q-.55,0-.55-.56c0-.51-.01-1.01,0-1.52,.01-.45,.15-.58,.61-.58,.47,0,.95,0,1.18,.54,.23,.54,.14,1.44-.21,1.79-.28,.29-.65,.31-1.03,.32Z"/><path class="d" d="M77.06,60.21c.02-.09-.05-.11-.12-.13-.27-.07-.31-.27-.3-.51,0-.58,0-1.15,0-1.73,0-.11-.07-.27,.07-.33,.15-.06,.26,.06,.35,.17,.56,.68,1.11,1.36,1.66,2.04,.16,.19,.06,.3-.15,.34-.08,.02-.16,.02-.24,.03-.08,0-.18,.01-.16,.13,.01,.09,.1,.09,.16,.09,.36,0,.71,0,1.07,0h0c.36,0,.71,0,1.07,0,.07,0,.18,.02,.19-.09,0-.11-.09-.12-.17-.12-.37,0-.6-.23-.81-.49-.6-.73-1.19-1.47-1.79-2.2-.18-.21-.19-.39-.02-.61,.37-.48,.72-.97,1.07-1.46,.25-.35,.52-.68,.99-.73,.07,0,.14-.03,.14-.12,0-.08-.07-.11-.14-.11-.56,0-1.12,0-1.69,0-.07,0-.15,.02-.16,.1,0,.08,.06,.1,.13,.13,.53,.16,.62,.41,.3,.87-.32,.46-.67,.9-1,1.35-.15,.19-.34,.31-.57,.37-.2,.06-.3,0-.3-.24,.01-.53,.01-1.07,0-1.6,0-.4,0-.77,.54-.76,.08,0,.13-.05,.12-.12,0-.04-.07-.09-.11-.09-.63,0-1.26,0-1.89,0-.06,0-.14,.02-.13,.12,0,.07,.07,.09,.12,.09,.53,0,.53,.36,.53,.74,0,1.33,0,2.66,0,3.99,0,.42,0,.79-.57,.77-.07,0-.14,.03-.13,.12,0,.1,.09,.1,.15,.1,.55,0,1.1,0,1.64,0,.07,0,.15,0,.16-.09Z"/><path class="d" d="M46.43,54.46c-1.02-.4-2.18-.13-2.97,.71-1.1,1.17-1.08,3.16,.06,4.38,.97,1.04,2.5,1.14,3.6,.22,.78-.65,1.15-1.48,1.14-2.49,0-1.27-.72-2.39-1.82-2.83Zm.4,4.82c-.64,1.09-1.69,1.19-2.53,.25-.93-1.04-.96-3.39-.06-4.46,.58-.69,1.53-.75,2.21-.14,.6,.54,.89,1.3,.87,2.45,0,.6-.13,1.28-.5,1.9Z"/><path class="d" d="M70.26,54.49c0-.18-.18-.12-.29-.12-.49,0-.99,0-1.48,0-.12,0-.33-.07-.32,.13,0,.16,.2,.09,.31,.09,.59,.02,.65,.08,.65,.68,0,1.07,0,2.14,0,3.21,0,.1,.06,.22-.1,.3-.94-1.19-1.91-2.35-2.8-3.58-.46-.64-.95-.98-1.73-.83-.03,0-.05,0-.08,0-.1,.01-.26-.04-.28,.09-.03,.15,.14,.12,.24,.15,.32,.08,.57,.27,.57,.61,.01,1.55,.06,3.1-.02,4.64-.16,.18-.36,.23-.59,.22-.09,0-.22-.04-.21,.11,0,.14,.14,.11,.22,.11,.55,0,1.1,0,1.64,0,.09,0,.26,.06,.26-.1,0-.16-.16-.1-.26-.11-.7-.04-.76-.1-.77-.8,0-1.29-.01-2.57-.02-3.86,.17-.24,.22,.01,.28,.08,.67,.83,1.32,1.67,1.99,2.5,.59,.73,1.13,1.5,1.77,2.19,.32,.13,.16-.15,.16-.22,0-1.68,0-3.36,0-5.04,.12-.24,.32-.36,.6-.35,.1,0,.27,.04,.27-.1Z"/><path class="d" d="M72.93,56.89c-.38-.12-.76-.22-1.06-.51-.42-.41-.45-1.16-.04-1.55,.42-.41,1-.35,1.45,.12,.24,.26,.38,.57,.46,.9,.03,.11,.05,.25,.19,.21,.13-.03,.05-.16,.04-.25-.03-.19-.07-.38-.1-.57-.05-.36,.01-.82-.6-.74-.06,0-.12-.06-.18-.09-.26-.12-.53-.13-.8-.07-.64,.15-1.14,.7-1.19,1.31-.07,.88,.31,1.5,1.09,1.82,.3,.12,.62,.23,.91,.37,.51,.25,.72,.71,.65,1.34-.05,.43-.4,.83-.82,.92-.47,.11-.94-.1-1.27-.57-.08-.11-.15-.23-.2-.36-.14-.32-.26-.64-.39-.96l-.12,.02c0,.43,0,.86,0,1.3,0,.24-.07,.55,.37,.36,.14-.06,.21,.09,.31,.15,.77,.52,1.72,.41,2.26-.26,.88-1.08,.42-2.48-.95-2.92Z"/><path class="d" d="M57.48,60.21c.02-.15-.11-.11-.2-.13-.52-.06-.56-.11-.56-.64,0-1.36,0-2.71,0-4.07q0-.61,.62-.77c.07-.02,.14-.04,.14-.12,0-.08-.08-.11-.15-.11-.66,0-1.32,0-1.97,0-.07,0-.15,.02-.16,.09-.01,.1,.07,.14,.16,.13,.49-.04,.55,.27,.55,.66,0,1.33,0,2.66,0,3.99,0,.71,0,.71-.7,.84-.08,.01-.18,0-.17,.12,.01,.11,.12,.1,.2,.1,.34,0,.69,0,1.03,0,.16,0,.33,0,.49,0,.16,0,.33,0,.49,0,.09,0,.22,.03,.24-.09Z"/><path class="d" d="M83.39,54.59c.08,0,.18,0,.19-.11,0-.11-.1-.11-.18-.11-.64,0-1.29,0-1.93,0-.08,0-.17,.01-.17,.12,0,.08,.08,.11,.15,.1,.51-.04,.57,.28,.57,.69,0,1.33,0,2.66,0,3.99q0,.69-.69,.82c-.08,.01-.18,0-.16,.13,.02,.11,.12,.09,.2,.09,.33,0,.66,0,.99,0h0c.33,0,.66,0,.99,0,.1,0,.26,.05,.25-.12,0-.13-.15-.1-.23-.1-.39,.01-.52-.18-.52-.56,.01-1.42,.01-2.85,0-4.27,0-.41,.11-.67,.57-.66Z"/><path class="d" d="M61.7,58.24c.12,.46,.27,.92,.4,1.38,.08,.27-.02,.42-.3,.45-.12,.01-.25,.01-.37,.02-.07,0-.15,.02-.15,.1,0,.12,.09,.11,.17,.11,.67,0,1.34,0,2.01,0,.06,0,.15,0,.16-.09,.01-.12-.08-.13-.16-.13-.41,.03-.54-.23-.64-.56-.1-.35-.22-.71-.33-1.06-.42-1.3-.77-2.62-1.24-3.91-.48-.12-.75,.04-.81,.47,0,.08-.01,.17-.04,.24-.48,1.41-.96,2.82-1.46,4.22-.11,.32-.32,.58-.71,.59-.08,0-.18,.02-.16,.13,.02,.11,.12,.08,.2,.08,.49,0,.98,0,1.48,0,.09,0,.22,.03,.21-.11,0-.1-.12-.08-.2-.1-.41-.08-.57-.31-.48-.72,.04-.19,.11-.37,.17-.55q.28-.8,1.11-.85c.25,0,.49,.03,.74,.01,.21-.01,.33,.05,.38,.26Zm-.63-.73c-.39,0-.79,.1-1.15-.13h0c.07-.01,.13-.06,.15-.12,.24-.62,.46-1.24,.62-1.88,.24,.58,.35,1.2,.55,1.8,.05,.15,.03,.33-.18,.33Z"/><path class="d" d="M55.38,54c.31,.19,.43,.14,.44-.19,.01-.36,0-.71,0-1.07,0-.24-.06-.49,.08-.76,.27,.59,.27,1.21,.46,1.78,.04,.13,.02,.36,.25,.28,.18-.06,.07-.23,.03-.36-.16-.58-.33-1.15-.5-1.77l.24,.12h0c.08,.4,.29,.71,.58,.98h0s.05,.1,.08,.14c.08,.08,.09,.28,.24,.24,.15-.03,.16-.22,.18-.34,.08-.56-.04-1.06-.5-1.43-.4-.47-1.27-.43-1.78,.1-.63,.64-.52,1.83,.19,2.27Z"/><path class="d" d="M37.95,53.52c.34-.08,.51-.25,.47-.63-.03-.29-.12-.64,.3-.78h-1.15c.11,.16,.34,.05,.36,.23,.04,.31,.12,.66-.03,.92-.16,.27-.51,.22-.8,.17-.19-.03-.36-.13-.5-.26-.63-.61-.66-1.88-.06-2.51,.52-.55,1.44-.38,1.74,.32,.05,.13,.03,.3,.24,.43-.02-.44,.18-.81-.42-1.06-.89-.37-1.98-.09-2.36,.82-.27,.65-.25,1.31,.22,1.86,.53,.62,1.24,.69,1.99,.5Z"/><path class="d" d="M39.94,52.53c.17,.23,.36,.44,.51,.69,.18,.29,.41,.41,.77,.29-.36-.22-.52-.59-.78-.88-.13-.14-.18-.25,.04-.38,.27-.16,.31-.43,.22-.72-.09-.28-.31-.37-.57-.38-.35-.01-.7,0-1.07,0,.36,.34,.32,2.17-.05,2.37h.9l-.23-.14c-.06-.23-.05-.46-.01-.69,.02-.16,.1-.26,.28-.15Zm-.33-.73c.04-.24-.11-.58,.33-.57,.34,0,.48,.2,.47,.53,0,.35-.14,.54-.5,.55-.46,.02-.23-.33-.3-.51Z"/><path class="d" d="M45.88,52.36c.01,.68,.53,1.25,1.12,1.25,.64,0,1.18-.59,1.17-1.28,0-.67-.53-1.24-1.12-1.24-.67,0-1.18,.56-1.17,1.27Zm1.75-.73c.12,.22,.14,.47,.12,.71,.01,.29-.04,.55-.19,.79-.27,.43-.68,.47-1.01,.09-.37-.42-.39-1.34-.03-1.77,.31-.39,.85-.31,1.11,.18Z"/><path class="d" d="M43.22,52.77c.01-.31,.01-.63,0-.95,0-.26-.02-.52,.35-.68h-.78c.31,.1,.27,.35,.27,.59,0,.34,0,.68,0,1.03,0,.46-.21,.68-.63,.69-.45,0-.66-.2-.68-.68,0-.36,0-.71,0-1.07,0-.22-.03-.44,.24-.55h-.77c.21,.12,.2,.3,.2,.49,0,.38,0,.77,0,1.15,.02,.59,.28,.83,.88,.83,.56,0,.88-.29,.9-.84Z"/><path class="d" d="M44.95,52.42c.46-.04,.71-.24,.72-.62,.01-.35-.27-.63-.7-.66-.34-.02-.69,0-1.08,0,.36,.33,.32,2.19-.04,2.39h.88c-.45-.24-.25-.63-.24-.95,0-.29,.3-.14,.46-.16Zm-.17-1.2c.32-.01,.55,.25,.54,.59-.01,.37-.24,.49-.59,.48-.37,.06-.29-.23-.27-.42,.03-.24-.18-.63,.31-.65Z"/><path class="d" d="M41.25,63.71c0-.18,.03-.36-.25-.36-.27,0-.22,.18-.22,.34,0,.23,.03,.48-.05,.77-.28-.36-.52-.65-.74-.96-.1-.14-.22-.15-.36-.13-.18,.03-.13,.18-.13,.3,0,.49,0,.99,0,1.48,0,.18,.03,.28,.25,.28,.21,0,.21-.12,.2-.26,0-.28,0-.56,0-.96,.31,.4,.55,.71,.78,1.02,.11,.15,.24,.23,.41,.19,.2-.05,.12-.22,.12-.34,0-.45,0-.9,0-1.36Z"/><path class="d" d="M62.36,63.38c-.3-.05-.63-.02-.94-.02-.12,0-.17,.06-.17,.18,0,.56,0,1.12,0,1.68,0,.17,.1,.2,.24,.19,.13,0,.24-.02,.24-.2,0-.13-.09-.33,.13-.38,.24-.06,.34,.12,.43,.3,.13,.26,.32,.35,.66,.23-.26-.33-.4-.57-.1-.97,.28-.37-.02-.93-.48-1.01Zm-.35,1.08c-.34,.03-.28-.2-.28-.42-.04-.22,.04-.33,.31-.3,.25,.02,.44,.11,.43,.37,0,.27-.21,.33-.46,.35Z"/><path class="d" d="M64.16,63.32c-.58,0-1.02,.46-1.01,1.06,0,.62,.42,1.05,1.02,1.05,.64,0,1.05-.41,1.05-1.06,0-.63-.43-1.06-1.05-1.06Zm.03,1.71c-.34,0-.57-.27-.57-.65,0-.4,.23-.65,.58-.64,.34,.01,.56,.28,.55,.67-.01,.36-.24,.62-.57,.62Z"/><path class="d" d="M60.45,63.41c-.33-.11-.68-.05-1.02-.05-.19,0-.16,.15-.16,.27,0,.48,0,.96,0,1.44,0,.15-.06,.34,.21,.34,.25,0,.25-.14,.26-.32,0-.1-.04-.24,.12-.26,.13-.02,.25-.01,.32,.12,.04,.07,.1,.13,.13,.21,.13,.25,.31,.32,.59,.2-.02-.05-.03-.11-.07-.15-.2-.25-.28-.45-.02-.77,.28-.35,.05-.9-.38-1.04Zm-.45,1.05c-.31,.02-.29-.17-.27-.39-.02-.2,0-.36,.29-.34,.24,.02,.45,.06,.45,.35,0,.31-.21,.36-.47,.37Z"/><path class="d" d="M52.25,63.35c-.29,0-.25,.21-.23,.37,.04,.33-.06,.44-.42,.45-.41,.02-.45-.16-.42-.48,.02-.16,.05-.33-.21-.35-.29-.01-.25,.18-.25,.35,0,.45,0,.9,0,1.35,0,.17-.05,.36,.24,.36,.31,0,.2-.22,.22-.37,.02-.15-.08-.35,.09-.46,.31-.2,.74,.04,.74,.41,0,.05,0,.11,0,.16-.01,.17,.04,.25,.23,.25,.19,0,.23-.08,.22-.25-.01-.25,0-.49,0-.74,0-.23,.01-.47,0-.7,0-.15,.11-.38-.21-.38Z"/><path class="d" d="M36.95,63.93c.16-.16,.33-.31,.44-.56-.7-.15-.78,.58-1.23,.77-.08-.17-.04-.35-.03-.52,0-.18-.04-.29-.25-.28-.19,0-.23,.11-.23,.26,0,.52,0,1.04,0,1.56,0,.18,.07,.24,.25,.24,.19,0,.24-.1,.23-.26-.02-.19,0-.4,.19-.46,.18-.05,.24,.18,.33,.3,.2,.26,.37,.55,.81,.35-.19-.26-.34-.52-.54-.73-.26-.27-.19-.46,.03-.69Z"/><path class="d" d="M83.28,65.02c-.19,0-.38,0-.57,0-.17,0-.25-.04-.25-.23,0-.17,.07-.25,.24-.24,.14,0,.27,0,.41,0,.12,0,.21-.02,.22-.17,0-.17-.09-.21-.23-.21-.12,0-.25,0-.37,0-.15,0-.27,0-.27-.21,0-.19,.1-.22,.26-.22,.16,0,.33,0,.49,0,.15,0,.23-.04,.22-.21,0-.15-.08-.19-.2-.18-.08,0-.16,0-.25,0q-1,0-.99,1c0,.27,0,.55,0,.82,0,.14,.03,.24,.2,.24,.37,0,.74,0,1.11,0,.14,0,.19-.07,.19-.2,0-.15-.08-.18-.2-.18Z"/><path class="d" d="M71.93,63.62c0-.15-.02-.27-.21-.27-.2,0-.26,.09-.25,.28,0,.31,0,.63,0,.94,0,.26-.12,.46-.42,.45-.29-.01-.39-.22-.39-.48,0-.27,0-.55,0-.82,0-.17,.06-.38-.24-.37-.27,0-.21,.2-.21,.35,0,.14,0,.27,0,.41h0c0,.15,0,.3,0,.45,0,.53,.29,.85,.78,.88,.56,.03,.9-.24,.94-.79,.03-.34,0-.68,.01-1.03Z"/><path class="d" d="M49.77,63.56c-.06-.15-.14-.21-.3-.21-.16,0-.25,.06-.31,.2-.21,.52-.43,1.03-.64,1.55-.04,.09-.18,.24,.03,.3,.14,.04,.32,.06,.37-.14,.08-.3,.3-.31,.54-.28,.26-.04,.48-.01,.56,.3,.05,.2,.26,.15,.39,.12,.22-.06,.04-.2,0-.29-.21-.52-.43-1.03-.64-1.55Zm-.11,1c-.06,.11-.34,.11-.4,0-.13-.22,.09-.4,.17-.71,.13,.31,.35,.48,.23,.71Z"/><path class="d" d="M77.8,65.02c-.19,0-.38,0-.58,0-.19,.01-.23-.08-.23-.25,0-.17,.07-.22,.22-.22,.15,0,.3,0,.45,0,.13,0,.21-.04,.21-.18,0-.14-.06-.2-.19-.2-.15,0-.3,0-.45,0-.15,0-.23-.04-.24-.21,0-.19,.09-.23,.25-.23,.18,0,.36,0,.53,0,.13,0,.2-.05,.2-.19,0-.14-.07-.2-.2-.2-.08,0-.16,0-.25,0q-.99,0-.99,1.02c0,.25,0,.49,0,.74,0,.2,.03,.31,.26,.3,.33-.01,.66,0,.99,0,.13,0,.24-.01,.25-.19,0-.18-.1-.2-.24-.2Z"/><path class="d" d="M68.09,65.12c-.21-.5-.43-1.01-.63-1.51-.06-.15-.11-.26-.31-.27-.21,0-.29,.1-.35,.27-.2,.49-.41,.98-.61,1.48-.04,.09-.19,.23,0,.3,.12,.05,.33,.08,.38-.12,.09-.33,.32-.31,.57-.31,.26,0,.48,0,.56,.32,.04,.17,.23,.12,.36,.12,.07,0,.13-.05,.11-.13-.02-.05-.05-.1-.07-.15Zm-.76-.56c-.05,.12-.34,.11-.4,0-.14-.24,.1-.43,.18-.72,.12,.28,.33,.48,.22,.72Z"/><path class="d" d="M43.7,63.56c-.06-.14-.14-.22-.31-.22-.15,0-.26,.04-.32,.2-.21,.55-.43,1.1-.66,1.64-.09,.22,.03,.23,.15,.23,.12,0,.24,0,.26-.12,.05-.34,.3-.33,.56-.32,.25,0,.49-.04,.57,.31,.04,.21,.25,.15,.38,.11,.17-.05,.05-.19,.02-.27-.21-.52-.43-1.04-.64-1.56Zm-.13,1.02c-.07,.1-.32,.09-.37,.01-.18-.26,.12-.43,.19-.67,.08,.23,.36,.41,.19,.66Z"/><path class="d" d="M38.96,65.02c-.21,0-.41,0-.62,0-.15,0-.23-.04-.22-.21,0-.16,.03-.27,.22-.26,.1,0,.19,.01,.29,0,.14-.02,.37,.1,.38-.17,0-.3-.24-.17-.39-.2-.08-.02-.16-.01-.25,0-.16,.01-.26-.04-.25-.23,0-.16,.08-.22,.23-.21,.12,0,.25,.01,.37,0,.15-.02,.4,.11,.39-.2,0-.27-.23-.18-.37-.18-1.05-.04-1.05-.03-1.05,1.01,0,.27,0,.55,0,.82,0,.15,.04,.22,.21,.22,.36,0,.71,0,1.07,0,.13,0,.2-.06,.2-.2,0-.15-.07-.19-.2-.19Z"/><path class="d" d="M58.72,65.03c-.19,0-.38,0-.58,0-.17,0-.25-.04-.25-.23,0-.17,.06-.25,.24-.24,.15,0,.3,0,.45,0,.14,0,.19-.07,.19-.21,0-.12-.07-.17-.18-.17-.12,0-.25,0-.37,0-.16,0-.34,.04-.33-.23,0-.24,.17-.2,.32-.21,.14,0,.27,0,.41,0,.14,0,.28,.01,.27-.2,0-.22-.16-.18-.29-.19-.05,0-.11,0-.16,0q-1,0-1,1c0,.27,0,.55,0,.82,0,.14,.02,.24,.2,.24,.37,0,.74,0,1.11,0,.13,0,.2-.04,.2-.19,0-.18-.1-.2-.23-.19Z"/><path class="d" d="M69.66,65.02c-.23,0-.46,0-.8,0,.35-.45,.64-.83,.93-1.21,.09-.11,.15-.24,.08-.38-.06-.12-.19-.08-.3-.08-.36,0-.71,0-1.07,0-.16,0-.22,.07-.22,.22,0,.15,.1,.17,.22,.17,.23,0,.45,0,.67,0,.05,.15-.04,.2-.08,.26-.25,.33-.51,.64-.75,.98-.2,.28-.12,.42,.22,.42,.37,0,.74,0,1.11,0,.15,0,.27,0,.27-.21,0-.22-.15-.19-.28-.19Z"/><path class="d" d="M56.74,64.9c-.28,.22-.58,.18-.8-.1-.21-.27-.2-.57,0-.84,.21-.26,.49-.31,.77-.11,.18,.13,.29,.05,.37-.08,.11-.18-.08-.24-.18-.3-.35-.23-.86-.19-1.19,.08-.34,.28-.47,.78-.31,1.24,.14,.4,.49,.65,1,.66,.18,.03,.38-.05,.57-.17,.1-.07,.22-.15,.1-.29-.09-.1-.17-.2-.34-.07Z"/><path class="d" d="M81.23,64.93c-.27,.18-.53,.13-.73-.11-.22-.28-.23-.59,0-.87,.2-.25,.47-.3,.73-.13,.18,.12,.31,.11,.4-.06,.11-.2-.1-.25-.21-.32-.35-.2-.84-.15-1.16,.11-.34,.28-.47,.8-.3,1.23,.16,.42,.5,.65,.95,.65,.18,0,.36,0,.51-.11,.11-.08,.33-.1,.22-.32-.09-.18-.23-.2-.4-.08Z"/><path class="d" d="M47.41,63.36c-.13,.01-.25,0-.26,.18,0,.21,.13,.22,.27,.2,.35-.06,.42,.12,.39,.42-.02,.18,0,.36-.01,.53-.03,.3-.17,.44-.46,.26-.14-.08-.22-.08-.3,.05-.1,.16-.01,.25,.11,.33,.44,.29,1.02,.04,1.08-.48,.03-.21,0-.44,0-.65q.02-.91-.84-.84Z"/><path class="d" d="M79.6,63.35c-.2,0-.41,0-.61,0-.18,0-.36,0-.53,0-.14,0-.32-.03-.31,.21,0,.22,.16,.2,.29,.18,.29-.04,.34,.11,.33,.36-.02,.3-.01,.6,0,.9,0,.16-.11,.41,.23,.4,.31,0,.21-.23,.21-.38,.01-.29,.02-.57,0-.86-.02-.3,.04-.48,.39-.42,.12,.02,.21,0,.21-.17,0-.15-.04-.23-.21-.23Z"/><path class="d" d="M73.55,65.02c-.15,0-.3,0-.45,0-.23,.02-.32-.06-.31-.3,.01-.37,0-.74,0-1.11,0-.16-.02-.26-.22-.26-.18,0-.24,.07-.23,.25,.01,.25,0,.49,0,.74,0,.27,0,.55,0,.82,0,.14,.03,.24,.2,.24,.34,0,.69,0,1.03,0,.15,0,.18-.08,.19-.2,0-.14-.06-.2-.2-.19Z"/><path class="d" d="M42.15,64.42c0-.26,0-.52,0-.78,0-.16,0-.3-.23-.3-.21,0-.25,.11-.25,.28,0,.51,0,1.01,0,1.52,0,.19,.06,.27,.26,.27,.19,0,.23-.09,.22-.26,0-.25,0-.49,0-.74Z"/><rect class="d" x="74.5" y="64.44" width=".91" height=".31"/><rect class="d" x="53.5" y="64.44" width=".91" height=".31"/><rect class="d" x="45.14" y="64.44" width=".91" height=".31"/></g></g></g></svg>