<?xml version="1.0" encoding="UTF-8"?><svg xmlns="http://www.w3.org/2000/svg" viewBox="0 0 94.24 31.57"><defs><style>.d{fill:#fff;}</style></defs><g id="a"/><g id="b"><g id="c"><g><path class="d" d="M7.73,6.28c1.49,0,2.98,0,4.47,0,1.34,0,2.18,.6,2.68,1.84,.17,.42,.24,.87,.25,1.32,.02,1.14,.17,.94-.93,.96-.76,.01-1.52,0-2.28,0-.19,0-.34,.01-.38-.27-.06-.47-.33-.7-.84-.72-1.87-.06-3.74-.13-5.61-.15-.83-.01-1.39,.55-1.42,1.36-.05,1.08-.08,2.16-.09,3.25,0,.86,.43,1.29,1.3,1.29,1.87,0,3.74,0,5.61,0,.64,0,.93-.25,1.07-.85,.07-.32,0-.46-.36-.45-1.14,.02-2.28,.02-3.42,.02-.65,0-.75-.11-.76-.76,0-.46-.03-.93-.06-1.39-.02-.26,.06-.38,.35-.38,2.52-.01,5.03-.04,7.55-.06,.23,0,.38,.04,.36,.32-.06,1.16,.03,2.33-.1,3.5-.19,1.74-1.39,2.9-3.15,3-1.04,.06-2.08,0-3.12,0-1.6,0-3.21,.02-4.81,0-1.02-.02-2.02-.2-2.85-.86-.68-.54-1.02-1.26-1.05-2.12C.09,13.29,.04,11.48,0,9.67c-.04-1.93,1.37-3.38,3.3-3.39,1.48,0,2.95,0,4.43,0Z"/><path class="d" d="M42.26,15.08c0-.77,.02-1.54,0-2.31-.07-2,0-3.99-.04-5.99,0-.29,.09-.39,.39-.39,.96,.01,1.91,.01,2.87,0,.4,0,.49,.21,.43,.53-.04,.21-.04,.42-.04,.63,0,3.28-.02,6.55,0,9.83,0,.35-.07,.49-.46,.48-1.69-.02-3.37-.02-5.06-.01-.31,0-.49-.14-.66-.37-1.9-2.59-3.81-5.18-5.71-7.77-.07-.09-.12-.22-.25-.18-.16,.05-.1,.21-.1,.33,0,2.47,0,4.95-.01,7.42,0,.55,0,.55-.55,.55-.86,0-1.72-.02-2.57,0-.4,.01-.5-.13-.5-.5,0-3.16,0-6.33-.01-9.49,0-.35,0-.7-.02-1.05-.01-.28,.08-.41,.38-.4,1.77,0,3.54,.01,5.31,0,.33,0,.43,.19,.59,.42,.67,.97,1.38,1.91,2.06,2.87,1.04,1.47,2.07,2.94,3.11,4.41,.25,.35,.5,.7,.75,1.04l.12-.05Z"/><path class="d" d="M87.33,18.1c-1.35-.06-2.7,.12-4.04-.09-.8-.12-1.55-.36-2.15-.96-.78-.78-1.01-1.72-.91-2.78,.02-.22,.12-.31,.35-.31,.91,.01,1.83,0,2.74,0,.22,0,.27,.09,.29,.3,.07,.77,.34,.99,1.11,.99,1.55,0,3.09,0,4.64,0,.21,0,.42,0,.63,0,.48-.03,.76-.24,.81-.59,.09-.6-.1-1-.56-1.19-.33-.13-.68-.17-1.03-.17-2.01,0-4.02,0-6.03,0-.64,0-1.26-.11-1.81-.46-.71-.44-1.08-1.09-1.09-1.92,0-.66,.02-1.32,0-1.98-.04-1.4,.77-2.12,1.94-2.52,.74-.26,1.5-.32,2.28-.31,1.95,.02,3.91,0,5.86,0,.78,0,1.55,.1,2.24,.49,.77,.44,1.28,1.04,1.16,2.01-.04,.35-.04,.7-.04,1.05,0,.26-.1,.34-.35,.34-.89-.01-1.77,0-2.66,0-.17,0-.28-.01-.32-.23-.1-.62-.26-.76-.88-.77-.51-.02-1.01,0-1.52,0-1.05,0-2.11,0-3.16,0-.28,0-.53,.06-.75,.23-.49,.37-.48,.96,.03,1.3,.27,.18,.56,.25,.88,.24,1.97-.02,3.94,.03,5.9-.03,1.06-.03,2.05,.17,2.78,1.04,.29,.35,.46,.76,.5,1.19,.07,.87,.12,1.75,0,2.61-.2,1.35-1.22,2.23-2.79,2.46-1.19,.18-2.39,.04-3.58,.08-.15,0-.31,0-.46,0Z"/><path class="d" d="M67.56,6.2c1.17,0,2.33,0,3.5,0,1,0,1.88,.29,2.55,1.08,.22,.26,.36,.52,.35,.87-.02,.52-.01,1.04,0,1.56,0,.25-.08,.35-.34,.35-.84-.01-1.69-.01-2.53,0-.24,0-.34-.08-.36-.33-.05-.45-.31-.67-.77-.68-1.67-.01-3.35-.02-5.02-.02-.47,0-.88,.33-.93,.71-.06,.45,.21,.81,.7,.96,.19,.06,.39,.07,.58,.07,2.02,0,4.05,0,6.07-.02,1.33-.01,2.35,.47,2.94,1.71,0,.01,.02,.02,.02,.04,.17,1.33,.42,2.7-.21,3.96-.56,1.11-1.64,1.56-2.83,1.63-1.19,.07-2.39,.04-3.58,.04-1.27,0-2.53,.07-3.8-.04-1.32-.12-2.46-.59-3.1-1.86-.31-.62-.36-1.29-.27-1.97,.02-.19,.1-.27,.29-.27,.94,0,1.88,0,2.83,0,.18,0,.23,.09,.25,.26,.11,.89,.3,1.05,1.19,1.05,1.62,0,3.23,.01,4.85,.01,.14,0,.28-.02,.42-.04,.37-.05,.7-.16,.74-.61,.06-.65-.11-1-.58-1.17-.34-.12-.69-.14-1.04-.14-2.01,0-4.02,0-6.03,0-.67,0-1.31-.15-1.88-.53-.66-.44-.98-1.07-1-1.85-.01-.73,0-1.46,0-2.19,0-1.04,.57-1.69,1.47-2.12,.75-.36,1.54-.49,2.37-.47,1.05,.02,2.11,0,3.16,0Z"/><path class="d" d="M22.71,17.86c-1.95,0-3.91,0-5.86,0-.34,0-.46-.08-.46-.44,.04-3.54,.06-7.09,.08-10.63,0-.32,.12-.41,.42-.41,3.91,0,7.82,0,11.73,0,.32,0,.45,.08,.44,.43-.02,.7-.02,1.41,0,2.11,0,.3-.1,.38-.39,.38-2.74,.02-5.48,.07-8.22,.08-.4,0-.53,.1-.52,.51,.03,.85,.01,.85,.84,.85,2.45,0,4.89,0,7.34,0,.38,0,.49,.11,.47,.48-.03,.59-.03,1.18,0,1.77,.02,.36-.12,.45-.46,.45-2.59-.01-5.18,0-7.76-.02-.44,0-.54,.13-.53,.55,.02,1.2,0,1.2,1.22,1.2,2.53,0,5.06,0,7.59,0,.41,0,.54,.12,.51,.52-.03,.56-.03,1.13,0,1.69,.02,.38-.13,.48-.49,.47-1.98-.01-3.97,0-5.95,0v.02Z"/><path class="d" d="M53.57,17.86c-1.94,0-3.88,0-5.82,0-.37,0-.48-.11-.48-.48,.02-3.53,.02-7.06,.01-10.59,0-.3,.08-.42,.4-.42,3.89,0,7.79,.01,11.68,0,.35,0,.43,.13,.42,.44-.02,.69-.02,1.38,0,2.07,.01,.35-.13,.44-.44,.44-2.7,.02-5.4,.05-8.09,.05-.43,0-.56,.11-.54,.54,.04,.82,.02,.82,.83,.82,2.46,0,4.92,0,7.38,0,.34,0,.45,.09,.44,.42-.02,.58-.05,1.15-.02,1.73,.02,.42-.09,.55-.53,.55-2.19-.02-4.39-.01-6.58-.01-.44,0-.87,.01-1.31,0-.26,0-.35,.09-.34,.35,.01,.32,.02,.65,0,.97-.02,.33,.09,.44,.43,.43,1.21-.02,2.42,0,3.63,0,1.59,0,3.18,.01,4.77,0,.42,0,.54,.13,.51,.53-.03,.5,0,1.01,0,1.52,0,.63,0,.63-.61,.63-1.91,0-3.82,0-5.74,0v.02Z"/><path class="d" d="M75.47,12.07c0-1.74,.01-3.49,0-5.23,0-.36,.1-.46,.45-.45,.98,.02,1.97,.02,2.95,0,.3,0,.41,.08,.41,.4-.02,3.53-.03,7.06-.03,10.59,0,.32-.08,.44-.42,.44-.96-.02-1.91-.01-2.87,0-.3,0-.42-.07-.42-.4,.02-1.79,0-3.57,0-5.36h-.07Z"/><path class="d" d="M55.06,28.72c.08,0,.17,0,.25,0,.34-.04,.54,.04,.66,.43,.26,.81,.88,1.08,1.85,.81,.7-.19,1.02-1.01,.72-1.69-.28-.63-.88-.86-1.5-.94-.36-.04-.47-.16-.43-.49,0-.07,.01-.14,0-.21-.07-.46,.05-.76,.58-.76,.11,0,.21-.07,.31-.12,.4-.2,.65-.5,.64-.96-.01-.35-.2-.62-.55-.72-.45-.14-.92-.09-1.19,.29-.26,.36-.56,.43-.94,.4-.06,0-.11,0-.17,0-.84,0-.88-.04-.49-.83,.48-.96,1.3-1.46,2.36-1.5,1.06-.04,1.88,.43,2.43,1.33,.52,.87,.27,1.87-.58,2.54-.16,.13-.42,.25-.03,.42,1.63,.69,1.67,2.89,.49,4-1.42,1.32-3.9,1.08-4.86-.52-.2-.33-.3-.69-.38-1.06-.06-.3,.02-.46,.36-.42,.15,.02,.31,0,.46,0Z"/><path class="d" d="M39.99,22.42c2.02,0,3.36,2.06,2.56,3.85-.58,1.29-1.3,2.51-1.94,3.78-.21,.41-.44,.81-.62,1.24-.11,.25-.26,.27-.46,.18-.28-.12-.56-.26-.83-.4-.25-.12-.31-.27-.16-.54,.4-.73,.76-1.47,1.15-2.19,.14-.26,.22-.4-.2-.45-1.14-.14-1.82-.9-2.21-1.89-.5-1.24,.38-2.95,1.67-3.37,.35-.11,.69-.25,1.04-.21Zm.02,3.87c.65,0,1.11-.49,1.1-1.16-.01-.6-.51-1.08-1.1-1.11-.66-.04-1.14,.67-1.12,1.16,.03,.57,.4,1.13,1.11,1.11Z"/><path class="d" d="M47.96,27.02c0,1.31,0,2.62,0,3.92,0,.32-.06,.47-.42,.42-.29-.04-.59-.03-.88,0-.33,.03-.4-.1-.4-.4,.01-2,0-3.99,0-5.99,0-.13-.01-.25,0-.38,.03-.3-.09-.4-.39-.37-.35,.03-.7,0-1.05,.02-.25,0-.36-.07-.21-.32,.23-.36,.46-.71,.68-1.06,.12-.19,.3-.24,.51-.24,.59,0,1.18,.02,1.77,0,.29-.01,.36,.09,.36,.36,0,1.35,0,2.7,0,4.05h.01Z"/><path class="d" d="M45.91,1.47c-.32,.41-.5,.89-.74,1.34-.17,.32-.33,.65-.49,.98-.06,.12-.1,.29-.28,.27-.15-.01-.18-.16-.24-.27-.36-.71-.73-1.42-1.09-2.13-.04-.07-.09-.14-.17-.27-.19,.55-.16,1.07-.25,1.56-.07,.34-.11,.69-.16,1.04-.02,.16-.09,.22-.25,.21-.16-.01-.18-.12-.16-.24,.18-1.22,.36-2.44,.54-3.66,0-.04,.04-.07,.1-.17,.34,.67,.67,1.3,.99,1.93,.18,.35,.36,.7,.53,1.05,.13,.26,.23,.28,.37,0,.41-.83,.83-1.66,1.25-2.48,.07-.14,.1-.32,.29-.42,.16,.52,.2,1.05,.28,1.57,.11,.68,.2,1.36,.3,2.04,.03,.18,0,.32-.19,.36-.23,.04-.18-.18-.2-.29-.11-.71-.21-1.42-.31-2.12-.01-.09,.02-.2-.12-.28Z"/><path class="d" d="M58.6,1.46c-.11,.69-.23,1.38-.33,2.06-.02,.11,0,.22-.01,.34-.01,.15,0,.34-.24,.3-.23-.04-.18-.22-.16-.37,.08-.6,.16-1.2,.25-1.79,.09-.61,.18-1.22,.26-1.83,.2-.02,.21,.14,.26,.24,.45,.89,.9,1.78,1.36,2.66,.05,.09,.06,.24,.2,.23,.11,0,.13-.14,.17-.22,.42-.83,.83-1.65,1.26-2.48,.07-.15,.11-.32,.32-.45,.1,.61,.2,1.2,.29,1.78,.09,.6,.18,1.19,.26,1.79,.02,.13,.08,.31-.12,.35-.21,.04-.26-.11-.28-.28-.09-.67-.17-1.33-.26-2-.02-.12,.02-.31-.11-.34-.16-.04-.21,.16-.27,.28-.34,.66-.67,1.33-1,1.99-.05,.1-.07,.26-.24,.26-.17,0-.23-.14-.29-.27-.34-.66-.67-1.32-1.01-1.98-.05-.11-.08-.24-.27-.28Z"/><path class="d" d="M72.06,2.14C72.07,.94,73.04,0,74.25,0c1.25,0,2.22,.96,2.22,2.16,0,1.15-1.07,2.17-2.25,2.15-1.2-.02-2.17-1-2.16-2.18Zm.42,0c-.01,.97,.76,1.77,1.75,1.79,.99,.02,1.81-.78,1.81-1.76,0-.97-.79-1.76-1.77-1.77-.97-.01-1.78,.78-1.79,1.75Z"/><path class="d" d="M66.52,2.07c0-.53,.01-1.07,0-1.6-.01-.28,.09-.37,.36-.35,.56,.03,1.12-.04,1.68,.09,.99,.23,1.61,1.15,1.49,2.23-.11,1.01-.84,1.7-1.84,1.73-.42,.01-.84,0-1.26,0-.3,0-.43-.11-.42-.42,.01-.56,0-1.12,0-1.68Zm.39,.04c0,.17,0,.34,0,.5q0,1.28,1.29,1.16c.86-.09,1.36-.61,1.42-1.48,.05-.86-.46-1.56-1.3-1.7-.37-.06-.75-.06-1.13-.09-.23-.02-.28,.11-.28,.31,0,.43,0,.87,0,1.3Z"/><path class="d" d="M63.35,2.1c0-.52,.02-1.04,0-1.56-.02-.34,.12-.43,.44-.42,.53,.02,1.07,0,1.6,.01,.15,0,.38-.08,.37,.2-.01,.27-.24,.18-.39,.19-.42,.01-.84,.01-1.26,0-.23,0-.32,.08-.33,.31-.06,.95-.07,.95,.88,.95,.21,0,.42-.01,.63,0,.17,.02,.46-.12,.46,.2,0,.35-.31,.21-.48,.22-.38,.02-.76,.02-1.14,0-.25,0-.36,.08-.35,.34,.01,.32,0,.65,0,.97,0,.22,.1,.3,.31,.29,.45,0,.9,0,1.35,0,.13,0,.31-.03,.31,.18,0,.2-.16,.2-.31,.2-.56,0-1.12,0-1.69,0-.29,0-.4-.11-.4-.4,.01-.56,0-1.12,0-1.69Z"/><path class="d" d="M47.63,1.68c0-.35-.02-.7,0-1.05,.01-.17-.16-.49,.19-.49,.39,0,.2,.33,.21,.51,.03,.74,0,1.49,.03,2.23,.02,.66,.38,1.04,.96,1.04,.54,0,.95-.43,.96-1.07,.01-.79,0-1.57,0-2.36,0-.15-.09-.36,.2-.37,.28-.01,.22,.2,.22,.35,0,.8,.02,1.6,0,2.4-.03,.99-.84,1.62-1.72,1.39-.57-.15-1.02-.71-1.04-1.32-.02-.42,0-.84,0-1.26h0Z"/><path class="d" d="M79.35,3.3c-.01,.72-.94,1.25-1.67,.89-.27-.14-.48-.34-.65-.59-.06-.09-.09-.18,.02-.25,.1-.07,.2-.11,.29,.01,.12,.16,.23,.32,.41,.42,.34,.2,.74,.14,.98-.15,.22-.26,.2-.62-.06-.92-.34-.38-.79-.63-1.15-.98-.56-.55-.45-1.32,.22-1.64,.47-.22,1.14-.02,1.42,.41,.08,.12,.08,.19-.03,.29-.12,.1-.21,.1-.32-.02-.16-.18-.35-.33-.61-.33-.23,0-.41,.07-.53,.28-.12,.21-.07,.41,.06,.59,.22,.3,.56,.46,.84,.7,.39,.32,.79,.65,.77,1.29Z"/><path class="d" d="M52.01,31.52c-.46,0-.9-.42-.89-.83,.01-.56,.45-1.02,.97-1.02,.49,0,.91,.43,.9,.92,0,.54-.42,.94-.98,.93Z"/><path class="d" d="M54.64,2.28c0-.48-.01-.96,0-1.43,0-.26-.09-.36-.34-.34-.11,.01-.22,0-.34,0-.14,0-.25-.06-.24-.22,0-.16,.13-.16,.24-.16,.59,0,1.18,0,1.77,0,.1,0,.25-.02,.23,.16-.01,.14-.12,.17-.24,.19-.21,.04-.49-.1-.63,.11-.13,.2-.05,.47-.05,.7,0,.84,0,1.69,0,2.53,0,.14,.05,.34-.19,.35-.26,0-.22-.2-.22-.36,0-.51,0-1.01,0-1.52Z"/><path class="d" d="M51.45,2.13c0-.56,0-1.12,0-1.68,0-.15-.02-.32,.22-.32,.25,0,.21,.18,.21,.33,0,.98,.01,1.96,0,2.94,0,.32,.11,.42,.41,.4,.32-.02,.64,0,.97,0,.1,0,.21,.02,.22,.14,.02,.14-.07,.22-.2,.22-.55,0-1.09,0-1.64,0-.21,0-.18-.18-.18-.31,0-.57,0-1.15,0-1.72Z"/><path class="d" d="M70.83,2.12c0-.56,0-1.12,0-1.69,0-.16-.01-.32,.23-.3,.22,.01,.19,.16,.19,.3,0,1.15,0,2.3-.01,3.46,0,.15,0,.29-.21,.29-.21,0-.2-.15-.2-.29,0-.59,0-1.18,0-1.77Z"/><path class="d" d="M56.57,2.14c0-.58,0-1.15,0-1.73,0-.15,0-.29,.2-.29,.21,0,.21,.14,.21,.28,0,1.15,0,2.3,0,3.46,0,.15-.01,.29-.21,.3-.21,0-.2-.16-.2-.3,0-.58,0-1.15,0-1.73h0Z"/></g></g></g></svg>