<?xml version="1.0" encoding="UTF-8"?><svg xmlns="http://www.w3.org/2000/svg" viewBox="0 0 98.24 49.17"><defs><style>.f{fill:#fff;}</style></defs><g id="a"/><g id="b"><g id="c"><g id="d"><g id="e"><g><g><polygon class="f" points="35.87 11.47 35.08 11.47 35.08 6.69 35.87 6.69 35.87 5.62 33.14 5.62 33.14 6.69 33.93 6.69 33.93 11.47 33.14 11.47 33.14 12.56 35.87 12.56 35.87 11.47"/><path class="f" d="M38.12,9.47c0-.23,.07-.46,.18-.66s.26-.36,.46-.48c.18-.12,.39-.16,.61-.16,.64,0,.97,.35,.97,1.07v3.3h1.12v-3.47c0-.59-.16-1.05-.51-1.36-.33-.31-.79-.48-1.36-.48-.66,0-1.2,.23-1.61,.71l-.1-.61h-.85v5.21h1.12v-3.09l-.02,.02Z"/><path class="f" d="M43.48,12.44c.31,.13,.69,.2,1.12,.2h.15c.71,0,1.25-.15,1.64-.43,.39-.28,.59-.72,.59-1.28,0-.36-.1-.64-.31-.85-.2-.21-.44-.36-.72-.46-.26-.1-.61-.18-1.04-.26-.43-.08-.74-.16-.94-.26-.18-.08-.26-.2-.26-.36,0-.13,0-.56,1-.56s1.02,.46,1.02,.62v.18h1.1v-.28c0-.28-.07-.53-.25-.76-.16-.23-.41-.39-.72-.53-.3-.12-.66-.18-1.04-.18h-.08c-.66,0-1.18,.15-1.56,.41-.39,.28-.59,.67-.59,1.17,0,.36,.1,.66,.3,.87,.18,.21,.41,.36,.67,.44,.25,.08,.58,.16,1,.25,.31,.05,.54,.1,.72,.15,.16,.05,.3,.12,.41,.21,.1,.08,.15,.2,.15,.36,0,.18-.1,.31-.28,.43-.2,.12-.43,.18-.69,.18-1.3,0-1.3-.56-1.3-.74v-.2h-1.12v.31c0,.3,.08,.58,.26,.81s.43,.41,.76,.56Z"/><path class="f" d="M48.23,11.11c0,.53,.1,.9,.33,1.15,.21,.25,.54,.38,.95,.38,.38,0,.71-.07,.95-.18l.05-.03v-.89l-.13,.05c-.46,.2-.77,.18-.92,0-.08-.08-.12-.23-.12-.44v-2.89h1.17v-.94h-1.17v-1.59h-.76l-.31,1.59h-.59v.94h.54v2.86Z"/><rect class="f" x="51.47" y="7.33" width="1.12" height="5.21"/><rect class="f" x="51.45" y="5.29" width="1.15" height="1.05"/><path class="f" d="M54.18,11.11c0,.53,.12,.9,.33,1.15,.21,.25,.54,.38,.95,.38,.38,0,.71-.07,.95-.18l.05-.03v-.89l-.13,.05c-.46,.2-.77,.18-.92,0-.08-.08-.12-.23-.12-.44v-2.89h1.17v-.94h-1.17v-1.59h-.76l-.31,1.59h-.59v.94h.54v2.86Z"/><path class="f" d="M59.2,12.66c.38,0,.71-.08,1-.23,.21-.12,.41-.26,.58-.44,.05,.18,.12,.31,.23,.43,.16,.16,.43,.25,.81,.25,.23,0,.46-.07,.67-.21l.05-.03v-.9l-.15,.1c-.13,.08-.26,.12-.39,.12-.05,0-.1,0-.13-.05-.03-.03-.05-.1-.05-.2V7.35h-1.12v3.09c0,.23-.07,.46-.16,.66-.12,.2-.26,.36-.46,.48s-.39,.16-.61,.16c-.64,0-.97-.35-.97-1.07v-3.3h-1.12v3.47c0,.59,.18,1.05,.51,1.36,.35,.31,.79,.48,1.32,.48v-.02Z"/><path class="f" d="M63.65,11.11c0,.53,.12,.9,.33,1.15,.21,.25,.54,.38,.95,.38,.38,0,.71-.07,.95-.18l.05-.03v-.89l-.13,.05c-.46,.2-.77,.18-.92,0-.08-.08-.12-.23-.12-.44v-2.89h1.17v-.94h-1.17v-1.59h-.76l-.31,1.59h-.59v.94h.54v2.86Z"/><path class="f" d="M68.99,12.66c.74,0,1.33-.23,1.76-.67s.64-1.07,.64-1.84v-.36c0-.77-.21-1.4-.66-1.84s-1.02-.67-1.74-.67-1.32,.23-1.74,.67c-.43,.44-.66,1.07-.66,1.84v.36c0,.77,.21,1.4,.64,1.84s1.02,.67,1.76,.67Zm1.28-2.61c0,.54-.12,.97-.35,1.27-.23,.28-.54,.43-.94,.43s-.72-.13-.95-.43c-.23-.3-.35-.71-.35-1.25v-.18c0-.56,.12-.99,.35-1.27s.53-.41,.94-.41,.72,.13,.95,.43c.23,.3,.35,.71,.35,1.25v.16Z"/><path class="f" d="M33.52,22.37h1.15v-2.81h1.84c.39,0,.76-.08,1.08-.26s.58-.43,.76-.74c.18-.31,.28-.67,.28-1.05s-.1-.74-.28-1.05c-.18-.31-.44-.56-.76-.74-.33-.18-.69-.26-1.08-.26h-3.01v6.94l.02-.02Zm2.91-5.87c.28,0,.53,.1,.74,.3,.21,.2,.31,.43,.31,.71s-.1,.51-.31,.71c-.21,.2-.44,.3-.74,.3h-1.76v-1.99h1.76v-.02Z"/><path class="f" d="M40.65,17.54s-.12,.12-.15,.16l-.1-.54h-.84v5.21h1.12v-3.09c0-.39,.08-.72,.25-.95s.38-.33,.66-.33c.13,0,.26,.03,.41,.12,.13,.08,.25,.18,.35,.31,.08,.13,.13,.3,.13,.46v.31h1l.03-.48c0-.48-.15-.87-.41-1.18-.28-.31-.67-.48-1.17-.48-.26,0-.51,.05-.72,.13-.21,.08-.39,.2-.54,.35h-.02Z"/><path class="f" d="M48.23,21.8c.43-.44,.64-1.07,.64-1.84v-.36c0-.77-.21-1.4-.66-1.84-.44-.44-1.02-.67-1.74-.67s-1.32,.23-1.74,.67c-.43,.44-.66,1.07-.66,1.84v.36c0,.77,.21,1.4,.64,1.84,.43,.44,1.02,.67,1.76,.67s1.33-.23,1.76-.67Zm-.48-1.94c0,.54-.12,.97-.35,1.27-.23,.28-.53,.43-.94,.43s-.72-.13-.95-.43-.35-.71-.35-1.25v-.18c0-.56,.12-.99,.35-1.27,.23-.28,.53-.41,.94-.41s.72,.13,.95,.43,.35,.71,.35,1.25v.16Z"/><polygon class="f" points="50.47 17.16 49.27 17.16 51.22 22.31 51.26 22.37 52.36 22.37 54.3 17.29 54.35 17.16 53.23 17.16 51.85 20.86 50.47 17.16"/><rect class="f" x="55.04" y="17.16" width="1.12" height="5.21"/><rect class="f" x="55.02" y="15.11" width="1.15" height="1.05"/><path class="f" d="M62.02,22.37v-3.47c0-.59-.16-1.05-.49-1.36s-.79-.48-1.36-.48c-.66,0-1.2,.23-1.61,.71l-.1-.61h-.85v5.21h1.12v-3.09c0-.23,.07-.46,.18-.66s.26-.36,.46-.48c.18-.12,.39-.16,.61-.16,.66,0,.97,.35,.97,1.07v3.3h1.12l-.03,.02Z"/><path class="f" d="M64.19,22.14c.35,.21,.76,.33,1.22,.33h.08c.66,0,1.18-.2,1.58-.59,.39-.39,.59-.92,.59-1.58v-.1h-1.08v.1c0,.38-.1,.69-.28,.9-.18,.21-.44,.33-.82,.33-.41,0-.71-.13-.92-.38-.21-.26-.33-.66-.33-1.22v-.53c0-.44,.12-.79,.33-1.05,.23-.25,.51-.38,.89-.38s.62,.12,.82,.33c.2,.23,.28,.53,.28,.9v.1h1.1v-.1c0-.43-.1-.81-.28-1.13-.18-.33-.44-.59-.77-.77-.33-.18-.71-.28-1.12-.28h-.08c-.44,0-.85,.12-1.2,.33s-.62,.53-.81,.92c-.2,.39-.28,.84-.28,1.35v.23c0,.51,.1,.97,.28,1.35,.18,.39,.46,.69,.81,.9v.03Z"/><rect class="f" x="68.76" y="17.16" width="1.12" height="5.21"/><rect class="f" x="68.73" y="15.11" width="1.15" height="1.05"/><path class="f" d="M75.62,21.53s-.1,0-.13-.05c-.03-.03-.05-.1-.05-.2v-2.6c0-.53-.18-.94-.53-1.22s-.85-.41-1.55-.41h-.08c-.39,0-.76,.07-1.07,.18-.33,.13-.59,.3-.79,.51s-.3,.46-.3,.71c0,.13,0,.25,.02,.35v.08h1.1v-.21c0-.21,.08-.38,.25-.49,.18-.13,.44-.18,.77-.18,.35,0,.62,.07,.81,.18,.16,.12,.25,.33,.25,.62v.36c-.81,0-1.45,.07-1.92,.16-.51,.12-.87,.3-1.08,.54-.23,.25-.35,.59-.35,1.02,0,.54,.15,.95,.44,1.2,.3,.25,.72,.38,1.3,.38,.71,0,1.28-.25,1.69-.76,.03,.18,.12,.35,.21,.48,.16,.18,.39,.28,.71,.28s.58-.07,.81-.21l.05-.03v-.9l-.15,.1c-.13,.08-.26,.12-.39,.12h-.02Zm-2.6,0c-.94,0-.94-.44-.94-.58,0-.21,.05-.39,.15-.51,.1-.12,.33-.21,.64-.28,.33-.07,.81-.1,1.45-.1v.1c0,.26-.07,.51-.18,.72-.12,.21-.28,.36-.48,.48-.2,.12-.41,.16-.64,.16Z"/><rect class="f" x="77.1" y="15.11" width="1.12" height="7.27"/><path class="f" d="M37.73,24.92h-1.12v2.52c-.35-.36-.79-.56-1.35-.56-.67,0-1.2,.25-1.58,.71s-.56,1.1-.56,1.89v.12c0,.84,.2,1.5,.56,1.97,.38,.49,.9,.74,1.56,.74,.61,0,1.12-.21,1.5-.66,.03,.16,.07,.33,.1,.48v.08h.89v-7.28Zm-1.1,4.67c0,1.18-.39,1.76-1.18,1.76-.39,0-.69-.13-.89-.41s-.3-.74-.3-1.36,.1-1.07,.3-1.36c.18-.28,.48-.41,.89-.41s.69,.13,.89,.41,.31,.74,.31,1.36l-.02,.02Z"/><path class="f" d="M43.18,31.32h0c.18-.31,.28-.67,.28-1.08v-.1h-1.07v.1c0,.31-.1,.58-.28,.81-.18,.21-.46,.33-.84,.33-.44,0-.76-.13-.97-.39-.21-.25-.33-.61-.35-1.07h3.5v-.79c0-.44-.1-.84-.28-1.17-.18-.33-.44-.59-.79-.77-.33-.18-.71-.28-1.13-.28h-.07c-.48,0-.89,.12-1.25,.33-.36,.21-.62,.53-.82,.92-.18,.39-.28,.85-.28,1.36v.2c0,.79,.21,1.41,.64,1.89,.43,.48,1.02,.72,1.74,.72h.03c.41,0,.81-.08,1.13-.26,.33-.16,.59-.41,.79-.72v-.02Zm-3.19-2.33c.07-.38,.18-.66,.38-.85,.21-.21,.49-.31,.84-.31s.62,.1,.82,.31c.21,.21,.31,.48,.31,.84h-2.37l.02,.02Z"/><polygon class="f" points="49.71 32.19 49.71 26.33 51.83 26.33 51.83 25.27 46.44 25.27 46.44 26.33 48.56 26.33 48.56 32.19 49.71 32.19"/><path class="f" d="M55.17,32.04c.33-.16,.59-.41,.79-.72s.28-.67,.28-1.08v-.1h-1.07v.1c0,.31-.1,.58-.28,.81-.18,.21-.46,.33-.84,.33-.44,0-.76-.13-.97-.39-.21-.25-.33-.61-.35-1.07h3.5v-.79c0-.44-.1-.84-.28-1.17-.18-.33-.44-.59-.79-.77-.33-.18-.71-.28-1.13-.28h-.07c-.48,0-.89,.12-1.25,.33-.36,.21-.62,.53-.82,.92s-.28,.85-.28,1.36v.2c0,.79,.21,1.41,.64,1.89,.43,.48,1.02,.72,1.74,.72h.03c.41,0,.81-.08,1.13-.26v-.02Zm-2.4-3.06c.07-.38,.18-.66,.38-.85h0c.21-.21,.49-.31,.84-.31s.62,.1,.82,.31c.21,.21,.31,.48,.31,.84h-2.37l.02,.02Z"/><path class="f" d="M60.69,32.02c.16,.18,.39,.28,.71,.28s.58-.07,.81-.21l.05-.03v-.9l-.15,.1c-.13,.08-.26,.12-.39,.12-.05,0-.1,0-.13-.05-.03-.03-.05-.1-.05-.2v-2.6c0-.53-.18-.94-.53-1.22s-.85-.41-1.55-.41h-.08c-.39,0-.76,.07-1.07,.18-.33,.13-.59,.3-.79,.51s-.3,.46-.3,.71c0,.13,0,.25,.02,.35v.08h1.1v-.21c0-.21,.08-.38,.25-.49,.18-.13,.44-.18,.77-.18,.35,0,.62,.07,.81,.18,.16,.12,.25,.33,.25,.62v.36c-.81,0-1.45,.07-1.92,.16-.51,.12-.87,.3-1.08,.54-.23,.25-.35,.59-.35,1.02,0,.54,.15,.95,.44,1.2s.72,.38,1.3,.38c.71,0,1.28-.25,1.69-.76,.03,.18,.12,.35,.21,.48h-.02Zm-.95-.82c-.2,.12-.41,.16-.64,.16-.94,0-.94-.44-.94-.58,0-.21,.05-.39,.15-.51s.33-.21,.64-.28c.33-.07,.81-.1,1.45-.1v.1c0,.26-.07,.51-.18,.72-.12,.21-.28,.36-.48,.48h0Z"/><path class="f" d="M65.57,32.07v-.89l-.13,.05c-.46,.2-.77,.18-.92,0-.08-.08-.12-.23-.12-.44v-2.89h1.17v-.94h-1.17v-1.59h-.76l-.31,1.59h-.59v.94h.54v2.84c0,.53,.12,.9,.33,1.15,.21,.25,.54,.38,.95,.38,.38,0,.71-.07,.95-.18l.05-.03v.02Z"/><path class="f" d="M68.88,26.88c-.26,0-.51,.05-.72,.13-.21,.08-.39,.2-.54,.35-.07,.05-.12,.12-.15,.16l-.1-.54h-.84v5.21h1.12v-3.09c0-.41,.08-.72,.25-.95,.16-.23,.38-.33,.66-.33,.13,0,.26,.03,.41,.12,.13,.08,.25,.18,.35,.31,.08,.13,.13,.3,.13,.46v.31h1l.03-.48c0-.48-.15-.87-.41-1.18-.28-.31-.67-.48-1.17-.48h-.02Z"/><path class="f" d="M73.43,26.88c-.72,0-1.32,.23-1.74,.67-.43,.44-.66,1.07-.66,1.84v.36c0,.77,.21,1.4,.64,1.84s1.02,.67,1.76,.67,1.33-.23,1.76-.67,.64-1.07,.64-1.84v-.36c0-.77-.21-1.4-.66-1.84s-1.02-.67-1.74-.67Zm-1.28,2.61c0-.56,.12-.99,.35-1.27s.53-.41,.94-.41,.72,.13,.95,.43c.23,.3,.35,.71,.35,1.25v.18c0,.54-.12,.97-.35,1.27-.23,.28-.54,.43-.94,.43s-.72-.13-.95-.43c-.23-.3-.35-.71-.35-1.25v-.2Z"/><polygon class="f" points="33.14 36.15 33.93 36.15 33.93 40.93 33.14 40.93 33.14 42.02 35.87 42.02 35.87 40.93 35.08 40.93 35.08 36.15 35.87 36.15 35.87 35.08 33.14 35.08 33.14 36.15"/><path class="f" d="M39.58,36.69c-.66,0-1.2,.23-1.61,.71l-.1-.61h-.85v5.21h1.12v-3.09c0-.23,.07-.46,.18-.66,.12-.2,.26-.36,.46-.48,.18-.12,.39-.16,.61-.16,.64,0,.97,.35,.97,1.07v3.3h1.12v-3.47c0-.59-.16-1.05-.51-1.36-.33-.31-.79-.48-1.36-.48l-.02,.02Z"/><path class="f" d="M45.99,37.25c-.35-.36-.79-.56-1.35-.56-.67,0-1.2,.25-1.58,.71s-.56,1.1-.56,1.89v.12c0,.84,.2,1.5,.56,1.97,.38,.49,.9,.74,1.56,.74,.61,0,1.12-.21,1.5-.66,.03,.16,.07,.33,.1,.48v.08h.89v-7.27h-1.12v2.5Zm-.3,.79c.2,.28,.31,.74,.31,1.36,0,1.18-.39,1.76-1.18,1.76-.39,0-.69-.13-.89-.41s-.3-.74-.3-1.36,.1-1.07,.3-1.36c.18-.28,.48-.41,.89-.41s.69,.13,.89,.41l-.02,.02Z"/><path class="f" d="M51.81,36.97h0c-.33-.18-.71-.28-1.13-.28h-.07c-.48,0-.89,.12-1.25,.33-.36,.21-.62,.53-.82,.92-.18,.39-.28,.85-.28,1.36v.2c0,.79,.21,1.41,.64,1.89,.43,.48,1.02,.72,1.74,.72h.03c.41,0,.81-.08,1.13-.26,.33-.16,.59-.41,.79-.72,.2-.31,.28-.67,.28-1.08v-.1h-1.07v.1c0,.31-.1,.58-.28,.81-.18,.21-.46,.33-.84,.33-.44,0-.76-.13-.97-.39-.21-.25-.33-.61-.35-1.07h3.5v-.79c0-.44-.1-.84-.28-1.17-.18-.33-.44-.59-.77-.77l-.02-.02Zm-2.42,1.82c.07-.38,.18-.66,.38-.85,.21-.21,.49-.31,.84-.31s.62,.1,.82,.31c.21,.21,.31,.48,.31,.84h-2.37l.02,.02Z"/><path class="f" d="M56.48,36.69c-.61,0-1.12,.21-1.5,.66-.03-.16-.07-.33-.1-.48v-.08h-.89v6.99h1.12v-2.24c.35,.38,.81,.56,1.35,.56,.67,0,1.2-.23,1.58-.71,.38-.46,.56-1.1,.56-1.89v-.12c0-.84-.18-1.5-.56-1.97-.38-.49-.9-.74-1.58-.74l.02,.02Zm1.02,2.7c0,.61-.1,1.07-.3,1.36-.2,.28-.48,.41-.89,.41s-.69-.13-.89-.41c-.2-.28-.3-.74-.3-1.36s.1-1.07,.3-1.35c.18-.28,.48-.41,.89-.41s.69,.13,.87,.41c.2,.28,.3,.74,.3,1.36l.02-.02Z"/><path class="f" d="M62.99,36.97h0c-.33-.18-.71-.28-1.13-.28h-.07c-.48,0-.89,.12-1.25,.33-.36,.21-.62,.53-.82,.92s-.28,.85-.28,1.36v.2c0,.79,.21,1.41,.64,1.89,.43,.48,1.02,.72,1.74,.72h.03c.41,0,.81-.08,1.13-.26,.33-.16,.59-.41,.79-.72s.28-.67,.28-1.08v-.1h-1.07v.1c0,.31-.1,.58-.28,.81-.18,.21-.46,.33-.84,.33-.44,0-.76-.13-.97-.39-.21-.25-.33-.61-.35-1.07h3.5v-.79c0-.44-.1-.84-.28-1.17-.18-.33-.44-.59-.77-.77l-.02-.02Zm-2.42,1.82c.07-.38,.18-.66,.38-.85,.21-.21,.49-.31,.84-.31s.62,.1,.82,.31c.21,.21,.31,.48,.31,.84h-2.37l.02,.02Z"/><path class="f" d="M67.78,36.69c-.66,0-1.2,.23-1.61,.71l-.1-.61h-.85v5.21h1.12v-3.09c0-.23,.07-.46,.18-.66,.12-.2,.26-.36,.46-.48,.18-.12,.39-.16,.61-.16,.66,0,.97,.35,.97,1.07v3.3h1.12v-3.47c0-.59-.16-1.05-.49-1.36s-.79-.48-1.36-.48l-.03,.02Z"/><path class="f" d="M74.19,37.25c-.35-.36-.79-.56-1.35-.56-.67,0-1.2,.25-1.58,.71s-.56,1.1-.56,1.89v.12c0,.84,.2,1.5,.56,1.97,.38,.49,.9,.74,1.56,.74,.61,0,1.12-.21,1.5-.64,.03,.16,.07,.33,.1,.48v.08h.89v-7.27h-1.12v2.48Zm-.3,.79c.2,.28,.31,.74,.31,1.36,0,1.18-.39,1.76-1.18,1.76-.39,0-.69-.13-.89-.41-.2-.28-.3-.74-.3-1.36s.1-1.08,.3-1.36c.18-.28,.48-.41,.89-.41s.69,.13,.89,.41l-.02,.02Z"/><rect class="f" x="76.75" y="36.79" width="1.12" height="5.21"/><rect class="f" x="76.74" y="34.75" width="1.15" height="1.05"/><path class="f" d="M82.55,36.97h0c-.33-.18-.71-.28-1.13-.28h-.07c-.48,0-.89,.12-1.25,.33-.36,.21-.62,.53-.82,.92s-.28,.85-.28,1.36v.2c0,.79,.21,1.41,.64,1.89,.43,.48,1.02,.72,1.74,.72h.03c.41,0,.81-.08,1.13-.26,.33-.16,.59-.41,.79-.72s.28-.67,.28-1.08v-.1h-1.07v.1c0,.31-.1,.58-.28,.81-.18,.21-.46,.33-.84,.33-.44,0-.76-.13-.97-.39-.21-.25-.33-.61-.35-1.07h3.5v-.79c0-.44-.1-.84-.28-1.17-.18-.33-.44-.59-.77-.77l-.02-.02Zm-2.42,1.82c.07-.38,.18-.66,.38-.85,.21-.21,.49-.31,.84-.31s.62,.1,.82,.31c.21,.21,.31,.48,.31,.84h-2.37l.02,.02Z"/><path class="f" d="M87.34,36.69c-.66,0-1.2,.23-1.61,.71l-.1-.61h-.85v5.21h1.12v-3.09c0-.23,.07-.46,.18-.66,.12-.2,.26-.36,.46-.48,.18-.12,.39-.16,.61-.16,.66,0,.97,.35,.97,1.07v3.3h1.12v-3.47c0-.59-.16-1.05-.49-1.36s-.79-.48-1.36-.48l-.03,.02Z"/><path class="f" d="M91.81,35.19h-.76l-.31,1.59h-.59v.94h.54v2.84c0,.53,.12,.9,.33,1.15,.21,.25,.54,.38,.95,.38,.38,0,.71-.07,.95-.18l.05-.03v-.89l-.13,.05c-.46,.2-.77,.18-.92,0-.08-.08-.12-.23-.12-.44v-2.89h1.17v-.94h-1.17v-1.58Z"/><path class="f" d="M98.24,38.91c0-.44-.1-.84-.28-1.17-.18-.33-.44-.59-.79-.77-.33-.18-.71-.28-1.13-.28h-.07c-.48,0-.89,.12-1.25,.33-.36,.21-.62,.53-.82,.92s-.28,.85-.28,1.36v.2c0,.79,.21,1.41,.64,1.89,.43,.48,1.02,.72,1.74,.72h.03c.41,0,.81-.08,1.13-.26,.33-.16,.59-.41,.79-.72s.28-.67,.28-1.08v-.1h-1.07v.1c0,.31-.1,.58-.28,.81-.18,.21-.46,.33-.84,.33-.44,0-.76-.13-.97-.39-.21-.25-.33-.61-.35-1.07h3.5v-.81Zm-3.47-.12c.07-.38,.18-.66,.38-.85,.21-.21,.49-.31,.84-.31s.62,.1,.82,.31c.21,.21,.31,.48,.31,.84h-2.37l.02,.02Z"/></g><g><path class="f" d="M18.44,29.59c.51,.51,1.18,.77,2.01,.77,.3,0,.61-.03,.9-.12,.33-.08,.61-.2,.84-.35l.33-.2h0l.66-.43c.33-.21,.43-.64,.23-.99l-.39-.62c-.33-.53-.71-.28-.95-.16-.23,.1-.49,.23-.72,.33-.1,.03-.2,.08-.33,.12-.28,.07-.39,.08-.44,.08-.18,0-.31-.03-.39-.1,0-.02-.08-.16-.08-.59v-6.74h1.76c.38,0,.69-.31,.69-.69v-.94c0-.38-.31-.69-.69-.69h-1.76v-2.19h0v-.46c0-.38-.31-.69-.69-.69h-.71c-.59,0-.59,.43-.62,.69-.08,.53-.16,1.27-.16,1.27l-.15,1.38h-.72c-.38,0-.69,.31-.69,.69v.94c0,.38,.31,.69,.69,.69h.64v6.79c0,.94,.26,1.68,.77,2.19v.02Z"/><path class="f" d="M26.25,33.95h-1.02c-.38,0-.69,.31-.69,.69v.94c0,6.21-5.06,11.31-11.28,11.19-6.02-.1-10.87-5.03-10.87-11.06v-1.07c0-.38-.31-.69-.69-.69H.69c-.38,0-.69,.31-.69,.69v.94c0,7.55,6.16,13.73,13.73,13.59,7.32-.13,13.23-6.12,13.23-13.46v-1.07c0-.38-.31-.69-.69-.69h-.02Z"/><rect class="f" x=".08" y="20.27" width="2.42" height="11.87" rx=".69" ry=".69"/><rect class="f" y="15.98" width="2.58" height="2.48" rx=".69" ry=".69"/><path class="f" d="M7.78,22.87c-.05-.33-.33-.58-.66-.58h-1.05c-.38,0-.69,.31-.69,.69v14.24c0,.38,.31,.69,.69,.69h1.05c.38,0,.69-.31,.69-.69v-3.55c.13,.08,.25,.15,.39,.21,.67,.35,1.45,.51,2.27,.51,.9,0,1.74-.23,2.48-.71,.74-.46,1.33-1.15,1.76-2.04,.41-.85,.62-1.89,.62-3.07v-.23c0-2.01-.44-3.55-1.32-4.6-.9-1.08-2.09-1.63-3.53-1.63-1.05,0-1.94,.26-2.68,.74l-.03,.02Zm5.11,5.44v.23c0,1.22-.25,2.14-.74,2.71-.48,.56-1.05,.82-1.79,.82s-1.35-.26-1.82-.82c-.49-.58-.74-1.5-.74-2.73v-.41h0v-.28c.05-1.2,.28-2.07,.71-2.6,.46-.54,1.07-.81,1.84-.81s1.35,.26,1.81,.82c.48,.59,.72,1.61,.72,3.04l.02,.02Z"/><rect class="f" x="24.48" y="20.27" width="2.42" height="11.87" rx=".69" ry=".69"/><rect class="f" x="24.39" y="15.98" width="2.58" height="2.48" rx=".69" ry=".69"/><path class="f" d="M.56,14.15H1.84c.31,0,.56-.25,.56-.56C2.4,7.4,7.46,2.28,13.68,2.4c6.02,.1,10.87,5.03,10.87,11.06v.13c0,.31,.25,.56,.56,.56h1.28c.31,0,.56-.25,.56-.56C26.94,6.15,20.96,.02,13.51,0,6.07-.02,0,6.03,0,13.46v.13c0,.31,.25,.56,.56,.56Z"/></g></g></g></g></g></g></svg>