<?xml version="1.0" encoding="UTF-8"?><svg xmlns="http://www.w3.org/2000/svg" xmlns:xlink="http://www.w3.org/1999/xlink" viewBox="0 0 50.28 54.13"><defs><style>.e{fill:#fff;}.f{fill:#b0b0af;}.g{fill:#757576;}.h{clip-path:url(#d);}.i{fill:none;}</style><clipPath id="d"><path class="i" d="M22.7,43.66c.07,0,.14,0,.2,.02,.48,.1,.87,.61,1.25,1.1,.37,.47,.74,.96,1.1,.96s.73-.49,1.1-.96c.38-.49,.77-1,1.25-1.1,.48-.1,1.06,.2,1.61,.5,.52,.28,1.06,.57,1.37,.43,.31-.14,.46-.72,.61-1.29,.16-.61,.32-1.25,.74-1.53,.41-.28,1.05-.2,1.67-.13,.59,.07,1.2,.14,1.45-.11,.24-.23,.18-.83,.13-1.41-.06-.64-.12-1.3,.19-1.71,.3-.4,.91-.52,1.55-.65,.58-.11,1.18-.23,1.35-.54,.16-.29-.06-.84-.28-1.38-.24-.6-.49-1.22-.3-1.71,.18-.47,.76-.76,1.33-1.04,.53-.26,1.07-.53,1.16-.88,.08-.32-.27-.8-.61-1.27-.38-.52-.78-1.07-.72-1.58,.06-.5,.56-.92,1.04-1.33,.45-.38,.91-.78,.91-1.13s-.46-.75-.91-1.13c-.48-.41-.99-.84-1.04-1.33-.06-.52,.34-1.06,.72-1.58,.34-.46,.69-.94,.61-1.27-.08-.34-.63-.61-1.16-.88-.57-.28-1.15-.57-1.33-1.04-.18-.48,.06-1.11,.3-1.71,.21-.54,.43-1.09,.28-1.38-.17-.31-.77-.43-1.35-.54-.62-.12-1.26-.25-1.55-.65-.31-.41-.24-1.07-.19-1.71,.05-.58,.11-1.17-.13-1.41-.25-.25-.86-.17-1.45-.11-.62,.07-1.26,.15-1.67-.13-.41-.29-.58-.92-.74-1.53-.15-.57-.3-1.16-.61-1.29-.31-.14-.85,.15-1.37,.43-.55,.3-1.12,.61-1.61,.5-.48-.1-.87-.61-1.25-1.1-.37-.47-.74-.96-1.1-.96s-.73,.49-1.1,.96c-.38,.49-.77,1-1.25,1.1-.49,.1-1.06-.2-1.61-.5-.52-.28-1.06-.57-1.37-.43-.31,.14-.46,.72-.61,1.29-.16,.61-.32,1.25-.74,1.53-.41,.28-1.05,.21-1.67,.13-.59-.07-1.2-.14-1.45,.11-.24,.23-.18,.83-.13,1.41,.06,.64,.12,1.3-.19,1.71-.3,.4-.94,.52-1.55,.65-.58,.11-1.18,.23-1.35,.54-.16,.29,.06,.84,.28,1.38,.24,.6,.49,1.22,.3,1.71-.18,.47-.76,.76-1.33,1.04-.53,.26-1.07,.53-1.16,.88-.08,.32,.27,.8,.61,1.27,.38,.52,.78,1.07,.72,1.58-.06,.5-.56,.92-1.04,1.33-.45,.38-.91,.78-.91,1.13s.46,.75,.91,1.13c.48,.41,.99,.84,1.04,1.33,.06,.52-.34,1.06-.72,1.58-.34,.46-.69,.94-.61,1.27,.08,.34,.63,.61,1.16,.88,.57,.28,1.15,.57,1.33,1.04,.18,.48-.06,1.11-.3,1.71-.21,.54-.43,1.09-.28,1.38,.17,.31,.77,.43,1.35,.54,.62,.12,1.26,.25,1.55,.65,.31,.41,.24,1.07,.19,1.71-.05,.58-.11,1.17,.13,1.41,.25,.25,.86,.17,1.45,.11,.62-.07,1.27-.15,1.67,.13,.41,.29,.58,.92,.74,1.53,.15,.57,.3,1.16,.61,1.29,.31,.14,.85-.15,1.37-.43,.48-.26,.97-.52,1.4-.52Z"/></clipPath></defs><g id="a"/><g id="b"><g id="c"><g><path class="e" d="M16.47,32.06h-.91v-1.81h-1.07c-.3,0-.58-.14-.77-.39-.2-.27-.27-.63-.17-.96l1.89-6.39c.08-.28,.32-.46,.59-.46,.28,0,.51,.18,.59,.46l1.85,6.46c.09,.31,.03,.65-.16,.91-.18,.24-.44,.37-.73,.37h-1.12v1.81Zm-.68-.23h.45v-1.81h1.34c.21,0,.41-.1,.55-.28,.15-.2,.2-.46,.13-.71l-1.85-6.46c-.06-.22-.23-.3-.37-.3h0c-.14,0-.31,.08-.37,.29l-1.89,6.39c-.08,.26-.03,.55,.13,.76,.14,.19,.36,.3,.58,.3h1.3v1.81Z"/><path class="e" d="M25.24,6.97c8.92,0,16.18,8.95,16.18,19.96s-7.26,19.96-16.18,19.96S9.06,37.93,9.06,26.93,16.32,6.97,25.24,6.97m0-.91c-9.44,0-17.09,9.34-17.09,20.87s7.65,20.87,17.09,20.87,17.09-9.34,17.09-20.87S34.68,6.06,25.24,6.06h0Z"/><path class="f" d="M39.25,13.65h2.64c4.68,8.82,4.76,17.79,0,26.91h-2.87c4.98-9.21,5.05-18.17,.23-26.91Z"/><path class="f" d="M44.76,13.65h2.64c3.81,8.6,3.85,17.56,0,26.91h-2.87c4.17-9.45,4.26-18.41,.23-26.91Z"/><path class="e" d="M41.89,13.65h2.87c4.23,8.6,3.87,17.35-.23,26.91h-2.64c4.89-9.07,4.55-18.69,0-26.91Z"/><path class="e" d="M11.03,40.56h-2.64c-4.68-8.82-4.76-17.79,0-26.91h2.87c-4.98,9.21-5.05,18.17-.23,26.91Z"/><path class="f" d="M5.51,40.56H2.87C-.94,31.96-.98,23,2.87,13.65h2.87c-4.17,9.45-4.26,18.41-.23,26.91Z"/><path class="g" d="M8.39,40.56h-2.87c-4.23-8.6-3.87-17.35,.23-26.91h2.64c-4.89,9.07-4.55,18.69,0,26.91Z"/><path class="e" d="M25.24,46.2c-.58,0-1.02-.58-1.46-1.14-.33-.43-.67-.87-.98-.93-.32-.07-.82,.2-1.3,.46-.62,.33-1.25,.67-1.77,.45-.51-.22-.69-.92-.86-1.59-.14-.53-.28-1.08-.55-1.27-.26-.18-.82-.12-1.36-.05-.7,.08-1.41,.17-1.82-.23-.39-.38-.32-1.09-.26-1.77,.05-.56,.1-1.13-.1-1.4-.19-.26-.74-.37-1.28-.47-.68-.13-1.39-.27-1.66-.77-.26-.48,0-1.13,.25-1.76,.21-.52,.42-1.06,.3-1.38-.11-.3-.62-.55-1.11-.8-.62-.31-1.26-.63-1.4-1.17-.13-.53,.29-1.09,.69-1.64,.33-.45,.67-.92,.63-1.26-.04-.32-.47-.69-.89-1.04-.53-.45-1.07-.91-1.07-1.47s.55-1.02,1.07-1.47c.42-.35,.85-.72,.89-1.04,.04-.34-.3-.81-.63-1.26-.4-.55-.81-1.11-.69-1.64,.13-.55,.77-.87,1.4-1.18,.49-.24,1-.5,1.11-.8,.12-.32-.09-.86-.3-1.38-.25-.63-.51-1.29-.25-1.76,.27-.5,.98-.64,1.66-.77,.53-.11,1.09-.21,1.28-.47,.2-.27,.15-.85,.1-1.4-.06-.68-.13-1.39,.26-1.77,.41-.4,1.12-.31,1.82-.23,.54,.06,1.1,.13,1.36-.05,.28-.19,.42-.74,.55-1.27,.17-.67,.35-1.37,.86-1.59,.52-.23,1.15,.12,1.77,.45,.48,.26,.97,.52,1.3,.46,.31-.07,.65-.51,.98-.93,.43-.56,.88-1.14,1.46-1.14s1.02,.58,1.46,1.14c.33,.43,.67,.87,.98,.93,.32,.07,.82-.2,1.3-.46,.62-.33,1.25-.67,1.77-.45,.51,.23,.69,.92,.86,1.59,.14,.53,.28,1.08,.55,1.27,.26,.18,.82,.12,1.36,.05,.7-.08,1.41-.17,1.82,.23,.39,.38,.32,1.09,.26,1.77-.05,.56-.1,1.13,.1,1.4,.19,.26,.74,.37,1.28,.47,.68,.14,1.39,.27,1.66,.77,.26,.48,0,1.13-.25,1.76-.21,.52-.42,1.06-.3,1.38,.11,.3,.62,.55,1.11,.8,.62,.31,1.26,.63,1.4,1.17,.13,.53-.29,1.09-.69,1.64-.33,.45-.67,.92-.63,1.26,.04,.32,.47,.69,.89,1.04,.53,.45,1.07,.91,1.07,1.47s-.55,1.02-1.07,1.47c-.42,.35-.85,.72-.89,1.04-.04,.34,.3,.81,.63,1.26,.4,.55,.81,1.11,.69,1.64-.13,.55-.77,.87-1.4,1.18-.49,.24-1,.5-1.11,.8-.12,.32,.09,.86,.3,1.38,.25,.63,.51,1.29,.25,1.76-.27,.5-.98,.64-1.66,.77-.53,.11-1.09,.21-1.28,.47-.2,.27-.15,.85-.1,1.4,.06,.68,.13,1.39-.26,1.77-.41,.4-1.12,.31-1.82,.23-.54-.06-1.09-.13-1.36,.05-.27,.19-.42,.74-.55,1.27-.17,.67-.35,1.37-.86,1.59-.52,.23-1.15-.12-1.77-.45-.48-.26-.97-.52-1.3-.46-.31,.07-.65,.51-.98,.93-.43,.56-.88,1.14-1.46,1.14Zm-2.54-2.54c.07,0,.14,0,.2,.02,.48,.1,.87,.61,1.25,1.1,.37,.47,.74,.96,1.1,.96s.73-.49,1.1-.96c.38-.49,.77-1,1.25-1.1,.49-.1,1.06,.2,1.61,.5,.52,.28,1.06,.57,1.37,.43,.31-.14,.46-.72,.61-1.29,.16-.61,.32-1.25,.74-1.53,.41-.28,1.05-.2,1.67-.13,.59,.07,1.2,.14,1.45-.11,.24-.23,.18-.83,.13-1.41-.06-.64-.12-1.3,.19-1.71,.3-.4,.94-.52,1.55-.65,.58-.11,1.18-.23,1.35-.54,.16-.29-.06-.84-.28-1.38-.24-.6-.49-1.22-.3-1.71,.18-.47,.76-.76,1.33-1.04,.53-.26,1.07-.53,1.16-.88,.08-.32-.27-.8-.61-1.27-.38-.52-.78-1.07-.72-1.58,.06-.5,.56-.92,1.04-1.33,.45-.38,.91-.78,.91-1.13s-.46-.75-.91-1.13c-.48-.41-.99-.84-1.04-1.33-.06-.52,.34-1.06,.72-1.58,.34-.46,.69-.94,.61-1.27-.08-.34-.63-.61-1.16-.88-.57-.28-1.15-.57-1.33-1.04-.18-.48,.06-1.11,.3-1.71,.21-.54,.43-1.09,.28-1.38-.17-.31-.77-.43-1.35-.54-.62-.12-1.26-.25-1.55-.65-.31-.41-.24-1.07-.19-1.71,.05-.58,.11-1.17-.13-1.41-.25-.25-.86-.17-1.45-.11-.62,.07-1.26,.15-1.67-.13-.41-.29-.58-.92-.74-1.53-.15-.57-.3-1.16-.61-1.29-.31-.14-.85,.15-1.37,.43-.55,.3-1.12,.6-1.61,.5-.48-.1-.87-.61-1.25-1.1-.37-.47-.74-.96-1.1-.96s-.73,.49-1.1,.96c-.38,.49-.77,1-1.25,1.1-.49,.1-1.06-.2-1.61-.5-.52-.28-1.06-.57-1.37-.43-.31,.14-.46,.72-.61,1.29-.16,.61-.32,1.25-.74,1.53-.41,.28-1.05,.21-1.67,.13-.59-.07-1.2-.14-1.45,.11-.24,.23-.18,.83-.13,1.41,.06,.64,.12,1.3-.19,1.71-.3,.4-.94,.52-1.55,.65-.58,.11-1.18,.23-1.35,.54-.16,.29,.06,.84,.28,1.38,.24,.6,.49,1.22,.3,1.71-.18,.47-.76,.76-1.33,1.04-.53,.26-1.07,.53-1.16,.88-.08,.32,.27,.8,.61,1.27,.38,.52,.78,1.07,.72,1.58-.06,.5-.56,.92-1.04,1.33-.45,.38-.91,.78-.91,1.13s.46,.75,.91,1.13c.48,.41,.99,.84,1.04,1.33,.06,.52-.34,1.06-.72,1.58-.34,.46-.69,.94-.61,1.27,.08,.34,.63,.61,1.16,.88,.57,.28,1.15,.57,1.33,1.04,.18,.48-.06,1.11-.3,1.71-.21,.54-.43,1.09-.28,1.38,.17,.31,.77,.43,1.35,.54,.62,.12,1.26,.25,1.55,.65,.31,.41,.24,1.07,.19,1.71-.05,.58-.11,1.17,.13,1.41,.25,.25,.86,.17,1.45,.11,.62-.07,1.27-.15,1.67,.13,.41,.29,.58,.92,.74,1.53,.15,.57,.3,1.16,.61,1.29,.31,.14,.85-.15,1.37-.43,.48-.26,.97-.52,1.4-.52Z"/><path class="e" d="M17.32,19.46l-.4-.22c.24-.43,.56-.71,.95-.82,.44-.12,.85-.01,1.09,.08,.57-.8,1.55-.65,2.01-.45l-.18,.42s-1.06-.44-1.54,.43l-.11,.2-.2-.11s-.47-.26-.94-.13c-.27,.08-.5,.28-.68,.6Z"/><path class="e" d="M28.99,15.11s-.6-.98-1.5-.55l-.21,.1-.1-.21s-.23-.49-.69-.65c-.27-.1-.57-.07-.9,.09l-.19-.41c.44-.21,.87-.24,1.25-.1,.42,.16,.7,.49,.83,.7,.93-.31,1.64,.38,1.89,.81l-.39,.23,.2-.11-.2,.12Z"/><g class="h"><g><path class="e" d="M34.08,33.33c1.64-.56,2.2,1.7,4.03-.06-1.84,.58-2.25-1.82-4.03,.06Z"/><path class="e" d="M28.7,33.33c1.64-.56,2.2,1.7,4.03-.06-1.84,.58-2.25-1.82-4.03,.06Z"/><path class="e" d="M23.33,33.33c1.64-.56,2.2,1.7,4.03-.06-1.84,.58-2.25-1.82-4.03,.06Z"/><path class="e" d="M17.96,33.33c1.64-.56,2.2,1.7,4.03-.06-1.84,.58-2.25-1.82-4.03,.06Z"/><path class="e" d="M12.59,33.33c1.64-.56,2.2,1.7,4.03-.06-1.84,.58-2.25-1.82-4.03,.06Z"/><path class="e" d="M34.08,35.96c1.64-.56,2.2,1.7,4.03-.06-1.84,.58-2.25-1.82-4.03,.06Z"/><path class="e" d="M28.7,35.96c1.64-.56,2.2,1.7,4.03-.06-1.84,.58-2.25-1.82-4.03,.06Z"/><path class="e" d="M23.33,35.96c1.64-.56,2.2,1.7,4.03-.06-1.84,.58-2.25-1.82-4.03,.06Z"/><path class="e" d="M17.96,35.96c1.64-.56,2.2,1.7,4.03-.06-1.84,.58-2.25-1.82-4.03,.06Z"/><path class="e" d="M12.59,35.96c1.64-.56,2.2,1.7,4.03-.06-1.84,.58-2.25-1.82-4.03,.06Z"/><path class="e" d="M34.08,38.58c1.64-.56,2.2,1.7,4.03-.06-1.84,.58-2.25-1.82-4.03,.06Z"/><path class="e" d="M28.7,38.58c1.64-.56,2.2,1.7,4.03-.06-1.84,.58-2.25-1.82-4.03,.06Z"/><path class="e" d="M23.33,38.58c1.64-.56,2.2,1.7,4.03-.06-1.84,.58-2.25-1.82-4.03,.06Z"/><path class="e" d="M17.96,38.58c1.64-.56,2.2,1.7,4.03-.06-1.84,.58-2.25-1.82-4.03,.06Z"/><path class="e" d="M12.59,38.58c1.64-.56,2.2,1.7,4.03-.06-1.84,.58-2.25-1.82-4.03,.06Z"/><path class="e" d="M34.08,41.2c1.64-.56,2.2,1.7,4.03-.06-1.84,.58-2.25-1.82-4.03,.06Z"/><path class="e" d="M28.7,41.2c1.64-.56,2.2,1.7,4.03-.06-1.84,.58-2.25-1.82-4.03,.06Z"/><path class="e" d="M23.33,41.2c1.64-.56,2.2,1.7,4.03-.06-1.84,.58-2.25-1.82-4.03,.06Z"/><path class="e" d="M17.96,41.2c1.64-.56,2.2,1.7,4.03-.06-1.84,.58-2.25-1.82-4.03,.06Z"/><path class="e" d="M12.59,41.2c1.64-.56,2.2,1.7,4.03-.06-1.84,.58-2.25-1.82-4.03,.06Z"/><path class="e" d="M34.08,43.82c1.64-.56,2.2,1.7,4.03-.06-1.84,.58-2.25-1.82-4.03,.06Z"/><path class="e" d="M28.7,43.82c1.64-.56,2.2,1.7,4.03-.06-1.84,.58-2.25-1.82-4.03,.06Z"/><path class="e" d="M23.33,43.82c1.64-.56,2.2,1.7,4.03-.06-1.84,.58-2.25-1.82-4.03,.06Z"/><path class="e" d="M17.96,43.82c1.64-.56,2.2,1.7,4.03-.06-1.84,.58-2.25-1.82-4.03,.06Z"/><path class="e" d="M12.59,43.82c1.64-.56,2.2,1.7,4.03-.06-1.84,.58-2.25-1.82-4.03,.06Z"/><path class="e" d="M13.67,45.18c-1.64-.56-2.2,1.7-4.03-.06,1.84,.58,2.25-1.82,4.03,.06Z"/><path class="e" d="M19.04,45.18c-1.64-.56-2.2,1.7-4.03-.06,1.84,.58,2.25-1.82,4.03,.06Z"/><path class="e" d="M24.41,45.18c-1.64-.56-2.2,1.7-4.03-.06,1.84,.58,2.25-1.82,4.03,.06Z"/><path class="e" d="M29.79,45.18c-1.64-.56-2.2,1.7-4.03-.06,1.84,.58,2.25-1.82,4.03,.06Z"/><path class="e" d="M35.16,45.18c-1.64-.56-2.2,1.7-4.03-.06,1.84,.58,2.25-1.82,4.03,.06Z"/><path class="e" d="M13.67,42.55c-1.64-.56-2.2,1.7-4.03-.06,1.84,.58,2.25-1.82,4.03,.06Z"/><path class="e" d="M19.04,42.55c-1.64-.56-2.2,1.7-4.03-.06,1.84,.58,2.25-1.82,4.03,.06Z"/><path class="e" d="M24.41,42.55c-1.64-.56-2.2,1.7-4.03-.06,1.84,.58,2.25-1.82,4.03,.06Z"/><path class="e" d="M29.79,42.55c-1.64-.56-2.2,1.7-4.03-.06,1.84,.58,2.25-1.82,4.03,.06Z"/><path class="e" d="M35.16,42.55c-1.64-.56-2.2,1.7-4.03-.06,1.84,.58,2.25-1.82,4.03,.06Z"/><path class="e" d="M13.67,39.93c-1.64-.56-2.2,1.7-4.03-.06,1.84,.58,2.25-1.82,4.03,.06Z"/><path class="e" d="M19.04,39.93c-1.64-.56-2.2,1.7-4.03-.06,1.84,.58,2.25-1.82,4.03,.06Z"/><path class="e" d="M24.41,39.93c-1.64-.56-2.2,1.7-4.03-.06,1.84,.58,2.25-1.82,4.03,.06Z"/><path class="e" d="M29.79,39.93c-1.64-.56-2.2,1.7-4.03-.06,1.84,.58,2.25-1.82,4.03,.06Z"/><path class="e" d="M35.16,39.93c-1.64-.56-2.2,1.7-4.03-.06,1.84,.58,2.25-1.82,4.03,.06Z"/><path class="e" d="M13.67,37.31c-1.64-.56-2.2,1.7-4.03-.06,1.84,.58,2.25-1.82,4.03,.06Z"/><path class="e" d="M19.04,37.31c-1.64-.56-2.2,1.7-4.03-.06,1.84,.58,2.25-1.82,4.03,.06Z"/><path class="e" d="M24.41,37.31c-1.64-.56-2.2,1.7-4.03-.06,1.84,.58,2.25-1.82,4.03,.06Z"/><path class="e" d="M29.79,37.31c-1.64-.56-2.2,1.7-4.03-.06,1.84,.58,2.25-1.82,4.03,.06Z"/><path class="e" d="M35.16,37.31c-1.64-.56-2.2,1.7-4.03-.06,1.84,.58,2.25-1.82,4.03,.06Z"/><path class="e" d="M13.73,34.75c-1.64-.56-2.2,1.7-4.03-.06,1.84,.58,2.25-1.82,4.03,.06Z"/><path class="e" d="M19.11,34.75c-1.64-.56-2.2,1.7-4.03-.06,1.84,.58,2.25-1.82,4.03,.06Z"/><path class="e" d="M24.48,34.75c-1.64-.56-2.2,1.7-4.03-.06,1.84,.58,2.25-1.82,4.03,.06Z"/><path class="e" d="M29.85,34.75c-1.64-.56-2.2,1.7-4.03-.06,1.84,.58,2.25-1.82,4.03,.06Z"/><path class="e" d="M35.22,34.75c-1.64-.56-2.2,1.7-4.03-.06,1.84,.58,2.25-1.82,4.03,.06Z"/><path class="e" d="M40.52,34.75c-1.64-.56-2.2,1.7-4.03-.06,1.84,.58,2.25-1.82,4.03,.06Z"/></g></g><path class="e" d="M38.82,32.06h-8.89v-3.22c0-1.26,1.03-2.29,2.29-2.29s2.29,1.03,2.29,2.29v.35h2.75c.86,0,1.56,.7,1.56,1.56v1.31Zm-8.66-.23h8.44v-1.08c0-.74-.6-1.33-1.33-1.33h-2.98v-.58c0-1.14-.93-2.06-2.06-2.06s-2.06,.93-2.06,2.06v2.99Z"/><polygon class="e" points="32.74 25.62 32.33 25.62 32.33 25.29 32.11 25.29 32.11 25.62 31.75 25.62 31.75 25.84 32.11 25.84 32.11 26.66 32.33 26.66 32.33 25.84 32.74 25.84 32.74 25.62"/><path class="e" d="M32.91,32.04l.02-1.74c0-.38-.3-.68-.67-.69h0c-.37,0-.68,.3-.68,.67l-.02,1.75h1.36Z"/><path class="e" d="M34.4,25.97l-1.38,.84c.53,.21,.95,.62,1.18,1.13l1.89-.84-1.69-1.13Z"/><path class="e" d="M14.49,30.14c-.23,0-.43-.09-.58-.24v.73l1.77,.24v-.72h-1.18Z"/><path class="e" d="M27.01,29.43c-.12-.08-.24-.15-.37-.21l3.21-5.19h-1.14l-2.59,4.99c-.06-.02-.13-.03-.19-.05l2.43-10.62-1.96,1-1.2,9.56c-.06,0-.12,0-.18,0l-.87-6.52-1.17,.88,1.29,5.78c-.1,.03-.19,.07-.29,.11l-3.8-7.81-.63,1.54,4.01,6.5c-.17,.11-.32,.23-.47,.37l-8.02-9.08-.06,2.46,.28,.26,.26-.88c.15-.5,.82-.5,.96,0l.78,2.7,5.43,4.96c-.05,.07-.1,.14-.14,.22l-4.48-2.37,.27,.94c.05,.19,.04,.38-.01,.55l3.92,1.63v.03l-4.73-1.08h-1.19v.82l5.83,.78c0,.07-.01,.14-.01,.21h6.18c0-.21-.02-.41-.06-.6,.46-.11,1.15-.27,1.75-.41v-.6l-1.94,.42s-.03-.06-.04-.09l1.98-.88v-.95c0-.07,0-.14,.01-.21l-2.36,1.44c-.04-.06-.09-.11-.14-.16l3.6-3.08,.38-1.79s-.01-.01-.02-.02l-4.51,4.42Z"/><polygon class="e" points="13.36 25.57 13.36 27.48 14.01 27.75 14.48 26.16 13.36 25.57"/><g><path class="e" d="M11.32,9.49v.03c-.07,.1-.19,.25-.34,.46-.16,.22-.27,.38-.33,.48h-.02l-.1-.07v-.03c.06-.11,.1-.17,.11-.19,.01-.04,0-.07-.02-.09-.06-.07-.22-.19-.46-.36l-1.03-.74,.45,.84s.12,.22,.29,.51l.41,.72-.07,.1c-.16-.04-.38-.08-.63-.13l-.61-.11-1.12-.2,1.06,.76c.24,.17,.41,.28,.49,.32,.03,.02,.06,.01,.09-.01,.02-.01,.06-.07,.14-.17h.03l.1,.07v.03c-.09,.11-.17,.22-.24,.32-.08,.12-.17,.24-.24,.36h-.02l-.1-.07v-.03c.06-.11,.1-.17,.11-.19,.01-.04,0-.07-.02-.09-.06-.07-.22-.19-.46-.36l-.81-.58c-.24-.17-.41-.28-.49-.32-.03-.02-.06-.01-.09,.01-.02,.01-.06,.07-.14,.17h-.03l-.1-.07v-.03c.08-.1,.18-.23,.3-.4,.09-.12,.16-.24,.22-.33,.1,.02,.25,.05,.43,.09l.28,.05,1.37,.24-.31-.57-.52-.93c-.06-.11-.13-.22-.21-.34,.09-.11,.15-.19,.18-.23,.14-.2,.25-.36,.32-.47h.02l.11,.07v.03c-.07,.11-.1,.17-.11,.19-.01,.04,0,.07,.02,.09,.06,.07,.22,.19,.46,.36l.81,.58c.24,.17,.41,.28,.49,.32,.03,.02,.06,.01,.09-.01,.02-.01,.06-.07,.14-.17h.03l.1,.07Z"/><path class="e" d="M11.58,5.64v.03c-.1,.11-.13,.19-.09,.26,.02,.04,.09,.11,.19,.22,.08,.08,.19,.19,.34,.33l.42,.4c.27,.26,.41,.5,.42,.71,.02,.29-.1,.56-.35,.82-.23,.24-.45,.38-.65,.44-.18,.05-.34,.03-.5-.06-.1-.05-.31-.24-.65-.56l-.35-.34c-.21-.21-.36-.34-.44-.39-.03-.02-.06-.02-.09,0-.02,0-.07,.06-.17,.15h-.03l-.09-.09v-.03c.09-.08,.23-.22,.41-.41,.19-.2,.32-.34,.39-.42h.03l.09,.09v.03c-.08,.1-.13,.15-.14,.17-.02,.03-.02,.06,0,.09,.05,.07,.19,.22,.4,.42l.28,.27c.34,.33,.56,.52,.67,.56,.21,.09,.43,0,.67-.23,.15-.16,.23-.32,.24-.48,0-.08,0-.14-.03-.2s-.07-.12-.14-.21c-.07-.08-.14-.16-.21-.23l-.28-.27c-.24-.23-.4-.38-.49-.47-.08-.08-.14-.12-.17-.14-.03-.01-.05,0-.09,0-.03,.01-.09,.06-.18,.15h-.03l-.09-.09v-.03c.08-.07,.16-.15,.24-.23,.06-.06,.17-.18,.34-.37h.03l.09,.09Z"/><path class="e" d="M14.29,3.5v.03c-.1,.08-.16,.13-.17,.15-.02,.03-.03,.06,0,.09,.04,.08,.15,.24,.34,.48l.47,.61c.34,.45,.57,.73,.69,.86v.03c-.14,.07-.23,.12-.3,.16-.5-.09-1.37-.29-2.63-.59l.75,.98c.18,.24,.31,.39,.38,.45,.03,.03,.06,.03,.09,.02,.02,0,.08-.05,.19-.12h.03l.08,.1v.02c-.12,.08-.23,.16-.33,.24-.11,.09-.23,.18-.34,.27h-.03l-.08-.1v-.03c.1-.08,.15-.13,.17-.15,.02-.03,.03-.06,0-.09-.04-.08-.15-.24-.34-.48l-.61-.79c-.18-.24-.31-.39-.38-.45-.03-.03-.06-.03-.09-.02-.02,0-.08,.05-.19,.12h-.03l-.08-.1v-.02c.1-.07,.2-.13,.28-.2,.13-.1,.24-.19,.33-.27,.73,.2,1.54,.39,2.45,.56l-.67-.87c-.18-.24-.31-.39-.38-.45-.03-.02-.06-.03-.09-.02-.02,0-.08,.05-.19,.12h-.03l-.08-.1v-.02c.12-.08,.23-.16,.33-.24,.13-.1,.24-.19,.34-.28h.03l.08,.1Z"/><path class="e" d="M17.04,4.8v.02c-.12,.06-.29,.15-.51,.29-.22,.13-.39,.24-.49,.31h-.02l-.06-.12v-.03c.11-.07,.17-.12,.19-.13,.03-.03,.03-.06,.02-.09-.03-.09-.12-.26-.28-.51l-.51-.86c-.15-.26-.26-.42-.32-.49-.02-.03-.05-.04-.09-.03-.02,0-.08,.04-.2,.1h-.03l-.07-.12v-.02c.11-.06,.28-.15,.51-.29,.23-.14,.39-.24,.49-.31h.02l.07,.11v.03c-.11,.07-.17,.12-.19,.13-.03,.03-.03,.06-.02,.09,.03,.09,.12,.26,.28,.51l.51,.86c.15,.26,.26,.42,.32,.49,.02,.03,.05,.04,.09,.03,.02,0,.09-.04,.2-.1h.03l.06,.11Z"/><path class="e" d="M19.39,3.33v.21c-.18,.24-.42,.43-.72,.56-.6,.27-1.1,.24-1.52-.09-.19-.15-.34-.35-.44-.58-.17-.38-.18-.73-.03-1.07,.15-.35,.45-.62,.89-.82,.28-.13,.58-.2,.89-.22l.03,.02c.03,.18,.09,.37,.18,.59v.02l-.11,.05h-.03c-.07-.15-.12-.24-.15-.29-.22-.1-.46-.08-.73,.04-.28,.13-.46,.31-.54,.56-.08,.25-.05,.52,.09,.82,.18,.41,.47,.66,.85,.75,.2,.05,.43,.02,.68-.1,.23-.1,.43-.26,.59-.48l.06,.02Z"/><path class="e" d="M20.86,3.23v.02c-.13,.03-.32,.08-.57,.16-.25,.08-.43,.14-.55,.18h-.02l-.04-.13v-.02c.13-.05,.2-.07,.22-.08,.03-.02,.05-.05,.04-.09-.01-.09-.06-.28-.15-.56l-.3-.95c-.09-.29-.16-.47-.2-.55-.02-.03-.04-.05-.08-.05-.02,0-.09,.02-.22,.05h-.02l-.04-.13v-.02c.13-.03,.32-.08,.57-.16,.25-.08,.44-.14,.55-.18h.02l.04,.13v.02c-.13,.05-.2,.07-.22,.08-.03,.02-.05,.05-.04,.09,.01,.09,.06,.28,.15,.56l.3,.95c.09,.29,.16,.47,.2,.55,.02,.03,.04,.05,.08,.05,.02,0,.09-.02,.22-.05h.02l.04,.13Z"/><path class="e" d="M22.75,.73c.05,.25,0,.47-.14,.65-.15,.18-.33,.29-.55,.33-.07,.01-.15,.02-.23,.02-.02-.03-.05-.07-.09-.12l.03-.05c.06,0,.1,0,.15,0,.12-.02,.22-.09,.27-.19,.06-.1,.07-.23,.04-.39-.07-.34-.26-.49-.56-.43-.04,0-.11,.03-.22,.07,0,.03,.03,.23,.1,.61l.19,.98c.06,.29,.1,.48,.14,.57,.01,.03,.04,.05,.08,.06,.01,0,.1,0,.26-.03l.02,.02,.02,.12v.02c-.19,.03-.39,.06-.62,.11-.27,.05-.45,.09-.57,.12h-.02l-.02-.14,.02-.02c.12-.03,.19-.05,.21-.06,.03-.02,.05-.04,.05-.08,0-.09-.03-.28-.09-.58l-.19-.98c-.06-.29-.1-.48-.14-.57-.01-.03-.04-.05-.08-.06-.02,0-.09,0-.22,.02l-.02-.02-.02-.12,.02-.02c.12-.02,.31-.05,.56-.1,.1-.02,.25-.05,.45-.09s.31-.07,.34-.07c.34-.07,.57-.02,.71,.13,.07,.08,.12,.18,.14,.31Z"/><path class="e" d="M25.79,2.6l-.02,.02c-.28,0-.45,.01-.5,.01-.23,.01-.45,.03-.64,.04l-.02-.02v-.14l.17-.02c.07,0,.1-.03,.1-.08,0-.03-.02-.08-.06-.17l-.17-.39c-.17,0-.35,.01-.53,.02-.1,0-.24,.01-.44,.03l-.07,.23c-.05,.18-.08,.29-.08,.33,0,.05,.03,.07,.09,.08,.03,0,.1,0,.19,0l.02,.02v.14c-.24,0-.39,0-.46,.01-.05,0-.18,.01-.38,.03l-.02-.02v-.14c.14-.01,.22-.04,.25-.09,.03-.05,.12-.31,.29-.8l.43-1.25c.03-.1,.08-.24,.14-.44h.27l1.12,2.28c.04,.09,.08,.14,.11,.15,.04,.01,.1,.02,.18,.01l.02,.02v.12Zm-1.24-.95l-.45-.96-.33,1.01c.1,0,.24,0,.4-.01,.16,0,.29-.02,.39-.03Z"/><path class="e" d="M28.04,2.23c-.05,.18-.08,.38-.11,.61l-.02,.02-1.36-.15c-.23-.02-.39-.04-.48-.04l-.02-.02v-.05l.02-.02c.1-.05,.15-.08,.16-.09,.01-.02,.03-.1,.05-.25l.05-.42,.1-.95c.03-.3,.04-.49,.04-.58,0-.04-.02-.06-.06-.08-.02,0-.09-.02-.22-.04l-.02-.02V.01h.03c.13,0,.32,.03,.56,.06,.26,.03,.45,.04,.59,.05l.02,.02v.13h-.03c-.13,0-.2,0-.22,.01-.04,0-.06,.03-.07,.06-.03,.09-.05,.28-.08,.58l-.12,1.12c-.02,.16-.03,.32-.04,.48l.25,.03c.36,.04,.59,.05,.68,.03,.01,0,.02,0,.03-.02,.01-.02,.03-.05,.05-.11l.07-.23,.02-.02h.11l.02,.03Z"/><path class="e" d="M29.35,3.16h-.02c-.12-.02-.31-.06-.57-.12-.26-.06-.44-.09-.57-.11v-.15h.04c.13,0,.2,.02,.22,.01,.04,0,.06-.02,.08-.05,.04-.08,.08-.27,.15-.57l.21-.97c.06-.29,.1-.48,.1-.58,0-.04-.01-.06-.05-.08-.02,0-.09-.03-.21-.07v-.15h.04c.12,.02,.3,.07,.56,.12,.26,.06,.45,.09,.57,.11v.15h-.04c-.13,0-.2-.02-.22-.01-.04,0-.06,.02-.08,.05-.04,.08-.08,.27-.15,.57l-.21,.97c-.06,.29-.1,.48-.1,.58,0,.04,.01,.06,.05,.08,.02,0,.09,.03,.21,.07v.15Z"/><path class="e" d="M32.79,2.77c-.15,.4-.4,.68-.75,.85-.17,.08-.37,.13-.57,.13-.22,0-.46-.04-.72-.14l-.62-.24c-.17-.06-.31-.11-.43-.14v-.07l.02-.02c.11-.02,.17-.04,.18-.05,.02-.02,.05-.09,.11-.23l.15-.39,.33-.9c.1-.28,.16-.47,.18-.56,0-.04,0-.07-.04-.09-.02-.01-.08-.04-.2-.09v-.02l.03-.12h.02c.12,.04,.24,.09,.35,.13,.27,.1,.52,.19,.75,.26,.11,.04,.22,.07,.33,.12,.31,.11,.53,.23,.67,.36,.15,.14,.25,.31,.29,.51,.04,.21,.02,.44-.08,.7Zm-.57-.11c.12-.33,.13-.61,.04-.84-.05-.12-.13-.22-.24-.31-.11-.08-.26-.16-.47-.23-.11-.04-.22-.07-.32-.09-.06,.13-.18,.45-.37,.95l-.28,.77c-.06,.17-.1,.29-.11,.35,.1,.05,.2,.1,.31,.14,.23,.09,.43,.12,.59,.1,.17-.02,.34-.1,.49-.25,.16-.15,.28-.35,.37-.59Z"/><path class="e" d="M34.87,5.62h-.02c-.24-.14-.38-.22-.43-.25-.2-.11-.39-.22-.57-.31v-.02l.05-.1h.03l.15,.06c.06,.03,.1,.03,.13-.01,.01-.02,.03-.08,.04-.18l.06-.42c-.15-.09-.3-.18-.46-.27-.09-.05-.21-.12-.38-.21l-.19,.16c-.14,.12-.22,.2-.24,.24-.02,.04-.01,.08,.03,.12,.03,.02,.08,.06,.16,.11v.03l-.05,.1h-.03c-.2-.11-.33-.19-.38-.22-.04-.03-.16-.09-.34-.18v-.02l.05-.11h.03c.12,.05,.2,.07,.25,.04,.05-.02,.27-.2,.68-.52l1.04-.82c.08-.06,.2-.16,.36-.29l.23,.13-.3,2.53c-.01,.1,0,.16,.02,.18,.03,.03,.08,.07,.14,.11v.03l-.06,.1Zm-.53-1.47l.14-1.06-.82,.67c.09,.05,.2,.12,.35,.2,.14,.08,.25,.14,.34,.19Z"/><path class="e" d="M38.16,6.35c-.27,.33-.59,.52-.99,.57-.19,.02-.39,0-.58-.06-.21-.07-.43-.19-.64-.36l-.51-.42c-.14-.11-.26-.21-.36-.27v-.03l.03-.04h.02c.11,0,.17,0,.19,0,.02-.01,.08-.07,.17-.18l.27-.33,.6-.75c.19-.23,.3-.39,.35-.47,.02-.03,.02-.06,0-.09-.01-.02-.07-.07-.16-.15v-.03l.08-.1h.03c.1,.09,.2,.17,.29,.25,.23,.18,.44,.34,.62,.49,.09,.07,.19,.14,.28,.22,.25,.2,.43,.39,.52,.56,.1,.18,.13,.38,.11,.58-.03,.21-.13,.42-.3,.64Zm-.51-.29c.22-.27,.32-.53,.3-.78,0-.13-.05-.25-.13-.37-.07-.11-.2-.23-.38-.37-.09-.07-.18-.14-.28-.19-.1,.1-.32,.36-.65,.79l-.51,.64c-.11,.14-.19,.24-.22,.29,.08,.08,.16,.16,.25,.23,.2,.16,.37,.25,.53,.28,.17,.04,.35,0,.54-.08,.2-.09,.37-.24,.54-.44Z"/><path class="e" d="M41.06,9.56c-.32,.28-.68,.4-1.08,.37-.19-.01-.38-.07-.56-.17-.2-.1-.38-.26-.56-.48l-.42-.51c-.12-.14-.22-.25-.3-.33v-.03l.04-.03h.02c.11,.03,.17,.04,.18,.04,.02,0,.09-.05,.2-.15l.32-.27,.73-.62c.23-.19,.37-.33,.43-.4,.02-.03,.03-.06,.01-.09,0-.02-.05-.08-.13-.18v-.03l.1-.08h.03c.08,.11,.16,.21,.24,.3,.19,.22,.36,.42,.52,.6,.08,.09,.16,.17,.23,.26,.21,.25,.35,.46,.4,.64,.06,.2,.06,.4,0,.59-.07,.2-.2,.39-.42,.57Zm-.44-.38c.26-.23,.41-.46,.45-.71,.02-.13,0-.26-.06-.39-.05-.12-.15-.27-.3-.44-.08-.09-.15-.17-.24-.24-.12,.08-.38,.3-.79,.65l-.62,.54c-.14,.12-.23,.2-.27,.25,.06,.1,.12,.19,.2,.28,.16,.19,.32,.32,.47,.38,.16,.07,.34,.07,.55,.02,.21-.06,.41-.17,.61-.33Z"/><path class="e" d="M41.73,12.08c-.17,.08-.35,.18-.54,.31h-.03l-.75-1.15c-.13-.19-.22-.32-.28-.4v-.03l.05-.03h.02c.1,.04,.16,.06,.18,.06,.03,0,.1-.04,.22-.12l.35-.23,.79-.53c.25-.17,.41-.28,.47-.35,.03-.03,.03-.06,.02-.09,0-.02-.04-.08-.11-.19v-.03l.11-.07h.02c.06,.12,.17,.28,.32,.5,.13,.2,.38,.57,.76,1.11v.03l-.19,.1c-.06,.03-.11,.06-.15,.08l-.15,.09h-.03l-.06-.09v-.03c.15-.1,.22-.16,.23-.19,0-.02-.02-.09-.08-.19-.06-.11-.11-.2-.17-.27-.06-.09-.13-.18-.2-.27-.12,.06-.27,.16-.47,.29l-.32,.22c.05,.09,.09,.15,.13,.21l.14,.2c.07,.1,.11,.14,.13,.15,.03,0,.11-.03,.23-.11h.03l.06,.1v.03c-.12,.07-.23,.14-.33,.21-.11,.07-.22,.15-.34,.24h-.02l-.07-.11v-.03c.13-.08,.19-.14,.2-.17s0-.09-.06-.18c-.04-.07-.08-.14-.13-.21-.05-.08-.1-.15-.15-.21l-.48,.32c-.14,.09-.27,.18-.39,.27l.14,.21c.2,.3,.34,.48,.41,.54,.01,0,.02,.01,.03,.01,.02,0,.06-.01,.11-.03l.22-.09h.03l.06,.1v.03Z"/></g><g><path class="e" d="M11.33,45.15c-.2,.16-.42,.21-.64,.16-.22-.05-.4-.16-.54-.34-.05-.06-.09-.13-.12-.2,.02-.03,.04-.07,.07-.14h.06c.02,.06,.04,.1,.07,.14,.08,.1,.18,.15,.29,.16s.24-.04,.37-.14c.28-.21,.32-.45,.13-.7-.02-.03-.08-.08-.16-.17-.03,0-.2,.13-.5,.36l-.79,.61c-.24,.18-.39,.31-.45,.38-.03,.03-.03,.06-.02,.09,0,.01,.05,.08,.14,.22v.03l-.1,.08h-.03c-.1-.14-.22-.31-.37-.5-.16-.21-.29-.36-.36-.45v-.03l.1-.08h.03c.08,.1,.13,.15,.15,.17,.03,.02,.06,.03,.09,0,.08-.04,.24-.15,.48-.34l.79-.61c.24-.18,.39-.31,.45-.38,.03-.03,.03-.06,.02-.09,0-.02-.05-.08-.12-.19v-.03l.1-.08h.03c.07,.11,.18,.26,.34,.46,.06,.08,.16,.2,.28,.36,.12,.15,.2,.24,.21,.27,.21,.27,.28,.5,.2,.69-.04,.1-.11,.18-.21,.26Z"/><path class="e" d="M13.69,46.98h-.03c-.1-.11-.19-.14-.26-.1-.04,.02-.11,.08-.22,.18-.08,.07-.2,.18-.34,.33l-.42,.4c-.27,.26-.51,.39-.73,.4-.29,0-.56-.12-.81-.38-.23-.24-.37-.46-.42-.67-.04-.18-.02-.34,.07-.49,.06-.1,.25-.31,.58-.63l.35-.34c.21-.21,.35-.35,.4-.42,.02-.03,.02-.06,0-.09,0-.02-.06-.07-.14-.17v-.03l.09-.09h.03c.08,.09,.21,.23,.4,.42,.19,.19,.33,.33,.41,.41v.03l-.09,.09h-.03c-.09-.09-.15-.14-.17-.15-.03-.02-.06-.02-.09,0-.08,.05-.22,.18-.44,.39l-.28,.27c-.34,.33-.53,.55-.58,.65-.09,.21-.02,.43,.21,.67,.15,.16,.31,.24,.47,.26,.08,0,.14,0,.2-.02,.05-.02,.12-.06,.21-.13,.08-.06,.16-.13,.24-.21l.28-.27c.24-.23,.4-.39,.48-.47,.08-.08,.13-.14,.14-.17,.01-.02,0-.05,0-.09-.01-.03-.06-.09-.14-.19v-.03l.09-.09h.03c.07,.08,.15,.17,.23,.25,.06,.06,.18,.18,.36,.35v.03l-.09,.09Z"/><path class="e" d="M14.24,49.82c-.14,.13-.28,.28-.42,.46h-.03l-1.06-.86c-.18-.14-.31-.24-.38-.29v-.03l.03-.04h.02c.11,0,.17,0,.19,0,.02-.01,.08-.07,.17-.18l.27-.33,.6-.75c.19-.23,.3-.39,.35-.47,.02-.03,.02-.06,0-.09-.01-.02-.06-.07-.16-.15v-.03l.08-.1h.03c.09,.08,.24,.21,.45,.37,.18,.15,.54,.43,1.06,.83v.02l-.14,.15s-.09,.09-.12,.12l-.12,.13h-.03l-.09-.06v-.03c.1-.13,.16-.22,.16-.25,0-.02-.04-.08-.13-.16s-.17-.15-.24-.21c-.09-.07-.17-.13-.27-.2-.09,.09-.21,.23-.36,.41l-.24,.3c.07,.07,.13,.12,.18,.16l.19,.15c.09,.07,.15,.1,.17,.1,.03,0,.09-.06,.19-.17h.03l.09,.07v.03c-.09,.11-.17,.21-.24,.3-.08,.1-.16,.21-.25,.33h-.03l-.1-.08v-.03c.09-.11,.13-.19,.13-.22,0-.03-.04-.09-.11-.16-.06-.05-.12-.11-.19-.16-.07-.06-.14-.11-.21-.15l-.36,.45c-.1,.13-.2,.25-.29,.38l.2,.16c.29,.23,.47,.36,.55,.39,.01,0,.03,0,.04,0,.02,0,.05-.03,.1-.07l.18-.15h.03l.09,.07v.03Z"/><path class="e" d="M16.44,51.94h-.03s-.03-.01-.06-.03c-.14-.09-.23-.15-.27-.18-.05-.03-.14-.08-.27-.15,.01-.03,.02-.08,.02-.17v-1.29s-.02-.1-.04-.16l.05-.04s.04,.03,.05,.04c.11,.06,.2,.1,.28,.1,.07,0,.16-.02,.25-.07s.17-.12,.23-.23c.11-.18,.12-.34,.02-.49-.05-.07-.13-.14-.25-.22-.05-.03-.11-.06-.16-.08-.07,.1-.19,.27-.34,.53l-.51,.84c-.16,.26-.25,.43-.28,.51-.01,.03,0,.07,.02,.09,.01,.01,.07,.06,.18,.13v.03l-.06,.11h-.02c-.1-.06-.27-.17-.49-.3-.23-.14-.4-.24-.5-.29v-.02l.06-.11h.03c.11,.05,.18,.09,.2,.09,.04,.01,.07,0,.09-.03,.06-.07,.17-.23,.32-.49l.52-.85c.16-.26,.25-.43,.28-.51,.01-.03,0-.07-.02-.09-.01-.01-.07-.06-.18-.13v-.03l.06-.11h.02c.1,.07,.26,.17,.49,.31,.13,.08,.24,.14,.32,.19,.17,.09,.29,.16,.37,.21,.19,.11,.31,.21,.38,.3,.09,.12,.12,.24,.1,.37-.01,.06-.04,.13-.08,.2-.18,.29-.47,.4-.87,.32,0,.12,0,.25,0,.38l.02,.53c0,.31,.03,.5,.06,.56,.01,.03,.04,.06,.09,.09v.03l-.06,.1Z"/><path class="e" d="M20.05,50.63c-.05,.08-.1,.16-.14,.26l-.13,.29h-.02l-.11-.04v-.02c.04-.15,.08-.24,.08-.27,0-.05-.02-.1-.08-.13-.02-.01-.13-.06-.32-.14l-.23-.1s-.09,.2-.21,.48l-.42,.98c-.12,.28-.19,.46-.21,.55,0,.04,0,.07,.03,.09,.02,.01,.08,.05,.2,.1v.02l-.04,.12h-.02c-.11-.05-.29-.13-.53-.23-.25-.11-.43-.18-.54-.22v-.02l.04-.12h.02c.12,.03,.19,.06,.21,.06,.04,0,.07,0,.09-.04,.05-.08,.13-.25,.25-.53l.42-.98c.12-.29,.19-.45,.2-.48l-.25-.11c-.21-.09-.33-.13-.37-.14-.02,0-.04,0-.05,0-.02,.01-.04,.05-.07,.1-.03,.06-.07,.12-.1,.18h-.02l-.11-.04v-.03l.11-.3c.03-.08,.06-.17,.09-.27h.02c.06,.03,.31,.14,.74,.32l.7,.3c.4,.17,.65,.27,.75,.3v.02Z"/><path class="e" d="M22.63,52.57c-.11,.45-.32,.77-.65,.97-.32,.19-.69,.23-1.14,.12-.42-.1-.72-.3-.9-.59s-.22-.65-.12-1.07c.14-.59,.46-.94,.97-1.06,.23-.05,.49-.04,.79,.03,.43,.1,.73,.29,.91,.57,.19,.28,.23,.63,.14,1.02Zm-.59-.04c.09-.35,.08-.65-.01-.89-.09-.24-.28-.4-.55-.46-.36-.09-.64,.02-.84,.32-.1,.15-.18,.33-.23,.54-.09,.38-.09,.69,0,.94,.09,.26,.28,.43,.57,.49,.35,.08,.62-.03,.83-.35,.11-.17,.19-.36,.24-.59Z"/><path class="e" d="M26.03,53.49c-.03,.18-.05,.39-.05,.62l-.02,.02-1.37-.04c-.23,0-.39,0-.48,0l-.02-.02v-.08c.1-.06,.16-.09,.16-.11,.01-.02,.02-.11,.03-.25v-.42l.03-.95c0-.3,0-.49-.01-.58,0-.04-.03-.06-.06-.07-.02,0-.09-.01-.22-.02l-.02-.02v-.13l.02-.02c.13,.01,.32,.02,.57,.02,.26,0,.46,0,.59,0l.02,.02v.13l-.02,.02c-.13,0-.2,0-.22,.01-.04,0-.06,.03-.07,.07-.02,.09-.03,.28-.04,.58l-.02,1.13c0,.16,0,.32,0,.48h.26c.37,.01,.59,0,.68-.02,.01,0,.02-.01,.03-.02,.01-.02,.03-.05,.04-.11l.05-.23,.02-.02h.11l.02,.02Z"/><path class="e" d="M27.7,53.94v.02c-.14,0-.33,.02-.6,.05-.26,.03-.45,.05-.58,.07l-.02-.02v-.15c.13-.02,.2-.03,.22-.04,.04-.01,.05-.04,.06-.08,0-.09,0-.29-.03-.58l-.1-.99c-.03-.3-.06-.49-.08-.58,0-.04-.03-.06-.07-.06-.02,0-.09,0-.22,0l-.02-.02v-.15c.12,0,.32-.02,.58-.05,.26-.03,.45-.05,.57-.07l.02,.02v.15c-.13,.02-.2,.03-.22,.04-.04,.01-.05,.04-.06,.08,0,.09,0,.29,.03,.58l.1,.99c.03,.3,.06,.49,.08,.58,0,.04,.03,.06,.07,.06,.02,0,.09,0,.22,0l.02,.02v.13Z"/><path class="e" d="M30.15,52.59c.07,.31-.03,.58-.29,.82-.13,.12-.31,.2-.54,.25-.07,.02-.13,.03-.18,.04l-.44,.09c-.16,.04-.28,.07-.36,.09h-.02v-.09c.07-.08,.11-.13,.12-.14,0-.02,0-.11-.03-.25l-.09-.41-.21-.93c-.07-.29-.12-.48-.15-.56-.01-.03-.04-.05-.08-.05-.02,0-.09,0-.22,.03h-.02l-.03-.14v-.02c.13-.02,.31-.06,.58-.12,.17-.04,.32-.08,.46-.11,.11-.03,.2-.05,.27-.07,.34-.08,.58-.05,.73,.08,.07,.07,.12,.16,.15,.26,.04,.17,0,.33-.11,.48-.05,.07-.11,.13-.17,.17-.07,.05-.16,.1-.25,.14,.51-.09,.81,.06,.9,.44Zm-.9-1.02c-.06-.27-.23-.37-.51-.31-.09,.02-.17,.04-.23,.07,.02,.13,.05,.25,.07,.36l.11,.51s.09-.02,.17-.03c.22-.05,.35-.15,.39-.31,.02-.09,.02-.18,0-.28Zm.35,1.2c-.08-.37-.32-.51-.7-.42-.05,.01-.1,.03-.17,.04l.19,.85c.02,.09,.04,.18,.07,.27,.05,0,.12-.01,.21-.03,.17-.04,.29-.12,.36-.25,.06-.12,.08-.27,.03-.46Z"/><path class="e" d="M32.62,51.92c.04,.18,.1,.38,.18,.6v.02l-1.29,.48c-.21,.08-.36,.14-.45,.18h-.02l-.02-.06v-.02c.07-.09,.1-.14,.1-.16,0-.03-.02-.11-.07-.24l-.15-.4-.34-.89c-.11-.28-.18-.46-.23-.54-.02-.03-.05-.05-.08-.04-.02,0-.09,.02-.21,.06h-.02l-.05-.13v-.02c.13-.04,.32-.1,.56-.2,.22-.08,.64-.25,1.25-.49h.02l.05,.21c.02,.06,.03,.12,.04,.16l.05,.17v.03l-.11,.04h-.02c-.06-.17-.11-.26-.13-.27-.02-.01-.09,0-.2,.03-.12,.03-.22,.07-.3,.1-.1,.04-.2,.08-.31,.13,.03,.13,.09,.3,.18,.52l.14,.36c.09-.03,.17-.06,.23-.08l.23-.09c.11-.04,.17-.07,.17-.1,.01-.03,0-.11-.05-.25v-.02l.12-.04h.02c.05,.14,.09,.27,.13,.37,.05,.12,.1,.25,.16,.39v.02l-.13,.04h-.02c-.05-.15-.09-.22-.12-.24-.03-.02-.09-.01-.19,.01-.07,.02-.15,.05-.23,.08-.09,.03-.16,.07-.24,.1l.2,.54c.06,.15,.12,.3,.18,.44l.24-.09c.34-.13,.55-.22,.61-.28,.01,0,.02-.02,.02-.03,0-.02,0-.06,0-.12l-.04-.23v-.03l.12-.04h.03Z"/><path class="e" d="M35.56,51.05v.03s-.04,.02-.07,.03c-.15,.08-.25,.13-.29,.15-.06,.03-.14,.08-.26,.16-.02-.02-.06-.06-.14-.1l-.79-.46-.34-.18s-.09-.04-.15-.05v-.07s.03-.02,.04-.03c.11-.06,.18-.12,.23-.19,.04-.06,.06-.14,.07-.25s-.02-.21-.08-.31c-.1-.19-.24-.27-.42-.26-.08,0-.19,.04-.31,.11-.05,.03-.11,.06-.15,.1,.05,.11,.14,.3,.29,.56l.48,.86c.14,.26,.25,.43,.3,.5,.02,.03,.05,.04,.09,.03,.02,0,.09-.03,.2-.09h.03l.06,.12v.02c-.12,.05-.29,.14-.52,.27-.24,.13-.4,.23-.5,.29h-.02l-.06-.12v-.03c.12-.07,.18-.11,.19-.12,.03-.03,.03-.06,.02-.09-.03-.09-.12-.26-.26-.52l-.48-.87c-.14-.26-.25-.43-.3-.5-.02-.03-.05-.04-.09-.03-.02,0-.09,.03-.2,.09h-.03l-.06-.12v-.02c.12-.05,.29-.14,.52-.27,.13-.07,.24-.14,.32-.19,.16-.1,.28-.17,.37-.22,.19-.11,.34-.17,.45-.18,.15-.02,.27,.01,.37,.1,.05,.04,.09,.1,.14,.17,.17,.3,.11,.6-.15,.92,.11,.06,.22,.12,.33,.18l.47,.25c.28,.15,.45,.22,.52,.23,.03,0,.07,0,.12-.03h.03l.06,.11Z"/><path class="e" d="M36.22,47.28c.04,.08,.09,.17,.15,.25l.19,.25v.03l-.1,.07h-.03c-.1-.13-.16-.2-.19-.22-.04-.03-.09-.03-.15,0-.02,.01-.12,.08-.29,.21l-.2,.15s.13,.18,.31,.42l.64,.86c.18,.24,.3,.39,.37,.45,.03,.03,.06,.03,.09,.02,.02,0,.08-.05,.19-.12h.03l.08,.1v.03c-.11,.07-.27,.18-.48,.34-.22,.16-.37,.28-.46,.36h-.02l-.08-.11v-.03c.1-.08,.16-.13,.17-.15,.02-.03,.03-.06,0-.09-.04-.08-.15-.24-.33-.48l-.64-.86c-.19-.25-.29-.39-.32-.42l-.22,.16c-.18,.13-.28,.22-.3,.25-.01,.02-.02,.03-.02,.05,0,.02,.02,.06,.05,.11,.03,.06,.07,.12,.11,.17v.03l-.1,.07h-.03l-.2-.26c-.06-.07-.12-.14-.19-.21v-.03c.07-.03,.29-.19,.66-.47l.61-.46c.34-.26,.56-.42,.64-.5h.03Z"/><path class="e" d="M39.95,47.37v.03c-.21,.19-.33,.3-.37,.34-.17,.16-.32,.31-.46,.45h-.03l-.08-.09v-.03l.11-.12c.05-.05,.06-.09,.02-.12-.02-.02-.07-.05-.16-.09l-.38-.18c-.13,.12-.26,.24-.39,.36-.07,.07-.18,.17-.31,.3l.1,.22c.08,.17,.13,.27,.16,.3,.03,.03,.07,.03,.12,0,.03-.02,.08-.06,.15-.12h.03l.08,.09v.03c-.17,.15-.28,.26-.33,.3-.04,.04-.13,.13-.27,.27h-.03l-.08-.09v-.03c.09-.09,.13-.17,.12-.22,0-.05-.11-.32-.3-.8l-.49-1.23c-.04-.09-.1-.24-.18-.43l.19-.18,2.34,1.01c.09,.04,.15,.05,.18,.04,.04-.02,.09-.05,.15-.11h.03l.08,.09Zm-1.56,.09l-.97-.44,.4,.98c.08-.07,.18-.16,.29-.27,.12-.11,.21-.2,.28-.27Z"/><path class="e" d="M40.92,43.85c.33,.27,.52,.59,.57,.99,.02,.19,0,.39-.06,.58-.07,.21-.19,.43-.36,.64l-.42,.51c-.11,.14-.2,.26-.27,.36h-.03l-.04-.03v-.02c0-.11,0-.17,0-.19-.01-.02-.07-.08-.18-.17l-.33-.27-.75-.6c-.23-.19-.39-.3-.47-.35-.03-.02-.06-.02-.09,0-.02,.01-.07,.06-.15,.16h-.03l-.1-.08v-.03c.09-.1,.17-.2,.24-.29,.18-.23,.34-.44,.48-.63,.07-.09,.14-.19,.22-.28,.2-.26,.39-.43,.56-.52,.18-.1,.38-.14,.58-.11,.21,.03,.42,.13,.64,.3Zm-.29,.51c-.27-.22-.53-.32-.78-.3-.13,0-.25,.05-.37,.13-.11,.07-.23,.2-.37,.38-.07,.09-.14,.18-.19,.28,.1,.1,.36,.31,.79,.65l.65,.51c.14,.11,.24,.19,.3,.22,.08-.08,.16-.16,.23-.25,.16-.2,.25-.37,.28-.53,.04-.17,0-.35-.08-.54-.09-.2-.24-.37-.44-.54Z"/></g></g></g></g></svg>