<?xml version="1.0" encoding="UTF-8"?><svg xmlns="http://www.w3.org/2000/svg" viewBox="0 0 49.56 54.13"><defs><style>.d{fill:#fff;}</style></defs><g id="a"/><g id="b"><g id="c"><g><path class="d" d="M38.59,4.62c.36-.3,.69-.59,1.05-.85,.15-.11,.33-.17,.51-.23,.38-.13,.78-.2,1.14-.38,.23-.11,.49-.14,.64-.06,.39,.21,.78,.12,1.17,.13,.8,.03,2.09,.51,2.69,1.05,.22,.2,.39,.42,.41,.74,.02,.24,.22,.41,.03,.73-.16,.26-.06,.69-.03,1.04,.02,.31-.16,.66,.15,.93-.05,.45,.22,.85,.17,1.31-.07,.58,.13,1.14,.29,1.7,.1,.34,.17,.69,.25,1.04,.07,.3,.08,.63,.23,.89,.16,.29,.11,.57,.2,.84,.13,.38,.28,.75,.39,1.13,.04,.14,.05,.27,.15,.4,.2,.27,.25,.62,.15,.91-.14,.4-.27,.87-.64,1.09-.34,.2-.55,.5-.88,.74,.16,.41,.32,.82,.49,1.23,.04,.11,.14,.21,.14,.32,0,.59,.17,1.14,.29,1.71,.1,.46,.02,.96,.02,1.49l.24,.24,1.04-.62c.42,.16,.57,.46,.55,.89-.02,.51,0,1.02,0,1.52s-.02,.97,0,1.45c.02,.46,.08,.93,.15,1.38,.08,.55-.18,1.07-.16,1.61-.32,.3-.1,.7-.22,1.05-.23,.69-.63,1.27-1,1.87-.25,.41-.51,.82-.84,1.19-.17,.19-.45,.51-.08,.82,.05,.65,.46,1.25,.24,2.05-.24,.46-.61,.96-1.38,.92-.01,.01-.04,.02-.05,.04-.02,.07-.04,.14-.06,.23h-.48l-.25,.25v.61s.08,.13,.15,.15c.63,.23,1.07,.73,1.57,1.13,.36,.28,.59,.66,.28,1.14,.06,.69-.52,1.06-.81,1.57-.3,.52-.58,1.04-.59,1.66,0,.26-.11,.51-.14,.78-.03,.25,.02,.51,0,.76-.08,.8,.22,1.54,.31,2.31,.03,.25,.28,.35,.34,.63,.11,.54,.11,1.08,.12,1.62,0,.2,0,.4,0,.54-.12,.22-.2,.39-.31,.55-.11,.16-.2,.36-.36,.45-.27,.15-.53,.34-.8,.47-.26,.13-.58,.18-.87,.29-.11,.04-.24,.04-.36,.04-.36,0-.71-.02-1.07,0-1.23,.08-2.25-.34-3.06-1.26-.05-.06-.11-.11-.1-.1l-.31-1.01-.09,.02v-.75c-.29,.17-.54,.29-.76,.46-.84,.64-1.75,1.17-2.62,1.75-1.16,.77-2.47,1.17-3.68,1.8-.7,.05-1.32,.37-1.97,.58-.34,.11-.71,.17-1.07,.17-.4,0-.76,.14-1.13,.23-.17,.04-.33,.08-.5,.08-1.63,0-3.25,0-4.88,0-.19,0-.37-.07-.55-.13-.34-.11-.71-.15-1.07-.2-.63-.08-1.25-.28-1.85-.49-1.31-.45-2.58-.99-3.83-1.6-.94-.45-1.77-1.03-2.61-1.61-.48-.32-.94-.67-1.45-.99h-.51c0,.22-.02,.42,0,.61,.05,.36-.09,.68-.2,.99-.08,.21-.15,.54-.51,.54-.34,.36-.79,.52-1.26,.65-.14,.04-.28,.09-.42,.09-.61,.01-1.22,0-1.83,0-.07-.17,.1-.19,.16-.31h1.72v-.09c-.17-.03-.4-.01-.52-.11-.22-.18-.44-.07-.65-.09-.2-.02-.41,0-.61,0h-.7l-.2-.22s.05-.08,.07-.08c.57-.04,1.11,.2,1.69,.17,.59-.04,1.13-.21,1.68-.38,.37-.11,.68-.38,.8-.79v-1.01l-.18-.35c.23,.01,.34,.17,.47,.28l.03,.52,.08,.05,.1-.36c-.03-.46-.25-1-.77-1.32-.59-.37-1.23-.62-1.95-.63-.4,0-.81-.12-1.22-.19l-.35,.59,.23,.24c.4-.26,.84-.17,1.36-.16-.34,.2-.58,.32-.89,.3-.21-.02-.43-.07-.64,.11-.09,.09-.33,.01-.57,.01l.31-.69-.15-.17c-.53,.13-1.01,.33-1.33,.81,.02,.32-.23,.61-.18,.98,.04,.3,.34,.57,.08,.93l-.42-1.01-.36,.74c-.15-.77-.09-1.45,.26-2.07,.29-.52,.4-1.06,.48-1.64,.06-.46,.14-.92,.12-1.39-.03-.46-.13-.92-.21-1.47l-.53-1.25c-.84-.64-.88-1.5-.95-2.35,.23-.23,.45-.44,.66-.66,.26-.27,.53-.5,.87-.66,.24-.11,.43-.33,.62-.49,0-.13,0-.23,0-.34-.07-.07-.14-.14-.23-.23-1.02,.1-1.69-.44-2.19-1.27-.17-1.24,.15-1.84,.97-2.39,.36,0,.71,0,1.08,0l.08-.21c-.34-.13-.66-.25-.98-.38-1.12-.45-1.85-1.33-2.54-2.26-.58-.78-.75-1.72-1.07-2.61,.08-.74-.15-1.5,.13-2.23,.05-.13,.02-.3,.02-.45,0-.53,0-1.06,0-1.57,.06-.02,.08-.04,.09-.04,.02,0,.05,.03,.05,.05,0,.61,0,1.22,0,1.81l1.19,1c.17-.45-.27-.64-.41-.95-.14-.31-.08-.66-.3-.94-.24-.3-.12-.69-.26-1.03-.12-.3-.12-.65-.2-1.09,.14,.14,.28,.22,.27,.28-.06,.41,.38,.6,.4,.99,.02,.32,.27,.61,.24,.97,0,.05,.07,.14,.13,.17,.25,.11,.12,.36,.23,.57,.4-.4,.39-.9,.42-1.52l.46,.75-.18,.25c.04,.54,.01,1.1-.35,1.64l.39,.16-.16,.52h-.63c-.62-.3-1.09-.66-1.15-1.36-.2,1.04,0,1.99,.42,2.93l.21-.19c.69,.19,1.2,.88,2.06,.75l-.58-1.16-.21,.18,.13-.56-.17-.35,.3-.09c.05-.24,.18-.51,.12-.72-.09-.3-.15-.65-.03-.86,.16-.28,.03-.54,.14-.79l.21-.19,.22,.22c0,.35-.01,.71,0,1.07,.01,.26-.12,.56,.15,.78,.03,.52-.16,.99-.3,1.52l.4,.38c.44-.69,.76-1.39,.82-2.21,.02-.31,.11-.61,.17-.91-.38-.32-.67-.7-1.09-.95-.37-.22-.72-.52-1-.85-.31-.37-.79-.48-1.14-.8,.11-.11,.21-.22,.31-.33,0-.18,0-.36,0-.53-.05-.79,.19-1.52,.5-2.23,.27-.61,.59-1.18,.95-1.74,.17-.27,.19-.63,.27-.92l-1.26-1.26c0-.06,.01-.16,0-.26-.04-.23-.2-.5-.13-.69,.17-.44,.2-.91,.41-1.35,.29-.61,.49-1.28,.61-1.95,.07-.41,.37-.72,.39-1.14,0-.09,.09-.18,.09-.27-.03-.57,.26-1.11,.17-1.69-.02-.1,.09-.21,.15-.35l-.18-.32,.15-.21c-.04-.08-.13-.16-.13-.24-.01-.71-.06-1.43,.01-2.13,.08-.75,.36-1.39,1.09-1.85,.68-.42,1.35-.7,2.14-.74,.3-.01,.54-.26,.9-.08,.26,.13,.65,.01,.95,.09,.59,.15,1.2,.26,1.68,.73,.27,.26,.64,.41,1.05,.66,.16-.08,.42-.17,.62-.33,1.19-.97,2.5-1.75,3.91-2.35,.3-.13,.56-.35,.9-.42,.32-.06,.6-.27,.92-.35,.74-.19,1.44-.47,2.21-.58,.33-.05,.7-.03,1-.15,.35-.14,.7-.04,1.01-.14,.79-.26,1.59-.1,2.38-.13,.81-.03,1.63-.08,2.44,.01,.8,.09,1.6,.14,2.39,.3,.75,.15,1.51,.24,2.25,.45,.47,.13,.95,.29,1.39,.5,.57,.28,1.21,.43,1.75,.74,.88,.51,1.83,.94,2.61,1.61,.39,.33,.81,.62,1.22,.92,.05,.04,.14,.03,.27,.05ZM5.79,27.91l-.17,.02c.04,.2,.17,.43,.1,.58-.11,.25-.03,.49-.07,.73-.04,.21-.12,.41-.14,.62-.03,.25,0,.5,0,.66l-.32,.62,.33,.33c-.1,.21-.44,.27-.32,.47l.4-.22c.13-.55,.23-.97,.31-1.39,.04-.19,.01-.4,.06-.58,.05-.18,.2-.33,.15-.55-.11-.43-.22-.87-.42-1.37-.13-.57-.47-1.1-.91-1.58-.02-.02-.13,.03-.16,.04,.04,.31,.1,.59,.12,.87,.04,.79-.35,1.47-.62,2.17-.08,.22-.22,.47-.12,.61,.21,.29,.19,.77,.73,.91l-.08-.48c.19-.22,.51-1.08,.56-1.48,.04-.37,.09-.75,.59-1Zm35.99-5.23l.46,.46c.13,.13,.3,.23,.36,.38,.09,.19,.44,.03,.4,.36,0,.05,.25,.14,.47,.25-.08-.24-.16-.41-.18-.59-.03-.21,0-.44,0-.63-.5-.08-.93-.15-1.37-.18l.14-.31c-.18-.2-.33-.33-.45-.49-.29-.39-.56-.78-.9-1.27v.79l.27,.27c.13,.95-.27,1.83-.3,2.73-.16,.34-.44,.62-.23,1.02h.29c-.3,.45,.18,.63,.27,.98,.01,.05,.18,.05,.29,.08,.03-.3-.32-.48-.04-.79l.38,.33-.19,.28,.39,.93c-.05-.66,.28-1.21,.43-1.81,.09,0,.17,0,.21-.13,.09,.51-.05,.85-.1,1.21-.06,.37-.01,.76-.01,1.11-.24,.34-.5,.66-.13,1.02l-.17,.34c.3-.09,.4-.2,.48-.42,.18-.5,.47-.97,.67-1.47,.07-.16,.07-.39,.02-.56-.13-.41-.34-.78-.71-1.1-.13-.35-.18-.76-.39-1.05-.31-.41-.38-.93-.69-1.31-.19-.23-.13-.44-.11-.78l.19,.4c.13,0,.26,0,.25-.06Zm2.74,3.93l.2,.39,.06-.08,.21,1.57,.6,1.24c.09-.21,.12-.32,.18-.39,.09-.11,.2-.21,.28-.29-.07-.21-.13-.36-.16-.53-.04-.23,.09-.5-.15-.71-.05-.04-.04-.23,0-.29,.28-.28,0-.67,.17-.92,.23-.34,.05-.69,.12-1.02,0-.04,.05-.08,.1-.15l.35,.23c.03,.81-.02,1.59,.14,2.4,.15-.29,.31-.57,.46-.86-.32-.56-.45-1.12-.44-1.8,0-.35,.12-.63,.49-.89l-.1,.91,.43,.79,.64-1.42c.19,.45-.06,.77-.14,1.1-.09,.36-.16,.73-.43,1.01,.35,.23,.54-.08,.78-.13,.01-.32,.34-.41,.44-.59v-3.47c-.24,.17-.47,.31-.67,.48-.51,.44-1,.9-1.5,1.34-.09,.08-.22,.1-.31,.17-.1,.08-.14,.23-.25,.29-.66,.39-1.08,1.01-1.39,1.55-.74,.53-.82,1.28-1.15,1.72l.16,.81,.26,.26v.61l.07-.02,.46,1.47c.32-.21,.26-.73,.68-.84v-.36l-.31-.23v-.63l-.28-.28c.05-.79-.44-1.58,0-2.47ZM9.72,35.59c.21-.53-.21-.86-.28-1.29-.07-.43-.27-.84-.42-1.26-.14-.38-.07-.83-.47-1.23-.07,.24-.18,.41-.15,.55,.13,.5,.17,1.03,.45,1.48,.33,.54,.51,1.16,1.01,1.69l-.1,.02v.99c.05,.06,.13,.11,.15,.17,.31,.9,.85,1.69,1.32,2.49,.49,.83,1.09,1.6,1.71,2.33,.59,.69,1.25,1.34,1.94,1.94,.58,.51,1.22,.95,1.87,1.37,.91,.58,1.87,1.09,2.9,1.44,.29,.1,.59,.18,.88,.27,.27,.09,.53,.2,.8,.27,.3,.07,.62,.17,.92,.14,.34-.03,.61,.18,.93,.17,1.38-.05,2.78,.15,4.14-.28,.33-.1,.69-.15,1.04-.26,.36-.11,.72-.23,1.08-.32,.28-.07,.53-.2,.79-.31,.29-.11,.58-.18,.83-.39,.21-.18,.5-.28,.75-.4,.84-.39,1.56-.98,2.23-1.57,.9-.79,1.76-1.64,2.51-2.59,.65-.83,1.68-2.37,2.15-3.3,.36-.71,.67-1.45,1.01-2.17,.03-.06,.04-.13,.07-.2,.23-.69,.46-1.38,.69-2.07,.27-.82,.26-1.26-.09-1.91-.03-.05-.12-.06-.25-.12-.02,.2,0,.38-.05,.52-.16,.38-.2,.78-.31,1.17-.12,.41-.26,.81-.35,1.22-.09,.39-.27,.75-.42,1.12-.24,.61-.52,1.22-.84,1.78-.53,.93-1.03,1.88-1.71,2.73-.54,.68-1.13,1.33-1.68,2.01-.15,.19-.25,.48-.51,.56-.3,.1-.45,.37-.69,.54-.41,.3-.79,.64-1.2,.94-.36,.26-.77,.38-1.11,.64-.63,.49-1.38,.72-2.11,.99-.78,.29-1.55,.62-2.41,.62-.24,.28-.6,.03-.85,.16-.29,.15-.57,.13-.86,.14-.38,0-.76,0-1.14,0-.37,0-.72-.01-1.09-.13-.33-.11-.72-.09-1.08-.15-.88-.13-1.72-.4-2.52-.73-1.91-.78-3.56-1.98-5.07-3.38-.6-.55-1.08-1.21-1.57-1.86-1.26-1.65-1.48-2.17-2.42-4.1-.08-.17-.2-.33-.44-.43ZM42.11,14.81c.03,.42-.35,.7-.35,1.15,0,.45-.51,.75-.44,1.24,.24,.09,.45,.15,.47,.49,.02,.22,.21,.43,.42,.79v-3.13h.1l.08-.51c-.11-.01-.16-.02-.61,.74-.05-.18-.13-.36-.15-.55-.03-.23,0-.46,0-.68,0-.46-.12-.93-.19-1.38-.07-.45-.19-.92-.33-1.37-.2-.63-.45-1.27-.4-1.97,.49,.19,.5,.71,.58,1.08,.11,.54,.23,1.08,.33,1.62,.07,.36,.18,.7,.17,1.08,0,.25,.13,.5,.2,.76,.11,.05,.23,.1,.35,.16l.09-.24c.43-.07,.84-.15,1.25-.18,.42-.03,.85,0,1.29,0v.28h-1.19l-.69,.46-.43-.31c-.3,.28,.02,.47,.04,.69,.05,.74,.1,1.48,.15,2.22,0,.11,.03,.22,.05,.34,.68-.18,.55-.9,.95-1.25l.2,.82c-.22,.36-.35,.83-.74,1.16-.16,.13-.26,.42-.15,.6,.17,.3,.11,.61,.15,.96,.34-.39,.46-.53,.43-.83-.02-.27,.11-.48,.21-.68,.18-.34,.43-.64,.65-.96h.21v.58l-.33,.26c-.19,.49-.09,1.01-.24,1.51-.15,.49-.55,.83-.65,1.31l.42,.47c1.04-.5,1.39-1.54,2.08-2.35-.39-.63-.69-1.28-1.29-1.78,.11-.31-.2-.45-.32-.62-.43-.61-.75-1.3-1.29-1.83-.02-.02-.02-.07-.04-.17l.51,.2,.22-.28c.52,.22,1,.05,1.49,.13l.23,.33c-.64-.03-1.25-.12-1.93,.01l1.91,2.19c.36-.2,.67-.44,1.02-.56,.43-.15,.46-.62,.77-.83v-.64c-.26-.32-.59-.52-.79-.89l.41-.32-.53-.36,.14-.45-.28-.28-1.38-.27,.07-.24c.48-.09,.84,.4,1.31,.27,0-.09,.03-.17,.01-.18-.2-.16-.4-.32-.64-.5l.6-.14c-.32-.31-.6-.43-.99-.36-.03-.2-.3-.23-.31-.53,.31,.17,.59,.3,.99,.08l-.54-.43,.28-.3v-.74l-.33-.38,.22-.35c-.28-.29-.54-.51-.93-.59-.31-.07-.59-.29-.87-.46-.02-.01-.02-.07-.03-.12h.52l.25,.25,.72,.15v-.35c-.19-.08-.36-.15-.53-.22-.18-.08-.36-.16-.6-.26,.3-.35,.54-.08,.74-.02,.23,.08,.41,.3,.69,.28,.06-.6-.75-.48-.75-1.01l.59,.1c-.04-.23-.13-.35-.24-.46-.07-.07-.15-.12-.31-.26l.89-.1c-.25-.19-.4-.29-.53-.4-.03-.02-.04-.07-.09-.19l.36-.18-.25-.53c-.07-.02-.15-.02-.2-.06-.61-.37-1.26-.58-1.97-.57-.12,0-.23-.04-.35-.07-.51-.13-1.05-.2-1.53,.02-.64,.3-1.39,.44-1.85,1.06-.46,.08-.53,.56-.81,.81-.49-.37-.86-.81-1.31-1.17-.84-.65-1.76-1.17-2.67-1.68-1.08-.61-2.26-1.04-3.45-1.4-.76-.23-1.51-.49-2.32-.46-.05,0-.13,.02-.15,0-.27-.29-.68,0-.92-.17-.35-.23-.68-.1-1.02-.12-.63-.03-1.27,0-1.9,0-.58,0-1.17-.02-1.75,0-.56,.02-1.13,.09-1.69,.15-.09,0-.2,.02-.27,.07-.27,.19-.65-.07-.9,.22-.02,.03-.1,0-.15,0-.29,0-.57,0-.86,.14-.27,.13-.58,.19-.88,.27-.61,.17-1.2,.41-1.79,.63-.65,.24-1.25,.57-1.84,.9-.73,.4-1.44,.85-2.09,1.4-.49,.41-1.01,.75-1.12,1.46-.05,.28-.31,.53-.46,.79-.1,.16-.23,.32-.27,.5-.11,.59-.41,1.1-.57,1.67-.07,.28,.12,.62-.19,.83-.03,.53-.23,1.03-.31,1.55-.1,.71-.12,1.43-.16,2.14-.01,.25,0,.25-.31,.64,0-.71-.04-1.39,.01-2.07,.05-.66,.38-1.3,.27-2h-.23c-.12,.45-.17,.92-.37,1.31-.23,.43-.12,.9-.25,1.34-.13,.45-.12,.97-.27,1.42-.15,.47,.05,.94-.17,1.51l-.07-.58c-.24-.26-.36-.46-.54-.59-.18-.13-.41-.19-.62-.28l-.16,.16c.16,.44,.16,.58,0,.97,.05,.25,.11,.41,.11,.57,0,.81,0,1.63,0,2.44,0,.13,.03,.25,.05,.46l.5-.97c.29-.04,.38-.23,.35-.56l-.33-.26c.16-.54-.38-.95-.25-1.47h.19l.2,.35,.33-.23c-.03,.27,.1,.52-.11,.69l.2,.6,.64-.22,.56-1.33,.1,.02v.72l.11,.03,.39-.81-.1-.07,.53-.43c-.17-.36,.17-.45,.27-.67,.5-1.08,1.26-2,2.04-2.88,1.09-1.22,2.28-2.35,3.67-3.25,.73-.48,2.15-1.21,3.03-1.52,.71-.26,1.41-.55,2.18-.65,.41-.05,.82-.31,1.25-.25,.46,.06,.86-.19,1.31-.17,.54,.03,1.08,.08,1.62,.12,.78,.06,1.55,.17,2.31,.34,.49,.11,.96,.27,1.45,.37,.49,.1,.95,.39,1.41,.62,.63,.32,1.28,.62,1.87,1,.65,.41,1.3,.86,1.86,1.38,1.07,1,2.11,2.05,2.98,3.25,.55,.75,1.06,1.53,1.5,2.35,.5,.93,.92,1.9,1.38,2.85,.04,.09,.1,.16,.16,.25,.08-.45,.35-.77,.48-1.14,.17-.46,.36-.96,1.07-2.1ZM8.7,24.26c.24,.5,.43,.87,.46,1.3,.01,.22-.09,.46,.15,.62-.03,.47,.25,.91,.15,1.38-.05,.23-.18,.44-.16,.7,.05,.74-.24,1.41-.5,2.08-.06,.14-.08,.3-.12,.46l.41,.05c.07,.3,.17,.57,.2,.85,.1,.78,.4,1.51,.62,2.26,.11,.36,.34,.67,.47,1.02,.33,.88,.71,1.74,1.16,2.56,.36,.67,.89,1.25,1.27,1.92,.4,.7,1.04,1.17,1.51,1.8,.11,.14,.24,.27,.38,.37,.13,.09,0,.41,.31,.32,.07,.32,.41,.36,.59,.58,.2,.24,.49,.41,.73,.61,.97,.85,2.15,1.31,3.27,1.86,.41-.06,.69,.28,1.09,.34,.49,.07,.95,.34,1.48,.27,.27,.3,.62,.1,.93,.15,.31,.05,.62,.11,.93,.15,.47,.06,.92-.08,1.38-.14,.43-.06,.87-.07,1.31-.13,.89-.13,1.66-.6,2.53-.7,.29-.26,.77-.15,1-.54,.44,.06,.71-.27,1.02-.47,1.12-.73,2.24-1.48,3.15-2.48,.3-.33,.57-.68,.86-1.01,.62-.69,1.14-1.44,1.59-2.24,.34-.62,.77-1.18,1.02-1.86,.12-.33,.26-.65,.37-.99,.11-.33,.33-.63,.44-.96,.31-.94,.63-1.88,.8-2.87,.11-.62,.26-1.22,.27-1.86,.02-1.38-.16-2.79,.3-4.14,.02-.07,.04-.19,0-.22-.25-.23-.15-.52-.14-.78,0-.28-.13-.52-.15-.78-.04-.66-.2-1.29-.3-1.93-.06-.41-.13-.8-.32-1.17-.19-.37-.16-.78-.28-1.18-.21-.65-.47-1.28-.74-1.9-.75-1.74-1.73-3.34-2.96-4.79-.13-.15-.14-.38-.41-.44-.2-.05-.19-.43-.48-.46-.26-.7-1.04-.88-1.46-1.43-.19-.25-.62-.31-.81-.56-.25-.33-.64-.33-.92-.57-.59-.49-1.3-.79-2.02-.99-.61-.18-1.21-.43-1.86-.48-.17-.27-.49-.05-.68-.2-.25-.21-.53-.07-.8-.09-.38-.03-.76,0-1.08,0l-.38-.19-.14,.63-.29-.41c-.78-.17-1.56,.1-2.35,.12-.06,0-.13,.09-.19,.08-.44-.04-.75,.28-1.13,.4-.94,.3-1.85,.7-2.7,1.19-.29,.17-.53,.44-.82,.6-.83,.45-1.46,1.14-2.16,1.74-.58,.5-1,1.14-1.47,1.74-.89,1.13-1.63,2.34-2.22,3.66-.25,.56-.65,1.09-.72,1.67-.08,.63-.56,1.13-.49,1.79-.42,.93-.52,1.94-.65,2.93-.09,.09-.18,.18-.27,.27v.69l-.07,.07-.14-.37-.05,.07-.39-2.37-.28-.18c-.26,.15-.34,.41-.55,.57-.14,.1-.18,.37-.37,.53-.17,.15-.27,.38-.41,.57,.55-.28,.99-.66,1.32-1.23v1.07c-.06,.01-.13,0-.14,.04-.35,.56-.69,1.12-1.06,1.74,.43,.21,.4,.77,.78,1.08,0,.25,0,.5,0,.75,0,.02,.06,.05,.15,.11v-.64l.62-.23,.6-1.01v-.75Zm32.94,19.86c.42,.1,.81-.43,1.23-.04,.58-.04,1.09,.14,1.57,.45,.08,.05,.24-.03,.42-.05-.69-.53-1.38-.83-2.16-.95,.53-.12,1.01,0,1.47,.24,.21,.11,.44,.22,.7,.15,.04,0,.06-.05,.05-.04l-.11-.47,.41-.29c-.43-.22-.75-.46-1.14-.58-.08-.02-.14-.13-.23-.23,.56-.19,.89,.09,1.19,.36l.25-.19c-.14-.08-.26-.16-.38-.23-.64-.37-1.26-.77-2.04-.78-.21,0-.41-.12-.62-.19,.53-.06,1.06-.07,1.53,.07,.56,.17,1.09,.47,1.62,.71l.2-.2c-.4-.44-.93-.65-1.47-.83-.57-.19-1.14-.35-1.72-.52,.16-.09,.3-.08,.45-.1,.16-.02,.28,.12,.4,.14,.81,.13,1.55,.4,2.28,.77,.1,.05,.25-.03,.42-.06-.2-.49-.61-.71-.96-.82-.63-.2-1.23-.57-1.94-.49-.08,0-.16-.09-.25-.12-.09-.03-.22-.06-.29-.02-.47,.3-.97,.06-1.24,.12l-.42-.18c1.06,0,2.08-.26,3.15,.08l.42-.35-.49-.18,.08-.1h-.66l.06-.08-.3-.13,.88-.24-.28-.3c-.36,0-.74-.02-1.11,0-.35,.03-.7,.11-1.04,.16-.25-.61-.27-1.07-.13-1.86,.08,.11,.16,.2,.22,.31,.19,.38,.49,.58,.91,.62,.04,0,.09-.03,.15-.06l-.13-.16c.08-.14,.13-.37,.24-.4,.39-.13,.47-.53,.73-.75l.18,.15c.14-.32-.01-.58-.1-.79l.19-.37-.31-.11-.07-.39c-.51-.08-.96-.01-1.52,.2-.12,.17-.36,.4-.48,.69-.11,.28-.11,.61-.15,.94l-.25-.25c0-.37-.02-.75,0-1.12,.01-.18,.22-.33,.14-.55,.4-.4,.3-.9,.3-1.37l-.22-.23c-.06,.06-.14,.1-.16,.17-.18,.61-.43,1.19-.67,1.78-.07,.17-.02,.36-.12,.56-.21,.41-.39,.85-.57,1.28-.46,1.12-1.08,2.16-1.77,3.15-.51,.74-1.1,1.43-1.67,2.13-.21,.25-.46,.47-.7,.7-.23,.23-.44,.5-.71,.69-.24,.17-.44,.38-.67,.54-.26,.18-.48,.42-.75,.58-.65,.4-1.24,.88-1.93,1.23-.44,.22-.9,.41-1.35,.59-.48,.19-.97,.35-1.46,.53-.82,.29-1.68,.47-2.52,.51-1.42,.07-2.86,.16-4.28-.12-.18-.04-.36-.11-.55-.15-.19-.03-.41,0-.59-.05-1.27-.44-2.51-.92-3.68-1.61-1.16-.68-2.19-1.51-3.2-2.38-1.05-.91-1.85-2.06-2.69-3.15-.2-.26-.41-.55-.5-.85-.1-.34-.61-.43-.47-.87-.39-.29-.34-.89-.77-1.17l-.87,.74-.22,.52c-.68-.08-1.3,.13-1.9-.19l-.28,.46c.99,.04,1.9-.02,2.81,.1-.48,.07-.95,.09-1.43,.06-.57-.03-1.1,.1-1.63,.4l.14,.48c-.26,.34-.68,.51-1.12,.65-.45,.14-.81,.38-1.02,.94,.22-.04,.36-.04,.49-.09,.22-.09,.41-.27,.63-.3,.3-.05,.55-.37,.89-.19l-1.51,.89,.25,.3,.71-.18c-.17,.29-.48,.39-.49,.71,.78-.05,1.31-.78,2.12-.7v.24c-.75,.12-1.78,.47-1.95,1.09l.46,.07-.52,.46,.2,.2,.71-.11c-.37,.25-.67,.37-.74,.74l.45,.09-.32,.52,.57,.1c-.24,.16-.43,.26-.59,.4-.06,.06-.06,.19-.1,.36,.46-.13,.79-.43,1.26-.31l-.68,.44,.53,.19c-.37,.18-.67,.32-.95,.49-.09,.05-.1,.22-.19,.41,.17-.05,.24-.06,.31-.09,.3-.13,.59-.36,.9-.39,.6-.06,1.22-.06,1.82,.02,.53,.07,1.04,.32,1.5,.59,.47,.28,1,.47,1.42,.8,.78,.62,1.57,1.21,2.4,1.77,.46,.31,.92,.61,1.37,.92,.38-.11,.54,.28,.83,.39,.31,.12,.6,.28,.86,.51,.2,.18,.51,.21,.77,.32,.63,.26,1.3,.4,1.92,.7,.26,.13,.57,.22,.9,.23,.38,0,.77,.09,1.14,.17,.27,.06,.53,.19,.8,.27,.26,.07,.52-.04,.8,.08,.25,.11,.59,.07,.88,.07,.56,0,1.12-.02,1.68,0,.99,.04,1.96-.07,2.92-.31,.23-.06,.47-.1,.7-.15,.26-.05,.52-.09,.77-.16,.32-.09,.62-.24,.94-.29,.86-.13,1.63-.48,2.4-.84,.66-.31,1.36-.54,1.95-.99,.16-.12,.4-.14,.66-.22,.15-.15,.32-.41,.55-.53,.91-.46,1.62-1.2,2.48-1.74,.76-.47,1.49-1.01,2.36-1.29,.18-.06,.35-.15,.53-.18,.22-.03,.46,.01,.68-.01,.19-.02,.41-.19,.54-.13,.31,.15,.65,.05,.93,.15,.39,.14,.85,.25,1.13,.9-.76-.54-1.53-.34-2.17-.59-.18,.05-.34,.1-.5,.12-.17,.02-.36,0-.52,.03-.46,.11-1.47,.71-1.84,1.07-.08,.08-.15,.19-.2,.3-.19,.44-.2,.88-.1,1.43,.44-1.3,.3-1.45,1.66-2.17l1.29-.15c.28,.25,.68,.04,1.07,.13l.82,.53c.34,.6,.25,1.03,.02,1.48-.33,0-.48,.58-.98,.33,.35-.27,.76-.43,.94-.84l-.21-.85c-.56-.37-1.17-.42-1.78-.5q0,1.05-.3,1.51v-1.3l-.39-.19c-.48,.19-1.08,.26-1.35,.74-.25,.42-.61,.89-.21,1.48l-.41,.29,1.24,.82c.16,0,.22,.02,.26,0,.06-.03,.11-.1,.19-.16,1.31,.11,2.59-.11,3.76-.7l.4-.78v-1.46l-.63-.69,.16-.26c-.71-.76-1.71-.82-2.61-1.12-.37,.39-.67-.08-1.02-.13l.9-.24-.38-.22,.3-.32,.85,.21-.02,.19-.42,.1c.45,.06,.89,.21,1.29-.09l.65,.33,.03-.22c-.65-.31-1.25-.69-2-.72l.05-.24c.34-.06,.64,0,.95,.12,.3,.11,.64,.13,1.08,.21-.47-.44-2.03-.89-3.25-1.07ZM3.77,14.24c.47-.57,1.09-.16,1.53-.46,.42,.26,.88,.1,1.32,.11,.28,0,.56,.03,.76,.18,.24,.17,.45,.15,.68,.1,.09-.63,.16-1.25,.33-1.86,.12-.41,.26-.82,.3-1.24,.06-.73,.34-1.4,.59-2.04,.46-1.19,1.06-2.33,1.84-3.27v-.53c-.3-.23-.59-.45-.88-.68-.59-.47-1.32-.65-2.01-.82-.69-.17-1.42,0-2.11,.2-.29,.08-.62,.13-.87,.28-.35,.21-.66,.51-1,.78l.42,.22c.49-.41,.96-.58,1.45-.5-.54,.49-1.4,.42-1.87,1.13l.65,.24-.49,.32,.07,.4c.63-.35,1.21-.66,1.91-.58-.66,.3-1.3,.63-1.96,.95v.29l.36,.38-.47,.47c.12-.02,.27-.03,.4-.08,.2-.07,.38-.19,.58-.26,.45-.16,.9-.38,1.4-.19-.75,0-1.28,.65-2.05,.67l-.43,.5,.46,.35-.54,.46,.22,.2q.52-.3,.99-.19c-.36,.03-.59,.4-1,.37-.07,0-.33,.17-.15,.46l1.42-.36c-.56,.51-1.1,.63-1.63,.68v.46c.36-.15,.69-.27,1.01-.14-.28,.34-.67,.25-1,.27l-.24,.36,.38,.18-.58,.39-.26,1.43-.28,.13,.21,.6c-.38,.22-.52,.6-.82,.81,.19,.94,.91,1.32,1.56,1.75q.39-.17,.43-.55c-.43-.25-.92-.43-.9-1.01l.66-.69c.51-.07,.97-.17,1.43-.18,.29,0,.51-.11,.76-.2,.03-.01,.03-.08,.08-.21l-.32-.14c-.29-.07-.7-.19-.98-.05-.46,.23-.87,.04-1.37,.16Zm5.33,5.65c.09-.27,.14-.45,.21-.62,.33-.83,.63-1.67,1-2.48,.52-1.15,1.16-2.23,1.9-3.25,.42-.57,.85-1.15,1.34-1.65,.68-.7,1.41-1.35,2.14-2,.25-.22,.56-.36,.83-.57,.68-.54,1.46-.87,2.24-1.22,.51-.23,1.05-.41,1.57-.63,.54-.23,1.11-.27,1.65-.41,.64-.16,1.32-.14,1.99-.18,.92-.06,1.84,.05,2.75,.15,.07,0,.15,0,.22,.03,.47,.14,.95,.28,1.42,.43,.47,.15,.96,.27,1.41,.47,.45,.2,.9,.41,1.33,.65,1.35,.75,2.57,1.66,3.66,2.75,.16,.16,.22,.38,.46,.5,.21,.11,.33,.41,.5,.61,.25,.31,.52,.59,.75,.91,.67,.93,1.28,1.9,1.79,2.91,.66,1.3,1.14,2.68,1.55,4.08,.09,.29,.13,.56,.14,.86,0,.04,.05,.08,.08,.13l.25-.05c-.31-.56-.15-1.13-.18-1.69,.4-.4,.04-.79-.08-1.14-.22-.62-.53-1.2-.69-1.85-.04-.16-.11-.33-.21-.44-.21-.22-.3-.49-.43-.74-.23-.44-.45-.89-.73-1.3-.53-.78-1.04-1.57-1.65-2.28-.47-.55-.97-1.08-1.51-1.58-.76-.7-1.58-1.32-2.41-1.93-.66-.48-1.46-.68-2.11-1.18-.37,.05-.59-.3-.93-.32-.34-.02-.63-.2-.94-.29-.32-.09-.64-.27-1-.17-.28-.3-.69-.02-.98-.2-.36-.22-.74-.1-1.1-.09-1.07,.03-2.15-.12-3.22,.12-.35,.08-.7,.14-1.05,.24-.36,.11-.72,.27-1.06,.36-.56,.15-1.07,.37-1.58,.6-.9,.4-1.75,.88-2.48,1.56-.93,.32-1.33,1.3-2.18,1.73-.46,.78-1.19,1.34-1.69,2.11-.49,.76-1.07,1.48-1.48,2.29-.5,.98-1.02,1.96-1.35,3.02-.13,.43-.26,.86-.37,1.25l.25,.47Zm-4,13.97c-.34,0-.7,0-1.05,0-.13,.13-.25,.25-.38,.38l.15,.16c-.31,.66-.03,1.18,.41,1.75l.51-.18c.17,.13,.3,.23,.44,.33,.14,.1,.29,.19,.42,.27l.2-.2-.31-.14,.93-.74-.35-.38c.28-.51,.75-.68,1.26-.96h.92c-.06-.71-.26-1.34-.51-1.93-.61,.22-.9,.75-1.22,1.01l-.45,1.39-.97-.76Zm39.51-10.17l.38-.29-.23-.46,.29-.06,.12,.33c.49-.51,.72-1.22,1.38-1.59,.23,.37-.13,.62-.11,.92-.42,.35-.46,.94-.84,1.33-.12,.12-.38,.42-.04,.73,.26-.3,.62-.46,.87-.8,.22-.31,.22-.69,.39-.98,.19-.33,.14-.64,.09-.93-.03-.14-.1-.31-.12-.48-.05-.66-.26-1.27-.55-1.96-.18,.93-.53,1.64-1.19,2.2-.32,.28-.6,.6-.84,.84l.39,1.2ZM7.01,36.56c.46,.4,1.12,.31,1.47,.83l.71-.56c.24-.74,.03-1.33-.45-1.89-.39,.09-.66-.44-1.11-.31-.39,.11-.77,.24-1.07,.54l.31,.14v.17l-.27,.13,.18,1.16,.23-.21Zm-3.21-12.45l.07-.12-.65-.52-.02-.39-.19-.04c-.1-.2-.2-.39-.3-.57-.1-.18-.19-.37-.32-.62l.48-.02c.24,.3,.5,.64,.77,.95,.28,.33,.65,.56,1.14,.8l-.2-1.06,.25,.22,.23-.24c-.25-.15-.43-.37-.66-.55-.49-.39-1.02-.79-1.21-1.46-.06-.22-.13-.44-.2-.67-.48,.43-.82,1.44-.66,3.18,.14,.18,.36,.36,.41,.57,.07,.29,.3,.37,.45,.59l.23-.18,.38,.12Zm43.55,3.66l-.82,1.67c-.19,0-.34,.15-.33,.36,0,.22-.16,.3-.26,.43-.02,.02,0,.07-.01,.1l.17,.17c.79,.01,.91-.04,1.91-.91l.39,.19c.45-.84,.41-1.72,.38-2.62-.69,.59-.71,.6-1.42,.61Zm-.7,8.38v-1.03l.35-.28-.17-.31,.08-.1-.26-.33c-.44-.19-.65,.06-.92,.15-.29,.1-.58,.18-.87,.27l.08,.08-.35,.19-.24,.96,.57,.53,.33,.06-.17,.44,1.12-.24-.03-.21-.4-.1,.02-.09h.87Zm-5.49-18.24c-.53,.67-.54,1.35-.35,2.07l-.1,.12c.27,.21,.62,.37,.79,.64,.3,.5,.73,.83,1.19,1.15,.08,.05,.2,.05,.29,.07l-.64-2.57c-.64-.47-1.02-1.15-1.15-1.99l-.03,.5ZM3.03,19.38c.65,1.15,.99,1.66,2.28,2.24l.19-.6c-.48-.59-.78-1.25-.77-1.96l-.57-1.08c-.46,.38-.71,.94-1.12,1.39Zm3.03,2.6c.2,0,.35,.05,.43,0,.32-.23,.71-.44,.89-.76,.2-.35,.54-.46,.78-.72,.1-.11,.28-.16,.44-.24l-.23-1.44-.54-.94v.74c-.2,.27-.38,.45-.47,.67-.12,.3-.4,.23-.64,.32,.18,.88-.27,1.58-.64,2.39Zm-.95-4.57l.23-.51c.4,.35,.31,.98,1.05,1.2-.4-.58,.32-1.03-.11-1.54,.09-.19,.24-1.2,.22-1.59l-2.05,2.56v.44c.47,.28,.82,.78,.9,1.28,.06,.34,.14,.66,.55,.79l.15-.95c-.29-.52-.9-.9-.95-1.68Zm35.22,8.91c-.09,.46-.17,.81-.23,1.16-.07,.37,.12,.7,.17,.87,.3,.3,.52,.44,.64,.74,.1,.25,.35,.44,.55,.67l.3-.04-.18-1.17-.27-.06c.33-.3,.11-.65,.2-1l-.77-.4c0-.29-.07-.54-.39-.78Zm-32.39,1.62c-.21,.26-.16,.57-.11,1l.61-.92,.59-.26c-.09-.43,.04-.82-.1-1.22-.12-.37-.09-.79-.13-1.24-.22,.29,.01,.59-.2,.84-.18,.21-.29,.48-.38,.63l-.62,.3,.33,.87Zm-.62,.2c-.33-.25-.4-.62-.44-.97-.04-.46-.26-.9-.16-1.38-.25-.12,.03-.57-.33-.6l-.59,1.15s-.03,.12,0,.15c.31,.26,.42,.64,.6,.98,.16,.31,.25,.66,.47,.95,.09,.12,.2,.21,.3,.32,.03,.03,.06,.07,.14,.19v-.76Zm38.18,2.98l-.6,.86,.5,.11-.2,.31-.36-.18-.02,.3c.99,0,1.66-.81,2.55-.96l.17-.38c-.5-.14-.91,0-1.23,.52l-.15-.36-.65-.21Zm-3.36,20.43l-.08,.13c.15,.06,.29,.17,.44,.17,.83,.03,1.63-.11,2.4-.44,.75-.31,.84-.33,1.13-.87,.07-.13,.15-.24,.23-.36,.02-.03,.03-.07,.04-.1h-.08l.05-.48-.16-.16c-.08,.14-.19,.27-.23,.41-.04,.14,0,.29,0,.43-.2,.12-.19,.12-.31,.27-.54,.64-1.26,.94-2.08,1.01-.45,.04-.91,0-1.36,0ZM4.16,15.33c-.03,.09-.05,.16-.08,.22-.04,.08-.08,.16-.1,.2l1.02,.69c0-.24,.37-.26,.38-.58,.01-.24,.27-.46,.47-.77-.61,.07-1.16-.11-1.69,.23Zm36.13,13.67c-.17,.47,.27,.87,.06,1.41l.49-.18,.03,.4,.74,.63,.03,.32,.26-.03v-.79c-.17-.36-.47-.19-.7-.27l-.92-1.48Zm3.49,2.82l-.08-.64-.15,.37c-.04-.35-.2-.69,.05-1.02,.07-.09,.06-.35-.02-.43-.2-.2-.1-.43-.12-.64-.02-.27-.02-.54-.03-.81-.37,1.12-.39,2.24-.06,3.43l.41-.28ZM7.33,29.76c0,.22,.02,.37,0,.52-.02,.12-.1,.23-.15,.34,.43-.31,.73-.77,1.16-.99,.51-.27,.4-.68,.56-1.12l-.34,.06v.28l-.91,.91h-.31Zm-3.85,.49l-.49,.14-.41,.59,1.38,.42c.09-.52-.47-.75-.49-1.16Zm.05,10.28c.26,.02,.43,.08,.49,.03,.35-.34,.84-.44,1.22-.72,.07-.05,.1-.15,.11-.17l-.18-.31c-.58,.31-1.14,.55-1.64,1.17ZM1.27,30.14l.53,.73c.32-.2,.73-.1,.98-.5-.56,.03-.85-.39-1.26-.56-.03-.01-.07-.01-.1-.02l-.15,.35Zm7.18-11.95l.15-.02,.63-1.43c-.45,.17-.62,.56-1.06,.57l.28,.89Z"/><path class="d" d="M33.12,26.86c.06,0,.16,0,.3,.02l-.21,.57c.14,0,.23,.03,.27,0,.35-.31,.65-.66,.83-1.1,.04-.09,.13-.15,.25-.28l.06,.54c-.19,.27-.54,.38-.47,.76-.11,.25-.47,.31-.46,.72l.91-.42c-.03,.09-.05,.19-.1,.28-.11,.2-.06,.37,.07,.5-.28,.72-.41,1.5-1.05,2.02-.54,.44-1.11,.89-1.76,1.09-.51,.16-1.02,.53-1.56,.31-.48,.19-.78,.48-.94,.92-.03,.07-.12,.11-.17,.18-.1,.12-.28,.27-.27,.38,.06,.62-.44,1.23-.03,1.86,.09,.14,.01,.39,.01,.57-.29,.22-.29,.22-.68,.21-.34-.23-.28-.49-.05-.76l-.16-.21c.05-.23,.11-.44,.13-.65,.03-.25,0-.51,.04-.75,.04-.2,.15-.39,.25-.61-.54-.58-1.19-1.07-1.88-1.4l-1.02,.19c.05,.09,.07,.2,.13,.24,.36,.23,.74,.43,1.09,.67,.2,.14,.42,.3,.33,.62-.27,.26-.61,.24-.96,.24-.58,0-1.17,0-1.75,0-.3,0-.65,.08-.89-.05-.32-.17-.64-.01-.94-.13-.26-.11-.53-.18-.8-.27-.07-.02-.15,0-.28,0v2.4l-1.25,.11-.27-.12c-.04-.35,0-.69,.11-1.05,.1-.35,.02-.75,.02-1.1-.23-.37-.59-.3-.84-.22-.49,.16-.99,.21-1.48,.27-.58,.06-1.17,.04-1.75,0-.51-.03-1.01-.13-1.55-.2v-.42c.41-.28,.88-.58,1.33-.9,.47-.33,.98-.63,1.4-1.02,.35-.32,.62-.75,.96-1.18-.62-.22-1.34,.15-1.85-.43,.04-.38,.41-.56,.66-.7,1.51-.8,1.65-.87,2.51-1.82l-.05-.42-.52,.37c-1.33,0-2.72,0-4.11,0-.05,0-.11-.1-.16-.15,.2-.36,.05-.76,.12-1.13l.19-.19h1.38c.21-.32,.3-.65,.23-1.01l.3-.26v-.54l-1.06-.76c.22-.6,.63-1.11,1.04-1.6,.28-.34,.59-.66,.94-1.04,.52-.12,.8,.45,1.33,.64l1.58-.88v-.25l-.58-.76c.12-.38,.43-.24,.67-.29,.09-.09,.18-.18,.24-.24,.46-.09,.95-.07,1.3-.27,.37-.22,.8-.16,1.17-.41,.35,.31,.32,.82,.63,1.21h2.01c.04-.12,.06-.29,.14-.43,.08-.15,.2-.27,.34-.46,1.14-.04,2.1,.75,3.34,.96-.36,.36-.4,.85-1.07,1,.79,.29,1.37,.6,1.85,1.15l1.14-.57,1.95,2.74-1.08,.71c-.02,.53,.11,.99,.55,1.34,.33-.23,.62,.1,.95-.02v1.02c-.35,.21-.8,.29-1.01,.68-.23,.02-.43,.02-.69,.02,.07,.32,.19,.59,.18,.87,0,.26-.15,.51-.24,.78,.31,.01,.4-.26,.6-.42l-.21-.87c.12-.09,.23-.19,.36-.38Zm-7.21-1.38c.37,.31,.52,.7,.93,.85,.36,.13,.65,.42,1.06,.46v-.26c-.38-.46-.79-.87-1.1-1.34-.2-.31-.55-.62-.36-1.12l1.13,1.21v-.53c-.31-.23-.66-.51-.9-.93l.06-.48c.22,.19,.39,.34,.57,.49,.07,.06,.15,.1,.29,.2v-.91l.32-.12-.04-.47-.25,.45c-.28-.32-.39-.61-.29-.97,.1,0,.18-.03,.24-.01,.67,.23,1.02,.9,1.62,1.23,.23,.13,.38,.43,.55,.67,.5,.72,.89,1.5,1.09,2.34h2.68l.23-.31-.31-.32h-.88c-.3-.68-.64-1.31-.52-2l.93-.6c-.49-.62-.83-1.3-1.39-1.86l-.92,.54c-.41-.33-.77-.67-1.18-.94-.4-.27-.9-.38-1.34-.72,.29-.32,.59-.59,.52-1.06-.67,0-1.19-.62-1.89-.47l-.58,1.1c-.39-.27-.8-.19-1.19-.2-.43,0-.86,0-1.34,0l-.51-1.08c-.81,.02-1.53,.29-2.25,.51v.36l.28,.1,.23,.7c-.8,.33-1.54,.66-2.11,1.24-.38,.03-.69-.08-.95-.33-.12-.12-.26-.21-.39-.32-.57,.61-1.23,1.08-1.54,1.9l1.11,.92c-.32,.68-.6,1.33-.61,1.9l-.35,.52h-1.09l-.36,.18,.21,.26h3.07c.08-.08,.21-.15,.21-.22,0-.42,.2-.78,.32-1.17,.34-1.08,1.28-2.49,2.21-3,.81-.44,1.65-.87,2.64-.8,.4,.03,.81,0,1.22,0,.15,0,.3,0,.44,.04,.52,.15,1.04,.32,1.56,.48,0,.1,.03,.21,0,.3-.03,.09-.13,.15-.19,.22-.37-.15-.73-.31-1.1-.43-.25-.08-.51-.13-.77-.15-.28-.03-.56,0-.84,0-1.06-.05-1.97,.34-2.82,.93-.18,.12-.4,.22-.52,.38-.48,.62-.97,1.23-1.27,1.99-.1,.25-.11,.43-.06,.68,.62-.5,.98-1.12,1.18-1.84,.08-.29,.37-.41,.57-.26,.09,.07,.16,.19,.19,.3,.17,.81,.58,1.48,1.21,2.01,.14,.12,.24,.28,.37,.43-.32,.24-.78-.1-.96,.43,.33,.12,.64,.3,1.02,.29,.49-.01,.93,.18,1.38,.35,.13,.05,.26,.1,.49,.18,.2,.18,.43,.52,.9,.54-.1-.62-.25-1.21-.27-1.79-.02-.6-.2-1.25,.28-1.78,0-.64,.38-1.1,.74-1.77,.03,.67-.32,1.05-.42,1.48-.11,.49-.13,1.01-.18,1.43Zm-3.08,2.26l-.34-.69c-.13,.08-.27-.35-.44-.05-.11-.17-.36-.08-.45-.17-.18-.17-.37-.12-.56-.13-.19,0-.39,0-.65,0l.25-.28-.47-.04v.5c.39,.59,.86,1.05,1.09,1.73,.12,.36,.28,.78,.61,.94,.28-.03,.53-.13,.68-.06,.43,.22,.8,.06,1.19-.06,.02,0,.03-.07,.05-.12-.19-.11-.37-.22-.56-.33-.65,.05-1.23-.18-1.79-.46-.03-.01-.03-.07-.05-.1l.22-.2,1.7,.51c-.56-.6-1.38-.48-1.69-1.11-.08,0-.13,0-.18,0-.07,0-.14-.02-.22-.04l.02-.28c.59-.03,.93,.56,1.47,.57l.13-.13Zm5.7-1.28l-.19,.57c.51-.24,.47-.85,.96-1.03v-.49l.31-.1c-.12-.29-.2-.56-.34-.8-.14-.24-.35-.43-.57-.71v.82l-.63,.62,.2,1.03,.26,.09Zm-.47,3.97c-.19-.1-.31-.16-.44-.23-.1-.06-.19-.14-.3-.19-.11-.06-.14-.25-.35-.22l.22,1.75,.77,.77h.35c.19-.23-.07-.38-.03-.6,.05-.21-.03-.44-.08-.66-.04-.21-.1-.41-.15-.62Zm-4.99-3.3l.38,1.13c.06,.06,.24,.23,.42,.42,.15,.16,.44,.17,.45,.46l.39-.02c-.06-.28-.07-.53-.16-.74-.11-.25-.26-.47,.03-.72l-1.5-.53Zm9.19,.03c-.38-.16-.56,.41-.95,.35-.09-.01-.21,.2-.32,.31,0,0,0,.03,0,.05l.21,.21,.29,1.32,.4-.33v-.77l.27-.27,.11-.86Zm-4.37,1.31v-.81c-.34-.33-.57-.46-1.02-.57l-.07-.25h-.31l-.31-.45-.09,.04,.1,.78,1.7,1.26Zm3.08,1.34l-.21-1.9c-.36,.29-.68,.65-.53,1.09,.1,.29,.08,.57,.13,.85,.02,.13,.13,.24,.2,.36l.41-.4Zm3.3-1.45l-1.09,.38-.47,.46,.31,.4,.84-.09,.22-.82,.24-.05-.05-.27Zm-9.6,2.01l.07-.19-.48-.32c-.39,.28-.75,.22-1.03,.06l-.84,.18,.07,.24h.27c.29,.12,.36,.47,.71,.46l.05-.23-.32-.15v-.2l1.48,.15Zm.9-1.85c-.15-.27-.43-.5-.83-.58,.4,.39,.47,.91,.6,1.39l-.32,.33c.09,.09,.17,.2,.27,.27,.1,.07,.14,.26,.26,.23,.26-.54-.17-1.06,.01-1.64Zm6.12-1.81h-1.16v.79l1.19-.59-.03-.2Zm-2.68,4.52l-.11-.7-.38,.37,.24,1.19,.51-.48v-.31l-.25-.06Z"/><path class="d" d="M24,8.48l.15-.48c.1-.02,.26-.03,.38-.1,.1-.06,.15-.19,.22-.29l.36,.36,.09-.27,1.02,.32v1.88c.68,.14,1.35-.13,1.95,.23l.15,.53-.13,.19,.13,.21-.16,.95-.48,.24c-.47-.36-.95-.12-1.45,.02v4.13l-.42,.42-1.58-.13c-.34-.29,.14-.56-.17-.79l.14-.24c-.17-.78-.19-1.5,0-2.29-.23-.19-.14-.45,.04-.69l-.22-.43c-.21-.03-.47,0-.68-.1-.23-.1-.41-.08-.63-.02-.23,.07-.47,.08-.72,.13l-.15-1.71,.6-.6h1.39l.24-.24c-.04-.37,.09-.81-.1-1.23Zm1.95,7.76v-4.32h1.77c.36-.46,.09-.98,.19-1.42l-.26-.28h-1.84c.22-.65,.05-1.29,.12-1.9-.42-.18-.79-.35-1.18-.08l-.13-.13-.23,.28v1.84h-1.88l-.26,.26c.12,.46-.19,.99,.21,1.44,.54,0,1.07,0,1.6,0,.22,0,.38,.04,.46,.25-.33,.3-.06,.58,.03,.86l-.18,.24c.06,.12,.15,.22,.16,.33,.02,.23,0,.46,0,.68,0,.2,.08,.52-.02,.59-.29,.19,.03,.39-.06,.55-.21,.4-.02,.74,.16,1.06h1.07l.25-.25Z"/><path class="d" d="M32.63,49.41l-.35,.45h-.49l-.93-.95c-.18,.55,.1,.9,.45,1.23-.37,.44-.94,.36-1.33,.63-.43,.3-.98,.16-1.4,.45-.07-.07-.14-.14-.21-.21l.1-.11c-.11-.78-.31-1.55-.25-2.36l-.31-.21v-.26c.58-.11,1.1-.48,1.7-.35,.17-.12,.3-.28,.45-.3,.47-.07,.76-.66,1.38-.41l.31,.81-.38,.6,.72,.97h.55Zm-2.11,1.08c-.12-.87-.3-1.67-.56-2.49l-.41,.2c-.34-.36-.6-.06-.88,.07v.76l.22,.22h.31l.5-.61c.02,.47,.06,.76-.07,1.22l-.26-.47-.55,.37,.19,.82,.35,.17,.48-.31,.1-.44h.13c.06,.15,.11,.3,.17,.46l.26,.02Zm.77-2.45q-.37-.61-.81-.52l.24,.97h.33c.02-.06,.03-.13,.06-.19,.04-.08,.1-.16,.18-.27Z"/><path class="d" d="M18.15,50.38l-.99-.48c.16-.14,.3-.21,.38-.33,.08-.14,.12-.31,.16-.47,.04-.16,.03-.32,.09-.5,.14-.41,.17-.84,.24-1.24l-.28-.28-.44,.32c0-.08,.11-.62,.17-.77,.57,.38,1.24,.54,1.9,.89l-.08,.48s.09,.04,.15,.02c.22-.07,.44-.17,.7-.27l.79,.2c.11,.14,.29,.34,.43,.57,.13,.22,.21,.47,.31,.71-.05,.13-.13,.25-.14,.39-.07,.83-.1,.89-.8,1.41-.08,.06-.12,.16-.16,.22l-1.05-.4-.43-.83c-.01-.57-.08-1.21,.29-1.8l-.21-.07-.27-.62c-.31,.06-.39,.21-.44,.46-.08,.37-.18,.74-.27,1.1-.1,.37-.02,.79-.02,1.27Zm1.88,.37h.51l.35-.35c0-.12,0-.24,0-.37-.01-.16,.05-.27,.14-.4,.1-.16,0-.88-.15-1.13-.12-.19-.34-.31-.55-.5l-.63,.63c-.1,.45,.1,.84-.18,1.17,.23,.15,.11,.4,.15,.61l.35,.35Z"/><path class="d" d="M34.04,45.33l.32-.32h.43c.26,.19,.51,.5,.81,.57,.34,.08,.39,.55,.85,.46l-.48-1.41-.49-.31,.79-.56-.13,.53c.3,.31,.2,.84,.42,1.27,.21,.41,.35,.88,.32,1.39-.34,.1-.56-.09-.8-.24-.3-.19-.59-.4-.9-.58-.1-.06-.23-.05-.4-.08l.49,1.51,.32,.15-.42,.41c-.25-.84-.47-1.61-.73-2.36-.05-.15-.25-.26-.4-.41Z"/><path class="d" d="M24.09,51.08v.61c-.54,0-1.09,0-1.73,0,.27-.48,.18-.94,.2-1.4,.01-.29-.07-.58,.13-.86,.07-.1-.04-.32-.07-.49-.02-.13-.05-.27-.09-.43h1.48l.21,.21v.53h-.22l-.27-.43h-.56v.83q.26,.18,.57,.14l.08-.23,.07,.02v1.14l-.36-.53h-.35v1.19h.48l.41-.3Z"/><path class="d" d="M13.81,44.5c-.43,.07-.61,.25-.7,.63-.21,.83-.45,1.18-1.01,1.69h-.36c-.06-.08-.18-.25-.31-.4-.13-.15-.28-.29-.38-.39-.27-.89,.25-1.59,.42-2.35,.25-.16,.09-.42,.18-.68l.75,.51-.46,.46c-.08,.64-.62,1.16-.46,1.87l.52,.51h.34l.8-2.02-.13-.22c.44-.2,.54,.2,.82,.38Z"/><path class="d" d="M38.02,45.64l.68-.41,.07-.71,.32,.7-1.69,1.31-.18-.32c.24-.9,.34-1.88,.25-2.93-.42,.15-.59,.41-.62,.79h-.24v-.56c.44-.32,.84-.77,1.49-.98,.03,1.07-.31,2.06-.09,3.13Z"/><path class="d" d="M15.41,45.6c-.13,.1-.27,.19-.4,.29-.14-.32-.29-.64-.73-.59-.16,.27-.33,.53-.19,.94l.52,.19v.61c-.13-.1-.21-.15-.27-.21-.11-.11-.21-.23-.35-.39l-.46,.97c.22,.4,.56,.41,.92,.4v.64l-1.56-.99,.37-.66c-.01-.22,.03-.54,.18-.86,.21-.44,.32-.91,.28-1.41,.6,.15,1.02,.64,1.57,.89,.05,.02,.07,.12,.11,.18Z"/><path class="d" d="M24.24,49.26q.27-.24,.35-.6l1.07-.19,.23,.23v.69l-.17,.02c-.27-.71-.36-.76-.85-.4v.56l.59,.22,.58,.58c.04,.89-.07,1.07-.96,1.49-.13-.05-.28-.14-.44-.16-.27-.03-.41-.14-.41-.42,0-.07-.09-.13-.14-.2l.41-.46c.02,.5,.18,.78,.49,.91,.35,.06,.43-.24,.62-.37v-.5c-.37-.3-1-.24-1.22-.78,0-.13,.02-.27,0-.39-.02-.09-.1-.16-.15-.24Z"/><path class="d" d="M14.05,8.69v-.52l-.53-.98c-.03,.45-.22,.87,.03,1.31,.12,.21,.02,.53,.02,.81-.59-.12-.78-.75-1.33-.92,.12,.56,.32,1.03,.85,1.41l-.58,.34c.06,.06,0,.03,0,0,0-.2,0-.4-.08-.58-.13-.33-.26-.65-.38-.98-.15-.42-.17-.45-.65-.75,.09-.12,.18-.23,.28-.33,.08-.09,.18-.18,.24-.24l.83,.83h.52c.05-.74-.34-1.46-.06-2.29l.41-.34,.1,.07-.11,.46,.81,1.8,.19,.05c.25,.57-.49,.48-.56,.85Z"/><path class="d" d="M40.78,14.79c0-.56-.22-1.09-.27-1.65-.04-.53-.02-1.09-.14-1.61-.11-.45-.09-.87-.16-1.3-.41-1.32-.94-2.6-1.52-3.86l.26-.24c.2,.29,.5,.47,.69,.81,.37,.66,.67,1.35,1.05,2.06-.05,.44-.11,.93-.16,1.43-.06,.7,.27,1.36,.15,2.07,.32,.75,.07,1.52,.08,2.29Z"/><path class="d" d="M36.25,9.18l-1.22-.9,.49-.56c-.04-.6,.24-1.14,.45-1.71l-.21-.71,1.75,1.44c0,.29-.03,.64,0,.99,.05,.42-.16,.76-.34,1.08-.18,.33-.57,.44-.92,.38Zm.78-1.16v-1.43l-.69-.33c-.07,.82-.63,1.47-.48,2.26l.18,.18h.66l.34-.67Z"/><path class="d" d="M31.45,3.22l-.37-.39c.09-.02,.17-.07,.22-.04,.47,.21,.93,.44,1.45,.68l.46,1.09-.33,1.22-.61,.51c-.47,.19-.92-.28-1.47-.36,.09-.46,.08-.98,.31-1.36,.26-.44-.1-.96,.32-1.36Zm.33,.33l-.38,2.17c.18,.33,.45,.26,.7,.26l.32-.32c.08-.33,.18-.58,.21-.84,.03-.3,0-.61,0-.91l-.12,.12-.51-.67-.21,.18Z"/><path class="d" d="M16.46,3.77l.47-.24c.16,.1,.47,.19,.53,.36,.09,.26,.3,.32,.46,.39,.23,.1,.09,.55,.49,.46,.16-.62-.23-1.16-.29-1.8l.44-.02c.11,.54,.02,1.05,.15,1.57,.12,.46,.13,.94,.4,1.43l-.43,.06-1.47-1.47-.1,.08,.29,1.48,.35,.37-.62,.32c-.03-.1-.09-.2-.07-.23,.19-.27,.15-.49,.03-.81-.11-.3-.23-.62-.21-.99,.02-.35-.09-.72-.45-.99Z"/><path class="d" d="M14.58,5.53l-.44-.29,.77-.63c.08,.83,.19,1.64,.55,2.42h.5l.38-.78-.51-1.75-.26-.09c-.02-.27,.12-.36,.6-.37-.06,.09-.1,.16-.15,.22,.14,.7,.51,1.34,.46,2.09-.04,.77-.29,1.1-1.13,1.32-.65-.54-.57-1.36-.77-2.14Z"/><path class="d" d="M22.25,1.89c-.04,.11-.11,.23-.13,.37-.02,.11,0,.24,0,.44l-.35-.53h-.49l-.37,.38c-.11,1.39-.1,1.32,.34,2.04,.31,.02,.64,.08,1.01-.12-.03,.09-.03,.21-.09,.28-.05,.07-.17,.08-.25,.13-.06,.04-.11,.1-.18,.17h-.64l-.63-.63c-.07-.33-.18-.63-.18-.94,0-.31,.09-.61,.14-.93l.68-.66h1.13Z"/><path class="d" d="M29.39,5.22c-.27,0-.57,.03-.87,0-.25-.03-.5-.13-.78-.2,.2-1.01,.56-2.02,.16-3.07,.36-.25,.6,.21,1.06,.04l-.43,.61c-.08,.63,.13,1.36-.21,2.08l.43,.26c.27,.05,.5-.27,.82-.65l-.16,.94Z"/><path class="d" d="M29.41,5.28l.47-.24c0-.31-.01-.59,0-.86,.02-.36-.04-.72,.12-1.08,.1-.22-.05-.55-.1-.87,.12,.03,.25,.07,.39,.1,.16,.04,.31,.08,.51,.25-.15,.04-.29,.08-.28,.08-.11,1.05-.4,1.91-.03,2.82-.42,.13-.77,.04-1.1-.19Z"/><path class="d" d="M19.82,4.68l.48,.48-.73,.42c-.08-.5-.14-.93-.21-1.35-.06-.41-.13-.81-.21-1.25l-.35-.2c-.04-.11,.55-.42,.86-.45l-.08,.64c.12,.48,.3,1.08,.23,1.71Z"/><path class="d" d="M23.79,36.69s2.62-.31,4.35-.7,1.99-1.44,3-1.47c1-.02,1.45,.63,1.45,.63,0,0-.84,1.3-2.25,2.06-1.41,.75-3.35,1.82-5.75,1.91-2.4,.09-6.24,2.26-11.05,1.96-2.58-3.43-3.49-6.43-3.49-6.43,0,0,.33-.51,1.73-.45,1.4,.06,3.41,1.82,5.16,1.57,1.75-.26,5.08-.51,6.05-.26,.97,.26,1.39,1.5-.28,1.8-1.66,.3-3.27,.9-4.37,.9s-3.17-.2-3.84-.6"/><g><line class="d" x1="21.66" y1="10.18" x2="13" y2="24.61"/><line class="d" x1="22.3" y1="12.69" x2="20" y2="18.75"/><line class="d" x1="23.77" y1="12.69" x2="22.25" y2="17.11"/><line class="d" x1="26.97" y1="13.29" x2="28.38" y2="17.4"/><line class="d" x1="28.51" y1="12.69" x2="30.82" y2="19.46"/><line class="d" x1="28.64" y1="10.18" x2="35.26" y2="24.85"/></g><path class="d" d="M22.3,1.7l.83-.27,.19,.23-.35,.19c.08,.48,.17,.86,.2,1.24,.03,.38,0,.76,0,1.14q.37,.29,.75,.02V1.93l-.29-.29,.21-.22,.15,.12,.75-.17,.56,.6v.74l-.58,.55h-.37l.16,1.46c-.35,.15-.68-.13-.98-.08-.31,.05-.6,.14-.94,.11,.04-.29,.12-.56,.11-.84,0-.31,.07-.61-.12-.94-.13-.23-.03-.59-.12-.81l-.17-.45Zm2.01,.19l.03,1.04s.26,.06,.44-.19,.07-.69,.07-.69c0,0-.19-.43-.54-.16Z"/><path class="d" d="M26.77,4.15l-.16-.3c-.09-.09-.4,0-.72,.29l.21,.59-.68,.03c.14-.35,.24-.64,.35-.91,.22-.55,.33-1.13,.45-1.71,.04-.22,.1-.37,.36-.42,.31,.35,.3,.82,.4,1.24,.1,.43,.32,1.23,.64,1.77-.15,.02-.28,.04-.42,.04-.15,0-.3,0-.52,0l.09-.61Zm-.33-1.48l-.22,.8h.48l-.26-.8Z"/><path class="d" d="M9.9,42.01l-.17-.2,.41-.02c.32,.46,1.05,.56,1.15,1.33-.02,.32-.28,.57-.53,.8h-.47l-.3-.3c-.35,.38-.39,.85-.38,1.36-.34-.13-.61-.29-.8-.65l.3-.18c.44-.58,.39-1.45,.79-2.15Zm.44,.52l-.39,.82s.26,.19,.56,.1,.36-.49,.36-.49c0,0-.04-.44-.53-.43Z"/><path class="d" d="M27.9,48.37v1.28l-.9,.47v.89l.32,.37c-.06,.08-.08,.15-.11,.15-.25,.05-.51,.09-.78,.14,.03-.29,.09-.58,.1-.88,.01-.31-.35-2.12-.45-2.23l.21-.21c.38-.07,.8,.14,1.11-.18l.5,.2Zm-1.19,.47l.16,.9s.32,0,.51-.24,0-.61,0-.61c0,0-.29-.34-.68-.05Z"/><path class="d" d="M15.41,45.54c.67,.26,1.18,.6,1.68,1.09,.05,.54-.46,.81-.74,1.16l.3,1.75c-.44-.1-.66-.32-.7-.73-.03-.34-.09-.68-.13-1.05l-.2-.05-.19,.82,.19,.49-1.06-.49,.37-.33c.03-.16,.12-.46,.16-.76,.04-.31,.19-.58,.29-.87,.1-.3,.02-.65,.02-1.04Zm.51,.83l-.23,.88s.29,.14,.57,0,.26-.55,.26-.55c0,0-.12-.43-.6-.33Z"/><path class="d" d="M32.65,49.38c.05-.33,.11-.61,.12-.9,.02-.85,0-1.71,0-2.65,.17,.09,.3,.12,.36,.2,.35,.51,.68,1.03,1.01,1.55,.2,.31,.36,.45,.78,.68l-.83,.57-.32-.86-.63,.22c.06,.16-.03,.81,.07,1l-.18,.18h-.38Zm.48-2.56l.02,.83,.46-.13-.48-.69Z"/><path class="d" d="M39.95,44.45l-.55,.5c-.04-.2-.07-.31-.07-.42-.07-.99-.13-1.98-.19-3.02l.35-.03c.16,.17,.31,.31,.44,.46,.14,.15,.26,.32,.4,.47,.15,.17,.31,.33,.48,.48,.16,.14,.33,.26,.5,.39-.09,.35-.42,.44-.72,.63-.03-.31-.15-.58-.44-.74l-.64,.64,.16,.53,.27,.11Zm-.47-2.21l.07,.98,.36-.32-.43-.66Z"/><path class="d" d="M33.08,6.54c.75-.46,.87-1.36,1.5-1.91h.33c0,.62,.01,1.23,0,1.83,0,.16-.14,.31-.14,.47,0,.38,.05,.76,.09,1.19-.36,0-.46-.39-.71-.53l.2-.75-.53-.41h-.26l-.04,.59c-.09,0-.17,.03-.22,0-.19-.11-.26-.29-.22-.49Zm1.47-1.06l-.52,.65,.44,.19,.07-.84Z"/></g></g></g></svg>