<?xml version="1.0" encoding="UTF-8"?><svg xmlns="http://www.w3.org/2000/svg" viewBox="0 0 49.57 54.13"><defs><style>.d{fill:#fff;}</style></defs><g id="a"/><g id="b"><g id="c"><g><path class="d" d="M46.94,38.62c-1.2-.47-2.73-.77-4.22-1.05l.59-1.46,.4-.98-.96-.45-.87-.4c.95-3.17,1.25-6.43,.9-9.7-.26-2.42-.87-4.86-1.83-7.28,.89,.28,1.62,.4,2.28,.4,1.03,0,1.91-.32,2.6-.96l.35-.32v-.47c.1-3.55,1.06-6.69,2.89-9.33l.31-.45-.16-.52c-.81-2.57-4.63-3.02-7.43-3.13l-1.16-.05v1.83c-.63-.13-1.82-.51-3.98-1.5C31.21,.31,25.46,.03,24.83,0h-.08c-.64,.02-6.39,.31-11.81,2.81-2.16,1-3.35,1.37-3.98,1.5v-1.83l-1.16,.05c-2.8,.11-6.62,.55-7.43,3.13l-.16,.52,.31,.45c1.82,2.64,2.79,5.78,2.87,9.33v.47l.36,.32c.7,.64,1.57,.96,2.6,.96,.66,0,1.39-.13,2.28-.4-.96,2.42-1.57,4.85-1.83,7.28-.35,3.27-.04,6.53,.9,9.7l-.87,.4-.96,.45,.4,.98,.59,1.46c-1.49,.28-3.02,.58-4.22,1.05-1.75,.68-2.63,1.69-2.63,3v.5l.37,.33c2.21,1.99,3.08,5.16,2.74,9.98l-.05,.74,.67,.33c.81,.4,1.98,.63,3.24,.63,2.61,0,4.66-.91,5.48-2.44l.21-.39-.07-.27c1.2,.15,2.59,.47,4.13,.82,2.41,.56,5.14,1.19,7.97,1.31h.22c2.83-.12,5.56-.75,7.97-1.31,1.54-.36,2.92-.67,4.13-.82l-.07,.27,.21,.39c.82,1.53,2.87,2.44,5.48,2.44,1.25,0,2.43-.23,3.24-.63l.67-.33-.05-.74c-.34-4.82,.53-7.99,2.74-9.98l.37-.33v-.5c0-1.31-.89-2.32-2.63-3Zm-1.59,13.88c-.65,.33-1.67,.52-2.74,.52-1.81,0-3.79-.54-4.5-1.86l.36-1.32c-.07,0-.15,0-.22,0-3.35,0-8.23,1.99-13.4,2.22h-.12c-5.17-.22-10.05-2.22-13.4-2.22-.07,0-.15,0-.22,0l.36,1.32c-.71,1.32-2.69,1.86-4.5,1.86-1.07,0-2.08-.19-2.74-.52,.34-4.79-.44-8.49-3.11-10.88,0-2.06,3.95-2.54,7.27-3.21l-1.1-2.72,1.76-.82c-2.37-6.95-1.28-13.66,1.7-19.61-1.79,.81-3.25,1.33-4.41,1.33-.73,0-1.34-.2-1.85-.67-.09-3.83-1.14-7.13-3.07-9.93,.49-1.57,2.92-2.21,6.41-2.35v1.63s.02,.23,.58,.23c.65,0,2.04-.31,4.99-1.68,5.28-2.44,10.99-2.69,11.38-2.71h0c.39,.01,6.1,.27,11.39,2.71,2.95,1.36,4.33,1.68,4.99,1.68,.56,0,.58-.23,.58-.23v-1.63c3.49,.14,5.92,.78,6.41,2.35-1.93,2.8-2.98,6.1-3.07,9.93-.51,.46-1.12,.67-1.85,.67-1.16,0-2.62-.52-4.41-1.33,2.98,5.95,4.07,12.66,1.7,19.61l1.76,.82-1.1,2.72c3.32,.67,7.27,1.15,7.27,3.21-2.67,2.4-3.45,6.09-3.11,10.88Z"/><polygon class="d" points="24.33 14.72 25.22 14.72 25.22 11.75 26.31 11.75 26.31 10.86 25.22 10.86 25.22 9.97 24.33 9.97 24.33 10.86 23.21 10.86 23.21 11.75 24.33 11.75 24.33 14.72"/><polygon class="d" points="26.22 16.89 23.4 16.89 21.95 19.22 24.77 22.84 27.68 19.22 26.22 16.89"/><rect class="d" x="33.82" y="28.55" width=".89" height="3.74"/><rect class="d" x="14.22" y="28.55" width=".89" height="3.74"/><polygon class="d" points="26.98 16.42 27.37 17.04 28.12 13.68 27.25 13.49 26.69 16 26.72 16 26.98 16.42"/><polygon class="d" points="28.44 18.75 28.59 18.99 30.53 14.57 29.72 14.21 28.02 18.08 28.44 18.75"/><polygon class="d" points="34.34 19.98 35.3 19.56 35.3 20.25 36.17 19.68 35.68 18.93 34.18 19.91 34.34 19.98"/><polygon class="d" points="22.65 16.42 22.87 16.07 22.29 13.49 21.42 13.68 22.19 17.15 22.65 16.42"/><polygon class="d" points="21.19 18.75 21.56 18.16 19.82 14.21 19 14.57 20.99 19.08 21.19 18.75"/><polygon class="d" points="17.19 21.05 16.91 20.92 17.65 21.41 17.62 21.24 17.19 21.05"/><polygon class="d" points="34.41 20.92 34.34 20.95 34.27 20.92 34.27 20.98 32.24 21.86 32.01 23.03 31.19 23.86 32.28 25.33 30.75 26.03 31.8 27.38 31.49 28.55 34.27 28.55 34.41 28.55 37.18 28.55 36.88 27.38 37.92 26.03 36.4 25.33 37.49 23.86 36.66 23.03 36.44 21.86 34.41 20.98 34.41 20.92"/><polygon class="d" points="16.79 25.33 17.88 23.86 17.06 23.03 16.83 21.86 14.8 20.98 14.8 20.92 14.73 20.95 14.66 20.92 14.66 20.98 12.63 21.86 12.41 23.03 11.58 23.86 12.67 25.33 11.15 26.03 12.19 27.38 11.89 28.55 14.66 28.55 14.8 28.55 17.58 28.55 17.27 27.38 18.32 26.03 16.79 25.33"/><path class="d" d="M38.16,34.21c.21-.5,.31-.81,.31-.81-1.52-.25-3.05-.45-4.57-.61,1.52,.37,2.94,.84,4.26,1.42Z"/><path class="d" d="M19.02,26.57l-.36,.47h3.04l.86-.83,.25-.24c-.2-.33-.31-.72-.31-1.13,0-.63,.27-1.2,.7-1.61l-1.69-3,1.02,2.32-4.97-7.17-.73,.51,4.97,7.17-6.26-6.08-.62,.64,6.26,6.08-3.51-2.29,.05,.29,.17,.9,.09,.09,2.7,1.77-1.63-.66-.44,.6-.1,.14,1.84,.75-2.09-.41-.08,.11,.52,.24,1.02,.47-.25,.32,.71,.14h-.82l-.33,.43Z"/><path class="d" d="M27.75,23.06l4.97-7.17-.73-.51-4.97,7.17,.7-1.6-1.37,2.43c.34,.39,.55,.9,.55,1.46,0,.42-.12,.82-.33,1.16l.2,.15,1.14,.89h2.5l-.36-.47-.33-.43h-.35l.3-.06-.31-.4,1.02-.47,.52-.24-.02-.03-1.69,.33,1.48-.6-.21-.29-.33-.45-1.27,.52,1.36-.89,.33-.33,.63-.63,.16-.83-2.97,1.94,6.26-6.08-.62-.64-6.26,6.08Z"/><circle class="d" cx="24.7" cy="24.84" r="1.32"/><path class="d" d="M23.17,26.85l-1.99,1.93-2.18,.53,.59,1.08,2.18-.54,1.41-1.37v3.23l-1.06,1.35,.79,2.17,.95-.7-.53-1.23,1.21-1.58h.4v3.99h1.29v-5.23l2.46-1.68-2.46-1.93h-3.05Zm3.05,2.34v-1.17l.59,.87-.59,.3Z"/><path class="d" d="M11.47,13.89c.51,.08,.96-.14,1.34-.65,.19-.26,.3-.54,.34-.83l-.1-.18h-.06c-.04,.28-.13,.51-.27,.71-.16,.22-.34,.36-.54,.41-.37,.11-.73,.03-1.09-.23-.26-.19-.42-.41-.47-.66s0-.49,.19-.74c.17-.23,.37-.36,.6-.38,.05,.03,.14,.08,.26,.17h.03l.06-.09v-.02c-.18-.14-.33-.28-.44-.42h-.04c-.26,.17-.48,.38-.66,.62-.28,.38-.4,.76-.37,1.13,.04,.36,.22,.66,.54,.9,.2,.15,.42,.24,.66,.28Z"/><path class="d" d="M13.34,11.98c.34,0,.65-.16,.95-.46,.31-.32,.47-.66,.47-1.02,0-.37-.16-.71-.49-1.03-.29-.28-.6-.41-.93-.4-.33,.01-.64,.17-.94,.48-.21,.22-.35,.43-.42,.65-.15,.48-.02,.93,.41,1.35,.3,.3,.62,.44,.96,.43Zm-.83-2.25c.19-.2,.42-.28,.67-.23,.25,.04,.5,.19,.76,.44,.16,.16,.29,.33,.38,.5,.16,.33,.12,.62-.12,.87-.2,.21-.44,.28-.7,.23-.26-.05-.52-.21-.79-.48-.15-.15-.26-.3-.34-.46-.15-.32-.1-.6,.16-.87Z"/><path class="d" d="M13.76,8.51c.1-.07,.17-.11,.18-.12,.03-.01,.06,0,.09,.02,.07,.06,.19,.21,.37,.44l.57,.74,.25,.33c.08,.11,.13,.18,.13,.21,0,.02-.01,.08-.05,.18v.02l.04,.04h.03c.07-.06,.19-.16,.37-.3l1.07-.81v-.03c-.13-.18-.25-.35-.34-.51h-.03l-.09,.07v.03l.1,.21c.03,.05,.04,.09,.04,.11,0,.01,0,.02-.01,.03-.05,.07-.21,.22-.5,.44l-.2,.15c-.1-.12-.2-.24-.29-.37l-.67-.88c-.18-.23-.29-.39-.33-.47-.02-.03-.01-.06,0-.09,.01-.02,.07-.06,.16-.15v-.02l-.07-.1h-.02c-.1,.08-.25,.21-.45,.36-.19,.15-.34,.26-.45,.33v.02l.07,.1h.03Z"/><path class="d" d="M17.01,8.78c.33,.09,.67,.04,1.04-.17,.39-.22,.64-.5,.74-.84,.11-.35,.05-.73-.17-1.13-.19-.35-.45-.57-.78-.65-.32-.08-.67-.02-1.04,.19-.26,.15-.46,.31-.59,.5-.29,.42-.29,.89,0,1.41,.2,.37,.47,.6,.79,.69Zm-.14-2.39c.24-.13,.48-.14,.71-.03s.43,.33,.6,.64c.11,.2,.18,.4,.21,.59,.06,.36-.06,.63-.37,.8-.25,.14-.5,.14-.74,.02-.23-.13-.44-.35-.62-.69-.1-.18-.17-.36-.19-.54-.05-.35,.08-.61,.4-.78Z"/><path class="d" d="M18.54,5.5c.12-.03,.19-.05,.21-.05,.04,0,.06,.01,.08,.05,.04,.08,.11,.26,.2,.54l.3,.93c.09,.28,.14,.46,.15,.55,0,.04,0,.06-.04,.08-.02,.01-.08,.04-.2,.08v.02l.03,.12h.02c.13-.04,.27-.09,.4-.13,.12-.04,.24-.07,.38-.11v-.02l-.03-.12h-.02c-.12,.02-.19,.04-.21,.04-.04,0-.06-.01-.08-.05-.04-.08-.11-.26-.2-.54l-.37-1.15c1.06,.69,1.8,1.16,2.23,1.41,.07-.01,.18-.03,.32-.05l.02-.02c-.07-.15-.18-.5-.35-1.02l-.23-.71c-.09-.28-.14-.46-.15-.55,0-.04,0-.06,.04-.08,.02-.01,.08-.04,.2-.08v-.02l-.02-.12h-.02c-.12,.04-.25,.08-.4,.13-.12,.04-.24,.07-.38,.11v.02l.03,.12h.02c.12-.02,.19-.04,.21-.04,.04,0,.06,.01,.08,.05,.04,.08,.11,.26,.2,.54l.33,1.03c-.78-.46-1.47-.9-2.07-1.33-.1,.04-.23,.09-.39,.14-.1,.03-.21,.06-.32,.09v.02l.03,.12h.02Z"/><path class="d" d="M21.58,4.61c.13-.01,.2-.02,.22-.02,.04,0,.06,.02,.07,.06,.03,.08,.07,.27,.12,.56l.16,.96c.05,.29,.07,.48,.07,.57,0,.04-.02,.06-.05,.08-.02,0-.09,.03-.21,.05l-.02,.02,.02,.12,.02,.02c.12-.03,.31-.06,.56-.11,.25-.04,.44-.07,.57-.08v-.05c.17-.01,.28-.02,.32-.02,.07,0,.21,0,.44,0l.02-.02v-.12l-.02-.02c-.09,0-.16,0-.19,0-.06,0-.09-.03-.09-.08,0-.04,.03-.15,.08-.32l.07-.23c.19,0,.33-.01,.43-.02,.18,0,.35,0,.52-.01l.16,.39c.04,.09,.06,.15,.06,.17,0,.04-.03,.07-.1,.08h-.16l-.02,.04v.12l.02,.02c.19-.01,.41-.02,.63-.03,.06,0,.22,0,.5,0l.02-.02v-.12l-.02-.02c-.08,0-.14,0-.18-.02-.03-.01-.07-.06-.11-.14l-1.05-2.28h-.26c-.07,.2-.12,.34-.15,.44l-.45,1.22c-.17,.48-.28,.74-.3,.78-.03,.04-.1,.07-.23,.08l-.02,.02v.03c-.1,.01-.16,.01-.17,.01-.04,0-.06-.02-.07-.06-.03-.08-.07-.27-.12-.56l-.16-.96c-.05-.29-.07-.48-.07-.57,0-.04,.02-.06,.05-.08,.02,0,.09-.03,.21-.05l.02-.02-.02-.12h-.02c-.12,.01-.3,.05-.56,.09-.26,.04-.45,.07-.56,.08l-.02,.02,.02,.12,.02,.02Zm2.6,.17l.42,.96c-.1,0-.22,.01-.38,.02-.16,0-.29,0-.39,0l.35-.98Z"/><path class="d" d="M27.06,4.36s.07,.07,.07,.15c0,.03,0,.11,0,.22l-.06,2.17,.26,.06,.13-.18c.13-.19,.24-.34,.31-.43l.74-1c0,.07,.02,.14,.02,.2l.04,.28c.05,.35,.1,.76,.15,1.2l.03,.27,.27,.07c.03-.07,.1-.22,.23-.46l.31-.58c.14-.26,.25-.46,.32-.58,.14-.26,.24-.42,.29-.49,.02-.04,.05-.06,.07-.08,.02-.02,.06-.02,.1-.02,0,0,.04,0,.1,.02h.02l.03-.13v-.02l-.43-.09s-.15-.04-.36-.1l-.02,.02-.03,.11v.02c.12,.03,.18,.05,.2,.06,.05,.02,.07,.06,.06,.11,0,.03-.03,.09-.08,.18l-.63,1.2c-.13-.91-.22-1.55-.26-1.92l-.17-.04c-.04,.06-.09,.13-.15,.21l-.34,.46c-.14,.19-.25,.34-.32,.44l-.36,.49v-.51c.02-.22,.02-.38,.03-.48l.02-.34c0-.13,.01-.21,.02-.23,0-.03,.02-.05,.04-.06,.02-.01,.05-.01,.1,0,.01,0,.06,.01,.14,.03h.02l.03-.13-.02-.02c-.25-.05-.44-.1-.57-.13-.11-.03-.27-.07-.48-.13h-.02l-.03,.13v.02c.09,.02,.13,.04,.15,.05Z"/><path class="d" d="M29.63,7.31s-.13,.02-.24-.03h-.03l-.05,.12v.02c.2,.08,.31,.12,.36,.14,.06,.03,.19,.09,.4,.19h.02l.05-.12v-.02c-.09-.04-.15-.07-.18-.09-.05-.03-.06-.07-.05-.11,.02-.04,.09-.12,.22-.26l.17-.17c.17,.08,.3,.13,.39,.17,.16,.07,.32,.15,.47,.22l-.02,.42c0,.1-.01,.16-.02,.18-.02,.04-.06,.05-.12,.02l-.15-.06h-.03l-.05,.12v.02c.19,.07,.38,.16,.59,.25,.05,.02,.19,.09,.42,.2,.12,.07,.23,.15,.34,.22,.1,.07,.21,.15,.32,.23h.02l.07-.11v-.03c-.1-.08-.16-.12-.17-.14-.02-.03-.03-.06-.01-.09,.04-.08,.14-.24,.3-.49l.68-1c.1,1.26,.18,2.14,.25,2.63,.05,.05,.13,.12,.23,.22h.03c.08-.15,.28-.45,.59-.91l.42-.62c.17-.24,.28-.39,.34-.46,.03-.03,.06-.03,.09-.02,.02,0,.08,.04,.19,.11h.03l.07-.11v-.02c-.11-.07-.23-.14-.37-.23-.1-.07-.21-.15-.32-.23h-.02l-.07,.11v.03c.1,.08,.16,.12,.17,.14,.02,.03,.03,.06,.01,.09-.04,.08-.14,.24-.3,.49l-.61,.89c-.11-.9-.18-1.71-.21-2.45-.09-.06-.21-.13-.35-.23-.09-.06-.18-.13-.27-.2h-.02l-.07,.11v.03c.1,.08,.16,.12,.17,.14,.02,.03,.03,.06,.01,.09-.04,.08-.14,.24-.3,.49l-.55,.81c-.17,.24-.28,.39-.34,.46-.03,.03-.06,.03-.09,.02-.02,0-.08-.04-.19-.11h0c-.06-.03-.1-.05-.13-.08-.02-.02-.03-.08-.03-.18l.05-2.5-.24-.11c-.14,.14-.25,.25-.32,.32l-.94,.9c-.37,.35-.57,.54-.61,.57Zm1.58-1.21l-.04,1.05c-.09-.04-.21-.09-.35-.15-.15-.07-.27-.12-.36-.17l.74-.73Z"/><path class="d" d="M35.91,8.49s.02,.06,0,.09c-.05,.07-.18,.22-.38,.43l-.65,.67-.29,.29c-.1,.1-.16,.15-.19,.16-.02,0-.08,0-.18-.02h-.02l-.04,.05v.03c.09,.07,.2,.17,.32,.3l.46,.46c.19,.19,.39,.33,.59,.41,.19,.08,.38,.12,.57,.11,.39,0,.73-.16,1.02-.46,.19-.2,.31-.4,.35-.6,.04-.2,.03-.39-.05-.58-.07-.17-.22-.37-.45-.59-.08-.08-.17-.16-.25-.24-.17-.16-.36-.33-.57-.53-.08-.08-.17-.17-.26-.27h-.02l-.09,.09v.03c.09,.09,.13,.15,.14,.16Zm.43,.47c.09,.06,.17,.13,.25,.21,.16,.15,.27,.29,.33,.4,.07,.12,.1,.24,.09,.37,0,.25-.13,.49-.37,.74-.18,.18-.37,.31-.57,.38-.19,.07-.37,.08-.54,.03-.15-.05-.32-.16-.49-.33-.08-.08-.16-.16-.22-.25,.03-.05,.11-.14,.24-.27l.56-.58c.37-.38,.61-.62,.71-.71Z"/><path class="d" d="M36.38,12.09c-.05,0-.12-.04-.2-.14h-.03l-.1,.07v.02c.13,.15,.2,.25,.23,.29,.04,.05,.13,.17,.26,.36h.03l.09-.07v-.03c-.05-.08-.08-.13-.1-.16-.03-.05-.02-.09,.01-.12,.03-.03,.14-.07,.31-.12l.23-.07c.12,.15,.2,.26,.26,.34,.11,.14,.21,.28,.31,.42l-.22,.36c-.05,.08-.09,.13-.11,.15-.04,.03-.08,.01-.12-.04l-.1-.12h-.03l-.09,.07v.02c.12,.15,.25,.32,.39,.5,.03,.05,.13,.18,.29,.4h.02l.09-.07v-.03c-.04-.06-.07-.11-.08-.15,0-.03,0-.09,.05-.17l1.24-2.18-.16-.21c-.19,.06-.34,.1-.44,.13l-1.25,.35c-.49,.14-.76,.21-.81,.21Zm1.96-.31l-.53,.9c-.06-.08-.14-.18-.24-.3-.1-.13-.18-.23-.23-.32l1-.29Z"/><path class="d" d="M24.85,7.84c-4.21,0-8.16,1.97-11.12,5.55-2.92,3.53-4.52,8.22-4.52,13.19s1.61,9.66,4.52,13.19c2.96,3.58,6.91,5.55,11.12,5.55s8.16-1.97,11.12-5.55c2.92-3.53,4.52-8.22,4.52-13.19s-1.61-9.66-4.52-13.19c-2.96-3.58-6.91-5.55-11.12-5.55Zm8.99,32.9c1.15-1.13,2.07-2.37,2.77-3.5-2.22-1.44-5.81-3.66-8.6-4.89-.3-.01-.6-.02-.9-.03v.27c2.57,2.89,4.67,5.82,5.97,8.81-.92,.75-1.92,1.38-2.98,1.87-.6-2.5-1.74-6.91-2.99-9.9v3.21h-1.51l.95,7.74c-.56,.08-1.13,.12-1.7,.12-.71,0-1.4-.06-2.08-.18l1.37-7.68h-.09v-1.09l-.61,.45-.96,.71-.41-1.12-.24-.65c-1,2.8-1.88,6.21-2.39,8.33-1.05-.5-2.04-1.14-2.95-1.9,1.13-2.57,2.84-5.08,4.93-7.56l-.14-.38-.17-.46,.3-.39,.12-.15h-.02c-2.76,1.22-6.31,3.41-8.53,4.85-.58-.95-1.08-1.96-1.5-3.04,1.27-.56,2.64-1,4.1-1.36-1.46,.16-2.92,.36-4.38,.59-.71-2.1-1.11-4.39-1.11-6.81,0-9.86,6.6-17.86,14.75-17.86s14.75,7.99,14.75,17.86c0,5.76-2.26,10.88-5.76,14.15Z"/><path class="d" d="M17.92,47.55l.5-.84c.15-.25,.26-.41,.32-.48,.02-.03,.05-.04,.09-.03,.02,0,.08,.04,.19,.1h.02l.07-.11v-.02c-.12-.06-.28-.15-.49-.28-.04-.02-.12-.08-.24-.15-.11,.09-.21,.16-.32,.23l-.87,.58-.54,.35,.13-1.36,.03-.28c.02-.18,.04-.33,.06-.43-.1-.05-.21-.12-.34-.19-.17-.1-.3-.19-.41-.26h-.02l-.06,.11v.03c.11,.07,.17,.11,.18,.13,.03,.03,.03,.06,.02,.09-.03,.08-.12,.25-.28,.5l-.5,.84c-.15,.25-.26,.41-.32,.48-.02,.03-.05,.04-.09,.03-.02,0-.08-.04-.19-.1h-.03l-.06,.11v.02c.13,.07,.26,.14,.38,.21,.1,.06,.22,.13,.33,.21h.02l.06-.11v-.03c-.11-.07-.17-.11-.18-.13-.03-.03-.03-.06-.02-.09,.03-.08,.12-.25,.28-.5l.66-1.1-.1,1.11-.06,.6c-.03,.26-.05,.47-.08,.63l.11,.06,.67-.46c.27-.19,.43-.29,.47-.32l.79-.51-.64,1.07c-.15,.25-.26,.41-.32,.48-.02,.03-.05,.04-.09,.03-.02,0-.08-.04-.19-.1h-.03l-.06,.11v.02c.11,.05,.27,.15,.5,.28,.22,.13,.38,.23,.48,.3h.03l.06-.11v-.03c-.11-.07-.17-.11-.18-.13-.03-.03-.03-.06-.02-.09,.03-.08,.12-.25,.28-.5Z"/><path class="d" d="M20.3,46.72h.02l.05-.13v-.02c-.12-.04-.3-.1-.54-.2-.24-.1-.42-.17-.53-.22h-.02l-.05,.13v.02c.12,.05,.19,.09,.21,.1,.03,.02,.04,.05,.03,.09-.02,.09-.08,.27-.19,.54l-.36,.91c-.11,.27-.18,.45-.23,.52-.02,.03-.05,.04-.08,.04-.02,0-.09-.02-.21-.06h-.02l-.05,.13v.02c.13,.04,.3,.1,.54,.2,.24,.09,.42,.17,.53,.22h.02l.05-.13v-.02c-.12-.05-.19-.09-.2-.1-.03-.02-.04-.05-.03-.09,.02-.09,.08-.27,.19-.54l.36-.91c.11-.27,.18-.45,.23-.52,.02-.03,.05-.04,.08-.04,.02,0,.09,.02,.21,.06Z"/><path class="d" d="M21.62,46.89c-.31-.08-.57-.06-.79,.05-.2,.1-.33,.28-.4,.52-.06,.24-.03,.43,.1,.58,.08,.1,.28,.21,.58,.34,.14,.06,.23,.11,.29,.16,.11,.1,.15,.22,.11,.38-.02,.09-.07,.17-.14,.25-.13,.14-.32,.18-.55,.12-.13-.03-.24-.09-.34-.18-.1-.08-.16-.17-.18-.26,.01-.11,.03-.2,.05-.27v-.06l-.12-.03h-.02c-.06,.27-.13,.46-.2,.59v.04c.22,.18,.46,.3,.71,.36,.2,.05,.38,.07,.54,.04,.18-.02,.33-.09,.46-.2,.15-.12,.25-.28,.3-.48,.04-.15,.04-.29,0-.41-.04-.11-.11-.2-.22-.28-.05-.04-.11-.07-.18-.1-.11-.05-.18-.08-.2-.09-.23-.1-.37-.18-.43-.24-.08-.09-.11-.2-.07-.34,.03-.13,.1-.22,.21-.28,.11-.06,.25-.07,.41-.03,.11,.03,.2,.07,.29,.14,.08,.06,.13,.13,.16,.19,0,.05-.02,.14-.05,.28v.02l.13,.03h.02c.06-.21,.12-.38,.18-.51v-.05c-.15-.13-.37-.23-.65-.31Z"/><path class="d" d="M23.27,47.24c-.26-.03-.45-.06-.56-.08h-.02v.16c.13,.02,.2,.04,.21,.04,.03,.01,.05,.04,.05,.08,0,.09,0,.28-.04,.57l-.11,.97c-.03,.29-.06,.48-.09,.57-.01,.03-.03,.06-.07,.06-.02,0-.09,0-.22,0l-.02,.02v.14c.12,0,.31,.03,.57,.06,.26,.03,.44,.06,.57,.08l.02-.02v-.14c-.13-.02-.2-.04-.21-.04-.03-.01-.05-.04-.05-.08,0-.09,0-.28,.04-.57l.11-.97c.03-.29,.06-.48,.09-.57,.01-.03,.03-.06,.07-.06,.02,0,.09,0,.22,0l.02-.02v-.14c-.12,0-.31-.02-.57-.06Z"/><path class="d" d="M26.48,47.56c-.25-.22-.59-.31-1.02-.29-.3,.01-.55,.08-.75,.19-.44,.25-.65,.67-.62,1.26,.02,.42,.15,.75,.4,.97s.59,.33,1.01,.31c.45-.02,.79-.16,1.04-.42,.25-.27,.37-.63,.35-1.09-.02-.4-.15-.71-.4-.93Zm-.23,1.67c-.11,.35-.33,.53-.69,.55-.29,.01-.51-.09-.67-.31-.15-.21-.23-.51-.25-.89,0-.21,.01-.4,.07-.57,.11-.33,.34-.51,.71-.52,.28-.01,.49,.08,.64,.29,.15,.2,.24,.48,.25,.84,0,.23-.01,.44-.07,.62Z"/><path class="d" d="M29.66,47.36c-.08-.28-.12-.47-.12-.56,0-.04,.01-.06,.04-.08,.02,0,.08-.03,.2-.07v-.02l-.02-.12h-.02c-.12,.03-.26,.07-.41,.11-.12,.03-.25,.06-.38,.09v.02l.02,.12h.02c.12-.01,.19-.02,.21-.03,.04,0,.06,.02,.08,.05,.04,.08,.1,.26,.17,.55l.28,1.04c-.75-.5-1.42-.98-2-1.43-.1,.04-.24,.07-.4,.12-.1,.03-.21,.05-.33,.08v.02l.02,.12h.02c.12-.01,.19-.03,.21-.03,.04,0,.06,.02,.08,.05,.04,.08,.1,.26,.17,.55l.25,.94c.08,.28,.12,.47,.12,.56,0,.04-.01,.06-.04,.08-.02,0-.08,.03-.2,.07v.02l.02,.12h.02c.14-.03,.27-.07,.41-.11,.12-.03,.25-.06,.39-.09v-.02l-.02-.12h-.02c-.12,.01-.19,.03-.21,.03-.04,0-.06-.02-.08-.05-.04-.08-.1-.26-.17-.55l-.31-1.17c1.02,.74,1.74,1.25,2.16,1.52,.07,0,.18-.02,.32-.03l.02-.02c-.06-.16-.16-.5-.3-1.04l-.19-.73Z"/><path class="d" d="M32.49,47.34l-.1,.05v.03l.05,.23c.01,.06,.02,.09,.02,.12,0,.01,0,.02-.02,.03-.06,.06-.25,.17-.58,.32l-.23,.11c-.07-.13-.14-.27-.21-.42l-.24-.51c.07-.04,.14-.08,.22-.12,.08-.04,.15-.07,.22-.09,.09-.03,.16-.04,.18-.03,.03,.02,.07,.09,.13,.22h.02l.11-.04v-.02c-.06-.13-.12-.25-.17-.37-.05-.1-.1-.22-.16-.35h-.02l-.1,.04v.02c.05,.13,.07,.21,.06,.24,0,.02-.06,.06-.16,.11l-.22,.11c-.05,.03-.13,.06-.22,.09l-.16-.35c-.1-.21-.17-.37-.21-.49,.1-.05,.19-.11,.29-.15,.08-.04,.18-.08,.29-.12,.11-.04,.18-.06,.2-.05,.03,.01,.08,.1,.15,.25h.02l.1-.04v-.03l-.05-.16s-.03-.1-.06-.16l-.07-.2h-.02c-.58,.28-.98,.47-1.19,.57-.24,.11-.41,.19-.53,.24v.02l.04,.11h.02c.12-.04,.18-.06,.2-.07,.04,0,.07,0,.09,.04,.05,.07,.14,.24,.27,.51l.4,.85,.17,.38c.06,.13,.09,.21,.09,.23,0,.02-.03,.07-.09,.16v.02l.02,.05h.02c.08-.04,.22-.11,.42-.2l1.22-.57v-.02c-.09-.21-.16-.39-.22-.57h-.03Z"/><path class="d" d="M34.11,45.57c-.11-.05-.22-.05-.35-.02-.06,.01-.13,.04-.2,.07-.11,.05-.18,.08-.2,.09-.23,.1-.38,.16-.46,.16-.12,0-.22-.06-.3-.18-.07-.11-.09-.22-.06-.34,.03-.13,.12-.23,.25-.33,.09-.06,.19-.1,.3-.12,.1-.02,.18-.01,.25,.01,.03,.03,.09,.11,.17,.23h.03l.1-.06v-.03c-.1-.18-.18-.33-.24-.47l-.04-.03c-.2,.02-.42,.11-.66,.27-.27,.18-.43,.38-.5,.61-.06,.22-.02,.43,.12,.64,.13,.2,.3,.31,.49,.32,.13,0,.34-.06,.65-.2,.13-.06,.24-.1,.31-.11,.15-.02,.26,.04,.35,.17,.05,.08,.08,.17,.09,.27,.02,.19-.08,.36-.28,.49-.11,.07-.23,.12-.36,.13-.13,.02-.23,0-.31-.04-.07-.09-.13-.16-.17-.22l-.02-.04h-.02l-.1,.06v.03c.14,.22,.24,.4,.29,.53l.04,.02c.27-.04,.52-.13,.73-.27,.17-.11,.31-.24,.4-.37,.1-.15,.15-.3,.16-.47,.01-.19-.04-.37-.15-.54-.09-.13-.19-.22-.3-.27Z"/></g></g></g></svg>