<?xml version="1.0" encoding="UTF-8"?><svg xmlns="http://www.w3.org/2000/svg" viewBox="0 0 39.34 54.13"><defs><style>.d{fill:#fff;}</style></defs><g id="a"/><g id="b"><g id="c"><g><path class="d" d="M39.33,25.68v22.78c-.26,2.03-1.2,4.18-3.33,4.98-.82,.31-1.66,.37-2.51,.29-1.58-.14-3.12-.52-4.67-.83-1.69-.34-3.39-.53-5.1-.43-1.09,.06-2.13,.37-3.09,.92-.17,.1-.27,.24-.38,.4-.25,.39-.77,.45-1.11,.12-.3-.29-.59-.6-.96-.81-.55-.32-1.15-.42-1.76-.51-.74-.11-1.48-.13-2.23-.12-1.08,0-2.14,.19-3.2,.38-1.46,.27-2.9,.64-4.37,.83-1.06,.14-2.13,.19-3.17-.13-1.37-.42-2.31-1.33-2.87-2.62C.17,49.98,0,48.98,0,47.93,0,33.16,0,18.38,0,3.61,0,2.26,1.14,.98,2.74,1.37c.2,.05,.4,.09,.6,.14,.45,.11,.65,0,.77-.44,.1-.37,.32-.64,.59-.89C4.85,.04,5,0,5.2,0c2.48,0,4.96,0,7.45,0,7.12,0,14.25,0,21.37,0,.57,0,.99,.28,1.21,.82,.03,.08,.06,.16,.09,.25,.17,.51,.21,.52,.75,.43,.6-.11,1.2-.23,1.81-.1,.67,.13,1.1,.58,1.43,1.13,.06,.1,.03,.25,.03,.38,0,7.59,0,15.19,0,22.78ZM.72,30.21c.01,.9-.03,1.8-.05,2.71-.04,2.5,.02,5-.05,7.5-.08,2.62-.02,5.24,.11,7.85,.04,.76,.13,1.51,.39,2.24,.42,1.19,1.21,1.99,2.43,2.34,1.02,.29,2.06,.24,3.09,.11,1.13-.15,2.24-.45,3.36-.66,1.64-.32,3.29-.64,4.97-.55,.72,.04,1.44,.12,2.15,.28,.89,.2,1.69,.56,2.33,1.22,.17,.17,.31,.15,.46-.02,.24-.26,.52-.48,.82-.66,.63-.38,1.32-.55,2.05-.66,1.27-.2,2.54-.23,3.81-.08,1.45,.17,2.89,.48,4.32,.79,1.38,.29,2.76,.57,4.18,.37,1.03-.14,1.89-.59,2.53-1.44,.68-.9,.84-1.96,.93-3.04,.11-1.47,.09-2.94,.11-4.41,.04-2.46-.01-4.92,.05-7.39,.07-2.9,.06-5.8,.04-8.71-.05-5.66-.02-11.32-.02-16.98,0-.45,0-.9-.06-1.35-.03-.31-.09-.62-.41-.76-.24-.11-.5-.15-.77-.1-.56,.1-1.12,.18-1.68,.27-1.09,.18-2.18,.35-3.27,.49-1.08,.14-2.16,.36-3.24,.5-1.6,.21-3.18,.52-4.77,.74-.81,.11-1.62,.25-2.43,.39-.66,.11-1.34,.14-1.99,.32-.5,.14-.98,.14-1.48,.05-1.05-.2-2.11-.38-3.17-.55-1.42-.23-2.83-.45-4.25-.68-1.48-.24-2.96-.49-4.45-.74-.85-.14-1.7-.27-2.54-.4-.85-.13-1.7-.29-2.55-.34-.7-.04-.83,.03-.88,.78,0,.07,0,.14,0,.21,.02,.5,.05,1,.06,1.5,.03,2.43-.08,4.86-.12,7.3-.04,2.81,.02,5.61,.05,8.42,.01,1.05-.08,2.1-.05,3.15ZM19.81,4.16h0c4.5,.01,9.01,.01,13.51,.01,.23,0,.45-.01,.67-.05,.3-.05,.5-.19,.57-.5,.14-.71,.11-1.43,.03-2.14-.07-.6-.41-.9-.91-.94-.36-.03-.72-.05-1.09-.05-8.7,0-17.4,0-26.1,0-.28,0-.57,0-.85,.05-.37,.06-.69,.23-.78,.65-.19,.85-.18,1.71,.04,2.55,.03,.11,.09,.16,.18,.21,.35,.23,.76,.19,1.14,.19,4.53,0,9.06,0,13.6,0Zm-.34,4.42c.14,0,.28,.01,.41,0,1.4-.14,2.77-.45,4.16-.66,1.13-.17,2.25-.38,3.38-.57,1.07-.18,2.14-.34,3.21-.52,.74-.12,1.48-.25,2.22-.36,1.05-.16,2.11-.3,3.16-.46,.88-.13,1.77-.49,2.58,.2,.08,.07,.14,0,.13-.08,0-.38,0-.76-.21-1.11-.32-.55-.83-.61-1.38-.52-1.44,.24-2.9,.42-4.34,.65-1.61,.25-3.21,.55-4.82,.83-1.38,.24-2.77,.47-4.16,.69-.93,.15-1.88,.25-2.81,.43-.73,.14-1.45,.25-2.19,.14-1.34-.2-2.68-.44-4.01-.66-1.57-.26-3.14-.53-4.71-.79-1.89-.31-3.78-.61-5.67-.92-.67-.11-1.35-.24-2.02-.36-.81-.15-1.68,.28-1.53,1.33,.03,.23,.09,.25,.27,.12,.26-.19,.55-.25,.86-.21,.85,.09,1.67,.3,2.51,.43,1.49,.23,2.97,.48,4.45,.74,1.47,.26,2.95,.49,4.42,.73,1.16,.19,2.31,.38,3.46,.59,.87,.16,1.73,.31,2.61,.34Z"/><path class="d" d="M37.68,30.41c.02,3.04-.03,6.08-.08,9.12-.03,2.23-.11,4.45-.09,6.68,0,.95,0,1.9-.11,2.85-.19,1.68-1.55,2.76-2.98,3-1.12,.19-2.23,.08-3.32-.15-1.58-.34-3.15-.65-4.77-.75-.53-.03-1.05-.12-1.58-.11-1.56,.04-3.1,.24-4.53,.92-.41,.19-.8,.18-1.21-.02-1.01-.5-2.09-.72-3.21-.85-1.07-.13-2.13,0-3.19,.09-1.2,.09-2.39,.26-3.56,.51-.83,.18-1.65,.39-2.49,.51-2.3,.31-4.14-.88-4.67-3.08-.13-.53-.15-1.09-.12-1.64,.04-.61,.04-1.22,.04-1.82,.09-8.57,.06-17.15,.05-25.72,0-2.37-.03-4.75-.04-7.12,0-.41,.04-.82,.17-1.21,.27-.79,.91-1.25,1.75-1.26,.75,0,1.47,.2,2.2,.33,1.53,.29,3.06,.52,4.6,.73,1.51,.2,3.01,.48,4.5,.74,1.07,.19,2.12,.44,3.19,.6,.94,.14,1.89,.08,2.83-.11,1.46-.3,2.95-.49,4.42-.75,1.5-.27,3.01-.46,4.51-.74,1.1-.2,2.22-.33,3.33-.49,.76-.11,1.53-.2,2.29-.35,.96-.18,1.55,.42,1.89,1.18,.21,.46,.17,.96,.17,1.45,.01,1.42,0,2.84,0,4.27,0,3.9,0,7.81,0,11.71,0,.5-.02,1,.03,1.5Zm-.87,4.25h-.03c0-1.56,0-3.12,0-4.68,0-1.13,.01-2.26-.04-3.38-.02-.42-.1-.5-.53-.51-.1,0-.2,0-.29,0-3.18,0-6.36,.04-9.53-.04-.48-.01-.96,0-1.44,0-.29,0-.43,.11-.49,.41-.41,1.99-1.44,3.6-3.04,4.84-2.26,1.76-4.84,2.33-7.63,1.78-2.52-.49-4.5-1.84-5.88-4.02-.51-.82-.89-1.7-1.02-2.66-.03-.22-.13-.33-.35-.34-.29,0-.59-.03-.88-.01-.83,.04-1.66-.11-2.5-.01-.48,.06-.56,.13-.56,.62,0,4.1,.02,8.2,0,12.3,0,1.3,.02,2.61-.16,3.9-.06,.42-.05,.86,.42,1.06,1.09,.47,2.22,.72,3.42,.68,.93-.04,1.82-.31,2.74-.48,1.57-.28,3.12-.62,4.72-.7,1.83-.09,3.59,.15,5.27,.87,.46,.2,.9,.18,1.35-.04,.64-.32,1.32-.55,2.02-.68,1.62-.31,3.24-.2,4.86,.01,1.54,.2,3.06,.51,4.57,.85,1.41,.31,2.77,.15,4.08-.49,.7-.34,1.07-.8,1-1.65-.09-1.04-.08-2.1-.06-3.15,.02-1.49,0-2.98,0-4.47Zm.1,11.55c0-.59,0-1.18,0-1.77,0-.27-.03-.29-.28-.16-.04,.02-.09,.05-.13,.07-.73,.48-1.54,.75-2.4,.88-1,.16-1.97,0-2.94-.16-1.64-.27-3.24-.69-4.91-.81-2.12-.15-4.2-.02-6.16,.91-.25,.12-.47,.12-.73,0-1.71-.73-3.49-1.04-5.34-.97-1.73,.07-3.42,.35-5.1,.69-.77,.15-1.53,.33-2.31,.37-1.34,.08-2.63-.1-3.86-.68-.21-.1-.32-.01-.32,.21,0,.38,.01,.77,0,1.15-.04,1.04-.08,2.08,.13,3.1,.21,1.06,.74,1.87,1.81,2.26,1.01,.37,2.04,.32,3.06,.14,1.51-.28,3-.71,4.55-.82,1.25-.09,2.5-.2,3.75-.14,.54,.03,1.09,.12,1.61,.28,.61,.18,1.22,.37,1.84,.46,.71,.1,1.4-.02,2.07-.27,.59-.22,1.19-.41,1.81-.48,1.63-.17,3.26-.09,4.88,.19,1.54,.26,3.06,.64,4.61,.82,.83,.1,1.66,.1,2.45-.24,.96-.41,1.53-1.11,1.74-2.12,.2-.98,.17-1.97,.17-2.96ZM15.71,17.31c-.55,0-1.09,.02-1.64,.13-1.9,.37-3.55,1.2-4.82,2.69-1.9,2.23-2.38,4.77-1.31,7.47,1.14,2.87,3.45,4.39,6.44,4.88,1.32,.21,2.63,.11,3.92-.3,1.61-.51,2.98-1.38,4.03-2.71,1.38-1.76,1.86-3.75,1.45-5.95-.29-1.53-1.03-2.83-2.15-3.89-1.65-1.56-3.64-2.3-5.91-2.32Zm21.2,3.59h0c0-1.28,0-2.57,0-3.85,0-.1,0-.2-.02-.29-.03-.16-.11-.23-.29-.15-.32,.15-.62,.34-.9,.55-1.36,1.02-2.82,1.86-4.45,2.37-.64,.2-1.29,.36-1.86,.75-.67,.46-1.38,.85-2.18,1.04-.15,.04-.22,.09-.07,.25,1.12,1.16,2.38,2.12,3.78,2.91,.83,.46,1.7,.75,2.68,.73,.97-.03,1.94,0,2.91,0,.36,0,.41-.05,.41-.41,0-1.29,0-2.59,0-3.88Zm-6.26,4.2c0-.08-.04-.1-.09-.12-1.24-.61-2.28-1.48-3.27-2.41-1.24-1.16-2.36-2.44-3.47-3.72-1.31-1.52-2.88-2.58-4.83-3.09-1.33-.35-2.68-.39-4.02-.28-1.09,.09-2.16,.41-3.19,.82-1.38,.54-2.66,1.24-3.75,2.24-1.66,1.51-2.44,3.43-2.59,5.63-.05,.76-.19,.67,.67,.84,.49,.1,.55,.04,.6-.47,0-.11,.04-.21,.05-.32,.19-1.87,.96-3.48,2.26-4.82,1.78-1.83,3.98-2.72,6.51-2.79,1.56-.04,3.05,.32,4.43,1.04,1.77,.92,3.1,2.27,3.95,4.08,.43,.91,.64,1.88,.71,2.88,.02,.27,.1,.42,.41,.43,.24,0,.49,.03,.73,.03,1.45,0,2.9,.04,4.35,.1,.18,0,.36,0,.53-.06Zm-3.58-10.5h0c0-.6,0-1.2,0-1.79,0-.1-.02-.19-.03-.29-.01-.14-.06-.22-.23-.22-.52-.02-1.03,.06-1.53,.19-.16,.04-.15,.16-.12,.28,.05,.21,.14,.4,.24,.59,.49,.97,.97,1.94,1.38,2.94,.08,.2,.22,.42,.02,.63-.23,.24-.52,.3-.84,.26-.15-.02-.3-.08-.43-.18-.18-.14-.36-.27-.53-.42-1.22-1.1-2.43-2.19-3.64-3.29-.13-.12-.28-.19-.45-.16-.47,.09-.94,.19-1.42,.19-.15,0-.18,.11-.05,.21,.14,.11,.29,.21,.44,.3,1.71,1.06,3.42,2.13,5.13,3.19,.29,.18,.3,.36,.08,.62-.24,.3-.56,.37-.92,.36-.27,0-.26,.11-.13,.27,.14,.17,.3,.34,.45,.5,.6,.65,1.2,1.29,1.81,1.93,.12,.13,.26,.26,.46,.18,.81-.33,1.63-.64,2.39-1.1,.2-.12,.26-.24,.15-.45-.3-.59-.02-.87,.49-1.05,.68-.24,1.37-.46,2.05-.69,1.54-.52,3.08-1.04,4.62-1.58,.54-.19,.6-.3,.6-.89,0-.63,0-1.26,0-1.88,0-.18,.12-.43-.1-.54-.21-.1-.37,.11-.53,.23-1.19,.84-2.37,1.69-3.56,2.54-1.16,.83-2.32,1.66-3.48,2.5-.31,.22-.45,.25-.69,.03-.27-.25-.29-.44-.09-.75,1.21-1.84,2.42-3.67,3.63-5.51,.15-.23,.13-.29-.15-.32-.07,0-.14,0-.21,0-.66,.13-1.33,.23-1.98,.39-.16,.04-.24,.12-.27,.26-.11,.41-.21,.81-.31,1.22-.3,1.19-.6,2.38-.91,3.57-.05,.21-.15,.41-.4,.45-.28,.04-.55,.02-.74-.24-.15-.21-.21-.44-.21-.69,0-.6,0-1.2,0-1.79Zm-11.13,.07c-.14-.16-.29-.22-.44-.28-1.49-.59-2.99-1.15-4.43-1.83-1.27-.6-2.59-.96-3.98-1.13-1.03-.12-2.05-.25-3.06-.5-.61-.15-1.03,0-1.4,.52-.17,.24-.25,.51-.25,.8,0,.6,.18,1.01,.81,1.2,.43,.13,.86,.24,1.3,.35,1.86,.47,3.72,.96,5.58,1.41,.5,.12,.99,.32,1.52,.25,.7-.08,1.39-.2,2.04-.49,.55-.25,1.11-.35,1.71-.29,.18,.02,.37,.04,.6-.02Zm-7.62,2.46c.24,.02,.44,0,.64-.09,.47-.19,.82-.56,1.23-.85,.12-.09,.36-.14,.33-.28-.03-.16-.27-.14-.43-.18-1.3-.33-2.61-.64-3.92-.96-1.09-.27-2.17-.57-3.25-.85-.36-.09-.45-.06-.47,.32-.03,.65-.04,1.31,0,1.97,.03,.48,.16,.56,.67,.57,.35,0,.71,0,1.06,.02,1.39,.11,2.79,.17,4.15,.34Zm20.87,.27c.17-.02,.27-.1,.37-.17,.65-.46,1.3-.91,1.94-1.37,1.77-1.26,3.54-2.52,5.31-3.77,.13-.09,.21-.2,.16-.37-.15-.61-.75-.97-1.36-.85-.61,.13-1.22,.29-1.84,.36-.49,.06-.81,.27-1.07,.66-.92,1.42-1.85,2.83-2.77,4.25-.26,.4-.56,.78-.75,1.26Zm-26.78,1.28c0,.25,0,.45,0,.64,0,.69-.09,.88,.91,.77,.81-.09,1.63-.24,2.45-.2,.19,0,.31-.08,.42-.22,.5-.65,1.05-1.24,1.71-1.73,.09-.06,.25-.13,.2-.26-.05-.13-.22-.14-.36-.14-.05,0-.1,0-.15,0-1.01,.01-2.01-.14-3.01-.21-.61-.04-1.23-.13-1.85-.1-.18,0-.24,.08-.27,.26-.07,.41-.03,.82-.05,1.18Zm9.92-6.4c-.09,.05-.25-.05-.27,.11-.02,.12,.12,.13,.21,.17,.18,.07,.36,.14,.54,.22,1.15,.48,2.31,.94,3.46,1.44,.67,.29,1.32,.63,2.06,.74,.99,.15,1.94,.42,2.81,.95,.7,.43,1.39,.88,2.15,1.19,.33,.13,.66,.31,1.03,.31,.07,0,.15,0,.16-.09,.01-.07-.05-.1-.1-.13-.05-.03-.1-.06-.15-.09-1.76-1.09-3.51-2.19-5.28-3.28-.52-.32-1.05-.64-1.68-.72-.71-.08-1.41-.17-2.11-.31-.94-.19-1.88-.35-2.82-.53ZM2.6,23.03h0c0,.58,0,1.16,0,1.73,0,.2,.07,.32,.28,.32,.48,0,.96,0,1.44-.01,.16,0,.27-.05,.28-.25,.04-.52,.11-1.03,.21-1.53,.15-.77,0-1.03-.7-1.39-.41-.21-.86-.33-1.19-.67-.06-.06-.1-.2-.22-.15-.12,.05-.1,.17-.1,.28,0,.56,0,1.12,0,1.67ZM24.21,12.68c-.57,.08-1.23,.18-1.88,.27-.13,.02-.29,0-.34,.12-.06,.16,.12,.23,.21,.32,.68,.62,1.35,1.25,2.05,1.85,.53,.46,1.04,.95,1.62,1.36,.11,.08,.23,.17,.37,.04,.13-.11,.06-.24,.01-.35-.52-1.12-1.05-2.25-1.57-3.37-.07-.15-.17-.29-.47-.24Zm3.36,3.38c0,.15-.02,.3,0,.44,.01,.1,.03,.23,.2,.23,.16,0,.2-.09,.23-.21,.07-.29,.13-.59,.2-.88,.27-1.1,.55-2.19,.86-3.27,.09-.3,0-.4-.3-.4-.36,0-.69,.12-.97,.36-.1,.08-.13,.18-.14,.31,0,1.14,0,2.29-.1,3.43Zm2.5,3.24c.07,.01,.14-.02,.21-.05,.4-.13,.8-.25,1.2-.37,.89-.28,1.69-.76,2.49-1.22,.08-.05,.27-.09,.19-.23-.06-.11-.19,0-.29,.04-.72,.24-1.44,.49-2.16,.74-.59,.2-1.2,.35-1.77,.6-.11,.05-.24,.12-.2,.28,.04,.15,.15,.23,.32,.21Zm-25.5,1.19h0c-.29,.01-.59,.01-.88,0-.15,0-.29,.06-.31,.2-.02,.14,.09,.24,.22,.27,.54,.13,.99,.39,1.34,.83,.12,.15,.29,.1,.36-.06,.13-.32,.25-.65,.35-.99,.06-.2-.05-.28-.25-.27-.27,.01-.55,0-.82,0Z"/><path class="d" d="M8.3,2.36c0,.32,0,.65,0,.97,0,.09,0,.21-.12,.25-.12,.04-.24-.01-.31-.12-.11-.17-.2-.18-.33-.02-.17,.2-.36,.23-.53-.01-.06-.08-.12-.17-.23-.05-.12,.12-.25,.25-.43,.16-.21-.11-.25-.31-.25-.53,0-.39,0-.78,0-1.18,0-.15,0-.29,.07-.43,.1-.2,.24-.34,.47-.35,.24,0,.34,.16,.42,.35,.07,.14,.09,.41,.22,.4,.15,0,.15-.26,.19-.42,.07-.26,.25-.36,.51-.34,.27,.02,.32,.22,.33,.44,0,.29,0,.59,0,.88h-.01Z"/><path class="d" d="M11.75,1.84c.09-.14,.09-.29,.12-.43,.05-.22,.2-.31,.41-.3,.21,.01,.35,.14,.35,.36,0,.53,.02,1.06,0,1.58-.01,.27-.19,.46-.46,.49-.28,.03-.39-.17-.46-.4-.05-.14-.07-.3-.19-.42-.13,.12-.07,.27-.08,.39-.02,.16-.07,.28-.19,.38-.1,.08-.2,.14-.32,.08-.12-.05-.22-.14-.22-.29,0-.64,0-1.27,0-1.91,0-.16,.11-.28,.25-.33,.16-.06,.3,0,.42,.12,.18,.19,.23,.45,.37,.66Z"/><path class="d" d="M23.31,2.17s0-.1,0-.15c0-.38,.04-.77,.46-.93,.44-.17,.85-.06,1.21,.23,.36,.3,.48,1,.29,1.47-.14,.34-.75,.88-1.22,.83-.38-.04-.66-.27-.7-.66-.01-.14-.02-.27-.03-.41,0-.13,0-.25,0-.38h-.01Zm.78,.11c0,.12,0,.23,0,.35,0,.1,0,.21,.13,.23,.12,.02,.25,0,.3-.13,.11-.28,.15-.57,.03-.85-.06-.14-.19-.16-.32-.14-.13,.02-.13,.12-.13,.22,0,.11,0,.21,0,.32Z"/><path class="d" d="M27.41,2.11c0-.06,0-.12,0-.18-.1-.77,.45-1.01,1.07-.89,.61,.12,1.04,.7,.96,1.25-.11,.75-.68,1.32-1.31,1.31-.31,0-.51-.15-.6-.45-.1-.34-.13-.69-.12-1.04Zm1.26,.15c-.01-.12,.03-.28-.08-.4-.07-.09-.15-.16-.27-.13-.13,.03-.11,.14-.12,.24,0,.22,0,.45,0,.67,0,.08-.01,.16,.07,.21,.09,.05,.15,0,.21-.04,.19-.13,.18-.33,.18-.54Z"/><path class="d" d="M9.69,2.12c.02-.25,.02-.51,.06-.76,.03-.19,.14-.32,.36-.32,.21,0,.31,.14,.32,.32,.03,.53,.11,1.05-.04,1.57-.2,.67-.98,.94-1.46,.48-.22-.2-.24-.51-.3-.78-.1-.46-.15-.93,.12-1.37,.08-.14,.18-.24,.35-.21,.19,.03,.21,.18,.22,.33,.03,.42-.03,.84,.04,1.26,.02,.12,.03,.22,.17,.22,.15,0,.18-.12,.18-.25,0-.17,0-.33,0-.5h-.02Z"/><path class="d" d="M30.37,2.51c0-.38,0-.63,.03-.89,.07-.57,.67-.8,1.13-.56,.49,.26,.7,.71,.68,1.26-.02,.54-.22,.96-.73,1.2-.27,.13-.56,.09-.83,.06-.16-.02-.22-.16-.24-.32-.02-.29-.05-.58-.05-.75Zm.6-.24c0,.12,0,.23,0,.35,0,.14,.05,.23,.19,.24,.14,.02,.28-.02,.31-.16,.04-.27,.06-.54-.03-.81-.05-.14-.16-.19-.3-.18-.16,.02-.16,.14-.17,.26,0,.1,0,.19,0,.29Z"/><path class="d" d="M14.84,3.62c-.52,0-1.01-.47-1.09-1.08-.06-.43,.04-.83,.29-1.2,.36-.54,1.18-.48,1.48-.09,.08,.1,.12,.2,.14,.31,.03,.18,.09,.4-.09,.51-.2,.11-.34-.07-.47-.19-.29-.27-.45-.23-.61,.12-.06,.14-.09,.28-.07,.43,.07,.45,.32,.56,.69,.31,.14-.09,.28-.29,.46-.18,.2,.12,.11,.36,.07,.54-.06,.3-.39,.52-.79,.52Z"/><path class="d" d="M18.58,3.24s0-.11,.03-.16c.24-.44,.28-.95,.45-1.42,.04-.1,.07-.21,.12-.3,.09-.16,.18-.34,.41-.32,.22,.02,.36,.17,.45,.36,.2,.4,.27,.83,.39,1.25,.05,.17,.11,.33,.15,.5,.04,.17-.02,.32-.16,.41-.15,.1-.27-.01-.38-.12l-.02-.02q-.41-.44-.85,0c-.11,.12-.24,.22-.41,.16-.15-.05-.19-.19-.19-.35Z"/><path class="d" d="M16.95,2.41c0-.18,0-.35,0-.53,0-.74,.52-1.08,1.22-.8,.36,.14,.56,.39,.56,.77,0,.43-.22,.76-.63,.89-.28,.09-.38,.24-.43,.51-.03,.19-.12,.38-.38,.36-.25-.03-.32-.2-.32-.41,0-.26,0-.53,0-.79h-.02Zm.89-.67c-.08,.02-.15,.06-.16,.17,0,.11,.08,.14,.17,.14,.1,0,.16-.05,.17-.16,0-.12-.09-.13-.18-.15Z"/><path class="d" d="M33.25,1.79c.18,.07,.34,.12,.49,.18,.13,.05,.25,.14,.22,.3-.03,.16-.14,.25-.3,.28-.13,.02-.27,.03-.4,.07-.06,.02-.18,0-.17,.12,0,.09,.1,.08,.16,.09,.18,.03,.37,.05,.55,.08,.17,.03,.3,.1,.3,.3,0,.18-.08,.31-.25,.35-.34,.09-.68,.08-1.02,.02-.17-.03-.29-.2-.31-.39-.06-.62-.07-1.23,.03-1.84,.03-.18,.16-.3,.33-.34,.37-.07,.72,.05,1.04,.22,.08,.04,.08,.12,.07,.21-.02,.12-.12,.14-.21,.18-.17,.07-.37,0-.54,.18Z"/><path class="d" d="M27.28,3.24c0,.17-.03,.27-.15,.33-.13,.07-.2-.02-.28-.09-.02-.01-.03-.03-.04-.04q-.44-.45-.87-.02c-.11,.11-.23,.17-.37,.1-.14-.07-.19-.2-.15-.35,.17-.66,.31-1.33,.62-1.95,.06-.13,.16-.2,.3-.19,.2,.02,.35,.12,.44,.29,.23,.48,.33,1,.44,1.51,.03,.14,.05,.29,.07,.39Z"/><path class="d" d="M20.72,2.12c0-.23,0-.47,0-.7,0-.13,.03-.26,.17-.32,.15-.06,.29,0,.4,.1,.14,.13,.18,.3,.18,.48,0,.27,.04,.55,.03,.82-.01,.26,.12,.36,.34,.37,.27,.01,.39,.14,.38,.41-.01,.29-.21,.33-.45,.33-.95,.01-1.05-.08-1.05-1.05,0-.15,0-.29,0-.44Z"/><path class="d" d="M15.95,2.33c0-.27-.01-.55,0-.82,.01-.22,.04-.45,.34-.46,.24-.01,.4,.18,.4,.47,0,.51,0,1.02,0,1.53,0,.12,0,.24-.08,.34-.1,.12-.21,.24-.39,.21-.18-.04-.26-.18-.26-.35-.01-.3,0-.61,0-.91h0Z"/><path class="d" d="M22.4,2.37c0-.29,0-.59,0-.88,0-.17,.06-.31,.27-.32,.19-.01,.35,.02,.43,.22,0,.02,.02,.04,.02,.06,.06,.58,.06,1.17,0,1.75-.02,.22-.22,.33-.47,.3-.24-.03-.25-.21-.26-.39,0-.24,0-.49,0-.73h0Z"/><path class="d" d="M13.6,1.72c-.08,.39-.04,.8,0,1.21,.01,.18,.01,.38-.16,.51-.28,.2-.56,.08-.58-.27-.03-.55-.04-1.1,0-1.64,.02-.21,.09-.36,.33-.37,.25,0,.37,.13,.4,.37,0,.06,.01,.12,.02,.19Z"/><path class="d" d="M26.04,39.54c.11,.16,.25,.13,.4,.12,.32-.02,.43,.15,.29,.44-.08,.17-.21,.3-.38,.39-.81,.43-1.69,.57-2.59,.68-1.26,.16-2.52,.18-3.79,.16-.24,0-.34,.1-.36,.32-.01,.15-.02,.29-.04,.44-.03,.27-.18,.34-.39,.16-.39-.33-.81-.63-1.15-1.01-.22-.24-.42-.49-.65-.72-.33-.34-.72-.39-1.15-.18-.09,.04-.17,.1-.26,.14-.42,.18-.74-.03-.69-.48,.04-.36-.08-.56-.39-.72-.58-.31-1.14-.64-1.6-1.13-.5-.53-.7-1.16-.72-1.87,0-.25,.12-.35,.34-.32,.23,.03,.46,.07,.69,.11,.11,.02,.23,.02,.3-.07,.07-.09-.03-.16-.07-.24-.11-.24-.23-.47-.34-.71-.23-.48-.09-.82,.42-.98,.33-.1,.66-.17,1.01-.18,1.2-.02,2.39-.04,3.59-.06,1.11-.02,2.22-.01,3.31-.23,.57-.11,1.06-.45,1.55-.74,.16-.1,.19-.32,.24-.49,.17-.64,.53-1.14,1.06-1.53,.65-.49,1.12-1.14,1.54-1.83,.25-.41,.6-.75,1.08-.9,.4-.13,.68,.03,.76,.44,.05,.25,.07,.5,.08,.76,.04,1.39,.07,2.78,.12,4.18,.04,1.06,.14,2.11,.29,3.16,.08,.59-.11,1.03-.59,1.37-.67,.48-1.3,1-1.93,1.54Zm-4.39,1.09c.26,0,.65-.02,1.04-.1,1.31-.3,2.43-.96,3.38-1.9,.54-.53,1-1.12,1.25-1.85,.32-.97,.26-1.94,.02-2.92-.06-.25-.18-.26-.37-.21-.27,.08-.53,.2-.76,.36-.16,.11-.33,.2-.53,.23-1.3,.17-2.6,.29-3.91,.34-.84,.04-1.68,.08-2.52,.11-.22,0-.27,.06-.16,.3,.28,.6,.5,1.23,.56,1.9,.06,.62-.11,1.18-.32,1.74-.07,.19-.04,.3,.15,.36,.37,.14,.38,.16,.18,.52-.05,.09-.08,.18-.14,.26-.17,.24-.1,.38,.15,.5,.6,.29,1.23,.37,2.01,.36Zm-2.7-3.6c-.46,.36-.91,.71-1.33,1.1-.1,.09-.25,.09-.35,0-.09-.09-.06-.22,.01-.33,.06-.1,.14-.19,.21-.28,.53-.7,.7-1.45,.34-2.28-.09-.21-.23-.36-.43-.46-.36-.17-.74-.14-1.12-.17-.05,0-.1,0-.12,.06-.02,.04,0,.07,.04,.1,.38,.31,.21,.72,.17,1.09-.02,.22-.27,.28-.43,.12-.29-.29-.57-.59-.82-.92-.14-.2-.3-.26-.52-.24-.05,0-.12-.03-.15,.05-.03,.06,.01,.11,.05,.16,.12,.14,.25,.27,.37,.42,.38,.49,.73,1,.58,1.68-.06,.29-.14,.35-.42,.26-.4-.13-.79-.29-1.19-.41-.1-.03-.23-.15-.32-.04-.08,.1-.02,.24,.03,.36,.19,.46,.55,.69,1.02,.77,.23,.04,.38,.12,.41,.38,.03,.25,.19,.4,.43,.46,.27,.08,.52,.21,.77,.34,.6,.33,1.19,.3,1.78-.05,.15-.09,.21-.21,.18-.36-.07-.3,.06-.51,.26-.7,.31-.3,.5-.67,.56-1.09Zm8.29-4.95c.12-.66,.05-1.33,.06-1.98,0-.13-.02-.25-.04-.38-.02-.14-.08-.19-.22-.11-.32,.18-.57,.44-.65,.79-.14,.64,.25,1.27,.85,1.68Zm-1.1-.05c-.05-.19-.12-.45-.2-.71-.03-.09-.11-.13-.21-.07-.21,.13-.42,.25-.62,.39-.12,.08-.12,.18,0,.25,.26,.14,.52,.27,.78,.4,.19,.1,.24,0,.25-.26Zm-1.98,1.47c.36,0,.62-.32,.54-.67-.02-.1-.07-.19-.19-.07-.14,.14-.3,.25-.45,.38-.1,.08-.26,.14-.2,.29,.05,.13,.21,.05,.31,.08Z"/><path class="d" d="M5.18,49.76c-.14,.17-.08,.35-.11,.51-.05,.3-.24,.4-.5,.24-.36-.22-.57-.54-.58-.96-.01-1.15,0-2.3,0-3.44,0-.18,.06-.32,.26-.37,.35-.09,.96,.1,1.18,.36,.16,.19,.14,.42,.18,.64,.06,.34,.08,.68,.12,1.02,0,.08,0,.18,.1,.19,.11,.02,.15-.11,.16-.18,.04-.28,.06-.56,.07-.85,.02-.58,.31-.87,.88-.77,.71,.12,.75-.03,.74,.8,0,1.03,0,2.06,0,3.09,0,.11,0,.22-.01,.32-.05,.38-.17,.48-.56,.46-.33-.02-.44-.15-.46-.52,0-.22,0-.43-.02-.65,0-.06-.01-.15-.11-.15-.07,0-.08,.07-.09,.13-.03,.23-.07,.46-.1,.69-.04,.31-.2,.45-.53,.48-.3,.02-.42-.14-.47-.4-.04-.21-.05-.42-.16-.66Z"/><path class="d" d="M35.52,47.6c.07,.64-.03,1.42-.34,2.17-.11,.26-.25,.51-.43,.72-.3,.36-.71,.4-1.12,.3-.46-.11-.76-.44-.84-.89-.17-.99-.26-1.98,0-2.97,.19-.74,.87-1.35,1.64-1.45,.63-.08,1.09,.32,1.1,.95,0,.33,0,.67,0,1.16Zm-1.6,.62c0,.37,0,.74,0,1.11,0,.12-.05,.28,.15,.28,.18,0,.18-.14,.19-.27,.1-.74,.03-1.48,.04-2.22,0-.08-.03-.15-.05-.23-.02-.08-.07-.12-.14-.12-.08,0-.12,.03-.15,.11-.03,.08-.05,.17-.05,.25,0,.36,0,.72,0,1.09Z"/><path class="d" d="M12.42,49.01c0,.21,.01,.43,0,.64-.03,.38-.23,.6-.61,.64-.19,.02-.35-.07-.41-.26-.04-.12-.05-.25-.05-.38,0-1.13,0-2.25,0-3.38,0-.02,0-.04,0-.06,.02-.61,.36-.84,.95-.66,.21,.07,.27,.25,.31,.43,.04,.2,.08,.4,.17,.59,.03,.07,.06,.17,.15,.14,.08-.02,.07-.11,.07-.18,0-.21,0-.41,0-.62,0-.28,.21-.51,.45-.53,.3-.03,.48,.11,.55,.44,.05,.23,.03,.47,.03,.7,0,.99,0,1.98,0,2.97,0,.44-.14,.63-.49,.68-.49,.07-.72-.08-.84-.51-.06-.22-.12-.45-.18-.67l-.11,.02Z"/><path class="d" d="M10.97,47.96c0,.58,.04,1.09-.15,1.58-.24,.63-.67,1.05-1.34,1.19-.64,.13-1.25-.28-1.31-.93-.09-.92-.08-1.84,0-2.75,.01-.15,.09-.28,.18-.4,.34-.47,.76-.81,1.36-.86,.64-.05,1.06,.32,1.21,1.02,.09,.41,.03,.82,.05,1.15Zm-1.25,.29c0-.33,0-.66,0-1,0-.15-.01-.3-.19-.3-.18,0-.21,.16-.21,.3,0,.67,0,1.35,0,2.02,0,.14,.01,.34,.21,.32,.18-.01,.18-.2,.18-.35,0-.33,0-.66,0-1Z"/><path class="d" d="M29.96,47.2c-.26,.68-.16,1.36-.04,2.05,.06,.34,.03,.7,.13,1.04,.07,.25-.13,.45-.42,.39-.52-.1-.68-.18-.69-.69,0-.31,.02-.63-.08-.93-.02-.07-.04-.15-.08-.22-.04-.07-.09-.14-.18-.12-.09,.02-.09,.11-.09,.19-.01,.31-.03,.63-.04,.94-.01,.33-.12,.47-.38,.5-.35,.04-.66-.13-.72-.4-.03-.14-.05-.29-.05-.44,0-1.09,0-2.18,0-3.26,0-.45,.08-.55,.53-.56,.66-.01,1.31,.05,1.8,.59,.25,.27,.33,.57,.33,.92Zm-1.05,0c-.03-.14-.07-.37-.28-.37-.24,0-.11,.25-.15,.39,0,.02,0,.04,0,.06,.03,.12-.04,.31,.19,.29,.18-.02,.23-.15,.24-.37Z"/><path class="d" d="M21.19,47.78c.01-.32,0-.73,.03-1.14,.05-.67,.71-1.27,1.33-1.37,.25-.04,.47,.04,.66,.18,.36,.26,.66,.58,.78,1.03,.1,.34,0,.55-.34,.7-.3,.13-.56,.05-.72-.24-.04-.08-.06-.17-.1-.24-.05-.1-.07-.24-.23-.23-.16,0-.17,.15-.2,.25-.17,.58-.15,1.18-.05,1.77,.02,.13,.04,.27,.07,.4,.02,.11,.06,.21,.21,.2,.13,0,.15-.1,.17-.2,.02-.13,.05-.27,.08-.4,.08-.32,.35-.47,.71-.39,.36,.08,.49,.25,.42,.6-.07,.38-.22,.72-.45,1.04-.38,.52-.92,.5-1.46,.43-.43-.06-.69-.33-.82-.74-.07-.24-.07-.48-.08-.73-.01-.27,0-.55,0-.91Z"/><path class="d" d="M26.99,49.48c0,.1,0,.17,0,.23,0,.24-.06,.43-.34,.46-.37,.05-.56-.05-.65-.34-.01-.04-.02-.07-.03-.11-.05-.19-.1-.39-.37-.38-.26,.01-.23,.22-.27,.38-.09,.35-.31,.5-.64,.43-.37-.08-.6-.36-.52-.68,.22-.97,.43-1.94,.59-2.93,.04-.26,.05-.53,.15-.77,.04-.09,.07-.19,.14-.25,.34-.32,1.2-.04,1.29,.42,.16,.79,.31,1.59,.46,2.38,.08,.39,.21,.77,.19,1.15Zm-1.48-1.61c0,.12,.01,.25,.16,.27,.11,.01,.13-.09,.12-.19-.01-.13-.05-.28-.17-.3-.11-.02-.1,.13-.1,.22Z"/><path class="d" d="M17.07,49.28c.11-1.03,.04-2.03,.06-3.02,.01-.6,.23-.75,.8-.57,.35,.11,.7,.23,1.06,.34,.17,.05,.3,.15,.4,.28,.16,.2,.14,.51-.03,.73-.16,.2-.34,.12-.53,.06-.15-.05-.34-.25-.48,0-.09,.17,.06,.39,.33,.5,.12,.05,.24,.09,.36,.14,.31,.13,.47,.53,.32,.83-.11,.24-.29,.33-.55,.24-.15-.05-.31-.14-.41,.05-.11,.21,0,.5,.21,.58,.13,.05,.26,.1,.38,.15,.43,.19,.6,.53,.46,.98-.06,.18-.2,.31-.38,.24-.43-.15-.89-.21-1.33-.34-.41-.12-.62-.38-.63-.81,0-.14-.03-.27-.04-.38Z"/><path class="d" d="M15.39,45.38c.32-.01,.65-.02,.96,.06,.26,.07,.47,.19,.51,.5,.04,.38-.03,.49-.4,.64-.14,.05-.2,.13-.22,.27-.06,.38-.01,.76-.03,1.14-.02,.55,.03,1.1-.04,1.64-.05,.37-.22,.54-.56,.54-.36,0-.59-.2-.61-.57-.02-.52-.02-1.04-.03-1.56,0-.39-.02-.78-.01-1.18,0-.26-.09-.4-.33-.47-.22-.06-.38-.2-.41-.45-.03-.27,.11-.48,.38-.53,.13-.03,.27-.03,.41-.03,.13,0,.25,0,.38,0Z"/><path class="d" d="M30.41,48.35c0-.57-.01-1.14,0-1.7,0-.36,.26-.57,.61-.55,.36,.01,.56,.23,.56,.6,0,.87,.02,1.74,.03,2.62,0,.21,.06,.33,.3,.33,.12,0,.23,.03,.35,.06,.3,.07,.49,.34,.46,.63-.03,.33-.21,.5-.57,.5-.36,0-.73,0-1.09,0-.51-.01-.62-.12-.66-.62,0-.11-.02-.21-.02-.32,0-.51,0-1.02,0-1.53h.03Z"/><path class="d" d="M19.58,25.3c.9,0,1.8,0,2.71,0,.54,0,.86,.31,.8,.75-.03,.23-.08,.46-.14,.69-.31,1.15-.97,2.08-1.79,2.91-.21,.21-.35,.16-.43-.12-.03-.11-.06-.23-.1-.34-.15-.49-.18-.96,.28-1.33,.05-.04,.08-.11,.12-.17,.31-.42,.15-.95-.36-1.05-.59-.11-1.17-.21-1.71-.46-.1-.05-.21-.03-.31,.02-.69,.3-1.28,.71-1.68,1.36-.3,.49-.2,.88,.29,1.16,.09,.05,.19,.1,.29,.14,.23,.1,.38,.26,.43,.52,.03,.18,.1,.35,.21,.51,.28,.4,.69,.33,1.09,.29,.16-.02,.32-.08,.49-.1,.11-.02,.22,.01,.27,.13,.05,.13,.01,.25-.09,.31-.94,.55-1.89,1.08-3,1.19-.55,.06-.75-.13-.8-.68-.12-1.16-.02-2.33-.05-3.5-.01-.47-.01-.94,0-1.41,0-.55,.26-.81,.81-.81,.9,0,1.8,0,2.71,0h0Z"/><path class="d" d="M15.33,20.97c-.03,.83,.03,1.6-.04,2.38-.01,.15,.01,.33-.18,.4-.18,.06-.3-.08-.41-.18-.74-.69-1.47-1.38-2.21-2.07-.49-.46-.98-.91-1.46-1.36-.26-.24-.25-.34,0-.6,.65-.71,1.53-.99,2.4-1.28,.4-.13,.8-.26,1.23-.26,.36,0,.56,.18,.61,.53,.13,.83,0,1.66,.06,2.44Z"/><path class="d" d="M16.07,21.14c.01-.85-.05-1.71,.04-2.56,.03-.32,.36-.63,.66-.57,1.09,.2,2.16,.47,3.08,1.12,.18,.12,.34,.26,.5,.41,.14,.13,.14,.29,.02,.42-.9,.93-1.79,1.87-2.71,2.77-.33,.33-.74,.58-1.12,.85-.3,.22-.45,.16-.46-.21-.02-.74,0-1.49,0-2.24Z"/><path class="d" d="M19.84,24.58c-.85,0-1.71,0-2.56,0-.12,0-.25,0-.29-.14-.04-.13,.03-.22,.12-.3,1.31-1.17,2.62-2.33,3.92-3.5,.19-.17,.35-.15,.53,.04,.8,.85,1.27,1.87,1.58,2.97,.16,.57-.13,.92-.75,.93-.85,.01-1.71,0-2.56,0h0Z"/><path class="d" d="M15.32,28.44c-.02,.89,.03,1.78-.04,2.67-.06,.66-.34,.9-.99,.73-.52-.14-1.02-.32-1.53-.48-.3-.09-.6-.18-.89-.28-.33-.12-.36-.26-.12-.54,.61-.72,1.39-1.08,2.32-1.16,.2-.02,.38-.1,.52-.25,.26-.27,.27-.58,0-.79-.63-.47-1.05-1.13-1.52-1.73-.02-.02-.03-.05-.05-.07-.42-.53-.27-.63-1-.39-.37,.12-.81-.14-.95-.51-.08-.21,.02-.33,.29-.33,.5,0,1,0,1.5,0,.59,.01,1.18-.04,1.76,.05,.4,.06,.66,.35,.67,.76,.01,.77,.08,1.55,.05,2.32Z"/><path class="d" d="M11.49,24.57c-.79,0-1.59,0-2.38,0-.18,0-.35-.02-.52-.07-.33-.09-.5-.39-.37-.71,.38-.95,.81-1.88,1.32-2.78,.24-.42,.62-.47,.98-.15,1.07,.95,2.14,1.9,3.2,2.85,.15,.13,.29,.26,.44,.39,.1,.09,.24,.18,.17,.34-.07,.16-.23,.12-.36,.12-.82,0-1.65,0-2.47,0Z"/><path class="d" d="M9.72,25.3c.12,0,.24,0,.35,0,.21,.01,.48-.08,.58,.16,.12,.29,.19,.63,0,.91-.34,.49-.81,.85-1.28,1.2-.09,.07-.2,.08-.31,.05-.56-.16-1.01-1.2-.77-1.74,.16-.38,.46-.54,.85-.57,.2-.01,.39,0,.59,0h0Z"/></g></g></g></svg>