<?xml version="1.0" encoding="UTF-8"?>
<svg id="Capa_2" data-name="Capa 2" xmlns="http://www.w3.org/2000/svg" viewBox="0 0 129.92 54.32">
  <defs>
    <style>
      .cls-1 {
        fill: #fff;
      }

      .cls-2 {
        fill: #f8f7f7;
      }
    </style>
  </defs>
  <g id="Capa_1-2" data-name="Capa 1">
    <g>
      <g>
        <path class="cls-2" d="m81.18,43.88q.09.95,1.04.95c.08,0,.17-.01.25,0,.42.07.53-.1.53-.52-.02-3.55,0-7.11,0-10.66,0-1.37,0-1.35-1.36-1.37-.41,0-.47.14-.46.49.02,1.21.01,2.43,0,3.64,0,.14.07.3-.08.42-1.69-1.73-4.62-1.32-6.01.18-1.64,1.77-1.75,4.62-.2,6.5,1.25,1.52,4.14,2.3,6.29.38Zm-2.7-6.44c1.49,0,2.71,1.33,2.7,2.93,0,1.62-1.22,2.93-2.71,2.93-1.62,0-2.75-1.23-2.75-2.96,0-1.67,1.18-2.9,2.75-2.9Z"/>
        <path class="cls-2" d="m61.43,44.84c2.12-.02,4.25,0,6.37,0,1.25,0,1.23,0,1.25-1.27,0-.39-.12-.47-.49-.47-1.72.02-3.44,0-5.16.02-.39,0-.48-.12-.47-.49.02-.88.02-1.75-.02-2.63-.02-.4.13-.48.5-.47,1.37.02,2.73,0,4.1,0,1.23,0,1.21,0,1.24-1.23,0-.43-.15-.49-.52-.48-1.62.02-3.24,0-4.85.01-.32,0-.44-.08-.43-.42.01-.88.01-1.75-.02-2.63-.02-.4.11-.52.51-.51,1.72.02,3.44,0,5.16.02.34,0,.5-.07.46-.44-.03-.3-.03-.61,0-.91.04-.39-.12-.47-.49-.47-2.38.02-4.75.02-7.13,0-.37,0-.48.08-.48.47.02,1.9,0,3.81,0,5.71,0,1.9.01,3.81-.01,5.71,0,.39.11.47.48.47Z"/>
        <path class="cls-2" d="m113.94,45c1.28.11,2.41-.25,3.34-1.2.17.35-.12.81.18.97.28.14.69.05,1.04.05.05,0,.1,0,.15,0,.33.05.43-.08.43-.41-.01-3.91-.01-7.82,0-11.73,0-.3-.06-.43-.39-.4-.32.03-.64.03-.96,0-.4-.04-.52.11-.51.51.02,1.31,0,2.63,0,4.12-.98-1.07-2.11-1.28-3.35-1.2-1.28.08-2.24.71-3.02,1.68-1.41,1.76-1.31,4.55.18,6.18.79.85,1.74,1.34,2.89,1.43Zm-1.59-6.43c.57-.83,1.78-1.33,2.67-1.11,1.2.3,2.06,1.23,2.17,2.34.02.2.03.4.03.48-.02,1.89-1.24,3.09-2.94,3.01-1.12-.06-2.23-1.11-2.39-2.22-.13-.89-.07-1.73.46-2.5Z"/>
        <path class="cls-2" d="m125.29,35.71c-2.62-.17-4.63,2.21-4.7,4.44-.08,2.76,2.06,4.86,4.66,4.87,2.6,0,4.56-2.02,4.66-4.48.12-2.76-2.21-5.02-4.62-4.83Zm-.02,7.58c-1.31.04-2.72-1.1-2.7-3,.02-1.8,1.42-2.9,2.78-2.87,1.48.04,2.62,1.3,2.62,2.93,0,1.69-1.16,2.94-2.71,2.93Z"/>
        <path class="cls-2" d="m108.35,44.44c-.01-1.89,0-3.78-.01-5.66-.01-1.26-.63-2.15-1.75-2.72-.72-.37-1.49-.39-2.26-.34-1.33.08-2.35.72-3.08,1.81-.15.22-.27.45.15.58.3.09.58.26.85.43.27.17.4.09.56-.16.37-.58.9-.92,1.59-1.03,1.16-.18,2.12.51,2.08,1.51,0,.18,0,.37-.24.37-.53,0-1.03.17-1.54.24-.86.11-1.72.23-2.53.61-1.76.83-2.07,3.19-.57,4.33.57.43,1.24.58,1.94.61,1.14.05,2.14-.32,3.04-1.17q.04.98.91.98c.15,0,.3-.01.45,0,.3.03.41-.07.41-.39Zm-4.36-.92c-.34.04-.69-.03-.99-.29-.66-.56-.49-1.55.32-1.95.52-.26,1.11-.25,1.66-.38.34-.08.69-.1,1.03-.2.3-.08.46-.05.49.36.09,1.24-1.05,2.56-2.51,2.45Z"/>
        <path class="cls-2" d="m89.13,45.02c2.62.03,4.67-1.99,4.71-4.61.04-2.52-2.02-4.83-4.65-4.7-2.49-.16-4.69,2.07-4.67,4.62.03,2.64,1.98,4.66,4.61,4.7Zm.25-7.58c1.36.07,2.56,1.28,2.51,2.93,0,1.75-1.24,2.98-2.94,2.92-1.15-.04-2.13-.93-2.43-2.32-.38-1.79.79-3.64,2.85-3.53Z"/>
        <path class="cls-2" d="m70.5,44.73c.28.29.83.05,1.25.11.43.06.53-.12.53-.53-.02-3.56,0-7.11-.01-10.67,0-.43.19-.99-.09-1.27-.28-.27-.83-.04-1.26-.09-.4-.05-.51.1-.51.5.02,1.9,0,3.81,0,5.71,0,1.67,0,3.34,0,5,0,.42-.18.95.08,1.22Z"/>
        <path class="cls-2" d="m96.66,44.83c.42.05.54-.11.53-.53-.03-1.53-.02-3.07,0-4.6.01-1.28.65-2.03,1.83-2.2.33-.05.78.15.95-.13.16-.27.05-.68.06-1.04,0-.05,0-.1,0-.15.05-.34-.08-.49-.44-.46-.92.07-1.79.24-2.35,1.1-.23-.29.11-.74-.23-.88-.27-.11-.63-.03-.95-.03-.07,0-.14,0-.2,0-.41-.07-.54.09-.54.52.02,2.36,0,4.72.02,7.08,0,.42-.18.96.07,1.22.28.28.83.05,1.26.1Z"/>
        <path class="cls-2" d="m94.37,48.5c-.52-.3-1.31-.17-1.85.31-.13.12-.19.26-.39.07-.76-.7-1.38-.72-2.27-.06.1-.44-.13-.43-.37-.43-.22,0-.22.14-.24.3-.14,1.15-.3,2.3-.43,3.45-.02.15-.25.41.14.46.33.05.4-.15.43-.41.09-.68.2-1.36.28-2.05.04-.33.16-.62.38-.86.3-.33.96-.48,1.3-.28.42.25.48.64.41,1.09-.11.73-.19,1.46-.27,2.2-.01.11-.09.25.09.29.14.03.33.08.42-.06.07-.1.06-.25.08-.38.14-.84.14-1.71.43-2.52.2-.54.87-.82,1.43-.65.41.12.65.64.52,1.22-.15.64-.12,1.31-.3,1.94-.04.14-.19.41.16.47.32.05.39-.1.42-.39.09-.75.22-1.49.34-2.24.1-.61-.17-1.19-.71-1.49Z"/>
        <path class="cls-2" d="m65.62,51.44c-.32-1.44-.65-2.87-.98-4.31-.04-.18-.05-.38-.33-.36-.22.01-.41,0-.54.26-.91,1.84-1.84,3.67-2.77,5.54.49.17.75-.01.91-.42.08-.22.2-.42.3-.63.11-.24.26-.34.55-.33.5.03,1.01.05,1.51,0,.5-.05.79.07.81.62,0,.2.09.39.11.59.03.3.25.21.42.22.23.02.24-.13.2-.3-.06-.3-.13-.59-.2-.88Zm-1.12-.84c-.49-.01-.97-.01-1.46,0-.22,0-.35-.07-.24-.29.43-.87.88-1.73,1.35-2.65.31.9.38,1.77.62,2.61.07.23-.01.34-.27.33Z"/>
        <path class="cls-2" d="m86.48,48.36c-1.23-.08-1.97.46-2.35,1.71-.29.94.12,1.96.96,2.43.75.42,1.92.16,2.53-.51.3-.33.09-.42-.16-.53-.23-.11-.28.14-.38.24-.87.82-2.08.54-2.38-.55-.08-.29-.05-.45.31-.44.42.02.84,0,1.26,0,.45,0,.91,0,1.36,0,.21,0,.34-.05.39-.29.19-.89-.63-2.01-1.55-2.07Zm.54,1.82c-.32-.03-.64,0-.96,0h0c-.34,0-.67-.01-1.01,0-.24.01-.29-.07-.24-.29.12-.53.67-.95,1.31-.98.56-.03,1.04.28,1.22.79.1.3.12.53-.33.49Z"/>
        <path class="cls-2" d="m72.15,48.36c-.59.04-1.04.33-1.39.79-.09.12-.04.2.07.23.14.04.23.31.43.12.1-.09.17-.21.27-.29.44-.37,1.27-.35,1.61.03.17.18.2.4.15.61-.06.23-.28.11-.43.15-.59.17-1.23.14-1.81.39-.58.25-.85.72-.79,1.41.04.48.36.75,1.01.87.58.11,1.08-.09,1.61-.43,0,.28.08.41.36.4.3-.02.25-.22.28-.39.12-.78.25-1.56.36-2.35.04-.3.02-.6-.15-.88-.37-.61-.93-.71-1.57-.66Zm.95,2.58c-.1.62-.84,1.27-1.48,1.25-.36-.01-.68-.14-.76-.53-.1-.47.22-.73.59-.85.41-.13.84-.24,1.31-.23.35-.14.39.03.34.36Z"/>
        <path class="cls-2" d="m98.23,48.35c-1.31-.1-2.3,1.15-2.29,2.23.02,1.24.82,2.12,2,2.12,1.24,0,2.25-1.02,2.26-2.28,0-1.21-.79-2.05-1.97-2.06Zm-.28,3.76c-.76,0-1.41-.67-1.41-1.46,0-.92.74-1.68,1.64-1.69.86-.12,1.43.73,1.41,1.41-.03.96-.73,1.74-1.63,1.74Z"/>
        <path class="cls-2" d="m122.29,48.34c-1.26.04-2.24.96-2.31,2.16-.06,1.13.75,2.21,2.02,2.2,1.23,0,2.22-1.02,2.23-2.29.13-1.08-.91-2.11-1.95-2.07Zm-.28,3.77c-.78,0-1.41-.64-1.41-1.45,0-.95.73-1.71,1.66-1.71.84,0,1.39.57,1.38,1.44,0,.91-.76,1.71-1.62,1.71Z"/>
        <path class="cls-2" d="m77.64,48.46c-.62-.26-1.21-.13-1.86.41.17-.41.01-.46-.22-.47-.26-.01-.29.14-.33.34-.21,1.14-.26,2.3-.5,3.44-.03.14-.16.42.21.44.32.02.33-.15.38-.39.16-.81.15-1.64.4-2.43.2-.62.8-.96,1.48-.83.47.09.6.43.58,1.17-.02.73-.26,1.43-.26,2.15,0,.15-.07.31.17.33.2.01.37,0,.4-.26.1-.9.24-1.8.31-2.7.04-.55-.25-.99-.75-1.2Z"/>
        <path class="cls-2" d="m115.73,48.61c-.55-.41-1.16-.35-1.75-.03-.16.09-.28.28-.31-.1-.01-.15-.23-.08-.36-.09-.18,0-.21.11-.23.26-.18,1.2-.36,2.39-.53,3.59-.02.14-.11.36.19.37.21,0,.34,0,.39-.29.16-.81.16-1.64.39-2.44.16-.55.6-.91,1.16-.92.7-.01,1.02.34.94,1.03-.09.73-.2,1.47-.28,2.2-.02.17-.13.42.23.43.33.01.33-.2.36-.42.08-.67.14-1.33.25-1.99.11-.62.08-1.2-.46-1.6Z"/>
        <path class="cls-2" d="m111.71,48.4c-.2-.01-.38-.04-.42.27-.1.8-.24,1.59-.38,2.39-.11.67-.8,1.16-1.44,1.04-.6-.12-.8-.57-.66-1.34.12-.68.19-1.36.28-2.05.02-.17.02-.31-.2-.31-.18,0-.37-.03-.4.25-.1.87-.21,1.74-.32,2.6,0,.6.29,1.16.75,1.32.49.17.99.17,1.46-.1.1-.06.18-.21.33-.08.44.37.56.33.65-.22.18-1.15.34-2.29.51-3.44.02-.14.09-.32-.16-.34Z"/>
        <path class="cls-2" d="m102.67,48.36s-.09,0-.17,0c-.58.04-1.18.56-1.27,1.11-.09.51.22.94.87,1.18.3.11.61.19.91.3.24.08.41.23.42.51,0,.26-.16.43-.36.56-.53.34-1.12.2-1.61-.44-.16-.2-.27-.19-.45-.11-.25.12-.11.27-.04.41.4.75,1.55,1.06,2.34.63.48-.26.77-.64.7-1.22-.06-.52-.41-.77-.87-.91-.32-.1-.63-.22-.94-.34-.22-.09-.37-.26-.35-.5.02-.27.16-.47.43-.57.51-.2,1-.07,1.32.41.15.22.25.21.44.1.21-.12.16-.25.06-.41-.31-.51-.76-.74-1.42-.71Z"/>
        <path class="cls-2" d="m81.5,48.36c-1.16-.12-2.37,1.05-2.18,2.6.1.78.46,1.38,1.21,1.63.87.3,1.79,0,2.31-.68.08-.11.27-.2.03-.35-.16-.1-.29-.3-.49-.03-.16.21-.36.39-.62.48-1.12.38-1.98-.41-1.81-1.69.08-.62.45-1.12,1.04-1.31.55-.17,1.15-.14,1.53.44.17.26.34.14.51.03.23-.15.06-.3-.03-.42-.38-.49-.87-.76-1.49-.71Z"/>
        <path class="cls-2" d="m126.83,48.36c-.1,0-.2,0-.3,0-.6.05-1.18.58-1.25,1.14-.07.52.22.91.89,1.17.28.11.58.17.86.28.25.09.44.23.44.54,0,.29-.18.44-.41.57-.54.29-1.1.15-1.57-.49-.17-.24-.29-.16-.45-.08-.21.1-.1.22-.03.37.4.87,1.63,1.03,2.37.64.49-.26.77-.66.68-1.23-.07-.5-.42-.76-.89-.9-.32-.09-.63-.22-.93-.34-.22-.09-.36-.26-.34-.51.02-.25.17-.43.4-.54.49-.22,1-.09,1.35.42.16.23.28.16.45.07.19-.1.14-.21.05-.37-.3-.52-.74-.76-1.33-.74Z"/>
        <path class="cls-2" d="m69.84,48.41c-.22-.01-.31.13-.4.31-.49.97-.99,1.93-1.54,2.99-.29-.61-.33-1.16-.47-1.69-.12-.47-.22-.95-.34-1.42-.07-.28-.31-.21-.5-.19-.21.03-.14.19-.1.31.3,1.17.59,2.33.9,3.49.04.14-.05.39.26.4.29,0,.46-.08.6-.35.61-1.17,1.23-2.33,1.85-3.5.05-.1.19-.19.12-.3-.08-.14-.24-.06-.37-.07Z"/>
        <path class="cls-2" d="m119.07,48.41c-.37.03-.54-.05-.43-.46.04-.15.23-.41-.13-.48-.31-.06-.41.11-.47.38-.06.3-.2.55-.56.54-.3,0-.3.19-.3.41,0,.29.21.21.36.2.3-.02.36.09.31.38-.12.73-.2,1.46-.28,2.09,0,.86.36,1.2,1.12,1.16.17,0,.29-.01.3-.23,0-.21-.04-.31-.28-.3-.45.02-.58-.25-.53-.65.08-.63.17-1.26.24-1.9.04-.4.19-.63.63-.55.31.06.43-.12.43-.4,0-.31-.25-.21-.4-.2Z"/>
        <path class="cls-2" d="m107.23,48.4c-.31-.06-.41.1-.44.39-.17,1.32-.38,2.63-.55,3.94-.09.66-.33.97-.99,1.06-.23.03-.29.13-.28.32.01.22.18.2.3.21.88.02,1.44-.58,1.56-1.55.16-1.3.37-2.59.54-3.89.02-.17.21-.41-.14-.48Z"/>
        <path class="cls-2" d="m107.35,46.77c-.5,0-.26.41-.36.63-.08.18.03.27.23.27.46,0,.33-.37.4-.56.06-.3-.07-.34-.27-.34Z"/>
        <polygon class="cls-2" points="97.51 5.03 97.51 5.03 97.52 5.02 97.51 5.03"/>
        <path class="cls-2" d="m79.19,14.78c.42-.16.81-.4,1.24-.54.96-.31,1.88-.23,2.78.27.69.39,1.42.47,2.18.17.31-.12.43-.33.5-.63.48-2.36,1.76-4.16,3.84-5.36,2.81-1.63,6.11-1.2,8.56.83.94.78,1.69,1.73,2.16,2.88.16.39.25.79.31,1.21.08.12.09.26.07.4.35.79,1.27,1.09,2.2.74.52-.19.98-.51,1.54-.62.81-.15,1.57-.04,2.29.35.25.14.52.27.79.32.24.05.59.21.7-.23.11-.48-.08-.71-.54-.8-1.8-.36-3.63-.46-5.43-.8-.11-.02-.26.01-.29-.14-.03-.21.16-.23.29-.28,1.18-.44,2.36-.88,3.54-1.32.41-.15.83-.28,1.23-.45.2-.09.51-.16.42-.47-.08-.28-.36-.26-.6-.23-.97.11-1.94.19-2.89.42-.16.04-.33.08-.49-.03-.08,0-.15.01-.23.02-.26.12-.53.12-.8.09-.1.08-.21.09-.33.06-.06.1-.17.11-.27.11-.16,0-.36.1-.45-.1-.09-.2.1-.3.24-.39,1.24-.89,2.49-1.78,3.73-2.67.11-.08.22-.16.32-.24.15-.12.21-.26.12-.44-.09-.17-.23-.17-.39-.14-.25.04-.47.21-.73.15-.04.01-.08.02-.12.03-.03.1-.08.17-.2.13-.05.02-.1.05-.15.07v.03s-.02-.02-.02-.02c-.06.03-.12.06-.18.09,0,0,0,0,0,0-.08.03-.16.06-.25.08-.33.26-.7.4-1.12.42-.07.03-.14.07-.21.1-.08.17-.2.25-.39.19-.06.06-.14.09-.23.07-.22.21-.48.33-.79.34-.06.07-.14.08-.22.07-.07.05-.13.11-.2.14-.13.06-.29.16-.4,0-.09-.13.02-.25.11-.36.59-.71,1.17-1.43,1.76-2.14.41-.49.82-.98,1.24-1.46.18-.21.21-.45.21-.7-.03,0-.05-.03-.05-.07-.36-.11-.62.16-.93.24-.05.04-.1.09-.15.13,0,.11-.02.17-.14.13-.04.02-.08.05-.12.07-.14.31-.38.49-.71.55-.02.02-.04.05-.07.07,0,0,0,0,0,0-.04.03-.07.07-.11.1,0,0,.01,0,.01,0-.15.1-.31.19-.46.29.02.08-.04.05-.08.05,0,.03-.02.04-.05.04-.12.16-.21.37-.47.35-.16.16-.29.35-.55.38-.05.04-.1.08-.15.12,0,.04-.02.06-.05.06-.13.26-.41.32-.61.49-.08.07-.17.13-.27.04-.08-.08-.05-.19-.01-.29.17-.38.35-.76.52-1.15.46-1.01.92-2.02,1.38-3.03.05-.11.07-.23.09-.34.02-.17.01-.34-.18-.43-.18-.09-.33,0-.45.12-.1.09-.15.23-.29.25-.11.28-.29.5-.53.67,0,0,0,0,0,0-.13.3-.29.58-.58.76-.04.05-.08.11-.12.16-.02.1-.09.15-.18.17,0,0,0,.03,0,.03,0,.07-.04.12-.11.13,0,0,.01,0,.01,0-.16.36-.38.68-.71.91,0,.26-.23.39-.36.58-.11.15-.18.44-.44.3-.21-.11-.13-.37-.08-.56.35-1.35.43-2.75.74-4.1.02-.08.03-.17.03-.25.01-.25-.03-.5-.33-.54-.26-.04-.43.13-.53.37-.3.75-.6,1.49-.91,2.24-.08.18-.12.39-.3.52.01.16-.04.3-.16.42-.04.05-.08.11-.11.16,0,0,.02.03.02.03-.03.32-.16.61-.3.9-.05.12-.11.28-.28.23-.13-.04-.12-.18-.15-.3-.24-.9-.15-1.84-.27-2.76-.08-.6-.14-1.2-.21-1.8-.03-.25-.13-.47-.43-.47-.3,0-.37.25-.4.49-.18,1.41-.36,2.82-.54,4.24-.01.08,0,.17-.02.25-.03.15-.06.33-.22.36-.19.04-.24-.16-.29-.29-.35-.91-.68-1.82-1.02-2.74-.17-.46-.32-.92-.5-1.37-.1-.26-.19-.58-.57-.52-.4.06-.27.4-.32.64.06.1.06.2.03.3.15,1.45.45,2.89.53,4.35,0,.11,0,.22-.11.25-.2.06-.25-.12-.33-.24-.89-1.25-1.78-2.49-2.66-3.74-.16-.23-.34-.42-.62-.27-.27.15-.17.41-.08.63.55,1.36,1.11,2.71,1.66,4.06,0,.02.02.03.02.04.02.21.26.45.08.61-.24.2-.43-.1-.59-.23-1.13-.93-2.25-1.87-3.38-2.8-.27-.22-.54-.5-.91-.14,0,.11,0,.22,0,.32,1.05,1.37,2.1,2.74,3.15,4.12.1.13.27.26.11.44-.13.15-.29.02-.42-.04-1.48-.67-2.96-1.35-4.44-2.03-.08-.04-.15-.08-.23-.1-.19-.07-.41-.16-.53.08-.11.21,0,.38.18.52.69.53,1.39,1.06,2.08,1.6.69.54,1.38,1.08,2.06,1.62.11.09.3.17.19.35-.09.16-.27.1-.41.08-1.57-.27-3.14-.53-4.71-.8-.35-.06-.7-.12-1.05-.07,0,0,0,0,0,0-.02.3.09.49.39.61,1.65.67,3.29,1.37,4.93,2.05.14.06.31.12.3.3-.01.21-.22.2-.35.21-.77.08-1.54.19-2.31.2-1.1,0-2.16.32-3.26.27-.02.02-.04.03-.07,0-.14.13-.4.15-.42.4-.03.25-.13.54.05.73.2.21.52.13.76.03Z"/>
        <polygon class="cls-2" points="99.73 2.2 99.74 2.19 99.74 2.19 99.73 2.2"/>
        <path class="cls-2" d="m78.66,17.96c.3,1.39.79,2.72,1.32,4.04,0,0,.01.01.01.01.35.56.75,1.09,1,1.71.04.04.07.09.11.13.23.18.4.4.49.68,0,0,.02.02.02.02.09.08.18.15.26.23,1.54,1.84,3.4,3.25,5.61,4.18,1.64.69,3.33,1.16,5.12,1.17.26,0,.47,0,.46-.36-.01-.94,0-1.89,0-2.83,0-.17-.05-.29-.23-.34-.72-.17-1.01-.68-1.17-1.36-.15-.62-1.46-.89-1.9-.42-.59.63-1.15.74-1.9.36-.96-.48-1.19-.93-1-1.89.2-.97-.59-1.75-1.54-1.51-.82.2-1.33-.06-1.83-.95-.42-.74-.35-1.28.24-1.86.18-.18.35-.35.34-.64,0-.88-.26-1.24-1.09-1.52-.08-.03-.15-.07-.22-.11-.59-.33-.78-.86-.73-1.49.03-.4-.13-.55-.52-.54-.53.02-1.03.14-1.49.41-.34.2-.68.37-1.09.33-.39-.03-.5.17-.47.53.04.4.14.8.06,1.2.01.1.03.2.04.31.1.08.11.19.07.3,0,.07.02.14.03.21Z"/>
        <path class="cls-2" d="m107.29,20.59c.58-1.49.79-3.05.98-4.62.04-.34-.1-.57-.48-.55-.39.02-.72-.13-1.05-.31-.97-.54-1.94-.56-2.94-.03-1,.53-2.04.54-3.04,0-1.01-.54-1.99-.53-2.97.04-.31.18-.64.27-1.01.3-.83.07-1.59-.09-2.32-.5-.6-.34-.77-.2-.77.48,0,2.34,0,4.68,0,7.03h0c0,2.38.01,4.75-.01,7.13,0,.5.16.62.63.62.65,0,1.27-.11,1.9-.23.89-.17,1.77-.42,2.6-.77.43-.18.57-1.86.2-2.13-.04-.03-.09-.05-.14-.06-.32-.07-.57-.28-.85-.44-1.31-.81-2.07-2.57-1.76-4.01.42-1.98,1.57-3.5,2.99-4.86.2-.19.36-.2.55.01,1.05,1.14,2.03,2.32,2.62,3.79.88,2.19.23,4.29-1.88,5.3-.74.35-.79.77-.75,1.39.02.46.15.56.55.33,1.09-.61,2.11-1.31,3.03-2.16,1.75-1.61,3.04-3.52,3.9-5.74Z"/>
        <path class="cls-2" d="m97.36,14.62c.79-.4,1.59-.64,2.48-.55.37.04.35-.21.28-.47-.79-2.95-3.51-5.34-6.77-5.25-3.23.02-5.92,2.12-6.71,5.24-.13.53-.08.6.47.52.62-.09,1.23.01,1.76.31,1,.56,1.96.59,2.97.06,1.06-.55,2.14-.51,3.2.03.76.39,1.55.51,2.33.11Z"/>
        <path class="cls-2" d="m93.01,15.77c-.02-1.26-.02-1.24-1.21-.66-.97.47-1.96.49-2.94-.04-.65-.35-1.34-.5-2.09-.31-.28.07-.33.2-.34.45-.02.78.12,1.53.37,2.27.94,2.72,2.9,4.19,5.66,4.72.43.08.61-.05.6-.52-.02-1.08,0-2.16,0-3.24-.01,0-.02,0-.03,0,0-.89,0-1.79,0-2.68Z"/>
        <path class="cls-2" d="m85.48,15.3c-.85.2-1.69.27-2.49-.2-.14-.08-.29-.13-.34.12-.1.47.19.94.66,1.03.13.03.27.04.39.09,1.07.44,1.38,2.2.53,3.04-.48.48-.5.7-.07,1.37.27.43.7.62,1.12.41.53-.27.93-.1,1.34.21.78.6,1.09,1.29.89,1.97-.2.67-.12.85.47,1.19.59.34.89.3,1.34-.17.29-.3.6-.57,1.05-.5.34.06.68.19,1.01.3.49.15.78.5.92.98.05.18.11.35.18.52.07.17.21.29.4.24.19-.04.16-.23.17-.38,0-.37,0-.74,0-1.11,0-.39-.01-.78,0-1.16.01-.3-.13-.44-.41-.44-.41,0-.79-.1-1.18-.2-2.03-.52-3.55-1.71-4.62-3.48-.65-1.07-.94-2.25-1.05-3.49-.01-.17.1-.44-.29-.35Z"/>
        <path class="cls-2" d="m99.82,25.99c0,.2,0,.44.33.34,1.11-.3,2.22-1.92,2.1-3.1-.19-1.89-1.23-3.34-2.47-4.68-.19-.2-.36-.16-.55.03-.84.86-1.57,1.82-2,2.95-.65,1.69-.43,3.41,1.16,4.49.22.15.45.42.71.31.26-.11.13-.46.13-.7.01-1.62,0-3.24,0-4.85,0-.27-.03-.63.33-.63.39,0,.25.37.26.59.02.84,0,1.69,0,2.53h0c0,.91,0,1.82,0,2.73Z"/>
      </g>
      <g>
        <g>
          <path class="cls-1" d="m8.29,16.09c0-5.18,0-10.35,0-15.53,0-.47.07-.59.58-.47,4.06.99,8.14.93,12.24.28.46-.07.93-.12,1.37-.25,1.15-.35,2.24.07,3.34.24,3.41.53,6.82.67,10.24.15.74-.11,1.47-.27,2.2-.45.38-.1.49.02.46.37,0,.05,0,.1,0,.15,0,10.25,0,20.5,0,30.75,0,1.94-1.07,3.43-2.8,3.9-.58.16-1.16.27-1.75.4-2.91.62-5.84,1.16-8.72,1.9-1.54.39-2.97.19-4.45-.14-3.05-.68-6.1-1.33-9.16-1.97-1.53-.32-2.73-1.03-3.31-2.56-.19-.51-.23-1.03-.23-1.57,0-5.08,0-10.15,0-15.23Zm2.64.8h0c0,4.39,0,8.79,0,13.18,0,.38,0,.76.13,1.13.45,1.27,1.33,2.04,2.63,2.35,3.2.77,6.4,1.52,9.6,2.28.19.05.36,0,.54-.04,3.01-.71,6.01-1.45,9.03-2.11,2.14-.47,3.23-1.87,3.22-4.01-.05-8.74-.02-17.48-.02-26.22,0-.65,0-.65-.63-.51-1.87.43-3.76.44-5.65.21-1.9-.23-3.77-.66-5.64-1.03-.43-.09-.85-.09-1.28,0-1.43.29-2.87.59-4.31.84-2.36.41-4.73.53-7.08-.05-.41-.1-.54-.01-.54.44.02,4.51.01,9.02.01,13.53Z"/>
          <path class="cls-1" d="m2.72,44.31c.16-.66.32-1.32.48-1.97.05-.19.09-.39.15-.58.11-.34.34-.51.71-.5.36.01.56.21.62.54.2,1.13.38,2.26.56,3.4.05.31-.06.58-.41.64-.36.06-.52-.18-.57-.49-.1-.66-.17-1.32-.26-1.98-.02-.14.02-.3-.16-.48-.14.57-.28,1.1-.41,1.63-.07.27-.15.54-.22.82-.08.29-.21.53-.57.52-.37,0-.53-.25-.6-.56-.15-.61-.29-1.23-.44-1.84-.04-.18-.09-.35-.18-.66-.21.69-.21,1.28-.31,1.85-.04.23-.06.46-.11.69-.06.3-.21.55-.57.5-.37-.06-.47-.35-.41-.68.13-.8.28-1.6.43-2.41.05-.28.1-.56.16-.83.08-.34.2-.64.63-.65.45-.02.67.24.77.63.21.8.41,1.61.62,2.41.03,0,.07,0,.1,0Z"/>
          <path class="cls-1" d="m41.99,53.64c-1.31-.01-2.17-.97-2.16-2.39,0-1.42.9-2.36,2.21-2.34,1.31.02,2.2,1,2.18,2.39-.02,1.4-.92,2.35-2.23,2.34Zm-1.06-2.27c0,.07.01.28.07.47.15.54.55.84,1.05.82.49-.01.88-.36.99-.89.08-.38.08-.76-.05-1.13-.16-.48-.54-.78-1-.76-.49.02-.8.28-.97.73-.08.21-.1.42-.1.76Z"/>
          <path class="cls-1" d="m22.96,51.29c0-1.42.87-2.37,2.18-2.38,1.3,0,2.21.96,2.22,2.36,0,1.4-.89,2.37-2.19,2.38-1.31,0-2.2-.94-2.2-2.36Zm1.11.13s.01.19.04.33c.14.6.53.93,1.07.91.51-.01.86-.35,1.01-.93.09-.37.07-.73-.04-1.08-.15-.46-.46-.77-.98-.78-.51,0-.83.28-1,.74-.08.22-.11.45-.1.79Z"/>
          <path class="cls-1" d="m11.4,43.2c0,.69,0,1.32,0,1.95,0,.33-.07.68-.48.68-.45,0-.52-.35-.52-.7,0-1.06,0-2.13,0-3.19,0-.27.01-.55.34-.65.3-.09.51.08.68.3.59.78,1.18,1.56,1.81,2.38.11-.25.07-.47.07-.67,0-.47,0-.93.01-1.4.01-.33.08-.66.52-.64.41.01.47.32.47.63,0,1.11,0,2.23,0,3.34,0,.24-.02.48-.28.59-.3.12-.52-.04-.69-.26-.51-.66-1.01-1.32-1.52-1.98-.1-.13-.16-.29-.41-.38Z"/>
          <path class="cls-1" d="m43.16,43.56c0-.52,0-1.03,0-1.55,0-.46.21-.72.68-.72.46,0,.93-.03,1.39.05,1.12.19,1.77,1.05,1.72,2.3-.05,1.22-.77,2.03-1.89,2.11-.43.03-.86,0-1.3.01-.42,0-.61-.21-.61-.61,0-.53,0-1.06,0-1.6Zm1.02,0c0,.33,0,.66,0,1,0,.17.04.27.24.3.53.07,1.08-.16,1.29-.57.26-.5.19-1.36-.14-1.7-.24-.25-1.01-.46-1.26-.3-.29.19-.09.52-.13.78-.03.16,0,.33,0,.5Z"/>
          <path class="cls-1" d="m34.84,43.52c0-.53,0-1.06,0-1.59,0-.38.18-.59.56-.62.61-.04,1.23-.07,1.83.11.93.27,1.5,1.23,1.39,2.32-.11,1.16-.79,1.92-1.84,2.01-.46.04-.93.01-1.39.02-.37,0-.55-.18-.55-.55,0-.56,0-1.13,0-1.69Zm1.42-1.26c-.14.04-.42-.12-.41.27.01.68,0,1.36,0,2.04,0,.18.05.26.25.28.82.1,1.36-.35,1.43-1.21.07-.88-.35-1.36-1.27-1.38Z"/>
          <path class="cls-1" d="m18.78,51.3c0-.55,0-1.1,0-1.64,0-.4.2-.62.61-.62.4,0,.8-.01,1.2,0,1.18.06,1.95.88,1.99,2.07.04,1.36-.66,2.23-1.89,2.36-.45.05-.89.04-1.34.02-.39-.02-.57-.22-.57-.6,0-.53,0-1.06,0-1.6,0,0,0,0,0,0Zm1.01-.04c0,.33,0,.67,0,1,0,.16.02.27.23.3.54.07,1.08-.14,1.3-.55.28-.52.2-1.4-.17-1.74-.35-.32-.8-.4-1.21-.27-.33.1-.09.5-.14.76-.03.16,0,.33,0,.5Z"/>
          <path class="cls-1" d="m35.65,51.27c0-.52,0-1.03,0-1.55,0-.44.18-.69.65-.68.43.01.87-.01,1.3.02,1.05.08,1.8.9,1.85,2,.07,1.23-.55,2.17-1.59,2.38-.56.11-1.12.09-1.69.05-.37-.03-.53-.22-.52-.58,0-.55,0-1.1,0-1.64,0,0,0,0,0,0Zm2.7-.06c0-.87-.57-1.34-1.44-1.24-.2.02-.25.11-.25.28,0,.68,0,1.36,0,2.05,0,.24.12.26.31.27.91.05,1.39-.42,1.38-1.35Z"/>
          <path class="cls-1" d="m3.08,51.28c0-.55,0-1.1,0-1.64,0-.39.19-.58.58-.58.37,0,.73-.02,1.1,0,1.26.04,2.08.86,2.12,2.1.04,1.34-.7,2.21-1.98,2.34-1.79.18-1.83.15-1.83-1.62,0-.2,0-.4,0-.6,0,0,0,0,.01,0Zm1.01,0c0,.33,0,.66,0,1,0,.16,0,.27.23.3.81.11,1.35-.3,1.44-1.13.1-.86-.29-1.36-1.09-1.46-.45-.06-.65.07-.58.55.03.24,0,.5,0,.75Z"/>
          <path class="cls-1" d="m28.94,51.92c0,.36.02.72,0,1.08-.02.3-.12.57-.5.56-.37,0-.48-.26-.48-.57,0-1.13,0-2.26,0-3.39,0-.28.11-.51.41-.53.6-.04,1.2-.1,1.78.07.6.18.94.59.98,1.18.04.58-.2,1.01-.75,1.22-.29.11-.22.21-.07.38.25.27.49.55.71.83.18.23.23.5-.02.71-.27.23-.53.13-.74-.11-.21-.23-.4-.49-.6-.73-.2-.24-.4-.49-.59-.73-.04,0-.08.02-.12.02Zm.01-1.44c.02.26-.14.64.39.58.38-.04.72-.1.71-.57-.01-.48-.38-.5-.75-.53-.46-.04-.34.28-.35.52Z"/>
          <path class="cls-1" d="m9.57,43.06c0,.5.06.99-.07,1.49-.23.89-.91,1.38-1.89,1.35-.98-.02-1.67-.55-1.8-1.46-.13-.89-.09-1.79-.04-2.69.02-.27.12-.49.44-.5.34-.02.49.19.52.48.03.48.03.96.04,1.44,0,.27,0,.53.01.8.04.61.35.95.86.96.49.01.83-.29.89-.88.05-.58.03-1.16.04-1.74,0-.2,0-.4.02-.6.04-.27.17-.47.48-.47.32,0,.46.2.48.47.03.45,0,.9,0,1.34Z"/>
          <path class="cls-1" d="m42.76,45.3c0,.29-.11.46-.35.52-.29.08-.46-.07-.61-.31-.12-.18-.03-.53-.33-.55-.48-.03-.96-.02-1.44.01-.17.01-.15.23-.21.36-.13.3-.27.62-.68.46-.37-.14-.35-.47-.25-.76.39-1.09.8-2.18,1.21-3.27.12-.31.35-.52.72-.52.37,0,.6.2.72.52.41,1.12.8,2.25,1.2,3.38.02.06.02.13.02.16Zm-1.97-2.95c-.18.54-.32.96-.46,1.38-.03.09-.1.22.05.23.26.02.56.08.78-.02.23-.1,0-.35-.03-.52-.07-.32-.19-.63-.34-1.08Z"/>
          <path class="cls-1" d="m29.66,45.34c0,.26-.14.42-.37.48-.29.08-.46-.08-.61-.32-.11-.18-.03-.53-.34-.55-.48-.03-.96-.02-1.44.02-.18.02-.16.27-.22.42-.13.27-.27.53-.63.42-.37-.12-.4-.43-.29-.74.4-1.11.81-2.21,1.23-3.32.12-.31.35-.52.72-.51.32,0,.56.15.66.44.43,1.17.84,2.34,1.26,3.51.02.05.01.1.02.14Zm-1.92-2.83s-.07,0-.11,0c-.13.4-.26.81-.41,1.21-.07.2-.02.28.19.27.15,0,.3,0,.45,0,.29.02.33-.1.24-.35-.14-.37-.24-.75-.36-1.13Z"/>
          <path class="cls-1" d="m31.3,53.01c.04-.12.07-.25.11-.38.35-.97.71-1.94,1.07-2.9.14-.39.33-.75.82-.75.49,0,.67.36.81.75.35,1,.7,2.01,1.06,3.01.12.33.16.65-.24.79-.41.15-.64-.12-.72-.48-.07-.33-.25-.43-.57-.39-.18.02-.37.02-.55,0-.44-.05-.77.01-.87.54-.05.26-.27.42-.57.35-.27-.07-.34-.29-.36-.54Zm1.98-2.92c-.19.57-.35,1.01-.49,1.45-.03.08-.01.18.1.18.28.01.6.11.82-.05.15-.1-.05-.36-.1-.54-.08-.3-.19-.6-.33-1.04Z"/>
          <path class="cls-1" d="m22.65,43.54c0-.55,0-1.1,0-1.65,0-.36.18-.56.54-.59.51-.04,1.03-.06,1.54.04.76.16,1.17.7,1.15,1.52-.01.79-.43,1.3-1.18,1.43-.32.06-.73-.04-.96.13-.23.16-.04.59-.1.9-.06.29-.18.52-.51.5-.33-.02-.45-.25-.47-.54,0-.05-.01-.1-.01-.15,0-.53,0-1.06,0-1.6,0,0,0,0,.01,0Zm1-.7c.07.21-.18.59.34.58.55-.02.78-.18.79-.6,0-.41-.21-.55-.74-.58-.54-.04-.34.34-.39.6Z"/>
          <path class="cls-1" d="m16.76,43.49c.03-1.6,1.35-2.66,2.8-2.23.19.06.38.14.53.27.18.16.25.35.13.58-.11.2-.28.27-.5.22-.06-.02-.13-.03-.19-.05-.52-.15-1.04-.19-1.39.33-.37.55-.38,1.17-.09,1.76.24.5.75.66,1.37.49.34-.09.76-.35.9.19.12.49-.31.67-.68.76-1.65.44-2.93-.62-2.87-2.32Z"/>
          <path class="cls-1" d="m12.69,51.28c0-.53,0-1.06,0-1.59,0-.42.2-.65.64-.64.46,0,.93,0,1.39.01.29.01.54.13.53.47,0,.31-.24.41-.51.44-.16.02-.33.01-.5.02-.27,0-.56-.09-.56.39,0,.45.24.41.53.42.38.02.92-.09.91.49-.01.54-.54.46-.9.45-.4,0-.58.08-.54.51.02.27.12.33.36.33.28,0,.56,0,.84.05.23.03.4.17.39.44,0,.26-.17.39-.41.42-.58.08-1.16.07-1.74.01-.34-.03-.44-.27-.44-.56,0-.55,0-1.1,0-1.64Z"/>
          <path class="cls-1" d="m7.48,51.24c0-.53,0-1.06,0-1.6,0-.42.21-.61.62-.6.43,0,.86,0,1.3,0,.31,0,.64.06.62.47-.01.41-.34.43-.65.45-.13,0-.27.01-.4,0-.29-.02-.49,0-.5.4,0,.4.19.42.49.41.16,0,.33.01.5.04.25.04.45.13.45.43,0,.3-.18.41-.44.44-.23.03-.46.05-.69.04-.31-.02-.3.18-.29.39.01.19-.09.46.28.45.28-.01.57,0,.85.03.25.03.45.16.45.44,0,.28-.19.41-.45.44-.56.06-1.13.06-1.69,0-.3-.03-.44-.21-.44-.5,0-.58,0-1.16,0-1.74,0,0,0,0,0,0Z"/>
          <path class="cls-1" d="m15.88,51.21c0-.53,0-1.06,0-1.59,0-.32.1-.62.48-.63.42,0,.51.31.51.65.01.85.02,1.69,0,2.54,0,.3.08.42.39.4.28-.02.56-.03.84.05.21.06.36.18.36.41,0,.26-.15.4-.39.43-.59.09-1.19.08-1.79.01-.31-.03-.41-.25-.41-.53,0-.58,0-1.16,0-1.74Z"/>
          <path class="cls-1" d="m30.06,43.52c0-.55,0-1.1,0-1.64,0-.32.09-.61.49-.61.41,0,.49.29.5.61.01.85.03,1.69,0,2.54,0,.35.1.47.45.44.25-.02.5,0,.74.03.23.03.4.17.4.43,0,.24-.15.39-.36.42-.63.09-1.26.08-1.89,0-.28-.03-.35-.28-.35-.53,0-.56,0-1.13,0-1.69Z"/>
          <path class="cls-1" d="m16.14,43.58c0,.55.01,1.1,0,1.64-.01.32-.11.61-.51.6-.37-.01-.47-.29-.47-.59,0-1.15,0-2.29,0-3.44,0-.31.12-.56.5-.55.35,0,.46.26.47.53.02.6,0,1.2,0,1.79,0,0,0,0,0,0Z"/>
          <path class="cls-1" d="m21.79,43.52c0,.58,0,1.16,0,1.74,0,.31-.13.56-.49.56-.33,0-.48-.25-.48-.53-.02-1.18-.02-2.36,0-3.54,0-.28.14-.52.49-.51.35,0,.47.23.47.52.02.58,0,1.16,0,1.74,0,0,0,0,0,0Z"/>
          <path class="cls-1" d="m33.98,43.54c0,.56,0,1.13,0,1.69,0,.31-.11.58-.46.6-.4.02-.52-.28-.52-.6-.02-1.13-.02-2.26,0-3.39,0-.31.11-.61.52-.59.38.02.46.29.46.59.01.56,0,1.13,0,1.69Z"/>
          <path class="cls-1" d="m32.44,17.69c0,2.8-.01,5.59,0,8.39,0,.75-.24,1.33-.77,1.86-1.33,1.32-2.73,2.54-4.46,3.3-2.97,1.3-5.78.85-8.43-.91-1.14-.76-2.14-1.68-3.08-2.67-.35-.37-.51-.8-.51-1.31,0-1.43,0-2.86,0-4.29,0-.65.43-1.13,1-1.14.61-.02,1.06.45,1.06,1.13,0,1.21,0,2.43,0,3.64,0,.6.18,1.08.63,1.5,1.14,1.07,2.34,2.01,3.83,2.55,1.88.68,3.66.41,5.38-.54.94-.52,1.75-1.2,2.54-1.91.52-.47.74-1.01.73-1.71-.02-3.91-.01-7.82-.01-11.73,0-1.1,0-2.2,0-3.29,0-1.26-.51-1.78-1.8-1.78-3.16,0-6.32,0-9.49,0-.73,0-1.46,0-2.2,0-.8,0-1.24-.4-1.23-1.06.02-.64.46-1.01,1.23-1.01,4.39,0,8.79,0,13.18,0,1.5,0,2.36.84,2.36,2.35,0,2.88,0,5.76,0,8.64Z"/>
          <path class="cls-1" d="m27.17,19.44c0-1.56,0-3.13,0-4.69,0-.23-.04-.44-.14-.67-.31-.74-.32-1.49.05-2.22.07-.13.13-.31.29-.3.16.01.22.19.28.32.36.72.36,1.45.05,2.17-.12.27-.16.53-.16.81,0,3.01,0,6.03,0,9.04,0,2.38-1.79,4.1-4.1,3.98-.73-.04-1.41-.28-1.99-.73-.25-.2-.43-.26-.64.03-.07.09-.16.27-.31.12-.18-.17,0-.27.11-.36.22-.18.25-.32.05-.56-.4-.48-.66-1.05-.73-1.67-.04-.37-.2-.44-.54-.44-.24,0-.68.2-.69-.17,0-.29.44-.14.68-.13.35,0,.49-.08.53-.45.06-.62.29-1.2.68-1.69.19-.24.23-.42-.04-.61-.09-.07-.2-.15-.08-.28.14-.16.24-.02.32.07.19.25.35.2.57.02.51-.42,1.11-.68,1.77-.75.34-.03.47-.17.42-.5-.02-.16-.01-.33,0-.5,0-.12-.05-.3.16-.29.2.01.14.19.14.31,0,1.6,0,3.2,0,4.79,0,1,.02,2,0,3,0,.38.13.45.46.39,1.59-.27,2.81-1.69,2.84-3.34.02-1.56,0-3.13,0-4.69h0Zm-3.77,4.14s.08-.04.12-.06c0-.89,0-1.78,0-2.68,0-.18-.1-.21-.27-.19-.6.11-1.15.31-1.64.69-.14.11-.21.2-.05.36.62.62,1.22,1.25,1.84,1.88Zm.16.92c-.74.72-1.37,1.35-2,1.97-.18.17-.04.25.08.35.45.36.97.56,1.54.66.26.05.4-.01.39-.32-.02-.83,0-1.66,0-2.66Zm-.31-.21c-.97,0-1.86,0-2.74,0-.21,0-.26.09-.23.27.1.62.35,1.17.73,1.66.1.13.19.16.32.03.62-.63,1.24-1.26,1.93-1.96Zm-2.16-2.4c-.43.44-.64,1.02-.77,1.65-.03.16-.07.36.19.36.85,0,1.7,0,2.57,0-.68-.69-1.32-1.33-1.99-2.01Z"/>
          <path class="cls-1" d="m29.51,14.82c.34-.03.39.15.3.46-.19.74-1,1.33-1.76,1.32-.23,0-.19-.12-.18-.26.05-.76.85-1.53,1.63-1.53Z"/>
          <path class="cls-1" d="m25.31,16.1c.76,0,1.53.76,1.57,1.53,0,.15.03.25-.19.24-.81-.03-1.54-.58-1.74-1.32-.11-.41-.08-.45.36-.45Z"/>
          <path class="cls-1" d="m29.84,18.21c-.07.76-1.04,1.53-1.79,1.47-.17-.01-.18-.09-.18-.22-.01-.78.95-1.64,1.72-1.55.22.02.29.12.25.3Z"/>
          <path class="cls-1" d="m25.31,19.19c.77.01,1.53.75,1.57,1.53,0,.11.06.23-.14.24-.72.06-1.6-.59-1.79-1.33-.11-.42-.08-.45.36-.44Z"/>
        </g>
        <g>
          <path class="cls-1" d="m23.17,20.44c-.08,0-.15.07-.15.15s.07.15.15.15.15-.07.15-.15-.07-.15-.15-.15Z"/>
          <circle class="cls-1" cx="23.55" cy="20.96" r=".15"/>
          <path class="cls-1" d="m22.8,20.76c-.08,0-.15.07-.15.15s.07.15.15.15.15-.07.15-.15-.07-.15-.15-.15Z"/>
          <path class="cls-1" d="m23.17,21.13c-.08,0-.15.07-.15.15s.07.15.15.15.15-.07.15-.15-.07-.15-.15-.15Z"/>
          <circle class="cls-1" cx="23.55" cy="21.65" r=".15"/>
          <circle class="cls-1" cx="22.42" cy="21.22" r=".15"/>
          <path class="cls-1" d="m22.8,21.45c-.08,0-.15.07-.15.15s.07.15.15.15.15-.07.15-.15-.07-.15-.15-.15Z"/>
          <path class="cls-1" d="m23.17,21.83c-.08,0-.15.07-.15.15s.07.15.15.15.15-.07.15-.15-.07-.15-.15-.15Z"/>
          <circle class="cls-1" cx="23.55" cy="22.35" r=".15"/>
          <circle class="cls-1" cx="22.02" cy="21.52" r=".15"/>
          <circle class="cls-1" cx="22.42" cy="21.91" r=".15"/>
          <path class="cls-1" d="m22.8,22.14c-.08,0-.15.07-.15.15s.07.15.15.15.15-.07.15-.15-.07-.15-.15-.15Z"/>
          <path class="cls-1" d="m23.17,22.52c-.08,0-.15.07-.15.15s.07.15.15.15.15-.07.15-.15-.07-.15-.15-.15Z"/>
          <circle class="cls-1" cx="23.55" cy="23.04" r=".15"/>
          <path class="cls-1" d="m21.65,21.69c-.08,0-.15.07-.15.15s.07.15.15.15.15-.07.15-.15-.07-.15-.15-.15Z"/>
          <circle class="cls-1" cx="22.02" cy="22.21" r=".15"/>
          <circle class="cls-1" cx="22.42" cy="22.61" r=".15"/>
          <path class="cls-1" d="m22.8,22.84c-.08,0-.15.07-.15.15s.07.15.15.15.15-.07.15-.15-.07-.15-.15-.15Z"/>
          <path class="cls-1" d="m23.17,23.21c-.08,0-.15.07-.15.15s.07.15.15.15.15-.07.15-.15-.07-.15-.15-.15Z"/>
          <circle class="cls-1" cx="23.55" cy="23.73" r=".15"/>
          <circle class="cls-1" cx="21.27" cy="22.15" r=".15"/>
          <path class="cls-1" d="m21.65,22.38c-.08,0-.15.07-.15.15s.07.15.15.15.15-.07.15-.15-.07-.15-.15-.15Z"/>
          <circle class="cls-1" cx="22.02" cy="22.9" r=".15"/>
          <circle class="cls-1" cx="22.42" cy="23.3" r=".15"/>
          <path class="cls-1" d="m22.8,23.53c-.08,0-.15.07-.15.15s.07.15.15.15.15-.07.15-.15-.07-.15-.15-.15Z"/>
          <path class="cls-1" d="m23.17,23.91c-.08,0-.15.07-.15.15s.07.15.15.15.15-.07.15-.15-.07-.15-.15-.15Z"/>
          <path class="cls-1" d="m20.9,22.32c-.08,0-.15.07-.15.15s.07.15.15.15.15-.07.15-.15-.07-.15-.15-.15Z"/>
          <circle class="cls-1" cx="21.27" cy="22.84" r=".15"/>
          <path class="cls-1" d="m21.65,23.08c-.08,0-.15.07-.15.15s.07.15.15.15.15-.07.15-.15-.07-.15-.15-.15Z"/>
          <circle class="cls-1" cx="22.02" cy="23.6" r=".15"/>
          <circle class="cls-1" cx="22.42" cy="23.99" r=".15"/>
          <path class="cls-1" d="m20.52,22.64c-.08,0-.15.07-.15.15s.07.15.15.15.15-.07.15-.15-.07-.15-.15-.15Z"/>
          <path class="cls-1" d="m20.9,23.02c-.08,0-.15.07-.15.15s.07.15.15.15.15-.07.15-.15-.07-.15-.15-.15Z"/>
          <circle class="cls-1" cx="21.27" cy="23.54" r=".15"/>
          <path class="cls-1" d="m21.65,23.77c-.08,0-.15.07-.15.15s.07.15.15.15.15-.07.15-.15-.07-.15-.15-.15Z"/>
          <path class="cls-1" d="m20.52,23.33c-.08,0-.15.07-.15.15s.07.15.15.15.15-.07.15-.15-.07-.15-.15-.15Z"/>
          <path class="cls-1" d="m20.9,23.71c-.08,0-.15.07-.15.15s.07.15.15.15.15-.07.15-.15-.07-.15-.15-.15Z"/>
        </g>
      </g>
    </g>
  </g>
</svg>