<?xml version="1.0" encoding="UTF-8"?><svg xmlns="http://www.w3.org/2000/svg" viewBox="0 0 64.6 54.78"><defs><style>.d{fill:#fff;}</style></defs><g id="a"/><g id="b"><g id="c"><g><path class="d" d="M15.59,31.87c0-.13,0-.21,0-.3,0-4.96-.01-9.91,0-14.87,.01-2.84,1.03-5.28,3.03-7.29,1.67-1.69,3.7-2.68,6.06-2.97,1.7-.22,3.36-.01,4.97,.57,1.41,.51,2.64,1.31,3.7,2.36,1.55,1.55,2.5,3.42,2.88,5.58,.41,2.33,.05,4.56-1.04,6.67-.58,1.12-1.33,2.1-2.28,2.91-1.16,.99-2.47,1.71-3.93,2.16-1.05,.32-2.12,.45-3.21,.46-.68,0-1.35,0-2.03,0-.11,0-.22,0-.34,0v-5.2c.08-.08,.17-.05,.26-.05,.79,0,1.58,0,2.36,0,.79,0,1.53-.18,2.24-.52,1.52-.73,2.45-1.95,2.8-3.58,.34-1.6,0-3.08-1.07-4.33-1.12-1.33-2.59-1.99-4.35-1.89-2.5,.14-4.27,1.97-4.73,4.04-.09,.4-.13,.81-.13,1.22,0,4.11,0,8.23,0,12.34,0,.71-.2,1.33-.68,1.85-.49,.53-1.1,.83-1.82,.84-.89,.01-1.77,0-2.7,0Z"/><path class="d" d="M47.89,15.19c.08,.36,.06,.75,.1,1.16,.37,.08,.73,.1,1.08,.21,.45,.13,.88,.31,1.28,.54,.14,.08,.21,.18,.2,.34-.01,.21-.02,.42-.04,.63-.01,.18-.1,.27-.26,.34-.68,.29-1.4,.43-2.14,.43-.09,0-.18,0-.28,0l-.23,1.18c.16,.07,.3,.13,.44,.19,.6,.26,1.12,.62,1.59,1.07,.17,.16,.21,.31,.12,.53-.07,.17-.13,.35-.19,.53-.05,.14-.13,.2-.29,.23-.78,.12-1.55,.06-2.31-.15-.05-.01-.1-.05-.18-.02l-.5,1.02c.02,.1,.12,.13,.18,.18,.56,.43,1.02,.94,1.4,1.54,.15,.24,.16,.44-.02,.66-.07,.09-.13,.18-.18,.28-.13,.26-.33,.31-.6,.26-.69-.11-1.33-.33-1.93-.68-.08-.04-.15-.09-.24-.13l-.8,.93c.03,.12,.12,.19,.19,.28,.45,.59,.78,1.24,.96,1.96,.03,.14,.02,.23-.09,.32-.17,.14-.34,.29-.5,.44-.13,.12-.26,.12-.42,.05-.66-.26-1.24-.65-1.75-1.13-.08-.08-.16-.15-.24-.23,0,0-.02,0-.05-.01l-.97,.66c.27,.62,.49,1.26,.47,1.96l-1.93-4.62c.06-.12,.16-.15,.24-.21,2.65-1.86,4.27-4.37,4.75-7.58,.87-5.75-2.92-11.2-8.61-12.43-2.03-.44-4.03-.32-6,.35-.17,.06-.31,.07-.48,.01-2.17-.75-4.36-.84-6.58-.25-.07,.02-.15,.05-.26,.03-.25-.41-.43-.87-.54-1.36-.02-.08,0-.15,.07-.21,.02-.01,.03-.03,.05-.05,.77-.7,.54-.67,1.46-.23,.46,.22,.86,.55,1.23,.9,.08,.08,.14,.17,.25,.22l.94-.65c-.38-.84-.61-1.7-.52-2.64,.23-.17,.48-.27,.73-.4,.16-.08,.28-.06,.42,.05,.59,.44,1.05,.98,1.43,1.6,.05,.08,.08,.18,.18,.26l1.16-.41c.03-.14,0-.26-.02-.38-.08-.7-.05-1.39,.14-2.08,.05-.17,.11-.27,.3-.3,.96-.2,.79-.29,1.35,.54,.34,.51,.54,1.08,.69,1.71,.42-.04,.83-.07,1.26-.07,.04-.34,.08-.66,.16-.97,.12-.49,.31-.94,.56-1.38,.09-.17,.21-.24,.4-.22,.26,.03,.53,.04,.8,.06,.44,.83,.56,1.7,.55,2.63l1.19,.23c.11-.04,.1-.13,.13-.2,.28-.7,.68-1.32,1.21-1.85,.14-.14,.26-.18,.44-.11,.12,.05,.25,.1,.38,.12,.35,.06,.45,.3,.47,.61,.05,.75,0,1.48-.25,2.22l1.15,.57c.53-.74,1.16-1.36,1.99-1.76,.25,.1,.46,.27,.68,.4,.21,.12,.24,.29,.21,.5-.1,.75-.32,1.36-.83,2.22l.9,.81c.11,0,.17-.09,.25-.15,.58-.45,1.21-.77,1.92-.97,.19-.05,.33-.03,.47,.13,.17,.2,.36,.39,.51,.63-.28,.87-.8,1.59-1.48,2.24l.69,1.02c.51-.22,1.02-.39,1.56-.48,.3-.05,.6-.05,.9-.05,.14,0,.23,.05,.29,.17,.03,.07,.08,.13,.11,.2,.32,.71,.39,.49-.15,1.14-.43,.52-.97,.9-1.59,1.23l.39,1.12c.13,.04,.25,0,.37-.02,.71-.09,1.41-.05,2.11,.14,.16,.04,.25,.11,.28,.28,.02,.12,.05,.24,.08,.36,.11,.57,.13,.47-.33,.81-.55,.41-1.17,.67-1.83,.83-.05,.01-.11,.01-.18,.1Z"/><path class="d" d="M41.4,31.84c-.12,.06-.22,.04-.32,.04-1.14,0-2.29-.02-3.43,0-1.29,.03-2.24-.77-2.63-1.76-.59-1.53-1.23-3.03-1.85-4.55-.03-.07-.07-.14-.07-.23,.9-.73,1.65-1.59,2.29-2.56,.25-.38,.44-.79,.64-1.2,.07-.14,.16-.25,.31-.33,1.51-.86,2.42-2.16,2.61-3.87,.24-2.14-.58-3.84-2.39-5.02-.32-.21-.55-.45-.7-.79-.35-.83-.89-1.53-1.47-2.2-.81-.94-1.77-1.7-2.85-2.32-.17-.1-.35-.19-.53-.28,3.34-1.12,8.84-.21,11.76,4.68,2.88,4.83,1.4,11.35-3.86,14.36,.8,2.02,1.66,4.02,2.5,6.03Z"/><path class="d" d="M64.6,54.77h-5.36v-9.31c.15-.04,5.1-.05,5.36-.01v9.32Zm-1.54-7.8h-2.28v6.27h2.28v-6.27Z"/><path class="d" d="M42.58,45.44h5.33v5.41c-.24,.01-.48,0-.72,0-.24,0-.47,0-.75,0l1.47,3.91h-1.63l-1.48-3.9h-.72v3.9h-1.51v-9.33Zm1.51,1.53v2.35h2.28v-2.35h-2.28Z"/><path class="d" d="M20.55,45.44h5.32v5.41h-1.45c.22,.68,.49,1.32,.73,1.96,.24,.65,.49,1.29,.74,1.96h-1.64l-1.48-3.9h-.73v3.9h-1.5v-9.33Zm1.51,3.87c.32,.04,2.15,.03,2.29-.01v-2.33h-2.29v2.34Z"/><path class="d" d="M39.55,54.77h-5.32v-9.33h5.32v9.33Zm-1.52-7.81h-2.27v6.27h2.27v-6.27Z"/><path class="d" d="M12.2,54.77H6.88v-9.33h1.49v7.79h2.32v-7.79h1.52v9.33Z"/><path class="d" d="M18.24,49.32v1.53h-3.02v2.38h3.81v1.53h-5.32v-9.33h5.33v1.51h-3.82v2.37h3.02Z"/><path class="d" d="M.04,54.77v-9.33H5.37v5.41H1.54v3.92H.04Zm1.51-5.46H3.83v-2.35H1.55v2.35Z"/><path class="d" d="M57.74,46.95h-3.8v6.28h3.8v1.53h-5.32v-9.33h5.33v1.51Z"/><path class="d" d="M29.3,46.95h-1.91v-1.51h5.33v1.51c-.63,0-1.26,0-1.92,0v7.8c-.07,.04-.13,.03-.19,.03-.43,0-.86,0-1.31,0v-7.83Z"/><path class="d" d="M23.4,21.15v-.36c0-1.34,0-2.68,0-4.02,0-1.32,.24-2.6,.71-3.83,.08-.21,.19-.35,.42-.42,1.82-.56,3.67-.04,4.9,1.42-.24,.41-.46,.83-.59,1.29-.16,.52-.23,1.06-.23,1.6,0,1.07,0,2.15,0,3.22,0,.25-.07,.38-.3,.48-.51,.23-1.01,.5-1.58,.57-.12,.01-.24,.04-.36,.04-.98,0-1.95,0-2.97,0Z"/><path class="d" d="M49.41,45.44h1.48v9.33h-1.48v-9.33Z"/><path class="d" d="M0,38.24H.89l.9,2.18,.9-2.18h.88v5.49c-.14,.04-.3,.01-.44,.02-.14,0-.28,0-.44,0v-3.15h-.04l-.85,2.05-.86-2.08h-.03v3.17H0v-5.49Z"/><path class="d" d="M9.71,38.24h.89l1.3,3.16h.04v-3.15h.89v5.49h-.89l-1.31-3.17h-.03v3.17h-.9v-5.49Z"/><path class="d" d="M46.84,41.47h-1.36v2.28h-.9v-5.49h3.15v5.49h-.89v-2.28Zm-.02-.92v-1.38h-1.34v1.38h1.34Z"/><path class="d" d="M28.35,38.24h3.13v5.49h-.89v-2.29h-1.33v2.29c-.31,0-.6,0-.9,0v-5.5Zm.9,.91v1.37h1.32v-1.37h-1.32Z"/><path class="d" d="M56.83,38.24h2.7c.03,.36,.06,.71,.09,1.07,.04,.54,.09,1.08,.13,1.62,.05,.59,.09,1.18,.13,1.77,.02,.31,.06,.62,.08,.94,0,.03,0,.06,0,.1h-3.13v-5.49Zm.91,.9v3.68h1.25l-.3-3.68h-.96Z"/><path class="d" d="M42.67,38.21c.04,.57,.08,1.13,.13,1.69,.05,.59,.11,1.18,.16,1.77,.04,.47,.07,.94,.1,1.41,.02,.2,.05,.41,.04,.63h-3.14v-5.5h2.71Zm-.54,4.59l-.3-3.69h-.97v3.69h1.26Z"/><path class="d" d="M52.37,43.71h-3.14v-5.5h2.7l.44,5.5Zm-.98-.91l-.3-3.68h-.96v3.68h1.25Z"/><path class="d" d="M8.22,38.25v5.48h-3.15v-5.49h.89v4.56c.16,.05,1.02,.06,1.36,.02v-4.55c.15-.06,.64-.07,.91-.03Z"/><path class="d" d="M61.45,43.73v-5.49h3.16v.89h-2.25v1.39h1.77v.91h-1.77v1.41h2.24v.9h-3.15Z"/><path class="d" d="M23.7,38.24h3.15v3.18h-2.25v2.31h-.9v-5.49Zm.91,.91v1.37h1.34v-1.37h-1.34Z"/><path class="d" d="M19.84,42.83v.9h-3.11c-.05-.17-.07-4.89-.02-5.49h3.13v.89h-2.22v3.7h2.22Z"/><path class="d" d="M28.58,27.57s.03,.04,.03,.06c0,.63,.04,1.26-.02,1.89-.11,1.28-1.14,2.29-2.42,2.34-.91,.03-1.82,0-2.75,0v-3.96c.06-.07,.15-.04,.24-.04,.65,0,1.31,0,1.96,0,.96,0,1.9-.08,2.83-.29,.04,0,.08-.03,.13,0Z"/><path class="d" d="M32.96,38.24h.9v4.6h2.24v.89h-3.14v-5.5Z"/><path class="d" d="M38.48,43.74h-.89v-5.5h.89v5.5Z"/><path class="d" d="M22.21,43.74h-.89v-5.5h.89v5.5Z"/><path class="d" d="M15.23,43.74h-.89v-5.49c.07-.04,.14-.02,.22-.02,.22,0,.44,0,.67,0v5.51Z"/></g></g></g></svg>