<?xml version="1.0" encoding="UTF-8"?><svg xmlns="http://www.w3.org/2000/svg" viewBox="0 0 75.96 59.84"><defs><style>.d{fill:#f7f7f7;}</style></defs><g id="a"/><g id="b"><g id="c"><g><path class="d" d="M22.28,48.33q.1,1.05,1.14,1.05c.09,0,.19-.01,.28,0,.46,.08,.59-.11,.58-.58-.02-3.92,0-7.83,0-11.75,0-1.51,0-1.49-1.49-1.51-.45,0-.51,.15-.51,.54,.02,1.34,.01,2.67,0,4.01,0,.15,.08,.33-.09,.46-1.86-1.91-5.09-1.46-6.62,.19-1.81,1.95-1.92,5.09-.22,7.16,1.37,1.67,4.56,2.54,6.93,.41Zm-2.97-7.09c1.64,0,2.98,1.46,2.97,3.23,0,1.78-1.34,3.23-2.98,3.22-1.78,0-3.03-1.35-3.03-3.26,0-1.84,1.29-3.2,3.03-3.2Z"/><path class="d" d="M.53,49.39c2.34-.02,4.68,0,7.02,0,1.38,0,1.36,0,1.38-1.4,0-.43-.13-.52-.54-.51-1.89,.02-3.79,0-5.68,.02-.43,0-.53-.13-.52-.54,.02-.96,.02-1.93-.02-2.9-.02-.44,.15-.52,.55-.52,1.5,.02,3.01,0,4.51,0,1.36,0,1.33,0,1.37-1.36,.01-.47-.17-.54-.57-.53-1.78,.02-3.56,0-5.35,.02-.36,0-.48-.09-.48-.46,.02-.97,.01-1.93-.03-2.9-.02-.44,.12-.57,.56-.56,1.89,.02,3.79,0,5.68,.02,.37,0,.55-.07,.51-.49-.03-.33-.04-.67,0-1,.05-.43-.13-.52-.53-.52-2.62,.02-5.24,.02-7.85,0-.41,0-.53,.08-.53,.51,.02,2.1,.01,4.2,.01,6.29,0,2.1,.01,4.2-.01,6.29,0,.43,.12,.52,.53,.52Z"/><path class="d" d="M58.37,49.57c1.41,.12,2.66-.28,3.68-1.32,.19,.39-.14,.9,.2,1.07,.31,.16,.76,.05,1.15,.06,.06,0,.11,0,.17,0,.36,.06,.47-.08,.47-.46-.01-4.31-.01-8.61,0-12.92,0-.33-.07-.48-.43-.45-.35,.03-.71,.03-1.06,0-.44-.04-.57,.12-.56,.56,.03,1.45,.01,2.89,.01,4.54-1.08-1.18-2.33-1.41-3.69-1.32-1.41,.09-2.47,.79-3.32,1.85-1.56,1.94-1.45,5.01,.2,6.81,.87,.94,1.92,1.47,3.18,1.58Zm-1.75-7.08c.62-.91,1.96-1.46,2.94-1.22,1.32,.33,2.27,1.35,2.39,2.58,.02,.22,.03,.44,.04,.53-.02,2.09-1.37,3.41-3.24,3.31-1.23-.06-2.46-1.22-2.63-2.45-.14-.98-.07-1.91,.51-2.76Z"/><path class="d" d="M70.87,39.34c-2.89-.19-5.1,2.44-5.17,4.9-.08,3.04,2.27,5.35,5.13,5.36,2.87,0,5.02-2.22,5.13-4.94,.13-3.04-2.43-5.53-5.09-5.32Zm-.02,8.35c-1.45,.04-3-1.21-2.97-3.3,.02-1.98,1.57-3.2,3.07-3.16,1.63,.04,2.89,1.43,2.88,3.23,0,1.86-1.28,3.24-2.98,3.23Z"/><path class="d" d="M52.2,48.95c-.02-2.08,0-4.16-.01-6.24-.01-1.39-.69-2.37-1.93-2.99-.8-.4-1.64-.43-2.49-.38-1.47,.08-2.59,.79-3.4,2-.16,.24-.3,.5,.16,.64,.33,.1,.64,.29,.94,.47,.3,.19,.44,.1,.62-.18,.41-.63,1-1.01,1.75-1.13,1.28-.2,2.34,.57,2.29,1.67,0,.2-.01,.4-.27,.4-.58,0-1.13,.19-1.7,.26-.95,.12-1.9,.26-2.78,.67-1.94,.92-2.28,3.51-.63,4.77,.63,.48,1.36,.64,2.14,.67,1.26,.05,2.35-.35,3.35-1.28q.05,1.08,1,1.08c.17,0,.34-.02,.5,0,.33,.04,.45-.08,.45-.43Zm-4.8-1.01c-.38,.04-.76-.04-1.1-.32-.73-.61-.54-1.7,.36-2.14,.58-.28,1.22-.28,1.83-.42,.37-.09,.76-.12,1.14-.22,.34-.09,.51-.05,.54,.4,.1,1.37-1.16,2.82-2.76,2.7Z"/><path class="d" d="M31.03,49.6c2.89,.04,5.15-2.19,5.19-5.08,.04-2.78-2.22-5.32-5.12-5.18-2.74-.17-5.17,2.28-5.14,5.09,.03,2.9,2.18,5.14,5.08,5.17Zm.28-8.35c1.49,.08,2.82,1.41,2.77,3.23,0,1.93-1.36,3.28-3.23,3.21-1.27-.05-2.35-1.02-2.67-2.55-.42-1.97,.87-4.01,3.14-3.89Z"/><path class="d" d="M10.51,49.27c.31,.32,.91,.06,1.38,.12,.47,.06,.58-.13,.58-.58-.02-3.92,0-7.83-.01-11.75,0-.48,.21-1.09-.1-1.39-.3-.29-.92-.04-1.39-.1-.45-.05-.56,.11-.56,.55,.02,2.1,.01,4.19,0,6.29,0,1.84,0,3.67,0,5.51,0,.46-.19,1.05,.09,1.35Z"/><path class="d" d="M39.33,49.39c.47,.06,.59-.12,.59-.58-.03-1.69-.02-3.38,0-5.07,.01-1.41,.72-2.23,2.02-2.43,.36-.05,.86,.17,1.04-.14,.17-.29,.06-.75,.07-1.14,0-.06,0-.11,0-.17,.05-.38-.08-.54-.49-.5-1.02,.08-1.98,.27-2.59,1.22-.25-.32,.12-.82-.26-.97-.3-.13-.69-.03-1.05-.03-.07,0-.15,.01-.22,0-.46-.08-.6,.1-.59,.57,.02,2.6,0,5.2,.02,7.8,0,.46-.2,1.06,.08,1.35,.3,.31,.92,.06,1.39,.12Z"/><path class="d" d="M36.81,53.42c-.57-.33-1.44-.19-2.04,.34-.14,.13-.2,.29-.43,.08-.84-.77-1.52-.8-2.5-.06,.11-.49-.14-.47-.41-.47-.24,0-.24,.16-.26,.34-.16,1.27-.33,2.53-.48,3.8-.02,.16-.28,.45,.15,.51,.36,.05,.44-.17,.48-.45,.1-.75,.22-1.5,.31-2.25,.04-.36,.18-.68,.42-.94,.33-.36,1.06-.53,1.43-.31,.46,.27,.52,.7,.45,1.21-.12,.8-.2,1.61-.3,2.42-.01,.12-.1,.28,.09,.32,.16,.03,.36,.09,.47-.06,.08-.11,.06-.28,.09-.42,.16-.93,.15-1.89,.48-2.78,.22-.6,.96-.9,1.57-.72,.45,.14,.72,.71,.57,1.35-.16,.71-.13,1.44-.33,2.14-.04,.16-.21,.46,.17,.52,.35,.06,.43-.11,.47-.43,.1-.83,.24-1.65,.38-2.47,.11-.67-.19-1.31-.78-1.64Z"/><path class="d" d="M5.14,56.66c-.36-1.58-.71-3.17-1.07-4.75-.04-.19-.06-.41-.36-.39-.24,.02-.45,0-.59,.29-1,2.03-2.02,4.04-3.06,6.1,.54,.19,.83-.01,1-.46,.09-.24,.22-.47,.33-.7,.12-.26,.29-.38,.6-.36,.55,.03,1.12,.05,1.67,0,.55-.05,.87,.07,.89,.68,0,.22,.1,.43,.13,.65,.03,.33,.28,.23,.46,.24,.26,.02,.26-.14,.22-.33-.07-.33-.14-.65-.22-.97Zm-1.24-.93c-.54-.02-1.07-.01-1.61,0-.24,0-.38-.08-.26-.32,.48-.96,.97-1.91,1.49-2.92,.34,.99,.42,1.95,.68,2.87,.07,.26-.01,.37-.3,.36Z"/><path class="d" d="M28.12,53.27c-1.36-.09-2.17,.5-2.59,1.88-.32,1.03,.13,2.16,1.06,2.67,.83,.46,2.12,.17,2.79-.56,.33-.36,.1-.46-.18-.59-.26-.12-.3,.16-.42,.26-.96,.9-2.29,.6-2.63-.6-.09-.32-.06-.5,.34-.48,.46,.02,.93,0,1.39,0,.5,0,1,0,1.5,0,.24,0,.37-.06,.43-.32,.21-.98-.7-2.21-1.71-2.28Zm.6,2.01c-.35-.03-.7,0-1.06,0h0c-.37,0-.74-.01-1.11,0-.26,.01-.32-.08-.26-.32,.14-.59,.74-1.05,1.45-1.08,.62-.03,1.14,.31,1.34,.87,.11,.33,.13,.59-.36,.54Z"/><path class="d" d="M12.34,53.27c-.65,.05-1.14,.37-1.53,.87-.1,.13-.04,.22,.08,.25,.16,.05,.25,.34,.47,.13,.11-.1,.19-.23,.3-.32,.48-.41,1.4-.38,1.77,.03,.18,.2,.22,.44,.16,.67-.06,.26-.31,.12-.47,.16-.65,.19-1.35,.16-1.99,.43-.64,.27-.94,.79-.87,1.56,.05,.53,.4,.83,1.11,.96,.64,.12,1.19-.1,1.77-.48,0,.31,.08,.45,.4,.44,.33-.02,.28-.24,.31-.42,.14-.86,.27-1.72,.39-2.58,.05-.33,.02-.66-.17-.96-.41-.67-1.03-.78-1.73-.73Zm1.05,2.85c-.11,.68-.93,1.4-1.63,1.38-.39-.01-.74-.15-.84-.58-.11-.52,.24-.81,.65-.94,.45-.14,.92-.27,1.44-.26,.38-.15,.43,.03,.37,.4Z"/><path class="d" d="M41.06,53.26c-1.44-.12-2.54,1.26-2.52,2.45,.02,1.37,.9,2.33,2.2,2.34,1.36,0,2.48-1.13,2.49-2.52,0-1.34-.87-2.26-2.17-2.27Zm-.31,4.14c-.84,0-1.55-.74-1.56-1.61,0-1.01,.82-1.86,1.8-1.86,.94-.13,1.58,.8,1.55,1.55-.04,1.06-.81,1.91-1.8,1.92Z"/><path class="d" d="M67.57,53.25c-1.39,.05-2.47,1.06-2.54,2.38-.07,1.24,.83,2.43,2.23,2.42,1.36,0,2.45-1.12,2.46-2.52,.15-1.19-1-2.32-2.14-2.29Zm-.31,4.16c-.86,0-1.55-.71-1.56-1.59,0-1.05,.8-1.88,1.82-1.88,.93,0,1.53,.63,1.52,1.59,0,1.01-.84,1.88-1.78,1.88Z"/><path class="d" d="M18.39,53.38c-.68-.28-1.34-.14-2.05,.45,.19-.45,.02-.51-.25-.52-.29-.01-.32,.16-.36,.38-.23,1.26-.29,2.54-.55,3.79-.03,.15-.18,.46,.23,.49,.35,.02,.36-.17,.41-.43,.18-.89,.16-1.81,.44-2.68,.22-.68,.88-1.05,1.63-.92,.52,.09,.67,.47,.64,1.28-.02,.8-.29,1.57-.29,2.37,0,.16-.08,.35,.19,.36,.22,.01,.41,0,.44-.28,.11-.99,.26-1.98,.34-2.98,.05-.61-.27-1.09-.83-1.32Z"/><path class="d" d="M60.34,53.55c-.61-.46-1.28-.38-1.93-.03-.18,.1-.31,.31-.34-.11-.01-.16-.25-.09-.39-.1-.2-.01-.23,.12-.25,.29-.19,1.32-.4,2.63-.59,3.95-.02,.15-.12,.4,.21,.4,.24,0,.37,0,.43-.32,.18-.89,.18-1.81,.43-2.69,.17-.6,.67-1,1.28-1.01,.77-.01,1.13,.37,1.04,1.14-.09,.81-.22,1.62-.31,2.42-.02,.19-.14,.46,.26,.47,.36,.01,.36-.22,.39-.46,.08-.73,.15-1.47,.28-2.19,.12-.68,.09-1.32-.5-1.76Z"/><path class="d" d="M55.91,53.31c-.22-.01-.42-.05-.46,.3-.11,.88-.27,1.75-.42,2.63-.13,.74-.89,1.28-1.58,1.14-.66-.13-.88-.63-.73-1.47,.13-.75,.2-1.5,.31-2.25,.03-.19,.02-.34-.22-.34-.2,0-.41-.04-.44,.28-.11,.96-.24,1.91-.36,2.87,0,.66,.32,1.28,.83,1.46,.54,.19,1.09,.18,1.61-.11,.11-.06,.2-.23,.37-.09,.49,.4,.62,.37,.72-.25,.2-1.26,.38-2.53,.56-3.79,.02-.16,.1-.35-.17-.37Z"/><path class="d" d="M45.95,53.27s-.1,0-.19,0c-.64,.04-1.3,.62-1.4,1.23-.1,.56,.24,1.03,.96,1.3,.33,.12,.67,.21,1,.33,.26,.09,.46,.26,.46,.56,0,.29-.17,.47-.4,.61-.59,.37-1.23,.22-1.78-.48-.17-.23-.29-.21-.49-.12-.27,.13-.13,.29-.04,.45,.44,.82,1.7,1.16,2.58,.69,.53-.29,.85-.7,.77-1.35-.07-.57-.45-.84-.96-1.01-.35-.11-.69-.24-1.03-.37-.25-.1-.4-.28-.38-.55,.02-.3,.18-.51,.47-.63,.56-.22,1.1-.08,1.45,.46,.16,.25,.27,.23,.48,.11,.24-.13,.18-.27,.07-.45-.34-.56-.83-.81-1.57-.78Z"/><path class="d" d="M22.63,53.27c-1.28-.13-2.62,1.15-2.41,2.87,.11,.86,.51,1.52,1.33,1.8,.96,.33,1.97,0,2.55-.75,.09-.12,.29-.22,.03-.39-.18-.11-.31-.33-.54-.03-.17,.23-.4,.43-.68,.52-1.23,.42-2.18-.45-1.99-1.86,.09-.69,.5-1.24,1.15-1.44,.61-.19,1.27-.15,1.68,.48,.19,.28,.37,.16,.56,.04,.25-.16,.07-.33-.03-.46-.42-.55-.96-.84-1.65-.79Z"/><path class="d" d="M72.57,53.27c-.11,0-.22,0-.33,0-.66,.06-1.3,.64-1.38,1.25-.08,.58,.24,1.01,.98,1.29,.31,.12,.63,.19,.95,.31,.27,.1,.49,.26,.48,.6,0,.32-.2,.49-.46,.63-.59,.32-1.22,.16-1.72-.54-.19-.26-.32-.17-.49-.09-.23,.11-.11,.25-.03,.41,.44,.96,1.8,1.13,2.61,.71,.54-.28,.85-.73,.75-1.35-.08-.55-.46-.84-.98-.99-.35-.1-.69-.24-1.03-.38-.24-.1-.4-.28-.37-.56,.03-.28,.18-.48,.44-.6,.54-.25,1.1-.1,1.49,.46,.18,.26,.31,.18,.5,.07,.2-.11,.16-.23,.06-.41-.33-.57-.81-.84-1.46-.82Z"/><path class="d" d="M9.79,53.32c-.24-.01-.34,.14-.44,.34-.54,1.06-1.09,2.12-1.7,3.3-.32-.67-.37-1.28-.52-1.86-.14-.52-.24-1.04-.37-1.56-.08-.31-.35-.23-.55-.21-.24,.03-.15,.21-.11,.34,.33,1.28,.65,2.57,1,3.85,.04,.15-.05,.43,.29,.44,.32,0,.51-.09,.66-.38,.67-1.29,1.36-2.57,2.03-3.85,.06-.11,.21-.21,.13-.34-.09-.15-.27-.07-.41-.08Z"/><path class="d" d="M64.02,53.32c-.4,.03-.59-.06-.48-.51,.04-.16,.26-.45-.14-.53-.34-.07-.46,.12-.52,.42-.07,.33-.23,.6-.62,.6-.33,0-.33,.21-.33,.45,0,.32,.23,.24,.39,.22,.33-.02,.39,.1,.34,.42-.13,.8-.22,1.61-.31,2.31,0,.95,.39,1.32,1.23,1.27,.18-.01,.32-.01,.33-.26,0-.23-.05-.34-.3-.33-.49,.02-.64-.27-.59-.72,.09-.7,.19-1.39,.26-2.09,.05-.44,.21-.7,.7-.6,.35,.07,.47-.13,.47-.44,0-.34-.28-.23-.44-.22Z"/><path class="d" d="M50.98,53.32c-.34-.06-.45,.11-.49,.42-.19,1.45-.41,2.9-.6,4.35-.09,.73-.36,1.07-1.09,1.17-.26,.03-.32,.14-.31,.35,.01,.24,.2,.22,.33,.23,.97,.03,1.59-.64,1.72-1.71,.18-1.43,.4-2.86,.6-4.29,.03-.19,.24-.45-.15-.52Z"/><path class="d" d="M51.11,51.52c-.55,0-.28,.46-.4,.69-.09,.2,.04,.29,.25,.3,.51,0,.37-.41,.44-.62,.07-.33-.08-.37-.3-.37Z"/><polygon class="d" points="40.27 5.54 40.27 5.54 40.28 5.53 40.27 5.54"/><path class="d" d="M20.09,16.28c.46-.17,.9-.44,1.37-.6,1.05-.34,2.08-.26,3.06,.3,.76,.43,1.56,.52,2.4,.19,.34-.13,.48-.36,.55-.69,.53-2.6,1.94-4.58,4.23-5.91,3.1-1.8,6.73-1.32,9.43,.91,1.04,.86,1.87,1.9,2.38,3.17,.18,.43,.28,.87,.35,1.33,.09,.14,.1,.29,.08,.44,.39,.87,1.39,1.2,2.43,.81,.57-.21,1.08-.57,1.7-.68,.9-.17,1.73-.05,2.52,.39,.27,.15,.57,.29,.87,.35,.27,.05,.65,.24,.77-.25,.12-.53-.09-.78-.6-.88-1.98-.4-4-.5-5.98-.88-.12-.02-.29,.01-.32-.16-.04-.23,.18-.25,.32-.31,1.3-.49,2.6-.97,3.9-1.46,.45-.17,.91-.31,1.35-.5,.22-.09,.56-.17,.46-.52-.09-.31-.39-.29-.66-.26-1.07,.12-2.14,.21-3.19,.46-.17,.04-.37,.09-.54-.03l-.25,.02c-.28,.13-.58,.13-.89,.1-.11,.09-.24,.1-.37,.06-.07,.11-.18,.12-.29,.13-.18,0-.4,.11-.5-.11-.1-.22,.11-.33,.26-.43,1.37-.98,2.74-1.96,4.11-2.94,.12-.09,.24-.18,.36-.27,.17-.13,.23-.29,.13-.49-.09-.18-.25-.18-.43-.15-.27,.05-.51,.24-.81,.17l-.13,.04c-.03,.11-.09,.18-.22,.14l-.16,.08v.03l-.02-.02-.19,.1h0l-.27,.09c-.36,.28-.77,.44-1.24,.47-.08,.04-.16,.07-.24,.11-.08,.19-.22,.27-.43,.21-.07,.07-.15,.1-.25,.08-.25,.23-.53,.37-.87,.37-.07,.08-.15,.09-.24,.07-.07,.05-.14,.12-.22,.15-.15,.07-.32,.18-.44,0-.09-.14,.02-.28,.12-.4,.65-.78,1.29-1.57,1.94-2.35,.45-.54,.9-1.08,1.37-1.6,.2-.23,.23-.49,.23-.77-.04-.01-.05-.03-.05-.07-.39-.12-.68,.18-1.02,.26l-.17,.15c0,.12-.02,.19-.16,.15-.04,.03-.08,.05-.13,.08-.15,.34-.42,.53-.78,.61l-.07,.08h0l-.12,.11h.01c-.17,.1-.34,.21-.5,.32,.02,.09-.04,.06-.08,.05,0,.03-.02,.05-.05,.05-.13,.18-.23,.4-.51,.39-.17,.18-.32,.39-.6,.42l-.17,.13s-.02,.06-.06,.07c-.14,.28-.46,.35-.67,.54-.08,.07-.19,.15-.29,.04-.09-.09-.06-.21-.01-.31,.19-.42,.38-.84,.58-1.26,.51-1.11,1.02-2.22,1.52-3.34,.05-.12,.08-.25,.09-.38,.03-.19,.01-.37-.2-.47-.2-.1-.36,0-.5,.13-.11,.1-.16,.25-.32,.28-.12,.31-.32,.55-.59,.74h-.01c-.14,.34-.32,.64-.64,.85l-.13,.17c-.02,.11-.1,.16-.2,.19v.03c0,.08-.03,.13-.12,.14h.01c-.18,.4-.42,.75-.78,1-.01,.29-.25,.43-.4,.64-.12,.16-.2,.48-.48,.34-.23-.12-.14-.41-.09-.61,.39-1.49,.47-3.03,.82-4.52,.02-.09,.03-.18,.03-.27,.01-.28-.04-.55-.36-.59-.29-.04-.48,.14-.58,.41-.33,.82-.66,1.65-1,2.46-.08,.2-.13,.43-.33,.57,.02,.18-.04,.33-.18,.46l-.13,.18,.02,.03c-.03,.36-.18,.68-.33,.99-.06,.13-.12,.31-.31,.25-.14-.04-.13-.2-.16-.33-.27-1-.16-2.03-.29-3.04-.08-.66-.15-1.32-.23-1.98-.03-.28-.15-.52-.47-.52-.34,0-.41,.27-.45,.54-.2,1.56-.4,3.11-.6,4.67-.01,.09,0,.19-.02,.28-.04,.16-.06,.37-.25,.4-.21,.04-.27-.18-.32-.32-.38-1-.75-2.01-1.12-3.01-.19-.5-.35-1.01-.55-1.51-.11-.29-.2-.64-.63-.57-.44,.06-.3,.44-.36,.71,.06,.1,.07,.22,.03,.33,.17,1.6,.5,3.18,.59,4.79,0,.12,0,.24-.12,.28-.22,.07-.27-.13-.37-.26-.98-1.37-1.96-2.75-2.93-4.12-.18-.25-.37-.47-.68-.3-.29,.16-.19,.46-.09,.7,.6,1.49,1.22,2.98,1.83,4.48,0,.02,.02,.03,.02,.05,.03,.23,.29,.5,.09,.67-.26,.22-.48-.11-.66-.25-1.25-1.02-2.48-2.06-3.72-3.09-.29-.24-.6-.56-1.01-.16v.36c1.16,1.51,2.32,3.02,3.48,4.53,.11,.14,.29,.29,.12,.48-.14,.16-.32,.02-.46-.04-1.63-.74-3.26-1.49-4.89-2.24-.08-.04-.17-.08-.25-.11-.21-.07-.45-.18-.59,.08-.12,.23,0,.42,.2,.57,.76,.59,1.53,1.17,2.29,1.76,.76,.59,1.52,1.19,2.27,1.79,.12,.09,.33,.18,.21,.39-.1,.18-.29,.11-.46,.09-1.73-.29-3.46-.58-5.19-.88-.38-.07-.77-.13-1.16-.08h0c-.03,.34,.1,.55,.43,.68,1.81,.74,3.62,1.5,5.43,2.26,.16,.07,.34,.13,.33,.33-.01,.23-.24,.22-.39,.23-.85,.09-1.7,.21-2.55,.22-1.21,0-2.38,.36-3.59,.3-.02,.03-.05,.03-.07,0-.16,.14-.44,.17-.47,.44-.03,.27-.14,.6,.05,.8,.22,.23,.57,.14,.84,.04Z"/><polygon class="d" points="42.72 2.42 42.72 2.42 42.72 2.41 42.72 2.42"/><path class="d" d="M19.5,19.79c.33,1.53,.87,3,1.45,4.45v.02c.4,.61,.84,1.2,1.12,1.88l.12,.14c.26,.19,.44,.44,.54,.75l.02,.02c.09,.09,.2,.16,.28,.26,1.69,2.03,3.74,3.58,6.17,4.61,1.8,.76,3.67,1.28,5.64,1.29,.28,0,.51,0,.51-.39-.01-1.04,0-2.08,0-3.12,0-.19-.06-.32-.26-.37-.8-.18-1.11-.75-1.29-1.5-.16-.69-1.61-.98-2.09-.46-.65,.7-1.27,.82-2.09,.4-1.05-.53-1.31-1.03-1.1-2.08,.22-1.07-.65-1.92-1.69-1.67-.91,.22-1.46-.07-2.02-1.05-.46-.81-.39-1.41,.26-2.05,.2-.2,.38-.38,.38-.71-.01-.97-.29-1.37-1.2-1.67-.09-.03-.16-.08-.24-.13-.65-.36-.86-.95-.8-1.64,.04-.44-.14-.61-.58-.59-.59,.02-1.13,.15-1.64,.45-.37,.22-.75,.4-1.2,.37-.43-.03-.55,.19-.52,.58,.04,.44,.15,.88,.06,1.33l.04,.34c.11,.09,.12,.21,.08,.33,.01,.08,.02,.15,.03,.23Z"/><path class="d" d="M51.04,22.68c.64-1.65,.87-3.36,1.08-5.09,.04-.37-.1-.63-.52-.6-.43,.02-.79-.14-1.15-.34-1.07-.59-2.14-.62-3.24-.04-1.1,.59-2.25,.6-3.35,0-1.11-.59-2.19-.58-3.27,.05-.34,.2-.71,.29-1.11,.33-.91,.08-1.75-.1-2.56-.55-.66-.37-.85-.22-.85,.52,0,2.58,0,5.16,0,7.74h0c0,2.62,.02,5.23-.01,7.85,0,.56,.17,.69,.7,.68,.71,0,1.4-.12,2.09-.25,.98-.19,1.95-.46,2.87-.85,.47-.2,.62-2.05,.22-2.34-.04-.03-.1-.06-.15-.07-.36-.08-.63-.3-.93-.49-1.44-.89-2.28-2.83-1.94-4.42,.47-2.18,1.73-3.86,3.29-5.36,.22-.21,.39-.22,.61,.01,1.16,1.26,2.23,2.56,2.89,4.18,.97,2.41,.26,4.73-2.07,5.84-.81,.39-.87,.85-.83,1.53,.03,.51,.17,.62,.61,.37,1.2-.68,2.33-1.45,3.34-2.38,1.92-1.77,3.34-3.88,4.29-6.32Z"/><path class="d" d="M40.11,16.1c.87-.44,1.75-.7,2.73-.6,.41,.04,.39-.23,.31-.52-.87-3.25-3.87-5.88-7.46-5.79-3.56,.02-6.53,2.33-7.4,5.77-.15,.58-.09,.66,.52,.57,.69-.1,1.36,.02,1.94,.34,1.1,.62,2.16,.64,3.28,.07,1.17-.6,2.36-.56,3.52,.04,.84,.43,1.7,.56,2.56,.13Z"/><path class="d" d="M35.31,17.37c-.02-1.39-.02-1.36-1.33-.72-1.07,.52-2.16,.54-3.24-.04-.72-.39-1.48-.55-2.31-.34-.3,.08-.37,.22-.37,.5-.02,.86,.13,1.69,.41,2.5,1.03,3,3.2,4.61,6.23,5.2,.48,.09,.68-.06,.66-.57-.03-1.19,0-2.38,0-3.57h-.04c0-.98,0-1.97,0-2.95Z"/><path class="d" d="M27.02,16.85c-.93,.22-1.86,.3-2.74-.22-.15-.09-.32-.14-.37,.13-.11,.52,.21,1.03,.73,1.14,.14,.03,.29,.05,.43,.1,1.18,.49,1.51,2.42,.58,3.35-.53,.53-.55,.78-.08,1.51,.3,.47,.77,.69,1.23,.45,.58-.3,1.02-.11,1.47,.24,.86,.66,1.2,1.42,.98,2.17-.22,.73-.13,.94,.52,1.31,.65,.37,.99,.33,1.48-.19,.32-.33,.67-.63,1.15-.55,.38,.06,.74,.21,1.11,.33,.55,.17,.86,.55,1.02,1.08,.06,.19,.12,.39,.2,.57,.08,.18,.23,.32,.44,.27,.21-.05,.18-.25,.18-.42,0-.41,0-.82,0-1.22,0-.43-.01-.85,0-1.28,.01-.33-.14-.49-.46-.49-.45,0-.87-.11-1.3-.22-2.23-.58-3.91-1.88-5.09-3.84-.72-1.18-1.04-2.48-1.16-3.85-.02-.18,.11-.49-.32-.39Z"/><path class="d" d="M42.81,28.62c0,.22-.01,.48,.36,.38,1.22-.34,2.44-2.12,2.31-3.42-.21-2.08-1.35-3.68-2.72-5.16-.21-.22-.39-.18-.6,.04-.93,.95-1.73,2-2.2,3.25-.71,1.87-.48,3.76,1.27,4.95,.24,.16,.5,.46,.78,.34,.29-.13,.14-.5,.14-.77,.01-1.78,0-3.56,0-5.35,0-.29-.03-.69,.36-.7,.43,0,.28,.41,.28,.65,.02,.93,0,1.86,0,2.78h0c0,1,0,2,0,3.01Z"/></g></g></g></svg>