<svg width="138" height="172" viewBox="0 0 138 172" fill="none" xmlns="http://www.w3.org/2000/svg">
<path d="M135.315 76.79C135.315 76.79 135.315 76.77 135.315 76.76C133.135 67.84 129.535 59.54 124.805 52.15C124.305 51.57 123.815 51.31 123.335 51.28C120.175 51.12 117.405 61.33 113.485 58.69C112.615 57.62 110.415 44.06 104.025 30.1C98.1547 17.28 88.7547 4.13 73.5947 0C75.1247 9.74 74.5547 23.48 68.1247 33.15C66.2847 35.92 63.9647 38.35 61.0647 40.26C56.8547 42.56 57.1047 34.33 55.9947 30.72C55.6747 29.7 55.2547 29.05 54.5947 29.11C43.6747 39.06 23.9147 63.27 14.7547 80.72C0.00472641 108.82 -10.2653 136.45 17.1147 168.7C21.6747 173.22 28.7547 171.93 30.8747 164.75C35.9747 147.49 49.8147 133.3 49.8147 133.3C49.8147 133.3 40.7247 134.76 35.7847 140.9C34.8347 142.08 33.7447 143.83 32.4547 144.18C29.6347 144.97 28.2747 141.61 29.2547 139.93C29.8847 138.84 32.1747 138.17 32.0547 137.81C31.8447 137.2 31.0547 135.1 32.1147 134.66C33.1747 134.22 33.4647 137.6 35.7747 136.13C42.7647 129.8 54.0447 126.72 54.0447 126.72C54.0447 126.72 60.7247 122.2 62.1847 115.97C62.3447 115.3 62.4347 114.61 62.4647 113.9C62.5847 110.21 61.5947 106.28 62.2147 102.27C62.7947 98.51 64.7747 94.68 70.3847 90.89C75.1347 87.59 73.1747 85.16 74.8547 80.43C77.3047 85.87 84.7047 83.3 85.4347 90.51C86.8047 89.68 93.9047 84.97 94.3247 77.09C96.7247 81.14 97.3247 90.8 90.7847 102.28C90.6047 102.59 90.4247 102.91 90.2347 103.22C90.5647 102.87 90.8747 102.56 91.1747 102.28C95.4247 98.26 96.6247 100.4 98.0847 94.95C98.8947 97.45 98.8447 99.95 98.2647 102.28C96.8747 107.94 92.3947 112.67 89.5347 114.4C88.4347 114.72 87.2647 115.28 86.0847 115.98C80.9747 119.01 75.6447 124.7 74.8447 125.69C84.7347 123.05 97.5447 129.57 99.4747 130.26C101.405 130.95 104.795 123.69 108.565 126.2C110.475 128.11 104.605 130.76 106.565 132.57C108.525 134.38 110.725 129.24 113.875 131.54C114.975 133.01 110.865 134.09 111.205 134.68C111.535 135.27 117.075 133.75 116.215 138.16C115.355 142.57 109.005 137.13 107.955 137.57C106.905 138.01 112.635 145.01 107.815 145.36C104.325 145.31 104.755 137.86 103.425 137.96C101.945 138.06 103.685 146.81 99.3147 146.97C94.9547 147.14 98.6947 137.78 97.4047 136.59C96.1147 135.4 86.8247 128.85 71.0047 130.88C63.6947 138.96 66.7647 156.1 68.5947 163.69C69.1547 166.01 71.0547 167.58 75.3247 167.43C104.565 166.39 123.685 154.24 131.525 136.33C143.245 109.56 135.345 76.81 135.345 76.81L135.315 76.79Z" fill="#CA299D"/>
</svg>
