<?xml version="1.0" encoding="UTF-8"?><svg xmlns="http://www.w3.org/2000/svg" xmlns:xlink="http://www.w3.org/1999/xlink" viewBox="0 0 368.42 466.5"><defs><style>.e,.f{fill:#fff;}.g{clip-path:url(#d);}.f{opacity:.6;}</style><clipPath id="d"><path class="e" d="M360.27,204.41s-.02-.05-.02-.07c-5.81-23.75-15.37-45.85-27.97-65.53-1.33-1.55-2.63-2.25-3.91-2.31-8.42-.44-15.8,26.75-26.21,19.74-2.34-2.85-8.2-38.95-25.2-76.1C261.33,46,236.29,10.97,195.93,0c4.07,25.92,2.57,62.52-14.56,88.25-4.9,7.36-11.08,13.85-18.79,18.92-11.22,6.11-10.54-15.78-13.51-25.38-.83-2.71-1.97-4.45-3.73-4.3-29.06,26.5-81.68,90.96-106.07,137.41C-2.24,293.95-30.4,371.64,59.04,463.92c6.82,7.03,17.95-1.06,20.36-14.88,9.83-45.39,53.22-94.18,53.22-94.18,0,0-24.21,3.9-37.36,20.23-2.54,3.14-5.45,7.79-8.85,8.74-7.52,2.1-11.12-6.83-8.52-11.31,1.69-2.89,7.78-4.69,7.45-5.63-.55-1.62-2.66-7.22,.16-8.39,2.82-1.18,3.6,7.83,9.74,3.91,18.62-16.85,48.65-25.06,48.65-25.06,0,0,17.79-12.04,21.68-28.63,.42-1.78,.67-3.62,.73-5.5,.31-9.84-2.31-20.28-.66-30.96,1.54-10,6.82-20.21,21.76-30.31,12.65-8.78,7.43-15.25,11.9-27.84,6.51,14.49,26.22,7.63,28.15,26.82,3.65-2.21,22.56-14.74,23.67-35.74,6.39,10.77,7.98,36.49-9.44,67.06-.47,.84-.96,1.67-1.46,2.51,.87-.92,1.72-1.75,2.51-2.51,11.32-10.71,14.5-5,18.4-19.52,2.15,6.67,2.02,13.3,.48,19.52-3.7,15.06-15.61,27.67-23.26,32.26-2.92,.86-6.04,2.34-9.18,4.2-13.62,8.06-27.79,23.22-29.92,25.85,26.32-7.02,60.43,10.33,65.56,12.15,5.13,1.82,14.16-17.49,24.2-10.81,5.08,5.06-10.55,12.13-5.33,16.95,5.21,4.81,11.06-8.87,19.45-2.76,2.92,3.93-8,6.78-7.12,8.36,.87,1.58,15.64-2.47,13.36,9.26-2.3,11.74-19.21-2.74-22.01-1.56-2.79,1.16,12.47,19.81-.37,20.73-9.28-.13-8.15-19.95-11.7-19.7-3.94,.26,.69,23.56-10.94,23.99-11.61,.45-1.66-24.48-5.07-27.64-3.44-3.17-28.16-20.59-70.29-15.21-19.46,21.52-11.3,67.14-6.41,87.35,1.5,6.18,6.56,10.35,17.93,9.95,77.86-2.77,128.75-35.13,149.61-82.8,31.18-71.28,13.93-143.04,10.17-158.46Z"/></clipPath></defs><g id="a"/><g id="b"><g id="c"><g><path class="e" d="M360.27,204.41s-.02-.05-.02-.07c-5.81-23.75-15.37-45.85-27.97-65.53-1.33-1.55-2.63-2.25-3.91-2.31-8.42-.44-15.8,26.75-26.21,19.74-2.34-2.85-8.2-38.95-25.2-76.1C261.33,46,236.29,10.97,195.93,0c4.07,25.92,2.57,62.52-14.56,88.25-4.9,7.36-11.08,13.85-18.79,18.92-11.22,6.11-10.54-15.78-13.51-25.38-.83-2.71-1.97-4.45-3.73-4.3-29.06,26.5-81.68,90.96-106.07,137.41C-2.24,293.95-30.4,371.64,59.04,463.92c6.82,7.03,17.95-1.06,20.36-14.88,9.83-45.39,53.22-94.18,53.22-94.18,0,0-24.21,3.9-37.36,20.23-2.54,3.14-5.45,7.79-8.85,8.74-7.52,2.1-11.12-6.83-8.52-11.31,1.69-2.89,7.78-4.69,7.45-5.63-.55-1.62-2.66-7.22,.16-8.39,2.82-1.18,3.6,7.83,9.74,3.91,18.62-16.85,48.65-25.06,48.65-25.06,0,0,17.79-12.04,21.68-28.63,.42-1.78,.67-3.62,.73-5.5,.31-9.84-2.31-20.28-.66-30.96,1.54-10,6.82-20.21,21.76-30.31,12.65-8.78,7.43-15.25,11.9-27.84,6.51,14.49,26.22,7.63,28.15,26.82,3.65-2.21,22.56-14.74,23.67-35.74,6.39,10.77,7.98,36.49-9.44,67.06-.47,.84-.96,1.67-1.46,2.51,.87-.92,1.72-1.75,2.51-2.51,11.32-10.71,14.5-5,18.4-19.52,2.15,6.67,2.02,13.3,.48,19.52-3.7,15.06-15.61,27.67-23.26,32.26-2.92,.86-6.04,2.34-9.18,4.2-13.62,8.06-27.79,23.22-29.92,25.85,26.32-7.02,60.43,10.33,65.56,12.15,5.13,1.82,14.16-17.49,24.2-10.81,5.08,5.06-10.55,12.13-5.33,16.95,5.21,4.81,11.06-8.87,19.45-2.76,2.92,3.93-8,6.78-7.12,8.36,.87,1.58,15.64-2.47,13.36,9.26-2.3,11.74-19.21-2.74-22.01-1.56-2.79,1.16,12.47,19.81-.37,20.73-9.28-.13-8.15-19.95-11.7-19.7-3.94,.26,.69,23.56-10.94,23.99-11.61,.45-1.66-24.48-5.07-27.64-3.44-3.17-28.16-20.59-70.29-15.21-19.46,21.52-11.3,67.14-6.41,87.35,1.5,6.18,6.56,10.35,17.93,9.95,77.86-2.77,128.75-35.13,149.61-82.8,31.18-71.28,13.93-143.04,10.17-158.46Z"/><g><path class="e" d="M360.27,204.41s-.02-.05-.02-.07c-5.81-23.75-15.37-45.85-27.97-65.53-1.33-1.55-2.63-2.25-3.91-2.31-8.42-.44-15.8,26.75-26.21,19.74-2.34-2.85-8.2-38.95-25.2-76.1C261.33,46,236.29,10.97,195.93,0c4.07,25.92,2.57,62.52-14.56,88.25-4.9,7.36-11.08,13.85-18.79,18.92-11.22,6.11-10.54-15.78-13.51-25.38-.83-2.71-1.97-4.45-3.73-4.3-29.06,26.5-81.68,90.96-106.07,137.41C-2.24,293.95-30.4,371.64,59.04,463.92c6.82,7.03,17.95-1.06,20.36-14.88,9.83-45.39,53.22-94.18,53.22-94.18,0,0-24.21,3.9-37.36,20.23-2.54,3.14-5.45,7.79-8.85,8.74-7.52,2.1-11.12-6.83-8.52-11.31,1.69-2.89,7.78-4.69,7.45-5.63-.55-1.62-2.66-7.22,.16-8.39,2.82-1.18,3.6,7.83,9.74,3.91,18.62-16.85,48.65-25.06,48.65-25.06,0,0,17.79-12.04,21.68-28.63,.42-1.78,.67-3.62,.73-5.5,.31-9.84-2.31-20.28-.66-30.96,1.54-10,6.82-20.21,21.76-30.31,12.65-8.78,7.43-15.25,11.9-27.84,6.51,14.49,26.22,7.63,28.15,26.82,3.65-2.21,22.56-14.74,23.67-35.74,6.39,10.77,7.98,36.49-9.44,67.06-.47,.84-.96,1.67-1.46,2.51,.87-.92,1.72-1.75,2.51-2.51,11.32-10.71,14.5-5,18.4-19.52,2.15,6.67,2.02,13.3,.48,19.52-3.7,15.06-15.61,27.67-23.26,32.26-2.92,.86-6.04,2.34-9.18,4.2-13.62,8.06-27.79,23.22-29.92,25.85,26.32-7.02,60.43,10.33,65.56,12.15,5.13,1.82,14.16-17.49,24.2-10.81,5.08,5.06-10.55,12.13-5.33,16.95,5.21,4.81,11.06-8.87,19.45-2.76,2.92,3.93-8,6.78-7.12,8.36,.87,1.58,15.64-2.47,13.36,9.26-2.3,11.74-19.21-2.74-22.01-1.56-2.79,1.16,12.47,19.81-.37,20.73-9.28-.13-8.15-19.95-11.7-19.7-3.94,.26,.69,23.56-10.94,23.99-11.61,.45-1.66-24.48-5.07-27.64-3.44-3.17-28.16-20.59-70.29-15.21-19.46,21.52-11.3,67.14-6.41,87.35,1.5,6.18,6.56,10.35,17.93,9.95,77.86-2.77,128.75-35.13,149.61-82.8,31.18-71.28,13.93-143.04,10.17-158.46Z"/><g class="g"><path class="f" d="M37.78,214.24c24.6-46.84,77.66-111.85,106.97-138.57,1.78-.14,2.91,1.6,3.76,4.33,3,9.69,2.31,31.77,13.62,25.61,7.77-5.12,14-11.65,18.94-19.09,17.27-25.94,18.79-62.85,14.68-89,40.7,11.07,65.96,46.39,81.71,80.8,17.16,37.47,23.06,73.88,25.41,76.75,10.51,7.07,17.95-20.34,26.44-19.9,1.29,.06,2.6,.76,3.95,2.33,12.69,19.84,22.34,42.13,28.2,66.08,0,.02,0,.05,.02,.07,3.8,15.56,21.2,87.92-10.26,159.81,0,0,27.87-131.87-22.28-175.79-10.95-1.33-34.14,10.77-47.67,10.4-13.51-.37-12.1-61.13-41.33-84.48-14.78,13.89-53.73,86.64-79.06,88.5-33.09,2.43-21.62-52.52-44.13-50.09-22.51,2.43-78.99,62.23-78.99,62.23Z"/></g></g></g></g></g></svg>