<?xml version="1.0" encoding="UTF-8"?>
<svg id="Capa_2" data-name="Capa 2" xmlns="http://www.w3.org/2000/svg" xmlns:xlink="http://www.w3.org/1999/xlink" viewBox="0 0 628.48 776.52">
  <defs>
    <style>
      .cls-1, .cls-2 {
        fill: #fff;
      }

      .cls-2, .cls-3 {
        fill-rule: evenodd;
      }

      .cls-4 {
        fill: none;
        stroke: #e7801d;
        stroke-width: 4px;
      }

      .cls-3 {
        fill: #e7801d;
      }

      .cls-5 {
        mask: url(#mask-1);
      }

      .cls-6 {
        mask: url(#mask);
      }

      .cls-7 {
        fill: url(#Degradado_sin_nombre);
      }
    </style>
    <mask id="mask" x="-5" y="0" width="638" height="792.14" maskUnits="userSpaceOnUse">
      <g id="mask0_339_146" data-name="mask0 339 146">
        <path class="cls-1" d="m633,2.14H-5v790h638V2.14Z"/>
      </g>
    </mask>
    <linearGradient id="Degradado_sin_nombre" data-name="Degradado sin nombre" x1="228.94" y1="-63.67" x2="427.5" y2="854.88" gradientTransform="translate(0 796.29) scale(1 -1)" gradientUnits="userSpaceOnUse">
      <stop offset="0" stop-color="#481c3e"/>
      <stop offset="1" stop-color="#7c2263"/>
    </linearGradient>
    <mask id="mask-1" x="0" y="-.86" width="629" height="778" maskUnits="userSpaceOnUse">
      <g id="path-2-outside-1_339_146" data-name="path-2-outside-1 339 146">
        <rect class="cls-1" x="0" y="-.86" width="629" height="778"/>
        <path d="m11.5,529.64c3.19,1.22,3,1.15,4.9,1.39,3.2.4,6.77,1.18,9.64.2,11.99-4.13,21.9-.13,24.77,11.9,2.54,10.68,15.06,19.93,26.46,21.16,4.73.51,8.89-.92,10.95-5.28,4.52-9.56,11.49-15.83,21.7-18.87,2.89-.86,5.44-3.17,7.89-5.13,5.03-4.03,5.13-6.01,3.14-12.08-.76-2.33-.55-5.71.63-7.81,5.37-9.51,5.63-9.51-3.29-16.32-3.36-2.57-4.32-5.63-3.66-9.59.95-5.73,3.34-7.44,8.96-6.26,5.2,1.1,5.88.52,5.56-4.71-.78-12.58.23-13.59,12.73-12.47,2.31.21,4.59.68,6.89,1,8.66,1.19,9.94-.07,8.57-8.54-1.2-7.42.21-14.31,4.65-20.35,6.98-9.49,16.12-15.21,28.23-13.08,5.99,1.05,9.79-2.7,13.04-5.44,5.55-4.7,8.55.06,12.38,1.56,2.96,1.15,5.77,4.82,8.28,4.5,5.11-.64,10.1-2.97,14.86-5.2,1.14-.53,1.81-3.5,1.58-5.19-.31-2.2-1.54-4.36-2.73-6.32-3.18-5.2-2.01-11.82,3.43-15.1,6.92-4.17,13.21-8.74,17.83-15.64,1.25-1.87,4.78-2.7,7.39-3.07,4.76-.67,9.62-.57,14.43-.9,4.34-.29,6.57-2.8,6.95-7.06.58-6.62,1.09-13.25,1.72-19.87.4-4.24,2.75-7.03,6.76-8.4,2.67-.91,5.32-1.93,8.05-2.61,4.75-1.18,9.3-.93,12.93,2.95,2.28,2.44,4.27,1.77,6.39-.26,6.55-6.27,8.62-18.25,4.44-26.11-3.84-7.21-2.64-13.51,3.65-19.26,5.27-4.82,10.64-9.55,15.76-14.54,3.85-3.76,5.41-8.39,5.38-13.96-.05-6.96,1.67-13.61,6.5-19.1,1.3-1.48,2.23-3.31,3.28-5,4.09-6.54,4.02-7.02-1.54-12.69-4.17-4.25-3.8-8.06,1.19-11.5,3.01-2.08,6.08-4.07,9.12-6.11,3.01-2.02,2.96-4.14.17-6.33-2.49-1.95-5.04-3.82-7.45-5.85-5.49-4.62-5.98-10.1-1.52-15.73,5.85-7.38,5.47-12.24.91-20.47-2.81-5.06-3.96-11.17-5.11-16.96-.59-2.97,1.26-5.54,5.01-5.27,1.81.13,3.59.59,5.39.79,4.7.53,8.21-3.74,6.18-7.94-3.7-7.65-3.13-15.09,1.49-21.75,6.54-9.42,3.99-16.59-1.87-25.71-5.54-8.62-7.68-19.56-10.54-29.7-1.39-4.93,1.99-7.39,7.05-6.18.48.11.92.49,1.4.52,3.04.2,6.09.34,9.13.5-.42-2.68-.97-5.36-1.23-8.06-.31-3.3-.6-6.63-.42-9.92.06-1.05,1.46-2.46,2.57-2.91,1.96-.79,4.15-1.1,6.28-1.37,2.61-.32,4.37.42,4.88,3.54.44,2.68,1.69,5.23,2.85,8.62,6.75-5.81,12.32-3.24,16.35,2,3.57,4.65,5.76,10.36,9.02,16.45.47-1.29,1.87-3.15,1.44-4.33-1.82-5,.09-7.63,4.38-10.08,1.97-1.13,3.23-3.96,4.2-6.28,1.06-2.54,1.42-5.37,2.07-8.05.9,0,1.46-.16,1.87.02,6.95,3.13,6.32,2.7,10.74-3.62,2.39-3.41,7.13-5.84,11.29-7,1.62-.45,4.66,3.68,6.85,5.92,1.75,1.79,3.21,3.88,4.8,5.83l1.75-.48c.38-3.43.77-6.87,1.29-11.57,3.27,2.61,5.97,4.6,8.49,6.81,2.91,2.55,4.9,2.12,6.3-1.25-3.19-3.24-6.23-6.31-9.27-9.38.28-.56.56-1.12.84-1.68,1.8,0,3.81-.53,5.37.1,5.14,2.06,8.43-.01,11.55-3.93,2.14-2.69,4.78-5.04,7.48-7.19.91-.72,2.7-.33,4.09-.44.1,1.39.66,2.97.2,4.14-1.58,4.01-3.69,7.81-5.28,11.81-2,5.01-.46,11.14,3.48,14.64,2.22,1.97,4.11,2.32,4.82-1.41.78-4.14,1.67-8.25,2.51-12.38l1.96-.56c2.06,2.91,4.13,5.82,6.31,8.9.72-.66,1.78-1.43,2.61-2.41,2.82-3.33,5.36-5.22,8.14.18.64,1.24,2.72,1.72,4.08,2.63,2.11,1.4,4.02,2.26,3.92,5.93-.08,3.06,2.85,6.2,4.84,10.08.72-2.78,1.28-4.9,1.82-6.99h7.18c.61,8.01,4.39,1.35,7.22,1.33.19,4.88,1.39,8.87,6.84,10.49,2.67.79,4.99,9.63,3.26,11.31-1.38,1.35-3.58,1.87-4.73,2.43.78,3.11,1.33,5.73,2.15,8.26.26.79,1.17,1.84,1.89,1.94,6.21.84,4.02,3.75,1.78,6.44,2.3,2.91,5.31,5.36,6.28,8.46.63,2.02-1.21,5.37-2.84,7.41-2.03,2.55-3.71,4.2-1.2,7.64,1.48,2.02,1.39,5.2,2.14,8.4-.64.48-1.95,1.45-3.71,2.76,2.18,1.32,4.08,2.48,5.24,3.18.13,2.13.33,3.73.29,5.32-.03.91-.21,2.01-.75,2.69-4.69,5.86-2.99,13.86,3.42,18.04,3.32,2.16,6.65,4.82,8.86,8.02,2.66,3.84,5.3,7.08,9.97,8.34,3.64.98,3.98,3.26,2.52,6.52-4.38,9.76-2.94,13.32,5.23,20.59,5.92,5.27,10.78,11.72,16.1,17.65.33.36.78.9.72,1.28-1.82,11.09,5.03,23.39-4.81,33.4-2.4,2.44-4.78,5.24-6.11,8.33-4.73,11.05-5.46,15.03.19,25.98-7.81,4.63-1.11,13.51-5.85,19.5-1.32-.08-2.89-.17-4.49-.26-1.51,3.9,4.54,9.2-3.2,11.57,5.59,3.68,5.07,8.19,3.06,13.04-.5,1.21-.94,2.6-.85,3.87.34,4.62-.72,8.52-6.18,11.49,3.57,1.32,6.07,2.25,8.99,3.33-.35,2.46-.76,5.42-1.34,9.52-.07,0-1.56.2-3.39.43.34,2.64.69,5.38,1.08,8.43h-4.4c.67,2.08,1.22,3.78,1.77,5.48l1.14-1.29c2.34,1.67,4.69,3.35,7.5,5.36-2.12,1.96-3.38,3.12-5.37,4.95h7.1c-3.66,3.96-2.42,6.88.83,9.6.61.51,1.03,1.81.85,2.59-1.19,5.2,1.02,8.43,5.55,10.65,1.59.78,2.93,2.07,5.63,4.03h-7.98c-.49,2.34-.95,4.49-1.48,7.02,3.54,1.61,5.32,4.61,2.96,8.35-1.7,2.69-4.37,4.76-7.22,7.74v4.35c-2.45,1.49-4.62,2.81-8.05,4.89,2.76,1.68,4.33,2.63,7.01,4.26-3.3.78-4.96,1.17-6.87,1.62.14,1.43.28,2.85.45,4.58-2.04-.1-3.93-.19-7.06-.34,1.68,2.46,2.8,4.11,4.15,6.09-1.23,1.16-2.52,2.37-3.99,3.76-1.51-1.35-2.77-2.49-4.04-3.62l-.91.61c1.43,2.86,2.85,5.72,4.28,8.58-.18.3-.36.61-.54.91-2.61-1.93-5.22-3.86-7.03-5.19-.5,2.89-1.33,5.81-1.38,8.74-.02,1.35,1.35,2.85,2.38,4.05.99,1.15,2.33,1.98,3.52,2.96l-.44,1.46h-8c2.41,3.11,1.01,5.66-3.58,7.78,2.52,1.02,4.01,1.62,6.44,2.6-4,1.58-7.27,2.88-10.71,4.24-.8-1.32-1.25-2.44-2.03-3.23-1.64-1.65-4.3-4.76-5.04-4.37-2.44,1.28-5.09,3.48-6.08,5.97-3.02,7.55-4.16,7.91-10.42,2.24-1.18-1.07-3.57-2.12-4.68-1.61-1.22.56-1.84,2.88-2.29,4.54-.28,1.04.31,2.28.37,3.44.26,4.67-1.35,6.07-5.95,5.26-6.88-1.22-7.13-.96-8.47,5.83-1.08,5.49-1.58,11.24-8.9,12.88-2,.45-3.86,3.61-4.87,5.93-1.81,4.18-4.7,5.79-9.01,5.51-1.49-.1-3,.02-4.49-.04-8.71-.4-8.66-.42-9.54-9.11-.12-1.21-.96-2.34-1.47-3.51-1.29.56-3.11.78-3.76,1.76-1.44,2.17-2.65,4.63-3.33,7.14-2.21,8.19-4.25,16.43-6.14,24.71-.82,3.59-2.52,5.58-6.37,5.68-4.98.13-7.23,3.02-8.1,7.81-.5,2.77-2.17,5.33-3.31,7.98-2.36-1.88-4.84-3.63-7.03-5.68-2.1-1.97-3.9-4.27-5.83-6.42-.57.23-1.14.46-1.71.69.41,2.94,1.14,5.88,1.12,8.81-.02,2.38-.93,4.76-1.45,7.13-2.39-1.12-5.33-1.71-7.04-3.48-2.86-2.96-4.98-6.64-7.34-10.07-1.89-2.74-3.55-2.87-6.58-1-3.65,2.26-8.05,3.3-13.19,5.28,1.8,2.18,3.56,4.15,5.13,6.25.93,1.24,2.53,3.2,2.13,3.94-.82,1.54-2.67,2.63-4.28,3.58-.76.45-1.98.36-2.94.19-5.05-.86-8.9-.05-11.37,5.33-1.53,3.34-4.41,3.05-6.52-.23-1.98-3.08-3.92-6.2-6.1-9.13-.79-1.06-2.47-2.44-3.34-2.2-1.29.35-2.75,1.83-3.23,3.15-1.94,5.31-3.27,10.86-5.38,16.09-.9,2.24-3.16,3.93-4.8,5.87-1.91-1.63-3.97-3.11-5.69-4.92-1.53-1.61-2.69-3.58-4.08-5.49-3.86,2.53-2.77,5.34-2.22,8.32.6,3.29.55,6.7.79,10.05-3.4-.15-7.08.46-10.14-.63-5.17-1.85-9.5-2.13-13.52,2.17-.83.89-2.29,1.21-4.2,2.16-.95-3.85-1.63-7.4-2.75-10.81-.52-1.58-1.9-2.88-2.89-4.3-1.42,1.17-3.61,2.08-4.13,3.56-2.07,5.96-3.73,12.07-5.34,18.17-1.57,5.98-2.62,6.74-8.69,5.57-5.21-1.01-8.1,1.6-8.07,7.76.02,4.15.45,8.31.82,12.46.57,6.25,0,12-5.66,16.09-.88.64-1.35,1.87-1.94,2.87-3.8,6.43-3.75,6.28-10.98,4.23-1.23-.35-3.62.87-4.45,2.08-3.57,5.18-4.92,5.51-9.85,1.68-1.83-1.42-3.69-3.41-5.76-3.74-2.04-.33-5.01.52-6.32,1.98-.81.9.13,4.43,1.36,5.85,1.79,2.07,4.63,3.18,6.85,4.92,1.54,1.21,3.19,2.57,4.1,4.23,2.25,4.1.34,7.07-4.25,6.63-3.96-.38-7.88-1.23-11.8-1.96-6.13-1.13-7.89.26-8.59,6.31-.25,2.16-1.24,4.24-1.89,6.36-2.27-1.11-4.99-1.75-6.74-3.42-9.41-8.92-10.36-8.92-17.92,1.82-1.63,2.31-3.15,4.7-4.67,7.09-4.13,6.47-7.14,7.5-14.17,4.8-6.53-2.51-7.03-2.22-8.31,4.76-.24,1.31-.44,2.63-.54,3.96-.3,4.07-2.3,5.74-6.5,5.67-6.89-.11-8.12,1.96-4.93,8.06,2.4,4.59,1.55,8.11-2.19,11.54-4.17,3.81-8.15,7.84-11.96,12.01-4.22,4.61-6.39,4.93-11.4,1-4.55-3.57-5.16-3.44-6.9,2.2-.96,3.11-2.3,5.16-5.97,5.68-4.16.59-4.4,4.4-4.86,7.74-.42,2.98.35,6.9-4.74,6.4-4.42-.44-7.09-3.79-6.87-8.19.08-1.65-.44-3.33-.68-4.99-1.61.46-3.2,1.25-4.82,1.3-2.08.06-4.82.28-6.16-.87-7.14-6.14-13.9-12.7-20.85-19.06-.95-.87-2.44-1.21-3.22-2.17-1.3-1.6-3.41-3.77-3.09-5.24,1.2-5.42-1.89-8.14-5.8-9.7-9.42-3.74-14.15-10.39-14.94-20.4-.23-2.88-1.93-5.61-2.65-8.48-.68-2.7-1.05-5.48-1.41-8.25-.4-3.07-.8-6.15-.91-9.24-.09-2.55.24-5.11.4-7.67.17-2.7,1.45-5.97.38-8.02-12.19-23.41-24.63-46.69-37.29-69.85-1.67-3.06-4.99-5.19-7.4-7.89-1.97-2.21-3.9-4.49-5.5-6.97-2.22-3.45-4.76-6.91-5.94-10.74-1.02-3.33-.93-7.3-.26-10.78.96-4.93,3.13-9.61,4.38-14.5,1.12-4.38-.98-5.31,0-10.62l4.61-2.5Z"/>
      </g>
    </mask>
  </defs>
  <g id="Capa_1-2" data-name="Capa 1">
    <g class="cls-6">
      <g>
        <path class="cls-7" d="m11.5,529.64c3.19,1.22,3,1.15,4.9,1.39,3.2.4,6.77,1.18,9.64.2,11.99-4.13,21.9-.13,24.77,11.9,2.54,10.68,15.06,19.93,26.46,21.16,4.73.51,8.89-.92,10.95-5.28,4.52-9.56,11.49-15.83,21.7-18.87,2.89-.86,5.44-3.17,7.89-5.13,5.03-4.03,5.13-6.01,3.14-12.08-.76-2.33-.55-5.71.63-7.81,5.37-9.51,5.63-9.51-3.29-16.32-3.36-2.57-4.32-5.63-3.66-9.59.95-5.73,3.34-7.44,8.96-6.26,5.2,1.1,5.88.52,5.56-4.71-.78-12.58.23-13.59,12.73-12.47,2.31.21,4.59.68,6.89,1,8.66,1.19,9.94-.07,8.57-8.54-1.2-7.42.21-14.31,4.65-20.35,6.98-9.49,16.12-15.21,28.23-13.08,5.99,1.05,9.79-2.7,13.04-5.44,5.55-4.7,8.55.06,12.38,1.56,2.96,1.15,5.77,4.82,8.28,4.5,5.11-.64,10.1-2.97,14.86-5.2,1.14-.53,1.81-3.5,1.58-5.19-.31-2.2-1.54-4.36-2.73-6.32-3.18-5.2-2.01-11.82,3.43-15.1,6.92-4.17,13.21-8.74,17.83-15.64,1.25-1.87,4.78-2.7,7.39-3.07,4.76-.67,9.62-.57,14.43-.9,4.34-.29,6.57-2.8,6.95-7.06.58-6.62,1.09-13.25,1.72-19.87.4-4.24,2.75-7.03,6.76-8.4,2.67-.91,5.32-1.93,8.05-2.61,4.75-1.18,9.3-.93,12.93,2.95,2.28,2.44,4.27,1.77,6.39-.26,6.55-6.27,8.62-18.25,4.44-26.11-3.84-7.21-2.64-13.51,3.65-19.26,5.27-4.82,10.64-9.55,15.76-14.54,3.85-3.76,5.41-8.39,5.38-13.96-.05-6.96,1.67-13.61,6.5-19.1,1.3-1.48,2.23-3.31,3.28-5,4.09-6.54,4.02-7.02-1.54-12.69-4.17-4.25-3.8-8.06,1.19-11.5,3.01-2.08,6.08-4.07,9.12-6.11,3.01-2.02,2.96-4.14.17-6.33-2.49-1.95-5.04-3.82-7.45-5.85-5.49-4.62-5.98-10.1-1.52-15.73,5.85-7.38,5.47-12.24.91-20.47-2.81-5.06-3.96-11.17-5.11-16.96-.59-2.97,1.26-5.54,5.01-5.27,1.81.13,3.59.59,5.39.79,4.7.53,8.21-3.74,6.18-7.94-3.7-7.65-3.13-15.09,1.49-21.75,6.54-9.42,3.99-16.59-1.87-25.71-5.54-8.62-7.68-19.56-10.54-29.7-1.39-4.93,1.99-7.39,7.05-6.18.48.11.92.49,1.4.52,3.04.2,6.09.34,9.13.5-.42-2.68-.97-5.36-1.23-8.06-.31-3.3-.6-6.63-.42-9.92.06-1.05,1.46-2.46,2.57-2.91,1.96-.79,4.15-1.1,6.28-1.37,2.61-.32,4.37.42,4.88,3.54.44,2.68,1.69,5.23,2.85,8.62,6.75-5.81,12.32-3.24,16.35,2,3.57,4.65,5.76,10.36,9.02,16.45.47-1.29,1.87-3.15,1.44-4.33-1.82-5,.09-7.63,4.38-10.08,1.97-1.13,3.23-3.96,4.2-6.28,1.06-2.54,1.42-5.37,2.07-8.05.9,0,1.46-.16,1.87.02,6.95,3.13,6.32,2.7,10.74-3.62,2.39-3.41,7.13-5.84,11.29-7,1.62-.45,4.66,3.68,6.85,5.92,1.75,1.79,3.21,3.88,4.8,5.83l1.75-.48c.38-3.43.77-6.87,1.29-11.57,3.27,2.61,5.97,4.6,8.49,6.81,2.91,2.55,4.9,2.12,6.3-1.25-3.19-3.24-6.23-6.31-9.27-9.38.28-.56.56-1.12.84-1.68,1.8,0,3.81-.53,5.37.1,5.14,2.06,8.43-.01,11.55-3.93,2.14-2.69,4.78-5.04,7.48-7.19.91-.72,2.7-.33,4.09-.44.1,1.39.66,2.97.2,4.14-1.58,4.01-3.69,7.81-5.28,11.81-2,5.01-.46,11.14,3.48,14.64,2.22,1.97,4.11,2.32,4.82-1.41.78-4.14,1.67-8.25,2.51-12.38l1.96-.56c2.06,2.91,4.13,5.82,6.31,8.9.72-.66,1.78-1.43,2.61-2.41,2.82-3.33,5.36-5.22,8.14.18.64,1.24,2.72,1.72,4.08,2.63,2.11,1.4,4.02,2.26,3.92,5.93-.08,3.06,2.85,6.2,4.84,10.08.72-2.78,1.28-4.9,1.82-6.99h7.18c.61,8.01,4.39,1.35,7.22,1.33.19,4.88,1.39,8.87,6.84,10.49,2.67.79,4.99,9.63,3.26,11.31-1.38,1.35-3.58,1.87-4.73,2.43.78,3.11,1.33,5.73,2.15,8.26.26.79,1.17,1.84,1.89,1.94,6.21.84,4.02,3.75,1.78,6.44,2.3,2.91,5.31,5.36,6.28,8.46.63,2.02-1.21,5.37-2.84,7.41-2.03,2.55-3.71,4.2-1.2,7.64,1.48,2.02,1.39,5.2,2.14,8.4-.64.48-1.95,1.45-3.71,2.76,2.18,1.32,4.08,2.48,5.24,3.18.13,2.13.33,3.73.29,5.32-.03.91-.21,2.01-.75,2.69-4.69,5.86-2.99,13.86,3.42,18.04,3.32,2.16,6.65,4.82,8.86,8.02,2.66,3.84,5.3,7.08,9.97,8.34,3.64.98,3.98,3.26,2.52,6.52-4.38,9.76-2.94,13.32,5.23,20.59,5.92,5.27,10.78,11.72,16.1,17.65.33.36.78.9.72,1.28-1.82,11.09,5.03,23.39-4.81,33.4-2.4,2.44-4.78,5.24-6.11,8.33-4.73,11.05-5.46,15.03.19,25.98-7.81,4.63-1.11,13.51-5.85,19.5-1.32-.08-2.89-.17-4.49-.26-1.51,3.9,4.54,9.2-3.2,11.57,5.59,3.68,5.07,8.19,3.06,13.04-.5,1.21-.94,2.6-.85,3.87.34,4.62-.72,8.52-6.18,11.49,3.57,1.32,6.07,2.25,8.99,3.33-.35,2.46-.76,5.42-1.34,9.52-.07,0-1.56.2-3.39.43.34,2.64.69,5.38,1.08,8.43h-4.4c.67,2.08,1.22,3.78,1.77,5.48l1.14-1.29c2.34,1.67,4.69,3.35,7.5,5.36-2.12,1.96-3.38,3.12-5.37,4.95h7.1c-3.66,3.96-2.42,6.88.83,9.6.61.51,1.03,1.81.85,2.59-1.19,5.2,1.02,8.43,5.55,10.65,1.59.78,2.93,2.07,5.63,4.03h-7.98c-.49,2.34-.95,4.49-1.48,7.02,3.54,1.61,5.32,4.61,2.96,8.35-1.7,2.69-4.37,4.76-7.22,7.74v4.35c-2.45,1.49-4.62,2.81-8.05,4.89,2.76,1.68,4.33,2.63,7.01,4.26-3.3.78-4.96,1.17-6.87,1.62.14,1.43.28,2.85.45,4.58-2.04-.1-3.93-.19-7.06-.34,1.68,2.46,2.8,4.11,4.15,6.09-1.23,1.16-2.52,2.37-3.99,3.76-1.51-1.35-2.77-2.49-4.04-3.62l-.91.61c1.43,2.86,2.85,5.72,4.28,8.58-.18.3-.36.61-.54.91-2.61-1.93-5.22-3.86-7.03-5.19-.5,2.89-1.33,5.81-1.38,8.74-.02,1.35,1.35,2.85,2.38,4.05.99,1.15,2.33,1.98,3.52,2.96l-.44,1.46h-8c2.41,3.11,1.01,5.66-3.58,7.78,2.52,1.02,4.01,1.62,6.44,2.6-4,1.58-7.27,2.88-10.71,4.24-.8-1.32-1.25-2.44-2.03-3.23-1.64-1.65-4.3-4.76-5.04-4.37-2.44,1.28-5.09,3.48-6.08,5.97-3.02,7.55-4.16,7.91-10.42,2.24-1.18-1.07-3.57-2.12-4.68-1.61-1.22.56-1.84,2.88-2.29,4.54-.28,1.04.31,2.28.37,3.44.26,4.67-1.35,6.07-5.95,5.26-6.88-1.22-7.13-.96-8.47,5.83-1.08,5.49-1.58,11.24-8.9,12.88-2,.45-3.86,3.61-4.87,5.93-1.81,4.18-4.7,5.79-9.01,5.51-1.49-.1-3,.02-4.49-.04-8.71-.4-8.66-.42-9.54-9.11-.12-1.21-.96-2.34-1.47-3.51-1.29.56-3.11.78-3.76,1.76-1.44,2.17-2.65,4.63-3.33,7.14-2.21,8.19-4.25,16.43-6.14,24.71-.82,3.59-2.52,5.58-6.37,5.68-4.98.13-7.23,3.02-8.1,7.81-.5,2.77-2.17,5.33-3.31,7.98-2.36-1.88-4.84-3.63-7.03-5.68-2.1-1.97-3.9-4.27-5.83-6.42-.57.23-1.14.46-1.71.69.41,2.94,1.14,5.88,1.12,8.81-.02,2.38-.93,4.76-1.45,7.13-2.39-1.12-5.33-1.71-7.04-3.48-2.86-2.96-4.98-6.64-7.34-10.07-1.89-2.74-3.55-2.87-6.58-1-3.65,2.26-8.05,3.3-13.19,5.28,1.8,2.18,3.56,4.15,5.13,6.25.93,1.24,2.53,3.2,2.13,3.94-.82,1.54-2.67,2.63-4.28,3.58-.76.45-1.98.36-2.94.19-5.05-.86-8.9-.05-11.37,5.33-1.53,3.34-4.41,3.05-6.52-.23-1.98-3.08-3.92-6.2-6.1-9.13-.79-1.06-2.47-2.44-3.34-2.2-1.29.35-2.75,1.83-3.23,3.15-1.94,5.31-3.27,10.86-5.38,16.09-.9,2.24-3.16,3.93-4.8,5.87-1.91-1.63-3.97-3.11-5.69-4.92-1.53-1.61-2.69-3.58-4.08-5.49-3.86,2.53-2.77,5.34-2.22,8.32.6,3.29.55,6.7.79,10.05-3.4-.15-7.08.46-10.14-.63-5.17-1.85-9.5-2.13-13.52,2.17-.83.89-2.29,1.21-4.2,2.16-.95-3.85-1.63-7.4-2.75-10.81-.52-1.58-1.9-2.88-2.89-4.3-1.42,1.17-3.61,2.08-4.13,3.56-2.07,5.96-3.73,12.07-5.34,18.17-1.57,5.98-2.62,6.74-8.69,5.57-5.21-1.01-8.1,1.6-8.07,7.76.02,4.15.45,8.31.82,12.46.57,6.25,0,12-5.66,16.09-.88.64-1.35,1.87-1.94,2.87-3.8,6.43-3.75,6.28-10.98,4.23-1.23-.35-3.62.87-4.45,2.08-3.57,5.18-4.92,5.51-9.85,1.68-1.83-1.42-3.69-3.41-5.76-3.74-2.04-.33-5.01.52-6.32,1.98-.81.9.13,4.43,1.36,5.85,1.79,2.07,4.63,3.18,6.85,4.92,1.54,1.21,3.19,2.57,4.1,4.23,2.25,4.1.34,7.07-4.25,6.63-3.96-.38-7.88-1.23-11.8-1.96-6.13-1.13-7.89.26-8.59,6.31-.25,2.16-1.24,4.24-1.89,6.36-2.27-1.11-4.99-1.75-6.74-3.42-9.41-8.92-10.36-8.92-17.92,1.82-1.63,2.31-3.15,4.7-4.67,7.09-4.13,6.47-7.14,7.5-14.17,4.8-6.53-2.51-7.03-2.22-8.31,4.76-.24,1.31-.44,2.63-.54,3.96-.3,4.07-2.3,5.74-6.5,5.67-6.89-.11-8.12,1.96-4.93,8.06,2.4,4.59,1.55,8.11-2.19,11.54-4.17,3.81-8.15,7.84-11.96,12.01-4.22,4.61-6.39,4.93-11.4,1-4.55-3.57-5.16-3.44-6.9,2.2-.96,3.11-2.3,5.16-5.97,5.68-4.16.59-4.4,4.4-4.86,7.74-.42,2.98.35,6.9-4.74,6.4-4.42-.44-7.09-3.79-6.87-8.19.08-1.65-.44-3.33-.68-4.99-1.61.46-3.2,1.25-4.82,1.3-2.08.06-4.82.28-6.16-.87-7.14-6.14-13.9-12.7-20.85-19.06-.95-.87-2.44-1.21-3.22-2.17-1.3-1.6-3.41-3.77-3.09-5.24,1.2-5.42-1.89-8.14-5.8-9.7-9.42-3.74-14.15-10.39-14.94-20.4-.23-2.88-1.93-5.61-2.65-8.48-.68-2.7-1.05-5.48-1.41-8.25-.4-3.07-.8-6.15-.91-9.24-.09-2.55.24-5.11.4-7.67.17-2.7,1.45-5.97.38-8.02-12.19-23.41-24.63-46.69-37.29-69.85-1.67-3.06-4.99-5.19-7.4-7.89-1.97-2.21-3.9-4.49-5.5-6.97-2.22-3.45-4.76-6.91-5.94-10.74-1.02-3.33-.93-7.3-.26-10.78.96-4.93,3.13-9.61,4.38-14.5,1.12-4.38-.98-5.31,0-10.62l4.61-2.5Z"/>
        <g class="cls-5">
          <path class="cls-4" d="m11.5,529.64c3.19,1.22,3,1.15,4.9,1.39,3.2.4,6.77,1.18,9.64.2,11.99-4.13,21.9-.13,24.77,11.9,2.54,10.68,15.06,19.93,26.46,21.16,4.73.51,8.89-.92,10.95-5.28,4.52-9.56,11.49-15.83,21.7-18.87,2.89-.86,5.44-3.17,7.89-5.13,5.03-4.03,5.13-6.01,3.14-12.08-.76-2.33-.55-5.71.63-7.81,5.37-9.51,5.63-9.51-3.29-16.32-3.36-2.57-4.32-5.63-3.66-9.59.95-5.73,3.34-7.44,8.96-6.26,5.2,1.1,5.88.52,5.56-4.71-.78-12.58.23-13.59,12.73-12.47,2.31.21,4.59.68,6.89,1,8.66,1.19,9.94-.07,8.57-8.54-1.2-7.42.21-14.31,4.65-20.35,6.98-9.49,16.12-15.21,28.23-13.08,5.99,1.05,9.79-2.7,13.04-5.44,5.55-4.7,8.55.06,12.38,1.56,2.96,1.15,5.77,4.82,8.28,4.5,5.11-.64,10.1-2.97,14.86-5.2,1.14-.53,1.81-3.5,1.58-5.19-.31-2.2-1.54-4.36-2.73-6.32-3.18-5.2-2.01-11.82,3.43-15.1,6.92-4.17,13.21-8.74,17.83-15.64,1.25-1.87,4.78-2.7,7.39-3.07,4.76-.67,9.62-.57,14.43-.9,4.34-.29,6.57-2.8,6.95-7.06.58-6.62,1.09-13.25,1.72-19.87.4-4.24,2.75-7.03,6.76-8.4,2.67-.91,5.32-1.93,8.05-2.61,4.75-1.18,9.3-.93,12.93,2.95,2.28,2.44,4.27,1.77,6.39-.26,6.55-6.27,8.62-18.25,4.44-26.11-3.84-7.21-2.64-13.51,3.65-19.26,5.27-4.82,10.64-9.55,15.76-14.54,3.85-3.76,5.41-8.39,5.38-13.96-.05-6.96,1.67-13.61,6.5-19.1,1.3-1.48,2.23-3.31,3.28-5,4.09-6.54,4.02-7.02-1.54-12.69-4.17-4.25-3.8-8.06,1.19-11.5,3.01-2.08,6.08-4.07,9.12-6.11,3.01-2.02,2.96-4.14.17-6.33-2.49-1.95-5.04-3.82-7.45-5.85-5.49-4.62-5.98-10.1-1.52-15.73,5.85-7.38,5.47-12.24.91-20.47-2.81-5.06-3.96-11.17-5.11-16.96-.59-2.97,1.26-5.54,5.01-5.27,1.81.13,3.59.59,5.39.79,4.7.53,8.21-3.74,6.18-7.94-3.7-7.65-3.13-15.09,1.49-21.75,6.54-9.42,3.99-16.59-1.87-25.71-5.54-8.62-7.68-19.56-10.54-29.7-1.39-4.93,1.99-7.39,7.05-6.18.48.11.92.49,1.4.52,3.04.2,6.09.34,9.13.5-.42-2.68-.97-5.36-1.23-8.06-.31-3.3-.6-6.63-.42-9.92.06-1.05,1.46-2.46,2.57-2.91,1.96-.79,4.15-1.1,6.28-1.37,2.61-.32,4.37.42,4.88,3.54.44,2.68,1.69,5.23,2.85,8.62,6.75-5.81,12.32-3.24,16.35,2,3.57,4.65,5.76,10.36,9.02,16.45.47-1.29,1.87-3.15,1.44-4.33-1.82-5,.09-7.63,4.38-10.08,1.97-1.13,3.23-3.96,4.2-6.28,1.06-2.54,1.42-5.37,2.07-8.05.9,0,1.46-.16,1.87.02,6.95,3.13,6.32,2.7,10.74-3.62,2.39-3.41,7.13-5.84,11.29-7,1.62-.45,4.66,3.68,6.85,5.92,1.75,1.79,3.21,3.88,4.8,5.83l1.75-.48c.38-3.43.77-6.87,1.29-11.57,3.27,2.61,5.97,4.6,8.49,6.81,2.91,2.55,4.9,2.12,6.3-1.25-3.19-3.24-6.23-6.31-9.27-9.38.28-.56.56-1.12.84-1.68,1.8,0,3.81-.53,5.37.1,5.14,2.06,8.43-.01,11.55-3.93,2.14-2.69,4.78-5.04,7.48-7.19.91-.72,2.7-.33,4.09-.44.1,1.39.66,2.97.2,4.14-1.58,4.01-3.69,7.81-5.28,11.81-2,5.01-.46,11.14,3.48,14.64,2.22,1.97,4.11,2.32,4.82-1.41.78-4.14,1.67-8.25,2.51-12.38l1.96-.56c2.06,2.91,4.13,5.82,6.31,8.9.72-.66,1.78-1.43,2.61-2.41,2.82-3.33,5.36-5.22,8.14.18.64,1.24,2.72,1.72,4.08,2.63,2.11,1.4,4.02,2.26,3.92,5.93-.08,3.06,2.85,6.2,4.84,10.08.72-2.78,1.28-4.9,1.82-6.99h7.18c.61,8.01,4.39,1.35,7.22,1.33.19,4.88,1.39,8.87,6.84,10.49,2.67.79,4.99,9.63,3.26,11.31-1.38,1.35-3.58,1.87-4.73,2.43.78,3.11,1.33,5.73,2.15,8.26.26.79,1.17,1.84,1.89,1.94,6.21.84,4.02,3.75,1.78,6.44,2.3,2.91,5.31,5.36,6.28,8.46.63,2.02-1.21,5.37-2.84,7.41-2.03,2.55-3.71,4.2-1.2,7.64,1.48,2.02,1.39,5.2,2.14,8.4-.64.48-1.95,1.45-3.71,2.76,2.18,1.32,4.08,2.48,5.24,3.18.13,2.13.33,3.73.29,5.32-.03.91-.21,2.01-.75,2.69-4.69,5.86-2.99,13.86,3.42,18.04,3.32,2.16,6.65,4.82,8.86,8.02,2.66,3.84,5.3,7.08,9.97,8.34,3.64.98,3.98,3.26,2.52,6.52-4.38,9.76-2.94,13.32,5.23,20.59,5.92,5.27,10.78,11.72,16.1,17.65.33.36.78.9.72,1.28-1.82,11.09,5.03,23.39-4.81,33.4-2.4,2.44-4.78,5.24-6.11,8.33-4.73,11.05-5.46,15.03.19,25.98-7.81,4.63-1.11,13.51-5.85,19.5-1.32-.08-2.89-.17-4.49-.26-1.51,3.9,4.54,9.2-3.2,11.57,5.59,3.68,5.07,8.19,3.06,13.04-.5,1.21-.94,2.6-.85,3.87.34,4.62-.72,8.52-6.18,11.49,3.57,1.32,6.07,2.25,8.99,3.33-.35,2.46-.76,5.42-1.34,9.52-.07,0-1.56.2-3.39.43.34,2.64.69,5.38,1.08,8.43h-4.4c.67,2.08,1.22,3.78,1.77,5.48l1.14-1.29c2.34,1.67,4.69,3.35,7.5,5.36-2.12,1.96-3.38,3.12-5.37,4.95h7.1c-3.66,3.96-2.42,6.88.83,9.6.61.51,1.03,1.81.85,2.59-1.19,5.2,1.02,8.43,5.55,10.65,1.59.78,2.93,2.07,5.63,4.03h-7.98c-.49,2.34-.95,4.49-1.48,7.02,3.54,1.61,5.32,4.61,2.96,8.35-1.7,2.69-4.37,4.76-7.22,7.74v4.35c-2.45,1.49-4.62,2.81-8.05,4.89,2.76,1.68,4.33,2.63,7.01,4.26-3.3.78-4.96,1.17-6.87,1.62.14,1.43.28,2.85.45,4.58-2.04-.1-3.93-.19-7.06-.34,1.68,2.46,2.8,4.11,4.15,6.09-1.23,1.16-2.52,2.37-3.99,3.76-1.51-1.35-2.77-2.49-4.04-3.62l-.91.61c1.43,2.86,2.85,5.72,4.28,8.58-.18.3-.36.61-.54.91-2.61-1.93-5.22-3.86-7.03-5.19-.5,2.89-1.33,5.81-1.38,8.74-.02,1.35,1.35,2.85,2.38,4.05.99,1.15,2.33,1.98,3.52,2.96l-.44,1.46h-8c2.41,3.11,1.01,5.66-3.58,7.78,2.52,1.02,4.01,1.62,6.44,2.6-4,1.58-7.27,2.88-10.71,4.24-.8-1.32-1.25-2.44-2.03-3.23-1.64-1.65-4.3-4.76-5.04-4.37-2.44,1.28-5.09,3.48-6.08,5.97-3.02,7.55-4.16,7.91-10.42,2.24-1.18-1.07-3.57-2.12-4.68-1.61-1.22.56-1.84,2.88-2.29,4.54-.28,1.04.31,2.28.37,3.44.26,4.67-1.35,6.07-5.95,5.26-6.88-1.22-7.13-.96-8.47,5.83-1.08,5.49-1.58,11.24-8.9,12.88-2,.45-3.86,3.61-4.87,5.93-1.81,4.18-4.7,5.79-9.01,5.51-1.49-.1-3,.02-4.49-.04-8.71-.4-8.66-.42-9.54-9.11-.12-1.21-.96-2.34-1.47-3.51-1.29.56-3.11.78-3.76,1.76-1.44,2.17-2.65,4.63-3.33,7.14-2.21,8.19-4.25,16.43-6.14,24.71-.82,3.59-2.52,5.58-6.37,5.68-4.98.13-7.23,3.02-8.1,7.81-.5,2.77-2.17,5.33-3.31,7.98-2.36-1.88-4.84-3.63-7.03-5.68-2.1-1.97-3.9-4.27-5.83-6.42-.57.23-1.14.46-1.71.69.41,2.94,1.14,5.88,1.12,8.81-.02,2.38-.93,4.76-1.45,7.13-2.39-1.12-5.33-1.71-7.04-3.48-2.86-2.96-4.98-6.64-7.34-10.07-1.89-2.74-3.55-2.87-6.58-1-3.65,2.26-8.05,3.3-13.19,5.28,1.8,2.18,3.56,4.15,5.13,6.25.93,1.24,2.53,3.2,2.13,3.94-.82,1.54-2.67,2.63-4.28,3.58-.76.45-1.98.36-2.94.19-5.05-.86-8.9-.05-11.37,5.33-1.53,3.34-4.41,3.05-6.52-.23-1.98-3.08-3.92-6.2-6.1-9.13-.79-1.06-2.47-2.44-3.34-2.2-1.29.35-2.75,1.83-3.23,3.15-1.94,5.31-3.27,10.86-5.38,16.09-.9,2.24-3.16,3.93-4.8,5.87-1.91-1.63-3.97-3.11-5.69-4.92-1.53-1.61-2.69-3.58-4.08-5.49-3.86,2.53-2.77,5.34-2.22,8.32.6,3.29.55,6.7.79,10.05-3.4-.15-7.08.46-10.14-.63-5.17-1.85-9.5-2.13-13.52,2.17-.83.89-2.29,1.21-4.2,2.16-.95-3.85-1.63-7.4-2.75-10.81-.52-1.58-1.9-2.88-2.89-4.3-1.42,1.17-3.61,2.08-4.13,3.56-2.07,5.96-3.73,12.07-5.34,18.17-1.57,5.98-2.62,6.74-8.69,5.57-5.21-1.01-8.1,1.6-8.07,7.76.02,4.15.45,8.31.82,12.46.57,6.25,0,12-5.66,16.09-.88.64-1.35,1.87-1.94,2.87-3.8,6.43-3.75,6.28-10.98,4.23-1.23-.35-3.62.87-4.45,2.08-3.57,5.18-4.92,5.51-9.85,1.68-1.83-1.42-3.69-3.41-5.76-3.74-2.04-.33-5.01.52-6.32,1.98-.81.9.13,4.43,1.36,5.85,1.79,2.07,4.63,3.18,6.85,4.92,1.54,1.21,3.19,2.57,4.1,4.23,2.25,4.1.34,7.07-4.25,6.63-3.96-.38-7.88-1.23-11.8-1.96-6.13-1.13-7.89.26-8.59,6.31-.25,2.16-1.24,4.24-1.89,6.36-2.27-1.11-4.99-1.75-6.74-3.42-9.41-8.92-10.36-8.92-17.92,1.82-1.63,2.31-3.15,4.7-4.67,7.09-4.13,6.47-7.14,7.5-14.17,4.8-6.53-2.51-7.03-2.22-8.31,4.76-.24,1.31-.44,2.63-.54,3.96-.3,4.07-2.3,5.74-6.5,5.67-6.89-.11-8.12,1.96-4.93,8.06,2.4,4.59,1.55,8.11-2.19,11.54-4.17,3.81-8.15,7.84-11.96,12.01-4.22,4.61-6.39,4.93-11.4,1-4.55-3.57-5.16-3.44-6.9,2.2-.96,3.11-2.3,5.16-5.97,5.68-4.16.59-4.4,4.4-4.86,7.74-.42,2.98.35,6.9-4.74,6.4-4.42-.44-7.09-3.79-6.87-8.19.08-1.65-.44-3.33-.68-4.99-1.61.46-3.2,1.25-4.82,1.3-2.08.06-4.82.28-6.16-.87-7.14-6.14-13.9-12.7-20.85-19.06-.95-.87-2.44-1.21-3.22-2.17-1.3-1.6-3.41-3.77-3.09-5.24,1.2-5.42-1.89-8.14-5.8-9.7-9.42-3.74-14.15-10.39-14.94-20.4-.23-2.88-1.93-5.61-2.65-8.48-.68-2.7-1.05-5.48-1.41-8.25-.4-3.07-.8-6.15-.91-9.24-.09-2.55.24-5.11.4-7.67.17-2.7,1.45-5.97.38-8.02-12.19-23.41-24.63-46.69-37.29-69.85-1.67-3.06-4.99-5.19-7.4-7.89-1.97-2.21-3.9-4.49-5.5-6.97-2.22-3.45-4.76-6.91-5.94-10.74-1.02-3.33-.93-7.3-.26-10.78.96-4.93,3.13-9.61,4.38-14.5,1.12-4.38-.98-5.31,0-10.62l4.61-2.5Z"/>
        </g>
        <path class="cls-2" d="m100,189.14c-2.76,0-5,2.24-5,5v46c0,2.76,2.24,5,5,5h261c2.76,0,5-2.24,5-5v-8.09l14.94-14.94-14.94-14.94v-8.03c0-2.76-2.24-5-5-5H100Z"/>
        <path d="m141,218.16c.62,0,1.15-.07,1.61-.22.46-.16.84-.38,1.14-.66.31-.29.54-.64.69-1.05.15-.42.23-.88.23-1.39s-.07-.92-.23-1.31c-.15-.39-.38-.73-.68-1-.3-.27-.68-.48-1.14-.62-.46-.15-1-.23-1.62-.23h-2.51v6.49h2.51Zm0-9.09c1.21,0,2.25.14,3.14.43.88.28,1.61.68,2.19,1.19.57.51,1,1.12,1.28,1.82.28.71.42,1.48.42,2.32s-.15,1.68-.44,2.41c-.29.72-.73,1.35-1.31,1.88-.58.52-1.32.93-2.2,1.22-.88.29-1.9.44-3.07.44h-2.51v6.36h-3.36v-18.07h5.88Zm20.12,5.25v12.82h-1.89c-.41,0-.67-.19-.78-.56l-.21-1.02c-.53.53-1.1.97-1.74,1.3-.63.32-1.38.49-2.24.49-.7,0-1.32-.12-1.86-.35-.53-.24-.98-.58-1.35-1.01-.37-.43-.65-.95-.84-1.54-.18-.6-.27-1.26-.27-1.98v-8.15h3.09v8.15c0,.78.18,1.39.54,1.82.37.43.91.64,1.64.64.53,0,1.03-.12,1.5-.35.47-.24.91-.57,1.33-.99v-9.27h3.09Zm11.32,4.94c0-.4-.06-.77-.17-1.12-.11-.36-.28-.67-.5-.94-.23-.27-.51-.48-.86-.62-.34-.16-.74-.24-1.2-.24-.89,0-1.6.26-2.11.76-.51.51-.83,1.23-.98,2.16h5.82Zm-5.89,1.86c.05.66.17,1.23.35,1.71.18.48.43.87.73,1.19.3.31.65.54,1.06.7.42.15.88.23,1.38.23s.93-.06,1.29-.18c.37-.12.68-.25.95-.39.28-.14.51-.27.71-.39.21-.12.41-.18.6-.18.26,0,.45.1.57.29l.89,1.12c-.34.4-.73.74-1.15,1.01-.42.27-.87.48-1.34.65-.46.16-.93.27-1.41.34-.47.07-.94.1-1.39.1-.89,0-1.72-.15-2.49-.44-.77-.3-1.43-.74-2-1.31-.57-.58-1.01-1.3-1.34-2.15-.32-.86-.49-1.85-.49-2.98,0-.88.14-1.69.43-2.46.28-.78.69-1.45,1.21-2.01.53-.58,1.18-1.03,1.94-1.36.77-.33,1.63-.5,2.59-.5.81,0,1.55.13,2.24.39.68.26,1.27.64,1.76,1.14.49.49.88,1.1,1.15,1.82.28.72.43,1.54.43,2.46,0,.47-.05.78-.15.95-.1.16-.29.24-.57.24h-7.94Zm13.89-4.58c.4-.77.88-1.37,1.42-1.8.55-.44,1.2-.66,1.95-.66.59,0,1.07.13,1.42.39l-.2,2.31c-.04.15-.1.26-.19.33-.07.06-.18.09-.31.09-.12,0-.31-.02-.56-.06-.24-.04-.48-.06-.71-.06-.34,0-.65.05-.91.15-.27.1-.51.25-.73.44-.21.18-.4.41-.56.68-.16.27-.31.57-.45.91v7.9h-3.09v-12.82h1.81c.32,0,.54.06.66.18.12.11.21.31.25.6l.19,1.45Zm10.69,10.8c-1.12,0-1.98-.31-2.57-.94-.59-.63-.89-1.5-.89-2.61v-7.16h-1.31c-.17,0-.31-.05-.42-.16-.12-.11-.18-.27-.18-.49v-1.23l2.06-.34.65-3.5c.04-.17.12-.3.24-.39.12-.09.27-.14.45-.14h1.6v4.04h3.43v2.2h-3.43v6.95c0,.4.1.71.29.94.2.23.47.34.81.34.19,0,.35-.02.48-.06.13-.05.25-.1.34-.15.1-.05.19-.1.26-.14.07-.05.15-.07.22-.07.09,0,.17.02.23.07.06.04.12.11.19.2l.93,1.5c-.45.38-.97.66-1.55.85-.58.19-1.19.29-1.81.29Zm10.6-13.22c.95,0,1.81.15,2.59.46.78.31,1.45.74,2,1.31.56.57.99,1.26,1.29,2.07.3.82.45,1.73.45,2.74s-.15,1.93-.45,2.75c-.3.82-.73,1.51-1.29,2.09-.55.58-1.22,1.02-2,1.33-.78.31-1.64.46-2.59.46s-1.83-.15-2.61-.46c-.78-.31-1.46-.75-2.01-1.33-.55-.57-.98-1.27-1.29-2.09-.3-.82-.45-1.73-.45-2.75s.15-1.92.45-2.74c.31-.82.74-1.51,1.29-2.07.56-.57,1.23-1,2.01-1.31.78-.31,1.65-.46,2.61-.46Zm0,10.84c1.07,0,1.85-.36,2.36-1.07.52-.72.78-1.77.78-3.15s-.26-2.44-.78-3.16c-.51-.73-1.3-1.09-2.36-1.09s-1.89.37-2.41,1.1c-.52.73-.78,1.78-.78,3.15s.26,2.42.78,3.15c.52.72,1.33,1.07,2.41,1.07Zm18.62-13.21v5.01h6.32v2.59h-6.32v5.11h8.02v2.69h-11.4v-18.07h11.4v2.68h-8.02Zm18.17,5.07c-.08.13-.17.23-.26.29-.09.05-.21.07-.35.07-.15,0-.31-.04-.49-.12-.17-.08-.36-.18-.59-.28-.22-.11-.48-.2-.77-.29-.28-.08-.62-.12-1.01-.12-.61,0-1.09.13-1.44.39-.34.26-.51.6-.51,1.01,0,.27.09.51.26.7.18.18.42.35.71.49.3.14.64.27,1.01.39.38.11.75.23,1.14.36.39.13.78.29,1.15.46.38.17.71.38,1,.65.3.26.54.57.71.94.18.37.28.81.28,1.32,0,.62-.11,1.19-.34,1.71-.22.52-.54.97-.97,1.35-.43.38-.97.67-1.61.89-.63.21-1.37.31-2.2.31-.44,0-.88-.04-1.3-.12-.42-.07-.82-.18-1.21-.32-.38-.14-.74-.31-1.07-.5-.32-.19-.61-.4-.86-.62l.71-1.18c.09-.14.2-.25.32-.32s.28-.11.48-.11.37.06.54.16c.18.11.38.22.6.35s.49.24.79.35c.31.11.7.16,1.16.16.37,0,.68-.04.94-.12.27-.09.48-.21.65-.35.18-.14.3-.3.38-.49.08-.19.12-.39.12-.59,0-.3-.09-.54-.27-.74-.18-.19-.41-.36-.71-.5-.29-.14-.63-.27-1.01-.38-.38-.12-.76-.24-1.16-.38-.39-.13-.78-.29-1.16-.46-.38-.18-.71-.41-1.01-.69-.29-.28-.53-.61-.71-1.01-.18-.4-.26-.88-.26-1.45,0-.52.1-1.02.31-1.5.21-.47.51-.89.91-1.24.41-.36.91-.64,1.51-.85.61-.22,1.31-.32,2.1-.32.88,0,1.69.15,2.41.44.72.29,1.33.68,1.81,1.15l-.7,1.11Zm6.25,7c.35.43.73.72,1.14.9.42.18.87.26,1.35.26s.89-.09,1.26-.26.69-.44.95-.8c.27-.36.47-.81.61-1.35.14-.55.21-1.2.21-1.94s-.06-1.38-.19-1.9c-.12-.53-.29-.95-.51-1.28-.22-.32-.5-.56-.82-.71-.32-.15-.68-.23-1.09-.23-.64,0-1.19.14-1.64.41-.45.27-.88.65-1.27,1.14v5.75Zm-.16-7.75c.53-.59,1.12-1.07,1.79-1.44.67-.37,1.45-.55,2.35-.55.7,0,1.34.15,1.91.44.58.29,1.08.72,1.5,1.27.42.55.75,1.23.98,2.05.23.81.35,1.74.35,2.79,0,.96-.13,1.85-.39,2.66-.26.82-.63,1.53-1.11,2.12-.48.6-1.05,1.07-1.74,1.41-.68.33-1.43.5-2.28.5-.72,0-1.33-.11-1.84-.33-.51-.23-.96-.53-1.36-.93v5.25h-3.09v-17.01h1.89c.4,0,.66.19.79.56l.25,1.19Zm19.55,3.19c0-.4-.06-.77-.17-1.12-.11-.36-.28-.67-.5-.94-.23-.27-.51-.48-.86-.62-.34-.16-.74-.24-1.2-.24-.89,0-1.6.26-2.11.76-.51.51-.83,1.23-.98,2.16h5.83Zm-5.89,1.86c.05.66.17,1.23.35,1.71.18.48.42.87.72,1.19.3.31.65.54,1.06.7.42.15.88.23,1.38.23s.93-.06,1.29-.18c.37-.12.68-.25.95-.39.27-.14.51-.27.71-.39.21-.12.41-.18.6-.18.26,0,.45.1.58.29l.89,1.12c-.34.4-.73.74-1.15,1.01-.43.27-.87.48-1.34.65-.46.16-.93.27-1.41.34-.48.07-.94.1-1.39.1-.89,0-1.72-.15-2.49-.44-.77-.3-1.43-.74-2-1.31-.57-.58-1.01-1.3-1.34-2.15-.32-.86-.49-1.85-.49-2.98,0-.88.14-1.69.43-2.46.28-.78.69-1.45,1.21-2.01.53-.58,1.18-1.03,1.94-1.36.77-.33,1.63-.5,2.59-.5.81,0,1.55.13,2.24.39.68.26,1.27.64,1.76,1.14.49.49.88,1.1,1.15,1.82.28.72.42,1.54.42,2.46,0,.47-.05.78-.15.95-.1.16-.29.24-.58.24h-7.94Zm13.89-4.58c.4-.77.88-1.37,1.42-1.8.55-.44,1.2-.66,1.95-.66.59,0,1.07.13,1.42.39l-.2,2.31c-.04.15-.1.26-.19.33-.07.06-.18.09-.31.09-.12,0-.31-.02-.56-.06-.24-.04-.48-.06-.71-.06-.34,0-.65.05-.91.15-.27.1-.51.25-.73.44-.21.18-.39.41-.56.68-.16.27-.31.57-.45.91v7.9h-3.09v-12.82h1.81c.32,0,.54.06.66.18.12.11.21.31.25.6l.19,1.45Zm13.02,5.12c-.89.04-1.64.12-2.25.24-.61.11-1.1.25-1.46.43-.37.18-.63.38-.79.61-.16.23-.24.49-.24.76,0,.54.16.93.48,1.16.32.23.75.35,1.26.35.63,0,1.18-.11,1.64-.34.47-.23.92-.58,1.36-1.05v-2.16Zm-7.08-5.56c1.48-1.35,3.25-2.03,5.33-2.03.75,0,1.42.12,2.01.38.59.24,1.09.58,1.5,1.03.41.43.72.96.92,1.56.22.61.33,1.28.33,2v8.1h-1.4c-.29,0-.52-.04-.68-.12-.16-.09-.28-.27-.38-.54l-.27-.93c-.33.29-.64.55-.95.77-.31.22-.63.4-.96.55-.33.15-.69.26-1.08.34-.38.08-.79.12-1.25.12-.54,0-1.04-.07-1.5-.21-.46-.15-.85-.37-1.19-.66-.33-.29-.59-.65-.78-1.09-.18-.43-.27-.94-.27-1.51,0-.33.05-.65.16-.96.11-.32.28-.63.53-.92.25-.29.57-.57.96-.83.39-.26.87-.48,1.44-.67.57-.19,1.24-.35,2-.46.76-.12,1.62-.2,2.6-.23v-.75c0-.86-.18-1.49-.55-1.9-.37-.42-.9-.62-1.59-.62-.5,0-.92.06-1.25.18-.33.12-.61.25-.86.4-.25.14-.48.27-.69.39-.2.12-.42.17-.67.17-.22,0-.4-.05-.55-.16-.15-.12-.27-.25-.36-.4l-.55-.99Zm15.88-.21c.26-.26.53-.5.81-.71.29-.23.6-.41.91-.56.33-.16.67-.28,1.04-.36.37-.09.77-.14,1.2-.14.7,0,1.32.12,1.86.36.54.23.99.57,1.35,1,.37.42.64.94.82,1.54.19.59.29,1.25.29,1.96v8.16h-3.09v-8.16c0-.78-.18-1.39-.54-1.81-.36-.43-.9-.65-1.64-.65-.53,0-1.03.12-1.5.36-.47.24-.91.57-1.32.99v9.27h-3.09v-12.82h1.89c.4,0,.66.19.79.56l.21,1.01Zm20.44-.3c0,.22-.04.43-.11.64-.07.21-.17.38-.3.51l-6.09,8.02h6.31v2.38h-9.9v-1.29c0-.14.03-.31.1-.5.07-.2.17-.39.3-.56l6.15-8.11h-6.19v-2.36h9.73v1.27Zm9.06,6.07c-.89.04-1.64.12-2.25.24-.61.11-1.1.25-1.46.43s-.63.38-.79.61c-.16.23-.24.49-.24.76,0,.54.16.93.48,1.16.32.23.75.35,1.26.35.63,0,1.18-.11,1.64-.34.47-.23.92-.58,1.36-1.05v-2.16Zm-7.08-5.56c1.48-1.35,3.25-2.03,5.33-2.03.75,0,1.42.12,2.01.38.59.24,1.09.58,1.5,1.03.41.43.72.96.92,1.56.22.61.33,1.28.33,2v8.1h-1.4c-.29,0-.52-.04-.68-.12-.16-.09-.28-.27-.38-.54l-.27-.93c-.33.29-.64.55-.95.77-.31.22-.63.4-.96.55-.33.15-.69.26-1.08.34-.38.08-.79.12-1.25.12-.54,0-1.04-.07-1.5-.21-.46-.15-.85-.37-1.19-.66-.33-.29-.59-.65-.78-1.09-.18-.43-.27-.94-.27-1.51,0-.33.05-.65.16-.96.11-.32.28-.63.52-.92.25-.29.57-.57.96-.83.39-.26.87-.48,1.44-.67.58-.19,1.24-.35,2-.46.76-.12,1.62-.2,2.6-.23v-.75c0-.86-.18-1.49-.55-1.9-.37-.42-.89-.62-1.59-.62-.5,0-.92.06-1.25.18-.33.12-.61.25-.86.4-.25.14-.48.27-.69.39-.2.12-.42.17-.67.17-.22,0-.4-.05-.55-.16-.15-.12-.27-.25-.36-.4l-.55-.99Z"/>
        <path class="cls-2" d="m566,217.14c2.76,0,5-2.24,5-5v-46c0-2.76-2.24-5-5-5h-156c-2.76,0-5,2.24-5,5v8.03l-15,15,15,15v7.97c0,2.76,2.24,5,5,5h156Z"/>
        <path d="m475.35,181.07l-5.61,18.07h-3.04l-3.95-12.35c-.11-.3-.21-.67-.3-1.1-.05.21-.1.4-.15.59-.05.18-.1.36-.16.51l-3.99,12.35h-3.05l-5.6-18.07h2.81c.29,0,.53.07.72.21.2.13.33.32.4.55l3.07,10.81c.07.27.13.56.19.88.07.31.13.63.2.98.07-.35.14-.68.21-.99.08-.31.17-.6.26-.86l3.55-10.81c.07-.19.2-.37.39-.52.2-.16.44-.24.72-.24h.99c.29,0,.53.07.71.21.18.14.32.33.41.55l3.54,10.81c.17.52.33,1.11.47,1.79.11-.66.23-1.25.36-1.79l3.08-10.81c.05-.21.17-.39.38-.54.21-.15.45-.22.74-.22h2.64Zm6.97,12.6c-.89.04-1.64.12-2.25.24-.61.11-1.1.25-1.46.43-.37.18-.63.38-.79.61-.16.23-.24.49-.24.76,0,.54.16.93.48,1.16.33.23.75.35,1.26.35.63,0,1.18-.11,1.64-.34.47-.23.92-.58,1.36-1.05v-2.16Zm-7.07-5.56c1.47-1.35,3.25-2.03,5.32-2.03.75,0,1.42.12,2.01.38.59.24,1.09.58,1.5,1.03.41.43.72.96.93,1.56.22.61.32,1.28.32,2v8.1h-1.4c-.29,0-.52-.04-.67-.12-.16-.09-.28-.27-.38-.54l-.28-.93c-.32.29-.64.55-.95.77-.31.22-.63.4-.96.55-.33.15-.69.26-1.07.34-.38.08-.79.12-1.25.12-.54,0-1.04-.07-1.5-.21-.46-.15-.85-.37-1.19-.66-.33-.29-.59-.65-.77-1.09-.18-.43-.27-.94-.27-1.51,0-.33.05-.65.16-.96.11-.32.28-.63.52-.92.25-.29.57-.57.96-.83.39-.26.87-.48,1.44-.67.58-.19,1.24-.35,2-.46.76-.12,1.62-.2,2.6-.23v-.75c0-.86-.18-1.49-.55-1.9-.37-.42-.89-.62-1.59-.62-.5,0-.92.06-1.25.18-.33.12-.61.25-.86.4-.25.14-.48.27-.69.39-.2.12-.43.17-.68.17-.22,0-.4-.05-.55-.16-.15-.12-.27-.25-.36-.4l-.55-.99Zm15.88-.21c.26-.26.53-.5.81-.71.29-.23.6-.41.91-.56.32-.16.67-.28,1.04-.36.37-.09.77-.14,1.2-.14.7,0,1.32.12,1.86.36.54.23.99.57,1.35,1,.37.42.64.94.83,1.54.19.59.29,1.25.29,1.96v8.16h-3.09v-8.16c0-.78-.18-1.39-.54-1.81-.36-.43-.9-.65-1.64-.65-.53,0-1.03.12-1.5.36-.47.24-.91.57-1.33.99v9.27h-3.09v-12.82h1.89c.4,0,.66.19.79.56l.21,1.01Zm19.27,1.7c-.35-.43-.73-.72-1.15-.9-.41-.18-.85-.26-1.33-.26s-.89.09-1.26.26-.7.44-.96.8c-.27.35-.47.8-.61,1.35-.14.54-.21,1.18-.21,1.93s.06,1.39.17,1.91c.12.52.3.94.53,1.27.22.32.5.56.82.71.33.14.69.21,1.09.21.64,0,1.19-.13,1.64-.4.45-.27.88-.65,1.27-1.14v-5.75Zm3.09-9.02v18.57h-1.89c-.41,0-.67-.19-.78-.56l-.26-1.24c-.52.59-1.11,1.07-1.79,1.44-.67.37-1.45.55-2.34.55-.7,0-1.34-.15-1.92-.44-.58-.29-1.09-.71-1.51-1.26-.42-.56-.74-1.24-.98-2.06-.23-.82-.34-1.75-.34-2.8,0-.95.13-1.83.39-2.65s.63-1.53,1.11-2.12c.48-.6,1.06-1.07,1.74-1.4.68-.34,1.43-.51,2.27-.51.72,0,1.33.11,1.84.34.51.23.96.53,1.36.91v-6.76h3.09Zm9.82,13.1c-.89.04-1.64.12-2.25.24-.61.11-1.1.25-1.46.43-.37.18-.63.38-.79.61-.16.23-.24.49-.24.76,0,.54.16.93.48,1.16.32.23.75.35,1.26.35.63,0,1.18-.11,1.64-.34.47-.23.92-.58,1.36-1.05v-2.16Zm-7.08-5.56c1.47-1.35,3.25-2.03,5.33-2.03.75,0,1.42.12,2.01.38.59.24,1.09.58,1.5,1.03.41.43.72.96.92,1.56.22.61.33,1.28.33,2v8.1h-1.4c-.29,0-.52-.04-.68-.12-.16-.09-.28-.27-.38-.54l-.27-.93c-.33.29-.64.55-.95.77-.31.22-.63.4-.96.55-.33.15-.69.26-1.08.34-.38.08-.79.12-1.25.12-.54,0-1.04-.07-1.5-.21-.46-.15-.85-.37-1.19-.66-.33-.29-.59-.65-.78-1.09-.18-.43-.28-.94-.28-1.51,0-.33.05-.65.16-.96.11-.32.28-.63.53-.92.25-.29.57-.57.96-.83.39-.26.87-.48,1.44-.67.58-.19,1.24-.35,2-.46.76-.12,1.62-.2,2.6-.23v-.75c0-.86-.18-1.49-.55-1.9-.37-.42-.9-.62-1.59-.62-.5,0-.92.06-1.25.18-.33.12-.61.25-.86.4-.25.14-.48.27-.69.39-.2.12-.42.17-.67.17-.22,0-.4-.05-.55-.16-.15-.12-.27-.25-.36-.4l-.55-.99Z"/>
        <path class="cls-3" d="m547,301.14c2.76,0,5-2.24,5-5v-46c0-2.76-2.24-5-5-5h-156c-2.76,0-5,2.24-5,5v8.03l-15,15,15,15v7.97c0,2.76,2.24,5,5,5h156Z"/>
        <path class="cls-2" d="m144,268.14c-2.76,0-5,2.24-5,5v46c0,2.76,2.24,5,5,5h196c2.76,0,5-2.24,5-5v-8.03l15-15-15-15v-7.97c0-2.76-2.24-5-5-5h-196Z"/>
        <path class="cls-2" d="m47,354.14c-2.76,0-5,2.24-5,5v46c0,2.76,2.24,5,5,5h196c2.76,0,5-2.24,5-5v-8.03l15-15-15-15v-7.97c0-2.76-2.24-5-5-5H47Z"/>
        <path d="m83.72,386.27v6.87h-3.63v-19.52h6.36c1.31,0,2.43.15,3.39.46s1.74.73,2.36,1.28c.62.55,1.08,1.21,1.38,1.97.3.76.45,1.6.45,2.51s-.16,1.81-.47,2.61c-.32.78-.79,1.46-1.42,2.02-.63.57-1.42,1.01-2.36,1.32s-2.05.47-3.32.47h-2.73Zm0-2.83h2.73c.67,0,1.25-.08,1.74-.24.5-.17.9-.41,1.23-.71.32-.32.57-.69.73-1.13.16-.45.24-.95.24-1.5s-.08-.99-.24-1.42c-.16-.42-.4-.78-.73-1.08-.32-.3-.73-.52-1.23-.67-.49-.16-1.08-.24-1.74-.24h-2.73v7.01Zm14.98-4.14v8.8c0,.85.19,1.5.58,1.97.4.46.99.69,1.77.69.58,0,1.12-.13,1.62-.38.5-.26.98-.62,1.43-1.07v-10.02h3.33v13.85h-2.04c-.43,0-.71-.2-.85-.61l-.23-1.11c-.29.29-.58.55-.89.8-.31.23-.63.44-.99.61-.34.16-.72.29-1.12.38-.4.1-.82.15-1.28.15-.76,0-1.43-.13-2.01-.38-.58-.26-1.06-.63-1.46-1.09-.4-.47-.7-1.02-.9-1.66-.2-.65-.3-1.36-.3-2.13v-8.8h3.33Zm17.02-.22c.87,0,1.67.14,2.4.42.74.28,1.37.69,1.9,1.23.53.53.94,1.19,1.24,1.97.3.77.45,1.66.45,2.66,0,.25-.01.46-.04.64-.02.16-.06.29-.12.39-.05.09-.13.16-.23.2-.1.04-.23.05-.38.05h-8.56c.1,1.42.48,2.47,1.15,3.13s1.55,1,2.65,1c.54,0,1-.06,1.39-.19.4-.13.74-.27,1.03-.42.3-.15.55-.29.77-.42.22-.13.44-.19.65-.19.14,0,.25.03.35.08.1.05.18.13.26.23l.97,1.21c-.37.43-.78.8-1.24,1.09-.46.29-.94.52-1.44.7-.5.17-1,.29-1.53.36-.51.07-1.01.11-1.5.11-.96,0-1.86-.16-2.69-.47-.83-.32-1.55-.8-2.16-1.42-.61-.63-1.09-1.4-1.44-2.32-.35-.93-.53-2-.53-3.21,0-.95.15-1.83.46-2.66.31-.84.74-1.56,1.31-2.17.58-.62,1.27-1.11,2.09-1.47.83-.36,1.76-.54,2.79-.54Zm.07,2.39c-.97,0-1.73.27-2.28.82-.55.55-.9,1.33-1.05,2.33h6.26c0-.43-.06-.84-.18-1.21-.12-.39-.3-.72-.54-1.01-.24-.29-.55-.51-.92-.67-.37-.17-.8-.26-1.3-.26Zm7.63,11.68v-13.85h1.96c.34,0,.58.06.72.19.13.13.23.34.27.65l.2,1.67c.49-.86,1.08-1.53,1.74-2.02s1.41-.74,2.24-.74c.68,0,1.25.16,1.7.47l-.43,2.5c-.03.16-.09.28-.18.35-.09.06-.21.1-.36.1-.14,0-.32-.03-.55-.1-.23-.06-.54-.09-.93-.09-.69,0-1.29.19-1.78.58-.5.38-.91.94-1.26,1.67v8.63h-3.33Zm14.57.22c-1.2,0-2.12-.34-2.77-1.01-.65-.68-.97-1.62-.97-2.82v-7.74h-1.4c-.18,0-.34-.06-.47-.17-.13-.12-.19-.29-.19-.53v-1.32l2.23-.36.7-3.78c.04-.18.12-.32.24-.42.13-.1.3-.15.5-.15h1.73v4.36h3.65v2.38h-3.65v7.51c0,.43.11.77.32,1.01.22.24.5.36.86.36.21,0,.38-.02.51-.07.14-.05.26-.11.36-.16.11-.05.2-.1.28-.15.08-.05.16-.08.24-.08.1,0,.18.03.24.08.06.05.13.12.2.22l1,1.62c-.49.4-1.04.71-1.67.92-.63.21-1.28.31-1.96.31Zm10.8-14.28c1.04,0,1.97.17,2.81.5.85.33,1.57.8,2.16,1.42.59.61,1.05,1.36,1.38,2.24.32.88.49,1.87.49,2.96s-.16,2.09-.49,2.97c-.32.88-.78,1.63-1.38,2.26-.59.62-1.31,1.1-2.16,1.43-.84.33-1.77.5-2.81.5s-1.97-.17-2.82-.5c-.85-.33-1.57-.81-2.17-1.43-.59-.62-1.06-1.37-1.39-2.26-.32-.88-.49-1.87-.49-2.97s.16-2.07.49-2.96c.33-.88.8-1.63,1.39-2.24.6-.61,1.33-1.08,2.17-1.42.85-.33,1.79-.5,2.82-.5Zm0,11.7c1.15,0,2-.39,2.55-1.16.56-.77.84-1.91.84-3.4s-.28-2.63-.84-3.42c-.55-.78-1.4-1.17-2.55-1.17s-2.03.4-2.59,1.19c-.56.78-.84,1.92-.84,3.4s.28,2.62.84,3.4c.56.77,1.42,1.16,2.59,1.16Zm16.6-5.26v7.63h-3.63v-19.52h5.95c1.33,0,2.47.14,3.42.42.95.27,1.73.65,2.34,1.15.61.49,1.06,1.09,1.34,1.78.29.68.43,1.44.43,2.27,0,.66-.1,1.28-.3,1.86-.19.58-.47,1.12-.84,1.59-.36.48-.81.9-1.35,1.26-.53.36-1.14.65-1.82.86.46.26.85.63,1.19,1.12l4.89,7.21h-3.27c-.32,0-.59-.06-.81-.19-.22-.13-.4-.31-.55-.54l-4.1-6.25c-.15-.23-.32-.4-.51-.5-.18-.1-.45-.15-.81-.15h-1.55Zm0-2.61h2.27c.68,0,1.28-.09,1.78-.26.51-.17.93-.4,1.25-.7.33-.31.58-.67.74-1.08.16-.41.24-.87.24-1.36,0-.99-.33-1.75-.99-2.28-.65-.53-1.64-.8-2.98-.8h-2.32v6.48Zm16.3-3.62v13.85h-3.33v-13.85h3.33Zm.5-4.04c0,.29-.06.56-.18.81-.12.25-.28.47-.47.66-.19.19-.41.34-.68.46-.26.11-.54.16-.84.16s-.56-.05-.82-.16c-.25-.12-.47-.27-.66-.46-.19-.19-.34-.41-.46-.66-.11-.25-.16-.52-.16-.81s.05-.58.16-.84c.12-.26.27-.49.46-.67s.41-.34.66-.45c.26-.12.53-.18.82-.18s.58.06.84.18c.26.11.49.26.68.45.2.19.36.41.47.67.12.26.18.54.18.84Zm12.01,6.97c-.1.13-.2.23-.3.3-.09.07-.23.11-.4.11s-.34-.05-.5-.15c-.16-.11-.35-.23-.58-.35-.23-.14-.49-.25-.81-.35-.31-.11-.69-.16-1.15-.16-.58,0-1.1.11-1.54.32-.44.21-.81.51-1.11.9-.29.4-.5.88-.65,1.45-.14.56-.22,1.19-.22,1.9s.08,1.39.23,1.97c.16.58.39,1.06.69,1.46.3.39.66.68,1.08.89.42.2.9.3,1.43.3s.96-.06,1.28-.19c.33-.14.61-.28.84-.43.23-.16.42-.31.58-.43.17-.13.36-.2.57-.2.27,0,.47.1.61.31l.96,1.21c-.37.43-.77.8-1.2,1.09-.43.29-.88.52-1.35.7-.46.17-.94.29-1.43.36s-.99.11-1.47.11c-.85,0-1.66-.16-2.42-.47-.76-.32-1.42-.79-1.99-1.4-.56-.61-1-1.36-1.34-2.24-.32-.89-.49-1.9-.49-3.04,0-1.02.14-1.96.43-2.82.3-.87.73-1.62,1.3-2.26.57-.64,1.27-1.14,2.11-1.5.84-.36,1.8-.54,2.89-.54s1.94.17,2.71.5c.78.33,1.49.81,2.11,1.43l-.88,1.21Zm8.05-3.14c1.04,0,1.97.17,2.81.5.85.33,1.57.8,2.16,1.42.59.61,1.05,1.36,1.38,2.24.32.88.49,1.87.49,2.96s-.16,2.09-.49,2.97c-.32.88-.78,1.63-1.38,2.26-.59.62-1.31,1.1-2.16,1.43-.84.33-1.77.5-2.81.5s-1.98-.17-2.82-.5c-.85-.33-1.57-.81-2.17-1.43-.59-.62-1.06-1.37-1.39-2.26-.32-.88-.49-1.87-.49-2.97s.16-2.07.49-2.96c.33-.88.8-1.63,1.39-2.24.6-.61,1.33-1.08,2.17-1.42.85-.33,1.79-.5,2.82-.5Zm0,11.7c1.15,0,2-.39,2.55-1.16.56-.77.84-1.91.84-3.4s-.28-2.63-.84-3.42c-.55-.78-1.4-1.17-2.55-1.17s-2.03.4-2.59,1.19c-.56.78-.84,1.92-.84,3.4s.28,2.62.84,3.4c.56.77,1.42,1.16,2.59,1.16Z"/>
        <path class="cls-1" d="m425.16,267.74v5.01h6.32v2.59h-6.32v5.11h8.02v2.69h-11.4v-18.08h11.4v2.68h-8.02Zm13.59-3.18v18.58h-3.09v-18.58h3.09Zm11.13,9.03c-.35-.43-.73-.73-1.15-.9-.41-.17-.85-.26-1.33-.26s-.89.09-1.26.26c-.38.18-.7.44-.96.8-.27.35-.47.8-.61,1.35-.14.54-.21,1.18-.21,1.92s.06,1.39.17,1.91c.12.52.3.94.52,1.28.23.32.5.56.83.71.32.14.69.21,1.09.21.64,0,1.19-.13,1.64-.4.45-.27.88-.65,1.27-1.14v-5.75Zm3.09-9.03v18.58h-1.89c-.41,0-.67-.19-.77-.56l-.26-1.24c-.52.59-1.11,1.07-1.79,1.44-.67.37-1.45.55-2.34.55-.7,0-1.34-.15-1.92-.44-.58-.29-1.09-.71-1.51-1.26-.42-.56-.74-1.24-.98-2.06-.23-.82-.34-1.75-.34-2.8,0-.95.13-1.83.39-2.65.26-.82.63-1.52,1.11-2.12.48-.6,1.06-1.07,1.74-1.4.67-.34,1.43-.51,2.27-.51.72,0,1.33.11,1.84.34.51.23.96.53,1.36.91v-6.76h3.09Zm8.72,5.55c.95,0,1.81.15,2.59.46.78.31,1.45.75,2,1.31.56.57.99,1.26,1.29,2.08.3.82.45,1.73.45,2.74s-.15,1.93-.45,2.75c-.3.82-.73,1.51-1.29,2.09-.55.58-1.22,1.02-2,1.33-.78.31-1.64.46-2.59.46s-1.83-.15-2.61-.46c-.78-.31-1.45-.75-2.01-1.33-.55-.57-.98-1.27-1.29-2.09-.3-.82-.45-1.73-.45-2.75s.15-1.92.45-2.74c.31-.82.74-1.51,1.29-2.08.56-.57,1.23-1,2.01-1.31.78-.31,1.65-.46,2.61-.46Zm0,10.84c1.07,0,1.86-.36,2.36-1.08.52-.72.77-1.77.77-3.15s-.26-2.44-.77-3.16c-.51-.72-1.3-1.09-2.36-1.09s-1.89.37-2.41,1.1c-.52.72-.78,1.77-.78,3.15s.26,2.42.78,3.15c.52.72,1.33,1.08,2.41,1.08Zm11.59-8.41c.4-.77.88-1.37,1.42-1.8.55-.44,1.2-.66,1.95-.66.59,0,1.07.13,1.42.39l-.2,2.31c-.04.15-.1.26-.19.33-.08.06-.18.09-.31.09-.12,0-.31-.02-.56-.06-.24-.04-.48-.06-.71-.06-.34,0-.65.05-.91.15-.27.1-.51.25-.73.44-.21.18-.4.41-.56.68-.16.27-.31.57-.45.91v7.9h-3.09v-12.83h1.81c.32,0,.54.06.66.18.12.11.21.31.25.6l.19,1.45Zm13.02,5.12c-.89.04-1.64.12-2.25.24-.61.11-1.1.25-1.46.43-.37.17-.63.38-.79.61-.16.23-.24.49-.24.76,0,.54.16.93.48,1.16.33.23.74.35,1.26.35.63,0,1.18-.11,1.64-.34.47-.23.92-.58,1.36-1.05v-2.16Zm-7.07-5.56c1.48-1.35,3.25-2.02,5.32-2.02.75,0,1.42.12,2.01.38.59.24,1.09.58,1.5,1.02.41.43.72.95.93,1.56.22.61.32,1.27.32,2v8.1h-1.4c-.29,0-.52-.04-.67-.12-.16-.09-.28-.27-.38-.54l-.27-.93c-.33.29-.64.55-.95.78-.31.22-.63.4-.96.55-.33.15-.69.26-1.07.34-.38.08-.79.12-1.25.12-.54,0-1.04-.07-1.5-.21-.46-.15-.85-.37-1.19-.66-.33-.29-.59-.65-.77-1.09-.18-.43-.27-.94-.27-1.51,0-.33.05-.65.16-.96.11-.32.28-.63.52-.92.25-.29.57-.57.96-.83.39-.26.87-.48,1.44-.67.57-.19,1.24-.35,2-.46.76-.12,1.62-.2,2.6-.23v-.75c0-.86-.18-1.49-.55-1.9-.37-.42-.9-.62-1.59-.62-.5,0-.92.06-1.25.17-.32.12-.61.25-.86.4-.25.14-.48.27-.69.39-.2.12-.43.17-.68.17-.22,0-.4-.05-.55-.16-.15-.12-.27-.25-.36-.4l-.55-.99Zm21.04,1.49c-.35-.43-.73-.73-1.15-.9-.41-.17-.85-.26-1.33-.26s-.89.09-1.26.26c-.38.18-.7.44-.96.8-.27.35-.47.8-.61,1.35-.14.54-.21,1.18-.21,1.92s.06,1.39.17,1.91c.12.52.3.94.53,1.28.22.32.5.56.82.71.33.14.69.21,1.09.21.64,0,1.19-.13,1.64-.4.45-.27.88-.65,1.27-1.14v-5.75Zm3.09-9.03v18.58h-1.89c-.41,0-.67-.19-.77-.56l-.26-1.24c-.52.59-1.11,1.07-1.79,1.44-.67.37-1.44.55-2.34.55-.7,0-1.34-.15-1.92-.44s-1.09-.71-1.51-1.26c-.42-.56-.74-1.24-.98-2.06-.23-.82-.34-1.75-.34-2.8,0-.95.13-1.83.39-2.65.26-.82.63-1.52,1.11-2.12.48-.6,1.06-1.07,1.74-1.4.68-.34,1.43-.51,2.28-.51.72,0,1.33.11,1.84.34s.96.53,1.36.91v-6.76h3.09Zm8.72,5.55c.95,0,1.81.15,2.59.46.78.31,1.45.75,2,1.31.56.57.99,1.26,1.29,2.08.3.82.45,1.73.45,2.74s-.15,1.93-.45,2.75c-.3.82-.73,1.51-1.29,2.09-.55.58-1.22,1.02-2,1.33-.78.31-1.64.46-2.59.46s-1.83-.15-2.61-.46c-.78-.31-1.45-.75-2.01-1.33-.55-.57-.98-1.27-1.29-2.09-.3-.82-.45-1.73-.45-2.75s.15-1.92.45-2.74c.31-.82.74-1.51,1.29-2.08.56-.57,1.23-1,2.01-1.31.78-.31,1.65-.46,2.61-.46Zm0,10.84c1.07,0,1.85-.36,2.36-1.08.52-.72.78-1.77.78-3.15s-.26-2.44-.78-3.16c-.51-.72-1.29-1.09-2.36-1.09s-1.89.37-2.41,1.1c-.52.72-.78,1.77-.78,3.15s.26,2.42.78,3.15c.52.72,1.33,1.08,2.41,1.08Z"/>
        <path class="cls-2" d="m295,73.14c-2.76,0-5,2.24-5,5v46c0,2.76,2.24,5,5,5h90.33l13.57,16.94,13.57-16.94h89.53c2.76,0,5-2.24,5-5v-46c0-2.76-2.24-5-5-5h-207Z"/>
        <path d="m319.27,102.16c.62,0,1.15-.07,1.61-.22.46-.16.84-.38,1.14-.66.31-.29.54-.64.69-1.05.15-.42.23-.88.23-1.39s-.08-.92-.23-1.31-.38-.72-.67-1c-.3-.28-.68-.48-1.14-.62-.46-.15-1-.22-1.62-.22h-2.51v6.49h2.51Zm0-9.09c1.21,0,2.25.14,3.14.43.88.28,1.61.68,2.19,1.19.57.51,1,1.12,1.27,1.82.28.71.42,1.48.42,2.33s-.15,1.68-.44,2.41c-.29.72-.73,1.35-1.31,1.88-.58.53-1.32.93-2.2,1.22-.88.29-1.9.44-3.08.44h-2.51v6.36h-3.36v-18.08h5.88Zm20.12,5.25v12.83h-1.89c-.41,0-.67-.19-.77-.56l-.21-1.02c-.52.53-1.1.97-1.74,1.3-.63.33-1.38.49-2.24.49-.7,0-1.32-.12-1.86-.35-.53-.24-.98-.58-1.35-1.01-.37-.43-.65-.94-.84-1.54-.18-.6-.27-1.26-.27-1.98v-8.15h3.09v8.15c0,.78.18,1.39.54,1.83.37.42.91.64,1.64.64.53,0,1.03-.12,1.5-.35.47-.24.91-.57,1.32-.99v-9.28h3.09Zm11.32,4.94c0-.4-.06-.78-.17-1.12-.11-.36-.28-.67-.5-.94-.23-.27-.51-.47-.86-.62-.34-.16-.74-.24-1.2-.24-.89,0-1.6.25-2.11.76-.51.51-.83,1.23-.98,2.16h5.83Zm-5.89,1.86c.05.66.17,1.23.35,1.71.18.48.42.87.73,1.19.3.31.65.54,1.06.7.42.15.88.23,1.38.23s.93-.06,1.29-.18c.37-.12.68-.25.95-.39.27-.14.51-.27.71-.39.21-.12.41-.17.6-.17.26,0,.45.1.58.29l.89,1.12c-.34.4-.73.74-1.15,1.01-.42.27-.87.48-1.34.65-.46.16-.93.27-1.41.34-.48.07-.94.1-1.39.1-.89,0-1.72-.15-2.49-.44-.77-.3-1.43-.74-2-1.31-.57-.58-1.01-1.3-1.34-2.15-.32-.86-.49-1.85-.49-2.98,0-.88.14-1.69.43-2.46.28-.78.69-1.45,1.21-2.01.53-.58,1.18-1.03,1.94-1.36.77-.33,1.63-.5,2.59-.5.81,0,1.55.13,2.24.39.68.26,1.27.64,1.76,1.14.49.49.88,1.1,1.15,1.82.28.72.42,1.54.42,2.46,0,.47-.05.78-.15.95-.1.16-.29.24-.58.24h-7.94Zm13.89-4.58c.4-.77.88-1.37,1.42-1.8.55-.44,1.2-.66,1.95-.66.59,0,1.07.13,1.42.39l-.2,2.31c-.04.15-.1.26-.19.33-.07.06-.18.09-.31.09-.12,0-.31-.02-.56-.06-.24-.04-.48-.06-.71-.06-.34,0-.65.05-.91.15s-.51.25-.73.44c-.21.18-.4.41-.56.67-.16.27-.31.57-.45.91v7.9h-3.09v-12.83h1.81c.32,0,.54.06.66.18.12.11.21.31.25.6l.19,1.45Zm10.69,10.8c-1.12,0-1.98-.31-2.57-.94-.59-.63-.89-1.5-.89-2.61v-7.16h-1.31c-.17,0-.31-.05-.42-.16-.12-.11-.18-.27-.18-.49v-1.23l2.06-.34.65-3.5c.04-.17.12-.3.24-.39s.27-.14.45-.14h1.6v4.04h3.43v2.2h-3.43v6.95c0,.4.1.71.29.94.2.22.47.34.81.34.19,0,.35-.02.48-.06.13-.05.25-.1.34-.15.1-.05.19-.1.26-.14.07-.05.15-.07.22-.07.09,0,.17.02.23.07.06.04.12.11.19.2l.92,1.5c-.45.38-.97.66-1.55.85-.58.19-1.19.29-1.81.29Zm10.6-13.23c.95,0,1.81.15,2.59.46.78.31,1.45.75,2,1.31.56.57.99,1.26,1.29,2.07.3.82.45,1.73.45,2.74s-.15,1.93-.45,2.75c-.3.82-.73,1.51-1.29,2.09-.55.57-1.22,1.02-2,1.32-.78.31-1.64.46-2.59.46s-1.83-.16-2.61-.46c-.78-.31-1.45-.75-2.01-1.32-.55-.58-.98-1.27-1.29-2.09-.3-.82-.45-1.73-.45-2.75s.15-1.92.45-2.74c.31-.82.74-1.51,1.29-2.07.56-.57,1.23-1,2.01-1.31.78-.31,1.65-.46,2.61-.46Zm0,10.84c1.07,0,1.85-.36,2.36-1.07.52-.72.77-1.77.77-3.15s-.26-2.44-.77-3.16c-.51-.72-1.3-1.09-2.36-1.09s-1.89.37-2.41,1.1c-.52.72-.78,1.77-.78,3.15s.26,2.43.78,3.15c.52.72,1.33,1.07,2.41,1.07Zm25.83-.59v2.78h-10.59v-18.08h3.36v15.3h7.22Zm5.11-10.05v12.83h-3.1v-12.83h3.1Zm.43-3.74c0,.27-.05.52-.16.75-.11.23-.26.44-.44.61-.18.18-.38.32-.62.43-.24.1-.5.15-.77.15s-.52-.05-.76-.15c-.23-.11-.44-.25-.61-.43-.18-.17-.32-.38-.43-.61-.1-.23-.15-.48-.15-.75s.05-.53.15-.78c.11-.24.25-.45.43-.62.17-.18.38-.31.61-.41.24-.11.49-.16.76-.16s.53.05.77.16c.24.1.45.24.62.41.18.18.33.38.44.62.11.24.16.5.16.78Zm5.81,13.24c.35.42.73.72,1.14.9.42.18.85.26,1.31.26s.9-.08,1.27-.25c.38-.17.71-.44.98-.8.27-.37.47-.83.61-1.39.14-.57.21-1.24.21-2.03,0-1.41-.23-2.43-.7-3.05-.47-.63-1.14-.95-2.01-.95-.59,0-1.11.14-1.55.41-.44.27-.86.65-1.26,1.14v5.75Zm0-7.93c.52-.54,1.09-.97,1.71-1.29.63-.33,1.35-.49,2.16-.49.74,0,1.41.15,2,.44.6.29,1.11.71,1.52,1.26.42.54.75,1.2.98,1.98.22.78.34,1.65.34,2.61,0,1.04-.13,1.99-.39,2.84-.26.85-.63,1.58-1.11,2.19-.48.6-1.05,1.07-1.73,1.4-.67.33-1.42.5-2.25.5-.4,0-.76-.04-1.09-.12-.33-.08-.62-.18-.9-.33-.28-.14-.53-.31-.76-.51-.22-.21-.44-.44-.65-.69l-.14.86c-.05.22-.14.37-.26.46-.12.09-.28.14-.49.14h-2.04v-18.58h3.09v7.33Zm19.36,3.36c0-.4-.06-.78-.17-1.12-.11-.36-.28-.67-.5-.94-.23-.27-.51-.47-.86-.62-.34-.16-.74-.24-1.2-.24-.89,0-1.6.25-2.11.76-.51.51-.83,1.23-.98,2.16h5.83Zm-5.89,1.86c.05.66.17,1.23.35,1.71.18.48.42.87.73,1.19.3.31.65.54,1.06.7.42.15.88.23,1.38.23s.93-.06,1.29-.18c.37-.12.68-.25.95-.39.27-.14.51-.27.71-.39.21-.12.41-.17.6-.17.26,0,.45.1.58.29l.89,1.12c-.34.4-.72.74-1.15,1.01-.42.27-.87.48-1.34.65-.46.16-.93.27-1.41.34-.48.07-.94.1-1.39.1-.89,0-1.72-.15-2.49-.44-.77-.3-1.43-.74-2-1.31-.57-.58-1.01-1.3-1.34-2.15-.32-.86-.49-1.85-.49-2.98,0-.88.14-1.69.42-2.46.28-.78.69-1.45,1.21-2.01.53-.58,1.18-1.03,1.94-1.36.77-.33,1.63-.5,2.59-.5.81,0,1.55.13,2.24.39.68.26,1.27.64,1.76,1.14.49.49.88,1.1,1.15,1.82.28.72.42,1.54.42,2.46,0,.47-.05.78-.15.95-.1.16-.29.24-.58.24h-7.94Zm13.89-4.58c.4-.77.88-1.37,1.43-1.8.55-.44,1.2-.66,1.95-.66.59,0,1.07.13,1.43.39l-.2,2.31c-.04.15-.1.26-.19.33-.07.06-.18.09-.31.09-.12,0-.31-.02-.56-.06-.24-.04-.48-.06-.71-.06-.34,0-.65.05-.91.15-.27.1-.51.25-.72.44-.21.18-.4.41-.56.67-.16.27-.31.57-.45.91v7.9h-3.09v-12.83h1.81c.32,0,.54.06.66.18.12.11.21.31.25.6l.19,1.45Zm10.69,10.8c-1.12,0-1.97-.31-2.57-.94-.59-.63-.89-1.5-.89-2.61v-7.16h-1.31c-.17,0-.31-.05-.42-.16s-.18-.27-.18-.49v-1.23l2.06-.34.65-3.5c.04-.17.12-.3.24-.39s.27-.14.45-.14h1.6v4.04h3.43v2.2h-3.43v6.95c0,.4.1.71.29.94.2.22.47.34.81.34.19,0,.35-.02.48-.06.13-.05.25-.1.34-.15.1-.05.19-.1.26-.14.07-.05.15-.07.23-.07.09,0,.17.02.22.07.06.04.12.11.19.2l.92,1.5c-.45.38-.97.66-1.55.85-.58.19-1.19.29-1.81.29Zm11.8-5.67c-.89.04-1.64.12-2.25.24-.61.11-1.1.25-1.46.42-.37.18-.63.38-.79.61-.16.23-.24.49-.24.76,0,.54.16.93.48,1.16.33.23.75.35,1.26.35.63,0,1.18-.11,1.64-.34.47-.23.92-.58,1.36-1.05v-2.16Zm-7.07-5.56c1.47-1.35,3.25-2.03,5.32-2.03.75,0,1.42.12,2.01.38.59.24,1.09.58,1.5,1.03.41.43.72.95.93,1.56.22.61.32,1.28.32,2v8.1h-1.4c-.29,0-.52-.04-.67-.12-.16-.09-.28-.27-.38-.54l-.27-.92c-.33.29-.64.55-.95.77-.31.22-.63.4-.96.55-.33.15-.69.26-1.07.34-.38.08-.79.12-1.25.12-.54,0-1.04-.07-1.5-.21-.46-.15-.85-.37-1.19-.66-.33-.29-.59-.65-.77-1.09-.18-.43-.27-.94-.27-1.51,0-.32.05-.65.16-.96.11-.33.28-.63.52-.93.25-.29.57-.57.96-.82.39-.26.87-.48,1.44-.68.58-.19,1.24-.35,2-.46.76-.12,1.62-.2,2.6-.22v-.75c0-.86-.18-1.49-.55-1.9-.37-.42-.9-.62-1.59-.62-.5,0-.92.06-1.25.17-.32.12-.61.25-.86.4-.25.14-.48.27-.69.39-.2.12-.43.17-.68.17-.22,0-.4-.05-.55-.16-.15-.12-.27-.25-.36-.4l-.55-.99Zm21.04,1.49c-.35-.42-.73-.72-1.15-.9-.41-.17-.85-.26-1.33-.26s-.89.09-1.26.26c-.38.18-.7.44-.96.8-.27.35-.47.8-.61,1.35-.14.54-.21,1.18-.21,1.93s.06,1.39.17,1.91c.12.52.3.94.53,1.27.22.33.5.56.82.71.33.14.69.21,1.09.21.64,0,1.19-.13,1.64-.4.45-.27.88-.64,1.27-1.14v-5.75Zm3.09-9.03v18.58h-1.89c-.41,0-.67-.19-.77-.56l-.26-1.24c-.52.59-1.11,1.07-1.79,1.44-.67.37-1.45.55-2.34.55-.7,0-1.34-.15-1.92-.44-.58-.29-1.09-.71-1.51-1.26-.42-.56-.74-1.25-.98-2.06-.23-.82-.34-1.75-.34-2.8,0-.95.13-1.83.39-2.65.26-.82.63-1.53,1.11-2.12.48-.6,1.06-1.07,1.74-1.4.68-.34,1.43-.51,2.28-.51.72,0,1.33.11,1.84.34.51.22.96.53,1.36.91v-6.76h3.09Z"/>
        <path d="m195.82,286.62v19.52h-3.2v-12.61c0-.5.03-1.05.08-1.63l-5.9,11.08c-.28.53-.71.8-1.28.8h-.51c-.58,0-1-.26-1.28-.8l-5.97-11.12c.03.3.05.59.07.88.02.29.03.55.03.8v12.61h-3.2v-19.52h2.74c.16,0,.3,0,.42.01s.22.03.31.07c.1.04.18.09.26.17.08.08.16.19.23.32l5.85,10.84c.15.29.29.58.42.89.13.31.26.62.39.95.13-.33.26-.65.39-.96.14-.32.28-.62.43-.9l5.76-10.81c.07-.13.15-.24.23-.32.08-.08.17-.14.26-.17.1-.04.21-.06.32-.07.12,0,.26-.01.42-.01h2.74Zm9.54,5.45c1.03,0,1.96.17,2.79.5.85.33,1.57.8,2.16,1.42.6.61,1.07,1.36,1.39,2.24s.49,1.87.49,2.96-.16,2.09-.49,2.97-.79,1.63-1.39,2.26c-.59.62-1.31,1.1-2.16,1.43-.84.33-1.77.5-2.79.5s-1.98-.17-2.82-.5c-.85-.33-1.57-.81-2.17-1.43-.59-.62-1.06-1.37-1.39-2.26-.32-.88-.49-1.87-.49-2.97s.16-2.07.49-2.96c.33-.88.8-1.63,1.39-2.24.6-.61,1.33-1.08,2.17-1.42.85-.33,1.79-.5,2.82-.5Zm0,11.7c1.15,0,2-.39,2.55-1.16.56-.77.84-1.91.84-3.4s-.28-2.63-.84-3.42c-.55-.78-1.4-1.17-2.55-1.17s-2.04.4-2.6,1.19c-.56.78-.84,1.92-.84,3.4s.28,2.62.84,3.4c.57.77,1.43,1.16,2.6,1.16Zm12.49-9.79c.28-.28.57-.54.88-.77.32-.24.64-.44.99-.61.35-.17.72-.3,1.12-.39.4-.1.83-.15,1.3-.15.76,0,1.43.13,2.01.39.58.25,1.07.61,1.46,1.08.4.46.69,1.01.89,1.66.21.64.31,1.35.31,2.12v8.82h-3.33v-8.82c0-.85-.19-1.5-.58-1.96-.39-.47-.98-.7-1.77-.7-.58,0-1.12.13-1.62.39-.5.26-.98.62-1.43,1.07v10.02h-3.34v-13.85h2.04c.43,0,.71.2.85.61l.23,1.09Zm16.55,12.37c-1.21,0-2.13-.34-2.78-1.01-.64-.68-.96-1.62-.96-2.82v-7.74h-1.42c-.18,0-.33-.06-.46-.17-.13-.12-.19-.29-.19-.53v-1.32l2.23-.36.7-3.78c.04-.18.13-.32.26-.42.13-.1.29-.15.49-.15h1.73v4.36h3.7v2.38h-3.7v7.51c0,.43.1.77.31,1.01.22.24.51.36.88.36.21,0,.38-.02.51-.07.14-.05.27-.11.37-.16.11-.05.2-.1.28-.15.08-.05.16-.08.24-.08.1,0,.18.03.24.08.06.05.13.12.2.22l1,1.62c-.49.4-1.04.71-1.67.92-.63.21-1.28.31-1.96.31Zm14.25-8.74c0-.43-.06-.84-.19-1.21-.12-.39-.3-.72-.54-1.01-.24-.29-.55-.51-.93-.67-.37-.17-.8-.26-1.3-.26-.96,0-1.72.27-2.28.82-.55.55-.9,1.33-1.05,2.33h6.29Zm-6.36,2.01c.05.71.18,1.33.38,1.85.2.51.46.94.78,1.28.32.33.71.58,1.15.76.45.16.95.24,1.49.24s1-.06,1.39-.19c.4-.13.74-.27,1.03-.42.3-.15.55-.29.77-.42.23-.13.44-.19.65-.19.28,0,.49.1.62.31l.96,1.21c-.37.43-.78.8-1.24,1.09-.46.29-.94.52-1.44.7-.49.17-1,.29-1.53.36-.51.07-1.01.11-1.5.11-.96,0-1.86-.16-2.69-.47-.83-.32-1.55-.8-2.16-1.42-.61-.63-1.09-1.4-1.44-2.32-.35-.93-.53-2-.53-3.21,0-.95.15-1.83.46-2.66.31-.84.74-1.56,1.31-2.17.58-.62,1.27-1.11,2.09-1.47.83-.36,1.76-.54,2.79-.54.87,0,1.68.14,2.42.42.74.28,1.37.69,1.9,1.23.53.53.94,1.19,1.24,1.97.31.77.46,1.66.46,2.66,0,.5-.05.85-.16,1.03-.11.17-.32.26-.62.26h-8.57Zm21.78-4.42c-.1.13-.2.23-.3.3-.09.07-.23.11-.4.11s-.34-.05-.5-.15c-.16-.11-.36-.23-.58-.35-.23-.14-.5-.25-.81-.35-.31-.11-.69-.16-1.15-.16-.58,0-1.1.11-1.54.32-.44.21-.81.51-1.11.9-.29.4-.5.88-.65,1.45-.14.56-.22,1.19-.22,1.9s.08,1.39.23,1.97c.16.58.39,1.06.69,1.46.3.39.66.68,1.08.89.42.2.9.3,1.43.3s.96-.06,1.28-.19c.33-.14.61-.28.84-.43.23-.16.42-.31.58-.43.17-.13.36-.2.57-.2.27,0,.47.1.61.31l.96,1.21c-.37.43-.77.8-1.2,1.09-.43.29-.88.52-1.35.7-.46.17-.94.29-1.43.36-.49.07-.97.11-1.46.11-.85,0-1.66-.16-2.42-.47-.76-.32-1.42-.79-1.98-1.4-.57-.61-1.02-1.36-1.35-2.24-.32-.89-.49-1.9-.49-3.04,0-1.02.14-1.96.43-2.82.3-.87.73-1.62,1.3-2.26.57-.64,1.27-1.14,2.11-1.5.84-.36,1.8-.54,2.89-.54s1.94.17,2.71.5c.78.33,1.49.81,2.11,1.43l-.88,1.21Zm10.42,5.01c-.96.04-1.77.13-2.43.26-.66.12-1.18.27-1.58.46s-.68.41-.85.66c-.17.25-.26.53-.26.82,0,.59.17,1,.51,1.26.35.25.81.38,1.36.38.68,0,1.27-.12,1.77-.36.5-.25.99-.63,1.47-1.13v-2.33Zm-7.64-6.01c1.59-1.46,3.51-2.19,5.75-2.19.81,0,1.53.14,2.17.4.64.26,1.18.63,1.62,1.11.44.47.77,1.03,1,1.69.23.66.35,1.38.35,2.16v8.75h-1.51c-.32,0-.56-.05-.73-.14-.17-.1-.31-.29-.4-.58l-.3-1c-.35.32-.69.59-1.03.84-.33.23-.68.43-1.04.59-.36.16-.75.28-1.16.36-.4.09-.85.14-1.35.14-.58,0-1.12-.08-1.62-.23-.49-.16-.92-.4-1.28-.71-.36-.32-.64-.71-.84-1.17-.2-.47-.3-1.01-.3-1.63,0-.35.06-.7.18-1.04.12-.35.31-.68.57-1,.27-.32.62-.61,1.04-.89.42-.28.94-.52,1.55-.73.62-.21,1.34-.37,2.16-.5.82-.13,1.76-.22,2.81-.24v-.81c0-.93-.2-1.61-.59-2.05-.4-.45-.97-.68-1.72-.68-.54,0-.99.06-1.35.19-.35.13-.66.27-.93.43-.27.15-.52.29-.74.42-.22.13-.46.19-.73.19-.23,0-.43-.06-.59-.17-.16-.13-.29-.27-.39-.43l-.59-1.07Zm17.18.47c.43-.83.94-1.48,1.54-1.94.59-.48,1.3-.72,2.11-.72.64,0,1.15.14,1.54.42l-.22,2.5c-.04.16-.11.28-.2.35-.08.06-.19.1-.34.1-.13,0-.34-.02-.61-.07-.26-.05-.52-.07-.77-.07-.37,0-.7.05-.99.16-.29.11-.55.26-.78.47-.23.2-.43.44-.61.73-.17.29-.33.62-.49.99v8.53h-3.33v-13.85h1.96c.34,0,.58.06.72.19.14.12.23.33.27.65l.2,1.57Zm10.3-8.61v20.06h-3.34v-20.06h3.34Zm9.45,5.99c1.03,0,1.96.17,2.8.5.85.33,1.57.8,2.16,1.42.6.61,1.07,1.36,1.39,2.24s.49,1.87.49,2.96-.16,2.09-.49,2.97-.79,1.63-1.39,2.26c-.59.62-1.31,1.1-2.16,1.43-.84.33-1.77.5-2.8.5s-1.98-.17-2.82-.5c-.85-.33-1.57-.81-2.17-1.43-.59-.62-1.06-1.37-1.39-2.26-.32-.88-.49-1.87-.49-2.97s.16-2.07.49-2.96c.33-.88.8-1.63,1.39-2.24.6-.61,1.33-1.08,2.17-1.42.85-.33,1.79-.5,2.82-.5Zm0,11.7c1.15,0,2-.39,2.55-1.16.56-.77.84-1.91.84-3.4s-.28-2.63-.84-3.42c-.55-.78-1.4-1.17-2.55-1.17s-2.04.4-2.61,1.19c-.56.78-.84,1.92-.84,3.4s.28,2.62.84,3.4c.57.77,1.43,1.16,2.61,1.16Z"/>
      </g>
    </g>
  </g>
</svg>