<?xml version="1.0" encoding="utf-8"?>
<!-- Generator: Adobe Illustrator 28.0.0, SVG Export Plug-In . SVG Version: 6.00 Build 0)  -->
<svg version="1.1" id="Capa_1" xmlns="http://www.w3.org/2000/svg" xmlns:xlink="http://www.w3.org/1999/xlink" x="0px" y="0px"
	 viewBox="0 0 653 131" style="enable-background:new 0 0 653 131;" xml:space="preserve">
<style type="text/css">
	.st0{fill:#2D2D2B;}
	.st1{fill:#0075C9;}
	.st2{fill:#FFB71B;}
	.st3{fill:#FFFFFF;}
	.st4{fill:#EA0029;}
</style>
<g>
	<g>
		<path class="st0" d="M275,48.5v15.3h-2.5V48.5H275z"/>
		<path class="st0" d="M283.6,53c2.6,0,4.3,1.8,4.3,4.3v6.5h-2.3v-6.2c0-1.7-1-2.5-2.4-2.5c-1.3,0-2.3,0.9-2.9,1.7v6.9h-2.3V53.3
			h2.1v1.4C280.7,53.8,282,53,283.6,53z"/>
		<path class="st0" d="M293.9,53c1.4,0,2.8,0.4,3.8,0.9V56c-0.9-0.6-2.4-1-3.6-1c-0.9,0-1.9,0.3-1.9,1.1c0,2,6.3,1.1,6.3,4.9
			c0,2.3-2.1,3.1-4.5,3.1c-1.5,0-3.1-0.4-4.1-1V61c1.1,0.7,2.7,1.1,4,1.1c1.3,0,2.3-0.2,2.3-1.1c0-1.9-6.3-1.1-6.3-4.9
			C289.7,53.8,291.8,53,293.9,53z"/>
		<path class="st0" d="M303.5,49.6v3.7h3.8v2.1h-3.8v4.8c0,1.4,0.6,1.8,2,1.8c0.8,0,1.5-0.2,2.1-0.4v2c-0.8,0.3-1.8,0.5-2.8,0.5
			c-2,0-3.6-1-3.6-3.5v-5.2h-1.9v-2.1h1.9v-3.2L303.5,49.6z"/>
		<path class="st0" d="M310.6,51.3c-0.8,0-1.4-0.4-1.4-1.4c0-0.9,0.7-1.4,1.4-1.4c0.8,0,1.4,0.5,1.4,1.4
			C312,50.9,311.4,51.3,310.6,51.3z M309.4,63.8V53.3h2.3v10.5H309.4z"/>
		<path class="st0" d="M317.7,49.6v3.7h3.8v2.1h-3.8v4.8c0,1.4,0.6,1.8,2,1.8c0.8,0,1.5-0.2,2.1-0.4v2C321,63.9,320,64,319,64
			c-2,0-3.6-1-3.6-3.5v-5.2h-1.9v-2.1h1.9v-3.2L317.7,49.6z"/>
		<path class="st0" d="M333.6,53.3v10.5h-2.1v-1.4c-0.8,0.9-2.1,1.7-3.6,1.7c-2.8,0-4.3-1.8-4.3-4.3v-6.5h2.3v6.2
			c0,1.7,0.9,2.5,2.4,2.5c1.3,0,2.3-0.9,2.9-1.7v-6.9H333.6z"/>
		<path class="st0" d="M339.5,49.6v3.7h3.8v2.1h-3.8v4.8c0,1.4,0.6,1.8,2,1.8c0.8,0,1.5-0.2,2.1-0.4v2c-0.8,0.3-1.8,0.5-2.8,0.5
			c-2,0-3.6-1-3.6-3.5v-5.2h-1.9v-2.1h1.9v-3.2L339.5,49.6z"/>
		<path class="st0" d="M350.4,53c3,0,5.7,1.9,5.7,5.5c0,3.6-2.7,5.5-5.7,5.5c-2.9,0-5.7-1.9-5.7-5.5C344.7,54.9,347.5,53,350.4,53z
			 M350.4,55.2c-2,0-3.3,1.3-3.3,3.4c0,2.1,1.4,3.4,3.3,3.4c1.9,0,3.3-1.3,3.3-3.4C353.7,56.5,352.3,55.2,350.4,55.2z"/>
		<path class="st0" d="M363.8,63.8V48.5h2.3l8.2,11.2c0-0.5,0-1.1,0-1.7v-9.5h2.5v15.3h-2.3l-8.2-11.2c0,0.5,0,1.1,0,1.7v9.5H363.8z
			"/>
		<path class="st0" d="M389.3,62.1c0.2,0,0.5-0.1,0.7-0.1v1.7c-0.4,0.2-1,0.3-1.5,0.3c-1,0-1.7-0.4-2.1-1.2c-1,0.8-2.3,1.4-4,1.4
			c-1.9,0-3.7-1-3.7-3.2c0-2.7,2.5-3.5,4.7-3.5c0.9,0,1.9,0.1,2.7,0.3v-0.4c0-1.3-1-2.2-2.8-2.2c-1.6,0-2.8,0.4-3.8,0.8v-2.1
			c0.8-0.3,2.3-0.7,4-0.7c3,0,4.9,1.4,4.9,4.6v3.8C388.5,62,388.9,62.1,389.3,62.1z M381.2,60.7c0,1,0.9,1.6,2,1.6
			c1.1,0,2.2-0.4,3-1.2v-1.8c-0.6-0.1-1.5-0.3-2.3-0.3C382.6,59,381.2,59.4,381.2,60.7z"/>
		<path class="st0" d="M396.6,53c1.2,0,2.3,0.3,3.2,0.8V56c-0.8-0.5-1.8-0.9-2.9-0.9c-1.9,0-3.7,1-3.7,3.5c0,2.4,1.8,3.5,3.7,3.5
			c1.1,0,2.2-0.3,3.1-0.8v2.2c-1,0.5-2.1,0.7-3.5,0.7c-2.8,0-5.7-1.7-5.7-5.4C390.8,54.7,393.8,53,396.6,53z"/>
		<path class="st0" d="M403.4,51.3c-0.8,0-1.4-0.4-1.4-1.4c0-0.9,0.7-1.4,1.4-1.4c0.8,0,1.4,0.5,1.4,1.4
			C404.8,50.9,404.1,51.3,403.4,51.3z M402.2,63.8V53.3h2.3v10.5H402.2z"/>
		<path class="st0" d="M412.4,53c3,0,5.7,1.9,5.7,5.5c0,3.6-2.7,5.5-5.7,5.5c-2.9,0-5.7-1.9-5.7-5.5C406.7,54.9,409.5,53,412.4,53z
			 M412.4,55.2c-2,0-3.3,1.3-3.3,3.4c0,2.1,1.4,3.4,3.3,3.4c1.9,0,3.3-1.3,3.3-3.4C415.7,56.5,414.4,55.2,412.4,55.2z"/>
		<path class="st0" d="M426,53c2.6,0,4.3,1.8,4.3,4.3v6.5H428v-6.2c0-1.7-1-2.5-2.4-2.5c-1.3,0-2.3,0.9-2.9,1.7v6.9h-2.3V53.3h2.1
			v1.4C423.1,53.8,424.4,53,426,53z"/>
		<path class="st0" d="M442.7,62.1c0.2,0,0.5-0.1,0.7-0.1v1.7c-0.4,0.2-1,0.3-1.5,0.3c-1,0-1.7-0.4-2.1-1.2c-1,0.8-2.3,1.4-4,1.4
			c-1.9,0-3.7-1-3.7-3.2c0-2.7,2.5-3.5,4.7-3.5c0.9,0,1.9,0.1,2.7,0.3v-0.4c0-1.3-1-2.2-2.8-2.2c-1.6,0-2.8,0.4-3.8,0.8v-2.1
			c0.8-0.3,2.3-0.7,4-0.7c3,0,4.9,1.4,4.9,4.6v3.8C441.9,62,442.3,62.1,442.7,62.1z M434.6,60.7c0,1,0.9,1.6,2,1.6
			c1.1,0,2.2-0.4,3-1.2v-1.8c-0.6-0.1-1.5-0.3-2.3-0.3C436,59,434.6,59.4,434.6,60.7z"/>
		<path class="st0" d="M447.3,47.8v16h-2.3v-16H447.3z"/>
		<path class="st0" d="M284.5,73.6v17.7h-2.4v-1.9c-0.9,1.2-2.4,2.2-4.6,2.2c-3.7,0-6-2.9-6-6.4c0-3.5,2.3-6.4,6-6.4
			c2.1,0,3.5,0.9,4.4,1.9v-7.1H284.5z M277.9,81.2c-2.2,0-3.8,1.6-3.8,4c0,2.4,1.6,4,3.8,4c1.9,0,3.3-1.2,3.9-2.6v-3
			C281.2,82.4,279.8,81.2,277.9,81.2z"/>
		<path class="st0" d="M292.8,78.9c4.8,0,6.5,3.9,5.7,7.4h-9.1c0.3,2.2,2.4,3.1,4.6,3.1c1.5,0,2.8-0.4,3.8-0.9v2.3
			c-1.1,0.5-2.7,0.8-4.3,0.8c-3.7,0-6.9-2.1-6.9-6.4C286.7,80.9,290,78.9,292.8,78.9z M292.9,81.1c-1.8,0-3.5,1.1-3.6,3.1h6.7
			C296.2,83.2,295.6,81.1,292.9,81.1z"/>
		<path class="st0" d="M304.5,72.9v18.4h-2.7V72.9H304.5z"/>
		<path class="st0" d="M327.3,73.6v2.7h-5.8v15h-2.9v-15h-5.9v-2.7H327.3z"/>
		<path class="st0" d="M331.6,78.9c4.8,0,6.5,3.9,5.7,7.4h-9.1c0.3,2.2,2.4,3.1,4.6,3.1c1.5,0,2.8-0.4,3.8-0.9v2.3
			c-1.1,0.5-2.7,0.8-4.3,0.8c-3.7,0-6.9-2.1-6.9-6.4C325.5,80.9,328.8,78.9,331.6,78.9z M331.8,81.1c-1.8,0-3.5,1.1-3.6,3.1h6.7
			C335.1,83.2,334.4,81.1,331.8,81.1z"/>
		<path class="st0" d="M351.6,89.4c0.3,0,0.6-0.1,0.8-0.2v1.9c-0.5,0.2-1.1,0.3-1.7,0.3c-1.1,0-2-0.4-2.4-1.4
			c-1.2,1-2.7,1.6-4.6,1.6c-2.2,0-4.2-1.2-4.2-3.7c0-3.1,2.9-4.1,5.4-4.1c1,0,2.2,0.2,3.2,0.4v-0.4c0-1.5-1.1-2.6-3.2-2.6
			c-1.8,0-3.3,0.5-4.4,0.9v-2.5c1-0.3,2.7-0.8,4.6-0.8c3.4,0,5.6,1.6,5.6,5.3v4.3C350.7,89.2,351.1,89.4,351.6,89.4z M342.2,87.7
			c0,1.2,1.1,1.8,2.3,1.8c1.3,0,2.6-0.5,3.5-1.4v-2c-0.7-0.2-1.8-0.3-2.6-0.3C343.8,85.8,342.2,86.2,342.2,87.7z"/>
		<path class="st0" d="M357.7,74.9v4.3h4.4v2.4h-4.4v5.6c0,1.6,0.7,2.1,2.3,2.1c0.9,0,1.7-0.2,2.5-0.5v2.3c-0.9,0.3-2.1,0.5-3.3,0.5
			c-2.3,0-4.2-1.2-4.2-4v-6.1h-2.2v-2.4h2.2v-3.7L357.7,74.9z"/>
		<path class="st0" d="M372.1,78.9v2.7c-2.2-0.3-4.1,0.7-4.8,2.4v7.4h-2.7V79.2h2.4v2C367.9,79.7,369.9,78.7,372.1,78.9z"/>
		<path class="st0" d="M379.6,78.9c3.4,0,6.6,2.2,6.6,6.4c0,4.2-3.2,6.4-6.6,6.4c-3.4,0-6.6-2.2-6.6-6.4
			C373.1,81.1,376.3,78.9,379.6,78.9z M379.6,81.3c-2.3,0-3.8,1.5-3.8,3.9c0,2.4,1.6,3.9,3.8,3.9c2.2,0,3.8-1.5,3.8-3.9
			C383.5,82.9,381.9,81.3,379.6,81.3z"/>
	</g>
	<g>
		<rect x="205.7" y="25.1" class="st0" width="48.4" height="80.8"/>
		<rect x="236.4" y="67.5" class="st1" width="13.7" height="34.4"/>
		<polygon class="st2" points="218.7,63.5 246.7,63.5 218.7,32 		"/>
		<polygon class="st3" points="221.8,29.1 250.1,60.6 250.1,29.1 		"/>
		<rect x="218.7" y="67.5" class="st3" width="13.7" height="34.4"/>
		<rect x="209.7" y="29.1" class="st4" width="4.9" height="72.7"/>
	</g>
</g>
</svg>
