<svg width="680" height="316" viewBox="0 0 680 316" fill="none" xmlns="http://www.w3.org/2000/svg">
<path d="M216.148 117.446V154.353H210.118V117.446H216.148Z" fill="white"/>
<path d="M236.891 128.301C243.162 128.301 247.262 132.643 247.262 138.673V154.353H241.714V139.397C241.714 135.296 239.303 133.366 235.926 133.366C232.79 133.366 230.378 135.537 228.931 137.467V154.111H223.384V129.024H228.449V132.401C229.896 130.23 233.031 128.301 236.891 128.301Z" fill="white"/>
<path d="M261.734 128.301C265.11 128.301 268.487 129.266 270.899 130.472V135.537C268.728 134.09 265.11 133.125 262.216 133.125C260.045 133.125 257.633 133.849 257.633 135.779C257.633 140.603 272.829 138.432 272.829 147.598C272.829 153.146 267.763 155.076 261.975 155.076C258.357 155.076 254.498 154.111 252.086 152.664V147.598C254.739 149.287 258.598 150.252 261.734 150.252C264.869 150.252 267.281 149.769 267.281 147.598C267.281 143.015 252.086 144.945 252.086 135.779C251.603 130.23 256.668 128.301 261.734 128.301Z" fill="white"/>
<path d="M284.888 120.099V129.024H294.054V134.09H284.888V145.669C284.888 149.046 286.335 150.011 289.712 150.011C291.642 150.011 293.33 149.528 294.777 149.046V153.87C292.848 154.594 290.436 155.076 288.024 155.076C283.2 155.076 279.341 152.664 279.341 146.634V134.09H274.758V129.024H279.341V121.305L284.888 120.099Z" fill="white"/>
<path d="M302.013 124.2C300.084 124.2 298.636 123.235 298.636 120.823C298.636 118.652 300.325 117.446 302.013 117.446C303.943 117.446 305.39 118.652 305.39 120.823C305.39 123.235 303.943 124.2 302.013 124.2ZM299.119 154.353V129.024H304.666V154.353H299.119Z" fill="white"/>
<path d="M319.138 120.099V129.024H328.303V134.09H319.138V145.669C319.138 149.046 320.585 150.011 323.962 150.011C325.891 150.011 327.58 149.528 329.027 149.046V153.87C327.097 154.594 324.685 154.835 322.273 154.835C317.449 154.835 313.59 152.423 313.59 146.392V133.849H309.008V128.783H313.59V121.064L319.138 120.099Z" fill="white"/>
<path d="M357.488 129.024V154.353H352.423V150.976C350.493 153.147 347.358 155.076 343.74 155.076C336.986 155.076 333.368 150.734 333.368 144.704V129.024H338.916V143.98C338.916 148.081 341.087 150.011 344.704 150.011C347.84 150.011 350.252 147.84 351.699 145.91V129.266H357.488V129.024Z" fill="white"/>
<path d="M371.718 120.099V129.024H380.884V134.09H371.718V145.669C371.718 149.046 373.165 150.011 376.542 150.011C378.472 150.011 380.16 149.528 381.607 149.046V153.87C379.678 154.594 377.266 155.076 374.854 155.076C370.03 155.076 366.171 152.664 366.171 146.634V134.09H361.588V129.024H366.171V121.305L371.718 120.099Z" fill="white"/>
<path d="M398.008 128.301C405.244 128.301 411.757 132.884 411.757 141.568C411.757 150.252 405.244 154.835 398.008 154.835C391.014 154.835 384.26 150.252 384.26 141.568C384.26 132.884 391.014 128.301 398.008 128.301ZM398.008 133.608C393.185 133.608 390.049 136.743 390.049 141.809C390.049 146.875 393.426 150.011 398.008 150.011C402.591 150.011 405.968 146.875 405.968 141.809C405.968 136.743 402.591 133.608 398.008 133.608Z" fill="white"/>
<path d="M430.328 154.353V117.446H435.876L455.654 144.463C455.654 143.256 455.654 141.809 455.654 140.362V117.446H461.684V154.353H456.136L436.358 127.336C436.358 128.542 436.358 129.989 436.358 131.437V154.353H430.328Z" fill="white"/>
<path d="M491.833 150.252C492.315 150.252 493.039 150.011 493.521 150.011V154.111C492.557 154.594 491.109 154.835 489.904 154.835C487.492 154.835 485.803 153.87 484.838 151.94C482.426 153.87 479.291 155.318 475.191 155.318C470.608 155.318 466.266 152.905 466.266 147.598C466.266 141.085 472.296 139.156 477.603 139.156C479.773 139.156 482.185 139.397 484.115 139.879V138.915C484.115 135.779 481.703 133.608 477.361 133.608C473.502 133.608 470.608 134.573 468.196 135.537V130.472C470.126 129.748 473.743 128.783 477.844 128.783C485.08 128.783 489.662 132.16 489.662 139.879V149.046C489.903 150.011 490.868 150.252 491.833 150.252ZM472.296 146.875C472.296 149.287 474.467 150.734 477.12 150.734C479.773 150.734 482.427 149.769 484.356 147.84V143.498C482.909 143.256 480.738 142.774 478.809 142.774C475.673 142.774 472.296 143.739 472.296 146.875Z" fill="white"/>
<path d="M509.44 128.301C512.335 128.301 514.988 129.024 517.158 130.23V135.537C515.229 134.331 512.817 133.366 510.164 133.366C505.581 133.366 501.24 135.779 501.24 141.809C501.24 147.598 505.581 150.252 510.164 150.252C512.817 150.252 515.47 149.528 517.641 148.322V153.629C515.229 154.835 512.576 155.317 509.199 155.317C502.446 155.317 495.451 151.217 495.451 142.291C495.451 132.401 502.687 128.301 509.44 128.301Z" fill="white"/>
<path d="M525.842 124.2C523.912 124.2 522.465 123.235 522.465 120.823C522.465 118.652 524.153 117.446 525.842 117.446C527.771 117.446 529.218 118.652 529.218 120.823C529.218 123.235 527.53 124.2 525.842 124.2ZM522.947 154.353V129.024H528.495V154.353H522.947Z" fill="white"/>
<path d="M547.549 128.301C554.785 128.301 561.297 132.884 561.297 141.568C561.297 150.252 554.785 154.835 547.549 154.835C540.554 154.835 533.801 150.252 533.801 141.568C533.801 132.884 540.554 128.301 547.549 128.301ZM547.549 133.608C542.725 133.608 539.59 136.743 539.59 141.809C539.59 146.875 542.966 150.011 547.549 150.011C552.132 150.011 555.508 146.875 555.508 141.809C555.508 136.743 552.373 133.608 547.549 133.608Z" fill="white"/>
<path d="M580.352 128.301C586.623 128.301 590.723 132.643 590.723 138.673V154.353H585.175V139.397C585.175 135.296 582.763 133.366 579.387 133.366C576.251 133.366 573.839 135.537 572.392 137.467V154.111H566.845V129.024H571.91V132.401C573.357 130.23 576.492 128.301 580.352 128.301Z" fill="white"/>
<path d="M620.631 150.252C621.113 150.252 621.837 150.011 622.319 150.011V154.111C621.355 154.594 619.907 154.835 618.701 154.835C616.289 154.835 614.601 153.87 613.636 151.94C611.224 153.87 608.089 155.318 603.988 155.318C599.406 155.318 595.064 152.905 595.064 147.598C595.064 141.085 601.094 139.156 606.4 139.156C608.571 139.156 610.983 139.397 612.913 139.879V138.915C612.913 135.779 610.501 133.608 606.159 133.608C602.3 133.608 599.406 134.573 596.994 135.537V130.472C598.923 129.748 602.541 128.783 606.642 128.783C613.877 128.783 618.46 132.16 618.46 139.879V149.046C618.701 150.011 619.666 150.252 620.631 150.252ZM601.094 146.875C601.094 149.287 603.265 150.734 605.918 150.734C608.571 150.734 611.224 149.769 613.154 147.84V143.498C611.707 143.256 609.536 142.774 607.606 142.774C604.471 142.774 601.094 143.739 601.094 146.875Z" fill="white"/>
<path d="M631.726 115.757V154.353H626.178V115.757H631.726Z" fill="white"/>
<path d="M239.061 177.992V220.689H233.273V216.105C231.102 219 227.484 221.412 222.178 221.412C213.253 221.412 207.706 214.417 207.706 205.974C207.706 197.531 213.253 190.536 222.178 190.536C227.243 190.536 230.619 192.707 232.79 195.119V177.992H239.061ZM223.142 196.325C217.836 196.325 213.977 200.185 213.977 205.974C213.977 211.763 217.836 215.623 223.142 215.623C227.725 215.623 231.102 212.728 232.549 209.351V202.114C231.102 199.22 227.725 196.325 223.142 196.325Z" fill="white"/>
<path d="M259.08 190.777C270.658 190.777 274.758 200.185 272.829 208.627H250.88C251.603 213.934 256.668 216.105 261.975 216.105C265.593 216.105 268.728 215.14 271.14 213.934V219.482C268.487 220.689 264.628 221.412 260.769 221.412C251.845 221.412 244.126 216.347 244.126 205.974C244.368 195.602 252.327 190.777 259.08 190.777ZM259.322 196.084C254.98 196.084 250.88 198.737 250.639 203.562H266.799C267.281 201.15 265.834 196.084 259.322 196.084Z" fill="white"/>
<path d="M287.3 176.304V220.688H280.788V176.304H287.3Z" fill="white"/>
<path d="M342.292 177.992V184.505H328.303V220.689H321.309V184.505H307.078V177.992H342.292Z" fill="white"/>
<path d="M352.664 190.777C364.241 190.777 368.341 200.185 366.412 208.627H344.463C345.187 213.934 350.252 216.105 355.558 216.105C359.176 216.105 362.312 215.14 364.724 213.934V219.482C362.07 220.689 358.211 221.412 354.352 221.412C345.428 221.412 337.71 216.347 337.71 205.974C337.951 195.602 345.91 190.777 352.664 190.777ZM353.146 196.084C348.805 196.084 344.704 198.737 344.463 203.562H360.623C361.106 201.15 359.417 196.084 353.146 196.084Z" fill="white"/>
<path d="M400.903 216.105C401.626 216.105 402.35 215.864 402.832 215.623V220.206C401.626 220.689 400.179 220.93 398.732 220.93C396.079 220.93 393.908 219.965 392.943 217.553C390.049 219.965 386.431 221.412 381.848 221.412C376.542 221.412 371.718 218.518 371.718 212.487C371.718 205.009 378.713 202.597 384.743 202.597C387.155 202.597 390.049 203.079 392.461 203.562V202.597C392.461 198.979 389.808 196.325 384.743 196.325C380.401 196.325 376.783 197.531 374.13 198.496V192.466C376.542 191.742 380.642 190.536 385.225 190.536C393.426 190.536 398.732 194.395 398.732 203.321V213.693C398.732 215.623 399.697 216.105 400.903 216.105ZM378.231 212.005C378.231 214.899 380.884 216.347 383.778 216.347C386.914 216.347 390.049 215.14 392.22 212.969V208.145C390.531 207.663 387.878 207.421 385.949 207.421C382.09 207.421 378.231 208.386 378.231 212.005Z" fill="white"/>
<path d="M415.616 181.128V191.501H426.228V197.29H415.616V210.798C415.616 214.658 417.304 215.864 421.163 215.864C423.334 215.864 425.263 215.382 427.193 214.658V220.206C425.022 220.93 422.128 221.412 419.234 221.412C413.686 221.412 409.103 218.517 409.103 211.763V197.049H403.797V191.259H409.103V182.334L415.616 181.128Z" fill="white"/>
<path d="M450.348 190.777V197.29C445.041 196.566 440.459 198.979 438.77 203.079V220.93H432.258V191.501H438.047V196.325C440.217 192.707 445.041 190.295 450.348 190.777Z" fill="white"/>
<path d="M468.437 190.777C476.638 190.777 484.356 196.084 484.356 206.215C484.356 216.347 476.638 221.653 468.437 221.653C460.237 221.653 452.518 216.347 452.518 206.215C452.76 196.084 460.478 190.777 468.437 190.777ZM468.437 196.566C462.89 196.566 459.272 200.185 459.272 205.974C459.272 211.763 463.131 215.382 468.437 215.382C473.744 215.382 477.603 211.763 477.603 205.974C477.844 200.426 473.985 196.566 468.437 196.566Z" fill="white"/>
<path fill-rule="evenodd" clip-rule="evenodd" d="M49 61H165.738V255.907H49V61ZM123.047 163.278H156.09V246.258H123.047V163.278ZM80.3553 153.629H147.89L80.3553 77.6443V153.629ZM156.09 146.634L87.8323 70.6488H156.09V146.634ZM113.399 163.278H80.3553V246.258H113.399V163.278ZM58.6478 70.6488H70.4663V246.017H58.6478V70.6488Z" fill="white"/>
</svg>
