<svg width="489" height="603" viewBox="0 0 489 603" fill="none" xmlns="http://www.w3.org/2000/svg">
<path fill-rule="evenodd" clip-rule="evenodd" d="M285.597 154.68L285.912 155.021L286.351 155.439L286.812 155.837L287.289 156.214L287.766 156.586L288.24 156.966L288.698 157.361L289.061 157.667L289.636 158.133L290.14 158.472L290.641 158.812L291.105 159.201L291.56 159.617L291.975 160.061L292.319 160.558L292.607 161.107L292.812 161.688L292.91 162.28L292.907 162.906L292.81 163.525L292.609 164.083L292.246 164.564L291.796 164.997L291.352 165.42L290.907 165.835L290.449 166.235L289.977 166.616L289.489 166.971L288.961 167.269L288.43 167.565L287.915 167.883L287.4 168.205L286.896 168.538L286.394 168.881L285.896 169.227L285.405 169.584L284.92 169.949L284.454 170.336L283.993 170.733L283.529 171.125L283.02 171.485L282.64 171.933L282.399 172.489L282.22 173.083L282.085 173.684L282.017 174.291L282.044 174.848L282.047 174.904L282.144 175.504L282.28 176.106L282.47 176.689L282.724 177.236L283.011 177.772L283.326 178.297L283.654 178.813L284.001 179.318L284.353 179.813L284.757 180.263L285.231 180.65L285.657 181.079L286.044 181.555L286.359 182.007L286.668 182.603L286.86 183.183L287.009 183.792L287.099 184.406L287.102 185.003L286.92 185.559L286.592 186.093L286.299 186.639L286.074 187.209L285.866 187.784L285.662 188.363L285.451 188.934L285.218 189.495L284.947 190.038L284.638 190.557L284.291 191.054L283.92 191.541L283.54 192.024L283.166 192.504L282.797 192.988L282.421 193.465L282.041 193.941L281.662 194.415L281.285 194.893L280.919 195.378L280.545 195.862L280.428 196.018L280.179 196.348L279.827 196.847L279.504 197.361L279.231 197.901L279 198.466L278.8 199.046L278.613 199.626L278.418 200.207L278.233 200.793L278.065 201.382L277.919 201.974L277.816 202.57L277.775 203.171L277.802 203.78L277.856 204.394L277.902 205.007L277.916 205.616L277.919 206.226L277.913 206.835L277.911 207.313L277.908 207.446L277.905 208.055V208.666L277.919 209.029L277.929 209.279L277.957 209.895L277.964 210.505L277.921 211.109L277.818 211.705L277.683 212.299L277.525 212.892L277.347 213.478L277.151 214.059L276.937 214.63L276.707 215.192L276.422 215.733L276.092 216.247L275.739 216.746L275.354 217.215L274.942 217.662L274.503 218.13L274.127 218.568L273.739 219.036L273.357 219.508L272.975 219.984L272.592 220.457L272.205 220.923L271.812 221.389L271.422 221.855L271.029 222.322L270.63 222.785L270.221 223.235L269.798 223.669L269.356 224.083L268.898 224.48L268.573 224.742L267.949 225.237L267.462 225.603L266.976 225.972L266.491 226.341L266.017 226.718L265.548 227.105L265.085 227.499L264.624 227.896L264.16 228.287L263.686 228.668L263.201 229.032L262.705 229.384L262.212 229.737L261.713 230.09L261.209 230.434L260.712 230.788L260.244 231.169L259.815 231.595L259.428 232.067L259.081 232.574L258.769 233.095L258.479 233.631L258.211 234.178L257.953 234.731L257.701 235.288L257.446 235.843L257.175 236.396L256.91 236.958L256.687 237.525L256.552 238.105L256.533 238.704L256.606 239.313L256.706 239.929L256.783 240.539L256.823 241.016L256.834 241.148L256.883 241.758L256.948 242.367L257.043 242.967L257.189 243.555L257.384 244.131L257.62 244.697L257.872 245.253L257.94 245.401L258.127 245.808L258.395 246.355L258.677 246.897L258.962 247.435L259.249 247.976L259.452 248.377L259.523 248.519L259.558 248.592L259.78 249.069L260.016 249.631L260.227 250.202L260.417 250.783L260.572 251.303L260.75 251.96L260.894 252.551L261.03 253.15L261.146 253.755L261.228 254.36L261.255 254.964L261.187 255.564L261.024 256.161L260.821 256.74L260.588 257.301L260.311 257.848L260.01 258.375L259.672 258.885L259.322 259.383L258.978 259.886L258.655 260.404L258.338 260.924L257.994 261.425L257.617 261.902L257.221 262.366L256.826 262.827L256.441 263.299L256.178 263.676L256.094 263.799L255.766 264.315L255.424 264.819L255.04 265.286L254.614 265.723L254.175 266.146L253.747 266.58L253.356 267.086L252.947 267.546L252.446 267.784L251.839 267.77L251.202 267.691L250.586 267.689L249.976 267.669L249.407 267.497L248.868 267.219L248.348 266.886L247.852 266.535L247.385 266.145L246.938 265.727L246.488 265.318L246.041 264.908L245.578 264.507L245.057 264.207L244.48 264.003L243.889 263.829L243.295 263.708L242.699 263.669L242.097 263.728L241.495 263.839L240.891 263.947L240.287 264.02L240.257 264.024L239.685 264.085L239.081 264.145L238.476 264.209L237.874 264.272L237.267 264.332L236.663 264.385L236.058 264.449L235.459 264.537L234.863 264.655L234.267 264.784L233.671 264.932L233.091 265.11L232.527 265.326L231.998 265.609L231.499 265.967L231.025 266.363L230.578 266.771L230.141 267.197L229.719 267.637L229.309 268.088L228.911 268.549L228.532 269.026L228.184 269.532L227.892 270.061L227.667 270.626L227.556 271.013L227.358 271.812L227.23 272.412L227.135 273.021L227.119 273.626L227.193 274.225L227.323 274.823L227.466 275.421L227.594 276.02L227.686 276.623L227.789 277.224L227.941 277.814L228.166 278.383L228.382 278.957L228.515 279.545L228.597 280.15L228.653 280.757L228.694 281.367L228.727 281.979L228.751 282.588V283.202L228.686 283.81L228.518 284.393L228.287 284.957L228.041 285.518L227.811 286.083L227.588 286.652L227.371 287.221L227.146 287.789L226.913 288.355L226.669 288.911L226.404 289.459L226.133 290.013L225.851 290.564L225.545 291.101L225.217 291.61L224.845 292.077L224.398 292.474L223.861 292.792L223.292 293.038L222.718 293.211L222.108 293.274L221.495 293.308L220.888 293.35L220.281 293.378L219.671 293.381L219.066 293.359L218.904 293.35L218.459 293.329L217.852 293.29L217.248 293.238L216.649 293.132L216.05 293.044L215.44 293.023L214.936 293.029L214.228 293.074L213.624 293.147L213.562 293.156L213.022 293.232L212.412 293.295L211.803 293.332L211.209 293.438L210.64 293.632L210.073 293.853L209.512 294.09L208.951 294.332L208.55 294.505L208.39 294.572L207.824 294.793L207.249 294.993L206.669 295.172L206.078 295.33L205.487 295.466L204.888 295.554L204.281 295.602L203.674 295.666L203.072 295.772L202.47 295.906L201.917 296.13L201.422 296.472L200.955 296.87L200.481 297.264L199.966 297.588L199.424 297.873L198.914 298.2L198.481 298.622L198.101 299.098L197.735 299.592L197.383 300.089L197.041 300.595L196.7 301.099L196.369 301.617L196.02 302.117L195.583 302.532L195.101 302.899L194.591 303.239L194.068 303.56L193.537 303.851L192.976 304.094L192.42 304.336L191.862 304.579L191.309 304.839L190.789 305.149L190.287 305.494L189.791 305.852L189.284 306.185L188.737 306.461L188.178 306.725L187.663 307.037L187.254 307.468L186.929 307.992L186.593 308.508L186.205 308.977L185.793 309.429L185.384 309.881L184.999 310.351L184.695 310.872L184.438 311.433L184.134 311.969L183.836 312.509L183.592 313.061L183.467 313.573L183.449 313.646L183.362 314.252L183.321 314.868L183.324 315.483L183.37 316.086L183.514 316.674L183.722 317.253L183.923 317.835L184.075 318.427L184.224 319.018L184.424 319.591L184.682 320.142L184.953 320.694L185.175 321.258L185.316 321.852L185.408 322.225L185.679 323.016L185.902 323.583L186.113 324.156L186.17 324.311L186.316 324.732L186.484 325.317L186.595 325.917L186.652 326.53V327.139L186.563 327.754L186.311 328.297L185.961 328.803L185.547 329.267L185.088 329.655L184.533 329.91L183.936 330.07L183.34 330.186L182.741 330.274L182.134 330.349L181.315 330.458L180.749 330.677L180.177 330.889L179.6 331.083L179.023 331.268L178.437 331.444L177.854 331.61L177.263 331.762L176.672 331.901L176.079 332.038L175.485 332.177L174.894 332.329L174.303 332.465L173.65 332.574L173.084 332.653L172.485 332.614L171.902 332.465L171.317 332.274L170.742 332.05L170.186 331.795L169.663 331.501L169.203 331.092L168.799 330.628L168.468 330.119L168.164 329.585L167.815 329.088L167.419 328.624L166.991 328.188L166.538 327.779L166.072 327.382L165.576 327.018L165.045 326.736L164.473 326.514L163.879 326.351L163.277 326.242L162.681 326.22L162.077 326.308L161.472 326.427L160.868 326.521L160.266 326.627L159.683 326.79L159.117 327.015L158.569 327.294L158.063 327.624L157.61 328.036L157.212 328.497L156.897 329.024L156.572 329.537L156.187 330.022L155.778 330.486L155.314 330.868L154.775 331.131L154.279 331.28L154.181 331.31L153.579 331.438L153.005 331.313L152.4 331.316L151.79 331.334L151.184 331.358L150.571 331.398L149.967 331.446L149.362 331.516L148.763 331.631L148.164 331.749L147.562 331.825L146.955 331.84L146.345 331.828L145.738 331.825L145.128 331.849L144.521 331.877L143.914 331.886L143.302 331.865L142.691 331.837L142.083 331.825L141.479 331.865L140.88 331.956L140.283 332.077L139.691 332.219L139.101 332.377L138.512 332.538L138.251 332.61L137.926 332.704L137.47 332.856L136.785 333.129L136.231 333.383L135.679 333.647L135.136 333.926L134.608 334.229L134.108 334.566L133.646 334.96L133.2 335.381L132.739 335.781L132.249 336.148L131.744 336.494L131.244 336.842L130.773 337.224L130.34 337.646L129.937 338.103L129.556 338.582L129.182 339.067L128.811 339.549L128.435 340.031L128.077 340.522L127.752 341.041L127.446 341.565L127.15 342.102L126.866 342.638L126.59 343.184L126.325 343.733L126.09 344.297L125.893 344.873L125.699 345.452L125.467 346.016L125.183 346.552L124.865 347.077L124.544 347.598L124.253 348.135L124.018 348.692L123.806 349.268L123.612 349.85L123.441 350.442L123.297 351.036L123.181 351.633L123.178 352.23L123.327 352.845L123.336 353.44L123.132 354.007L122.854 354.561L122.58 355.119L122.403 355.695L122.325 356.298L122.312 356.92L122.362 357.538L122.477 358.132L122.698 358.693L122.993 359.218L123.305 359.772L123.534 360.33L123.689 360.934L123.741 361.194L123.816 361.564L123.887 362.192L123.873 362.789L123.728 363.325L123.308 363.762L122.757 364.126L122.232 364.453L121.696 364.75L121.141 365.011L120.573 365.226L119.983 365.39L119.378 365.505L118.769 365.556L118.167 365.532L117.566 365.423L117.122 365.305L116.971 365.266L116.386 365.093L115.807 364.902L115.235 364.699L114.423 364.511L113.023 364.256L112.094 364.195L111.485 364.171L110.878 364.153L110.069 364.132L109.66 364.116L109.051 364.089L108.44 364.056L107.835 364.013L107.224 363.944L106.616 363.886L106.011 363.895L105.403 363.959L104.79 364.056L104.194 364.201L103.632 364.41L103.11 364.711L102.624 365.096L102.172 365.517L101.746 365.951L101.356 366.426L101.009 366.927L100.704 367.454L100.446 368.009L100.231 368.582L100.088 369.176L100.033 369.788L100.051 370.395L100.139 370.998L100.239 371.604L100.3 372.207L100.35 372.817L100.378 373.426L100.378 374.035L100.358 374.66L100.308 375.275L100.184 375.864L99.9164 376.403L99.4912 376.867L99.2244 377.055L98.9919 377.216L98.4541 377.549L97.8939 377.855L97.3202 378.089L96.7565 378.207L96.1986 378.11L95.6398 377.813L95.067 377.513L94.4764 377.376L93.8651 377.31L93.2424 377.282L92.6215 377.294L92.0199 377.361L91.4456 377.501L90.9145 377.819L90.4462 378.24L90.0451 378.695L89.685 379.198L89.2942 379.92L89.1317 380.286L88.9631 380.868L88.85 381.472L88.7695 382.084L88.7246 382.69L88.7657 383.303L88.7537 383.915L88.7371 384.537L88.7843 385.134L88.9713 385.701L89.2918 386.225L89.6158 386.756L89.8879 387.304L90.1487 387.871L90.4164 388.429L90.7112 388.957L91.0621 389.435L91.5474 389.778L92.1193 390.036L92.653 390.348L93.1156 390.739L93.5583 391.16L94.0054 391.579L94.5006 391.955L94.9812 392.337L95.3586 392.797L95.6441 393.331L95.8803 393.901L96.0813 394.486L96.2598 395.065L96.4085 395.659L96.529 396.259L96.6322 396.86L96.7436 397.472L96.8772 398.096L96.9877 398.718L97.0111 399.318L96.9011 399.876L96.6363 400.397L96.2665 400.891L95.8427 401.367L95.4044 401.825L94.9763 402.262L94.486 402.638L94.0103 403.023L93.6257 403.486L93.3661 404.056L93.2894 404.654L93.3288 405.254L93.4206 405.863L93.5242 406.472L93.6122 407.076L93.6994 407.682L93.7916 408.285L93.8846 408.889L93.9666 409.492L94.0293 409.925L94.0529 410.098L94.1401 410.701L94.1894 411.308L94.1921 411.914L94.1772 412.526L94.1425 413.142L94.0851 413.748L94.0002 414.354L93.8876 414.951L93.7572 415.555L93.6012 416.152L93.4143 416.737L93.1813 417.292L92.8981 417.825L92.5496 418.335L92.1509 418.817L91.7117 419.253L91.2453 419.635L90.7136 419.908L90.1266 420.096L89.5296 420.278L88.9696 420.529L88.4575 420.854L87.9669 421.224L87.4918 421.609L87.0462 422.03L86.591 422.436L86.0885 422.773L85.5542 423.064L85.0038 423.334L84.4526 423.603L83.9172 423.897L83.4082 424.237L82.9113 424.619L82.4178 424.998L81.9194 425.349L81.3944 425.631L80.8301 425.81L80.2194 425.853L79.5894 425.837L78.9647 425.834L78.3704 425.928L77.8171 426.155L77.2892 426.465L76.7783 426.822L76.272 427.174L75.7549 427.51L75.2439 427.856L74.7814 428.25L74.399 428.711L74.0835 429.235L73.7901 429.775L73.4637 430.293L73.0674 430.757L72.6308 431.188L72.2085 431.63L71.8369 432.112L71.4966 432.622L71.1895 433.152L70.9238 433.701L70.7156 434.268L70.5703 434.75L70.538 434.853L70.3592 435.438L70.1419 436.008L69.8838 436.563L69.628 437.114L69.4087 437.69L69.2302 438.278L69.0246 438.854L68.7426 439.385L68.381 439.894L67.9546 440.352L67.469 440.704L66.9192 440.937L66.3173 441.092L65.6972 441.189L65.0189 441.246L64.4802 441.231L63.8683 441.17L63.2568 441.128L62.6431 441.116L62.0281 441.119L61.4165 441.107L60.8061 441.074L60.2029 441.001L59.6095 440.88L59.0186 440.722L58.4324 440.546L57.8467 440.364L57.2585 440.191L56.6647 440.043L56.0654 439.916L55.4666 439.794L54.8728 439.664L54.7025 439.616L54.2817 439.5L53.7001 439.315L53.1212 439.121L52.547 438.915L51.9724 438.7L51.4061 438.47L50.8409 438.242L50.2719 438.018L49.6999 437.806L49.1143 437.633L48.513 437.509L47.9314 437.327L47.3729 437.084L46.8194 436.824L46.2711 436.545L45.7394 436.244L45.222 435.926L44.7213 435.574L44.243 435.19L43.7831 434.786L43.3398 434.368L42.902 433.938L42.4794 433.495L42.461 433.474L42.0743 433.037L41.6963 432.558L41.3478 432.058L41.018 431.54L40.7187 431.006L40.4545 430.454L40.2355 429.887L40.0526 429.308L39.8966 428.72L39.7519 428.126L39.612 427.529L39.4723 426.935L39.2696 426.15L39.1622 425.752L39.0083 425.155L38.8333 424.57L38.6029 424.009L38.3188 423.47L38.0239 422.933L37.7186 422.397L37.396 421.866L37.0598 421.354L36.7054 420.854L36.3292 420.384L35.9259 419.932L35.4878 419.505L35.0078 419.107L34.5015 418.741L33.9698 418.416L33.4262 418.146L32.8715 417.94L32.2826 417.813L31.6664 417.752L31.0405 417.746L30.4158 417.77L29.8072 417.816L29.2064 417.91L28.6099 418.034L28.0141 418.18L27.4162 418.331L26.8222 418.471L26.2266 418.604L25.6331 418.747L25.0358 418.889L24.4429 419.028L23.8465 419.153L23.2463 419.277L22.6452 419.395L22.0418 419.492L21.4378 419.562L20.8315 419.611L20.2196 419.644L19.606 419.653L18.9935 419.635L18.3878 419.58L17.785 419.502L17.1819 419.408L16.5808 419.302L16.0675 419.208L15.9782 419.19L15.3766 419.086L14.7676 418.996L14.1467 418.944L13.529 418.88L12.934 418.762L12.3776 418.55L11.8453 418.268L11.3233 417.956L10.8126 417.622L10.3098 417.274L9.80936 416.916L9.30978 416.555L8.80639 416.201L8.3001 415.855L7.2843 415.167L7.27468 418.25L6.98216 418.72L6.42367 419.014L5.92437 419.371L5.48282 419.793L5.05702 420.248L4.98906 420.839L5.05235 421.46L5.30637 422.012L5.46707 422.576L5.41195 423.206L5.48777 423.788L5.90279 424.261L6.18014 424.777L6.20027 425.383L6.15186 426.007L6.14806 426.62L6.14223 427.235L6.06057 427.832L5.85234 428.408L5.56332 428.948L5.18681 429.427L4.82604 429.927L4.55015 430.467L4.46061 431.067L4.42678 431.682L4.29904 432.889L4.11764 433.477L3.89511 434.041L3.51597 434.514L3.13304 434.996L2.73378 435.453L2.21786 435.781L1.70777 436.12L1.23677 436.518L1.02154 437.072L1.00054 437.685L1 437.763L1.00135 438.294L1.03139 438.903L1.15971 439.5L1.25945 440.101L1.2542 440.71L1.24107 441.319L1.24026 441.929L1.2353 442.217L1.23123 442.553L1.22393 443.187L1.36916 443.745L1.73956 444.208L2.22514 444.612L2.71744 444.997L3.23102 445.333L3.74432 445.67L4.17974 446.088L4.51018 446.603L4.79103 447.146L5.02669 447.71L5.26117 448.274L5.5289 448.825L5.78292 449.383L5.95003 449.959L6.01799 450.572L6.13522 451.169L6.28542 451.766L6.47557 452.342L6.72318 452.903L6.99791 453.454L7.3123 453.982L7.67307 454.458L8.18957 454.803L8.67749 455.17L8.97934 455.689L9.21966 456.262L9.49643 456.807L9.92369 457.235L10.4271 457.589L10.9339 457.929L11.4458 458.265L11.9585 458.599L12.3933 458.866L12.958 459.293L13.3432 459.772L13.7387 460.236L14.2234 460.612L14.746 460.954L15.2474 461.309L15.642 461.742L15.8835 462.716L18.0632 466.611L18.1594 466.723L21.236 470.31L21.6359 470.776L21.7846 470.949L24.5867 476.342L26.3071 479.653L30.1563 488.508L31.3257 491.124L34.1553 497.456L34.2177 497.599L39.2427 505.266L40.0031 506.427L42.5605 511.092L43.1059 512.086L43.2324 512.39L44.7957 516.149L45.0914 516.864L46.2428 519.889L46.941 521.717L46.8754 522.336L46.8025 522.948L46.6038 523.509L46.2585 523.997L45.8412 524.458L45.4343 524.928L45.1232 525.449L44.8578 526.001L44.539 526.528L44.2357 527.062L44.0385 527.629L43.9933 528.247L44.0797 528.851L44.2587 529.442L44.5603 529.96L44.968 530.424L45.3323 530.918L45.6729 531.424L45.9812 531.952L46.3011 532.491L46.6038 533.046L46.6657 533.24L46.7815 533.616L46.773 534.201L46.6709 534.792L46.5137 535.389L46.3376 535.99L46.1769 536.59L46.0806 537.19L46.0655 537.806L46.0605 538.412L46.0631 539.021L46.066 539.634L46.041 540.246L46.0375 540.855L46.1264 541.455L46.2973 542.047L46.5499 542.604L46.8783 543.114L47.2504 543.599L47.6389 544.075L48.0201 544.557L48.4082 545.042L48.727 545.554L48.9023 546.13L49.019 546.733L49.1309 547.34L49.2998 547.934L49.5142 548.528L49.599 549.11L49.4593 549.683L49.2039 550.247L48.9358 550.811L48.7363 551.396L48.5535 552.014L48.4931 552.614L48.6582 553.166L48.946 553.697L49.2467 554.124L49.3068 554.209L49.6868 554.712L50.049 555.212L50.434 555.685L50.8304 556.155L51.2025 556.634L51.4997 557.177L51.5621 557.771L51.6639 558.362L51.8844 558.938L52.1635 559.481L52.5341 559.96L52.9713 560.393L53.3951 560.836L53.7556 561.336L54.1026 561.839L54.522 562.282L55.0055 562.652L55.4973 563.024L55.9569 563.419L56.4308 563.81L57.1238 564.107L58.0763 564.298L58.4948 564.355L59.9495 565.062L60.3639 565.51L60.8507 565.826L61.4585 565.929L62.0082 566.168L62.5413 566.453L63.0552 566.774L63.5087 567.163L63.8969 567.626L64.1221 567.981L64.2183 568.133L64.5327 568.645L64.9512 569.084L65.3683 569.515L65.6062 570.055L65.7471 570.649L65.8186 571.246L65.7757 571.843L65.5567 572.401L65.2971 572.944L64.9769 573.453L64.6829 573.971L64.5391 574.553L64.5301 575.16L64.7616 575.705L65.1122 576.202L65.512 576.657L65.9962 577.003L66.5523 577.248L67.1336 577.412L67.7242 577.536L68.3212 577.612L68.9292 577.594L69.5242 577.709L70.0914 577.915L70.6427 578.234L70.9148 578.691L70.8182 579.316L70.8757 579.913L70.9381 580.51L70.9416 581.101L71.1195 581.674L71.3131 582.25L71.6479 582.735L72.1041 583.133L72.6048 583.472L73.1549 583.736L73.7367 583.896L74.3305 583.857L74.9389 583.772L75.5615 583.76L76.0188 584.09L76.4018 584.575L76.8392 584.994L77.4007 585.27L77.9317 585.561L78.2712 586.015L78.4541 586.616L78.6107 587.219L78.9271 587.628L79.5754 587.458L80.0893 587.37L80.3932 587.849L80.6671 588.431L81.0185 588.929L81.5088 589.283L82.0352 589.586L82.5803 589.85L82.9938 590.281L83.3715 590.751L83.7748 591.202L84.247 591.56L84.8154 591.754L85.2214 592.2L85.6244 592.648L86.022 593.1L86.3661 593.615L86.8047 593.97L87.4227 594.022L88.0145 594.155L88.8022 594.625L88.9533 594.052L89.1697 593.485L89.4377 592.942L89.7495 592.433L90.1376 591.963L90.604 591.566L91.124 591.281L91.7131 591.108L92.3139 591.029L92.9226 591.008L93.533 591.041L94.1271 591.141L94.7252 591.32L95.2989 591.599L95.6337 591.924L95.6996 591.99L95.8781 592.539L95.9186 593.176L95.9032 593.788L95.7673 594.37L95.596 594.952L95.4517 595.543L95.3309 596.134L95.3502 596.725L95.5097 597.32L95.8232 597.82L96.2698 598.217L96.7848 598.56L97.301 598.872L97.8551 599.129L98.3757 599.42L98.8044 599.842L99.2034 600.297L99.6715 600.676L100.181 601.012L100.721 601.288L101.293 601.464L101.912 601.533L102.503 601.482L103.072 601.209L103.418 600.733L103.666 600.197L103.887 599.642L104.084 599.069L104.272 598.49L104.453 597.911L104.628 597.338L104.778 596.756L104.905 596.171L105.027 595.583L105.149 594.998L105.264 594.406L105.413 593.824L105.583 593.245L105.826 592.703L106.164 592.187L106.595 591.778L107.12 591.499L107.697 591.29L108.285 591.126L108.878 591.041L109.488 590.987L110.085 590.878L110.683 590.741L111.24 590.526L111.711 590.171L112.104 589.695L112.438 589.192L112.733 588.656L112.931 588.098L112.926 587.51L112.82 586.904L112.843 586.309L112.968 585.724L113.132 585.145L113.323 584.569L113.535 584.011L113.786 583.445L114.17 582.978L114.699 582.726L115.291 582.55L115.906 582.453L116.501 582.441L117.109 582.55L117.689 582.765L118.173 583.09L118.557 583.557L118.911 584.063L119.266 584.548L119.607 585.045L119.971 585.521L120.373 585.973L120.793 586.415L121.248 586.812L121.75 587.131L122.324 587.379L122.925 587.516L123.503 587.492L124.088 587.307L124.641 587.007L125.105 586.64L125.46 586.161L125.769 585.624L126.071 585.106L126.348 584.569L126.668 584.063L127.031 583.584L127.392 583.105L127.712 582.602L127.985 582.065L128.255 581.526L128.532 580.995L128.817 580.468L129.117 579.946L129.472 579.455L129.834 578.967L130.23 578.522L130.7 578.161L131.235 577.885L131.786 577.621L132.305 577.312L132.804 576.972L133.302 576.636L133.822 576.33L134.367 576.075L134.923 575.845L135.481 575.608L136.042 575.384L136.219 575.305L136.592 575.145L137.131 574.863L137.657 574.541L138.07 574.12L138.396 573.629L138.689 573.101L138.956 572.556L139.203 572.004L139.442 571.446L139.691 570.87L139.875 570.282L139.893 569.712L139.73 569.163L139.456 568.627L139.121 568.099L138.783 567.581L138.46 567.075L138.125 566.578L137.776 566.09L137.424 565.601L137.072 565.116L136.724 564.625L136.475 563.867L136.387 563.24L136.622 562.749L136.786 562.155L137.048 561.612L137.461 561.157L137.952 560.781L138.484 560.484L139.046 560.227L139.596 559.951L140.126 559.617L140.689 559.438L141.306 559.502L141.922 559.542L142.508 559.357L143.112 559.217L143.746 559.132L144.369 559.047L144.963 558.905L145.478 558.659L145.846 558.192L146.115 557.598L146.356 557.028L146.548 556.446L146.676 555.846L146.714 555.243L146.711 554.627L146.752 554.021L146.868 553.424L147.02 552.83L147.191 552.245L147.381 551.666L147.592 551.093L147.825 550.526L148.102 549.983L148.462 549.416L148.831 549.001L149.27 548.558L149.733 548.146L150.235 547.813L150.807 547.652L151.438 547.643H151.775L152.674 547.67L153.286 547.719L153.894 547.785L154.504 547.864L155.108 547.952L155.718 548.046L156.322 548.137L156.929 548.237L157.537 548.34L158.141 548.443L158.748 548.54L159.361 548.661L159.987 548.804L160.591 548.861L161.144 548.731L161.637 548.358L162.085 547.891L162.491 547.44L162.879 546.967L163.25 546.479L163.616 545.988L163.985 545.496L164.348 545.005L164.7 544.508L165.05 544.005L165.386 543.499L165.725 542.986L166.058 542.474L166.394 541.965L166.725 541.453L167.045 540.931L167.348 540.401L167.644 539.867L167.958 539.343L168.286 538.821L168.647 538.327L169.081 537.906L169.593 537.569L170.127 537.254L170.615 536.89L171.018 536.429L171.398 535.941L171.834 535.52L172.314 535.135L172.807 534.756L173.425 534.316L173.826 534.053L174.358 533.756L174.905 533.513L174.921 533.51L175.493 533.362L176.117 533.298L176.745 533.295L177.355 533.337L177.963 533.461L178.551 533.67L179.087 533.962L179.575 534.325L180.031 534.747L180.448 535.201L180.819 535.677L181.145 536.199L181.448 536.732L181.749 537.263L182.025 537.812L182.324 538.345L182.673 538.845L183.037 539.342L183.413 539.827L183.806 540.291L184.224 540.734L184.752 541.089L185.34 541.152L185.947 541.07L186.56 540.934L187.167 540.798L187.788 540.649L188.251 540.312L188.52 539.737L188.601 539.136L188.568 538.527L188.501 537.912L188.476 537.299L188.468 536.69L188.479 536.081L188.539 535.474L188.642 534.871L188.769 534.274L188.902 533.667L189.084 533.079L189.433 532.6L189.907 532.185L190.431 531.855L191 531.691L191.629 531.667L192.222 531.494L192.797 531.251L193.377 531.045L193.968 530.973L194.773 531.076L195.179 531.164L195.786 531.3L196.391 531.397L196.998 531.5L197.605 531.597L198.21 531.691L198.817 531.779L199.426 531.846L200.039 531.891L200.652 531.927L201.264 531.97L201.869 532.04L202.478 532.14L203.083 532.252L203.687 532.355L204.292 532.425L204.907 532.431L205.522 532.421L206.138 532.452L206.745 532.4L207.354 532.242L207.897 531.982L208.171 531.43L208.33 530.836L208.463 530.23L208.509 529.629L208.322 529.065L208.035 528.508L207.845 527.901L207.599 527.35L207.159 526.977L206.587 526.731L206.002 526.492L205.484 526.167L204.994 525.801L204.492 525.449L203.958 525.149L203.449 524.806L203.007 524.388L202.587 523.936L202.164 523.491L201.711 523.087L201.175 522.796L200.624 522.518L200.134 522.154L199.662 521.766L199.193 521.369L198.736 520.965L198.294 520.541L197.863 520.104L197.423 519.659L197.039 519.189L196.966 518.613L197.104 518.013L197.266 517.425L197.418 517.006L197.475 516.849L197.757 516.309L198.087 515.794L198.435 515.275L198.795 514.754L199.234 514.366L199.801 514.208L200.438 514.175L201.058 514.135L201.199 514.132L201.674 514.117L202.286 514.108L202.91 514.069L203.517 514.096L204.083 514.308L204.609 514.645L205.04 515.069L205.368 515.593L205.772 516.051L206.186 516.5L206.62 516.933L207.075 517.343L207.536 517.749L208.005 518.146L208.488 518.528L209.022 518.913L209.493 519.201L210.1 519.34L210.71 519.437L211.326 519.501L211.93 519.471L212.529 519.298L213.06 519.004L213.44 518.525L213.824 518.04L214.22 517.573L214.624 517.115L215.066 516.697L215.562 516.339L216.066 515.987L216.54 515.599L217.004 515.202L217.462 514.796L217.904 514.366L218.335 513.917L218.782 513.499L218.958 513.38L219.275 513.162L219.866 512.989L220.489 512.947L221.094 513.023L221.704 513.162L222.308 513.247L222.91 513.189L223.503 513.041L224.094 512.859L224.691 512.695L225.295 512.61L225.91 512.583L226.515 512.492L227.103 512.319L227.691 512.137L228.293 511.98L228.862 511.774L229.307 511.361L229.643 510.849L229.944 510.319L230.239 509.782L230.551 509.255L230.862 508.727L231.182 508.209L231.532 507.709L231.938 507.251L232.261 506.735L232.537 506.19L232.814 505.644L233.101 505.104L233.378 504.559L233.616 504.001L233.866 503.264L233.998 502.84L234.166 502.255L234.367 501.676L234.657 501.13L234.904 500.575L235.009 499.987L235.028 499.375L235.007 498.76L234.977 498.147L234.925 497.541L234.849 496.935L234.779 496.328L234.717 495.722L234.654 495.116L234.584 494.506L234.497 493.903L234.391 493.3L234.294 492.7L234.237 492.093L234.264 491.487L234.348 490.878L234.397 490.271L234.348 489.668L234.245 489.062L234.15 488.459L234.061 487.855L233.977 487.249L233.909 486.646L233.887 486.036L233.906 485.427L233.939 484.818L233.95 484.208L233.912 483.59L233.996 482.996L234.044 482.832L234.172 482.405L234.38 481.823L234.633 481.259L234.936 480.74L235.326 480.268L235.804 479.858L236.329 479.549L236.896 479.34L237.497 479.2L238.115 479.112L238.725 479.058L239.335 479.097L239.948 479.167L240.558 479.173L241.17 479.131L241.783 479.073L242.39 478.991L242.994 478.894L243.854 478.712L244.244 478.612L244.756 478.21L244.905 477.766L244.967 477.112L245.176 476.536L245.531 476.032L245.922 475.547L246.263 475.041L246.483 474.486L246.634 473.901L246.743 473.301L246.827 472.692L246.894 472.076L246.96 471.467L247.011 470.858V470.245L247.022 469.639L247.09 469.036L247.174 468.429L247.266 467.826L247.372 467.226L247.48 466.626L247.596 466.025L247.732 465.431L247.884 464.84L248.041 464.252L248.198 463.661L248.467 463.006L248.694 462.439L248.922 461.872L249.161 461.311L249.404 460.751L249.673 460.205L249.971 459.668L250.315 459.174L250.727 458.683L251.128 458.101L251.546 457.716L252.023 457.759L252.557 458.11L253.05 458.601L253.391 459.098L253.549 459.693L253.687 460.305L253.915 460.869L254.001 461.057L254.175 461.424L254.427 461.981L254.665 462.542L254.901 463.106L255.105 463.679L255.278 464.264L255.484 464.837L255.723 465.398L255.985 465.95L256.259 466.498L256.565 467.023L256.901 467.544L257.259 468.053L257.671 468.484L258.2 468.778L258.804 468.942L259.411 469.014L260.024 468.987L260.647 468.957L261.271 468.905L261.84 468.748L262.306 468.366L262.748 467.92L263.211 467.523L263.68 467.129L264.141 466.732L264.591 466.301L265.009 465.78L265.499 465.701L266.052 465.983L266.627 466.304L267.204 466.501L267.787 466.68L268.378 466.844L268.971 466.998L269.568 467.147L270.161 467.305L270.766 467.438L271.367 467.514L271.974 467.508L272.59 467.435L273.205 467.341L273.817 467.256L274.416 467.217L274.972 467.393L275.49 467.714L276.083 467.638L276.69 467.45L277.246 467.196L277.658 466.735L277.921 466.183L278.073 465.589L278.16 464.986L278.211 464.373L278.225 463.767L278.105 463.167L278.01 462.564L277.937 461.957L277.853 461.351L277.737 460.757L277.544 460.175L277.308 459.605L277.14 459.023L277.075 458.42L277.054 457.807L277.067 457.195L277.102 456.582L277.176 455.982L277.431 455.421L277.699 454.83L278.04 454.363L278.371 454.424L278.639 454.469L279.26 454.648L279.751 454.957L279.919 455.527L280.059 456.146L280.39 456.655L280.781 457.134L281.117 457.643L281.339 458.319L281.45 458.817L281.637 459.396L281.908 459.941L282.22 460.472L282.564 460.978L282.949 461.451L283.412 461.86L283.938 462.145L284.526 462.339L285.098 462.591L285.662 462.93L286.201 462.982L286.738 462.706L287.239 462.282L287.608 461.812L287.814 461.221L288.02 460.645L288.218 460.066L288.432 459.496L288.703 458.95L289.018 458.423L289.3 457.883L289.481 457.304L289.611 456.71L289.72 456.107L289.852 455.509L290.042 454.927L290.264 454.36L290.506 453.8L290.739 453.236L290.945 452.663L291.094 452.072L291.199 451.468L291.308 450.865L291.462 450.28L291.682 449.71L291.931 449.155L292.181 448.594L292.419 448.034L292.652 447.47L292.891 446.909L293.137 446.348L293.436 445.812L293.704 445.269L293.839 444.678L293.926 444.071L294.018 443.465L294.078 442.832L294.316 442.304L294.756 441.862L294.929 441.743L295.279 441.51L295.837 441.349L296.634 441.577L297.032 441.719L297.596 441.971L298.106 442.301L298.569 442.686L299.014 443.107L299.45 443.541L299.887 443.974L300.336 444.39L300.805 444.784L301.266 445.187L301.694 445.618L302.063 446.103L302.369 446.636L302.605 447.194L302.768 447.785L302.949 448.367L303.177 448.934L303.434 449.489L303.722 450.028L304.025 450.562L304.364 451.065L304.765 451.529L305.248 451.908L305.785 452.199L306.356 452.426L306.966 452.584L307.562 452.538L307.991 452.132L308.373 451.623L308.763 451.15L309.148 450.674L309.546 450.213L309.956 449.762L310.332 449.277L310.677 448.767L311.089 448.331L311.612 448.012L312.17 447.752L312.745 447.521L313.341 447.421H313.951L314.566 447.449L315.179 447.445L315.778 447.324L316.388 447.263L317 447.254L317.605 447.321L318.204 447.439L318.805 447.57L319.404 447.715L320.006 447.712L320.613 447.615L321.21 447.463L321.795 447.284L322.367 447.057L322.909 446.778L323.383 446.39L323.771 445.917L324.034 445.363L324.194 444.768L324.286 444.162L324.254 443.559L324.123 442.959L323.931 442.37L323.684 441.816L323.31 441.334L322.922 440.855L322.562 440.354L322.107 439.96L321.567 439.688L321.386 439.127L321.28 438.505L321.085 437.929L320.638 437.481L320.415 436.962L320.562 436.347L320.86 435.81L321.426 435.644L322.039 435.547L322.711 435.477L323.275 435.437L323.89 435.419L324.503 435.459L325.094 435.604L325.668 435.898L326.232 436.111L326.796 436.032L327.365 435.753L327.877 435.374L328.276 434.934L328.563 434.383L328.839 433.828L328.905 433.667L329.073 433.24L329.379 432.727L329.867 432.391L330.447 432.142L331.005 431.879L331.246 431.339L331.805 431.321L332.434 431.485L333.005 431.703L333.561 431.964L334.092 432.264L334.575 432.637L335.006 433.076L335.401 433.543L335.776 434.025L336.125 434.528L336.426 435.056L336.664 435.62L336.903 436.18L337.188 436.72L337.505 437.244L337.857 437.739L338.264 438.193L338.684 438.642L339.077 439.109L339.465 439.582L339.847 440.052L340.229 440.531L340.611 441.007L340.99 441.485L341.375 441.958L341.76 442.434L342.086 442.953L342.356 443.511L342.823 443.868L343.375 444.15L343.95 444.387L344.549 444.626L345.124 444.623L345.644 444.32L346.224 443.804L346.539 443.453L346.642 442.84L346.663 442.231L346.625 441.622L346.552 441.015L346.49 440.409L346.495 439.8L346.408 439.196L346.295 438.596L346.197 437.993L346.126 437.387L346.094 436.78L346.097 436.168L346.1 435.559V434.949V434.337L346.092 433.731L346.089 433.118L346.154 432.506L346.362 431.936L346.761 431.46L347.354 431.306L347.953 431.421L348.455 431.754L348.921 432.172L349.378 432.612L349.775 433.052L350.179 433.512L350.612 433.943L351.071 434.346L351.534 434.746L351.978 435.162L352.372 435.625L352.729 436.126L353.095 436.614L353.526 437.041L353.99 437.444L354.418 437.875L354.795 438.357L355.152 438.854L355.513 439.345L355.849 439.866L356.239 440.321L356.773 440.67L357.351 440.876L357.922 440.806L358.5 440.555L359.074 440.297L359.644 440.051L360.048 439.609L360.394 439.099L360.69 438.56L360.931 437.778L360.991 437.381L361.015 436.771L361.045 436.165L361.156 435.565L361.265 434.965L361.37 434.364L361.457 433.758L361.549 433.158L361.791 432.6L361.972 432.015L362.11 431.427L362.441 430.917L362.818 430.429L363.203 429.944L363.633 429.52L364.167 429.232L364.745 429.017L365.336 428.853L365.943 428.823L366.552 428.901L367.16 428.911L367.772 428.877L368.382 428.838L368.987 428.771L369.545 428.523L370.084 428.232L370.618 427.925L371.13 427.589L371.578 427.183L371.906 426.664L372.247 426.149L372.524 425.606L372.632 425.015L372.684 424.406L372.705 423.79L372.724 423.178L372.727 422.569L372.719 421.959L372.716 421.35L372.711 420.738L372.727 420.128L372.762 419.519L372.789 418.91L372.795 418.3L372.789 417.691L372.784 417.079L372.906 416.491L373.16 415.933L373.402 415.369L373.535 414.781L373.562 414.532L373.591 414.169L373.7 413.568L373.985 413.029L374.239 412.474L374.461 411.907L374.673 411.367L374.684 411.34L374.955 410.792L375.28 410.279L375.429 409.691L375.532 409.088L375.608 408.478L375.635 407.869L375.632 407.254L375.716 406.657L375.86 406.074L375.793 405.468L375.711 404.856L375.735 404.256L375.952 403.683L376.147 403.104L376.218 402.834L376.305 402.512L376.443 401.918L376.587 401.324L376.868 400.788L377.175 400.257L377.497 399.733L377.833 399.223L378.24 398.784L378.763 398.45L379.408 398.084L379.858 397.999L380.476 398.12L380.986 398.441L381.392 398.896L381.744 399.399L382.026 399.936L382.262 400.506L382.447 401.088L382.552 401.682L382.539 402.297L382.466 402.904L382.33 403.504L382.102 404.065L381.79 404.589L381.563 405.183L381.495 405.762L381.902 406.232L382.36 406.65L382.85 407.017L383.406 407.248L384 407.396L384.61 407.502L385.217 407.554L385.829 407.566L386.428 407.663L387.016 407.83L387.602 408.012L388.195 408.148L388.802 408.203L389.41 408.269L390.006 408.4L390.589 408.588L391.166 408.785L391.768 408.848L392.383 408.821L392.99 408.757L393.595 408.669L394.202 408.603L394.812 408.554L395.408 408.424L396.007 408.257L396.573 408.024L397.059 407.681L397.473 407.232L397.864 406.751L398.273 406.296L398.679 405.838L399.078 405.377L399.476 404.916L399.858 404.44L400.189 403.925L400.498 403.401L400.826 402.885L401.189 402.394L401.55 401.903L401.883 401.391L402.303 400.951L402.767 400.554L403.211 400.133L403.648 399.696L404.171 399.417L404.789 399.308L405.217 398.893L405.645 398.459L406.073 398.026L406.502 397.589L406.927 397.144L407.353 396.698L407.773 396.249L408.193 395.795L408.269 395.71L408.605 395.34L409.012 394.879L409.41 394.412L409.806 393.949L410.188 393.479L410.565 393.006L410.928 392.53L411.177 392.002L411.215 391.375L411.245 390.744L411.329 390.062L411.389 389.453L411.378 388.85L411.326 388.24L411.259 387.613L411.538 387.11L411.942 386.655L412.381 386.215L412.839 385.8L413.316 385.406L413.85 385.103L414.43 385L415.051 385.033L415.666 385.042L416.281 385.018L416.886 385.045L417.485 385.2L418.075 385.369L418.658 385.345L419.225 385.081L419.832 385.036L420.428 384.93L420.973 384.63L421.322 384.154L421.545 383.569L421.591 382.965L421.743 382.374L421.911 381.792L421.892 381.18L421.837 380.568L421.797 379.958L421.976 379.391L422.285 378.849L422.445 378.273L422.431 377.651L422.599 377.078L422.941 376.56L423.339 376.084L423.873 375.823L424.491 375.747L425.087 375.841L425.678 376.014L426.277 376.172L426.871 376.336L427.44 376.548L427.928 376.881L428.314 377.354L428.744 377.803L429.188 378.224L429.633 378.64L430.113 379.031L430.478 379.507L430.687 380.122L431.135 380.413L431.788 380.422L432.373 380.268L432.918 379.977L433.425 379.628L433.877 379.216L434.289 378.764L434.691 378.303L435.076 377.827L435.433 377.336L435.712 376.8L435.91 376.214L436.138 375.651L436.365 375.084L436.542 374.502L436.699 373.914L436.875 373.328L437.07 372.749L437.26 372.17L437.428 371.582L437.466 370.973L437.623 370.379L438.073 369.982L438.667 369.854L439.317 369.879L439.889 369.954L440.48 370.109L441.022 370.391L441.472 370.806L441.846 371.279L442.204 371.782L442.535 372.295L442.849 372.819L443.134 373.356L443.388 373.914L443.632 374.474L443.865 375.038L444.074 375.617L444.283 376.196L444.51 376.76L444.795 377.291L445.175 377.76L445.619 378.191L446.08 378.594L446.63 378.94L446.706 378.449L446.736 377.839L446.793 377.233L446.944 376.642L447.042 376.039L447.094 375.432L447.159 374.817L447.31 374.238L447.692 373.756L448.086 373.28L448.495 372.822L448.991 372.528L449.601 372.428L450.194 372.28L450.791 372.161L451.398 372.095L452.005 372.046L452.609 371.979L453.26 371.904L453.55 371.558L453.295 370.958L452.701 370.797L452.105 370.661L451.506 370.549L450.902 370.485L450.287 370.47L449.666 370.403L449.104 370.212L449.116 369.6L449.243 368.99L449.777 368.76L450.4 368.66L451.002 368.566L451.511 368.251L451.959 367.823L452.371 367.359L452.476 366.774L452.452 366.153L452.376 365.537L452.186 364.961L451.785 364.504L451.292 364.131L450.739 363.843L450.216 363.534L449.842 363.012L449.904 362.494L450.538 362.297L451.094 362.463L451.598 362.851L452.059 363.252L452.531 363.637L453.026 363.994L453.539 364.322L454.113 364.598L454.672 364.501L455.217 364.21L455.756 363.894L456.274 363.57L456.883 363.433L457.328 362.976L457.591 362.451L457.209 362.082L456.762 361.669L456.257 361.327L455.726 361.026L455.349 360.551L455.011 360.041L454.469 359.787L453.905 359.514L453.384 359.177L453.206 358.656L453.168 358.034L453.078 357.431L453.035 356.822L452.997 356.209L453.178 355.594L453.655 355.576L454.2 355.849L454.74 356.128L455.284 356.404L455.837 356.661L456.401 356.901L456.978 357.107L457.572 357.255L458.168 357.064L458.315 356.525L458.277 355.888L457.366 355.188L456.832 354.894L456.293 354.609L455.751 354.33L455.233 354.012L454.815 353.569L454.642 352.981L454.591 352.372L454.523 351.765L454.265 351.217L454.027 350.659L453.883 350.059L453.851 349.422L454.181 349.034L454.826 349.119L455.431 349.246L455.97 349.51L456.428 349.913L456.867 350.344L457.301 350.774L457.702 351.232L458.117 351.674L458.564 352.09L459.038 352.475L459.559 352.784L460.155 352.96L460.795 353.09L461.155 352.778L461.117 352.126L460.849 351.574L460.38 351.199L459.759 351.15L459.206 350.95L458.775 350.501L458.691 349.907L458.664 349.295L458.556 348.701L458.333 348.131L458.087 347.573L457.811 346.854L457.854 346.421L458.445 346.378L459.017 346.597L459.54 346.909L460.019 347.285L460.478 347.691L460.876 348.176L461.437 348.091L462.025 347.852L462.529 347.527L462.963 347.094L463.353 346.618L463.706 346.133L464.329 346.045L464.646 345.584L464.663 344.972L464.405 344.42L463.999 343.965L463.66 343.465L463.362 342.932L462.942 342.477L462.676 341.953L462.589 341.34L462.584 340.722L462.798 340.161L463.221 339.7L463.785 339.533L464.267 339.87L464.769 340.216L465.327 340.467L465.899 340.679L466.514 340.782L467.113 340.737L467.601 340.343L467.875 339.803L467.888 339.191L467.782 338.557L467.574 337.999L467.037 337.702L466.571 337.299L466.503 336.732L467.075 336.55L467.696 336.584L468.295 336.514L468.861 336.268L469.463 336.214L470.065 336.084L470.615 335.744L470.506 335.295L470.254 334.722L470.276 334.104L470.086 333.531L469.515 333.355L468.891 333.301L468.276 333.325L467.753 332.694L468.314 332.288L468.693 331.809L468.861 331.212L468.964 330.612L469.186 330.039L469.626 329.623L470.152 329.29L470.737 329.357L471.336 329.475L471.943 329.387L472.564 329.393L473.13 329.229L473.504 328.759L473.588 328.153L473.629 327.535L473.653 326.925L473.697 326.31L473.634 325.895L473.607 325.719L473.32 325.164L473.277 324.576L473.456 323.979L473.773 323.412L474.293 323.263L474.916 323.382L475.505 323.566L476.052 323.845L476.646 324.061L477.204 324.297L477.332 324.867L477.543 325.373L478.161 325.546L478.836 325.631L479.12 325.3L478.904 324.673L478.424 324.273L478.299 323.676L478.077 323.163L477.502 322.903L476.928 322.69L476.342 322.457L475.925 322.081L475.979 321.444L476.331 320.959L476.727 320.486L477.112 320.014L477.535 319.577L477.979 319.147L478.445 318.746L479.245 318.61L479.63 318.537L479.857 318.022L479.795 317.391L479.484 316.882L479.072 316.388L479.009 315.857L479.389 315.348L479.798 314.945L479.909 314.339L479.725 313.763L479.223 313.396L478.627 313.374L477.996 313.441H477.399L477.068 312.956L476.621 312.514L476.423 312.004L476.534 311.38L476.705 310.792L477.055 310.294L477.301 309.743L477.456 309.152L477.575 308.551L477.817 307.994L477.28 307.845L476.67 307.8L476.353 307.136L476.358 306.699L476.89 306.614L477.407 306.969L477.982 307.127L478.584 307.217L479.145 307.466L479.755 307.49L480.37 307.454L480.879 307.718L481.332 308.154L481.869 308.488L482.444 308.563L482.95 308.215L483.051 307.599L482.847 307.033L482.492 306.52L482.021 306.144L481.538 305.775L481.132 305.317L480.79 304.814L480.473 304.292L480.085 303.81L479.644 303.374L479.091 303.143L478.627 303.452L478.38 304.04L478.109 304.644L477.6 304.659L476.995 304.419L476.405 304.189L476.423 303.598L476.746 303.076L477.071 302.737L477.082 302.091L476.911 301.536L476.385 301.191L476.003 300.721L475.792 300.151L475.583 299.575L475.312 299.032L474.987 298.505L474.556 298.096L473.979 297.877L473.431 297.629L473.187 297.053L473.77 297.047L474.393 297.05L475.009 296.999L475.361 296.583L475.204 295.989L475.095 295.389L475.009 294.783L474.876 294.204L474.42 293.797L473.976 293.373L473.591 292.891L473.366 292.336L473.211 291.748L473.084 291.148L472.949 290.548L472.789 289.929L473.146 289.52L473.699 289.217L474.212 288.891L474.683 288.492L475.106 288.057L475.28 287.49L475.32 286.811L474.998 286.496L474.334 286.548L473.751 286.385L473.127 286.362L472.67 286.748L472.545 287.336L472.472 287.901L471.97 288.293L471.396 288.409L470.775 288.369L470.168 288.425L469.523 288.532L469.051 288.373L468.978 287.779L468.937 287.122L468.62 286.61L468.186 286.158L467.94 285.595L468.105 285.104L468.748 285.221L469.224 285.608L469.775 285.886L470.355 285.99L470.959 285.835L471.45 285.509L471.794 285L472.103 284.465L472.236 283.88L472.214 283.266L472.201 282.624L472.006 282.09L471.469 281.787L470.916 281.495L470.775 280.923L470.471 280.526L469.94 280.23L469.547 279.746L469.192 279.277L468.647 279.561L468.319 280.069L468.1 280.659L467.839 281.222L467.349 280.953L466.761 280.797L466.156 280.84L465.677 280.508L465.509 279.929L465.601 279.313L465.855 278.771L466.254 278.295L466.579 277.8L466.053 277.473L465.46 277.348L464.893 277.173L464.739 276.592L464.6 275.976L464.275 275.479L463.844 275.063L463.752 274.456L463.961 273.889L464.587 273.943L465.067 274.252L465.384 274.79L465.731 275.293L466.254 275.582L466.932 276.025L467.27 276.254L467.856 276.481L468.403 276.25L468.845 275.81L469.002 275.231L468.975 274.612L468.81 274.041L468.972 273.444L469.13 272.855L469.336 272.282L469.645 271.754L469.84 271.166L469.547 270.657L469.103 270.223L468.498 270.078L468.002 269.811L467.804 269.214L467.78 268.598L468.089 268.139L468.671 268.279L468.997 268.809L469.2 269.403L469.731 269.543L470.26 269.239L470.718 268.876L470.854 268.249L471.477 268.067L471.856 267.869L471.862 267.274L471.42 266.834L470.894 266.527L470.401 266.173L470.412 265.596L470.875 265.217L471.287 264.771L471.81 264.426L472.155 264.038L471.721 263.562L471.507 262.996L471.442 262.385L471.447 261.77L471.274 261.198L470.846 260.799L470.667 261.4L470.572 262.039L470.344 262.421L469.829 262.01L469.512 261.49L469.211 260.952L468.916 260.406L468.48 260.095L467.859 260.234L467.265 260.375L466.536 260.452L466.108 260.303L465.633 259.929L465.362 259.38L464.994 258.945L464.579 258.744L464.696 258.081L465.208 257.866L465.755 258.147L466.251 257.849L466.704 257.954L467.116 258.383L467.601 257.975L467.878 257.436L468.067 256.847L468.138 256.235L468.631 255.936L469.198 255.795L469.542 255.297L469.691 254.695L469.715 254.616L469.859 254.102L469.778 253.513L469.577 252.927L469.377 252.343L469.165 251.757L469.057 251.176L469.32 250.625L469.699 250.136L469.715 249.542L469.656 248.925L469.662 248.313L469.735 247.708L469.756 247.097L469.922 246.521L470.532 246.387L470.851 245.911L471.093 245.341L471.28 244.76L471.448 244.175L471.556 243.576L471.637 242.971L471.762 242.374L471.868 241.764L472.174 241.247L472.751 241.173L473.353 241.283L473.855 240.944L474.193 240.418L474.185 239.833L473.86 239.307L473.337 238.979L472.732 238.876L472.207 239.146L471.738 239.547L471.198 239.981L470.781 240.302L470.32 240.702L469.897 241.137L469.604 241.701L469.103 241.874L468.491 241.642L468.371 241.156L468.691 240.615L469.041 240.114L469.447 239.669L469.943 239.309L470.222 238.787L469.952 238.244L469.675 237.706L469.203 237.323L468.675 237.023L468.192 236.763L468.691 236.361L469.279 236.18L469.651 235.729L470.206 235.734L470.648 236.15L471.098 236.533L471.662 236.277L471.816 235.696L471.857 235.079L471.876 234.401L471.857 233.876L471.792 233.307L472.052 232.749L471.938 232.203L471.304 232.236L470.797 232.57L470.239 232.702L469.821 232.223L469.705 231.641L469.765 231.035L469.889 230.417L470.068 229.834L470.293 229.268L470.209 228.648L470.366 228.085L470.838 227.734L471.41 228.004L471.963 228.244L472.573 228.31L473.15 228.152L473.757 228.267L474.123 228.737L474.651 228.972L475.231 228.814L475.489 228.281L475.378 227.682L475.118 227.118L474.865 226.579L475.261 226.109L475.714 225.711L475.765 225.101L476.259 224.792L476.668 224.363L476.757 223.768L476.625 223.167L476.451 222.579L476.297 221.977L475.98 221.49L475.424 221.639L474.923 222.012L474.454 222.406L473.906 222.321L473.687 221.782L473.603 221.152L473.047 220.982L472.413 220.945L472.497 220.383L472.89 220.036L473.499 219.956L473.73 219.74L473.947 219.535L474.508 219.328L475.08 219.466L475.611 219.793L476.107 219.475L476.183 218.87L476.134 218.267L476.045 217.599L476.237 217.101L476.389 216.499L476.213 215.945L476.015 215.359L476.308 214.902L476.904 214.994L477.465 214.782L477.871 214.325L478.292 213.926L478.47 213.337L478.565 212.726L478.571 212.13L478.172 211.675L477.571 211.549L477.465 211.027L477.508 210.417L477.115 209.977L476.625 209.601L476.565 209.016L476.451 208.455L475.868 208.277L475.711 207.844L475.722 207.213L475.79 206.608L475.947 206.016L475.931 205.414L475.963 204.804L475.86 204.213L475.459 203.754L475.003 203.337L474.608 202.887L474.835 202.427L475.383 202.119L475.76 201.661L475.809 201.043L475.657 200.638L475.416 200.243L475.673 199.668L475.963 199.098L476.256 198.556L476.22 197.967L476.535 197.451L477.05 197.119L477.524 196.726L477.622 196.163L477.44 195.58L477.383 194.969L477.636 194.426L477.985 193.922L478.332 193.414L478.495 192.838L478.736 192.285L479.259 191.972L479.758 191.629L480.275 191.308L480.519 190.751L480.525 190.264L481.118 190.022L481.522 189.608L481.479 188.986L481.503 188.373L482.078 188.27L482.354 187.863L482.406 187.236L482.655 186.711L483.094 186.276L483.457 185.79L483.593 185.2L483.577 184.581L483.859 184.054L484.027 183.474L484.509 183.118L484.623 182.514L485.054 182.089L485.544 181.73L485.981 181.315L486.314 180.804L486.686 180.321L486.889 179.747L487.052 179.156L487.136 178.556L487.144 177.944L487.127 177.333L487.233 176.742L487.431 176.165L487.645 175.593L487.835 175.039L487.808 174.424L487.813 173.813L487.716 173.213L487.558 172.618L487.333 172.058L487.003 171.544L486.726 171.002L486.466 170.452L486.189 169.904L486.011 169.326L485.872 168.728L485.778 168.124L485.745 167.519L485.799 166.91L485.9 166.304L486.081 165.724L486.225 165.13L486.347 164.532L486.461 163.934L486.577 163.333L486.707 162.736L486.788 162.135L486.759 161.528L486.685 160.92L486.656 160.302L486.352 159.787L485.978 159.301L485.577 158.84L485.149 158.409L484.685 158.013L484.192 157.662L483.661 157.362L483.184 156.997L482.799 156.523L482.468 156.012L482.192 155.468L481.899 154.932L481.671 154.374L481.595 153.765L481.49 153.164L481.343 152.572L481.097 152.016L480.904 151.397L480.479 151.093L479.844 151.064L479.243 150.958L478.641 150.832L478.053 150.677L477.502 150.463L477.074 150.024L476.586 149.659L476.177 149.227L475.979 148.648L475.922 148.042L475.86 147.431L475.771 146.826L475.616 146.235L475.391 145.64L474.971 145.273L474.361 145.135L473.822 144.87L473.339 144.494L472.808 144.209L472.225 144.052L471.632 143.919L471.055 143.743L470.485 143.532L470.369 143.464L469.959 143.237L469.49 142.852L469.054 142.426L468.721 141.927L468.496 141.356L468.198 140.824L467.94 140.275L467.729 139.703L467.523 139.127L467.314 138.554L467.233 137.954L467.219 137.343V136.734L467.216 136.124L467.254 135.515L467.284 134.906L467.303 134.297L467.311 133.684L467.409 133.085L467.601 132.507L467.831 131.942L468.2 131.458L468.525 130.945L468.926 130.487L469.311 130.017L469.693 129.54L470.051 129.046L470.133 128.455L470.084 127.835L469.926 127.258L469.593 126.737L469.124 126.379L468.544 126.207L467.937 125.735L467.701 125.383L467.409 124.839L466.988 124.442L466.36 124.487L465.78 124.425L465.283 124.064L464.901 123.592L464.782 122.984L464.633 122.414L464.097 122.114L463.571 121.809L462.936 121.768L462.489 121.518L462.351 120.887L462.169 120.28L461.931 119.732L461.361 119.586L460.765 119.421L460.264 119.144L460.074 118.543L460.066 117.949L459.779 117.407L459.562 116.831L459.405 116.262L459.085 115.85L458.67 115.422L458.461 114.847L457.765 113.879L457.432 113.361L457.136 112.818L456.862 112.261L456.654 111.676L456.38 111.123L455.96 110.652L455.383 110.477L454.786 110.626L454.239 110.897L453.694 111.198L453.13 111.485L452.542 111.716L452.041 111.458L451.553 111.076L451.089 110.629L450.653 110.171L450.281 109.684L449.956 109.152L449.609 108.639L449.151 108.179L448.848 107.692L449.045 107.091L449.24 106.456L449.338 105.844L449.016 105.4L448.463 105.047L447.986 104.639L447.782 104.08L447.698 103.444L447.53 102.845L447.216 102.309L446.91 101.77L446.709 101.165L446.682 100.547L446.942 100.02L447.349 99.5263L447.75 99.0446L448.175 98.5874L448.566 98.113L448.812 97.5525L448.888 96.9325L448.826 96.3077L448.815 95.692L449.018 95.1139L449.308 94.5586L449.644 94.022L449.951 93.4872L449.994 92.8982L449.831 92.2728L449.68 91.6404L449.251 91.3079L448.614 91.2063L448.042 90.9896L447.598 90.5704L447.186 90.0935L446.731 89.6754L446.15 89.409L445.972 88.8324L446.216 88.2937L446.722 87.9281L447.256 87.5868L447.804 87.2733L448.27 86.8974L448.528 86.3214L448.506 85.7178L448.211 85.1613L447.842 84.6523L447.53 84.1242L447.362 83.5358L447.278 82.9158L447.224 82.2953L447.259 81.6611L447.145 81.073L446.845 80.531L446.492 80.0159L446.039 79.5412L445.666 79.0658L445.703 78.5035L445.993 77.9066L446.308 77.3688L446.701 76.888L447.156 76.4672L447.576 76.0259L447.839 75.465L448.138 74.9261L448.555 74.4631L448.75 73.8829L448.848 73.2587L448.929 72.6352L449.235 72.1007L449.772 71.846L450.363 72.1053L450.921 72.3196L451.279 71.8048L451.048 71.2634L450.747 70.7032L450.612 70.0732L450.604 69.4581L450.975 69.0047L451.436 68.5542L451.75 68.0355L451.653 67.4401L451.417 66.845L451.146 66.2899L450.862 65.7373L450.612 65.1716L450.471 64.5481L450.16 64.0509L449.661 63.692L449.135 63.3473L448.674 62.9296L448.227 62.4654L447.896 61.964L447.885 61.3674L448.151 60.7884L448.609 60.3585L449.197 60.1588L449.734 59.8974L450.138 59.4054L450.368 58.8361L450.412 58.1822L450.298 57.5462L449.886 57.1649L449.278 57.0642L448.739 56.7711L448.265 56.3603L447.712 56.1157L447.116 55.9426L446.508 55.8331L445.893 55.8443L445.248 56.0814L444.899 55.9095L445.056 55.2268L445.435 54.7212L445.72 54.1876L445.733 53.5689L445.639 52.9459L445.484 52.3409L445.207 51.7913L444.844 51.2838L444.522 50.7587L444.335 50.1558V49.5419L444.636 48.9298L445.115 48.7552L445.706 49.0748L446.27 49.1757L446.766 48.747L446.977 48.0356L447.021 47.5469L447.075 46.9139L447.3 46.3576L447.747 45.9011L447.875 45.3324L447.818 44.6949L447.926 44.061L448.013 43.4489L447.728 42.9524L447.235 42.5307L446.739 42.1466L446.224 41.7931L445.831 41.3539L445.676 40.7415L445.443 40.174L445.042 39.709L444.584 39.2861L444.11 38.8941L443.598 38.5521L443.104 38.1832L442.622 37.8031L442.145 37.4169L441.676 37.0182L441.21 36.6168L440.719 36.2485L440.02 35.7717L439.703 35.5564L439.22 35.1705L438.741 34.7819L438.196 34.523L437.597 34.3751L436.984 34.2323L436.415 34.0398L436.334 33.4295L436.236 32.809L436.144 32.1966L436.325 31.607L436.101 31.0183L435.596 30.8034L434.973 30.9743L434.461 31.3057L434.054 31.7834L433.631 32.257L433.176 32.708L432.734 32.4922L432.328 31.9556L431.864 31.8198L431.411 32.3003L431.124 32.8766L430.59 33.1403L430.07 32.9548L429.823 32.3461L429.568 31.7919L429.558 31.1405L429.224 30.6979L428.641 30.4181L428.037 30.2453L427.438 30.1001L427.061 29.6638L426.79 29.0794L426.416 28.5634L425.888 28.0532L425.481 27.8692L425.438 28.4579L425.41 29.1555L425.316 29.7681L425.112 30.365L424.98 30.9213L425.362 31.4312L425.738 31.9447L426.039 32.4743L426.05 33.0791L425.877 33.6903L425.598 34.2414L425.264 34.7713L424.887 35.2569L424.267 35.2209L423.8 34.848L423.453 34.3129L422.849 34.1389L422.711 33.676L422.754 33.0261L422.616 32.4213L422.494 31.8098L422.567 31.1941L422.559 30.589L422.391 29.9849L422.313 29.3571L421.884 28.9378L421.399 28.5561L421.383 27.9238L420.873 27.6479L420.296 27.8271L419.759 28.1253L419.363 27.9401L419.599 27.3423L419.794 26.7242L419.789 26.12L419.64 25.5719L420 25.0745L419.724 24.5537L419.29 24.0583L418.851 23.6297L418.385 23.2265L417.911 22.8342L417.436 22.4398L416.956 22.0506L416.471 21.6683L415.983 21.2869L415.496 20.9038L415.018 20.5175L414.55 20.1195L414.1 19.7109L413.677 19.2773L413.414 18.7138L413.178 18.1309L412.785 17.6485L412.286 17.2775L411.712 17.1335L411.083 17.1599L410.465 17.2244L409.858 17.3639L409.384 17.7004L409.031 18.2297L408.646 18.7162L408.25 19.1876L407.855 19.6633L407.483 20.1832L407.096 20.667L406.616 20.9968L406.004 21.1269L405.377 21.1147L404.811 20.9059L404.258 20.6146L403.686 20.3672L403.201 20.0164L402.819 19.5287L402.491 18.9985L402.201 18.4513L401.933 17.8941L401.613 17.3669L401.236 16.8737L400.821 16.4184L400.36 15.965L399.851 15.6887L399.252 15.8212L398.631 16.0147L398.089 16.2841L397.902 16.8291L397.842 17.4788L397.756 18.1039L397.655 18.7153L397.523 19.3216L397.417 19.9325L397.411 20.5509L397.441 21.1742L397.389 21.7881L397.211 22.3916L397.108 22.9943L397.197 23.6018L397.354 24.2093L397.433 24.8223L397.417 25.4416L397.351 26.0637L397.262 26.68L397.17 27.3117L397.043 27.9274L396.831 28.4879L396.435 28.9705L395.896 29.3216L395.327 29.3292L394.863 28.9023L394.535 28.3785L394.232 27.8274L393.874 27.3196L393.565 26.7933L393.416 26.191L393.294 25.5753L393.115 24.9896L392.785 24.4718L392.41 23.9737L392.093 23.4448L391.784 22.9085L391.475 22.374L390.893 21.4719L390.613 20.9647L390.367 20.3954L390.153 19.813L389.987 19.2152L389.873 18.6065L389.808 17.9884L389.781 17.3666L389.787 16.7452L389.83 16.1201L389.933 15.5104L390.134 14.9321L390.402 14.3754L390.695 13.8245L390.96 13.263L391.185 12.6834L391.457 12.1305L391.817 11.6334L392.213 11.1543L392.584 10.6624L392.885 10.1278L393.134 9.56188L393.367 8.98341L393.617 8.41657L393.866 7.8487L394.153 7.30438L394.6 6.68424L394.872 6.30041L395.148 5.74914L395.367 5.1659L395.549 4.57116L395.696 3.95081L395.674 3.35271L395.444 2.77087L395.11 2.24181L394.655 1.80279L394.091 1.63745L393.465 1.68398L392.863 1.80232L392.278 1.97846L391.703 2.18662L391.142 2.44549L390.63 2.776L390.191 3.20226L389.781 3.66853L389.372 4.13183L388.974 4.60021L388.567 5.06225L388.161 5.52734L387.732 5.96754L387.234 6.33288L386.795 6.7519L386.323 7.47124L386.122 7.79135L385.737 8.2724L385.315 8.71997L384.905 9.18137L384.526 9.66789L384.146 10.1555L383.743 10.6203L383.314 11.0663L382.837 11.4488L382.284 11.7159L381.685 11.859L381.078 11.8938L380.696 11.8164L380.479 11.7703L379.88 11.6427L379.273 11.5519L378.669 11.462L378.07 11.3335L377.473 11.1927L376.866 11.135L376.251 11.1343L375.647 11.2016L375.075 11.428L374.551 11.7544L374.088 12.1615L373.793 12.7015L373.649 13.3087L373.695 13.9219L373.833 14.5294L374.031 15.1225L374.392 15.6147L374.882 15.9956L375.44 16.236L376.01 16.4646L376.522 16.8085L377.037 17.1371L377.612 17.3621L378.191 17.5743L378.698 17.9017L379.154 18.3288L379.544 18.8129L379.834 19.3495L379.978 19.9655L380.037 20.6294L379.655 20.9889L379.04 21.1375L378.411 21.2321L377.801 21.2372L377.189 21.2081L376.571 21.1845L375.961 21.1332L375.367 21.0111L374.806 20.7849L374.261 20.489L373.722 20.1856L373.194 19.8721L372.676 19.5438L372.15 19.2304L371.605 18.9442L371.069 18.6495L370.572 18.2691L370.106 17.8238L369.6 17.5621L368.963 17.6473L368.464 17.9826L368.22 18.5577L368.133 19.1949L368.195 19.8085L368.293 20.4272L368.282 21.0453L368.212 21.661L368.117 22.2758L368.052 22.9048L368.014 23.5578L367.889 24.1465L367.515 24.5712L366.902 24.8113L366.287 24.9717L365.645 25.0536L365.111 24.8817L364.683 24.4767L364.303 23.9665L363.918 23.4441L363.485 23.0018L363.013 22.6077L362.579 22.1703L362.181 21.6974L361.829 21.1933L361.555 20.637L361.308 20.0692L361.083 19.4923L360.828 18.9315L360.498 18.4064L360.181 17.8759L359.999 17.2769L359.858 16.6645L359.522 16.1749L359.02 15.7895L358.465 15.5314L357.866 15.3624L357.253 15.2976L356.657 15.3639L356.063 15.5208L355.475 15.7166L354.887 15.9L354.302 16.0954L353.752 16.3587L353.253 16.7145L352.754 17.0795L352.217 17.3639L351.643 17.5822L351.071 17.8043L350.488 18.0484L349.892 18.2945L349.369 18.5926L349.046 19.0297L349.052 19.6908L348.862 20.2741L348.455 20.7649L348.341 21.3436L348.406 21.972L348.412 22.598L348.314 23.2231L348.187 23.857L348 24.4512L347.716 24.962L347.249 25.3231L346.661 25.5886L346.1 25.8702L345.561 26.1834L344.981 26.3428L344.354 26.3695L343.761 26.2619L343.268 25.9096L342.799 25.488L342.316 25.0884L341.81 24.7441L341.227 24.5612H340.603L340.048 24.7738L339.522 25.1148L339.018 25.481L338.53 25.8718L338.175 26.3638L337.904 26.9273L337.714 27.5239L337.638 28.1263L337.668 28.7532L337.684 29.3762L337.66 29.9997L337.611 30.6185L337.5 31.2242L337.308 31.8117L337.077 32.3901L336.858 32.976L336.646 33.5766L336.356 34.1138L335.863 34.5773L335.432 34.8789L334.895 35.1999L334.358 35.521L333.849 35.8684L333.329 36.2188L332.87 36.6211L332.521 37.1198L332.231 37.6691L331.96 38.2357L331.67 38.7823L331.312 39.2764L330.859 39.6962L330.361 40.0679L329.843 40.3962L329.287 40.6618L328.699 40.881L328.106 40.8913L327.526 40.6906L326.948 40.4629L326.303 40.3614L326 40.2722L325.739 40.1965L325.531 39.6738L325.444 39.0108L325.178 38.4582L324.826 37.9456L324.349 37.3344L324.045 36.9888L323.644 36.5196L323.286 36.0172L322.934 35.5104L322.544 35.032L322.14 34.5691L321.744 34.0941L321.365 33.6017L320.909 33.2004L320.367 32.903L319.874 32.5441L319.424 32.1221L318.912 31.7819L318.424 31.4136L317.993 30.9719L317.529 30.566L317.047 30.178L316.532 29.8491L315.966 29.6178L315.361 29.4771L314.757 29.4241L314.139 29.4538L313.537 29.5496L312.932 29.6939L312.358 29.8936L311.889 30.2789L311.398 30.6436L310.84 30.9071L310.26 31.0938L309.656 31.199L309.04 31.2539L308.447 31.125L307.883 30.8755L307.363 30.5375L306.961 30.071L306.948 29.4526L307.062 28.8429L307.184 28.2342L307.284 27.6215L307.346 27.0046L307.341 26.3814L307.127 25.8039L306.709 25.3482L306.211 24.9875L305.668 24.7007L305.124 24.4224L304.598 24.099L304.4 24.0104L304.04 23.8516L303.454 23.6661L302.858 23.5233L302.253 23.4336L301.646 23.4614L301.042 23.5721L300.432 23.5648L299.825 23.4954L299.212 23.4342L298.6 23.4033L298 23.4854L297.407 23.6412L296.8 23.7161L296.193 23.7867L295.531 23.8692L295.041 24.1223L294.903 24.6959L294.881 25.3689L294.813 25.9855L294.762 26.6048L294.74 27.2235V27.8432L294.77 28.4625L294.827 29.08L294.913 29.6933L295.041 30.2996L295.141 30.9116L295.157 31.537L295.249 32.1427L295.374 32.4826L295.463 32.7214L295.697 33.3004L295.889 33.8883L296.076 34.4773L296.28 35.062L296.485 35.6474L296.689 36.231L296.889 36.8182L297.06 37.4139L297.225 38.0177L297.366 38.6289L297.45 39.2325L297.301 39.8312L296.925 40.3159L296.45 40.72L295.987 41.128L295.426 41.3663L294.824 41.5158L294.217 41.6067L293.634 41.4788L293.065 41.2244L292.509 40.9586L291.937 40.7524L291.322 40.7127L290.75 40.5105L290.192 40.2498L289.606 40.0707L289.007 39.9412L288.416 39.7748L287.826 39.6071L287.227 39.5147L286.611 39.518L286.001 39.5835L285.4 39.7099L284.839 39.9458L284.332 40.2986L283.828 40.6591L283.426 41.1183L283.112 41.6555L282.841 42.2142L282.613 42.796L282.513 43.3986L282.521 44.0237L282.605 44.64L282.738 45.2433L282.898 45.845L283.069 46.4419L283.253 47.0325L283.454 47.6176L283.662 48.2011L283.871 48.7844L284.085 49.3643L284.307 49.9427L284.538 50.5169L284.82 51.1671L285.034 51.6488L285.291 52.2139L285.554 52.7735L285.831 53.3268L286.148 53.8594L286.481 54.3823L286.725 54.9456L286.912 55.534L287.075 56.1306L287.224 56.735L287.37 57.3398L287.53 57.9437L287.641 58.5527L287.612 59.166L287.479 59.7787L287.457 59.9551L287.405 60.391L287.457 61.0052L287.565 61.6194L287.714 62.2251L287.901 62.8132L288.148 63.3822L288.392 63.9524L288.574 64.5463L288.744 65.142L288.994 65.7055L289.389 66.4267L289.603 66.785L289.934 67.3043L290.284 67.8148L290.655 68.3117L291.059 68.7722L291.534 69.1693L291.954 69.6164L292.339 70.0991L292.712 70.5935L293.089 71.0794L293.463 71.5687L293.84 72.0598L294.217 72.5479L294.621 73.0193L295.003 73.5019L295.247 74.0651L295.434 74.659L295.732 75.2001L296.076 75.7182L296.334 76.2742L296.458 76.8808L296.559 77.4968L296.664 78.1149L296.67 78.7285L296.572 79.3387L296.42 79.9429L296.242 80.5395L296.044 81.1258L295.821 81.7054L295.578 82.2747L295.304 82.8277L294.992 83.3639L294.688 83.9035L294.466 84.475L294.342 85.088L294.165 85.6803L293.862 86.2157L293.531 86.7425L293.271 87.3021L293.073 87.8887L292.886 88.4799L292.688 89.0683L292.436 89.6315L292.159 90.1845L291.983 90.7771L291.851 91.3834L291.655 91.9715L291.452 92.5163L291.439 92.5517L291.211 93.1265L290.981 93.7028L290.737 94.2721L290.506 94.8451L290.346 95.4441L290.221 96.0501L290.086 96.6567L289.956 97.2633L289.826 97.8666L289.685 98.4698L289.482 99.0689L289.213 99.6554V100.224L289.463 100.781L289.804 101.33L290.129 101.863L290.479 102.377L290.812 102.896L291.073 103.454L291.292 104.034L291.501 104.619L291.756 105.194L292.1 105.75L292.154 106.315L292.1 106.491L291.975 106.886L291.71 107.459L291.433 108.037L291.214 108.623L291.092 109.232L290.967 109.839L290.802 110.446L290.547 111.004L290.156 111.487L289.888 111.721L289.68 111.907L289.148 112.178L288.555 112.336L287.934 112.423L287.316 112.466L286.712 112.397L286.107 112.266L285.489 112.293L284.893 112.178L284.316 111.964L283.733 111.764L283.131 111.687L282.513 111.717L281.898 111.659L281.299 111.729L280.721 111.956L280.209 112.291L279.77 112.734L279.347 113.195L279.038 113.718L278.859 114.314L278.767 114.934L278.8 115.546L278.919 116.162L279.128 116.726L279.445 117.216L279.911 117.605L280.521 117.9L281.161 118.175L281.605 118.576L282.05 118.974L282.237 119.549L282.467 120.11L282.754 120.641L283.082 121.155L283.421 121.664L283.741 122.182L284.02 122.722L284.261 123.281L284.486 123.846L284.719 124.411L284.969 124.967L285.226 125.519L285.489 126.071L285.741 126.625L285.982 127.182L286.199 127.749L286.405 128.323L286.6 128.9L286.804 129.475L286.942 129.828L287.115 130.252L287.262 130.608L287.487 131.173L287.668 131.753L287.815 132.345L287.945 132.941L288.064 133.538L288.175 134.14L288.283 134.741L288.381 135.342L288.471 135.946L288.544 136.553L288.598 137.159L288.65 137.777L288.701 138.405V139.024L288.603 139.6L288.308 140.095L287.855 140.532L287.424 140.987L287.069 141.481L286.728 141.982L286.386 142.487L286.037 142.985L285.682 143.478L285.318 143.965L284.953 144.449L284.549 144.909L284.128 145.352L283.76 145.833L283.459 146.363L283.166 146.916L282.904 147.48L282.687 148.051L282.54 148.622L282.586 149.204L282.827 149.796L283.072 150.367L283.318 150.923L283.587 151.47L283.868 152.012L284.156 152.547L284.457 153.079L284.771 153.6L285.118 154.099L285.497 154.573L285.597 154.678L285.597 154.68Z" fill="url(#paint0_linear_217_219)" stroke="#FFB71B" stroke-width="1.96133" stroke-linecap="square" stroke-linejoin="bevel"/>
<defs>
<linearGradient id="paint0_linear_217_219" x1="114.5" y1="614.5" x2="336" y2="2.00001" gradientUnits="userSpaceOnUse">
<stop stop-color="#7C2263"/>
<stop offset="1" stop-color="#E23EB4"/>
</linearGradient>
</defs>
</svg>
