<?xml version="1.0" encoding="UTF-8"?><svg xmlns="http://www.w3.org/2000/svg" viewBox="0 0 139.13 172.22"><defs><style>.d{fill:none;stroke:#1d1d1b;stroke-miterlimit:10;stroke-width:.75px;}</style></defs><g id="a"/><g id="b"><g id="c"><path class="d" d="M135.7,77.29s0-.02,0-.03c-2.18-8.92-5.78-17.22-10.51-24.61-.5-.58-.99-.84-1.47-.87-3.16-.16-5.93,10.05-9.85,7.41-.87-1.07-3.07-14.63-9.46-28.59-5.87-12.82-15.27-25.97-30.43-30.1,1.53,9.74,.96,23.48-5.47,33.15-1.84,2.77-4.16,5.2-7.06,7.11-4.21,2.3-3.96-5.93-5.07-9.54-.32-1.02-.74-1.67-1.4-1.61-10.92,9.95-30.68,34.16-39.84,51.61-14.75,28.1-25.02,55.73,2.36,87.98,4.56,4.52,11.64,3.23,13.76-3.95,5.1-17.26,18.94-31.45,18.94-31.45,0,0-9.09,1.46-14.03,7.6-.95,1.18-2.04,2.93-3.33,3.28-2.82,.79-4.18-2.57-3.2-4.25,.63-1.09,2.92-1.76,2.8-2.12-.21-.61-1-2.71,.06-3.15,1.06-.44,1.35,2.94,3.66,1.47,6.99-6.33,18.27-9.41,18.27-9.41,0,0,6.68-4.52,8.14-10.75,.16-.67,.25-1.36,.28-2.07,.12-3.69-.87-7.62-.25-11.63,.58-3.76,2.56-7.59,8.17-11.38,4.75-3.3,2.79-5.73,4.47-10.46,2.45,5.44,9.85,2.87,10.58,10.08,1.37-.83,8.47-5.54,8.89-13.42,2.4,4.05,3,13.71-3.54,25.19-.18,.31-.36,.63-.55,.94,.33-.35,.64-.66,.94-.94,4.25-4.02,5.45-1.88,6.91-7.33,.81,2.5,.76,5,.18,7.33-1.39,5.66-5.87,10.39-8.73,12.12-1.1,.32-2.27,.88-3.45,1.58-5.11,3.03-10.44,8.72-11.24,9.71,9.89-2.64,22.7,3.88,24.63,4.57,1.93,.69,5.32-6.57,9.09-4.06,1.91,1.91-3.96,4.56-2,6.37,1.96,1.81,4.16-3.33,7.31-1.03,1.1,1.47-3.01,2.55-2.67,3.14,.33,.59,5.87-.93,5.01,3.48-.86,4.41-7.21-1.03-8.26-.59-1.05,.44,4.68,7.44-.14,7.79-3.49-.05-3.06-7.5-4.39-7.4-1.48,.1,.26,8.85-4.11,9.01-4.36,.17-.62-9.19-1.91-10.38-1.29-1.19-10.58-7.74-26.4-5.71-7.31,8.08-4.24,25.22-2.41,32.81,.56,2.32,2.46,3.89,6.73,3.74,29.24-1.04,48.36-13.19,56.2-31.1,11.72-26.77,5.24-53.72,3.82-59.52Z"/></g></g></svg>